<?xml version="1.0" standalone="no"?>
<!DOCTYPE svg PUBLIC "-//W3C//DTD SVG 1.1//EN" 
  "http://www.w3.org/Graphics/SVG/1.1/DTD/svg11.dtd">
<svg width="1000" height="1577" viewBox="8.539777051 41.36275743 0.867346881 1.01864828"  preserveAspectRatio="none"
     xmlns="http://www.w3.org/2000/svg" version="1.1">

<style type="text/css" >
<![CDATA[

.communes { 
	fill           : #b9b9b9;
	fill-opacity   : 1;
	stroke         : white;
	stroke-opacity : 1;
	stroke-width   : 0.002;
}

]]>
</style>

<g transform="translate(0,42.38140571) scale(1,-1) translate(0,-41.36275743)">

<g class="communes">

<polygon id="2A001 AFA" points="8.784625924,41.9525632 8.784316125,41.95542673 8.78781859,41.95717157 8.788208221,41.96947348 8.788178769,41.98315881 8.781611777,41.99201337 8.779819261,42.00215594 8.786616997,42.00667561 8.799730029,42.00565049 8.807517537,42.00928581 8.814268278,41.99668961 8.816074689,41.98308608 8.805558626,41.96816987 8.808810839,41.96186532 8.784625924,41.9525632" />
<polygon id="2A004 AJACCIO" points="8.636808169,41.90797575 8.609260581,41.89559219 8.612876294,41.90191132 8.611022371,41.91206082 8.622969589,41.93439138 8.618495502,41.94008756 8.609460591,41.93983843 8.593910897,41.963567 8.613847822,41.97129088 8.622871414,41.97048669 8.62653689,41.96502245 8.648788426,41.96122269 8.674208119,41.94675458 8.70056256,41.9532705 8.704027329,41.94681426 8.716169657,41.95033707 8.720949617,41.95631144 8.729281945,41.95921958 8.747736423,41.9598562 8.761087301,41.95717399 8.773453357,41.96119183 8.784316125,41.95542673 8.784625924,41.9525632 8.787502551,41.94991032 8.810132064,41.9482351 8.817646974,41.95137958 8.820728746,41.94874145 8.815515511,41.93530916 8.820360047,41.92183622 8.81477691,41.91647795 8.806000569,41.91406963 8.802320387,41.90768734 8.798620004,41.90807092 8.797666407,41.90536695 8.778795942,41.92527319 8.769808651,41.9267377 8.761163717,41.92430946 8.752350282,41.93249164 8.747681322,41.93298016 8.740890295,41.92865679 8.739855163,41.9181654 8.719682943,41.90914553 8.715133524,41.90823912 8.691655913,41.90859835 8.673406357,41.90527588 8.645783815,41.9095404 8.636808169,41.90797575" />
<polygon id="2A006 ALATA" points="8.784316125,41.95542673 8.773453357,41.96119183 8.761087301,41.95717399 8.747736423,41.9598562 8.729281945,41.95921958 8.720949617,41.95631144 8.716169657,41.95033707 8.704027329,41.94681426 8.70056256,41.9532705 8.687001938,41.97439444 8.674194483,41.97701976 8.668422861,41.98213957 8.669041511,41.99018609 8.686238198,41.9849744 8.735949874,41.99394354 8.749886609,41.99260052 8.757111306,41.98893712 8.77126705,41.98910169 8.783614608,41.97026562 8.788208221,41.96947348 8.78781859,41.95717157 8.784316125,41.95542673" />
<polygon id="2A008 ALBITRECCIA" points="8.860380635,41.82260667 8.853650784,41.83875268 8.843105055,41.84938114 8.838624026,41.84865662 8.819908716,41.85786119 8.798606802,41.85259476 8.789592402,41.85305416 8.788533989,41.86828033 8.797629857,41.86764552 8.813400153,41.87456874 8.822475324,41.87261787 8.841151476,41.87427835 8.854470052,41.87064829 8.857963627,41.88396615 8.861333327,41.88645433 8.870711939,41.88681554 8.893654204,41.88285161 8.905451768,41.87728213 8.928886839,41.87814725 8.95968537,41.86230358 8.960479055,41.85525904 8.95785265,41.8469215 8.946346997,41.84787749 8.939694603,41.84463124 8.922427932,41.85443085 8.917889854,41.85387496 8.91255249,41.84439167 8.908162836,41.84554762 8.90188372,41.85466417 8.897452269,41.85360601 8.888419927,41.84158998 8.876941748,41.83580814 8.872371044,41.82619965 8.860380635,41.82260667" />
<polygon id="2A011 ALTAGENE" points="9.08195963,41.69861259 9.055609315,41.70489845 9.050566531,41.70999884 9.079953755,41.71555551 9.090681803,41.72130362 9.097635442,41.71796405 9.09254573,41.70918776 9.094515945,41.70626306 9.090206573,41.70608934 9.08195963,41.69861259" />
<polygon id="2A014 AMBIEGNA" points="8.786980661,42.07834967 8.741493648,42.08498096 8.73714855,42.08358599 8.756967101,42.09132062 8.768050449,42.09542 8.770168397,42.10121476 8.774217299,42.10191292 8.780701195,42.09465767 8.796199178,42.08928716 8.798880108,42.08336513 8.786980661,42.07834967" />
<polygon id="2A017 APPIETTO" points="8.788208221,41.96947348 8.783614608,41.97026562 8.77126705,41.98910169 8.757111306,41.98893712 8.749886609,41.99260052 8.735949874,41.99394354 8.686238198,41.9849744 8.669041511,41.99018609 8.667411354,41.99306588 8.659055291,41.99255893 8.654614102,42.0012457 8.656559105,42.00401502 8.670678674,42.0054112 8.70435611,42.01841703 8.727462396,42.02197802 8.732213523,42.02213488 8.740599894,42.01881512 8.745357316,42.01879086 8.782888768,42.01997835 8.796305466,42.02359479 8.803080084,42.01279077 8.807517537,42.00928581 8.799730029,42.00565049 8.786616997,42.00667561 8.779819261,42.00215594 8.781611777,41.99201337 8.788178769,41.98315881 8.788208221,41.96947348" />
<polygon id="2A018 ARBELLARA" points="8.972057339,41.6516186 8.96642465,41.65636973 8.972306007,41.66144856 8.966766395,41.67058062 8.969486113,41.68026148 8.978000702,41.68806395 8.986949182,41.68814924 9.015670853,41.67484555 9.020882837,41.6695212 9.015615853,41.66415738 8.999541103,41.66057283 8.991187274,41.66133761 8.986527085,41.65600104 8.97404784,41.65444157 8.972057339,41.6516186" />
<polygon id="2A019 ARBORI" points="8.756967101,42.09132062 8.760860396,42.10091995 8.77729121,42.11630475 8.767710188,42.1345583 8.775325485,42.13863019 8.784896451,42.15061377 8.811522165,42.15451743 8.822849092,42.14383075 8.821690941,42.13423537 8.834406594,42.13087748 8.820925104,42.12297868 8.820868655,42.11643143 8.810150208,42.11438932 8.809576085,42.11164576 8.800815688,42.11226133 8.786757615,42.10406608 8.774217299,42.10191292 8.770168397,42.10121476 8.768050449,42.09542 8.756967101,42.09132062" />
<polygon id="2A021 ARGIUSTA-MORICCIO" points="9.049053171,41.79028582 9.044683064,41.79157275 9.030291804,41.80940603 9.006130912,41.81950663 9.004634014,41.8264475 9.007813654,41.83141021 9.012215734,41.83051952 9.0220424,41.83757088 9.029889506,41.83455462 9.035928327,41.8256504 9.048612727,41.8163915 9.050790126,41.80991519 9.06057962,41.80405517 9.049053171,41.79028582" />
<polygon id="2A022 ARRO" points="8.798880108,42.08336513 8.796199178,42.08928716 8.780701195,42.09465767 8.774217299,42.10191292 8.786757615,42.10406608 8.800815688,42.11226133 8.809576085,42.11164576 8.826358264,42.09273948 8.826717573,42.08295303 8.798880108,42.08336513" />
<polygon id="2A024 AULLENE" points="9.082168547,41.76448704 9.073828137,41.76236517 9.052039081,41.76483636 9.047910901,41.77069485 9.034644993,41.7707625 9.034500957,41.77770717 9.049053171,41.79028582 9.06057962,41.80405517 9.074199145,41.82183833 9.0876871,41.82322206 9.109804072,41.84044748 9.118414988,41.85630981 9.140314029,41.8592081 9.144169578,41.85757785 9.142278952,41.85111964 9.151979812,41.84419268 9.102699753,41.79337062 9.094560085,41.77331961 9.086864965,41.76475609 9.082168547,41.76448704" />
<polygon id="2A026 AZILONE-AMPAZA" points="9.033140224,41.85760301 9.015210255,41.85738437 8.998606759,41.86297006 8.993624974,41.86316331 8.99684596,41.87503422 9.006901076,41.88037193 9.019457947,41.88138572 9.029656701,41.88774038 9.036042696,41.87958186 9.032413307,41.87369016 9.033140224,41.85760301" />
<polygon id="2A027 AZZANA" points="8.933694323,42.08587386 8.923670841,42.09311243 8.92040799,42.10286444 8.912345594,42.10618957 8.919706362,42.12242125 8.913318611,42.14262953 8.916684086,42.14478445 8.939523788,42.14887675 8.929700064,42.1378297 8.929580653,42.12754564 8.947329607,42.10368884 8.955751375,42.10094445 8.956346352,42.09273795 8.947367933,42.08973772 8.933694323,42.08587386" />
<polygon id="2A028 BALOGNA" points="8.797206183,42.18719876 8.785889786,42.16804833 8.774227443,42.16203504 8.762096448,42.16700232 8.721106418,42.17463839 8.702705526,42.18545083 8.702671089,42.18895749 8.716083803,42.19865954 8.72173925,42.20805833 8.749486891,42.20614276 8.75826497,42.19865627 8.79370673,42.20707839 8.792032521,42.20424139 8.799027971,42.19324435 8.797206183,42.18719876" />
<polygon id="2A031 BASTELICA" points="8.95935255,41.89678109 8.952098548,41.90374918 8.950653783,41.92107406 8.950219832,41.93098165 8.959551117,41.93162639 8.981155138,41.94499086 8.984476493,41.95854255 8.9920164,41.96276407 9.001963602,41.97861561 9.00296673,41.98205457 8.998616678,41.98830254 8.996055863,41.99125913 8.989172369,41.99601057 8.975401245,41.99789858 8.974182819,42.0046891 8.97844143,42.01021484 9.006308198,42.02186222 9.01011833,42.02827756 9.021145583,42.03481367 9.02072864,42.04147853 9.034462001,42.03230621 9.051574644,42.03756369 9.069863607,42.03662331 9.081056918,42.0424593 9.090188223,42.04121275 9.103405614,42.04462295 9.110954545,42.0461785 9.113092121,42.05266067 9.13356604,42.05939668 9.131868812,42.05287117 9.151657893,42.03896038 9.160211567,42.02680052 9.146645805,42.010702 9.103944294,41.98698134 9.097585499,41.97807618 9.085548126,41.97320172 9.081568167,41.96706033 9.073903226,41.96333855 9.065560013,41.96321443 9.053181979,41.95942851 9.049040047,41.95800797 9.045239477,41.94827823 9.022461384,41.9284427 9.004091335,41.91383062 8.988008077,41.90892452 8.95935255,41.89678109" />
<polygon id="2A032 BASTELICACCIA" points="8.819166547,41.907201 8.815209241,41.90840104 8.803760448,41.90468062 8.802320387,41.90768734 8.806000569,41.91406963 8.81477691,41.91647795 8.820360047,41.92183622 8.815515511,41.93530916 8.820728746,41.94874145 8.817646974,41.95137958 8.822209453,41.95980323 8.826458034,41.96138863 8.87203297,41.95387329 8.853837649,41.94093824 8.863692655,41.92625688 8.837543461,41.91181594 8.829254472,41.91323803 8.819166547,41.907201" />
<polygon id="2A035 BELVEDERE-CAMPOMORO" points="8.781873174,41.58766033 8.779148911,41.59046653 8.789266853,41.6054955 8.792685926,41.62914191 8.800028169,41.632906 8.804488745,41.63848577 8.817863989,41.63107337 8.852230532,41.64711202 8.866341627,41.64836042 8.86950251,41.64609464 8.858710504,41.62345429 8.838807841,41.6012849 8.814283738,41.58758121 8.792820333,41.5935129 8.781873174,41.58766033" />
<polygon id="2A038 BILIA" points="8.901110398,41.60503321 8.890122018,41.60866689 8.896267522,41.62060533 8.886649603,41.62658405 8.899662345,41.63851587 8.908130198,41.63831921 8.914045474,41.63372668 8.921864712,41.62526209 8.920219928,41.61482722 8.901110398,41.60503321" />
<polygon id="2A040 BOCOGNANO" points="9.103405614,42.04462295 9.09128803,42.04995381 9.077287615,42.04867775 9.063773326,42.05198588 9.04283726,42.06026734 9.028057043,42.07779091 9.000992219,42.08269989 9.007324057,42.10308486 9.003014812,42.11277349 9.009418319,42.11751073 9.039207586,42.12692712 9.057139604,42.12390195 9.063205211,42.1290612 9.07203224,42.13000629 9.083619125,42.12475376 9.092107048,42.1167222 9.105522471,42.11570587 9.123633486,42.1054036 9.133688097,42.09055437 9.129171516,42.06491461 9.13356604,42.05939668 9.113092121,42.05266067 9.110954545,42.0461785 9.103405614,42.04462295" />
<path id="2A041 BONIFACIO" d="M9.264795251,41.36275743 L9.262569101,41.36307086 L9.259960995,41.36588366 L9.253771363,41.36806405 L9.253597501,41.36970447 L9.259124964,41.3725799 L9.265987511,41.3722411 L9.268172799,41.36927335 L9.272692212,41.36916452 L9.273653779,41.3676299 L9.271028564,41.36495951 L9.266923062,41.36547576 L9.264795251,41.36275743 Z M9.244524209,41.40016366 L9.223104349,41.37794389 L9.219627211,41.36803762 L9.182812002,41.36599677 L9.178717977,41.36766147 L9.169780141,41.38333539 L9.152260552,41.386186 L9.155660019,41.38864254 L9.15274014,41.39011999 L9.138965425,41.39058682 L9.127923944,41.39725821 L9.100327949,41.39299938 L9.095789482,41.39386715 L9.091645825,41.40009644 L9.097445918,41.41313068 L9.106639378,41.42040203 L9.107160483,41.42720642 L9.118568409,41.43781489 L9.117095406,41.44105279 L9.099303463,41.44353131 L9.095379943,41.44960408 L9.097673698,41.45596335 L9.09051513,41.46050421 L9.091126508,41.46400775 L9.099760048,41.47228574 L9.127491759,41.47240572 L9.134765308,41.46794551 L9.140282446,41.45832838 L9.144726889,41.45720322 L9.163795487,41.46720523 L9.191312788,41.49519569 L9.222078347,41.50833423 L9.235036853,41.50690676 L9.235498034,41.50013304 L9.246875506,41.48554869 L9.263546516,41.49005689 L9.270358325,41.48548821 L9.28386132,41.48608447 L9.287259445,41.48379095 L9.283032026,41.47758632 L9.272049439,41.47113776 L9.271554517,41.46476343 L9.262850726,41.46251004 L9.243115224,41.44770142 L9.225861903,41.44253216 L9.224599821,41.43279042 L9.227807987,41.42630436 L9.224477725,41.41623556 L9.21608505,41.41412257 L9.21862335,41.40752363 L9.222878245,41.40623507 L9.226855155,41.40799785 L9.246948697,41.42228201 L9.258989298,41.42741695 L9.263384843,41.42643357 L9.258217177,41.4132962 L9.250739775,41.40932099 L9.244524209,41.40016366 Z" />
<polygon id="2A048 CALCATOGGIO" points="8.656559105,42.00401502 8.658290654,42.01058797 8.672567569,42.0197313 8.688802641,42.02671385 8.713781207,42.02900615 8.725692262,42.03530724 8.725699217,42.04120743 8.739637923,42.03939775 8.7475181,42.04780727 8.743399017,42.05722903 8.758041958,42.04949602 8.775506284,42.04554369 8.781476279,42.03693821 8.805738771,42.02821227 8.796305466,42.02359479 8.782888768,42.01997835 8.745357316,42.01879086 8.740599894,42.01881512 8.732213523,42.02213488 8.727462396,42.02197802 8.70435611,42.01841703 8.670678674,42.0054112 8.656559105,42.00401502" />
<polygon id="2A056 CAMPO" points="9.009179105,41.88249446 8.996519904,41.88307989 8.987259531,41.89041692 8.988365761,41.90022824 9.004938243,41.89564636 9.013645688,41.89636657 9.015055671,41.88715063 9.009179105,41.88249446" />
<polygon id="2A060 CANNELLE" points="8.825550127,42.03900563 8.807784122,42.04854174 8.790489074,42.05015683 8.78744894,42.0525485 8.79025082,42.05509789 8.793482163,42.05599303 8.824499854,42.05255055 8.842222045,42.0427076 8.835116686,42.03882947 8.825550127,42.03900563" />
<polygon id="2A061 CARBINI" points="9.16383625,41.65564012 9.150071718,41.65564495 9.137690766,41.66029634 9.128044128,41.67963201 9.131615919,41.68545018 9.140815821,41.68539963 9.156883468,41.69220708 9.164792266,41.70061712 9.189330821,41.6833381 9.192492221,41.67314328 9.16383625,41.65564012" />
<polygon id="2A062 CARBUCCIA" points="8.892960924,42.01665567 8.90611217,42.02609368 8.913727178,42.02959628 8.921299848,42.04190366 8.930156209,42.04354274 8.947216429,42.05456844 8.956505597,42.04733275 8.963387175,42.03509603 8.96610644,42.02557174 8.962778341,42.01956943 8.953801087,42.01981422 8.937465393,42.01420086 8.892960924,42.01665567" />
<polygon id="2A064 CARDO-TORGIA" points="8.964610202,41.83690929 8.95785265,41.8469215 8.960479055,41.85525904 8.971865994,41.85739826 8.974367278,41.86970666 8.981807475,41.8685551 8.981829288,41.86200443 8.98939184,41.85862917 8.976635453,41.84953366 8.975361602,41.84291249 8.964610202,41.83690929" />
<polygon id="2A065 CARGESE" points="8.650968207,42.11698745 8.644379997,42.12120358 8.635583643,42.12007761 8.634530504,42.12398032 8.618372537,42.12356868 8.614751241,42.13302149 8.578892192,42.12755677 8.592300476,42.14266825 8.585238386,42.1508782 8.576325079,42.15262695 8.560186201,42.1458452 8.56284594,42.1520654 8.57959797,42.1576345 8.593850728,42.1659096 8.587899854,42.17170086 8.56839391,42.16893501 8.559698624,42.17276073 8.565875042,42.17812092 8.582067275,42.17874676 8.586423503,42.18124689 8.582376882,42.18327086 8.604726562,42.19583012 8.609310067,42.19511021 8.620707431,42.1843352 8.636256377,42.16777954 8.682072824,42.17155805 8.687853922,42.16622962 8.670787516,42.13100865 8.650968207,42.11698745" />
<polygon id="2A066 CARGIACA" points="9.041621866,41.7103419 9.044498956,41.72048147 9.041603621,41.72320603 9.03256706,41.72302203 9.025415368,41.71856777 9.018796074,41.72298214 9.03596542,41.75014813 9.048918131,41.74777394 9.055130521,41.74302067 9.056037858,41.72091674 9.049496097,41.71187098 9.041621866,41.7103419" />
<polygon id="2A070 CASAGLIONE" points="8.79025082,42.05509789 8.762957982,42.05549846 8.752630096,42.06150209 8.743930724,42.05945236 8.73813566,42.06460464 8.720525869,42.06416205 8.717194837,42.07738681 8.725357895,42.0793778 8.73227525,42.07628257 8.738608923,42.08046174 8.73714855,42.08358599 8.741493648,42.08498096 8.786980661,42.07834967 8.797595645,42.06864196 8.793482163,42.05599303 8.79025082,42.05509789" />
<polygon id="2A071 CASALABRIVA" points="8.95328685,41.74305775 8.94240277,41.73816054 8.921161408,41.73955609 8.92662148,41.74495017 8.915508107,41.75538411 8.899617482,41.76199542 8.890707291,41.7610713 8.87570354,41.76841278 8.878296979,41.77125831 8.909782879,41.77580969 8.916497203,41.78036864 8.937409075,41.7750751 8.95388863,41.75951621 8.95835477,41.7467972 8.957797773,41.74342396 8.95328685,41.74305775" />
<polygon id="2A085 CAURO" points="8.952098548,41.90374918 8.942814771,41.89277722 8.934131097,41.89023917 8.923263874,41.89630923 8.893063925,41.88743378 8.866170212,41.8931397 8.844896159,41.88675392 8.836402578,41.88911588 8.827976963,41.90508429 8.819166547,41.907201 8.829254472,41.91323803 8.837543461,41.91181594 8.846704952,41.90424632 8.875774019,41.9156846 8.894055071,41.91950272 8.950653783,41.92107406 8.952098548,41.90374918" />
<polygon id="2A089 CIAMANNACCE" points="9.126954113,41.92845573 9.136202218,41.94759834 9.12647558,41.96257201 9.110072244,41.97435381 9.097585499,41.97807618 9.103944294,41.98698134 9.146645805,42.010702 9.159859902,41.99646876 9.155129211,41.98290255 9.163253549,41.97053343 9.163143753,41.95658106 9.166417307,41.95406495 9.160217383,41.94489295 9.13906729,41.93144622 9.126954113,41.92845573" />
<polygon id="2A090 COGGIA" points="8.73714855,42.08358599 8.738608923,42.08046174 8.73227525,42.07628257 8.725357895,42.0793778 8.717194837,42.07738681 8.710335515,42.08593723 8.705993123,42.08680208 8.709259919,42.09651765 8.701200979,42.11118622 8.706585932,42.13122977 8.717826829,42.14200231 8.730507191,42.1382177 8.743174641,42.14111735 8.758724426,42.13377695 8.767710188,42.1345583 8.77729121,42.11630475 8.760860396,42.10091995 8.756967101,42.09132062 8.73714855,42.08358599" />
<polygon id="2A091 COGNOCOLI-MONTICCHI" points="8.857331556,41.75446743 8.824407696,41.76430103 8.822749136,41.77760527 8.831095658,41.78560065 8.823552822,41.78940453 8.820955439,41.79113329 8.839693503,41.80984819 8.86275556,41.81972732 8.860380635,41.82260667 8.872371044,41.82619965 8.876941748,41.83580814 8.888419927,41.84158998 8.897452269,41.85360601 8.90188372,41.85466417 8.908162836,41.84554762 8.91255249,41.84439167 8.910234545,41.83821608 8.913307481,41.83582775 8.913325854,41.82268423 8.888607364,41.80790003 8.873209843,41.78252171 8.861747689,41.77664838 8.863063681,41.76628032 8.868142586,41.7604942 8.857331556,41.75446743" />
<polygon id="2A092 CONCA" points="9.401377887,41.71773597 9.398637075,41.72063311 9.380234537,41.72340916 9.367340479,41.71894634 9.363731429,41.70878456 9.351937412,41.70299216 9.347269803,41.70240905 9.342547403,41.702658 9.315668778,41.70922253 9.307120519,41.71677249 9.315554505,41.74435162 9.313086595,41.74737409 9.264109529,41.76055485 9.23171,41.77452469 9.264129959,41.80449766 9.272434663,41.80773383 9.277390879,41.79421971 9.314907747,41.78046931 9.337245663,41.78411006 9.352834352,41.77648415 9.363004699,41.76508339 9.381524258,41.76660235 9.396644187,41.77372272 9.405078466,41.77101996 9.407123932,41.76436204 9.403133904,41.7304879 9.405307686,41.72380443 9.401377887,41.71773597" />
<polygon id="2A094 CORRANO" points="9.047067292,41.8602646 9.059529251,41.90549856 9.077489671,41.90212276 9.092451239,41.88878067 9.097563036,41.88399823 9.087870946,41.87305251 9.086651863,41.86312202 9.082181498,41.86219975 9.065992286,41.86849322 9.055769034,41.8616751 9.047067292,41.8602646" />
<polygon id="2A098 COTI-CHIAVARI" points="8.709892532,41.72228752 8.705528607,41.72352381 8.705876566,41.73720163 8.70250397,41.7396267 8.670290541,41.74271791 8.661252332,41.74099827 8.659333172,41.74418112 8.66028675,41.74760572 8.667351897,41.75193514 8.684421542,41.74787197 8.712106424,41.76008835 8.730463935,41.77969571 8.710557067,41.79814914 8.712637867,41.80124241 8.734522246,41.79805403 8.749686435,41.8103945 8.753967073,41.81170088 8.757334944,41.80932836 8.771293566,41.81123955 8.784901549,41.81054728 8.79729183,41.80616448 8.816365786,41.79707007 8.820955439,41.79113329 8.823552822,41.78940453 8.817383019,41.78041469 8.802546381,41.77270423 8.791664295,41.76185652 8.784015121,41.7353584 8.777758491,41.74034907 8.768760743,41.74068056 8.709892532,41.72228752" />
<polygon id="2A099 COZZANO" points="9.213279745,41.91746046 9.195395304,41.91513294 9.179758504,41.90868794 9.167056615,41.91237784 9.161239548,41.92157551 9.1438986,41.92605585 9.13906729,41.93144622 9.160217383,41.94489295 9.166417307,41.95406495 9.188926252,41.95343263 9.201476666,41.95590427 9.222672254,41.94946617 9.216812853,41.94062842 9.230643244,41.93263044 9.213279745,41.91746046" />
<polygon id="2A100 CRISTINACCE" points="8.848501379,42.21969521 8.827411203,42.22375794 8.819064783,42.22163007 8.810455836,42.23286138 8.813203181,42.23916285 8.822434426,42.24028757 8.833018215,42.25145702 8.851132254,42.25574939 8.881944881,42.27169117 8.904767893,42.25386824 8.879832375,42.24607002 8.871097564,42.23830807 8.864484478,42.22579635 8.848501379,42.21969521" />
<polygon id="2A103 CUTTOLI-CORTICCHIATO" points="8.87203297,41.95387329 8.826458034,41.96138863 8.822209453,41.95980323 8.823036078,41.96608164 8.830547276,41.96927969 8.84264243,41.98227766 8.871714152,41.99227855 8.880835654,42.00004181 8.898939733,41.99894256 8.906724316,41.9951561 8.915941902,41.99601886 8.946708582,41.98912897 8.943656159,41.98306597 8.939142327,41.97711217 8.905409201,41.9672734 8.893291982,41.95694113 8.87203297,41.95387329" />
<polygon id="2A104 ECCICA-SUARELLA" points="8.950653783,41.92107406 8.894055071,41.91950272 8.875774019,41.9156846 8.846704952,41.90424632 8.837543461,41.91181594 8.863692655,41.92625688 8.87511784,41.93207166 8.893120873,41.93065364 8.903966345,41.93690332 8.916607733,41.93326757 8.929800252,41.93415789 8.937403956,41.93107274 8.950219832,41.93098165 8.950653783,41.92107406" />
<polygon id="2A108 EVISA" points="8.813203181,42.23916285 8.80953648,42.24131917 8.791366861,42.24104215 8.767744813,42.25152031 8.783045758,42.26435729 8.776727372,42.27729012 8.777982973,42.28423259 8.767370463,42.29094642 8.771169269,42.32540736 8.789823626,42.32553669 8.820055476,42.31666581 8.857165708,42.33098309 8.861451292,42.32962914 8.860726529,42.29912628 8.877046941,42.29300598 8.885118928,42.28491635 8.881944881,42.27169117 8.851132254,42.25574939 8.833018215,42.25145702 8.822434426,42.24028757 8.813203181,42.23916285" />
<polygon id="2A114 FIGARI" points="9.095379943,41.44960408 9.0808306,41.441949 9.072341328,41.44412548 9.067366092,41.44977174 9.068505174,41.46300618 9.079938955,41.47749015 9.082224823,41.48389545 9.075014767,41.50421587 9.080938699,41.51734504 9.06702284,41.52666162 9.06345347,41.53300104 9.06937409,41.54644678 9.094213552,41.57253035 9.086569656,41.58485367 9.095295762,41.58559924 9.111996606,41.59606692 9.137790777,41.56249686 9.152966042,41.55412325 9.165785148,41.55125396 9.174633895,41.53125145 9.167273459,41.51110434 9.191312788,41.49519569 9.163795487,41.46720523 9.144726889,41.45720322 9.140282446,41.45832838 9.134765308,41.46794551 9.127491759,41.47240572 9.099760048,41.47228574 9.091126508,41.46400775 9.09051513,41.46050421 9.097673698,41.45596335 9.095379943,41.44960408" />
<polygon id="2A115 FOCE" points="9.045780928,41.60948391 9.041223334,41.61009747 9.023205357,41.59932517 8.99672191,41.60343487 8.99291388,41.61985437 9.010205855,41.63127714 9.022065077,41.62749066 9.026190844,41.62851496 9.028584215,41.6347994 9.041876934,41.63646756 9.056257802,41.64441232 9.062516609,41.63952077 9.080259082,41.64998868 9.074486465,41.62408471 9.045780928,41.60948391" />
<polygon id="2A117 FORCIOLO" points="9.0220424,41.83757088 9.012215734,41.83051952 9.007813654,41.83141021 9.003277874,41.84801962 8.995952343,41.85642743 8.998606759,41.86297006 9.015210255,41.85738437 9.033140224,41.85760301 9.036296729,41.85312491 9.032569424,41.84355439 9.0220424,41.83757088" />
<polygon id="2A118 FOZZANO" points="9.015670853,41.67484555 8.986949182,41.68814924 8.978000702,41.68806395 8.969486113,41.68026148 8.961466898,41.68663393 8.953311275,41.68678081 8.948864995,41.69572391 8.958872685,41.7072535 8.963738128,41.72056035 8.979357272,41.72734791 8.988609843,41.7280016 8.984570391,41.71104554 8.987047106,41.70441041 9.014827899,41.7042123 9.020396486,41.70919906 9.022756916,41.70264158 9.031874826,41.69576872 9.015670853,41.67484555" />
<polygon id="2A119 FRASSETO" points="9.006901076,41.88037193 9.009179105,41.88249446 9.015055671,41.88715063 9.013645688,41.89636657 9.025535869,41.91486959 9.022461384,41.9284427 9.045239477,41.94827823 9.049040047,41.95800797 9.053181979,41.95942851 9.065288698,41.93119788 9.062816641,41.92477147 9.052737469,41.91006005 9.044348103,41.90764885 9.031136888,41.89418767 9.029656701,41.88774038 9.019457947,41.88138572 9.006901076,41.88037193" />
<polygon id="2A127 GIUNCHETO" points="8.941260735,41.5715023 8.937914229,41.57233106 8.936483316,41.57241201 8.935495441,41.57332338 8.934492381,41.57360523 8.934843725,41.57399961 8.935998119,41.57415045 8.937586865,41.57492509 8.938837243,41.58009543 8.939415519,41.58167467 8.939032837,41.58264188 8.939849394,41.58300993 8.940391643,41.58518556 8.938625098,41.58682544 8.938244088,41.58828786 8.937507195,41.58883384 8.939062782,41.58987153 8.942251464,41.59044755 8.944440464,41.59181854 8.947637175,41.59306937 8.946098598,41.59447133 8.944382441,41.5947036 8.942654061,41.59553089 8.943271661,41.60096232 8.944076133,41.60108788 8.945009189,41.60022455 8.94599172,41.59985372 8.946250604,41.59884844 8.948494916,41.5979018 8.951321003,41.59737242 8.952797221,41.59642419 8.952863541,41.5982756 8.953964213,41.59848336 8.955002598,41.59914492 8.955740903,41.59932819 8.956401532,41.59933574 8.957745465,41.59898031 8.959135384,41.59908155 8.960190285,41.59871548 8.961106637,41.59887959 8.962695514,41.59797886 8.964391771,41.59814368 8.964968557,41.59779571 8.965266784,41.59777877 8.965697845,41.59788936 8.966224677,41.59835474 8.967017456,41.59776934 8.967792844,41.59772527 8.96974576,41.59805553 8.972157057,41.59805349 8.972068294,41.59729305 8.973139983,41.59483653 8.97410326,41.5942774 8.976516888,41.59382483 8.979516684,41.58682762 8.980731134,41.58626311 8.981171991,41.58587777 8.981429421,41.58545784 8.981737315,41.5843506 8.981703489,41.58223617 8.980827055,41.58187185 8.978963846,41.58135661 8.976603813,41.58126587 8.974419016,41.58053471 8.969544908,41.58037075 8.968980828,41.57917807 8.966099027,41.57736069 8.965645498,41.57762061 8.964671508,41.57700055 8.964428498,41.57696933 8.961078408,41.57883467 8.959853303,41.57917441 8.956838872,41.57627466 8.954676339,41.57564092 8.954323265,41.57511162 8.953884282,41.57492039 8.953037635,41.57496842 8.952465002,41.57464068 8.952278212,41.57397587 8.949242608,41.57193267 8.944713044,41.57184713 8.943631745,41.5723046 8.943080811,41.57171444 8.942763827,41.57154328 8.942277875,41.57148074 8.941260735,41.5715023" />
<polygon id="2A128 GRANACE" points="9.028584215,41.6347994 9.026190844,41.62851496 9.022065077,41.62749066 9.010205855,41.63127714 8.996448423,41.64654583 9.001174824,41.65194117 9.004710634,41.65376569 9.01629109,41.6497888 9.014991034,41.64362155 9.020919946,41.63994045 9.028584215,41.6347994" />
<polygon id="2A129 GROSSA" points="8.901110398,41.60503321 8.897609117,41.59494596 8.872038325,41.58701408 8.858427544,41.58800862 8.841392948,41.58396927 8.814283738,41.58758121 8.838807841,41.6012849 8.858710504,41.62345429 8.871108813,41.62068183 8.886649603,41.62658405 8.896267522,41.62060533 8.890122018,41.60866689 8.901110398,41.60503321" />
<polygon id="2A130 GROSSETO-PRUGNA" points="8.960479055,41.85525904 8.95968537,41.86230358 8.928886839,41.87814725 8.905451768,41.87728213 8.893654204,41.88285161 8.870711939,41.88681554 8.861333327,41.88645433 8.857963627,41.88396615 8.854470052,41.87064829 8.841151476,41.87427835 8.822475324,41.87261787 8.813400153,41.87456874 8.797629857,41.86764552 8.788533989,41.86828033 8.782124111,41.87295545 8.780459101,41.88227017 8.79668794,41.88771176 8.802583177,41.89261203 8.797666407,41.90536695 8.798620004,41.90807092 8.802320387,41.90768734 8.803760448,41.90468062 8.815209241,41.90840104 8.819166547,41.907201 8.827976963,41.90508429 8.836402578,41.88911588 8.844896159,41.88675392 8.866170212,41.8931397 8.893063925,41.88743378 8.923263874,41.89630923 8.934131097,41.89023917 8.942814771,41.89277722 8.952098548,41.90374918 8.95935255,41.89678109 8.956399093,41.89094795 8.965891326,41.87896115 8.967108299,41.87205459 8.969759265,41.86919289 8.974367278,41.86970666 8.971865994,41.85739826 8.960479055,41.85525904" />
<polygon id="2A131 GUAGNO" points="8.916684086,42.14478445 8.911408185,42.15743342 8.920785916,42.17126483 8.929584016,42.17369254 8.938777243,42.18156753 8.952782718,42.18060143 8.959123037,42.18576035 8.968413471,42.18691374 8.983413859,42.20826507 9.006493091,42.20871732 9.02325174,42.20357551 9.045742524,42.20772985 9.048985929,42.19299804 9.048122524,42.17570687 9.039061167,42.17689969 9.027781376,42.1713685 9.014154332,42.17151209 8.995806227,42.16221521 8.952916264,42.15113469 8.939523788,42.14887675 8.916684086,42.14478445" />
<polygon id="2A132 GUARGUALE" points="8.937226916,41.79813587 8.93925805,41.79583247 8.935956596,41.79460438 8.928966679,41.79535842 8.923330997,41.8136729 8.917724005,41.82259044 8.913325854,41.82268423 8.913307481,41.83582775 8.910234545,41.83821608 8.91255249,41.84439167 8.917889854,41.85387496 8.922427932,41.85443085 8.939694603,41.84463124 8.941372502,41.84143782 8.934208449,41.82903188 8.945847862,41.81451234 8.936169482,41.80832023 8.937226916,41.79813587" />
<polygon id="2A133 GUITERA-LES-BAINS" points="9.092451239,41.88878067 9.077489671,41.90212276 9.059529251,41.90549856 9.062816641,41.92477147 9.065288698,41.93119788 9.053181979,41.95942851 9.065560013,41.96321443 9.073259229,41.95090489 9.073267174,41.93437924 9.100995992,41.92376938 9.104787917,41.91740491 9.105168475,41.91048989 9.092451239,41.88878067" />
<polygon id="2A139 LECCI" points="9.351246946,41.63956721 9.346911622,41.63353155 9.353071041,41.62435679 9.350589218,41.61857868 9.323208382,41.61772656 9.313373821,41.62512923 9.3136135,41.62861039 9.322700918,41.62881144 9.328506467,41.63391243 9.322354811,41.65409473 9.313556601,41.65629958 9.294508401,41.68002926 9.277548047,41.6916478 9.252646552,41.68294227 9.243816877,41.68252116 9.274801054,41.69826267 9.293248992,41.700809 9.305647664,41.69600265 9.324040332,41.69858297 9.342346575,41.6827666 9.343401402,41.67580125 9.338874757,41.66598327 9.351246946,41.63956721" />
<polygon id="2A141 LETIA" points="8.819987679,42.17661508 8.813349934,42.18004305 8.817380409,42.19148177 8.842710337,42.19967621 8.848501379,42.21969521 8.864484478,42.22579635 8.871097564,42.23830807 8.879832375,42.24607002 8.904767893,42.25386824 8.92321725,42.25660692 8.926624311,42.2541906 8.935556466,42.24680578 8.940114669,42.23721385 8.933428938,42.23215372 8.893662791,42.22163738 8.882742623,42.19474964 8.883657975,42.17718987 8.879557751,42.17810231 8.85712421,42.18007457 8.840035284,42.17587252 8.83170627,42.17848481 8.819987679,42.17661508" />
<polygon id="2A142 LEVIE" points="9.084021022,41.58410077 9.071323037,41.5874299 9.061212553,41.59401254 9.056157252,41.6032298 9.045780928,41.60948391 9.074486465,41.62408471 9.080259082,41.64998868 9.101627673,41.65909964 9.095559843,41.67154007 9.099688525,41.67755196 9.09837308,41.70042741 9.094515945,41.70626306 9.09254573,41.70918776 9.097635442,41.71796405 9.090681803,41.72130362 9.098414521,41.73051254 9.124749291,41.73779311 9.130724925,41.73487758 9.136799867,41.73824404 9.142324632,41.73284966 9.138055494,41.72695486 9.142459102,41.70998674 9.155881243,41.70058065 9.164792266,41.70061712 9.156883468,41.69220708 9.140815821,41.68539963 9.131615919,41.68545018 9.128044128,41.67963201 9.137690766,41.66029634 9.150071718,41.65564495 9.16383625,41.65564012 9.170311257,41.6431081 9.169624374,41.61627782 9.151542083,41.61426705 9.132891001,41.59911776 9.124637795,41.60018503 9.111996606,41.59606692 9.095295762,41.58559924 9.086569656,41.58485367 9.084021022,41.58410077" />
<polygon id="2A144 LOPIGNA" points="8.886809575,42.06440839 8.869180848,42.06211743 8.860112033,42.07786509 8.847263254,42.08170245 8.834363334,42.07919807 8.826717573,42.08295303 8.826358264,42.09273948 8.809576085,42.11164576 8.810150208,42.11438932 8.820868655,42.11643143 8.846239023,42.11174464 8.853430538,42.1031659 8.869928253,42.09887333 8.881573697,42.09531641 8.884372187,42.08569996 8.893911743,42.07878967 8.896728559,42.07251471 8.886809575,42.06440839" />
<polygon id="2A146 LORETO-DI-TALLANO" points="9.020882837,41.6695212 9.015670853,41.67484555 9.031874826,41.69576872 9.022756916,41.70264158 9.020396486,41.70919906 9.025415368,41.71856777 9.03256706,41.72302203 9.041603621,41.72320603 9.044498956,41.72048147 9.041621866,41.7103419 9.039133404,41.68894777 9.029000015,41.67113655 9.020882837,41.6695212" />
<polygon id="2A154 MARIGNANA" points="8.682072824,42.17155805 8.636256377,42.16777954 8.620707431,42.1843352 8.636449762,42.19121113 8.662070036,42.21024341 8.675028511,42.21290228 8.689871165,42.22596424 8.698515306,42.22833834 8.706557844,42.22465323 8.720613544,42.22371577 8.725120217,42.21760687 8.734418042,42.21786134 8.738591733,42.21950972 8.750611941,42.23032899 8.754667388,42.24754479 8.767744813,42.25152031 8.791366861,42.24104215 8.80953648,42.24131917 8.813203181,42.23916285 8.810455836,42.23286138 8.819064783,42.22163007 8.795252018,42.21302215 8.79370673,42.20707839 8.75826497,42.19865627 8.749486891,42.20614276 8.72173925,42.20805833 8.716083803,42.19865954 8.702671089,42.18895749 8.702705526,42.18545083 8.682072824,42.17155805" />
<polygon id="2A158 MELA" points="9.101627673,41.65909964 9.08580076,41.66473737 9.086126288,41.67466293 9.09180202,41.67983789 9.08195963,41.69861259 9.090206573,41.70608934 9.094515945,41.70626306 9.09837308,41.70042741 9.099688525,41.67755196 9.095559843,41.67154007 9.101627673,41.65909964" />
<polygon id="2A160 MOCA-CROCE" points="8.988609843,41.7280016 8.987117807,41.73131118 9.001630936,41.74490552 8.997920126,41.75786307 9.006869936,41.76589222 9.008144529,41.77273765 8.993992654,41.79452415 8.962475016,41.80889741 8.962737211,41.81232366 8.971712287,41.81213056 8.980727433,41.81957347 9.004634014,41.8264475 9.006130912,41.81950663 9.030291804,41.80940603 9.044683064,41.79157275 9.049053171,41.79028582 9.034500957,41.77770717 9.034644993,41.7707625 9.02491384,41.75878054 9.026561203,41.75182209 9.018880016,41.75282016 9.006064693,41.73883357 8.988609843,41.7280016" />
<polygon id="2A163 MONACIA-D'AULLENE" points="8.994792074,41.48553818 8.982121467,41.47639314 8.962774779,41.49045312 8.940487655,41.49008879 8.958571873,41.50617998 8.9751439,41.51157621 8.989648351,41.52955126 9.013588814,41.54615622 9.020935883,41.55887416 9.038752952,41.57015245 9.075764302,41.57261839 9.062020895,41.55916527 9.060487225,41.54570873 9.033516793,41.52149829 9.035088989,41.50799875 9.001202966,41.49776008 8.994792074,41.48553818" />
<polygon id="2A174 MURZO" points="8.834406594,42.13087748 8.821690941,42.13423537 8.822849092,42.14383075 8.811522165,42.15451743 8.820355671,42.16982788 8.819987679,42.17661508 8.83170627,42.17848481 8.840035284,42.17587252 8.85712421,42.18007457 8.879557751,42.17810231 8.874819566,42.15790102 8.886881907,42.14788695 8.840022676,42.13926294 8.834406594,42.13087748" />
<polygon id="2A181 OCANA" points="8.863692655,41.92625688 8.853837649,41.94093824 8.87203297,41.95387329 8.893291982,41.95694113 8.905409201,41.9672734 8.939142327,41.97711217 8.943656159,41.98306597 8.949752443,41.97385716 8.947975004,41.95998333 8.952009486,41.94998966 8.946552213,41.94029675 8.929800252,41.93415789 8.916607733,41.93326757 8.903966345,41.93690332 8.893120873,41.93065364 8.87511784,41.93207166 8.863692655,41.92625688" />
<polygon id="2A186 OLIVESE" points="9.06057962,41.80405517 9.050790126,41.80991519 9.048612727,41.8163915 9.035928327,41.8256504 9.029889506,41.83455462 9.0220424,41.83757088 9.032569424,41.84355439 9.036296729,41.85312491 9.047067292,41.8602646 9.055769034,41.8616751 9.065992286,41.86849322 9.082181498,41.86219975 9.086651863,41.86312202 9.114379412,41.85516546 9.118414988,41.85630981 9.109804072,41.84044748 9.0876871,41.82322206 9.074199145,41.82183833 9.06057962,41.80405517" />
<polygon id="2A189 OLMETO" points="8.919000774,41.68071127 8.91578278,41.68156787 8.912302335,41.69096809 8.88931517,41.68962827 8.878116019,41.69517225 8.842189634,41.69761554 8.825422529,41.70938858 8.828466316,41.71611847 8.843653021,41.72370563 8.875172447,41.72248154 8.886861139,41.72794355 8.909345738,41.72915991 8.921161408,41.73955609 8.94240277,41.73816054 8.95328685,41.74305775 8.963495248,41.73113053 8.963738128,41.72056035 8.958872685,41.7072535 8.948864995,41.69572391 8.919000774,41.68071127" />
<polygon id="2A191 OLMICCIA" points="9.020919946,41.63994045 9.014991034,41.64362155 9.01629109,41.6497888 9.004710634,41.65376569 9.001174824,41.65194117 8.999541103,41.66057283 9.015615853,41.66415738 9.020882837,41.6695212 9.029000015,41.67113655 9.039133404,41.68894777 9.044801499,41.69830513 9.04933984,41.69896292 9.06110262,41.6935385 9.061167925,41.6900758 9.047494495,41.67201965 9.044350098,41.66195029 9.024319175,41.65562464 9.02706736,41.6490091 9.020919946,41.63994045" />
<polygon id="2A196 ORTO" points="8.920785916,42.17126483 8.918847392,42.18050179 8.922848024,42.18232389 8.924250957,42.19260887 8.937153178,42.20273718 8.979793816,42.22398872 8.984029021,42.224615 8.99452516,42.21449584 9.002933113,42.21420034 9.006493091,42.20871732 8.983413859,42.20826507 8.968413471,42.18691374 8.959123037,42.18576035 8.952782718,42.18060143 8.938777243,42.18156753 8.929584016,42.17369254 8.920785916,42.17126483" />
<polygon id="2A197 OSANI" points="8.660471055,42.30234916 8.643778594,42.30030925 8.636826701,42.3036159 8.627530845,42.31070449 8.609202581,42.30806998 8.60220441,42.31193531 8.600580738,42.31868849 8.623990651,42.33020139 8.626750094,42.3367952 8.615678137,42.34746381 8.5984135,42.35287999 8.589438367,42.35150524 8.565775841,42.33505106 8.556929258,42.33511766 8.553609548,42.3485 8.555262528,42.36206408 8.548585679,42.36672872 8.544337028,42.36792349 8.546755202,42.37983514 8.551870414,42.37841484 8.553174541,42.37129161 8.570213484,42.37131928 8.577249777,42.37552775 8.573411068,42.38140571 8.586955276,42.37840618 8.601111364,42.37013739 8.614262804,42.37384094 8.637098318,42.37283981 8.658682064,42.36004171 8.68131814,42.35816731 8.683479612,42.34803125 8.671488221,42.33348834 8.676914546,42.32407944 8.674869648,42.31063642 8.660471055,42.30234916" />
<polygon id="2A198 OTA" points="8.767744813,42.25152031 8.754667388,42.24754479 8.750611941,42.23032899 8.738591733,42.21950972 8.734418042,42.21786134 8.725120217,42.21760687 8.720613544,42.22371577 8.706557844,42.22465323 8.698515306,42.22833834 8.700392276,42.241897 8.688844719,42.24722923 8.691907519,42.25715654 8.688916857,42.263453 8.690552617,42.27491675 8.750768774,42.27873579 8.767370463,42.29094642 8.777982973,42.28423259 8.776727372,42.27729012 8.783045758,42.26435729 8.767744813,42.25152031" />
<polygon id="2A200 PALNECA" points="9.222672254,41.94946617 9.201476666,41.95590427 9.188926252,41.95343263 9.166417307,41.95406495 9.163143753,41.95658106 9.163253549,41.97053343 9.155129211,41.98290255 9.159859902,41.99646876 9.146645805,42.010702 9.160211567,42.02680052 9.186271812,42.03070378 9.221084973,42.02760592 9.215611522,41.9949514 9.220242627,41.98962291 9.220691945,41.97674504 9.226045438,41.97221186 9.222672254,41.94946617" />
<polygon id="2A203 PARTINELLO" points="8.687189166,42.28200812 8.678173138,42.28213036 8.672396659,42.29427001 8.660498674,42.29899576 8.660471055,42.30234916 8.674869648,42.31063642 8.676914546,42.32407944 8.671488221,42.33348834 8.683479612,42.34803125 8.714449821,42.34845193 8.72475668,42.34217486 8.701633232,42.32527862 8.698807869,42.29254029 8.687189166,42.28200812" />
<polygon id="2A204 PASTRICCIOLA" points="8.982598828,42.11183874 8.961752501,42.12536044 8.960757272,42.13879844 8.952916264,42.15113469 8.995806227,42.16221521 9.014154332,42.17151209 9.027781376,42.1713685 9.039061167,42.17689969 9.048122524,42.17570687 9.052273621,42.1696747 9.065062432,42.16587898 9.076167611,42.13614984 9.07203224,42.13000629 9.063205211,42.1290612 9.057139604,42.12390195 9.039207586,42.12692712 9.009418319,42.11751073 9.003014812,42.11277349 8.982598828,42.11183874" />
<polygon id="2A209 PERI" points="8.84264243,41.98227766 8.842987696,41.99547472 8.866882723,42.01502521 8.88724929,42.01198265 8.892960924,42.01665567 8.937465393,42.01420086 8.953801087,42.01981422 8.962778341,42.01956943 8.97844143,42.01021484 8.974182819,42.0046891 8.946708582,41.98912897 8.915941902,41.99601886 8.906724316,41.9951561 8.898939733,41.99894256 8.880835654,42.00004181 8.871714152,41.99227855 8.84264243,41.98227766" />
<polygon id="2A211 PETRETO-BICCHISANO" points="8.963738128,41.72056035 8.963495248,41.73113053 8.95328685,41.74305775 8.957797773,41.74342396 8.95835477,41.7467972 8.95388863,41.75951621 8.937409075,41.7750751 8.916497203,41.78036864 8.928966679,41.79535842 8.935956596,41.79460438 8.93925805,41.79583247 8.937226916,41.79813587 8.948308175,41.80178035 8.953532571,41.81012382 8.957556233,41.81086021 8.962475016,41.80889741 8.993992654,41.79452415 9.008144529,41.77273765 9.006869936,41.76589222 8.997920126,41.75786307 9.001630936,41.74490552 8.987117807,41.73131118 8.988609843,41.7280016 8.979357272,41.72734791 8.963738128,41.72056035" />
<polygon id="2A212 PIANA" points="8.582376882,42.18327086 8.577643935,42.194763 8.579117308,42.20731598 8.567049713,42.20541875 8.568907774,42.2131139 8.575554744,42.2144493 8.567328998,42.22034993 8.573610895,42.22675878 8.570030132,42.23053251 8.560865221,42.23116653 8.552387105,42.22702507 8.539777051,42.237369 8.550280267,42.24061282 8.558577609,42.23554772 8.567880398,42.23878065 8.606865733,42.25024166 8.608807105,42.25341857 8.635878454,42.25293917 8.643456847,42.25695125 8.688916857,42.263453 8.691907519,42.25715654 8.688844719,42.24722923 8.700392276,42.241897 8.698515306,42.22833834 8.689871165,42.22596424 8.675028511,42.21290228 8.662070036,42.21024341 8.636449762,42.19121113 8.620707431,42.1843352 8.609310067,42.19511021 8.604726562,42.19583012 8.582376882,42.18327086" />
<polygon id="2A215 PIANOTTOLI-CALDARELLO" points="9.079938955,41.47749015 9.071007222,41.4759818 9.051913824,41.46113834 9.040370881,41.45711299 9.03804344,41.46987196 9.024851118,41.46116735 9.015712609,41.47031897 9.016793333,41.47825317 9.006029542,41.47424219 8.998816085,41.47868046 8.994792074,41.48553818 9.001202966,41.49776008 9.035088989,41.50799875 9.033516793,41.52149829 9.060487225,41.54570873 9.062020895,41.55916527 9.075764302,41.57261839 9.077721415,41.57929596 9.084021022,41.58410077 9.086569656,41.58485367 9.094213552,41.57253035 9.06937409,41.54644678 9.06345347,41.53300104 9.06702284,41.52666162 9.080938699,41.51734504 9.075014767,41.50421587 9.082224823,41.48389545 9.079938955,41.47749015" />
<polygon id="2A228 PIETROSELLA" points="8.820955439,41.79113329 8.816365786,41.79707007 8.79729183,41.80616448 8.784901549,41.81054728 8.771293566,41.81123955 8.774013193,41.82155616 8.781584128,41.83024683 8.764156893,41.84118985 8.755084098,41.84288349 8.755378186,41.84515513 8.783187532,41.84806454 8.789592402,41.85305416 8.798606802,41.85259476 8.819908716,41.85786119 8.838624026,41.84865662 8.843105055,41.84938114 8.853650784,41.83875268 8.860380635,41.82260667 8.86275556,41.81972732 8.839693503,41.80984819 8.820955439,41.79113329" />
<polygon id="2A232 PILA-CANALE" points="8.868142586,41.7604942 8.863063681,41.76628032 8.861747689,41.77664838 8.873209843,41.78252171 8.888607364,41.80790003 8.913325854,41.82268423 8.917724005,41.82259044 8.923330997,41.8136729 8.928966679,41.79535842 8.916497203,41.78036864 8.909782879,41.77580969 8.878296979,41.77125831 8.87570354,41.76841278 8.868142586,41.7604942" />
<polygon id="2A240 POGGIOLO" points="8.897288159,42.14118956 8.894228157,42.14652321 8.886881907,42.14788695 8.874819566,42.15790102 8.879557751,42.17810231 8.883657975,42.17718987 8.90531641,42.1812477 8.918847392,42.18050179 8.920785916,42.17126483 8.911408185,42.15743342 8.916684086,42.14478445 8.913318611,42.14262953 8.897288159,42.14118956" />
<polygon id="2A247 PORTO-VECCHIO" points="9.287259445,41.48379095 9.28386132,41.48608447 9.270358325,41.48548821 9.263546516,41.49005689 9.246875506,41.48554869 9.235498034,41.50013304 9.235036853,41.50690676 9.240009152,41.54159542 9.22115814,41.56186521 9.211910447,41.56334093 9.191638387,41.5780954 9.182541798,41.60182623 9.169624374,41.61627782 9.170311257,41.6431081 9.16383625,41.65564012 9.192492221,41.67314328 9.189330821,41.6833381 9.197484927,41.68660533 9.206212854,41.68400035 9.220418853,41.66244028 9.243040811,41.66039599 9.257554047,41.64645166 9.279328799,41.63299019 9.297009565,41.64464354 9.322354811,41.65409473 9.328506467,41.63391243 9.322700918,41.62881144 9.3136135,41.62861039 9.305230018,41.62588879 9.305314184,41.61553235 9.286510294,41.60566915 9.283923248,41.59532899 9.287252446,41.58894076 9.294391395,41.58442298 9.298649956,41.58587911 9.319930328,41.60413103 9.333618893,41.6021619 9.343239607,41.59472504 9.356662466,41.59600311 9.365837768,41.59639302 9.367819161,41.59328174 9.351345414,41.57700051 9.347986231,41.5638076 9.336622624,41.55906235 9.323446,41.55652429 9.301042511,41.54334213 9.289111522,41.53227583 9.275934657,41.52897575 9.274604412,41.52603778 9.282288667,41.51418294 9.271989102,41.50225225 9.276524568,41.49643221 9.284676349,41.49975385 9.287259445,41.48379095" />
<polygon id="2A249 PROPRIANO" points="8.886649603,41.62658405 8.871108813,41.62068183 8.858710504,41.62345429 8.86950251,41.64609464 8.876099573,41.65074203 8.883195651,41.67052692 8.91578278,41.68156787 8.919000774,41.68071127 8.918908118,41.65520205 8.919936432,41.64232867 8.914045474,41.63372668 8.908130198,41.63831921 8.899662345,41.63851587 8.886649603,41.62658405" />
<polygon id="2A253 QUASQUARA" points="9.013645688,41.89636657 9.004938243,41.89564636 8.988365761,41.90022824 8.988008077,41.90892452 9.004091335,41.91383062 9.022461384,41.9284427 9.025535869,41.91486959 9.013645688,41.89636657" />
<polygon id="2A254 QUENZA" points="9.136799867,41.73824404 9.130724925,41.73487758 9.124749291,41.73779311 9.129363973,41.74713677 9.130617653,41.77009075 9.123818098,41.77437846 9.123450051,41.79483279 9.136888063,41.8167186 9.149328774,41.83091345 9.163486848,41.83888908 9.177072295,41.84136433 9.194718128,41.83797676 9.209683505,41.85135974 9.227497391,41.85558903 9.236082478,41.84776454 9.24526389,41.84877073 9.270567108,41.84056388 9.283692441,41.84408938 9.302047979,41.84342576 9.308599195,41.83887945 9.309095238,41.83214524 9.29390143,41.81951015 9.277243432,41.81364681 9.272434663,41.80773383 9.264129959,41.80449766 9.23171,41.77452469 9.233920002,41.78131362 9.22108423,41.79531781 9.194915012,41.77601171 9.177858791,41.77071633 9.163515455,41.76221441 9.136942697,41.73846093 9.136799867,41.73824404" />
<polygon id="2A258 RENNO" points="8.797206183,42.18719876 8.799027971,42.19324435 8.792032521,42.20424139 8.79370673,42.20707839 8.795252018,42.21302215 8.819064783,42.22163007 8.827411203,42.22375794 8.848501379,42.21969521 8.842710337,42.19967621 8.817380409,42.19148177 8.797206183,42.18719876" />
<polygon id="2A259 REZZA" points="8.955751375,42.10094445 8.947329607,42.10368884 8.929580653,42.12754564 8.929700064,42.1378297 8.939523788,42.14887675 8.952916264,42.15113469 8.960757272,42.13879844 8.961752501,42.12536044 8.982598828,42.11183874 8.971879473,42.1024776 8.955751375,42.10094445" />
<polygon id="2A262 ROSAZIA" points="8.869928253,42.09887333 8.853430538,42.1031659 8.846239023,42.11174464 8.820868655,42.11643143 8.820925104,42.12297868 8.834406594,42.13087748 8.840022676,42.13926294 8.886881907,42.14788695 8.894228157,42.14652321 8.897288159,42.14118956 8.893578682,42.12788876 8.873374612,42.1082872 8.869928253,42.09887333" />
<polygon id="2A266 SALICE" points="8.896728559,42.07251471 8.893911743,42.07878967 8.884372187,42.08569996 8.881573697,42.09531641 8.869928253,42.09887333 8.873374612,42.1082872 8.893578682,42.12788876 8.897288159,42.14118956 8.913318611,42.14262953 8.919706362,42.12242125 8.912345594,42.10618957 8.92040799,42.10286444 8.923670841,42.09311243 8.933694323,42.08587386 8.917360631,42.07539928 8.896728559,42.07251471" />
<polygon id="2A268 SAMPOLO" points="9.126954113,41.92845573 9.118984497,41.92898122 9.112949554,41.925132 9.107224318,41.92832888 9.114728548,41.95839601 9.10829034,41.97114982 9.110072244,41.97435381 9.12647558,41.96257201 9.136202218,41.94759834 9.126954113,41.92845573" />
<polygon id="2A269 SARI-SOLENZARA" points="9.396644187,41.77372272 9.381524258,41.76660235 9.363004699,41.76508339 9.352834352,41.77648415 9.337245663,41.78411006 9.314907747,41.78046931 9.277390879,41.79421971 9.272434663,41.80773383 9.277243432,41.81364681 9.29390143,41.81951015 9.309095238,41.83214524 9.327056286,41.83580821 9.336339931,41.84381145 9.348856586,41.84834804 9.354093554,41.85421464 9.377328714,41.86607731 9.38671902,41.86639198 9.402269298,41.8587072 9.405614562,41.82051676 9.395404805,41.7972645 9.399035925,41.78711287 9.396644187,41.77372272" />
<polygon id="2A270 SARI-D'ORCINO" points="8.842222045,42.0427076 8.824499854,42.05255055 8.793482163,42.05599303 8.797595645,42.06864196 8.786980661,42.07834967 8.798880108,42.08336513 8.826717573,42.08295303 8.834363334,42.07919807 8.847263254,42.08170245 8.860112033,42.07786509 8.869180848,42.06211743 8.886809575,42.06440839 8.876935719,42.05575827 8.869397915,42.04892394 8.842222045,42.0427076" />
<polygon id="2A271 SARROLA-CARCOPINO" points="8.817646974,41.95137958 8.810132064,41.9482351 8.787502551,41.94991032 8.784625924,41.9525632 8.808810839,41.96186532 8.805558626,41.96816987 8.816074689,41.98308608 8.814268278,41.99668961 8.807517537,42.00928581 8.803080084,42.01279077 8.830409861,42.01198034 8.835402673,42.01785805 8.835116686,42.03882947 8.842222045,42.0427076 8.869397915,42.04892394 8.866882723,42.01502521 8.842987696,41.99547472 8.84264243,41.98227766 8.830547276,41.96927969 8.823036078,41.96608164 8.822209453,41.95980323 8.817646974,41.95137958" />
<path id="2A272 LSARTENE" d="M8.940487655,41.49008879 L8.934816292,41.49492121 L8.921133719,41.48959012 L8.913461862,41.50811262 L8.885050248,41.50655972 L8.889818565,41.51512501 L8.874800514,41.52459337 L8.856037152,41.51877268 L8.845600295,41.51802239 L8.841385937,41.52351545 L8.852194219,41.5348072 L8.851791438,41.54164579 L8.839608761,41.54583621 L8.821236682,41.546461 L8.812014237,41.55385127 L8.80796779,41.55671348 L8.795842557,41.55591625 L8.78536955,41.56049185 L8.789800187,41.56571285 L8.799290816,41.57313041 L8.790250864,41.58502862 L8.781873174,41.58766033 L8.792820333,41.5935129 L8.814283738,41.58758121 L8.841392948,41.58396927 L8.858427544,41.58800862 L8.872038325,41.58701408 L8.897609117,41.59494596 L8.901110398,41.60503321 L8.920219928,41.61482722 L8.921864712,41.62526209 L8.914045474,41.63372668 L8.919936432,41.64232867 L8.918908118,41.65520205 L8.927923456,41.65517122 L8.951992497,41.64733526 L8.969826615,41.64867418 L8.972057339,41.6516186 L8.97404784,41.65444157 L8.986527085,41.65600104 L8.991187274,41.66133761 L8.999541103,41.66057283 L9.001174824,41.65194117 L8.996448423,41.64654583 L9.010205855,41.63127714 L8.99291388,41.61985437 L8.99672191,41.60343487 L9.023205357,41.59932517 L9.041223334,41.61009747 L9.045780928,41.60948391 L9.056157252,41.6032298 L9.061212553,41.59401254 L9.071323037,41.5874299 L9.084021022,41.58410077 L9.077721415,41.57929596 L9.075764302,41.57261839 L9.038752952,41.57015245 L9.020935883,41.55887416 L9.013588814,41.54615622 L8.989648351,41.52955126 L8.9751439,41.51157621 L8.958571873,41.50617998 L8.940487655,41.49008879 Z M8.941260735,41.5715023 L8.942277875,41.57148074 L8.942763827,41.57154328 L8.943080811,41.57171444 L8.943631745,41.5723046 L8.944713044,41.57184713 L8.949242608,41.57193267 L8.952278212,41.57397587 L8.952465002,41.57464068 L8.953037635,41.57496842 L8.953884282,41.57492039 L8.954323265,41.57511162 L8.954676339,41.57564092 L8.956838872,41.57627466 L8.959853303,41.57917441 L8.961078408,41.57883467 L8.964428498,41.57696933 L8.964671508,41.57700055 L8.965645498,41.57762061 L8.966099027,41.57736069 L8.968980828,41.57917807 L8.969544908,41.58037075 L8.974419016,41.58053471 L8.976603813,41.58126587 L8.978963846,41.58135661 L8.980827055,41.58187185 L8.981703489,41.58223617 L8.981737315,41.5843506 L8.981429421,41.58545784 L8.981171991,41.58587777 L8.980731134,41.58626311 L8.979516684,41.58682762 L8.976516888,41.59382483 L8.97410326,41.5942774 L8.973139983,41.59483653 L8.972068294,41.59729305 L8.972157057,41.59805349 L8.96974576,41.59805553 L8.967792844,41.59772527 L8.967017456,41.59776934 L8.966224677,41.59835474 L8.965697845,41.59788936 L8.965266784,41.59777877 L8.964968557,41.59779571 L8.964391771,41.59814368 L8.962695514,41.59797886 L8.961106637,41.59887959 L8.960190285,41.59871548 L8.959135384,41.59908155 L8.957745465,41.59898031 L8.956401532,41.59933574 L8.955740903,41.59932819 L8.955002598,41.59914492 L8.953964213,41.59848336 L8.952863541,41.5982756 L8.952797221,41.59642419 L8.951321003,41.59737242 L8.948494916,41.5979018 L8.946250604,41.59884844 L8.94599172,41.59985372 L8.945009189,41.60022455 L8.944076133,41.60108788 L8.943271661,41.60096232 L8.942654061,41.59553089 L8.944382441,41.5947036 L8.946098598,41.59447133 L8.947637175,41.59306937 L8.944440464,41.59181854 L8.942251464,41.59044755 L8.939062782,41.58987153 L8.937507195,41.58883384 L8.938244088,41.58828786 L8.938625098,41.58682544 L8.940391643,41.58518556 L8.939849394,41.58300993 L8.939032837,41.58264188 L8.939415519,41.58167467 L8.938837243,41.58009543 L8.937586865,41.57492509 L8.935998119,41.57415045 L8.934843725,41.57399961 L8.934492381,41.57360523 L8.935495441,41.57332338 L8.936483316,41.57241201 L8.937914229,41.57233106 L8.941260735 Z" />,41.5715023
<polygon id="2A276 SERRA-DI-FERRO" points="8.825422529,41.70938858 8.812778875,41.71353724 8.799917161,41.70985241 8.790161772,41.70265414 8.786208664,41.703394 8.773257734,41.71670422 8.784015121,41.7353584 8.791664295,41.76185652 8.802546381,41.77270423 8.817383019,41.78041469 8.823552822,41.78940453 8.831095658,41.78560065 8.822749136,41.77760527 8.824407696,41.76430103 8.857331556,41.75446743 8.854073645,41.7519377 8.854027479,41.74152879 8.826352983,41.72296298 8.828466316,41.71611847 8.825422529,41.70938858" />
<polygon id="2A278 SERRA-DI-SCOPAMENE" points="9.090681803,41.72130362 9.084475326,41.73540041 9.078630667,41.7315494 9.074114509,41.74083652 9.081120504,41.74439554 9.083805999,41.75096062 9.082168547,41.76448704 9.086864965,41.76475609 9.094560085,41.77331961 9.102699753,41.79337062 9.151979812,41.84419268 9.163486848,41.83888908 9.149328774,41.83091345 9.136888063,41.8167186 9.123450051,41.79483279 9.123818098,41.77437846 9.114501055,41.76692905 9.094818385,41.73621607 9.098414521,41.73051254 9.090681803,41.72130362" />
<polygon id="2A279 SERRIERA" points="8.690552617,42.27491675 8.687189166,42.28200812 8.698807869,42.29254029 8.701633232,42.32527862 8.72475668,42.34217486 8.75626419,42.33844493 8.771169269,42.32540736 8.767370463,42.29094642 8.750768774,42.27873579 8.690552617,42.27491675" />
<polygon id="2A282 SOCCIA" points="8.883657975,42.17718987 8.882742623,42.19474964 8.893662791,42.22163738 8.933428938,42.23215372 8.940114669,42.23721385 8.94861987,42.23402443 8.972326259,42.23233156 8.979793816,42.22398872 8.937153178,42.20273718 8.924250957,42.19260887 8.922848024,42.18232389 8.918847392,42.18050179 8.90531641,42.1812477 8.883657975,42.17718987" />
<polygon id="2A284 SOLLACARO" points="8.828466316,41.71611847 8.826352983,41.72296298 8.854027479,41.74152879 8.854073645,41.7519377 8.857331556,41.75446743 8.868142586,41.7604942 8.87570354,41.76841278 8.890707291,41.7610713 8.899617482,41.76199542 8.915508107,41.75538411 8.92662148,41.74495017 8.921161408,41.73955609 8.909345738,41.72915991 8.886861139,41.72794355 8.875172447,41.72248154 8.843653021,41.72370563 8.828466316,41.71611847" />
<polygon id="2A285 SORBOLLANO" points="9.098414521,41.73051254 9.094818385,41.73621607 9.114501055,41.76692905 9.123818098,41.77437846 9.130617653,41.77009075 9.129363973,41.74713677 9.124749291,41.73779311 9.098414521,41.73051254" />
<polygon id="2A288 SOTTA" points="9.191312788,41.49519569 9.167273459,41.51110434 9.174633895,41.53125145 9.165785148,41.55125396 9.152966042,41.55412325 9.137790777,41.56249686 9.111996606,41.59606692 9.124637795,41.60018503 9.132891001,41.59911776 9.151542083,41.61426705 9.169624374,41.61627782 9.182541798,41.60182623 9.191638387,41.5780954 9.211910447,41.56334093 9.22115814,41.56186521 9.240009152,41.54159542 9.235036853,41.50690676 9.222078347,41.50833423 9.191312788,41.49519569" />
<polygon id="2A295 SANT'ANDREA-D'ORCINO" points="8.805738771,42.02821227 8.781476279,42.03693821 8.775506284,42.04554369 8.758041958,42.04949602 8.743399017,42.05722903 8.743930724,42.05945236 8.752630096,42.06150209 8.762957982,42.05549846 8.79025082,42.05509789 8.78744894,42.0525485 8.790489074,42.05015683 8.807784122,42.04854174 8.825550127,42.03900563 8.81378107,42.02986942 8.805738771,42.02821227" />
<polygon id="2A300 SAN-GAVINO-DI-CARBINI" points="9.322354811,41.65409473 9.297009565,41.64464354 9.279328799,41.63299019 9.257554047,41.64645166 9.243040811,41.66039599 9.220418853,41.66244028 9.206212854,41.68400035 9.197484927,41.68660533 9.189330821,41.6833381 9.164792266,41.70061712 9.155881243,41.70058065 9.142459102,41.70998674 9.138055494,41.72695486 9.142324632,41.73284966 9.136799867,41.73824404 9.136942697,41.73846093 9.150916803,41.73901426 9.166474658,41.731581 9.170793478,41.7182467 9.201778027,41.69670336 9.243816877,41.68252116 9.252646552,41.68294227 9.277548047,41.6916478 9.294508401,41.68002926 9.313556601,41.65629958 9.322354811,41.65409473" />
<polygon id="2A308 SAINTE-LUCIE-DE-TALLANO" points="9.028584215,41.6347994 9.020919946,41.63994045 9.02706736,41.6490091 9.024319175,41.65562464 9.044350098,41.66195029 9.047494495,41.67201965 9.061167925,41.6900758 9.06110262,41.6935385 9.04933984,41.69896292 9.044801499,41.69830513 9.039133404,41.68894777 9.041621866,41.7103419 9.049496097,41.71187098 9.050566531,41.70999884 9.055609315,41.70489845 9.08195963,41.69861259 9.09180202,41.67983789 9.086126288,41.67466293 9.08580076,41.66473737 9.101627673,41.65909964 9.080259082,41.64998868 9.062516609,41.63952077 9.056257802,41.64441232 9.041876934,41.63646756 9.028584215,41.6347994" />
<polygon id="2A310 SANTA-MARIA-FIGANIELLA" points="9.020396486,41.70919906 9.014827899,41.7042123 8.987047106,41.70441041 8.984570391,41.71104554 8.988609843,41.7280016 9.006064693,41.73883357 9.018880016,41.75282016 9.026561203,41.75182209 9.03596542,41.75014813 9.018796074,41.72298214 9.025415368,41.71856777 9.020396486,41.70919906" />
<polygon id="2A312 SANTA-MARIA-SICHE" points="8.98939184,41.85862917 8.981829288,41.86200443 8.981807475,41.8685551 8.974367278,41.86970666 8.969759265,41.86919289 8.967108299,41.87205459 8.965891326,41.87896115 8.956399093,41.89094795 8.95935255,41.89678109 8.988008077,41.90892452 8.988365761,41.90022824 8.987259531,41.89041692 8.996519904,41.88307989 9.009179105,41.88249446 9.006901076,41.88037193 8.99684596,41.87503422 8.993624974,41.86316331 8.98939184,41.85862917" />
<polygon id="2A322 TASSO" points="9.104787917,41.91740491 9.100995992,41.92376938 9.073267174,41.93437924 9.073259229,41.95090489 9.065560013,41.96321443 9.073903226,41.96333855 9.081568167,41.96706033 9.085548126,41.97320172 9.097585499,41.97807618 9.110072244,41.97435381 9.10829034,41.97114982 9.114728548,41.95839601 9.107224318,41.92832888 9.108388866,41.91908871 9.104787917,41.91740491" />
<polygon id="2A323 TAVACO" points="8.892960924,42.01665567 8.88724929,42.01198265 8.866882723,42.01502521 8.869397915,42.04892394 8.876935719,42.05575827 8.897720208,42.03904091 8.906462663,42.03859793 8.908869888,42.03573338 8.90611217,42.02609368 8.892960924,42.01665567" />
<polygon id="2A324 TAVERA" points="9.103405614,42.04462295 9.090188223,42.04121275 9.081056918,42.0424593 9.069863607,42.03662331 9.051574644,42.03756369 9.034462001,42.03230621 9.02072864,42.04147853 9.010591777,42.05653601 8.987064479,42.06628683 8.980159382,42.0750757 8.972545527,42.07893903 8.968310334,42.08844136 8.956346352,42.09273795 8.955751375,42.10094445 8.971879473,42.1024776 8.982598828,42.11183874 9.003014812,42.11277349 9.007324057,42.10308486 9.000992219,42.08269989 9.028057043,42.07779091 9.04283726,42.06026734 9.063773326,42.05198588 9.077287615,42.04867775 9.09128803,42.04995381 9.103405614,42.04462295" />
<polygon id="2A326 TOLLA" points="8.950219832,41.93098165 8.937403956,41.93107274 8.929800252,41.93415789 8.946552213,41.94029675 8.952009486,41.94998966 8.947975004,41.95998333 8.949752443,41.97385716 8.943656159,41.98306597 8.946708582,41.98912897 8.974182819,42.0046891 8.975401245,41.99789858 8.989172369,41.99601057 8.996055863,41.99125913 8.998616678,41.98830254 9.00296673,41.98205457 9.001963602,41.97861561 8.9920164,41.96276407 8.984476493,41.95854255 8.981155138,41.94499086 8.959551117,41.93162639 8.950219832,41.93098165" />
<polygon id="2A330 UCCIANI" points="8.97844143,42.01021484 8.962778341,42.01956943 8.96610644,42.02557174 8.963387175,42.03509603 8.956505597,42.04733275 8.947216429,42.05456844 8.958185471,42.06043866 8.962192693,42.07335055 8.947367933,42.08973772 8.956346352,42.09273795 8.968310334,42.08844136 8.972545527,42.07893903 8.980159382,42.0750757 8.987064479,42.06628683 9.010591777,42.05653601 9.02072864,42.04147853 9.021145583,42.03481367 9.01011833,42.02827756 9.006308198,42.02186222 8.97844143,42.01021484" />
<polygon id="2A331 URBALACONE" points="8.937226916,41.79813587 8.936169482,41.80832023 8.945847862,41.81451234 8.934208449,41.82903188 8.941372502,41.84143782 8.939694603,41.84463124 8.946346997,41.84787749 8.95785265,41.8469215 8.964610202,41.83690929 8.957556233,41.81086021 8.953532571,41.81012382 8.948308175,41.80178035 8.937226916,41.79813587" />
<polygon id="2A336 VALLE-DI-MEZZANA" points="8.803080084,42.01279077 8.796305466,42.02359479 8.805738771,42.02821227 8.81378107,42.02986942 8.825550127,42.03900563 8.835116686,42.03882947 8.835402673,42.01785805 8.830409861,42.01198034 8.803080084,42.01279077" />
<polygon id="2A345 VERO" points="8.90611217,42.02609368 8.908869888,42.03573338 8.906462663,42.03859793 8.897720208,42.03904091 8.876935719,42.05575827 8.886809575,42.06440839 8.896728559,42.07251471 8.917360631,42.07539928 8.933694323,42.08587386 8.947367933,42.08973772 8.962192693,42.07335055 8.958185471,42.06043866 8.947216429,42.05456844 8.930156209,42.04354274 8.921299848,42.04190366 8.913727178,42.02959628 8.90611217,42.02609368" />
<polygon id="2A348 VICO" points="8.701200979,42.11118622 8.689081485,42.1138472 8.679866823,42.10677454 8.662681943,42.10383049 8.658550087,42.10514149 8.650968207,42.11698745 8.670787516,42.13100865 8.687853922,42.16622962 8.682072824,42.17155805 8.702705526,42.18545083 8.721106418,42.17463839 8.762096448,42.16700232 8.774227443,42.16203504 8.785889786,42.16804833 8.797206183,42.18719876 8.817380409,42.19148177 8.813349934,42.18004305 8.819987679,42.17661508 8.820355671,42.16982788 8.811522165,42.15451743 8.784896451,42.15061377 8.775325485,42.13863019 8.767710188,42.1345583 8.758724426,42.13377695 8.743174641,42.14111735 8.730507191,42.1382177 8.717826829,42.14200231 8.706585932,42.13122977 8.701200979,42.11118622" />
<polygon id="2A349 VIGGIANELLO" points="8.972057339,41.6516186 8.969826615,41.64867418 8.951992497,41.64733526 8.927923456,41.65517122 8.918908118,41.65520205 8.919000774,41.68071127 8.948864995,41.69572391 8.953311275,41.68678081 8.961466898,41.68663393 8.969486113,41.68026148 8.966766395,41.67058062 8.972306007,41.66144856 8.96642465,41.65636973 8.972057339,41.6516186" />
<polygon id="2A351 VILLANOVA" points="8.70056256,41.9532705 8.674208119,41.94675458 8.648788426,41.96122269 8.62653689,41.96502245 8.622871414,41.97048669 8.635563069,41.96765765 8.64873248,41.96893576 8.668422861,41.98213957 8.674194483,41.97701976 8.687001938,41.97439444 8.70056256,41.9532705" />
<polygon id="2A357 ZERUBIA" points="9.056037858,41.72091674 9.055130521,41.74302067 9.048918131,41.74777394 9.03596542,41.75014813 9.026561203,41.75182209 9.02491384,41.75878054 9.034644993,41.7707625 9.047910901,41.77069485 9.052039081,41.76483636 9.073828137,41.76236517 9.082168547,41.76448704 9.083805999,41.75096062 9.081120504,41.74439554 9.074114509,41.74083652 9.078630667,41.7315494 9.074715177,41.73253225 9.056037858,41.72091674" />
<polygon id="2A358 ZEVACO" points="9.036296729,41.85312491 9.033140224,41.85760301 9.032413307,41.87369016 9.036042696,41.87958186 9.029656701,41.88774038 9.031136888,41.89418767 9.044348103,41.90764885 9.052737469,41.91006005 9.062816641,41.92477147 9.059529251,41.90549856 9.047067292,41.8602646 9.036296729,41.85312491" />
<polygon id="2A359 ZICAVO" points="9.163486848,41.83888908 9.151979812,41.84419268 9.142278952,41.85111964 9.144169578,41.85757785 9.140314029,41.8592081 9.118414988,41.85630981 9.114379412,41.85516546 9.086651863,41.86312202 9.087870946,41.87305251 9.097563036,41.88399823 9.092451239,41.88878067 9.105168475,41.91048989 9.104787917,41.91740491 9.108388866,41.91908871 9.107224318,41.92832888 9.112949554,41.925132 9.118984497,41.92898122 9.126954113,41.92845573 9.13906729,41.93144622 9.1438986,41.92605585 9.161239548,41.92157551 9.167056615,41.91237784 9.179758504,41.90868794 9.195395304,41.91513294 9.213279745,41.91746046 9.221067094,41.91419898 9.234748588,41.91499538 9.2463549,41.90930734 9.249417157,41.90667479 9.25067742,41.90331987 9.250097688,41.8964964 9.237199402,41.88199471 9.236106904,41.87543607 9.227497391,41.85558903 9.209683505,41.85135974 9.194718128,41.83797676 9.177072295,41.84136433 9.163486848,41.83888908" />
<polygon id="2A360 ZIGLIARA" points="8.962475016,41.80889741 8.957556233,41.81086021 8.964610202,41.83690929 8.975361602,41.84291249 8.976635453,41.84953366 8.98939184,41.85862917 8.993624974,41.86316331 8.998606759,41.86297006 8.995952343,41.85642743 9.003277874,41.84801962 9.007813654,41.83141021 9.004634014,41.8264475 8.980727433,41.81957347 8.971712287,41.81213056 8.962737211,41.81232366 8.962475016,41.80889741" />
<polygon id="2A362 ZONZA" points="9.401377887,41.71773597 9.404182132,41.71154588 9.399548336,41.69453621 9.383336608,41.68847562 9.373408654,41.67701318 9.384178954,41.66679949 9.383431515,41.64976159 9.368127131,41.63694138 9.360269447,41.64037271 9.351246946,41.63956721 9.338874757,41.66598327 9.343401402,41.67580125 9.342346575,41.6827666 9.324040332,41.69858297 9.305647664,41.69600265 9.293248992,41.700809 9.274801054,41.69826267 9.243816877,41.68252116 9.201778027,41.69670336 9.170793478,41.7182467 9.166474658,41.731581 9.150916803,41.73901426 9.136942697,41.73846093 9.163515455,41.76221441 9.177858791,41.77071633 9.194915012,41.77601171 9.22108423,41.79531781 9.233920002,41.78131362 9.23171,41.77452469 9.264109529,41.76055485 9.313086595,41.74737409 9.315554505,41.74435162 9.307120519,41.71677249 9.315668778,41.70922253 9.342547403,41.702658 9.347269803,41.70240905 9.351937412,41.70299216 9.363731429,41.70878456 9.367340479,41.71894634 9.380234537,41.72340916 9.398637075,41.72063311 9.401377887,41.71773597" />
<polygon id="2A363 ZOZA" points="9.050566531,41.70999884 9.049496097,41.71187098 9.056037858,41.72091674 9.074715177,41.73253225 9.078630667,41.7315494 9.084475326,41.73540041 9.090681803,41.72130362 9.079953755,41.71555551 9.050566531,41.70999884" />

</g>

</g>

</svg>
