<?xml version="1.0" encoding="UTF-8" standalone="no"?>
<!DOCTYPE svg PUBLIC "-//W3C//DTD SVG 1.1//EN" "http://www.w3.org/Graphics/SVG/1.1/DTD/svg11.dtd">
<svg width="1000" height="1132" viewBox="6.636038688 43.48006801 1.08008864 0.880988820000006" preserveAspectRatio="none" xmlns="http://www.w3.org/2000/svg" version="1.1">

<style type="text/css">
<![CDATA[

.communes { 
	fill           : #b9b9b9;
	fill-opacity   : 1;
	stroke         : white;
	stroke-opacity : 1;
	stroke-width   : 0.002;
}

]]>
</style>

<g transform="translate(0,44.36105683) scale(1,-1) translate(0,-43.48006801)">

<g class="communes">

<polygon id="06001 AIGLUN" points="6.959730874,43.83461863 6.931469881,43.83055995 6.912353878,43.83167131 6.917224786,43.85042666 6.907647691,43.86512356 6.90772519,43.86534604 6.920941341,43.86538524 6.936325028,43.87987843 6.94716225,43.87446794 6.952118009,43.86526897 6.960845316,43.86594348 6.951995685,43.85073056 6.959730874,43.83461863"/>
<polygon id="06002 AMIRAT" points="6.791846922,43.87621184 6.781622233,43.88355825 6.801382125,43.91035137 6.832286437,43.91846082 6.835946727,43.915431 6.839386327,43.90949855 6.834813761,43.89394585 6.827300509,43.89022728 6.829692043,43.8839085 6.822108548,43.88097597 6.791846922,43.87621184"/>
<polygon id="06003 ANDON" points="6.840408089,43.73087451 6.823995302,43.7371823 6.806967476,43.74849099 6.78442984,43.74782653 6.788022692,43.76454826 6.782448052,43.76991322 6.783219321,43.78006662 6.770032603,43.78336176 6.770597322,43.80587388 6.79402542,43.80855612 6.802311206,43.81211425 6.859033968,43.81987744 6.85936021,43.78307972 6.856102416,43.77441992 6.85776391,43.76458587 6.867986575,43.74994327 6.871942943,43.73421647 6.863334763,43.73609004 6.840408089,43.73087451"/>
<polygon id="06004 ANTIBES" points="7.130086784,43.61779689 7.125891212,43.59569273 7.131328825,43.59063857 7.122942315,43.58674986 7.12902424,43.58273451 7.127076727,43.57186168 7.139943605,43.56968667 7.14239603,43.5514834 7.121594981,43.54386084 7.117586378,43.56463608 7.103008772,43.57129687 7.086497348,43.56982076 7.086586544,43.57315993 7.066117332,43.59031712 7.067593709,43.60658716 7.070199326,43.61220163 7.083283084,43.6083948 7.103497773,43.61675967 7.112829945,43.61684809 7.118001378,43.62254464 7.130086784,43.61779689"/>
<polygon id="06005 ASCROS" points="7.049819699,43.90998391 7.045055741,43.91012456 7.036052639,43.89809458 7.020083597,43.90509101 7.005830584,43.90551605 6.993028032,43.9013807 6.990231934,43.91806311 6.972670495,43.9225784 6.978107284,43.92688587 6.980287089,43.93542993 7.009326094,43.93662918 7.045644138,43.92580044 7.059148033,43.9221361 7.049819699,43.90998391"/>
<polygon id="06006 ASPREMONT" points="7.242460352,43.75129879 7.237656138,43.76380477 7.222428381,43.77110112 7.240046349,43.79167496 7.243991868,43.80141624 7.25355203,43.80063777 7.252738664,43.78670116 7.262404746,43.76702891 7.255457642,43.76240736 7.256417558,43.75559304 7.24863496,43.75158058 7.242460352,43.75129879"/>
<polygon id="06007 AURIBEAU-SUR-SIAGNE" points="6.911990728,43.59833235 6.894469897,43.61102483 6.90249185,43.62341212 6.915475723,43.6239538 6.929108999,43.61659666 6.929398676,43.61340604 6.916719563,43.59878344 6.911990728,43.59833235"/>
<polygon id="06008 AUVARE" points="6.892990909,43.96667254 6.88604768,43.96620792 6.88445483,43.96846317 6.890238029,43.97386202 6.897155617,44.00093627 6.895852917,44.01127317 6.906910345,44.02612522 6.903800462,44.0326792 6.911321627,44.036889 6.912961979,44.04366981 6.936453246,44.04337659 6.940136511,44.04118038 6.942529108,44.04055348 6.934439771,44.02780546 6.917602023,44.02178681 6.919411228,44.00126685 6.937466381,44.00493425 6.940564984,44.00226342 6.939321955,43.99187337 6.894572242,43.9721037 6.890874124,43.96983862 6.892990909,43.96667254"/>
<polygon id="06009 BAIROLS" points="7.130910757,43.95843818 7.112347735,43.96156294 7.111471383,43.97189659 7.093086798,43.9916472 7.099702521,44.00430444 7.131015392,44.0137509 7.131373354,44.01352107 7.136219072,44.0042444 7.136077891,43.98425159 7.141887002,43.97213544 7.130253356,43.96176144 7.130910757,43.95843818"/>
<polygon id="06010 LE BAR-SUR-LOUP" points="6.987557296,43.68549646 6.983364778,43.68376715 6.960166033,43.6863445 6.933626901,43.69526321 6.90950821,43.69809705 6.899215478,43.71288141 6.924197265,43.71619942 6.925225456,43.70239591 6.931608521,43.69823723 6.949074224,43.70391101 6.958080354,43.70161051 6.972227529,43.7030768 6.976711365,43.70433646 6.977431255,43.71112148 6.99092097,43.71344741 7.008198299,43.69782866 7.036050453,43.70026728 7.024784449,43.69370214 7.006256823,43.69563874 6.987557296,43.68549646"/>
<polygon id="06011 BEAULIEU-SUR-MER" points="7.326789086,43.7015491 7.326340128,43.71039853 7.342718081,43.71355777 7.329391824,43.70147253 7.326789086,43.7015491"/>
<polygon id="06012 BEAUSOLEIL" points="7.413383684,43.73458683 7.407843658,43.7394709 7.417908426,43.75004002 7.415079088,43.75606715 7.426618457,43.75928459 7.437353197,43.75163719 7.413383684,43.73458683"/>
<polygon id="06013 BELVEDERE" points="7.32316075,43.9986947 7.317105303,44.00413482 7.310604806,44.03472162 7.320736497,44.05017668 7.318418031,44.06030046 7.304598985,44.06351314 7.290403611,44.06125854 7.292427058,44.07150871 7.306649319,44.07375308 7.340161151,44.07626883 7.353737734,44.07264669 7.362391613,44.06468515 7.370404387,44.06858391 7.383611262,44.07886352 7.387383109,44.08901563 7.38589189,44.12367245 7.394963169,44.12381357 7.426949388,44.11287945 7.430131025,44.08595939 7.426996528,44.05116437 7.42304664,44.04907061 7.419841671,44.04256568 7.422612016,44.03254703 7.412274586,44.02104803 7.397905534,44.02084284 7.385686527,44.01546569 7.352174009,44.01659785 7.32316075,43.9986947"/>
<polygon id="06014 BENDEJUN" points="7.301218508,43.82359451 7.293006375,43.82181852 7.285397899,43.81480916 7.272428934,43.81596742 7.267400711,43.8221305 7.275723627,43.82473315 7.272182178,43.84744767 7.295707349,43.84200785 7.301218508,43.82359451"/>
<polygon id="06015 BERRE-LES-ALPES" points="7.356636339,43.81019893 7.350125388,43.81360453 7.343006939,43.82212604 7.321771066,43.82640422 7.304474234,43.84631239 7.330577499,43.85815749 7.336707986,43.85179415 7.344244971,43.84314825 7.356636339,43.81019893"/>
<polygon id="06016 BEUIL" points="6.950034273,44.03835425 6.942529108,44.04055348 6.940136511,44.04118038 6.942941836,44.05137928 6.933126697,44.06700691 6.936877937,44.07642417 6.954879179,44.08183093 6.950768287,44.09895733 6.97079797,44.1227179 6.953163494,44.1472553 6.926606603,44.15614959 6.911309229,44.16486127 6.913949082,44.18936037 6.928614065,44.18806991 6.950499153,44.1960524 6.961990177,44.17655008 6.962430477,44.16240321 6.975160922,44.15826528 6.979755544,44.1593422 6.992409533,44.14897755 6.99561478,44.13190888 7.003499961,44.12785391 7.008099254,44.1180247 7.026914499,44.10725884 7.021100751,44.09420669 7.0214417,44.07692713 7.027637632,44.06750704 6.997811198,44.05055029 6.976187528,44.04311085 6.976381247,44.03962535 6.950034273,44.03835425"/>
<polygon id="06017 BEZAUDUN-LES-ALPES" points="7.110983979,43.77941227 7.102866167,43.7824037 7.088595983,43.78112027 7.078920518,43.78914228 7.075092705,43.79930558 7.051586823,43.81115751 7.048947352,43.82500608 7.064933134,43.82560037 7.088670685,43.82267579 7.102070413,43.81897323 7.108594143,43.81381636 7.131679936,43.80902342 7.13256411,43.80559265 7.129667375,43.80321543 7.132989615,43.79083426 7.131068347,43.79024033 7.126196807,43.78513553 7.110983979,43.77941227"/>
<polygon id="06018 BIOT" points="7.118001378,43.62254464 7.112829945,43.61684809 7.103497773,43.61675967 7.083283084,43.6083948 7.070199326,43.61220163 7.058243093,43.61724407 7.054835919,43.63043536 7.049424605,43.63565564 7.052326094,43.6412506 7.0762305,43.64156358 7.098918444,43.64567442 7.110797185,43.63484597 7.118001378,43.62254464"/>
<polygon id="06019 BLAUSASC" points="7.337392983,43.76574289 7.332193585,43.7719611 7.337533494,43.78070667 7.354720029,43.79746873 7.355298393,43.80440328 7.350125388,43.81360453 7.356636339,43.81019893 7.364395583,43.81076255 7.369841518,43.82143157 7.37468134,43.82139957 7.380231465,43.81602125 7.381137647,43.79862628 7.375056996,43.78941648 7.337392983,43.76574289"/>
<polygon id="06020 LA BOLLENE-VESUBIE" points="7.380004806,43.96710953 7.342646897,43.97046708 7.319218116,43.98177934 7.316302477,43.99502697 7.32316075,43.9986947 7.352174009,44.01659785 7.385686527,44.01546569 7.397905534,44.02084284 7.412274586,44.02104803 7.423317973,44.0154276 7.433472791,44.00099016 7.425404366,43.99711666 7.411807093,43.99470992 7.40124045,43.98820439 7.39242718,43.98012218 7.391216943,43.97332942 7.380004806,43.96710953"/>
<polygon id="06021 BONSON" points="7.194853336,43.84424181 7.159398162,43.86261447 7.159633138,43.86481337 7.189975955,43.87839508 7.19731756,43.86963252 7.196165634,43.85955648 7.195844763,43.84943049 7.194853336,43.84424181"/>
<polygon id="06022 BOUYON" points="7.13256411,43.80559265 7.131679936,43.80902342 7.108594143,43.81381636 7.102070413,43.81897323 7.088670685,43.82267579 7.100761596,43.82743887 7.128616293,43.84859105 7.141311736,43.84147704 7.142505141,43.82497686 7.156180505,43.81637286 7.13256411,43.80559265"/>
<polygon id="06023 BREIL-SUR-ROYA" points="7.509048613,43.87875598 7.493160211,43.89600639 7.491755723,43.91347025 7.462986117,43.91533584 7.450393147,43.93404008 7.455710239,43.93998868 7.456336747,43.95055453 7.43302358,43.99281457 7.425404366,43.99711666 7.433472791,44.00099016 7.456694069,43.99724213 7.486174292,43.98532661 7.505072045,43.98243052 7.513537364,43.96983937 7.54500711,43.9614307 7.571658067,43.94719266 7.570631659,43.93097314 7.558693308,43.91645424 7.561345348,43.8995675 7.51435379,43.88390883 7.509048613,43.87875598"/>
<polygon id="06024 BRIANCONNET" points="6.794475787,43.84306435 6.779874154,43.84212109 6.767217328,43.84706387 6.728869907,43.85231015 6.722222732,43.85690671 6.702826087,43.85596347 6.698669303,43.85771716 6.695946841,43.87489966 6.678214816,43.87919274 6.670718776,43.88774255 6.716514654,43.87957932 6.748080558,43.87185937 6.781622233,43.88355825 6.791846922,43.87621184 6.789202717,43.86621298 6.794475787,43.84306435"/>
<polygon id="06025 LE BROC" points="7.143613701,43.78141038 7.132989615,43.79083426 7.129667375,43.80321543 7.13256411,43.80559265 7.156180505,43.81637286 7.142505141,43.82497686 7.141311736,43.84147704 7.146712896,43.84675969 7.164411178,43.84272366 7.184582584,43.82438737 7.184261618,43.81473928 7.193424897,43.80377131 7.161816165,43.79670217 7.143613701,43.78141038"/>
<polygon id="06026 CABRIS" points="6.868991762,43.64630353 6.860750796,43.66705554 6.880184501,43.67345353 6.888588971,43.67219824 6.888288274,43.66575857 6.89497967,43.65703253 6.893565037,43.64717342 6.885977194,43.65108464 6.868991762,43.64630353"/>
<polygon id="06027 CAGNES-SUR-MER" points="7.145493512,43.64185279 7.132318455,43.65098659 7.133595632,43.65716414 7.120599131,43.67057853 7.123736214,43.6732888 7.132546766,43.67479229 7.134608677,43.68443618 7.143224187,43.69162297 7.141922408,43.70006145 7.150512066,43.69931042 7.155569518,43.69421543 7.163974869,43.69299277 7.173537934,43.69317575 7.176258584,43.69029596 7.178241885,43.65605119 7.160257509,43.65483105 7.145493512,43.64185279"/>
<polygon id="06028 CAILLE" points="6.78442984,43.74782653 6.772087411,43.75156121 6.764279356,43.74848926 6.743065151,43.7534099 6.730913864,43.76317802 6.720871859,43.78134984 6.742610314,43.78862283 6.770032603,43.78336176 6.783219321,43.78006662 6.782448052,43.76991322 6.788022692,43.76454826 6.78442984,43.74782653"/>
<path id="06029 CANNES" d="M6.95157088,43.53411721 L6.955064304,43.54366505 L6.951162681,43.54545582 L6.955832863,43.5542762 L6.954093558,43.56426717 L6.944555754,43.57113663 L6.963182667,43.57371008 L6.969981766,43.56793013 L6.965592687,43.56645103 L6.966057304,43.56295666 L6.970635876,43.56180723 L6.988794598,43.56622215 L7.003176321,43.56725104 L7.017277554,43.56497308 L7.035158931,43.56889519 L7.046836526,43.56318086 L7.049508431,43.55311696 L7.057796537,43.5503297 L7.038288204,43.53625585 L7.029321637,43.54858937 L6.984180361,43.54777043 L6.966090768,43.54319033 L6.95157088,43.53411721 Z M7.067113078,43.51365584 L7.063221439,43.5155135 L7.041743154,43.5162083 L7.034934412,43.51796642 L7.032544091,43.5209472 L7.034217426,43.52220926 L7.048192224,43.52340007 L7.068300327,43.51800772 L7.069581274,43.51651819 L7.067113078,43.51365584 Z"/>
<polygon id="06030 LE CANNET" points="7.035158931,43.56889519 7.017277554,43.56497308 7.003176321,43.56725104 6.988794598,43.56622215 6.970635876,43.56180723 6.966057304,43.56295666 6.965592687,43.56645103 6.969981766,43.56793013 6.99361519,43.57816191 7.011815623,43.58058974 7.021988158,43.58639354 7.028372457,43.58147196 7.037545433,43.5811491 7.033134593,43.57534898 7.035158931,43.56889519"/>
<polygon id="06031 CANTARON" points="7.307181418,43.7534516 7.298224319,43.75552701 7.296237635,43.75870555 7.29768732,43.77220232 7.29216389,43.7776472 7.31655916,43.7844602 7.337533494,43.78070667 7.332193585,43.7719611 7.318058521,43.7591938 7.310194747,43.75895578 7.307181418,43.7534516"/>
<polygon id="06032 CAP-D'AIL" points="7.415621298,43.72573587 7.404984297,43.71800193 7.390464467,43.71969757 7.383267236,43.7225834 7.390054506,43.72633816 7.398226966,43.73031593 7.412827318,43.73172539 7.40952716,43.72986746 7.415621298,43.72573587"/>
<polygon id="06033 CARROS" points="7.203795316,43.76478432 7.190655242,43.76685895 7.185949358,43.77272615 7.176997256,43.77479114 7.163573113,43.77300748 7.143613701,43.78141038 7.161816165,43.79670217 7.193424897,43.80377131 7.201198011,43.7998311 7.205889797,43.79562184 7.21550829,43.78485057 7.212035332,43.77249499 7.203795316,43.76478432"/>
<polygon id="06034 CASTAGNIERS" points="7.222428381,43.77110112 7.212035332,43.77249499 7.21550829,43.78485057 7.205889797,43.79562184 7.218908124,43.79872298 7.232847529,43.80751833 7.25080212,43.80816193 7.25355203,43.80063777 7.243991868,43.80141624 7.240046349,43.79167496 7.222428381,43.77110112"/>
<polygon id="06035 CASTELLAR" points="7.518724253,43.80251328 7.513016517,43.79690017 7.503735374,43.79503105 7.494765811,43.7971142 7.48799966,43.80634357 7.484172981,43.82339237 7.484906416,43.83368266 7.479137673,43.84728704 7.496644362,43.8508657 7.507622406,43.83988417 7.518724253,43.80251328"/>
<polygon id="06036 CASTILLON" points="7.468057582,43.82474851 7.459564041,43.82327581 7.447571516,43.82738036 7.439295432,43.84263483 7.447866148,43.84139305 7.453395615,43.84666541 7.470939605,43.85011139 7.479137673,43.84728704 7.484906416,43.83368266 7.484172981,43.82339237 7.476717821,43.82627681 7.468057582,43.82474851"/>
<polygon id="06037 CAUSSOLS" points="6.899215478,43.71288141 6.884788261,43.71387513 6.866071187,43.72510071 6.871942943,43.73421647 6.867986575,43.74994327 6.85776391,43.76458587 6.956293887,43.74709339 6.944984438,43.74151244 6.935171228,43.72224479 6.924197265,43.71619942 6.899215478,43.71288141"/>
<polygon id="06038 CHATEAUNEUF-GRASSE" points="6.988551948,43.64114217 6.972530697,43.64857627 6.963952041,43.66087199 6.960667682,43.67098313 6.969328485,43.67918115 6.960166033,43.6863445 6.983364778,43.68376715 6.987557296,43.68549646 6.998234163,43.68086978 6.99351021,43.66938497 6.980337019,43.67182326 6.976085399,43.66618577 6.986440068,43.65964396 7.000701612,43.64227207 6.988551948,43.64114217"/>
<polygon id="06039 CHATEAUNEUF-VILLEVIEILLE" points="7.29216389,43.7776472 7.272428934,43.81596742 7.285397899,43.81480916 7.293006375,43.82181852 7.301218508,43.82359451 7.301766796,43.80096109 7.31655916,43.7844602 7.29216389,43.7776472"/>
<polygon id="06040 CHATEAUNEUF-D'ENTRAUNES" points="6.820096017,44.11145206 6.822621704,44.12520491 6.811043825,44.14395489 6.816109137,44.16794663 6.811987606,44.17387526 6.803188507,44.17746996 6.810341261,44.19001765 6.827952326,44.20602143 6.840670597,44.19569118 6.871044464,44.18520604 6.877556814,44.1721884 6.85609406,44.16570023 6.846855825,44.14963314 6.847869217,44.13632389 6.832918047,44.11445528 6.829762276,44.11179928 6.820096017,44.11145206"/>
<polygon id="06041 CIPIERES" points="6.990435569,43.75583001 6.986050215,43.75444097 6.978140263,43.74258492 6.95939192,43.74444896 6.956293887,43.74709339 6.85776391,43.76458587 6.856102416,43.77441992 6.85936021,43.78307972 6.901431593,43.78948214 6.964454568,43.78916142 6.972538714,43.78557814 6.983607288,43.77040615 6.990435569,43.75583001"/>
<polygon id="06042 CLANS" points="7.151456951,43.9638955 7.145895508,43.97165894 7.141887002,43.97213544 7.136077891,43.98425159 7.136219072,44.0042444 7.131373354,44.01352107 7.149570116,44.01114651 7.152843431,44.02058441 7.174453874,44.02761137 7.180996783,44.03641914 7.198285154,44.04180439 7.207703888,44.04092868 7.233910131,44.01614093 7.225105911,44.00403482 7.206136199,44.00180133 7.196351534,43.98983018 7.183666476,43.98487306 7.174035211,43.96875779 7.151456951,43.9638955"/>
<polygon id="06043 COARAZE" points="7.295707349,43.84200785 7.272182178,43.84744767 7.272668002,43.87141048 7.283449821,43.87779192 7.287119819,43.88401959 7.304717154,43.88685943 7.309937976,43.89559391 7.314466181,43.89646941 7.323400062,43.87686434 7.323850317,43.86307505 7.330577499,43.85815749 7.304474234,43.84631239 7.295707349,43.84200785"/>
<polygon id="06044 LA COLLE-SUR-LOUP" points="7.120599131,43.67057853 7.106595833,43.66969393 7.095087562,43.67539912 7.088672483,43.6803079 7.075651117,43.68295032 7.072686214,43.68891803 7.079575268,43.70526563 7.087453798,43.70236581 7.095666844,43.7044986 7.113728216,43.69277904 7.123736214,43.6732888 7.120599131,43.67057853"/>
<polygon id="06045 COLLONGUES" points="6.888403453,43.87256904 6.87483005,43.87224121 6.868399049,43.8769565 6.865319548,43.8866614 6.834813761,43.89394585 6.839386327,43.90949855 6.835946727,43.915431 6.849879225,43.9141025 6.875218945,43.89924883 6.883456252,43.89083774 6.892592612,43.88998054 6.89397428,43.87992084 6.886626007,43.87573189 6.888403453,43.87256904"/>
<polygon id="06046 COLOMARS" points="7.242460352,43.75129879 7.221671169,43.74417721 7.215877549,43.75360244 7.199666687,43.76054614 7.203795316,43.76478432 7.212035332,43.77249499 7.222428381,43.77110112 7.237656138,43.76380477 7.242460352,43.75129879"/>
<polygon id="06047 CONSEGUDES" points="7.048947352,43.82500608 7.035561436,43.82403388 7.023736729,43.82825563 7.023345349,43.83842515 7.009671646,43.84775048 7.028117807,43.85031433 7.032922252,43.85628212 7.049403448,43.85513959 7.072083871,43.85519594 7.064933134,43.82560037 7.048947352,43.82500608"/>
<polygon id="06048 CONTES" points="7.337533494,43.78070667 7.31655916,43.7844602 7.301766796,43.80096109 7.301218508,43.82359451 7.295707349,43.84200785 7.304474234,43.84631239 7.321771066,43.82640422 7.343006939,43.82212604 7.350125388,43.81360453 7.355298393,43.80440328 7.354720029,43.79746873 7.337533494,43.78070667"/>
<polygon id="06049 COURMES" points="7.051968745,43.74671776 7.030289121,43.73926041 7.021375997,43.73179641 7.00718396,43.72981524 6.998017224,43.73199051 6.999181971,43.74474194 6.990435569,43.75583001 6.983607288,43.77040615 6.987900942,43.77117701 6.995911696,43.76766666 7.01820916,43.77180162 7.038977854,43.7634013 7.055546676,43.75125188 7.051968745,43.74671776"/>
<polygon id="06050 COURSEGOULES" points="7.055546676,43.75125188 7.038977854,43.7634013 7.01820916,43.77180162 6.995911696,43.76766666 6.987900942,43.77117701 6.997464342,43.78311626 7.000416637,43.81108415 6.991127769,43.82292214 6.992748471,43.82598941 7.023736729,43.82825563 7.035561436,43.82403388 7.048947352,43.82500608 7.051586823,43.81115751 7.075092705,43.79930558 7.078920518,43.78914228 7.088595983,43.78112027 7.087939222,43.77767577 7.073953931,43.76867568 7.074267505,43.76173477 7.055546676,43.75125188"/>
<polygon id="06051 LA CROIX-SUR-ROUDOULE" points="6.848068639,43.96522767 6.845487159,43.97762684 6.834712933,43.98328562 6.838726888,43.98970431 6.841288904,44.00215697 6.835727797,44.01077714 6.854994251,44.01965983 6.862748734,44.0354885 6.857767413,44.04105281 6.875845435,44.02989794 6.889481245,44.0335138 6.903800462,44.0326792 6.906910345,44.02612522 6.895852917,44.01127317 6.897155617,44.00093627 6.890238029,43.97386202 6.88445483,43.96846317 6.848068639,43.96522767"/>
<polygon id="06052 CUEBRIS" points="7.049798861,43.86720868 7.018113254,43.872697 7.010897788,43.87708057 7.008089977,43.8835725 6.993931283,43.88348811 6.960559239,43.88048792 6.93704213,43.8835919 6.937584811,43.89633121 6.94227201,43.89726125 6.953002256,43.89817956 6.976700726,43.89903044 6.985139268,43.8958481 6.994038867,43.89801868 6.993028032,43.9013807 7.005830584,43.90551605 7.020083597,43.90509101 7.036052639,43.89809458 7.045055741,43.91012456 7.049819699,43.90998391 7.048510828,43.89611012 7.054781162,43.88684802 7.04834684,43.87764335 7.049798861,43.86720868"/>
<polygon id="06053 DALUIS" points="6.835727797,44.01077714 6.829037195,44.006155 6.802927871,44.01223839 6.795561572,44.00811534 6.788984668,44.02128236 6.771137196,44.02650361 6.745687326,44.04283081 6.747683882,44.06347716 6.75648284,44.07959252 6.777382303,44.06491586 6.79163881,44.06244947 6.82610777,44.05174324 6.835897917,44.04036221 6.844120112,44.04299305 6.857767413,44.04105281 6.862748734,44.0354885 6.854994251,44.01965983 6.835727797,44.01077714"/>
<polygon id="06054 DRAP" points="7.359045621,43.75549607 7.351304569,43.75180443 7.323379118,43.74865475 7.318765766,43.74929756 7.318058521,43.7591938 7.332193585,43.7719611 7.337392983,43.76574289 7.358722866,43.76333169 7.362072899,43.76127785 7.359045621,43.75549607"/>
<polygon id="06055 DURANUS" points="7.272668002,43.87141048 7.259248241,43.87137671 7.244285712,43.88242335 7.252104648,43.89120327 7.254078579,43.90146357 7.281946848,43.90641183 7.297253533,43.91946442 7.306826846,43.91843811 7.310906681,43.91698817 7.308088284,43.90113773 7.314466181,43.89646941 7.309937976,43.89559391 7.304717154,43.88685943 7.287119819,43.88401959 7.283449821,43.87779192 7.272668002,43.87141048"/>
<polygon id="06056 ENTRAUNES" points="6.803188507,44.17746996 6.788664737,44.17823414 6.776000126,44.1677947 6.752464767,44.16362886 6.735991976,44.17049011 6.706945403,44.17180053 6.701234745,44.17753504 6.702656693,44.18417297 6.698475682,44.19015301 6.717369482,44.20864424 6.714075418,44.21822629 6.724866843,44.22839433 6.721964716,44.2342058 6.724806634,44.25038343 6.728284725,44.25256321 6.73755914,44.25327512 6.743443767,44.2586616 6.756922343,44.2622473 6.76308731,44.27842798 6.790338793,44.27234522 6.800352622,44.25745438 6.798062718,44.24760289 6.80735399,44.24034211 6.805437187,44.23363192 6.809529213,44.22382962 6.814258909,44.217943 6.822910042,44.21541605 6.827952326,44.20602143 6.810341261,44.19001765 6.803188507,44.17746996"/>
<polygon id="06057 L'ESCARENE" points="7.356636339,43.81019893 7.344244971,43.84314825 7.336707986,43.85179415 7.356592387,43.85123557 7.35627396,43.84461487 7.36284048,43.84124279 7.375912867,43.84429682 7.385530523,43.85066998 7.385472386,43.84715726 7.395656263,43.84048296 7.395113405,43.83698979 7.369841518,43.82143157 7.364395583,43.81076255 7.356636339,43.81019893"/>
<polygon id="06058 ESCRAGNOLLES" points="6.774703894,43.69385105 6.766195592,43.72002757 6.75726977,43.72785837 6.754161729,43.73785712 6.712451851,43.74034197 6.734472655,43.74553421 6.743065151,43.7534099 6.764279356,43.74848926 6.772087411,43.75156121 6.78442984,43.74782653 6.806967476,43.74849099 6.823995302,43.7371823 6.840408089,43.73087451 6.839018048,43.72756318 6.807496896,43.72134661 6.805546682,43.7146222 6.787244877,43.69462215 6.774703894,43.69385105"/>
<polygon id="06059 EZE" points="7.348298544,43.71407376 7.34063461,43.72179677 7.323423477,43.72293285 7.320853008,43.72344954 7.345945231,43.73772531 7.369229367,43.73972169 7.375719537,43.74429146 7.37521772,43.73789487 7.37898971,43.73618398 7.387240451,43.73842009 7.390044101,43.73591871 7.390054506,43.72633816 7.383267236,43.7225834 7.370628456,43.71866702 7.357744991,43.72130183 7.348298544,43.71407376"/>
<polygon id="06060 FALICON" points="7.279808282,43.74269908 7.252873401,43.7423764 7.24863496,43.75158058 7.256417558,43.75559304 7.255457642,43.76240736 7.262404746,43.76702891 7.265039993,43.76434832 7.269451898,43.76514863 7.280173759,43.75472442 7.277845692,43.75235574 7.28300798,43.74807936 7.279808282,43.74269908"/>
<polygon id="06061 LES FERRES" points="7.088670685,43.82267579 7.064933134,43.82560037 7.072083871,43.85519594 7.081056221,43.85476133 7.096616605,43.86144985 7.101124544,43.86074871 7.105113686,43.86201338 7.117726878,43.85367983 7.12539296,43.85412894 7.128616293,43.84859105 7.100761596,43.82743887 7.088670685,43.82267579"/>
<polygon id="06062 FONTAN" points="7.635919382,44.0005938 7.638949762,43.99777858 7.633390699,43.99238885 7.619321578,44.00075583 7.595596314,43.99601359 7.541880156,43.99343679 7.537077818,43.99428538 7.532921967,43.99619772 7.523853333,44.00858117 7.495544046,44.01371575 7.474586257,44.02852118 7.463568128,44.04765864 7.470529426,44.05131368 7.488612844,44.0468409 7.50130223,44.05146678 7.534796005,44.05046171 7.552791193,44.04556708 7.564110181,44.03460158 7.581901996,44.03068403 7.588365881,44.02577007 7.609791811,44.01926105 7.635919382,44.0005938"/>
<polygon id="06063 GARS" points="6.805684404,43.84127715 6.794475787,43.84306435 6.789202717,43.86621298 6.791846922,43.87621184 6.822108548,43.88097597 6.830593491,43.86968633 6.844408128,43.87047064 6.851860796,43.8517194 6.805684404,43.84127715"/>
<polygon id="06064 GATTIERES" points="7.185162169,43.74668687 7.155694041,43.75682722 7.137487664,43.77719186 7.131068347,43.79024033 7.132989615,43.79083426 7.143613701,43.78141038 7.163573113,43.77300748 7.176997256,43.77479114 7.185949358,43.77272615 7.190655242,43.76685895 7.203795316,43.76478432 7.199666687,43.76054614 7.185162169,43.74668687"/>
<polygon id="06065 LA GAUDE" points="7.163974869,43.69299277 7.155569518,43.69421543 7.150512066,43.69931042 7.141922408,43.70006145 7.145424446,43.72063463 7.137420951,43.72678733 7.136916939,43.7337358 7.14893757,43.73961272 7.182738212,43.74124722 7.184380453,43.71867443 7.170646244,43.71621029 7.163974869,43.69299277"/>
<polygon id="06066 GILETTE" points="7.184582584,43.82438737 7.164411178,43.84272366 7.146712896,43.84675969 7.141311736,43.84147704 7.128616293,43.84859105 7.12539296,43.85412894 7.126453918,43.85967588 7.13349945,43.86341012 7.159398162,43.86261447 7.194853336,43.84424181 7.190110786,43.83340288 7.184582584,43.82438737"/>
<polygon id="06067 GORBIO" points="7.471797426,43.77727535 7.454396234,43.77489729 7.436202762,43.77671276 7.424555609,43.78227902 7.42583746,43.79545788 7.443252962,43.79939942 7.473007885,43.78209273 7.471797426,43.77727535"/>
<polygon id="06068 GOURDON" points="6.99092097,43.71344741 6.977431255,43.71112148 6.976711365,43.70433646 6.972227529,43.7030768 6.958080354,43.70161051 6.949074224,43.70391101 6.931608521,43.69823723 6.925225456,43.70239591 6.924197265,43.71619942 6.935171228,43.72224479 6.944984438,43.74151244 6.956293887,43.74709339 6.95939192,43.74444896 6.978140263,43.74258492 6.986050215,43.75444097 6.990435569,43.75583001 6.999181971,43.74474194 6.998017224,43.73199051 6.99092097,43.71344741"/>
<polygon id="06069 GRASSE" points="6.929398676,43.61340604 6.929108999,43.61659666 6.915475723,43.6239538 6.90249185,43.62341212 6.895072868,43.62738104 6.893565037,43.64717342 6.89497967,43.65703253 6.888288274,43.66575857 6.888588971,43.67219824 6.913298842,43.68179812 6.91526805,43.6884481 6.90950821,43.69809705 6.933626901,43.69526321 6.960166033,43.6863445 6.969328485,43.67918115 6.960667682,43.67098313 6.963952041,43.66087199 6.972530697,43.64857627 6.988551948,43.64114217 6.979502147,43.63944695 6.965816066,43.6264967 6.93850802,43.62453542 6.934158261,43.61554899 6.929398676,43.61340604"/>
<polygon id="06070 GREOLIERES" points="6.983607288,43.77040615 6.972538714,43.78557814 6.964454568,43.78916142 6.901431593,43.78948214 6.85936021,43.78307972 6.859033968,43.81987744 6.912353878,43.83167131 6.931469881,43.83055995 6.959730874,43.83461863 6.991127769,43.82292214 7.000416637,43.81108415 6.997464342,43.78311626 6.987900942,43.77117701 6.983607288,43.77040615"/>
<polygon id="06071 GUILLAUMES" points="6.903800462,44.0326792 6.889481245,44.0335138 6.875845435,44.02989794 6.857767413,44.04105281 6.844120112,44.04299305 6.835897917,44.04036221 6.82610777,44.05174324 6.79163881,44.06244947 6.816510768,44.07220847 6.842178137,44.06363304 6.845700689,44.06601433 6.846772712,44.07983551 6.837320973,44.09945083 6.810233736,44.10593853 6.820096017,44.11145206 6.829762276,44.11179928 6.832918047,44.11445528 6.847869217,44.13632389 6.846855825,44.14963314 6.85609406,44.16570023 6.877556814,44.1721884 6.877931531,44.17217514 6.894673958,44.16563387 6.893294693,44.1551933 6.882069052,44.13581124 6.886154728,44.12584389 6.882355899,44.11217314 6.884800435,44.10182252 6.927250811,44.09793805 6.927255044,44.08424041 6.936877937,44.07642417 6.933126697,44.06700691 6.942941836,44.05137928 6.940136511,44.04118038 6.936453246,44.04337659 6.912961979,44.04366981 6.911321627,44.036889 6.903800462,44.0326792"/>
<polygon id="06072 ILONSE" points="7.093086798,43.9916472 7.079770202,43.99394756 7.070121604,44.00286862 7.052670514,44.02220763 7.058831,44.03766894 7.051894376,44.04604596 7.053985134,44.05557532 7.047656635,44.06059505 7.066215034,44.0721274 7.07433178,44.06939218 7.083341611,44.07075064 7.085869429,44.06469914 7.108413887,44.06949669 7.113846612,44.06424559 7.128139072,44.04538484 7.127747579,44.04377737 7.131015392,44.0137509 7.099702521,44.00430444 7.093086798,43.9916472"/>
<polygon id="06073 ISOLA" points="7.096575416,44.14741268 7.093528947,44.15377239 7.067228219,44.1464331 7.013621492,44.1577827 6.996851074,44.16264939 6.979755544,44.1593422 6.975160922,44.15826528 6.974306549,44.16859713 6.981960917,44.19204858 6.991938211,44.19944547 7.010209395,44.19899517 7.025917979,44.21646291 7.020272748,44.22186123 7.019263094,44.23219972 7.023876651,44.23344563 7.038886073,44.22488181 7.076442568,44.23175773 7.095703932,44.22126119 7.118449714,44.21466821 7.141895739,44.20177063 7.160278222,44.20572572 7.177321433,44.19911093 7.18702888,44.200264 7.193611106,44.18709604 7.192406417,44.18028283 7.167497756,44.17043463 7.149618759,44.17424957 7.140349651,44.17319402 7.135117021,44.16410806 7.12855962,44.16880772 7.107735948,44.16154159 7.105538972,44.14881664 7.096575416,44.14741268"/>
<polygon id="06074 LANTOSQUE" points="7.293027028,43.94149597 7.279036742,43.94372159 7.267928212,43.95512499 7.260404359,43.97180413 7.258562371,43.98923482 7.24494423,44.00349141 7.250266108,44.016741 7.254152748,44.01760829 7.267276533,44.00756989 7.289414002,44.00072756 7.29458932,43.99484597 7.312681562,43.99733314 7.316302477,43.99502697 7.319218116,43.98177934 7.342646897,43.97046708 7.380004806,43.96710953 7.376187333,43.95429207 7.369200764,43.94600006 7.369808806,43.93961226 7.334906086,43.94844868 7.325501946,43.94782118 7.315355772,43.94084997 7.293027028,43.94149597"/>
<polygon id="06075 LEVENS" points="7.218706748,43.81756529 7.21954736,43.83079815 7.209111612,43.83767222 7.204436535,43.84722498 7.195844763,43.84943049 7.196165634,43.85955648 7.21010196,43.86123615 7.21943827,43.87296041 7.244285712,43.88242335 7.259248241,43.87137671 7.272668002,43.87141048 7.272182178,43.84744767 7.275723627,43.82473315 7.267400711,43.8221305 7.256191245,43.81986535 7.253487245,43.82634245 7.240204806,43.82968989 7.218706748,43.81756529"/>
<polygon id="06076 LIEUCHE" points="7.070121604,44.00286862 7.061016897,44.00300001 7.051670588,43.99517321 7.03775935,43.9924619 7.015927348,43.97918141 7.01115921,43.97969901 7.001343104,43.99381035 7.002289226,44.00354414 7.015852423,44.00697571 7.034677713,44.0176823 7.052670514,44.02220763 7.070121604,44.00286862"/>
<polygon id="06077 LUCERAM" points="7.336707986,43.85179415 7.330577499,43.85815749 7.323850317,43.86307505 7.323400062,43.87686434 7.314466181,43.89646941 7.308088284,43.90113773 7.310906681,43.91698817 7.306826846,43.91843811 7.293056806,43.93526688 7.293027028,43.94149597 7.315355772,43.94084997 7.325501946,43.94782118 7.334906086,43.94844868 7.369808806,43.93961226 7.389363893,43.93065249 7.390026327,43.9204677 7.399442326,43.90884874 7.394133021,43.88152704 7.407835121,43.86387592 7.408505831,43.85352869 7.402903415,43.85436802 7.400062479,43.86033226 7.386063751,43.86150023 7.356592387,43.85123557 7.336707986,43.85179415"/>
<polygon id="06078 MALAUSSENE" points="7.187972532,43.89421595 7.183764848,43.89308869 7.168319922,43.89865451 7.160915228,43.89504403 7.157397708,43.8970526 7.141523897,43.90276602 7.126241128,43.91100501 7.103032779,43.91242078 7.096727695,43.91748787 7.082460999,43.91741869 7.083048687,43.9200551 7.089628809,43.9287122 7.108101759,43.93001014 7.125750127,43.93575196 7.143868857,43.93195658 7.153446189,43.92408561 7.166307041,43.9192156 7.18484428,43.91171123 7.194494234,43.90545581 7.187972532,43.89421595"/>
<polygon id="06079 MANDELIEU-LA-NAPOULE" points="6.903918809,43.49507237 6.884230099,43.50253573 6.895210501,43.52193235 6.894530741,43.52541588 6.879135249,43.53245355 6.887120463,43.55182348 6.901986174,43.56425282 6.906637111,43.56414852 6.914797847,43.56246707 6.928143196,43.57120049 6.941747736,43.57084228 6.944555754,43.57113663 6.954093558,43.56426717 6.955832863,43.5542762 6.951162681,43.54545582 6.955064304,43.54366505 6.95157088,43.53411721 6.938368675,43.51639156 6.92936591,43.51706055 6.916298377,43.51330854 6.903918809,43.49507237"/>
<polygon id="06080 MARIE" points="7.207703888,44.04092868 7.198285154,44.04180439 7.180996783,44.03641914 7.174453874,44.02761137 7.152843431,44.02058441 7.149570116,44.01114651 7.131373354,44.01352107 7.131015392,44.0137509 7.127747579,44.04377737 7.145743195,44.04553912 7.156448002,44.05216269 7.169621301,44.04877726 7.20704502,44.04655105 7.207703888,44.04092868"/>
<polygon id="06081 LE MAS" points="6.802311206,43.81211425 6.80391886,43.81850884 6.797642724,43.83378244 6.805684404,43.84127715 6.851860796,43.8517194 6.892123016,43.85880403 6.907647691,43.86512356 6.917224786,43.85042666 6.912353878,43.83167131 6.859033968,43.81987744 6.802311206,43.81211425"/>
<polygon id="06082 MASSOINS" points="7.166307041,43.9192156 7.153446189,43.92408561 7.143868857,43.93195658 7.125750127,43.93575196 7.108101759,43.93001014 7.103482012,43.95730034 7.106583448,43.9709089 7.098870026,43.97504668 7.093086798,43.9916472 7.111471383,43.97189659 7.112347735,43.96156294 7.130910757,43.95843818 7.14072673,43.95067656 7.149618006,43.93453191 7.16470139,43.92590974 7.166307041,43.9192156"/>
<polygon id="06083 MENTON" points="7.488275294,43.76502425 7.47976444,43.76830416 7.471797426,43.77727535 7.473007885,43.78209273 7.479442648,43.7868936 7.479516971,43.7965708 7.468057582,43.82474851 7.476717821,43.82627681 7.484172981,43.82339237 7.48799966,43.80634357 7.494765811,43.7971142 7.503735374,43.79503105 7.513016517,43.79690017 7.518724253,43.80251328 7.529827197,43.78401579 7.512338521,43.78028038 7.507705213,43.77421704 7.488275294,43.76502425"/>
<polygon id="06084 MOUANS-SARTOUX" points="6.943803231,43.59659574 6.934754139,43.6067077 6.934158261,43.61554899 6.93850802,43.62453542 6.965816066,43.6264967 6.979502147,43.63944695 6.988551948,43.64114217 6.990580752,43.63108529 7.002929962,43.61752226 6.980550419,43.61293038 6.972163734,43.61608437 6.954597618,43.59979761 6.943803231,43.59659574"/>
<polygon id="06085 MOUGINS" points="6.969981766,43.56793013 6.963182667,43.57371008 6.96535184,43.59451346 6.963924885,43.59789889 6.954597618,43.59979761 6.972163734,43.61608437 6.980550419,43.61293038 7.002929962,43.61752226 7.020930049,43.61213632 7.040072963,43.6103446 7.054372852,43.60109934 7.037545433,43.5811491 7.028372457,43.58147196 7.021988158,43.58639354 7.011815623,43.58058974 6.99361519,43.57816191 6.969981766,43.56793013"/>
<polygon id="06086 MOULINET" points="7.450393147,43.93404008 7.414039807,43.91977846 7.405701829,43.90434182 7.399442326,43.90884874 7.390026327,43.9204677 7.389363893,43.93065249 7.369808806,43.93961226 7.369200764,43.94600006 7.376187333,43.95429207 7.380004806,43.96710953 7.391216943,43.97332942 7.39242718,43.98012218 7.40124045,43.98820439 7.411807093,43.99470992 7.425404366,43.99711666 7.43302358,43.99281457 7.456336747,43.95055453 7.455710239,43.93998868 7.450393147,43.93404008"/>
<polygon id="06087 LES MUJOULS" points="6.851860796,43.8517194 6.844408128,43.87047064 6.830593491,43.86968633 6.822108548,43.88097597 6.829692043,43.8839085 6.827300509,43.89022728 6.834813761,43.89394585 6.865319548,43.8866614 6.868399049,43.8769565 6.87483005,43.87224121 6.888403453,43.87256904 6.89371648,43.86737885 6.901935414,43.86955389 6.90772519,43.86534604 6.907647691,43.86512356 6.892123016,43.85880403 6.851860796,43.8517194"/>
<polygon id="06088 NICE" points="7.308745254,43.69237084 7.306062286,43.68427661 7.293951466,43.6853865 7.285764472,43.69445971 7.261628432,43.69389457 7.247778923,43.69068789 7.23347072,43.68142389 7.225991642,43.6611789 7.212519688,43.64710452 7.199676427,43.64591678 7.202124328,43.65171511 7.199250682,43.65483579 7.199695949,43.66158565 7.187842845,43.69129208 7.184380453,43.71867443 7.182738212,43.74124722 7.185162169,43.74668687 7.199666687,43.76054614 7.215877549,43.75360244 7.221671169,43.74417721 7.242460352,43.75129879 7.24863496,43.75158058 7.252873401,43.7423764 7.279808282,43.74269908 7.285439928,43.7342497 7.297460935,43.73858781 7.296559225,43.75504303 7.296237635,43.75870555 7.298224319,43.75552701 7.307181418,43.7534516 7.308804105,43.74033808 7.294810314,43.73192463 7.303099675,43.7238289 7.320853008,43.72344954 7.323423477,43.72293285 7.315108445,43.72027112 7.302022474,43.70719084 7.301253609,43.7005977 7.308745254,43.69237084"/>
<polygon id="06089 OPIO" points="7.000701612,43.64227207 6.986440068,43.65964396 6.976085399,43.66618577 6.980337019,43.67182326 6.99351021,43.66938497 7.014728561,43.66434169 7.028146946,43.66543087 7.029192754,43.66230176 7.040608707,43.65752617 7.043577228,43.65158641 7.02507219,43.64975981 7.000701612,43.64227207"/>
<polygon id="06090 PEGOMAS" points="6.941747736,43.57084228 6.928143196,43.57120049 6.914797847,43.56246707 6.906637111,43.56414852 6.90783082,43.57094296 6.90031001,43.58314978 6.911990728,43.59833235 6.916719563,43.59878344 6.929398676,43.61340604 6.934158261,43.61554899 6.934754139,43.6067077 6.943803231,43.59659574 6.931423266,43.58218037 6.941747736,43.57084228"/>
<polygon id="06091 PEILLE" points="7.415079088,43.75606715 7.406528548,43.75531417 7.400623482,43.76388976 7.390273596,43.75753031 7.385273432,43.76172444 7.393130455,43.7699515 7.395495345,43.78275313 7.375056996,43.78941648 7.381137647,43.79862628 7.380231465,43.81602125 7.37468134,43.82139957 7.369841518,43.82143157 7.395113405,43.83698979 7.395656263,43.84048296 7.385472386,43.84715726 7.385530523,43.85066998 7.388707896,43.85263312 7.396542225,43.85053283 7.402903415,43.85436802 7.408505831,43.85352869 7.410154064,43.84697254 7.428034958,43.84789698 7.439295432,43.84263483 7.447571516,43.82738036 7.442060807,43.8080736 7.446086349,43.80206884 7.443252962,43.79939942 7.42583746,43.79545788 7.424555609,43.78227902 7.436202762,43.77671276 7.434871951,43.76036358 7.426618457,43.75928459 7.415079088,43.75606715"/>
<polygon id="06092 PEILLON" points="7.359045621,43.75549607 7.362072899,43.76127785 7.358722866,43.76333169 7.337392983,43.76574289 7.375056996,43.78941648 7.395495345,43.78275313 7.393130455,43.7699515 7.385273432,43.76172444 7.366241271,43.76017342 7.359045621,43.75549607"/>
<polygon id="06093 LA PENNE" points="6.94227201,43.89726125 6.941527691,43.90398302 6.929796469,43.91007378 6.912989179,43.92705887 6.908890832,43.92892671 6.899665075,43.92674272 6.891724348,43.93022482 6.915611726,43.94219281 6.94917249,43.93844309 6.962219141,43.94297149 6.971587083,43.93655775 6.980287089,43.93542993 6.978107284,43.92688587 6.972670495,43.9225784 6.953002256,43.89817956 6.94227201,43.89726125"/>
<polygon id="06094 PEONE" points="6.936877937,44.07642417 6.927255044,44.08424041 6.927250811,44.09793805 6.884800435,44.10182252 6.882355899,44.11217314 6.886154728,44.12584389 6.882069052,44.13581124 6.893294693,44.1551933 6.894673958,44.16563387 6.877931531,44.17217514 6.892014189,44.185464 6.904549402,44.19018212 6.913949082,44.18936037 6.911309229,44.16486127 6.926606603,44.15614959 6.953163494,44.1472553 6.97079797,44.1227179 6.950768287,44.09895733 6.954879179,44.08183093 6.936877937,44.07642417"/>
<polygon id="06095 PEYMEINADE" points="6.883711551,43.60650046 6.861216585,43.63714804 6.860898683,43.64384376 6.868991762,43.64630353 6.885977194,43.65108464 6.893565037,43.64717342 6.895072868,43.62738104 6.90249185,43.62341212 6.894469897,43.61102483 6.883711551,43.60650046"/>
<polygon id="06096 PIERLAS" points="7.002289226,44.00354414 6.993292363,44.00485546 6.983111224,44.01244508 6.977192105,44.02584431 6.976381247,44.03962535 6.976187528,44.04311085 6.997811198,44.05055029 7.027637632,44.06750704 7.047656635,44.06059505 7.053985134,44.05557532 7.051894376,44.04604596 7.058831,44.03766894 7.052670514,44.02220763 7.034677713,44.0176823 7.015852423,44.00697571 7.002289226,44.00354414"/>
<polygon id="06097 PIERREFEU" points="7.049403448,43.85513959 7.053477553,43.86499044 7.049798861,43.86720868 7.04834684,43.87764335 7.054781162,43.88684802 7.048510828,43.89611012 7.049819699,43.90998391 7.059148033,43.9221361 7.083048687,43.9200551 7.082460999,43.91741869 7.086464999,43.90770762 7.078823392,43.89148464 7.091712082,43.88719917 7.099492077,43.87443526 7.101124544,43.86074871 7.096616605,43.86144985 7.081056221,43.85476133 7.072083871,43.85519594 7.049403448,43.85513959"/>
<polygon id="06098 PUGET-ROSTANG" points="6.955043567,43.95890168 6.937392245,43.9623328 6.918934801,43.96041948 6.902352902,43.96638355 6.892990909,43.96667254 6.890874124,43.96983862 6.894572242,43.9721037 6.939321955,43.99187337 6.940564984,44.00226342 6.937466381,44.00493425 6.919411228,44.00126685 6.917602023,44.02178681 6.934439771,44.02780546 6.942529108,44.04055348 6.950034273,44.03835425 6.941177745,44.03005895 6.944064704,44.01259918 6.953439049,43.99637379 6.975454614,43.9778951 6.955043567,43.95890168"/>
<polygon id="06099 PUGET-THENIERS" points="6.891724348,43.93022482 6.882008784,43.93786919 6.872764577,43.95340712 6.848904587,43.95507052 6.848068639,43.96522767 6.88445483,43.96846317 6.88604768,43.96620792 6.892990909,43.96667254 6.902352902,43.96638355 6.918934801,43.96041948 6.937392245,43.9623328 6.955043567,43.95890168 6.956022886,43.9527027 6.96191892,43.94780325 6.962219141,43.94297149 6.94917249,43.93844309 6.915611726,43.94219281 6.891724348,43.93022482"/>
<polygon id="06100 REVEST-LES-ROCHES" points="7.159633138,43.86481337 7.149288368,43.87603052 7.149553732,43.89321481 7.157397708,43.8970526 7.160915228,43.89504403 7.168319922,43.89865451 7.183764848,43.89308869 7.187972532,43.89421595 7.189975955,43.87839508 7.159633138,43.86481337"/>
<polygon id="06101 RIGAUD" points="6.96191892,43.94780325 6.956022886,43.9527027 6.955043567,43.95890168 6.975454614,43.9778951 6.953439049,43.99637379 6.944064704,44.01259918 6.941177745,44.03005895 6.950034273,44.03835425 6.976381247,44.03962535 6.977192105,44.02584431 6.983111224,44.01244508 6.993292363,44.00485546 7.002289226,44.00354414 7.001343104,43.99381035 7.01115921,43.97969901 7.006691759,43.97863738 7.009893912,43.96881463 6.99334393,43.95716561 6.987983152,43.94847649 6.96191892,43.94780325"/>
<polygon id="06102 RIMPLAS" points="7.128139072,44.04538484 7.113846612,44.06424559 7.125650808,44.07948298 7.126229933,44.10038855 7.134622207,44.11689882 7.136466813,44.13089828 7.152479804,44.14419051 7.153916139,44.15116628 7.162849778,44.15400889 7.174532316,44.12355051 7.174557699,44.11299521 7.162174071,44.10823008 7.155568015,44.09880115 7.151488493,44.07821746 7.135269825,44.06080629 7.134396666,44.05033968 7.128139072,44.04538484"/>
<polygon id="06103 ROQUEBILLIERE" points="7.316302477,43.99502697 7.312681562,43.99733314 7.29458932,43.99484597 7.289414002,44.00072756 7.267276533,44.00756989 7.254152748,44.01760829 7.271147287,44.04618459 7.284254297,44.04234599 7.287846098,44.04457575 7.290403611,44.06125854 7.304598985,44.06351314 7.318418031,44.06030046 7.320736497,44.05017668 7.310604806,44.03472162 7.317105303,44.00413482 7.32316075,43.9986947 7.316302477,43.99502697"/>
<polygon id="06104 ROQUEBRUNE-CAP-MARTIN" points="7.43923941,43.74902767 7.437353197,43.75163719 7.426618457,43.75928459 7.434871951,43.76036358 7.436202762,43.77671276 7.454396234,43.77489729 7.471797426,43.77727535 7.47976444,43.76830416 7.488275294,43.76502425 7.483669858,43.75894995 7.486233481,43.7523188 7.482764967,43.7499471 7.45817529,43.75924023 7.43923941,43.74902767"/>
<polygon id="06105 ROQUEFORT-LES-PINS" points="7.051581456,43.64440476 7.043577228,43.65158641 7.040608707,43.65752617 7.029192754,43.66230176 7.028146946,43.66543087 7.019016926,43.68884293 7.024784449,43.69370214 7.036050453,43.70026728 7.059052078,43.69678916 7.067981035,43.68910319 7.072686214,43.68891803 7.075651117,43.68295032 7.088672483,43.6803079 7.095087562,43.67539912 7.086205148,43.67426475 7.072609964,43.64944789 7.054493005,43.64715224 7.051581456,43.64440476"/>
<polygon id="06106 ROQUESTERON" points="7.049403448,43.85513959 7.032922252,43.85628212 7.029613677,43.85863014 7.020468959,43.85768819 7.005982749,43.87289996 6.992678693,43.8753792 6.993931283,43.88348811 7.008089977,43.8835725 7.010897788,43.87708057 7.018113254,43.872697 7.049798861,43.86720868 7.053477553,43.86499044 7.049403448,43.85513959"/>
<polygon id="06107 ROQUESTERON-GRASSE" points="6.991127769,43.82292214 6.959730874,43.83461863 6.951995685,43.85073056 6.960845316,43.86594348 6.992678693,43.8753792 7.005982749,43.87289996 7.020468959,43.85768819 7.029613677,43.85863014 7.032922252,43.85628212 7.028117807,43.85031433 7.009671646,43.84775048 7.023345349,43.83842515 7.023736729,43.82825563 6.992748471,43.82598941 6.991127769,43.82292214"/>
<polygon id="06108 LA ROQUETTE-SUR-SIAGNE" points="6.941747736,43.57084228 6.931423266,43.58218037 6.943803231,43.59659574 6.954597618,43.59979761 6.963924885,43.59789889 6.96535184,43.59451346 6.963182667,43.57371008 6.944555754,43.57113663 6.941747736,43.57084228"/>
<polygon id="06109 LA ROQUETTE-SUR-VAR" points="7.217184763,43.81583087 7.207710822,43.82711041 7.19460793,43.82446149 7.190110786,43.83340288 7.194853336,43.84424181 7.195844763,43.84943049 7.204436535,43.84722498 7.209111612,43.83767222 7.21954736,43.83079815 7.218706748,43.81756529 7.217184763,43.81583087"/>
<polygon id="06110 ROUBION" points="7.047656635,44.06059505 7.027637632,44.06750704 7.0214417,44.07692713 7.021100751,44.09420669 7.026914499,44.10725884 7.008099254,44.1180247 7.003499961,44.12785391 6.99561478,44.13190888 6.992409533,44.14897755 6.979755544,44.1593422 6.996851074,44.16264939 7.013621492,44.1577827 7.017788324,44.14412955 7.03030001,44.13895656 7.02618597,44.12911321 7.02940798,44.12249688 7.06520026,44.0895858 7.066215034,44.0721274 7.047656635,44.06059505"/>
<polygon id="06111 ROURE" points="7.083341611,44.07075064 7.07433178,44.06939218 7.066215034,44.0721274 7.06520026,44.0895858 7.02940798,44.12249688 7.02618597,44.12911321 7.03030001,44.13895656 7.017788324,44.14412955 7.013621492,44.1577827 7.067228219,44.1464331 7.093528947,44.15377239 7.096575416,44.14741268 7.100733896,44.13392725 7.091565696,44.11852501 7.105815101,44.09289155 7.083341611,44.07075064"/>
<polygon id="06112 LE ROURET" points="7.028146946,43.66543087 7.014728561,43.66434169 6.99351021,43.66938497 6.998234163,43.68086978 6.987557296,43.68549646 7.006256823,43.69563874 7.024784449,43.69370214 7.019016926,43.68884293 7.028146946,43.66543087"/>
<polygon id="06113 SAINTE-AGNES" points="7.473007885,43.78209273 7.443252962,43.79939942 7.446086349,43.80206884 7.442060807,43.8080736 7.447571516,43.82738036 7.459564041,43.82327581 7.468057582,43.82474851 7.479516971,43.7965708 7.479442648,43.7868936 7.473007885,43.78209273"/>
<polygon id="06114 SAINT-ANDRE-DE-LA-ROCHE" points="7.296559225,43.75504303 7.297460935,43.73858781 7.285439928,43.7342497 7.279808282,43.74269908 7.28300798,43.74807936 7.277845692,43.75235574 7.280173759,43.75472442 7.296559225,43.75504303"/>
<polygon id="06115 SAINT-ANTONIN" points="6.993028032,43.9013807 6.994038867,43.89801868 6.985139268,43.8958481 6.976700726,43.89903044 6.953002256,43.89817956 6.972670495,43.9225784 6.990231934,43.91806311 6.993028032,43.9013807"/>
<polygon id="06116 SAINT-AUBAN" points="6.770597322,43.80587388 6.709830286,43.81066262 6.710744463,43.8174602 6.700319464,43.82477852 6.667906245,43.83061277 6.680088728,43.85223775 6.702826087,43.85596347 6.722222732,43.85690671 6.728869907,43.85231015 6.767217328,43.84706387 6.779874154,43.84212109 6.794475787,43.84306435 6.805684404,43.84127715 6.797642724,43.83378244 6.80391886,43.81850884 6.802311206,43.81211425 6.79402542,43.80855612 6.770597322,43.80587388"/>
<polygon id="06117 SAINT-BLAISE" points="7.205889797,43.79562184 7.201198011,43.7998311 7.204067365,43.80636194 7.217184763,43.81583087 7.218706748,43.81756529 7.240204806,43.82968989 7.253487245,43.82634245 7.256191245,43.81986535 7.25080212,43.80816193 7.232847529,43.80751833 7.218908124,43.79872298 7.205889797,43.79562184"/>
<polygon id="06118 SAINT-CEZAIRE-SUR-SIAGNE" points="6.824612116,43.62319167 6.813587435,43.62970498 6.799867903,43.6283481 6.789749343,43.643367 6.775052497,43.65959803 6.766017141,43.66050604 6.761134474,43.6658909 6.763488753,43.68302431 6.767122184,43.68957371 6.774703894,43.69385105 6.787244877,43.69462215 6.792871204,43.68528235 6.817682984,43.67499091 6.83472238,43.6629141 6.848938357,43.66265481 6.845813046,43.64845069 6.824612116,43.62319167"/>
<polygon id="06119 SAINT-DALMAS-LE-SELVAGE" points="6.822910042,44.21541605 6.814258909,44.217943 6.809529213,44.22382962 6.805437187,44.23363192 6.80735399,44.24034211 6.798062718,44.24760289 6.800352622,44.25745438 6.790338793,44.27234522 6.786443604,44.28876358 6.796040748,44.30018362 6.796833855,44.31670186 6.804541527,44.32082408 6.809935138,44.33028001 6.823419386,44.33381316 6.840886579,44.34568609 6.854558618,44.34377468 6.862962657,44.34657094 6.874535788,44.34005334 6.883067439,44.33133476 6.884506539,44.32430835 6.900469258,44.31126984 6.90075934,44.27957225 6.870423268,44.26794757 6.861361635,44.25975032 6.848472025,44.25459753 6.843350042,44.24858587 6.841796429,44.23805145 6.835474866,44.23280247 6.834045384,44.22240794 6.822910042,44.21541605"/>
<polygon id="06120 SAINT-ETIENNE-DE-TINEE" points="6.975160922,44.15826528 6.962430477,44.16240321 6.961990177,44.17655008 6.950499153,44.1960524 6.928614065,44.18806991 6.913949082,44.18936037 6.904549402,44.19018212 6.892014189,44.185464 6.877931531,44.17217514 6.877556814,44.1721884 6.871044464,44.18520604 6.840670597,44.19569118 6.827952326,44.20602143 6.822910042,44.21541605 6.834045384,44.22240794 6.835474866,44.23280247 6.841796429,44.23805145 6.843350042,44.24858587 6.848472025,44.25459753 6.861361635,44.25975032 6.870423268,44.26794757 6.90075934,44.27957225 6.900469258,44.31126984 6.884506539,44.32430835 6.883067439,44.33133476 6.874535788,44.34005334 6.862962657,44.34657094 6.87153974,44.35280324 6.887430518,44.36105683 6.90644846,44.357571 6.918807167,44.35191295 6.929162679,44.33244555 6.957209553,44.31279203 6.960882178,44.29584203 6.973696122,44.28602406 6.99183793,44.28138253 6.99589112,44.27498928 6.999753652,44.24706243 7.007012953,44.23783002 7.019263094,44.23219972 7.020272748,44.22186123 7.025917979,44.21646291 7.010209395,44.19899517 6.991938211,44.19944547 6.981960917,44.19204858 6.974306549,44.16859713 6.975160922,44.15826528"/>
<polygon id="06121 SAINT-JEAN-CAP-FERRAT" points="7.329391824,43.70147253 7.334420192,43.69094468 7.348831775,43.6859443 7.335676596,43.68457734 7.335040444,43.67617676 7.325385727,43.67509253 7.32066599,43.68938347 7.325546612,43.69595717 7.320643908,43.7015952 7.326789086,43.7015491 7.329391824,43.70147253"/>
<polygon id="06122 SAINT-JEANNET" points="7.136916939,43.7337358 7.135061002,43.74347496 7.112896833,43.76572457 7.110983979,43.77941227 7.126196807,43.78513553 7.131068347,43.79024033 7.137487664,43.77719186 7.155694041,43.75682722 7.185162169,43.74668687 7.182738212,43.74124722 7.14893757,43.73961272 7.136916939,43.7337358"/>
<polygon id="06123 SAINT-LAURENT-DU-VAR" points="7.199250682,43.65483579 7.19608365,43.65717478 7.178241885,43.65605119 7.176258584,43.69029596 7.173537934,43.69317575 7.163974869,43.69299277 7.170646244,43.71621029 7.184380453,43.71867443 7.187842845,43.69129208 7.199695949,43.66158565 7.199250682,43.65483579"/>
<polygon id="06124 SAINT-LEGER" points="6.838726888,43.98970431 6.795561572,44.00811534 6.802927871,44.01223839 6.829037195,44.006155 6.835727797,44.01077714 6.841288904,44.00215697 6.838726888,43.98970431"/>
<polygon id="06125 SAINT-MARTIN-D'ENTRAUNES" points="6.724663981,44.1109639 6.719090878,44.1182986 6.707956122,44.12438875 6.704946064,44.14480025 6.687238277,44.16830224 6.701234745,44.17753504 6.706945403,44.17180053 6.735991976,44.17049011 6.752464767,44.16362886 6.776000126,44.1677947 6.788664737,44.17823414 6.803188507,44.17746996 6.811987606,44.17387526 6.806590585,44.1602306 6.785011707,44.14578534 6.774737727,44.13015442 6.767043752,44.12581475 6.752450179,44.12532446 6.724663981,44.1109639"/>
<polygon id="06126 SAINT-MARTIN-DU-VAR" points="7.201198011,43.7998311 7.193424897,43.80377131 7.184261618,43.81473928 7.184582584,43.82438737 7.190110786,43.83340288 7.19460793,43.82446149 7.207710822,43.82711041 7.217184763,43.81583087 7.204067365,43.80636194 7.201198011,43.7998311"/>
<polygon id="06127 SAINT-MARTIN-VESUBIE" points="7.290403611,44.06125854 7.287846098,44.04457575 7.284254297,44.04234599 7.271147287,44.04618459 7.26327467,44.04985371 7.255018782,44.06194654 7.241941202,44.06525752 7.233429511,44.06241456 7.237467009,44.06879283 7.234369755,44.08931877 7.240741836,44.113219 7.23661115,44.11939989 7.227953254,44.12260078 7.2257486,44.12913048 7.234804825,44.13713624 7.25331774,44.14016864 7.262782072,44.14803031 7.28432981,44.14209694 7.292968983,44.14494064 7.340940078,44.14511451 7.358979585,44.11705785 7.368715762,44.11707547 7.38589189,44.12367245 7.387383109,44.08901563 7.383611262,44.07886352 7.370404387,44.06858391 7.362391613,44.06468515 7.353737734,44.07264669 7.340161151,44.07626883 7.306649319,44.07375308 7.292427058,44.07150871 7.290403611,44.06125854"/>
<polygon id="06128 SAINT-PAUL" points="7.123736214,43.6732888 7.113728216,43.69277904 7.095666844,43.7044986 7.111225436,43.71187679 7.120426778,43.71131233 7.130073229,43.70400826 7.134816131,43.69452909 7.143224187,43.69162297 7.134608677,43.68443618 7.132546766,43.67479229 7.123736214,43.6732888"/>
<polygon id="06129 SAINT-SAUVEUR-SUR-TINEE" points="7.113846612,44.06424559 7.108413887,44.06949669 7.085869429,44.06469914 7.083341611,44.07075064 7.105815101,44.09289155 7.091565696,44.11852501 7.100733896,44.13392725 7.096575416,44.14741268 7.105538972,44.14881664 7.107735948,44.16154159 7.12855962,44.16880772 7.135117021,44.16410806 7.137283263,44.16101594 7.151676226,44.16042655 7.162849778,44.15400889 7.153916139,44.15116628 7.152479804,44.14419051 7.136466813,44.13089828 7.134622207,44.11689882 7.126229933,44.10038855 7.125650808,44.07948298 7.113846612,44.06424559"/>
<polygon id="06130 SAINT-VALLIER-DE-THIEY" points="6.848938357,43.66265481 6.83472238,43.6629141 6.817682984,43.67499091 6.792871204,43.68528235 6.787244877,43.69462215 6.805546682,43.7146222 6.807496896,43.72134661 6.839018048,43.72756318 6.840408089,43.73087451 6.863334763,43.73609004 6.871942943,43.73421647 6.866071187,43.72510071 6.884788261,43.71387513 6.899215478,43.71288141 6.90950821,43.69809705 6.91526805,43.6884481 6.913298842,43.68179812 6.888588971,43.67219824 6.880184501,43.67345353 6.860750796,43.66705554 6.848938357,43.66265481"/>
<polygon id="06131 SALLAGRIFFON" points="6.90772519,43.86534604 6.901935414,43.86955389 6.89371648,43.86737885 6.888403453,43.87256904 6.886626007,43.87573189 6.89397428,43.87992084 6.892592612,43.88998054 6.918679257,43.89356986 6.937584811,43.89633121 6.93704213,43.8835919 6.936325028,43.87987843 6.920941341,43.86538524 6.90772519,43.86534604"/>
<polygon id="06132 SAORGE" points="7.571658067,43.94719266 7.54500711,43.9614307 7.513537364,43.96983937 7.505072045,43.98243052 7.486174292,43.98532661 7.456694069,43.99724213 7.433472791,44.00099016 7.423317973,44.0154276 7.412274586,44.02104803 7.422612016,44.03254703 7.419841671,44.04256568 7.42304664,44.04907061 7.433698029,44.04445666 7.447092102,44.04377757 7.463568128,44.04765864 7.474586257,44.02852118 7.495544046,44.01371575 7.523853333,44.00858117 7.532921967,43.99619772 7.537077818,43.99428538 7.541880156,43.99343679 7.595596314,43.99601359 7.619321578,44.00075583 7.633390699,43.99238885 7.638949762,43.99777858 7.635919382,44.0005938 7.652649816,44.00449864 7.662843183,44.01457641 7.668847574,43.99761398 7.652744975,43.97601461 7.611951212,43.95648715 7.592390195,43.95564388 7.571658067,43.94719266"/>
<polygon id="06133 SAUZE" points="6.79163881,44.06244947 6.777382303,44.06491586 6.75648284,44.07959252 6.749820536,44.08660586 6.764642658,44.09882011 6.784622354,44.10762866 6.789017419,44.10883731 6.806238402,44.10416717 6.810233736,44.10593853 6.837320973,44.09945083 6.846772712,44.07983551 6.845700689,44.06601433 6.842178137,44.06363304 6.816510768,44.07220847 6.79163881,44.06244947"/>
<polygon id="06134 SERANON" points="6.712451851,43.74034197 6.711618263,43.74702765 6.704703713,43.75174042 6.687167658,43.75693011 6.682462148,43.75758485 6.657423432,43.74871807 6.653631742,43.76270004 6.641849878,43.76818442 6.645036343,43.77722119 6.63780217,43.78095829 6.6363958,43.78895057 6.636038688,43.79017861 6.676925729,43.77837421 6.720871859,43.78134984 6.730913864,43.76317802 6.743065151,43.7534099 6.734472655,43.74553421 6.712451851,43.74034197"/>
<polygon id="06135 SIGALE" points="6.960845316,43.86594348 6.952118009,43.86526897 6.94716225,43.87446794 6.936325028,43.87987843 6.93704213,43.8835919 6.960559239,43.88048792 6.993931283,43.88348811 6.992678693,43.8753792 6.960845316,43.86594348"/>
<polygon id="06136 SOSPEL" points="7.479137673,43.84728704 7.470939605,43.85011139 7.453395615,43.84666541 7.447866148,43.84139305 7.439295432,43.84263483 7.428034958,43.84789698 7.410154064,43.84697254 7.408505831,43.85352869 7.407835121,43.86387592 7.394133021,43.88152704 7.399442326,43.90884874 7.405701829,43.90434182 7.414039807,43.91977846 7.450393147,43.93404008 7.462986117,43.91533584 7.491755723,43.91347025 7.493160211,43.89600639 7.509048613,43.87875598 7.498899703,43.87236969 7.496644362,43.8508657 7.479137673,43.84728704"/>
<polygon id="06137 SPERACEDES" points="6.861216585,43.63714804 6.845813046,43.64845069 6.848938357,43.66265481 6.860750796,43.66705554 6.868991762,43.64630353 6.860898683,43.64384376 6.861216585,43.63714804"/>
<polygon id="06138 THEOULE-SUR-MER" points="6.933726236,43.48006801 6.915656287,43.48301959 6.912291786,43.49265355 6.903918809,43.49507237 6.916298377,43.51330854 6.92936591,43.51706055 6.938368675,43.51639156 6.93889353,43.50960726 6.95150145,43.50522978 6.954791012,43.4992634 6.946847309,43.4868514 6.933847134,43.48345966 6.933726236,43.48006801"/>
<polygon id="06139 THIERY" points="7.055772778,43.94725032 7.037555136,43.94996202 7.018393577,43.95965311 7.00945029,43.95843184 6.999388064,43.95192519 6.99334393,43.95716561 7.009893912,43.96881463 7.006691759,43.97863738 7.01115921,43.97969901 7.015927348,43.97918141 7.03775935,43.9924619 7.051670588,43.99517321 7.061016897,44.00300001 7.070121604,44.00286862 7.079770202,43.99394756 7.075335196,43.98064033 7.063297025,43.97004034 7.055772778,43.94725032"/>
<polygon id="06140 LE TIGNET" points="6.883711551,43.60650046 6.864764818,43.60515861 6.856822998,43.60835973 6.853157979,43.6063999 6.838665115,43.61379561 6.835681379,43.61923399 6.824612116,43.62319167 6.845813046,43.64845069 6.861216585,43.63714804 6.883711551,43.60650046"/>
<polygon id="06141 TOUDON" points="7.12539296,43.85412894 7.117726878,43.85367983 7.105113686,43.86201338 7.101124544,43.86074871 7.099492077,43.87443526 7.091712082,43.88719917 7.078823392,43.89148464 7.086464999,43.90770762 7.082460999,43.91741869 7.096727695,43.91748787 7.103032779,43.91242078 7.126241128,43.91100501 7.141523897,43.90276602 7.120006613,43.88061007 7.117244088,43.86079904 7.126453918,43.85967588 7.12539296,43.85412894"/>
<polygon id="06142 TOUET-DE-L'ESCARENE" points="7.385530523,43.85066998 7.375912867,43.84429682 7.36284048,43.84124279 7.35627396,43.84461487 7.356592387,43.85123557 7.386063751,43.86150023 7.400062479,43.86033226 7.402903415,43.85436802 7.396542225,43.85053283 7.388707896,43.85263312 7.385530523,43.85066998"/>
<polygon id="06143 TOUET-SUR-VAR" points="7.045644138,43.92580044 7.009326094,43.93662918 6.980287089,43.93542993 6.971587083,43.93655775 6.962219141,43.94297149 6.96191892,43.94780325 6.987983152,43.94847649 6.99334393,43.95716561 6.999388064,43.95192519 7.00945029,43.95843184 7.018393577,43.95965311 7.037555136,43.94996202 7.055772778,43.94725032 7.045644138,43.92580044"/>
<polygon id="06144 LA TOUR" points="7.187529107,43.92484708 7.170869128,43.93658791 7.161803025,43.93847497 7.161975051,43.94527256 7.151456951,43.9638955 7.174035211,43.96875779 7.183666476,43.98487306 7.196351534,43.98983018 7.206136199,44.00180133 7.225105911,44.00403482 7.229681005,43.99788234 7.238446737,43.95646251 7.223404111,43.94809584 7.214452333,43.9324717 7.187529107,43.92484708"/>
<polygon id="06145 TOURETTE-DU-CHATEAU" points="7.126453918,43.85967588 7.117244088,43.86079904 7.120006613,43.88061007 7.141523897,43.90276602 7.157397708,43.8970526 7.149553732,43.89321481 7.149288368,43.87603052 7.159633138,43.86481337 7.159398162,43.86261447 7.13349945,43.86341012 7.126453918,43.85967588"/>
<polygon id="06146 TOURNEFORT" points="7.18484428,43.91171123 7.166307041,43.9192156 7.16470139,43.92590974 7.149618006,43.93453191 7.14072673,43.95067656 7.130910757,43.95843818 7.130253356,43.96176144 7.141887002,43.97213544 7.145895508,43.97165894 7.151456951,43.9638955 7.161975051,43.94527256 7.161803025,43.93847497 7.170869128,43.93658791 7.187529107,43.92484708 7.188643557,43.91659424 7.18484428,43.91171123"/>
<polygon id="06147 TOURRETTE-LEVENS" points="7.280173759,43.75472442 7.269451898,43.76514863 7.265039993,43.76434832 7.262404746,43.76702891 7.252738664,43.78670116 7.25355203,43.80063777 7.25080212,43.80816193 7.256191245,43.81986535 7.267400711,43.8221305 7.272428934,43.81596742 7.29216389,43.7776472 7.29768732,43.77220232 7.296237635,43.75870555 7.296559225,43.75504303 7.280173759,43.75472442"/>
<polygon id="06148 TOURRETTES-SUR-LOUP" points="7.072686214,43.68891803 7.067981035,43.68910319 7.059052078,43.69678916 7.036050453,43.70026728 7.008198299,43.69782866 6.99092097,43.71344741 6.998017224,43.73199051 7.00718396,43.72981524 7.021375997,43.73179641 7.030289121,43.73926041 7.051968745,43.74671776 7.056672327,43.74136156 7.065419469,43.73923303 7.077928757,43.72521322 7.079575268,43.70526563 7.072686214,43.68891803"/>
<polygon id="06149 LA TRINITE" points="7.320853008,43.72344954 7.303099675,43.7238289 7.294810314,43.73192463 7.308804105,43.74033808 7.307181418,43.7534516 7.310194747,43.75895578 7.318058521,43.7591938 7.318765766,43.74929756 7.323379118,43.74865475 7.351304569,43.75180443 7.359045621,43.75549607 7.366241271,43.76017342 7.385273432,43.76172444 7.390273596,43.75753031 7.385814708,43.74965295 7.375719537,43.74429146 7.369229367,43.73972169 7.345945231,43.73772531 7.320853008,43.72344954"/>
<polygon id="06150 LA TURBIE" points="7.390054506,43.72633816 7.390044101,43.73591871 7.387240451,43.73842009 7.37898971,43.73618398 7.37521772,43.73789487 7.375719537,43.74429146 7.385814708,43.74965295 7.390273596,43.75753031 7.400623482,43.76388976 7.406528548,43.75531417 7.415079088,43.75606715 7.417908426,43.75004002 7.407843658,43.7394709 7.413383684,43.73458683 7.412827318,43.73172539 7.398226966,43.73031593 7.390054506,43.72633816"/>
<polygon id="06151 UTELLE" points="7.196165634,43.85955648 7.19731756,43.86963252 7.189975955,43.87839508 7.187972532,43.89421595 7.194494234,43.90545581 7.18484428,43.91171123 7.188643557,43.91659424 7.187529107,43.92484708 7.214452333,43.9324717 7.223404111,43.94809584 7.238446737,43.95646251 7.229681005,43.99788234 7.225105911,44.00403482 7.233910131,44.01614093 7.242015994,44.01832328 7.250266108,44.016741 7.24494423,44.00349141 7.258562371,43.98923482 7.260404359,43.97180413 7.267928212,43.95512499 7.279036742,43.94372159 7.293027028,43.94149597 7.293056806,43.93526688 7.306826846,43.91843811 7.297253533,43.91946442 7.281946848,43.90641183 7.254078579,43.90146357 7.252104648,43.89120327 7.244285712,43.88242335 7.21943827,43.87296041 7.21010196,43.86123615 7.196165634,43.85955648"/>
<polygon id="06152 VALBONNE" points="7.054372852,43.60109934 7.040072963,43.6103446 7.020930049,43.61213632 7.002929962,43.61752226 6.990580752,43.63108529 6.988551948,43.64114217 7.000701612,43.64227207 7.02507219,43.64975981 7.043577228,43.65158641 7.051581456,43.64440476 7.052326094,43.6412506 7.049424605,43.63565564 7.054835919,43.63043536 7.058243093,43.61724407 7.070199326,43.61220163 7.067593709,43.60658716 7.054372852,43.60109934"/>
<polygon id="06153 VALDEBLORE" points="7.127747579,44.04377737 7.128139072,44.04538484 7.134396666,44.05033968 7.135269825,44.06080629 7.151488493,44.07821746 7.155568015,44.09880115 7.162174071,44.10823008 7.174557699,44.11299521 7.174532316,44.12355051 7.162849778,44.15400889 7.151676226,44.16042655 7.137283263,44.16101594 7.135117021,44.16410806 7.140349651,44.17319402 7.149618759,44.17424957 7.167497756,44.17043463 7.192406417,44.18028283 7.193611106,44.18709604 7.202643084,44.18473114 7.221237852,44.1691442 7.238777526,44.17327157 7.249910861,44.15803983 7.262782072,44.14803031 7.25331774,44.14016864 7.234804825,44.13713624 7.2257486,44.12913048 7.227953254,44.12260078 7.23661115,44.11939989 7.240741836,44.113219 7.234369755,44.08931877 7.237467009,44.06879283 7.233429511,44.06241456 7.21727204,44.05741445 7.20704502,44.04655105 7.169621301,44.04877726 7.156448002,44.05216269 7.145743195,44.04553912 7.127747579,44.04377737"/>
<polygon id="06154 VALDEROURE" points="6.720871859,43.78134984 6.676925729,43.77837421 6.636038688,43.79017861 6.642115649,43.79519143 6.688273341,43.80375507 6.709830286,43.81066262 6.770597322,43.80587388 6.770032603,43.78336176 6.742610314,43.78862283 6.720871859,43.78134984"/>
<polygon id="06155 VALLAURIS" points="7.057796537,43.5503297 7.049508431,43.55311696 7.046836526,43.56318086 7.035158931,43.56889519 7.033134593,43.57534898 7.037545433,43.5811491 7.054372852,43.60109934 7.067593709,43.60658716 7.066117332,43.59031712 7.086586544,43.57315993 7.086497348,43.56982076 7.067497668,43.56137213 7.057796537,43.5503297"/>
<polygon id="06156 VENANSON" points="7.233910131,44.01614093 7.207703888,44.04092868 7.20704502,44.04655105 7.21727204,44.05741445 7.233429511,44.06241456 7.241941202,44.06525752 7.255018782,44.06194654 7.26327467,44.04985371 7.271147287,44.04618459 7.254152748,44.01760829 7.250266108,44.016741 7.242015994,44.01832328 7.233910131,44.01614093"/>
<polygon id="06157 VENCE" points="7.143224187,43.69162297 7.134816131,43.69452909 7.130073229,43.70400826 7.120426778,43.71131233 7.111225436,43.71187679 7.095666844,43.7044986 7.087453798,43.70236581 7.079575268,43.70526563 7.077928757,43.72521322 7.065419469,43.73923303 7.056672327,43.74136156 7.051968745,43.74671776 7.055546676,43.75125188 7.074267505,43.76173477 7.073953931,43.76867568 7.087939222,43.77767577 7.088595983,43.78112027 7.102866167,43.7824037 7.110983979,43.77941227 7.112896833,43.76572457 7.135061002,43.74347496 7.136916939,43.7337358 7.137420951,43.72678733 7.145424446,43.72063463 7.141922408,43.70006145 7.143224187,43.69162297"/>
<polygon id="06158 VILLARS-SUR-VAR" points="7.083048687,43.9200551 7.059148033,43.9221361 7.045644138,43.92580044 7.055772778,43.94725032 7.063297025,43.97004034 7.075335196,43.98064033 7.079770202,43.99394756 7.093086798,43.9916472 7.098870026,43.97504668 7.106583448,43.9709089 7.103482012,43.95730034 7.108101759,43.93001014 7.089628809,43.9287122 7.083048687,43.9200551"/>
<polygon id="06159 VILLEFRANCHE-SUR-MER" points="7.308745254,43.69237084 7.301253609,43.7005977 7.302022474,43.70719084 7.315108445,43.72027112 7.323423477,43.72293285 7.34063461,43.72179677 7.348298544,43.71407376 7.342718081,43.71355777 7.326340128,43.71039853 7.326789086,43.7015491 7.320643908,43.7015952 7.315639087,43.70605651 7.312576564,43.70382596 7.308160921,43.69846784 7.308745254,43.69237084"/>
<polygon id="06160 VILLENEUVE-D'ENTRAUNES" points="6.749820536,44.08660586 6.740849241,44.09845523 6.724663981,44.1109639 6.752450179,44.12532446 6.767043752,44.12581475 6.774737727,44.13015442 6.785011707,44.14578534 6.806590585,44.1602306 6.811987606,44.17387526 6.816109137,44.16794663 6.811043825,44.14395489 6.822621704,44.12520491 6.820096017,44.11145206 6.810233736,44.10593853 6.806238402,44.10416717 6.789017419,44.10883731 6.784622354,44.10762866 6.764642658,44.09882011 6.749820536,44.08660586"/>
<polygon id="06161 VILLENEUVE-LOUBET" points="7.130086784,43.61779689 7.118001378,43.62254464 7.110797185,43.63484597 7.098918444,43.64567442 7.0762305,43.64156358 7.052326094,43.6412506 7.051581456,43.64440476 7.054493005,43.64715224 7.072609964,43.64944789 7.086205148,43.67426475 7.095087562,43.67539912 7.106595833,43.66969393 7.120599131,43.67057853 7.133595632,43.65716414 7.132318455,43.65098659 7.145493512,43.64185279 7.130086784,43.61779689"/>
<path id="06162 LA BRIGUE" d="M7.676647179,44.14214156 L7.663197412,44.14440107 L7.654945029,44.15233482 L7.627820534,44.16416821 L7.633196425,44.17356136 L7.640992645,44.1774421 L7.679922703,44.1759669 L7.68291379,44.17000538 L7.671471787,44.15487721 L7.678015388,44.14552741 L7.676647179,44.14214156 Z M7.635919382,44.0005938 L7.609791811,44.01926105 L7.588365881,44.02577007 L7.581901996,44.03068403 L7.580195394,44.03401004 L7.593595475,44.06424448 L7.605952153,44.06984644 L7.625649597,44.09386282 L7.6404142,44.10324548 L7.651117866,44.11493584 L7.674513279,44.1178885 L7.689476944,44.1087281 L7.698646269,44.09612672 L7.713125527,44.086668 L7.716127328,44.08002882 L7.712934478,44.06248539 L7.701635468,44.04302794 L7.663267924,44.0286048 L7.662843183,44.01457641 L7.652649816,44.00449864 L7.635919382,44.0005938 Z"/>
<polygon id="06163 TENDE" points="7.581901996,44.03068403 7.564110181,44.03460158 7.552791193,44.04556708 7.534796005,44.05046171 7.50130223,44.05146678 7.488612844,44.0468409 7.470529426,44.05131368 7.463568128,44.04765864 7.447092102,44.04377757 7.433698029,44.04445666 7.42304664,44.04907061 7.426996528,44.05116437 7.430131025,44.08595939 7.426949388,44.11287945 7.426468359,44.11987624 7.432788376,44.12934746 7.462122489,44.1273899 7.501020718,44.14222372 7.519583943,44.13856541 7.535211853,44.14630381 7.554765852,44.14704317 7.567088028,44.15282309 7.616040983,44.14977052 7.623484658,44.15414497 7.627820534,44.16416821 7.654945029,44.15233482 7.663197412,44.14440107 7.676647179,44.14214156 7.667643723,44.13055193 7.674513279,44.1178885 7.651117866,44.11493584 7.6404142,44.10324548 7.625649597,44.09386282 7.605952153,44.06984644 7.593595475,44.06424448 7.580195394,44.03401004 7.581901996,44.03068403"/>

</g>

</g>

</svg>