<?xml version="1.0" standalone="no"?>
<!DOCTYPE svg PUBLIC "-//W3C//DTD SVG 1.1//EN" 
  "http://www.w3.org/Graphics/SVG/1.1/DTD/svg11.dtd">
<svg width="1000" height="889" viewBox="5.656919589 42.98203306 1.276806647 0.82494286"  preserveAspectRatio="none"
     xmlns="http://www.w3.org/2000/svg" version="1.1">

<style type="text/css" >
<![CDATA[

.communes { 
	fill           : #b9b9b9;
	fill-opacity   : 1;
	stroke         : white;
	stroke-opacity : 1;
	stroke-width   : 0.002;
}

]]>
</style>

<g transform="translate(0,43.80697592) scale(1,-1) translate(0,-42.98203306)">

<g class="communes">

<polygon id="83001 LES ADRETS-DE-L'ESTEREL" points="6.863037794,43.53187514 6.853940885,43.52399261 6.8211086,43.52004721 6.809651732,43.51378475 6.786428493,43.51840847 6.772130172,43.52722973 6.77684169,43.54390082 6.778660144,43.54688205 6.786869991,43.54668583 6.796047035,43.5639212 6.820449323,43.55478645 6.842886917,43.53768956 6.852286255,43.53807674 6.863037794,43.53187514" />
<polygon id="83002 AIGUINES" points="6.313208806,43.67109848 6.304561399,43.67218121 6.298421895,43.68514712 6.288429472,43.6924564 6.269713463,43.69116546 6.263357039,43.70398267 6.247017905,43.71028942 6.243153396,43.73017277 6.220707502,43.73385632 6.223548439,43.74393996 6.214788052,43.784132 6.224189193,43.7998403 6.249629934,43.8015793 6.257112988,43.79760016 6.267786673,43.7785471 6.312809353,43.75880459 6.329213127,43.74622645 6.354509898,43.73651528 6.371453214,43.74262967 6.378913493,43.73937208 6.383540942,43.73443675 6.387910606,43.73292278 6.387946553,43.72597749 6.414437733,43.69287841 6.425078761,43.68567173 6.418193718,43.68385288 6.366211005,43.68372725 6.352238494,43.68184428 6.340903161,43.67579875 6.313208806,43.67109848" />
<polygon id="83003 AMPUS" points="6.400405506,43.55859511 6.390959592,43.57079627 6.357310742,43.58462134 6.352539457,43.58395828 6.314370516,43.62598871 6.316937193,43.63263768 6.312673735,43.63867554 6.326418111,43.65264709 6.326940464,43.6560894 6.325544965,43.65940127 6.313366779,43.66417708 6.313208806,43.67109848 6.340903161,43.67579875 6.352238494,43.68184428 6.366211005,43.68372725 6.418193718,43.68385288 6.412896182,43.67034738 6.399957866,43.66098986 6.406987389,43.64798073 6.416229513,43.59184322 6.423286646,43.58697383 6.422854637,43.5660306 6.421073397,43.56315986 6.400405506,43.55859511" />
<polygon id="83004 LES ARCS" points="6.537083025,43.40461967 6.510312918,43.41162385 6.486884089,43.41128248 6.440834279,43.43419711 6.457280452,43.44137274 6.457245039,43.44838898 6.433865149,43.49690608 6.450681473,43.50192852 6.45024869,43.4953412 6.457746199,43.49145502 6.506842007,43.48275405 6.521949521,43.48003067 6.528669084,43.46700579 6.529094684,43.44977298 6.538066571,43.44210461 6.533289194,43.41806264 6.537083025,43.40461967" />
<polygon id="83005 ARTIGNOSC-SUR-VERDON" points="6.146230822,43.68178586 6.143066156,43.67182753 6.11447787,43.66855287 6.092694509,43.68234902 6.070404595,43.70494386 6.085981441,43.71666012 6.091826084,43.72579665 6.090296416,43.72897394 6.095298454,43.72961526 6.106677907,43.71367577 6.146230822,43.68178586" />
<polygon id="83006 ARTIGUES" points="5.783491231,43.53811362 5.772522356,43.54417428 5.769730524,43.56532135 5.782640949,43.59564673 5.812082066,43.62309603 5.822010767,43.61808475 5.830062816,43.61776725 5.829789381,43.59314093 5.82500357,43.58701721 5.827675802,43.54825187 5.815263397,43.5435059 5.783491231,43.53811362" />
<polygon id="83007 AUPS" points="6.245319241,43.58703625 6.23694344,43.5944814 6.223635003,43.59710158 6.196127909,43.59687911 6.188982407,43.59271278 6.175682807,43.59149069 6.166964801,43.59335718 6.138006967,43.61299085 6.168907146,43.6206665 6.175113123,43.64051265 6.208394888,43.66954112 6.222596665,43.66771622 6.242151644,43.65703052 6.268801412,43.64801017 6.288564868,43.63257255 6.29002052,43.6255311 6.267071381,43.59438955 6.245319241,43.58703625" />
<polygon id="83008 BAGNOLS-EN-FORET" points="6.70626691,43.50834319 6.679960236,43.51358967 6.647206772,43.51620055 6.646600906,43.52575907 6.640317024,43.53422039 6.643896787,43.53581148 6.646029729,43.54463858 6.671468284,43.55362527 6.699540206,43.55087921 6.73215228,43.55209508 6.743723796,43.55785749 6.758568982,43.55077772 6.772292238,43.54872505 6.77684169,43.54390082 6.772130172,43.52722973 6.754663047,43.51530673 6.740125325,43.51443111 6.726145285,43.51718227 6.719823052,43.51186901 6.70626691,43.50834319" />
<polygon id="83009 BANDOL" points="5.770333991,43.13901091 5.750781126,43.13126776 5.748322675,43.13409345 5.725912319,43.13652557 5.728317029,43.15310558 5.738396199,43.15827705 5.740393639,43.16410336 5.744755877,43.16456841 5.764717815,43.15931533 5.766729884,43.15871471 5.764726814,43.15205198 5.770333991,43.13901091" />
<polygon id="83010 BARGEME" points="6.609904584,43.69810416 6.587260201,43.70049278 6.576310425,43.70626689 6.562986309,43.70824442 6.55362188,43.70981179 6.539114605,43.73183948 6.525562104,43.73405385 6.520637316,43.74749024 6.521980574,43.75437356 6.53434684,43.75721551 6.537701667,43.75519693 6.538683585,43.74857146 6.54805367,43.74778904 6.559779806,43.75352241 6.584148937,43.74400324 6.611414759,43.74861481 6.618429556,43.73771643 6.607769871,43.73239538 6.602925559,43.72648463 6.605366993,43.71634209 6.598436462,43.70882495 6.609904584,43.69810416" />
<polygon id="83011 BARGEMON" points="6.542303403,43.60617648 6.521203905,43.60853793 6.50918949,43.61374535 6.495452297,43.6618968 6.50872089,43.65895637 6.526888688,43.66226839 6.544212759,43.65631865 6.572574567,43.6535706 6.575283501,43.65066226 6.572973053,43.64384778 6.587418238,43.63525637 6.592774041,43.61821805 6.584401265,43.60982094 6.555683998,43.61008046 6.542303403,43.60617648" />
<polygon id="83012 BARJOLS" points="6.030317628,43.52496313 6.008044055,43.52022593 5.994036041,43.52184703 5.992084421,43.52499814 5.983083351,43.52703777 5.980687328,43.53737678 5.967658243,43.54749391 5.947826336,43.55710113 5.929849741,43.56121637 5.915489617,43.56027954 5.915371881,43.56064285 5.927671134,43.5641383 5.940171899,43.57806225 5.975964017,43.57089234 5.988161842,43.57588756 6.017012076,43.57341484 6.030317628,43.52496313" />
<polygon id="83013 LA BASTIDE" points="6.654101511,43.74748742 6.640514833,43.73413334 6.620412,43.72604833 6.611350988,43.72615127 6.607769871,43.73239538 6.618429556,43.73771643 6.611414759,43.74861481 6.625313278,43.76537623 6.641849878,43.76818442 6.653631742,43.76270004 6.657423432,43.74871807 6.654101511,43.74748742" />
<polygon id="83014 BAUDINARD-SUR-VERDON" points="6.146230822,43.68178586 6.106677907,43.71367577 6.095298454,43.72961526 6.11086669,43.74575042 6.128625142,43.73679429 6.140605909,43.73761098 6.142466637,43.73123537 6.14979712,43.72768239 6.152839188,43.71437416 6.174804636,43.69739937 6.15899682,43.68579237 6.146230822,43.68178586" />
<polygon id="83015 BAUDUEN" points="6.202782424,43.67500182 6.193463251,43.68432644 6.174804636,43.69739937 6.152839188,43.71437416 6.14979712,43.72768239 6.142466637,43.73123537 6.140605909,43.73761098 6.169112464,43.75176131 6.184158536,43.76561468 6.190262607,43.75607884 6.220707502,43.73385632 6.243153396,43.73017277 6.247017905,43.71028942 6.263357039,43.70398267 6.269713463,43.69116546 6.202782424,43.67500182" />
<polygon id="83016 LE BEAUSSET" points="5.800895568,43.15897558 5.787001585,43.16251273 5.793048566,43.21104888 5.798705597,43.22798572 5.804645899,43.23345707 5.806644973,43.25051589 5.846759221,43.23919548 5.860547029,43.22501435 5.859551523,43.22156634 5.848651624,43.21567994 5.854953403,43.19902378 5.83402341,43.18042217 5.806281621,43.16861893 5.800895568,43.15897558" />
<polygon id="83017 BELGENTIER" points="6.018135973,43.23104738 5.999601106,43.22072609 5.981246394,43.22138772 5.970247489,43.23990111 5.970197569,43.24682474 5.986668104,43.25313968 5.994739255,43.26153089 6.002697602,43.25777216 6.016816052,43.25690155 6.016169724,43.25042923 6.023648671,43.24321658 6.018135973,43.23104738" />
<polygon id="83018 BESSE-SUR-ISSOLE" points="6.148516211,43.30604134 6.137547099,43.30812492 6.13897218,43.31844584 6.134987743,43.33201185 6.139704257,43.34885475 6.138353041,43.35892348 6.147524298,43.36034058 6.166034385,43.37023524 6.175236941,43.37082985 6.232089241,43.34872601 6.23048478,43.33617807 6.227225679,43.32996401 6.214706876,43.32575431 6.211385506,43.31948772 6.202610975,43.32157572 6.164927804,43.31710375 6.157370131,43.30833984 6.148516211,43.30604134" />
<polygon id="83019 BORMES-LES-MIMOSAS" points="6.363909648,43.12575266 6.360393988,43.11622967 6.361712091,43.10571869 6.366558143,43.09968874 6.363991044,43.0895603 6.32610598,43.09246566 6.312936325,43.10679795 6.289259152,43.10849586 6.286309799,43.11129552 6.286517712,43.11452093 6.27181915,43.12099076 6.285582294,43.13935955 6.292063506,43.18084325 6.320106973,43.18525011 6.323641936,43.18767102 6.324534431,43.19825791 6.346713161,43.20490054 6.364737914,43.21662921 6.388126802,43.21956168 6.398027521,43.22713737 6.434986142,43.22024997 6.444529276,43.22110722 6.451134522,43.20762478 6.416668761,43.19781872 6.417254438,43.1873383 6.404010582,43.17285689 6.400852815,43.17020159 6.396726022,43.16842304 6.373505215,43.1644436 6.350952978,43.13397964 6.351081065,43.13046466 6.363909648,43.12575266" />
<polygon id="83020 LE BOURGUET" points="6.492632352,43.75158101 6.477058898,43.76398722 6.474814952,43.77696642 6.462608088,43.78087709 6.456834549,43.79313038 6.469969496,43.79749577 6.487235942,43.79228753 6.520384057,43.80697592 6.538437762,43.79541953 6.541279808,43.79251674 6.544901334,43.7823372 6.541533368,43.77573598 6.51823728,43.76543875 6.513904255,43.75621085 6.509005106,43.75150485 6.492632352,43.75158101" />
<polygon id="83021 BRAS" points="5.988014648,43.43132286 5.96365235,43.44160742 5.914326009,43.45080522 5.922405044,43.47044801 5.920842946,43.47717035 5.925415616,43.49049762 5.947553046,43.49681244 5.955599615,43.50922505 5.963588692,43.51302253 5.977717437,43.49920236 5.982205818,43.48940936 5.996593334,43.48074748 5.992715919,43.47086993 5.997566737,43.46930434 5.988281045,43.44548631 5.988014648,43.43132286" />
<polygon id="83022 BRENON" points="6.521980574,43.75437356 6.513904255,43.75621085 6.51823728,43.76543875 6.541533368,43.77573598 6.546085988,43.77557883 6.554070504,43.78343459 6.55887169,43.77667506 6.546591968,43.75607866 6.537701667,43.75519693 6.53434684,43.75721551 6.521980574,43.75437356" />
<polygon id="83023 BRIGNOLES" points="6.061592253,43.34287477 6.056575257,43.36269675 6.053246035,43.36506849 6.034511857,43.36525353 6.019429152,43.36988883 6.018335241,43.37326838 6.043290139,43.38799126 6.044842018,43.39795894 6.031975194,43.40167825 5.994591919,43.40057625 5.981795058,43.40499879 5.988438706,43.41404351 5.988043635,43.43069185 6.030876591,43.42372151 6.107921643,43.43292692 6.114015133,43.4277279 6.135976987,43.42133179 6.141921189,43.41618048 6.175152847,43.41786705 6.167567665,43.41492894 6.166417372,43.4088401 6.168999876,43.40236294 6.157242197,43.38499666 6.143810496,43.38294781 6.077339827,43.38897302 6.073846534,43.37164242 6.090532553,43.36521604 6.093581569,43.35857471 6.102292615,43.3555973 6.101378452,43.35213936 6.069270248,43.34691542 6.061592253,43.34287477" />
<polygon id="83025 BRUE-AURIAC" points="5.925415616,43.49049762 5.914118542,43.49401599 5.898731941,43.52583143 5.896984115,43.53901389 5.915489617,43.56027954 5.929849741,43.56121637 5.947826336,43.55710113 5.967658243,43.54749391 5.980687328,43.53737678 5.983083351,43.52703777 5.979882691,43.51471886 5.971365865,43.51605097 5.963588692,43.51302253 5.955599615,43.50922505 5.947553046,43.49681244 5.925415616,43.49049762" />
<polygon id="83026 CABASSE" points="6.256124902,43.39503184 6.248754207,43.39898099 6.21999923,43.39860678 6.199866427,43.40782949 6.175843454,43.41046375 6.166417372,43.4088401 6.167567665,43.41492894 6.175152847,43.41786705 6.18437277,43.43760282 6.191314527,43.44245872 6.195872624,43.44353986 6.199757701,43.44984505 6.234989214,43.45988284 6.256874885,43.45802954 6.274084017,43.44179811 6.295290627,43.43448266 6.288870896,43.42960836 6.280235914,43.42897886 6.280195651,43.41549169 6.270127752,43.40395584 6.256124902,43.39503184" />
<polygon id="83027 LA CADIERE-D'AZUR" points="5.738396199,43.15827705 5.730595589,43.16100391 5.728816158,43.20142381 5.714968225,43.20074712 5.694527396,43.19217837 5.675955986,43.19064263 5.678383424,43.21672784 5.682416265,43.23545637 5.704507723,43.24165557 5.734142298,43.23024345 5.755506689,43.21597428 5.772636964,43.17164932 5.764717815,43.15931533 5.744755877,43.16456841 5.740393639,43.16410336 5.738396199,43.15827705" />
<polygon id="83028 CALLAS" points="6.580937853,43.52916305 6.579052489,43.53227847 6.565292661,43.53416368 6.55804442,43.53825643 6.54425511,43.5368886 6.540933504,43.56071086 6.511881543,43.5834234 6.503099064,43.58588672 6.50014101,43.5918273 6.513327907,43.59024853 6.516676351,43.59251784 6.521203905,43.60853793 6.542303403,43.60617648 6.54676872,43.59660969 6.562096834,43.58800181 6.595928004,43.58785918 6.612129096,43.58007971 6.619437327,43.56041736 6.632654875,43.56182207 6.646029729,43.54463858 6.643896787,43.53581148 6.640317024,43.53422039 6.627758652,43.53903647 6.599417149,43.54117853 6.589400218,43.52988302 6.580937853,43.52916305" />
<polygon id="83029 CALLIAN" points="6.772292238,43.54872505 6.758568982,43.55077772 6.743723796,43.55785749 6.742542886,43.61001651 6.737476358,43.62338748 6.744364332,43.65081379 6.752553943,43.66334088 6.761134474,43.6658909 6.766017141,43.66050604 6.775052497,43.65959803 6.789749343,43.643367 6.787350261,43.64028876 6.769463465,43.63537982 6.761224336,43.62663032 6.75849623,43.61623046 6.771031195,43.58249371 6.760417091,43.57142216 6.772292238,43.54872505" />
<polygon id="83030 CAMPS-LA-SOURCE" points="6.101378452,43.35213936 6.102292615,43.3555973 6.093581569,43.35857471 6.090532553,43.36521604 6.073846534,43.37164242 6.077339827,43.38897302 6.143810496,43.38294781 6.157242197,43.38499666 6.178017027,43.37960763 6.175236941,43.37082985 6.166034385,43.37023524 6.147524298,43.36034058 6.138353041,43.35892348 6.1103113,43.35283715 6.101378452,43.35213936" />
<polygon id="83031 LE CANNET-DES-MAURES" points="6.402863873,43.29913212 6.366130958,43.3466894 6.331746729,43.38082643 6.31955725,43.41134743 6.303357964,43.42456613 6.334389825,43.4400933 6.352963843,43.43946581 6.364211884,43.43317384 6.366819768,43.42917572 6.374399092,43.4301104 6.382950208,43.42214449 6.379923757,43.41184758 6.384814083,43.40175363 6.413875498,43.37327753 6.415806943,43.35985381 6.427818118,43.35410709 6.4295517,43.34737078 6.425196534,43.33057154 6.435414408,43.31513802 6.436190495,43.30478546 6.434493144,43.30154389 6.420299133,43.30230928 6.402863873,43.29913212" />
<polygon id="83032 CARCES" points="6.191314527,43.44245872 6.184358488,43.44694034 6.14227219,43.44431578 6.135095083,43.44844039 6.126181034,43.44609594 6.115452324,43.46407035 6.115935309,43.46591124 6.148036667,43.46790062 6.153271897,43.48445987 6.14860913,43.49031302 6.157757616,43.49002889 6.177542122,43.49824788 6.186248393,43.49844257 6.19628355,43.50517959 6.214156964,43.49430509 6.20977846,43.48810474 6.211334997,43.47125657 6.234989214,43.45988284 6.199757701,43.44984505 6.195872624,43.44353986 6.191314527,43.44245872" />
<polygon id="83033 CARNOULES" points="6.247222818,43.26440673 6.223515335,43.26343346 6.201518488,43.28127432 6.163830708,43.28477046 6.152561372,43.29593025 6.148516211,43.30604134 6.157370131,43.30833984 6.164927804,43.31710375 6.202610975,43.32157572 6.211385506,43.31948772 6.210550677,43.30981607 6.217186504,43.3050091 6.228311339,43.28639191 6.241942055,43.27741274 6.247222818,43.26440673" />
<polygon id="83034 CARQUEIRANNE" points="6.032563262,43.0775857 6.044212373,43.08732881 6.049602953,43.0966362 6.045923263,43.11002571 6.054023769,43.11592607 6.080249909,43.11443229 6.106207685,43.09675566 6.108784848,43.08391771 6.081509919,43.08735703 6.051101563,43.07917712 6.032563262,43.0775857" />
<polygon id="83035 LE CASTELLET" points="5.766729884,43.15871471 5.764717815,43.15931533 5.772636964,43.17164932 5.755506689,43.21597428 5.734142298,43.23024345 5.704507723,43.24165557 5.701219547,43.24715621 5.738250936,43.26210077 5.760929376,43.26734699 5.765479969,43.26849071 5.806644973,43.25051589 5.804645899,43.23345707 5.798705597,43.22798572 5.793048566,43.21104888 5.787001585,43.16251273 5.766729884,43.15871471" />
<polygon id="83036 CAVALAIRE-SUR-MER" points="6.552277362,43.187423 6.537323795,43.17893768 6.535730708,43.16597948 6.52182764,43.16410263 6.49405554,43.15089795 6.490165881,43.15286967 6.499347233,43.18141935 6.500899708,43.18795065 6.524403312,43.20793007 6.53039179,43.20803139 6.538885522,43.20703276 6.545038717,43.20240073 6.552277362,43.187423" />
<polygon id="83037 LA CELLE" points="6.019429152,43.36988883 5.996134389,43.36949217 5.980614994,43.36243075 5.962342458,43.36340981 5.956677068,43.37178403 5.981795058,43.40499879 5.994591919,43.40057625 6.031975194,43.40167825 6.044842018,43.39795894 6.043290139,43.38799126 6.018335241,43.37326838 6.019429152,43.36988883" />
<polygon id="83038 CHATEAUDOUBLE" points="6.422854637,43.5660306 6.423286646,43.58697383 6.416229513,43.59184322 6.406987389,43.64798073 6.399957866,43.66098986 6.412896182,43.67034738 6.418193718,43.68385288 6.425078761,43.68567173 6.437115472,43.67653746 6.445201535,43.67769558 6.445941446,43.6776181 6.433873625,43.65516827 6.445716437,43.64025696 6.461808664,43.62785687 6.464443522,43.61770367 6.483893203,43.6027973 6.487317281,43.59653601 6.452067886,43.58737734 6.442819286,43.57943947 6.441885777,43.57255243 6.428734985,43.5707532 6.422854637,43.5660306" />
<polygon id="83039 CHATEAUVERT" points="5.992715919,43.47086993 5.996593334,43.48074748 5.982205818,43.48940936 5.977717437,43.49920236 5.963588692,43.51302253 5.971365865,43.51605097 5.979882691,43.51471886 5.983083351,43.52703777 5.992084421,43.52499814 5.994036041,43.52184703 6.008044055,43.52022593 6.030317628,43.52496313 6.050576799,43.5201274 6.054606084,43.51516091 6.042969515,43.50055085 6.042057272,43.49033028 6.031482288,43.47904798 6.020105323,43.47312621 5.992715919,43.47086993" />
<polygon id="83040 CHATEAUVIEUX" points="6.63780217,43.78095829 6.619324027,43.78249277 6.600764477,43.7803785 6.591434768,43.77277753 6.577652636,43.77006041 6.568942966,43.77271529 6.568198095,43.77611766 6.55887169,43.77667506 6.554070504,43.78343459 6.581176864,43.79814861 6.586912484,43.80531955 6.62351332,43.80445076 6.627953995,43.79171835 6.6363958,43.78895057 6.63780217,43.78095829" />
<polygon id="83041 CLAVIERS" points="6.612129096,43.58007971 6.595928004,43.58785918 6.562096834,43.58800181 6.54676872,43.59660969 6.542303403,43.60617648 6.555683998,43.61008046 6.584401265,43.60982094 6.592774041,43.61821805 6.597631217,43.61817436 6.603641827,43.60867077 6.621383521,43.60342388 6.626154306,43.59732896 6.612129096,43.58007971" />
<polygon id="83042 COGOLIN" points="6.524403312,43.20793007 6.510409706,43.23002292 6.473500783,43.25714866 6.470626811,43.26732566 6.4877969,43.27272425 6.502006528,43.27173313 6.533384755,43.25632195 6.54717512,43.25419491 6.560550153,43.2575275 6.568189676,43.26630689 6.586693948,43.26922367 6.584915946,43.26678841 6.594154714,43.26219503 6.580210613,43.2630455 6.572098728,43.26038767 6.566000936,43.25522253 6.555756193,43.23272529 6.537983047,43.22243235 6.53039179,43.20803139 6.524403312,43.20793007" />
<polygon id="83043 COLLOBRIERES" points="6.324534431,43.19825791 6.307819303,43.20463264 6.289223476,43.20074485 6.251489472,43.20373433 6.24082604,43.21524543 6.239881164,43.23634916 6.24699665,43.24529125 6.248020144,43.25559583 6.247222818,43.26440673 6.280611798,43.26359561 6.315354268,43.27283438 6.329988664,43.28322438 6.33689216,43.27878866 6.354988514,43.2810102 6.367988174,43.27781449 6.383086793,43.29025408 6.387668104,43.28976836 6.388550245,43.27583878 6.393904887,43.2700883 6.398716477,43.26977491 6.405601037,43.2659655 6.418299376,43.2700482 6.445950231,43.26985371 6.451131514,43.24648503 6.448447942,43.23641447 6.442603121,43.23112678 6.444529276,43.22110722 6.434986142,43.22024997 6.398027521,43.22713737 6.388126802,43.21956168 6.364737914,43.21662921 6.346713161,43.20490054 6.324534431,43.19825791" />
<polygon id="83044 COMPS-SUR-ARTUBY" points="6.526888688,43.66226839 6.50872089,43.65895637 6.495452297,43.6618968 6.495823358,43.66533449 6.484713223,43.67156367 6.47633928,43.66852627 6.445941446,43.6776181 6.445201535,43.67769558 6.447855812,43.71209848 6.480308628,43.73671741 6.492632352,43.75158101 6.509005106,43.75150485 6.513904255,43.75621085 6.521980574,43.75437356 6.520637316,43.74749024 6.525562104,43.73405385 6.539114605,43.73183948 6.55362188,43.70981179 6.562986309,43.70824442 6.565967834,43.69830158 6.563722105,43.68815182 6.548422424,43.68022137 6.526476429,43.67592743 6.526888688,43.66226839" />
<polygon id="83045 CORRENS" points="6.115452324,43.46407035 6.103045159,43.46001456 6.080306521,43.46309439 6.067689543,43.46779206 6.058857164,43.46024469 6.040240349,43.45762649 6.012828199,43.46236269 5.997566737,43.46930434 5.992715919,43.47086993 6.020105323,43.47312621 6.031482288,43.47904798 6.042057272,43.49033028 6.042969515,43.50055085 6.054606084,43.51516091 6.08669282,43.52079827 6.10033691,43.517978 6.104686885,43.51788056 6.110929613,43.50635654 6.106818706,43.50468261 6.11206557,43.49535706 6.09758293,43.47402759 6.099604009,43.47092653 6.115935309,43.46591124 6.115452324,43.46407035" />
<polygon id="83046 COTIGNAC" points="6.19628355,43.50517959 6.186248393,43.49844257 6.177542122,43.49824788 6.157757616,43.49002889 6.14860913,43.49031302 6.126645895,43.4950996 6.111839737,43.50306196 6.110929613,43.50635654 6.104686885,43.51788056 6.10033691,43.517978 6.091387921,43.53722307 6.109711898,43.54784663 6.120467666,43.5591985 6.143528541,43.55591264 6.187199927,43.53610723 6.192707141,43.52630139 6.19628355,43.50517959" />
<polygon id="83047 LA CRAU" points="6.080249909,43.11443229 6.054023769,43.11592607 6.04492372,43.12300645 6.043346832,43.14930742 6.060495784,43.15091918 6.073779156,43.15888555 6.08416136,43.16588028 6.092082091,43.17830974 6.096385324,43.1881422 6.093893796,43.19812469 6.10400869,43.2052337 6.105471677,43.2191627 6.11391082,43.22751653 6.131284418,43.22280984 6.13777775,43.21794009 6.140919625,43.21166419 6.134728343,43.20689308 6.126426104,43.1942521 6.114540321,43.18831262 6.110305743,43.18209753 6.110595999,43.16807342 6.125735284,43.15489816 6.118141926,43.14610746 6.117140712,43.13916923 6.085035713,43.13412513 6.080249909,43.11443229" />
<polygon id="83048 LA CROIX-VALMER" points="6.646589536,43.16780592 6.63385535,43.17148646 6.620863112,43.16146076 6.613162078,43.16517675 6.601775245,43.18042362 6.594374717,43.18467742 6.561641849,43.18882488 6.552277362,43.187423 6.545038717,43.20240073 6.538885522,43.20703276 6.53039179,43.20803139 6.537983047,43.22243235 6.558799657,43.21398615 6.572970198,43.21280644 6.600742057,43.21673646 6.603882655,43.20295391 6.610915974,43.19378637 6.623753269,43.18949292 6.629074143,43.17977839 6.646589536,43.16780592" />
<polygon id="83049 CUERS" points="6.093893796,43.19812469 6.076016029,43.20205662 6.066963168,43.20119814 6.059822803,43.2055417 6.056168447,43.21531317 6.034908162,43.22013502 6.018135973,43.23104738 6.023648671,43.24321658 6.016169724,43.25042923 6.016816052,43.25690155 6.028581484,43.26282859 6.040675293,43.26862818 6.05476868,43.28282309 6.067696651,43.28702994 6.078730018,43.28364626 6.083591845,43.27893438 6.081672885,43.27576629 6.08912529,43.26308518 6.092686131,43.26080471 6.101980043,43.26206853 6.114453868,43.25195095 6.11391082,43.22751653 6.105471677,43.2191627 6.10400869,43.2052337 6.093893796,43.19812469" />
<polygon id="83050 DRAGUIGNAN" points="6.430542173,43.4963629 6.407302627,43.50769524 6.404319264,43.51038252 6.409409049,43.53046702 6.404567548,43.54379432 6.398002499,43.54875513 6.400405506,43.55859511 6.421073397,43.56315986 6.422854637,43.5660306 6.428734985,43.5707532 6.441885777,43.57255243 6.464970013,43.56836857 6.484960981,43.55898347 6.493761785,43.55077503 6.533509757,43.53287115 6.525469542,43.51986674 6.491973593,43.5199599 6.469699644,43.51283083 6.450681473,43.50192852 6.433865149,43.49690608 6.430542173,43.4963629" />
<polygon id="83051 ENTRECASTEAUX" points="6.268906783,43.47898085 6.25187131,43.48298711 6.244847187,43.47860535 6.240288003,43.47932705 6.236387067,43.48119948 6.234722049,43.48786746 6.225464955,43.48841346 6.214156964,43.49430509 6.19628355,43.50517959 6.192707141,43.52630139 6.187199927,43.53610723 6.201358346,43.53852678 6.273001618,43.53285891 6.272423968,43.51230018 6.26226055,43.50044103 6.26501894,43.49412675 6.275753986,43.48716642 6.275839101,43.48367004 6.268906783,43.47898085" />
<polygon id="83052 ESPARRON" points="5.840382748,43.54289626 5.827675802,43.54825187 5.82500357,43.58701721 5.829789381,43.59314093 5.830062816,43.61776725 5.848121756,43.63279059 5.856894881,43.63147985 5.870445298,43.62334351 5.872946737,43.61414763 5.871920674,43.60726895 5.878194203,43.60215989 5.87735419,43.59875177 5.86566598,43.5929384 5.86872332,43.56217396 5.86025629,43.55400636 5.858074254,43.54374616 5.840382748,43.54289626" />
<polygon id="83053 EVENOS" points="5.882196146,43.16039706 5.851622046,43.15373961 5.816108906,43.15832728 5.800895568,43.15897558 5.806281621,43.16861893 5.83402341,43.18042217 5.854953403,43.19902378 5.848651624,43.21567994 5.859551523,43.22156634 5.868461464,43.213373 5.892462059,43.21294837 5.915670595,43.21731043 5.939589369,43.21596844 5.933302188,43.20268268 5.920717165,43.19202478 5.901127617,43.18188729 5.902225961,43.17143475 5.893524454,43.16417095 5.882196146,43.16039706" />
<polygon id="83054 LA FARLEDE" points="6.043346832,43.14930742 6.025595209,43.15471281 6.009298566,43.16096573 6.030284637,43.16747095 6.0329606,43.17745026 6.037643107,43.17738148 6.057837031,43.16897945 6.064527819,43.16018409 6.073665947,43.15906881 6.073779156,43.15888555 6.060495784,43.15091918 6.043346832,43.14930742" />
<polygon id="83055 FAYENCE" points="6.714976152,43.57659921 6.701179658,43.57841268 6.69134667,43.58580032 6.678213524,43.58988509 6.671446644,43.58503404 6.664381542,43.57200517 6.641849073,43.5665668 6.639069321,43.56941619 6.638652462,43.58315692 6.651370308,43.5869362 6.663609492,43.60181821 6.664768878,43.63993471 6.665731664,43.64335214 6.677048103,43.64941026 6.678031515,43.65603369 6.696528955,43.65640596 6.701737159,43.65079695 6.697279542,43.6049825 6.698782681,43.59792345 6.710495904,43.58663367 6.714976152,43.57659921" />
<polygon id="83056 FIGANIERES" points="6.54425511,43.5368886 6.537944273,43.53211416 6.533509757,43.53287115 6.493761785,43.55077503 6.484960981,43.55898347 6.464970013,43.56836857 6.441885777,43.57255243 6.442819286,43.57943947 6.452067886,43.58737734 6.487317281,43.59653601 6.50014101,43.5918273 6.503099064,43.58588672 6.511881543,43.5834234 6.540933504,43.56071086 6.54425511,43.5368886" />
<polygon id="83057 FLASSANS-SUR-ISSOLE" points="6.248849135,43.33373705 6.23048478,43.33617807 6.232089241,43.34872601 6.175236941,43.37082985 6.178017027,43.37960763 6.157242197,43.38499666 6.168999876,43.40236294 6.166417372,43.4088401 6.175843454,43.41046375 6.199866427,43.40782949 6.21999923,43.39860678 6.248754207,43.39898099 6.256124902,43.39503184 6.260695946,43.39594768 6.266714094,43.38689726 6.268228719,43.36987015 6.275389392,43.35732731 6.248849135,43.33373705" />
<polygon id="83058 FLAYOSC" points="6.407302627,43.50769524 6.405212143,43.504573 6.3913076,43.50669284 6.371704656,43.51650765 6.363628339,43.51298526 6.32615208,43.5173021 6.305748102,43.53644945 6.312848195,43.54537312 6.32102574,43.54869819 6.325860762,43.56205811 6.339157256,43.56561219 6.352539457,43.58395828 6.357310742,43.58462134 6.390959592,43.57079627 6.400405506,43.55859511 6.398002499,43.54875513 6.404567548,43.54379432 6.409409049,43.53046702 6.404319264,43.51038252 6.407302627,43.50769524" />
<polygon id="83059 FORCALQUEIRET" points="6.107747383,43.31904201 6.098353205,43.31860948 6.077206156,43.32482222 6.070456457,43.33353067 6.061592253,43.34287477 6.069270248,43.34691542 6.101378452,43.35213936 6.1103113,43.35283715 6.110768755,43.32544612 6.107747383,43.31904201" />
<polygon id="83060 FOX-AMPHOUX" points="6.117152529,43.56358888 6.10821814,43.56209826 6.094655107,43.56477295 6.065616878,43.58678408 6.064494927,43.60056544 6.057152639,43.61693535 6.098832875,43.62609174 6.117397116,43.62439903 6.12487969,43.62113143 6.138006967,43.61299085 6.166964801,43.59335718 6.175682807,43.59149069 6.163379921,43.58766259 6.156247879,43.5793967 6.142565368,43.57766855 6.117152529,43.56358888" />
<polygon id="83061 FREJUS" points="6.714531588,43.36808033 6.705868344,43.38403913 6.705418777,43.41483792 6.68588564,43.42890622 6.693988162,43.44134715 6.707865631,43.44263814 6.713899083,43.44782635 6.704977885,43.47109888 6.70626691,43.50834319 6.719823052,43.51186901 6.726145285,43.51718227 6.740125325,43.51443111 6.754663047,43.51530673 6.772130172,43.52722973 6.786428493,43.51840847 6.809651732,43.51378475 6.8211086,43.52004721 6.853940885,43.52399261 6.863037794,43.53187514 6.879135249,43.53245355 6.894530741,43.52541588 6.895210501,43.52193235 6.884230099,43.50253573 6.87567092,43.50516615 6.856654688,43.50302496 6.844526879,43.50856317 6.835397444,43.50676976 6.817006644,43.49055682 6.812775175,43.47713162 6.771671532,43.44789227 6.763676334,43.42452753 6.746773996,43.41868311 6.735327795,43.40776652 6.729116115,43.3948404 6.730765709,43.38828096 6.714531588,43.36808033" />
<polygon id="83062 LA GARDE" points="5.993279068,43.10499385 5.979060326,43.10654012 5.984096208,43.12343016 6.016636801,43.13831178 6.025595209,43.15471281 6.043346832,43.14930742 6.04492372,43.12300645 6.054023769,43.11592607 6.045923263,43.11002571 6.025527861,43.11820626 5.993279068,43.10499385" />
<polygon id="83063 LA GARDE-FREINET" points="6.398716477,43.26977491 6.393904887,43.2700883 6.388550245,43.27583878 6.387668104,43.28976836 6.402863873,43.29913212 6.420299133,43.30230928 6.434493144,43.30154389 6.436190495,43.30478546 6.435414408,43.31513802 6.425196534,43.33057154 6.4295517,43.34737078 6.427818118,43.35410709 6.44536796,43.36013176 6.476034075,43.37747536 6.504716948,43.37958463 6.521072384,43.37267791 6.516664891,43.3712544 6.521620726,43.36166486 6.520234416,43.34767121 6.504565919,43.3402019 6.500916449,43.33415187 6.505024961,43.3278775 6.522364894,43.321983 6.53171193,43.30988171 6.524960254,43.30533869 6.498751634,43.28998244 6.452969075,43.2786246 6.405127511,43.27505629 6.398716477,43.26977491" />
<polygon id="83064 GAREOULT" points="6.050563196,43.31932058 6.045933604,43.31431072 6.025497191,43.31698225 6.021866308,43.31921739 6.020924298,43.33299943 6.015393719,43.34231835 6.034511857,43.36525353 6.053246035,43.36506849 6.056575257,43.36269675 6.061592253,43.34287477 6.070456457,43.33353067 6.057575339,43.32854815 6.050563196,43.31932058" />
<polygon id="83065 GASSIN" points="6.600742057,43.21673646 6.572970198,43.21280644 6.558799657,43.21398615 6.537983047,43.22243235 6.555756193,43.23272529 6.566000936,43.25522253 6.572098728,43.26038767 6.580210613,43.2630455 6.594154714,43.26219503 6.623615807,43.26534353 6.636373327,43.25485613 6.612279969,43.24351761 6.600742057,43.21673646" />
<polygon id="83066 GINASSERVIS" points="5.830062816,43.61776725 5.822010767,43.61808475 5.812082066,43.62309603 5.805675889,43.63882872 5.807598169,43.65200538 5.799205967,43.65992892 5.804581654,43.68057102 5.8132484,43.68905392 5.827604373,43.68854661 5.849480612,43.69604334 5.867547694,43.68560101 5.87551562,43.67724193 5.879970732,43.66073667 5.874601741,43.6516137 5.857092786,43.63520219 5.848121756,43.63279059 5.830062816,43.61776725" />
<polygon id="83067 GONFARON" points="6.315354268,43.27283438 6.294762727,43.28055916 6.26907734,43.317218 6.260443606,43.3195766 6.255843487,43.32916893 6.248849135,43.33373705 6.275389392,43.35732731 6.292410556,43.35115606 6.325634406,43.349176 6.34214828,43.33672754 6.346604635,43.33805734 6.346830957,43.32751568 6.325654292,43.3087121 6.321781799,43.2952177 6.323665339,43.28833506 6.329988664,43.28322438 6.315354268,43.27283438" />
<polygon id="83068 GRIMAUD" points="6.586693948,43.26922367 6.568189676,43.26630689 6.560550153,43.2575275 6.54717512,43.25419491 6.533384755,43.25632195 6.502006528,43.27173313 6.4877969,43.27272425 6.470626811,43.26732566 6.463443661,43.27102287 6.445950231,43.26985371 6.418299376,43.2700482 6.405601037,43.2659655 6.398716477,43.26977491 6.405127511,43.27505629 6.452969075,43.2786246 6.498751634,43.28998244 6.524960254,43.30533869 6.557361399,43.29910802 6.571188278,43.30199267 6.582007731,43.30804604 6.595661651,43.31007793 6.620730175,43.29592223 6.585357216,43.27923633 6.586693948,43.26922367" />
<path id="83069 HYERES" d="M6.116721718,43.03475926 L6.099997688,43.02856398 L6.093451689,43.03715899 L6.101109147,43.04106987 L6.124505318,43.0414371 L6.131826156,43.05018914 L6.125365362,43.07759598 L6.108784848,43.08391771 L6.106207685,43.09675566 L6.080249909,43.11443229 L6.085035713,43.13412513 L6.117140712,43.13916923 L6.118141926,43.14610746 L6.125735284,43.15489816 L6.110595999,43.16807342 L6.110305743,43.18209753 L6.114540321,43.18831262 L6.126426104,43.1942521 L6.134728343,43.20689308 L6.163157292,43.20264248 L6.159809278,43.19633106 L6.182936865,43.18441637 L6.201447383,43.16392869 L6.202084365,43.14325015 L6.195774925,43.13385943 L6.196397966,43.12690055 L6.219745633,43.12419796 L6.224140339,43.12278826 L6.232651883,43.11962559 L6.234334092,43.11301272 L6.201047339,43.11542929 L6.180414702,43.10645371 L6.164473615,43.09330404 L6.154800316,43.07718752 L6.149595573,43.05285688 L6.152820853,43.03906295 L6.164691606,43.03353888 L6.163393772,43.03089478 L6.14984372,43.02742201 L6.14509891,43.02792988 L6.133857682,43.03444149 L6.120454581,43.03253588 L6.116721718,43.03475926 Z M6.472761404,43.02003708 L6.470664805,43.01698997 L6.462115951,43.01435781 L6.45107879,43.01668406 L6.445035489,43.009136 L6.437650771,43.00499735 L6.433113266,43.00873413 L6.434805393,43.01554866 L6.433852615,43.01892787 L6.439714136,43.02445693 L6.458013764,43.02845229 L6.462146554,43.03661952 L6.463223218,43.03820529 L6.468608772,43.04410844 L6.47050357,43.04520866 L6.474595185,43.04712017 L6.476919572,43.04760324 L6.486519011,43.04842693 L6.502589269,43.0523163 L6.504976182,43.05260769 L6.507177977,43.05186975 L6.508841388,43.04852952 L6.509610952,43.04684792 L6.508484945,43.04528217 L6.502136501,43.04280621 L6.490070911,43.04219001 L6.486049383,43.0402228 L6.479925453,43.03063538 L6.473687382,43.02524654 L6.472761404,43.02003708 Z M6.198263218,42.98203306 L6.196415402,42.98320411 L6.195279595,42.98839528 L6.19160933,42.99076349 L6.165157981,42.99875504 L6.163333399,42.99947478 L6.164316441,43.00085897 L6.1712938,43.0055588 L6.173216444,43.00662718 L6.180255081,43.00794938 L6.199793874,43.00153719 L6.209401897,43.00252897 L6.214905472,43.00579391 L6.218740283,43.01212391 L6.230485161,43.01048459 L6.234423461,43.01248146 L6.239868173,43.02429813 L6.242089007,43.02496031 L6.244070724,43.0200399 L6.247720741,43.01775145 L6.251652649,43.00410389 L6.249463407,42.99918347 L6.247704446,42.99799447 L6.238313172,42.99715262 L6.228221732,42.99298263 L6.214866478,42.98984549 L6.207667678,42.98294992 L6.198263218,42.98203306 Z M6.397097506,42.99280158 L6.387297685,42.9978007 L6.372873581,42.99692194 L6.370849087,43.00154027 L6.381625422,43.00840327 L6.382862924,43.01174002 L6.384885685,43.01255854 L6.392091686,43.01306963 L6.407758905,43.01790344 L6.41000839,43.01756208 L6.411791753,43.01638927 L6.412814995,43.01127069 L6.419012313,43.01173097 L6.418276774,43.00862167 L6.405284012,42.99584622 L6.397097506,42.99280158 Z" />
<polygon id="83070 LE LAVANDOU" points="6.363909648,43.12575266 6.351081065,43.13046466 6.350952978,43.13397964 6.373505215,43.1644436 6.396726022,43.16842304 6.400852815,43.17020159 6.404010582,43.17285689 6.417254438,43.1873383 6.416668761,43.19781872 6.451134522,43.20762478 6.45409593,43.19458286 6.444514597,43.18352694 6.452323159,43.17193296 6.448244951,43.15266144 6.440647361,43.14484644 6.42931807,43.15055537 6.387807666,43.14408067 6.37731313,43.13722586 6.368111582,43.13564131 6.363909648,43.12575266" />
<polygon id="83071 LA LONDE-LES-MAURES" points="6.234334092,43.11301272 6.232651883,43.11962559 6.224140339,43.12278826 6.219745633,43.12419796 6.196397966,43.12690055 6.195774925,43.13385943 6.202084365,43.14325015 6.201447383,43.16392869 6.182936865,43.18441637 6.159809278,43.19633106 6.163157292,43.20264248 6.205554235,43.20491996 6.24082604,43.21524543 6.251489472,43.20373433 6.289223476,43.20074485 6.307819303,43.20463264 6.324534431,43.19825791 6.323641936,43.18767102 6.320106973,43.18525011 6.292063506,43.18084325 6.285582294,43.13935955 6.27181915,43.12099076 6.234334092,43.11301272" />
<polygon id="83072 LORGUES" points="6.374399092,43.4301104 6.366819768,43.42917572 6.364211884,43.43317384 6.370606438,43.43834184 6.36930561,43.44166007 6.359905816,43.44279854 6.331587843,43.45550549 6.325129599,43.46395225 6.311246169,43.46308978 6.29058432,43.48115228 6.290166978,43.49049385 6.303394739,43.49963666 6.309737921,43.51225724 6.32615208,43.5173021 6.363628339,43.51298526 6.371704656,43.51650765 6.3913076,43.50669284 6.405212143,43.504573 6.407302627,43.50769524 6.430542173,43.4963629 6.415424847,43.47574977 6.398125782,43.46007538 6.390069177,43.44148036 6.374399092,43.4301104" />
<polygon id="83073 LE LUC" points="6.346604635,43.33805734 6.34214828,43.33672754 6.325634406,43.349176 6.292410556,43.35115606 6.275389392,43.35732731 6.268228719,43.36987015 6.266714094,43.38689726 6.260695946,43.39594768 6.256124902,43.39503184 6.270127752,43.40395584 6.280195651,43.41549169 6.280235914,43.42897886 6.288870896,43.42960836 6.295290627,43.43448266 6.297200107,43.42576231 6.299632789,43.42337408 6.303357964,43.42456613 6.31955725,43.41134743 6.331746729,43.38082643 6.366130958,43.3466894 6.360066352,43.34128647 6.346604635,43.33805734" />
<polygon id="83074 LA MARTRE" points="6.611414759,43.74861481 6.584148937,43.74400324 6.559779806,43.75352241 6.54805367,43.74778904 6.538683585,43.74857146 6.537701667,43.75519693 6.546591968,43.75607866 6.55887169,43.77667506 6.568198095,43.77611766 6.568942966,43.77271529 6.577652636,43.77006041 6.591434768,43.77277753 6.600764477,43.7803785 6.619324027,43.78249277 6.63780217,43.78095829 6.645036343,43.77722119 6.641849878,43.76818442 6.625313278,43.76537623 6.611414759,43.74861481" />
<polygon id="83075 LES MAYONS" points="6.387668104,43.28976836 6.383086793,43.29025408 6.367988174,43.27781449 6.354988514,43.2810102 6.33689216,43.27878866 6.329988664,43.28322438 6.323665339,43.28833506 6.321781799,43.2952177 6.325654292,43.3087121 6.346830957,43.32751568 6.346604635,43.33805734 6.360066352,43.34128647 6.366130958,43.3466894 6.402863873,43.29913212 6.387668104,43.28976836" />
<polygon id="83076 MAZAUGUES" points="5.923133098,43.31582903 5.903980985,43.31570613 5.894121213,43.32312703 5.880448314,43.32116974 5.854274082,43.32939843 5.845250136,43.32719682 5.831529615,43.31747523 5.817588341,43.33945233 5.82440237,43.34410849 5.824442941,43.35424341 5.867020585,43.36104495 5.880317062,43.37133221 5.956677068,43.37178403 5.962342458,43.36340981 5.954939531,43.35451989 5.957698163,43.33761019 5.936371126,43.31964715 5.923133098,43.31582903" />
<polygon id="83077 MEOUNES-LES-MONTRIEUX" points="5.929259816,43.2304444 5.935531517,43.27872042 5.930306416,43.28839513 5.930957734,43.29878356 5.935742159,43.3043969 5.933557169,43.30748087 5.985718173,43.3092662 6.003059846,43.2772693 6.023291458,43.26859408 6.028581484,43.26282859 6.016816052,43.25690155 6.002697602,43.25777216 5.994739255,43.26153089 5.986668104,43.25313968 5.970197569,43.24682474 5.970247489,43.23990111 5.948055446,43.23907817 5.929259816,43.2304444" />
<polygon id="83078 MOISSAC-BELLEVUE" points="6.138006967,43.61299085 6.12487969,43.62113143 6.177126047,43.67816797 6.193463251,43.68432644 6.202782424,43.67500182 6.208394888,43.66954112 6.175113123,43.64051265 6.168907146,43.6206665 6.138006967,43.61299085" />
<polygon id="83079 LA MOLE" points="6.499347233,43.18141935 6.475959766,43.16978697 6.452323159,43.17193296 6.444514597,43.18352694 6.45409593,43.19458286 6.451134522,43.20762478 6.444529276,43.22110722 6.442603121,43.23112678 6.448447942,43.23641447 6.451131514,43.24648503 6.445950231,43.26985371 6.463443661,43.27102287 6.470626811,43.26732566 6.473500783,43.25714866 6.510409706,43.23002292 6.524403312,43.20793007 6.500899708,43.18795065 6.499347233,43.18141935" />
<polygon id="83080 MONS" points="6.701737159,43.65079695 6.696528955,43.65640596 6.678031515,43.65603369 6.665034263,43.66619211 6.644804883,43.67530349 6.636428867,43.68352875 6.637931229,43.69389144 6.665258603,43.7177908 6.691650844,43.71008823 6.698743239,43.71337851 6.687142165,43.72858181 6.691230199,43.74535179 6.687550414,43.74763852 6.668424963,43.74568141 6.654101511,43.74748742 6.657423432,43.74871807 6.682462148,43.75758485 6.687167658,43.75693011 6.704703713,43.75174042 6.711618263,43.74702765 6.712451851,43.74034197 6.754161729,43.73785712 6.75726977,43.72785837 6.766195592,43.72002757 6.774703894,43.69385105 6.767122184,43.68957371 6.763488753,43.68302431 6.761134474,43.6658909 6.752553943,43.66334088 6.738453767,43.66461049 6.726132953,43.65928644 6.707396658,43.65639608 6.701737159,43.65079695" />
<polygon id="83081 MONTAUROUX" points="6.77684169,43.54390082 6.772292238,43.54872505 6.760417091,43.57142216 6.771031195,43.58249371 6.75849623,43.61623046 6.761224336,43.62663032 6.769463465,43.63537982 6.787350261,43.64028876 6.789749343,43.643367 6.799867903,43.6283481 6.813587435,43.62970498 6.824612116,43.62319167 6.835681379,43.61923399 6.838665115,43.61379561 6.830145853,43.61154707 6.812757021,43.58683714 6.804329581,43.58346657 6.796047035,43.5639212 6.786869991,43.54668583 6.778660144,43.54688205 6.77684169,43.54390082" />
<polygon id="83082 MONTFERRAT" points="6.521203905,43.60853793 6.516676351,43.59251784 6.513327907,43.59024853 6.50014101,43.5918273 6.487317281,43.59653601 6.483893203,43.6027973 6.464443522,43.61770367 6.461808664,43.62785687 6.445716437,43.64025696 6.433873625,43.65516827 6.445941446,43.6776181 6.47633928,43.66852627 6.484713223,43.67156367 6.495823358,43.66533449 6.495452297,43.6618968 6.50918949,43.61374535 6.521203905,43.60853793" />
<polygon id="83083 MONTFORT-SUR-ARGENS" points="6.115935309,43.46591124 6.099604009,43.47092653 6.09758293,43.47402759 6.11206557,43.49535706 6.106818706,43.50468261 6.110929613,43.50635654 6.111839737,43.50306196 6.126645895,43.4950996 6.14860913,43.49031302 6.153271897,43.48445987 6.148036667,43.46790062 6.115935309,43.46591124" />
<polygon id="83084 MONTMEYAN" points="6.057152639,43.61693535 6.013298381,43.62886681 6.026020514,43.64396491 6.021735496,43.66828843 6.038783859,43.6795915 6.034615228,43.69271086 6.051561041,43.69771176 6.057500316,43.6883059 6.053223896,43.67861972 6.056533105,43.67204327 6.070514318,43.66995643 6.089437911,43.65901067 6.107473455,43.65468751 6.117397116,43.62439903 6.098832875,43.62609174 6.057152639,43.61693535" />
<polygon id="83085 LA MOTTE" points="6.521949521,43.48003067 6.506842007,43.48275405 6.517336997,43.49802111 6.51869227,43.51509751 6.525469542,43.51986674 6.533509757,43.53287115 6.537944273,43.53211416 6.54425511,43.5368886 6.55804442,43.53825643 6.565292661,43.53416368 6.579052489,43.53227847 6.580937853,43.52916305 6.577174038,43.52299178 6.589052329,43.50808096 6.590659279,43.49123098 6.557888166,43.48819592 6.521949521,43.48003067" />
<polygon id="83086 LE MUY" points="6.586256137,43.42089576 6.574034549,43.41091639 6.580673879,43.40207855 6.577887569,43.39937897 6.556070576,43.39388431 6.542973889,43.39718663 6.543525645,43.40173431 6.537083025,43.40461967 6.533289194,43.41806264 6.538066571,43.44210461 6.529094684,43.44977298 6.528669084,43.46700579 6.521949521,43.48003067 6.557888166,43.48819592 6.590659279,43.49123098 6.589052329,43.50808096 6.577174038,43.52299178 6.580937853,43.52916305 6.589400218,43.52988302 6.599417149,43.54117853 6.627758652,43.53903647 6.640317024,43.53422039 6.646600906,43.52575907 6.647206772,43.51620055 6.628931339,43.51391362 6.609874812,43.50311155 6.607214376,43.49640929 6.613902978,43.4796238 6.608891313,43.46619141 6.596902704,43.46133954 6.586855301,43.44536283 6.586256137,43.42089576" />
<polygon id="83087 NANS-LES-PINS" points="5.824442941,43.35424341 5.797452251,43.34587116 5.763763166,43.34139944 5.74992444,43.34318345 5.738915643,43.38063903 5.739760382,43.39475929 5.749995489,43.40151213 5.778915414,43.4100726 5.786164163,43.41391021 5.788349033,43.42026344 5.796795103,43.41896537 5.810258946,43.4175005 5.828915798,43.40311529 5.837252742,43.4004215 5.823116849,43.39161798 5.829357714,43.38247098 5.828228644,43.37230126 5.821075899,43.36382819 5.824442941,43.35424341" />
<polygon id="83088 NEOULES" points="6.028581484,43.26282859 6.023291458,43.26859408 6.003059846,43.2772693 5.985718173,43.3092662 5.99510148,43.31642441 6.003372689,43.31450247 6.025497191,43.31698225 6.045933604,43.31431072 6.050563196,43.31932058 6.051919702,43.30884841 6.067696651,43.28702994 6.05476868,43.28282309 6.040675293,43.26862818 6.028581484,43.26282859" />
<polygon id="83089 OLLIERES" points="5.814771387,43.46657211 5.804770409,43.47844465 5.790902403,43.48792218 5.778336565,43.50652015 5.775517452,43.5129392 5.780148241,43.51865433 5.778416725,43.52863771 5.783491231,43.53811362 5.815263397,43.5435059 5.827675802,43.54825187 5.840382748,43.54289626 5.852895355,43.51748543 5.852055777,43.49708888 5.836039815,43.47527227 5.814771387,43.46657211" />
<polygon id="83090 OLLIOULES" points="5.88733733,43.11614796 5.885618109,43.11714806 5.849220201,43.12148285 5.823021656,43.12039941 5.825989661,43.14065307 5.81768165,43.14822381 5.816108906,43.15832728 5.851622046,43.15373961 5.882196146,43.16039706 5.884580783,43.13945191 5.881753457,43.13278619 5.88733733,43.11614796" />
<polygon id="83091 PIERREFEU-DU-VAR" points="6.163157292,43.20264248 6.134728343,43.20689308 6.140919625,43.21166419 6.13777775,43.21794009 6.131284418,43.22280984 6.11391082,43.22751653 6.114453868,43.25195095 6.130455039,43.25949135 6.161721951,43.26811416 6.200818322,43.25689737 6.248020144,43.25559583 6.24699665,43.24529125 6.239881164,43.23634916 6.24082604,43.21524543 6.205554235,43.20491996 6.163157292,43.20264248" />
<polygon id="83092 PIGNANS" points="6.247222818,43.26440673 6.241942055,43.27741274 6.228311339,43.28639191 6.217186504,43.3050091 6.210550677,43.30981607 6.211385506,43.31948772 6.214706876,43.32575431 6.227225679,43.32996401 6.23048478,43.33617807 6.248849135,43.33373705 6.255843487,43.32916893 6.260443606,43.3195766 6.26907734,43.317218 6.294762727,43.28055916 6.315354268,43.27283438 6.280611798,43.26359561 6.247222818,43.26440673" />
<polygon id="83093 PLAN-D'AUPS-SAINTE-BAUME" points="5.691040376,43.31296284 5.681720625,43.31903608 5.669163667,43.31940985 5.682961103,43.32184962 5.689950466,43.33081202 5.688144712,43.3410012 5.703628185,43.3540091 5.709979094,43.34898946 5.736186698,43.34113753 5.74992444,43.34318345 5.763763166,43.34139944 5.797452251,43.34587116 5.824442941,43.35424341 5.82440237,43.34410849 5.817588341,43.33945233 5.799701901,43.33734243 5.779005685,43.33063911 5.726601266,43.31736435 5.691040376,43.31296284" />
<polygon id="83094 LE PLAN-DE-LA-TOUR" points="6.571188278,43.30199267 6.557361399,43.29910802 6.524960254,43.30533869 6.53171193,43.30988171 6.522364894,43.321983 6.505024961,43.3278775 6.500916449,43.33415187 6.504565919,43.3402019 6.520234416,43.34767121 6.521620726,43.36166486 6.516664891,43.3712544 6.521072384,43.37267791 6.542202161,43.37441946 6.564492176,43.36955381 6.568706589,43.36326421 6.584343832,43.35531769 6.590199921,43.34572187 6.588323026,43.3389672 6.572836336,43.3212178 6.567545793,43.30828135 6.571188278,43.30199267" />
<polygon id="83095 PONTEVES" points="6.054606084,43.51516091 6.050576799,43.5201274 6.030317628,43.52496313 6.017012076,43.57341484 6.030164667,43.57529951 6.043572067,43.58360448 6.065616878,43.58678408 6.094655107,43.56477295 6.10821814,43.56209826 6.117152529,43.56358888 6.120467666,43.5591985 6.109711898,43.54784663 6.091387921,43.53722307 6.10033691,43.517978 6.08669282,43.52079827 6.054606084,43.51516091" />
<polygon id="83096 POURCIEUX" points="5.796795103,43.41896537 5.788349033,43.42026344 5.787862184,43.42041101 5.782835453,43.42602258 5.783352833,43.43646078 5.776558711,43.4566831 5.763552314,43.4753263 5.762832188,43.48580543 5.774171,43.50478126 5.778336565,43.50652015 5.790902403,43.48792218 5.804770409,43.47844465 5.814771387,43.46657211 5.817140054,43.45639176 5.800797322,43.43927892 5.79601612,43.42936496 5.796795103,43.41896537" />
<polygon id="83097 POURRIERES" points="5.787862184,43.42041101 5.773999531,43.42156821 5.751574231,43.43427505 5.727213654,43.46708252 5.71026156,43.47899453 5.698803015,43.48217912 5.703217741,43.49534737 5.714278015,43.50121963 5.717834879,43.53510579 5.725073869,43.55127301 5.733465542,43.55386181 5.754384175,43.54661683 5.772522356,43.54417428 5.783491231,43.53811362 5.778416725,43.52863771 5.780148241,43.51865433 5.775517452,43.5129392 5.778336565,43.50652015 5.774171,43.50478126 5.762832188,43.48580543 5.763552314,43.4753263 5.776558711,43.4566831 5.783352833,43.43646078 5.782835453,43.42602258 5.787862184,43.42041101" />
<polygon id="83098 LE PRADET" points="6.032563262,43.0775857 6.019386558,43.08036821 6.018047258,43.083646 6.024399799,43.0926485 6.021985588,43.09556951 6.00698492,43.10304597 5.993279068,43.10499385 6.025527861,43.11820626 6.045923263,43.11002571 6.049602953,43.0966362 6.044212373,43.08732881 6.032563262,43.0775857" />
<polygon id="83099 PUGET-SUR-ARGENS" points="6.68588564,43.42890622 6.680305677,43.43787724 6.660635088,43.44747827 6.658487686,43.46462694 6.669239645,43.48777945 6.668911692,43.49465364 6.674915528,43.50012448 6.679960236,43.51358967 6.70626691,43.50834319 6.704977885,43.47109888 6.713899083,43.44782635 6.707865631,43.44263814 6.693988162,43.44134715 6.68588564,43.42890622" />
<polygon id="83100 PUGET-VILLE" points="6.114453868,43.25195095 6.101980043,43.26206853 6.092686131,43.26080471 6.08912529,43.26308518 6.081672885,43.27576629 6.083591845,43.27893438 6.103592068,43.2920274 6.116332478,43.29584689 6.123105878,43.30803006 6.137547099,43.30812492 6.148516211,43.30604134 6.152561372,43.29593025 6.163830708,43.28477046 6.201518488,43.28127432 6.223515335,43.26343346 6.247222818,43.26440673 6.248020144,43.25559583 6.200818322,43.25689737 6.161721951,43.26811416 6.130455039,43.25949135 6.114453868,43.25195095" />
<polygon id="83101 RAMATUELLE" points="6.646589536,43.16780592 6.629074143,43.17977839 6.623753269,43.18949292 6.610915974,43.19378637 6.603882655,43.20295391 6.600742057,43.21673646 6.612279969,43.24351761 6.636373327,43.25485613 6.639877908,43.25260386 6.671860669,43.25068325 6.6777757,43.2458803 6.665308165,43.24236921 6.662452913,43.22514075 6.665253839,43.21146643 6.678181911,43.20144533 6.677861528,43.19796243 6.659516844,43.19515568 6.644395549,43.18684333 6.64097698,43.17341622 6.646589536,43.16780592" />
<polygon id="83102 REGUSSE" points="6.12487969,43.62113143 6.117397116,43.62439903 6.107473455,43.65468751 6.089437911,43.65901067 6.070514318,43.66995643 6.056533105,43.67204327 6.053223896,43.67861972 6.057500316,43.6883059 6.051561041,43.69771176 6.056552923,43.70008399 6.062157605,43.70415873 6.070404595,43.70494386 6.092694509,43.68234902 6.11447787,43.66855287 6.143066156,43.67182753 6.146230822,43.68178586 6.15899682,43.68579237 6.174804636,43.69739937 6.193463251,43.68432644 6.177126047,43.67816797 6.12487969,43.62113143" />
<polygon id="83103 LE REVEST-LES-EAUX" points="5.954721357,43.160072 5.937133205,43.16527806 5.918592224,43.16434139 5.902225961,43.17143475 5.901127617,43.18188729 5.920717165,43.19202478 5.933302188,43.20268268 5.939589369,43.21596844 5.9629253,43.19873176 5.97187388,43.19641532 5.99023299,43.17413384 5.984714783,43.16492551 5.962024657,43.16678438 5.954217939,43.16345216 5.954721357,43.160072" />
<polygon id="83104 RIANS" points="5.772522356,43.54417428 5.754384175,43.54661683 5.733465542,43.55386181 5.725073869,43.55127301 5.716863914,43.55119977 5.706691597,43.55623436 5.69168756,43.56334146 5.669315086,43.56464115 5.656919589,43.57528019 5.687576538,43.58421253 5.689607319,43.58737624 5.680884027,43.61088225 5.700600492,43.64252583 5.709944128,43.64165404 5.718973209,43.64983758 5.770087761,43.66045865 5.799205967,43.65992892 5.807598169,43.65200538 5.805675889,43.63882872 5.812082066,43.62309603 5.782640949,43.59564673 5.769730524,43.56532135 5.772522356,43.54417428" />
<polygon id="83105 RIBOUX" points="5.762793877,43.28235798 5.751394797,43.28823852 5.736998662,43.30189868 5.726601266,43.31736435 5.779005685,43.33063911 5.778943845,43.31325001 5.77249738,43.3001927 5.77253483,43.28969637 5.762793877,43.28235798" />
<polygon id="83106 ROCBARON" points="6.083591845,43.27893438 6.078730018,43.28364626 6.067696651,43.28702994 6.051919702,43.30884841 6.050563196,43.31932058 6.057575339,43.32854815 6.070456457,43.33353067 6.077206156,43.32482222 6.098353205,43.31860948 6.107747383,43.31904201 6.115792309,43.31618159 6.123105878,43.30803006 6.116332478,43.29584689 6.103592068,43.2920274 6.083591845,43.27893438" />
<polygon id="83107 ROQUEBRUNE-SUR-ARGENS" points="6.682170992,43.34098061 6.660990681,43.34591458 6.663277474,43.36304706 6.654327056,43.37099576 6.650234179,43.38101333 6.633096641,43.3978367 6.622981571,43.40529044 6.59713869,43.41414057 6.586256137,43.42089576 6.586855301,43.44536283 6.596902704,43.46133954 6.608891313,43.46619141 6.613902978,43.4796238 6.607214376,43.49640929 6.609874812,43.50311155 6.628931339,43.51391362 6.647206772,43.51620055 6.679960236,43.51358967 6.674915528,43.50012448 6.668911692,43.49465364 6.669239645,43.48777945 6.658487686,43.46462694 6.660635088,43.44747827 6.680305677,43.43787724 6.68588564,43.42890622 6.705418777,43.41483792 6.705868344,43.38403913 6.714531588,43.36808033 6.718038059,43.35834135 6.713815175,43.34587809 6.682170992,43.34098061" />
<polygon id="83108 LA ROQUEBRUSSANNE" points="5.933557169,43.30748087 5.9259476,43.31007266 5.923133098,43.31582903 5.936371126,43.31964715 5.957698163,43.33761019 5.954939531,43.35451989 5.962342458,43.36340981 5.980614994,43.36243075 5.996134389,43.36949217 6.019429152,43.36988883 6.034511857,43.36525353 6.015393719,43.34231835 6.020924298,43.33299943 6.021866308,43.31921739 6.025497191,43.31698225 6.003372689,43.31450247 5.99510148,43.31642441 5.985718173,43.3092662 5.933557169,43.30748087" />
<polygon id="83109 LA ROQUE-ESCLAPON" points="6.637931229,43.69389144 6.609904584,43.69810416 6.598436462,43.70882495 6.605366993,43.71634209 6.602925559,43.72648463 6.607769871,43.73239538 6.611350988,43.72615127 6.620412,43.72604833 6.640514833,43.73413334 6.654101511,43.74748742 6.668424963,43.74568141 6.687550414,43.74763852 6.691230199,43.74535179 6.687142165,43.72858181 6.698743239,43.71337851 6.691650844,43.71008823 6.665258603,43.7177908 6.637931229,43.69389144" />
<polygon id="83110 ROUGIERS" points="5.824442941,43.35424341 5.821075899,43.36382819 5.828228644,43.37230126 5.829357714,43.38247098 5.823116849,43.39161798 5.837252742,43.4004215 5.853529619,43.40724045 5.857516901,43.4134369 5.86816205,43.41963714 5.866215042,43.41005615 5.873622882,43.39767062 5.880317062,43.37133221 5.867020585,43.36104495 5.824442941,43.35424341" />
<polygon id="83111 SAINTE-ANASTASIE-SUR-ISSOLE" points="6.123105878,43.30803006 6.115792309,43.31618159 6.107747383,43.31904201 6.110768755,43.32544612 6.1103113,43.35283715 6.138353041,43.35892348 6.139704257,43.34885475 6.134987743,43.33201185 6.13897218,43.31844584 6.137547099,43.30812492 6.123105878,43.30803006" />
<polygon id="83112 SAINT-CYR-SUR-MER" points="5.725912319,43.13652557 5.718974697,43.14552967 5.695908858,43.14509203 5.684358705,43.15600903 5.684189189,43.15950519 5.693446058,43.16741027 5.69239871,43.1742224 5.685826655,43.17912926 5.671875006,43.17926879 5.675955986,43.19064263 5.694527396,43.19217837 5.714968225,43.20074712 5.728816158,43.20142381 5.730595589,43.16100391 5.738396199,43.15827705 5.728317029,43.15310558 5.725912319,43.13652557" />
<polygon id="83113 SAINT-JULIEN" points="5.874601741,43.6516137 5.879970732,43.66073667 5.87551562,43.67724193 5.867547694,43.68560101 5.849480612,43.69604334 5.842129321,43.70044955 5.841841641,43.70390564 5.84233063,43.71425662 5.849042985,43.71817799 5.855748547,43.72318868 5.874982943,43.72298841 5.888624463,43.72636402 5.903144169,43.73551346 5.905001703,43.75277974 5.922661135,43.7575389 5.925661613,43.75596354 5.925918762,43.7524898 5.938253287,43.74835763 5.941732934,43.73824139 5.939572069,43.73147421 5.944047087,43.72552724 5.951862353,43.72153358 5.965626695,43.72263613 5.975232094,43.71490001 5.984534232,43.71449218 5.987772283,43.69542137 5.969095806,43.68443394 5.96008628,43.67216335 5.943559556,43.66534552 5.93392224,43.66486766 5.921498908,43.65426214 5.907532577,43.65152119 5.874601741,43.6516137" />
<polygon id="83114 SAINT-MARTIN" points="5.896984115,43.53901389 5.858074254,43.54374616 5.86025629,43.55400636 5.86872332,43.56217396 5.86566598,43.5929384 5.87735419,43.59875177 5.878194203,43.60215989 5.871920674,43.60726895 5.872946737,43.61414763 5.894974315,43.61034849 5.912008164,43.59952081 5.90995774,43.56496578 5.910736562,43.56152355 5.915371881,43.56064285 5.915489617,43.56027954 5.896984115,43.53901389" />
<polygon id="83115 SAINTE-MAXIME" points="6.620730175,43.29592223 6.595661651,43.31007793 6.582007731,43.30804604 6.571188278,43.30199267 6.567545793,43.30828135 6.572836336,43.3212178 6.588323026,43.3389672 6.590199921,43.34572187 6.584343832,43.35531769 6.568706589,43.36326421 6.564492176,43.36955381 6.542202161,43.37441946 6.542973889,43.39718663 6.556070576,43.39388431 6.577887569,43.39937897 6.580673879,43.40207855 6.574034549,43.41091639 6.586256137,43.42089576 6.59713869,43.41414057 6.622981571,43.40529044 6.633096641,43.3978367 6.650234179,43.38101333 6.654327056,43.37099576 6.663277474,43.36304706 6.660990681,43.34591458 6.682170992,43.34098061 6.668771717,43.33130482 6.66587532,43.32107373 6.668219447,43.3143031 6.632800526,43.30571088 6.620730175,43.29592223" />
<polygon id="83116 SAINT-MAXIMIN-LA-SAINTE-BAUME" points="5.837252742,43.4004215 5.828915798,43.40311529 5.810258946,43.4175005 5.796795103,43.41896537 5.79601612,43.42936496 5.800797322,43.43927892 5.817140054,43.45639176 5.814771387,43.46657211 5.836039815,43.47527227 5.852055777,43.49708888 5.865405987,43.48804008 5.897388274,43.4881623 5.914118542,43.49401599 5.925415616,43.49049762 5.920842946,43.47717035 5.922405044,43.47044801 5.914326009,43.45080522 5.900562147,43.44202783 5.893373353,43.43322646 5.86816205,43.41963714 5.857516901,43.4134369 5.853529619,43.40724045 5.837252742,43.4004215" />
<polygon id="83117 SAINT-PAUL-EN-FORET" points="6.646029729,43.54463858 6.632654875,43.56182207 6.638973364,43.5639972 6.639069321,43.56941619 6.641849073,43.5665668 6.664381542,43.57200517 6.671446644,43.58503404 6.678213524,43.58988509 6.69134667,43.58580032 6.701179658,43.57841268 6.714976152,43.57659921 6.73215228,43.55209508 6.699540206,43.55087921 6.671468284,43.55362527 6.646029729,43.54463858" />
<polygon id="83118 SAINT-RAPHAEL" points="6.836735315,43.41639636 6.827511699,43.41760561 6.787760619,43.40895235 6.763676334,43.42452753 6.771671532,43.44789227 6.812775175,43.47713162 6.817006644,43.49055682 6.835397444,43.50676976 6.844526879,43.50856317 6.856654688,43.50302496 6.87567092,43.50516615 6.884230099,43.50253573 6.903918809,43.49507237 6.912291786,43.49265355 6.915656287,43.48301959 6.933726236,43.48006801 6.924581002,43.47204926 6.921310046,43.4513055 6.898036293,43.43957107 6.890096847,43.42801174 6.876032317,43.42654361 6.864674123,43.43241715 6.860241001,43.43118818 6.859397633,43.41751819 6.854202299,43.4119027 6.836735315,43.41639636" />
<polygon id="83119 SAINT-TROPEZ" points="6.6777757,43.2458803 6.671860669,43.25068325 6.639877908,43.25260386 6.636373327,43.25485613 6.623615807,43.26534353 6.644064139,43.27362436 6.665132374,43.26596838 6.67060448,43.27527396 6.678826677,43.27703837 6.696037346,43.26519405 6.689026755,43.25230423 6.6777757,43.2458803" />
<polygon id="83120 SAINT-ZACHARIE" points="5.74992444,43.34318345 5.736186698,43.34113753 5.709979094,43.34898946 5.703628185,43.3540091 5.694175171,43.36552361 5.689275103,43.38978732 5.682787816,43.39916586 5.703262895,43.40799118 5.722596196,43.40846991 5.749995489,43.40151213 5.739760382,43.39475929 5.738915643,43.38063903 5.74992444,43.34318345" />
<polygon id="83121 SALERNES" points="6.273001618,43.53285891 6.201358346,43.53852678 6.187199927,43.53610723 6.19237116,43.56077205 6.188982407,43.59271278 6.196127909,43.59687911 6.223635003,43.59710158 6.23694344,43.5944814 6.245319241,43.58703625 6.257426407,43.56789791 6.289099726,43.53753185 6.282132545,43.53279912 6.273001618,43.53285891" />
<polygon id="83122 LES SALLES-SUR-VERDON" points="6.220707502,43.73385632 6.190262607,43.75607884 6.184158536,43.76561468 6.188386656,43.77614507 6.210674912,43.79766357 6.224189193,43.7998403 6.214788052,43.784132 6.223548439,43.74393996 6.220707502,43.73385632" />
<polygon id="83123 SANARY-SUR-MER" points="5.807264634,43.11571707 5.793786478,43.11390743 5.771100215,43.11679729 5.779776351,43.13218875 5.770333991,43.13901091 5.764726814,43.15205198 5.766729884,43.15871471 5.787001585,43.16251273 5.800895568,43.15897558 5.816108906,43.15832728 5.81768165,43.14822381 5.825989661,43.14065307 5.823021656,43.12039941 5.807264634,43.11571707" />
<polygon id="83124 SEILLANS" points="6.632654875,43.56182207 6.619437327,43.56041736 6.612129096,43.58007971 6.626154306,43.59732896 6.621383521,43.60342388 6.603641827,43.60867077 6.597631217,43.61817436 6.592774041,43.61821805 6.587418238,43.63525637 6.572973053,43.64384778 6.575283501,43.65066226 6.572574567,43.6535706 6.544212759,43.65631865 6.526888688,43.66226839 6.526476429,43.67592743 6.548422424,43.68022137 6.563722105,43.68815182 6.565967834,43.69830158 6.562986309,43.70824442 6.576310425,43.70626689 6.587260201,43.70049278 6.609904584,43.69810416 6.637931229,43.69389144 6.636428867,43.68352875 6.644804883,43.67530349 6.665034263,43.66619211 6.678031515,43.65603369 6.677048103,43.64941026 6.665731664,43.64335214 6.664768878,43.63993471 6.663609492,43.60181821 6.651370308,43.5869362 6.638652462,43.58315692 6.639069321,43.56941619 6.638973364,43.5639972 6.632654875,43.56182207" />
<polygon id="83125 SEILLONS-SOURCE-D'ARGENS" points="5.914118542,43.49401599 5.897388274,43.4881623 5.865405987,43.48804008 5.852055777,43.49708888 5.852895355,43.51748543 5.840382748,43.54289626 5.858074254,43.54374616 5.896984115,43.53901389 5.898731941,43.52583143 5.914118542,43.49401599" />
<polygon id="83126 LA SEYNE-SUR-MER" points="5.903568762,43.07337452 5.896593114,43.07773847 5.887468181,43.07645356 5.87279904,43.067594 5.860583197,43.0489297 5.847225462,43.04929293 5.846984821,43.07384168 5.854840188,43.09396462 5.849220201,43.12148285 5.885618109,43.11714806 5.88536125,43.1041225 5.907214874,43.10000676 5.908486788,43.09672331 5.895976876,43.08259711 5.903882952,43.07890112 5.903568762,43.07337452" />
<polygon id="83127 SIGNES" points="5.939589369,43.21596844 5.915670595,43.21731043 5.892462059,43.21294837 5.868461464,43.213373 5.859551523,43.22156634 5.860547029,43.22501435 5.846759221,43.23919548 5.806644973,43.25051589 5.765479969,43.26849071 5.760929376,43.26734699 5.762793877,43.28235798 5.77253483,43.28969637 5.77249738,43.3001927 5.778943845,43.31325001 5.779005685,43.33063911 5.799701901,43.33734243 5.817588341,43.33945233 5.831529615,43.31747523 5.845250136,43.32719682 5.854274082,43.32939843 5.880448314,43.32116974 5.894121213,43.32312703 5.903980985,43.31570613 5.923133098,43.31582903 5.9259476,43.31007266 5.933557169,43.30748087 5.935742159,43.3043969 5.930957734,43.29878356 5.930306416,43.28839513 5.935531517,43.27872042 5.929259816,43.2304444 5.939589369,43.21596844" />
<polygon id="83128 SILLANS-LA-CASCADE" points="6.187199927,43.53610723 6.143528541,43.55591264 6.120467666,43.5591985 6.117152529,43.56358888 6.142565368,43.57766855 6.156247879,43.5793967 6.163379921,43.58766259 6.175682807,43.59149069 6.188982407,43.59271278 6.19237116,43.56077205 6.187199927,43.53610723" />
<polygon id="83129 SIX-FOURS-LES-PLAGES" points="5.847225462,43.04929293 5.843581137,43.04704937 5.82998873,43.04988256 5.81474231,43.06289084 5.797761388,43.06911127 5.795839743,43.07227507 5.804867098,43.080221 5.810012013,43.09363158 5.807881474,43.10033806 5.812704976,43.10633217 5.807264634,43.11571707 5.823021656,43.12039941 5.849220201,43.12148285 5.854840188,43.09396462 5.846984821,43.07384168 5.847225462,43.04929293" />
<polygon id="83130 SOLLIES-PONT" points="6.073779156,43.15888555 6.073665947,43.15906881 6.069341035,43.17209118 6.060026083,43.1733911 6.044661099,43.18125224 6.0284503,43.19839745 6.037361598,43.20758062 6.034908162,43.22013502 6.056168447,43.21531317 6.059822803,43.2055417 6.066963168,43.20119814 6.076016029,43.20205662 6.093893796,43.19812469 6.096385324,43.1881422 6.092082091,43.17830974 6.08416136,43.16588028 6.073779156,43.15888555" />
<polygon id="83131 SOLLIES-TOUCAS" points="6.0284503,43.19839745 6.022215367,43.19375649 6.022003704,43.18359977 6.014383165,43.17994243 6.009701933,43.17980313 6.0058161,43.18171177 5.995302695,43.1929229 5.991350353,43.19476083 5.9788281,43.19909494 5.974168088,43.19939454 5.97187388,43.19641532 5.9629253,43.19873176 5.939589369,43.21596844 5.929259816,43.2304444 5.948055446,43.23907817 5.970247489,43.23990111 5.981246394,43.22138772 5.999601106,43.22072609 6.018135973,43.23104738 6.034908162,43.22013502 6.037361598,43.20758062 6.0284503,43.19839745" />
<polygon id="83132 SOLLIES-VILLE" points="6.073665947,43.15906881 6.064527819,43.16018409 6.057837031,43.16897945 6.037643107,43.17738148 6.0329606,43.17745026 6.030284637,43.16747095 6.009298566,43.16096573 5.993121486,43.16745583 5.99023299,43.17413384 5.97187388,43.19641532 5.974168088,43.19939454 5.9788281,43.19909494 5.991350353,43.19476083 5.995302695,43.1929229 6.0058161,43.18171177 6.009701933,43.17980313 6.014383165,43.17994243 6.022003704,43.18359977 6.022215367,43.19375649 6.0284503,43.19839745 6.044661099,43.18125224 6.060026083,43.1733911 6.069341035,43.17209118 6.073665947,43.15906881" />
<polygon id="83133 TANNERON" points="6.863037794,43.53187514 6.852286255,43.53807674 6.842886917,43.53768956 6.820449323,43.55478645 6.796047035,43.5639212 6.804329581,43.58346657 6.812757021,43.58683714 6.830145853,43.61154707 6.838665115,43.61379561 6.853157979,43.6063999 6.856822998,43.60835973 6.864764818,43.60515861 6.883711551,43.60650046 6.894469897,43.61102483 6.911990728,43.59833235 6.90031001,43.58314978 6.90783082,43.57094296 6.906637111,43.56414852 6.901986174,43.56425282 6.887120463,43.55182348 6.879135249,43.53245355 6.863037794,43.53187514" />
<polygon id="83134 TARADEAU" points="6.440834279,43.43419711 6.409166649,43.44884133 6.398125782,43.46007538 6.415424847,43.47574977 6.430542173,43.4963629 6.433865149,43.49690608 6.457245039,43.44838898 6.457280452,43.44137274 6.440834279,43.43419711" />
<polygon id="83135 TAVERNES" points="6.017012076,43.57341484 5.988161842,43.57588756 5.980900029,43.60011882 5.992436415,43.62341951 6.013298381,43.62886681 6.057152639,43.61693535 6.064494927,43.60056544 6.065616878,43.58678408 6.043572067,43.58360448 6.030164667,43.57529951 6.017012076,43.57341484" />
<polygon id="83136 LE THORONET" points="6.303357964,43.42456613 6.299632789,43.42337408 6.297200107,43.42576231 6.295290627,43.43448266 6.274084017,43.44179811 6.256874885,43.45802954 6.234989214,43.45988284 6.211334997,43.47125657 6.20977846,43.48810474 6.214156964,43.49430509 6.225464955,43.48841346 6.234722049,43.48786746 6.236387067,43.48119948 6.240288003,43.47932705 6.244847187,43.47860535 6.25187131,43.48298711 6.268906783,43.47898085 6.287056361,43.47892713 6.29058432,43.48115228 6.311246169,43.46308978 6.325129599,43.46395225 6.331587843,43.45550549 6.359905816,43.44279854 6.36930561,43.44166007 6.370606438,43.43834184 6.364211884,43.43317384 6.352963843,43.43946581 6.334389825,43.4400933 6.303357964,43.42456613" />
<polygon id="83137 TOULON" points="5.979060326,43.10654012 5.928743248,43.10456276 5.931043026,43.11479677 5.921006935,43.12187373 5.911951881,43.11993171 5.905407259,43.11487914 5.88733733,43.11614796 5.881753457,43.13278619 5.884580783,43.13945191 5.882196146,43.16039706 5.893524454,43.16417095 5.902225961,43.17143475 5.918592224,43.16434139 5.937133205,43.16527806 5.954721357,43.160072 5.956350699,43.15683199 5.976584927,43.14818332 5.979713234,43.13494652 5.986630781,43.12634821 5.984096208,43.12343016 5.979060326,43.10654012" />
<polygon id="83138 TOURRETTES" points="6.73215228,43.55209508 6.714976152,43.57659921 6.710495904,43.58663367 6.698782681,43.59792345 6.697279542,43.6049825 6.701737159,43.65079695 6.707396658,43.65639608 6.726132953,43.65928644 6.738453767,43.66461049 6.752553943,43.66334088 6.744364332,43.65081379 6.737476358,43.62338748 6.742542886,43.61001651 6.743723796,43.55785749 6.73215228,43.55209508" />
<polygon id="83139 TOURTOUR" points="6.325860762,43.56205811 6.312293396,43.56450826 6.267071381,43.59438955 6.29002052,43.6255311 6.306668215,43.62313447 6.314370516,43.62598871 6.352539457,43.58395828 6.339157256,43.56561219 6.325860762,43.56205811" />
<polygon id="83140 TOURVES" points="5.880317062,43.37133221 5.873622882,43.39767062 5.866215042,43.41005615 5.86816205,43.41963714 5.893373353,43.43322646 5.900562147,43.44202783 5.914326009,43.45080522 5.96365235,43.44160742 5.988014648,43.43132286 5.988043635,43.43069185 5.988438706,43.41404351 5.981795058,43.40499879 5.956677068,43.37178403 5.880317062,43.37133221" />
<polygon id="83141 TRANS-EN-PROVENCE" points="6.506842007,43.48275405 6.457746199,43.49145502 6.45024869,43.4953412 6.450681473,43.50192852 6.469699644,43.51283083 6.491973593,43.5199599 6.525469542,43.51986674 6.51869227,43.51509751 6.517336997,43.49802111 6.506842007,43.48275405" />
<polygon id="83142 TRIGANCE" points="6.445201535,43.67769558 6.437115472,43.67653746 6.425078761,43.68567173 6.414437733,43.69287841 6.387946553,43.72597749 6.387910606,43.73292278 6.383540942,43.73443675 6.412788382,43.76225565 6.415852457,43.7900456 6.435123214,43.79188059 6.438808399,43.79774519 6.456834549,43.79313038 6.462608088,43.78087709 6.474814952,43.77696642 6.477058898,43.76398722 6.492632352,43.75158101 6.480308628,43.73671741 6.447855812,43.71209848 6.445201535,43.67769558" />
<polygon id="83143 LE VAL" points="6.107921643,43.43292692 6.030876591,43.42372151 5.988043635,43.43069185 5.988014648,43.43132286 5.988281045,43.44548631 5.997566737,43.46930434 6.012828199,43.46236269 6.040240349,43.45762649 6.058857164,43.46024469 6.067689543,43.46779206 6.080306521,43.46309439 6.103045159,43.46001456 6.115452324,43.46407035 6.126181034,43.44609594 6.114529091,43.44132653 6.107921643,43.43292692" />
<polygon id="83144 LA VALETTE-DU-VAR" points="5.984096208,43.12343016 5.986630781,43.12634821 5.979713234,43.13494652 5.976584927,43.14818332 5.956350699,43.15683199 5.954721357,43.160072 5.954217939,43.16345216 5.962024657,43.16678438 5.984714783,43.16492551 5.99023299,43.17413384 5.993121486,43.16745583 6.009298566,43.16096573 6.025595209,43.15471281 6.016636801,43.13831178 5.984096208,43.12343016" />
<polygon id="83145 VARAGES" points="5.915371881,43.56064285 5.910736562,43.56152355 5.90995774,43.56496578 5.912008164,43.59952081 5.894974315,43.61034849 5.901549424,43.61882571 5.929675613,43.62111421 5.961370983,43.61638312 5.992436415,43.62341951 5.980900029,43.60011882 5.988161842,43.57588756 5.975964017,43.57089234 5.940171899,43.57806225 5.927671134,43.5641383 5.915371881,43.56064285" />
<polygon id="83146 LA VERDIERE" points="5.894974315,43.61034849 5.872946737,43.61414763 5.870445298,43.62334351 5.856894881,43.63147985 5.848121756,43.63279059 5.857092786,43.63520219 5.874601741,43.6516137 5.907532577,43.65152119 5.921498908,43.65426214 5.93392224,43.66486766 5.943559556,43.66534552 5.96008628,43.67216335 5.969095806,43.68443394 5.987772283,43.69542137 6.004164697,43.68828838 6.01119058,43.67535247 6.021735496,43.66828843 6.026020514,43.64396491 6.013298381,43.62886681 5.992436415,43.62341951 5.961370983,43.61638312 5.929675613,43.62111421 5.901549424,43.61882571 5.894974315,43.61034849" />
<polygon id="83147 VERIGNON" points="6.314370516,43.62598871 6.306668215,43.62313447 6.29002052,43.6255311 6.288564868,43.63257255 6.268801412,43.64801017 6.242151644,43.65703052 6.222596665,43.66771622 6.208394888,43.66954112 6.202782424,43.67500182 6.269713463,43.69116546 6.288429472,43.6924564 6.298421895,43.68514712 6.304561399,43.67218121 6.313208806,43.67109848 6.313366779,43.66417708 6.325544965,43.65940127 6.326940464,43.6560894 6.326418111,43.65264709 6.312673735,43.63867554 6.316937193,43.63263768 6.314370516,43.62598871" />
<polygon id="83148 VIDAUBAN" points="6.427818118,43.35410709 6.415806943,43.35985381 6.413875498,43.37327753 6.384814083,43.40175363 6.379923757,43.41184758 6.382950208,43.42214449 6.374399092,43.4301104 6.390069177,43.44148036 6.398125782,43.46007538 6.409166649,43.44884133 6.440834279,43.43419711 6.486884089,43.41128248 6.510312918,43.41162385 6.537083025,43.40461967 6.543525645,43.40173431 6.542973889,43.39718663 6.542202161,43.37441946 6.521072384,43.37267791 6.504716948,43.37958463 6.476034075,43.37747536 6.44536796,43.36013176 6.427818118,43.35410709" />
<polygon id="83149 VILLECROZE" points="6.305748102,43.53644945 6.289099726,43.53753185 6.257426407,43.56789791 6.245319241,43.58703625 6.267071381,43.59438955 6.312293396,43.56450826 6.325860762,43.56205811 6.32102574,43.54869819 6.312848195,43.54537312 6.305748102,43.53644945" />
<polygon id="83150 VINON-SUR-VERDON" points="5.849480612,43.69604334 5.827604373,43.68854661 5.8132484,43.68905392 5.788631894,43.69671979 5.783261603,43.70623033 5.784077123,43.71636587 5.772453944,43.72218201 5.753650891,43.72462223 5.757332978,43.72940911 5.781343239,43.75565739 5.831820054,43.74595535 5.843043334,43.73485767 5.849042985,43.71817799 5.84233063,43.71425662 5.841841641,43.70390564 5.842129321,43.70044955 5.849480612,43.69604334" />
<polygon id="83151 VINS-SUR-CARAMY" points="6.175152847,43.41786705 6.141921189,43.41618048 6.135976987,43.42133179 6.114015133,43.4277279 6.107921643,43.43292692 6.114529091,43.44132653 6.126181034,43.44609594 6.135095083,43.44844039 6.14227219,43.44431578 6.184358488,43.44694034 6.191314527,43.44245872 6.18437277,43.43760282 6.175152847,43.41786705" />
<polygon id="83152 RAYOL-CANADEL-SUR-MER" points="6.448244951,43.15266144 6.452323159,43.17193296 6.475959766,43.16978697 6.499347233,43.18141935 6.490165881,43.15286967 6.465464075,43.15681789 6.448244951,43.15266144" />
<polygon id="83153 SAINT-MANDRIER-SUR-MER" points="5.903882952,43.07890112 5.91541226,43.08402568 5.92805023,43.08068568 5.936672971,43.08341195 5.945269503,43.08078306 5.948440933,43.07820317 5.950054688,43.07493685 5.949241698,43.07151201 5.945828966,43.06910338 5.932011513,43.07114563 5.913941699,43.06701919 5.903568762,43.07337452 5.903882952,43.07890112" />
<polygon id="83154 SAINT-ANTONIN-DU-VAR" points="6.268906783,43.47898085 6.275839101,43.48367004 6.275753986,43.48716642 6.26501894,43.49412675 6.26226055,43.50044103 6.272423968,43.51230018 6.273001618,43.53285891 6.282132545,43.53279912 6.289099726,43.53753185 6.305748102,43.53644945 6.32615208,43.5173021 6.309737921,43.51225724 6.303394739,43.49963666 6.290166978,43.49049385 6.29058432,43.48115228 6.287056361,43.47892713 6.268906783,43.47898085" />

</g>

</g>

</svg>
