<?xml version="1.0" standalone="no"?>
<!DOCTYPE svg PUBLIC "-//W3C//DTD SVG 1.1//EN" 
  "http://www.w3.org/Graphics/SVG/1.1/DTD/svg11.dtd">
<svg width="1000" height="1618" viewBox="8.573411068 41.83214524 0.986412249999999 1.17858543"  preserveAspectRatio="none"
     xmlns="http://www.w3.org/2000/svg" version="1.1">

<style type="text/css" >
<![CDATA[

.communes { 
	fill           : #b9b9b9;
	fill-opacity   : 1;
	stroke         : white;
	stroke-opacity : 1;
	stroke-width   : 0.002;
}

]]>
</style>

<g transform="translate(0,43.01073067) scale(1,-1) translate(0,-41.83214524)">

<g class="communes">

<polygon id="2B002 AGHIONE" points="9.456264228,42.07724331 9.431862323,42.06139429 9.389519627,42.08282928 9.383578583,42.10297554 9.379688863,42.10483283 9.367851006,42.09960521 9.35692344,42.11717398 9.356981762,42.12363412 9.382592075,42.12284102 9.393310093,42.12740491 9.419645924,42.12027532 9.438076983,42.12336595 9.438572953,42.11321128 9.443019008,42.1072789 9.451418763,42.10461233 9.446734397,42.0845681 9.456264228,42.07724331" />
<polygon id="2B003 AITI" points="9.256987923,42.39203691 9.235975131,42.386852 9.22595846,42.39294811 9.20904245,42.39549727 9.20673007,42.40178132 9.197537765,42.40835836 9.197134422,42.41820053 9.233559822,42.41721679 9.250981905,42.41274975 9.256190411,42.40310214 9.256987923,42.39203691" />
<polygon id="2B005 ALANDO" points="9.280297153,42.29545908 9.274476987,42.30222259 9.279676818,42.31343751 9.277495214,42.31925564 9.289205636,42.3167594 9.293577395,42.31132506 9.306054781,42.31224361 9.296590714,42.30659323 9.293986594,42.30090526 9.280297153,42.29545908" />
<polygon id="2B007 ALBERTACCE" points="8.904767893,42.25386824 8.881944881,42.27169117 8.885118928,42.28491635 8.877046941,42.29300598 8.860726529,42.29912628 8.861451292,42.32962914 8.857165708,42.33098309 8.891176188,42.35365332 8.900356423,42.36550996 8.913785792,42.37511085 8.929641439,42.37299267 8.930156772,42.36956584 8.950439314,42.36140162 8.955299484,42.34826705 8.966116938,42.33722251 8.997894448,42.33409895 8.993808752,42.32422529 8.976613876,42.31321551 8.97603288,42.29207614 8.983065755,42.28297327 8.982971809,42.2762368 8.970241656,42.26589492 8.951293523,42.26463409 8.926624311,42.2541906 8.92321725,42.25660692 8.904767893,42.25386824" />
<polygon id="2B009 ALERIA" points="9.496981083,42.04845125 9.494527647,42.05492184 9.486900715,42.05848241 9.473559361,42.07550985 9.456264228,42.07724331 9.446734397,42.0845681 9.451418763,42.10461233 9.443019008,42.1072789 9.438572953,42.11321128 9.438076983,42.12336595 9.439129428,42.12666476 9.456005342,42.13100111 9.45673617,42.13752913 9.451966679,42.14328359 9.452822809,42.14390761 9.454192716,42.1501894 9.469573888,42.14233526 9.492700077,42.14155955 9.51961629,42.13619042 9.531742604,42.13097058 9.536403047,42.13137714 9.548065015,42.14610207 9.556247066,42.14266514 9.549283664,42.10386464 9.496981083,42.04845125" />
<polygon id="2B010 ALGAJOLA" points="8.855768729,42.59764935 8.847209473,42.60378917 8.847486308,42.609219 8.850831755,42.61129837 8.867394997,42.60840556 8.869843414,42.60557538 8.86731669,42.60278446 8.855768729,42.59764935" />
<polygon id="2B012 ALTIANI" points="9.291795164,42.19924087 9.275833008,42.19510299 9.264481046,42.1992544 9.260768761,42.19764379 9.241941336,42.21824414 9.245192173,42.2280321 9.257762684,42.22682211 9.261698588,42.22494899 9.269421516,42.22888292 9.283591666,42.24246854 9.311423363,42.24447605 9.308099905,42.24212238 9.305218803,42.21863716 9.292738387,42.20881298 9.291795164,42.19924087" />
<polygon id="2B013 ALZI" points="9.293986594,42.30090526 9.296590714,42.30659323 9.306054781,42.31224361 9.327598278,42.32408072 9.341048219,42.32586613 9.30504493,42.30141203 9.293986594,42.30090526" />
<polygon id="2B015 AMPRIANI" points="9.360162746,42.24489091 9.348952628,42.25072885 9.345518287,42.25711039 9.35704574,42.26222655 9.366811844,42.25570808 9.367238232,42.2490285 9.360162746,42.24489091" />
<polygon id="2B016 ANTISANTI" points="9.438076983,42.12336595 9.419645924,42.12027532 9.393310093,42.12740491 9.386430691,42.13618636 9.385335153,42.14592588 9.377271864,42.14908941 9.373127538,42.15052897 9.361694377,42.14553695 9.343554237,42.14481335 9.318076745,42.15310684 9.316644081,42.18051659 9.328867916,42.17653254 9.35495562,42.19412853 9.368951903,42.18502983 9.382159236,42.18174667 9.387014513,42.17613478 9.399367273,42.18025776 9.407814881,42.17747509 9.442644264,42.14432917 9.451966679,42.14328359 9.45673617,42.13752913 9.456005342,42.13100111 9.439129428,42.12666476 9.438076983,42.12336595" />
<polygon id="2B020 AREGNO" points="8.898483057,42.5742277 8.884607459,42.57596791 8.860657513,42.58269565 8.852775792,42.59008786 8.855768729,42.59764935 8.86731669,42.60278446 8.869843414,42.60557538 8.867394997,42.60840556 8.875234092,42.6150962 8.881400728,42.60739105 8.894554029,42.59458473 8.898483057,42.5742277" />
<polygon id="2B023 ASCO" points="8.929641439,42.37299267 8.913785792,42.37511085 8.901384581,42.38411935 8.901413963,42.39103099 8.911220447,42.41019895 8.919920024,42.42606616 8.913899773,42.44615056 8.919039838,42.4595122 8.932367948,42.45577744 8.965155435,42.45618044 8.970660841,42.46192056 8.987793616,42.46740373 9.018268335,42.4939389 9.031831071,42.49692199 9.035949796,42.49516501 9.051495409,42.4981054 9.061082279,42.50430403 9.05800956,42.4869252 9.064830727,42.48235361 9.074224062,42.48179107 9.081780971,42.46887283 9.082091204,42.4338838 9.078511988,42.42756127 9.080385942,42.42101725 9.073392882,42.41730587 9.056556112,42.41157685 9.045243139,42.40042013 9.008328461,42.39627442 8.99070325,42.40134337 8.982764804,42.39769786 8.978412467,42.39153362 8.969311007,42.39076502 8.929641439,42.37299267" />
<polygon id="2B025 AVAPESSA" points="8.89491799,42.54996734 8.878941618,42.55403184 8.879529568,42.559859 8.890623381,42.56598074 8.899159767,42.56440897 8.916325499,42.56867759 8.89491799,42.54996734" />
<polygon id="2B029 BARBAGGIO" points="9.382026912,42.6673911 9.365557584,42.67426439 9.337571669,42.67813893 9.337476805,42.69128658 9.3288806,42.6935281 9.346998727,42.6938331 9.354970271,42.6970664 9.360229921,42.69160282 9.364853552,42.69128229 9.376298422,42.69707627 9.398521338,42.69321258 9.390876675,42.6775147 9.393186315,42.67461621 9.382026912,42.6673911" />
<polygon id="2B030 BARRETTALI" points="9.39149155,42.84513438 9.382395435,42.84647989 9.357550577,42.86130071 9.340295981,42.86567047 9.328267385,42.87602566 9.328078279,42.88653783 9.321679989,42.89581069 9.326389143,42.90118032 9.360781573,42.88962654 9.369529118,42.88839418 9.393811505,42.86405906 9.402042389,42.86118558 9.39149155,42.84513438" />
<polygon id="2B033 BASTIA" points="9.449197238,42.66224499 9.413344456,42.6665247 9.393186315,42.67461621 9.390876675,42.6775147 9.398521338,42.69321258 9.404835885,42.70479551 9.413809632,42.70520429 9.421098424,42.7090694 9.43865137,42.70630797 9.446228497,42.70966695 9.454509391,42.70812051 9.454870274,42.70145912 9.446972386,42.68583357 9.449197238,42.66224499" />
<polygon id="2B034 BELGODERE" points="9.038036142,42.57333189 9.015831182,42.57755326 9.00624743,42.58978735 8.998365284,42.61360083 9.000253826,42.64175207 9.003109535,42.6439809 9.009863742,42.64043603 9.017582183,42.64256193 9.023926586,42.6299955 9.016404476,42.61747208 9.016940995,42.61061639 9.025994025,42.60279312 9.030251785,42.58604353 9.041384577,42.57503565 9.038036142,42.57333189" />
<polygon id="2B036 BIGORNO" points="9.306240645,42.50268379 9.295813555,42.51368047 9.287446036,42.53284211 9.289590548,42.54920985 9.294395272,42.55191124 9.321310737,42.54444704 9.310029722,42.52587048 9.311260328,42.50559683 9.306240645,42.50268379" />
<polygon id="2B037 BIGUGLIA" points="9.414846665,42.58652513 9.41628519,42.60522697 9.418157394,42.6114644 9.398234559,42.62051762 9.405586215,42.62450527 9.394522285,42.63474818 9.41714315,42.6391451 9.4401664,42.6362156 9.462848258,42.63924632 9.485803353,42.61336213 9.466787942,42.59852342 9.414846665,42.58652513" />
<polygon id="2B039 BISINCHI" points="9.331247315,42.4551899 9.31815676,42.46970207 9.28961142,42.48828288 9.290508977,42.49174678 9.298598507,42.49511915 9.306240645,42.50268379 9.311260328,42.50559683 9.32949255,42.50592157 9.340736289,42.48356374 9.333045466,42.46592239 9.331247315,42.4551899" />
<polygon id="2B042 BORGO" points="9.395719686,42.5500811 9.381934102,42.56008914 9.382642649,42.56700057 9.414846665,42.58652513 9.466787942,42.59852342 9.485803353,42.61336213 9.515923082,42.58339043 9.527541005,42.56496301 9.467281637,42.55176 9.433775218,42.54882744 9.410022504,42.55146753 9.395719686,42.5500811" />
<polygon id="2B043 BRANDO" points="9.468417042,42.75283799 9.442763418,42.75663341 9.419400984,42.76678034 9.414992482,42.77264716 9.418387471,42.78851071 9.416431805,42.79563778 9.459340813,42.79790944 9.467891685,42.80109189 9.491457928,42.79752634 9.469850738,42.76647337 9.468417042,42.75283799" />
<polygon id="2B045 BUSTANICO" points="9.306054781,42.31224361 9.293577395,42.31132506 9.289205636,42.3167594 9.277495214,42.31925564 9.275476937,42.33101474 9.281256096,42.33515413 9.314248066,42.33772398 9.328255766,42.33610578 9.340236164,42.34168496 9.344163222,42.3392323 9.347158529,42.32943237 9.344470041,42.3282856 9.341048219,42.32586613 9.327598278,42.32408072 9.306054781,42.31224361" />
<polygon id="2B046 CAGNANO" points="9.480014626,42.86015923 9.452754639,42.85788041 9.41748619,42.86442951 9.403800508,42.86266834 9.410613817,42.87958327 9.420820895,42.88655979 9.477581285,42.88184381 9.47446842,42.87561676 9.480899526,42.86664717 9.480014626,42.86015923" />
<polygon id="2B047 CALACUCCIA" points="9.038769369,42.29569137 9.036849263,42.30226342 9.025676201,42.30613408 9.011380239,42.32299778 8.993808752,42.32422529 8.997894448,42.33409895 9.025096182,42.35261567 9.040071865,42.33559395 9.063575825,42.32441125 9.075871269,42.31379283 9.038769369,42.29569137" />
<path id="2B049 LCALENZANA" d="M8.911220447,42.41019895 L8.884218573,42.41310235 L8.863878271,42.42094961 L8.846684794,42.4160464 L8.838316953,42.4189756 L8.836789371,42.42231318 L8.802369287,42.43339827 L8.798198398,42.45045294 L8.773979123,42.46090871 L8.7604485,42.4587396 L8.734187484,42.44405196 L8.717946113,42.45675911 L8.694849777,42.45991684 L8.679451771,42.46728232 L8.676360207,42.47617108 L8.653684943,42.47522349 L8.64750423,42.47475841 L8.664904903,42.49574302 L8.66387879,42.51452552 L8.675327291,42.51812525 L8.685472269,42.51421366 L8.697753293,42.52619371 L8.720584379,42.52391603 L8.717443529,42.52891562 L8.728180571,42.53426075 L8.737368856,42.53511853 L8.764326145,42.51673662 L8.768908619,42.5160109 L8.773468669,42.51678242 L8.790128363,42.52308029 L8.795441576,42.52872249 L8.815314127,42.53698739 L8.833743729,42.53345625 L8.848440029,42.52443879 L8.85791834,42.52344038 L8.918912107,42.49798366 L8.921589617,42.49184015 L8.923643094,42.48543382 L8.91581726,42.47371751 L8.916452379,42.46737222 L8.919039838,42.4595122 L8.913899773,42.44615056 L8.919920024,42.42606616 L8.911220447,42.41019895 Z M8.80918014,42.48497911 L8.816311008,42.49152133 L8.816762686,42.49177608 L8.819840054,42.49259045 L8.821335989,42.49354527 L8.823079811,42.49381049 L8.825752613,42.4949623 L8.826986392,42.49512015 L8.829105001,42.49486901 L8.829276549,42.49670745 L8.829580228,42.49718658 L8.83078121,42.49811236 L8.83267306,42.50058674 L8.833566698,42.50270112 L8.833705786,42.50287378 L8.835389365,42.50314212 L8.835113317,42.50464454 L8.835231329,42.50472821 L8.837165362,42.50506393 L8.837831734,42.50502741 L8.838545223,42.5048531 L8.839036581,42.50428533 L8.839274407,42.50422723 L8.839641467,42.50424316 L8.840334309,42.5043494 L8.840468932,42.50447723 L8.840628269,42.50546002 L8.842113609,42.50569406 L8.842321393,42.50594407 L8.842482968,42.50634084 L8.842514402,42.5066546 L8.841391203,42.50699563 L8.841691898,42.50756505 L8.843110026,42.50834361 L8.843292712,42.50882936 L8.843259078,42.50910162 L8.842706203,42.50917702 L8.842467089,42.51031688 L8.843429755,42.51080492 L8.843557716,42.51147396 L8.842438922,42.51185983 L8.842484765,42.51280378 L8.840626834,42.51493381 L8.840173581,42.51649105 L8.838998566,42.51692503 L8.838386815,42.51750841 L8.838449653,42.5198396 L8.835717106,42.51883551 L8.833489983,42.51849775 L8.827583107,42.51450331 L8.825403189,42.51475773 L8.821248142,42.5146333 L8.821504693,42.51366381 L8.821048446,42.51153443 L8.818990432,42.50983508 L8.815983268,42.50851202 L8.815340086,42.50878149 L8.814274396,42.50847911 L8.80812208,42.51153686 L8.805554457,42.51095571 L8.804453879,42.5120162 L8.804007827,42.51194135 L8.802725433,42.51301172 L8.801841869,42.51282549 L8.801126447,42.51359456 L8.800283533,42.51369453 L8.799478957,42.51418 L8.799390607,42.5120666 L8.800279771,42.51120696 L8.800132772,42.50678926 L8.801291642,42.50435558 L8.801729045,42.50238482 L8.801146695,42.50155123 L8.801011458,42.49761966 L8.801513757,42.4929954 L8.802144209,42.49137468 L8.802850875,42.49125506 L8.803189824,42.49086704 L8.804900839,42.48860154 L8.805543262,42.48698014 L8.80918014,42.48497911 Z" />
<polygon id="2B050 CALVI" points="8.815314127,42.53698739 8.795441576,42.52872249 8.790128363,42.52308029 8.773468669,42.51678242 8.768908619,42.5160109 8.764326145,42.51673662 8.737368856,42.53511853 8.728180571,42.53426075 8.717443529,42.52891562 8.711093289,42.53748509 8.72356627,42.55429289 8.713721857,42.564303 8.717073937,42.5693872 8.70740896,42.56968857 8.711089538,42.57812645 8.725558248,42.58325466 8.726399177,42.56277568 8.737694247,42.56616153 8.759771939,42.56906357 8.756554011,42.56241389 8.767002381,42.55574694 8.786610998,42.55799257 8.796518957,42.56505323 8.81008638,42.55326344 8.805629452,42.55246061 8.802715394,42.54633649 8.815314127,42.53698739" />
<polygon id="2B051 CAMBIA" points="9.328671897,42.36262649 9.315527704,42.36183068 9.307750519,42.35387108 9.288020071,42.36098266 9.279057406,42.36062009 9.280518812,42.36392391 9.278968152,42.37868551 9.300995209,42.38017704 9.318654084,42.37826296 9.320793564,42.37533145 9.324922738,42.37662768 9.328671897,42.36262649" />
<polygon id="2B052 CAMPANA" points="9.344626328,42.38246854 9.332156367,42.38311304 9.32684552,42.39123818 9.326710646,42.39616961 9.352768655,42.39101756 9.355741196,42.3884863 9.35031647,42.3831206 9.344626328,42.38246854" />
<polygon id="2B053 CAMPI" points="9.409641731,42.25413815 9.4042175,42.26268901 9.412316398,42.27135176 9.431490146,42.28187716 9.44399712,42.26985583 9.443917092,42.26968035 9.43718634,42.2651116 9.4151246,42.25975768 9.409641731,42.25413815" />
<polygon id="2B054 CAMPILE" points="9.370317978,42.48455721 9.346507243,42.47871073 9.340736289,42.48356374 9.32949255,42.50592157 9.334993176,42.50595521 9.341735882,42.51045989 9.367710335,42.50531153 9.38462912,42.50988109 9.380544632,42.50285678 9.370317978,42.48455721" />
<polygon id="2B055 CAMPITELLO" points="9.311260328,42.50559683 9.310029722,42.52587048 9.321310737,42.54444704 9.343628746,42.55014632 9.346047024,42.54502396 9.333914705,42.53551869 9.334993176,42.50595521 9.32949255,42.50592157 9.311260328,42.50559683" />
<polygon id="2B057 CANALE-DI-VERDE" points="9.553220097,42.24143973 9.539013009,42.24137004 9.525716389,42.24511097 9.497378364,42.26370488 9.47600168,42.27107189 9.44399712,42.26985583 9.447547688,42.27872041 9.457429746,42.28442252 9.485301652,42.28169454 9.515116431,42.27102133 9.526887807,42.26639294 9.543792385,42.25112103 9.552324422,42.24959317 9.55515878,42.25214142 9.553220097,42.24143973" />
<polygon id="2B058 CANARI" points="9.32629971,42.81227212 9.319322386,42.82504294 9.31003359,42.83248285 9.335888546,42.86450589 9.340295981,42.86567047 9.357550577,42.86130071 9.382395435,42.84647989 9.39149155,42.84513438 9.385071198,42.83481774 9.37183761,42.83832167 9.345140064,42.83172493 9.331237412,42.82203851 9.32629971,42.81227212" />
<polygon id="2B059 CANAVAGGIA" points="9.261817772,42.47555642 9.249933799,42.47082647 9.236382422,42.46961954 9.223519478,42.4726898 9.210206131,42.47165499 9.199932174,42.48179372 9.191471782,42.48334106 9.188614096,42.48935913 9.180766305,42.49141095 9.179634184,42.49452434 9.19276119,42.50638547 9.204647569,42.51638802 9.221633576,42.51839099 9.221781947,42.52800393 9.236106883,42.52002446 9.245314229,42.52085571 9.256944254,42.5166563 9.265201742,42.51965177 9.282356062,42.50813554 9.287775034,42.50266652 9.284720298,42.50010543 9.261817772,42.47555642" />
<polygon id="2B063 CARCHETO-BRUSTICO" points="9.344163222,42.3392323 9.340236164,42.34168496 9.339308936,42.34210098 9.364845959,42.37134939 9.375003448,42.36959526 9.378851226,42.36529746 9.367453174,42.35164372 9.372858604,42.34714458 9.344163222,42.3392323" />
<polygon id="2B067 CARPINETO" points="9.372858604,42.34714458 9.367453174,42.35164372 9.378851226,42.36529746 9.381609194,42.36494247 9.388367657,42.36202945 9.392184981,42.35390954 9.372858604,42.34714458" />
<polygon id="2B068 CARTICASI" points="9.281256096,42.33515413 9.27168427,42.34051643 9.270447088,42.35005653 9.279057406,42.36062009 9.288020071,42.36098266 9.307750519,42.35387108 9.315527704,42.36183068 9.328671897,42.36262649 9.331337076,42.35984377 9.333917163,42.34719255 9.339308936,42.34210098 9.340236164,42.34168496 9.328255766,42.33610578 9.314248066,42.33772398 9.281256096,42.33515413" />
<polygon id="2B069 CASABIANCA" points="9.373165538,42.43836655 9.361868783,42.43737446 9.360112768,42.443269 9.357678654,42.45154872 9.364872703,42.45598838 9.368270355,42.45766086 9.386084027,42.45094776 9.391532673,42.44943917 9.384066954,42.44152752 9.380197331,42.4426615 9.37521593,42.43818958 9.373165538,42.43836655" />
<polygon id="2B072 CASALTA" points="9.431258256,42.42625726 9.417724412,42.42794061 9.404624153,42.43069631 9.403991843,42.4411325 9.408487478,42.44725583 9.41698718,42.44493075 9.422192203,42.43944902 9.434962085,42.44075154 9.446319219,42.43873812 9.447906866,42.43602645 9.444956525,42.43047841 9.431258256,42.42625726" />
<polygon id="2B073 CASAMACCIOLI" points="9.038769369,42.29569137 9.03535187,42.29328078 9.036532737,42.28283897 9.020491999,42.27558398 8.988013177,42.24200082 8.97409313,42.24156907 8.960731313,42.25102695 8.947106523,42.25232338 8.939519793,42.25646154 8.926624311,42.2541906 8.951293523,42.26463409 8.970241656,42.26589492 8.982971809,42.2762368 8.983065755,42.28297327 8.97603288,42.29207614 8.976613876,42.31321551 8.993808752,42.32422529 9.011380239,42.32299778 9.025676201,42.30613408 9.036849263,42.30226342 9.038769369,42.29569137" />
<polygon id="2B074 CASANOVA" points="9.123746649,42.23894639 9.118940974,42.24473126 9.120438713,42.24803409 9.141055315,42.27432691 9.1489933,42.2779057 9.16152643,42.27346468 9.179843162,42.27507682 9.174603669,42.26338334 9.182113826,42.25669882 9.177307429,42.25047935 9.172877971,42.2497817 9.167178008,42.25499008 9.149419362,42.25735519 9.128215749,42.24479069 9.123746649,42.23894639" />
<polygon id="2B075 CASEVECCHIE" points="9.356981762,42.12363412 9.343604245,42.135534 9.343554237,42.14481335 9.361694377,42.14553695 9.373127538,42.15052897 9.377271864,42.14908941 9.385335153,42.14592588 9.386430691,42.13618636 9.393310093,42.12740491 9.382592075,42.12284102 9.356981762,42.12363412" />
<polygon id="2B077 CASTELLARE-DI-CASINCA" points="9.536057444,42.47046759 9.506214322,42.46211325 9.478601058,42.46015433 9.467032903,42.46534959 9.464565418,42.47551084 9.482748992,42.47347578 9.531422811,42.48337097 9.536057444,42.47046759" />
<polygon id="2B078 CASTELLARE-DI-MERCURIO" points="9.246616859,42.29063089 9.238220478,42.2887537 9.228785554,42.29559158 9.238928954,42.30234346 9.240582026,42.32284708 9.254999754,42.33564889 9.259121187,42.32817523 9.255268721,42.32226239 9.257408298,42.30899123 9.246616859,42.29063089" />
<polygon id="2B079 CASTELLO-DI-ROSTINO" points="9.325430144,42.44623859 9.308135211,42.44810409 9.287473949,42.47026564 9.273977252,42.4707104 9.261817772,42.47555642 9.284720298,42.50010543 9.298598507,42.49511915 9.290508977,42.49174678 9.28961142,42.48828288 9.31815676,42.46970207 9.331247315,42.4551899 9.325430144,42.44623859" />
<polygon id="2B080 CASTIFAO" points="9.179634184,42.49452434 9.177669276,42.50058946 9.158464617,42.51015946 9.149441184,42.5026019 9.128000851,42.49616478 9.100330413,42.49685187 9.082603388,42.50117474 9.07836479,42.50726812 9.081239401,42.52127736 9.074522912,42.53811509 9.080984375,42.54255228 9.080138023,42.55243746 9.090998404,42.55798472 9.094237152,42.56422847 9.10215182,42.56619222 9.109523369,42.56262317 9.126601617,42.56124628 9.130763249,42.55964545 9.131687593,42.54953842 9.139074564,42.54082665 9.175543608,42.50997307 9.19276119,42.50638547 9.179634184,42.49452434" />
<polygon id="2B081 CASTIGLIONE" points="9.112127649,42.38761708 9.0944826,42.38797203 9.073392882,42.41730587 9.080385942,42.42101725 9.078511988,42.42756127 9.107061547,42.43012725 9.118464623,42.42675827 9.131437357,42.427571 9.147312596,42.42242627 9.15177479,42.39548159 9.144830166,42.39155573 9.119063979,42.39149128 9.112127649,42.38761708" />
<polygon id="2B082 CASTINETA" points="9.324162735,42.40499582 9.309324275,42.41383058 9.287630147,42.42120209 9.259310904,42.42290867 9.242079075,42.43464236 9.227790327,42.43557002 9.219467703,42.44405472 9.228927782,42.44508823 9.265354386,42.43817024 9.284279647,42.42783835 9.30758634,42.42579141 9.317442087,42.41822698 9.32682335,42.41697491 9.323641174,42.41130289 9.324162735,42.40499582" />
<polygon id="2B083 CASTIRLA" points="9.098218398,42.33568799 9.084524939,42.34911169 9.085184236,42.35252653 9.090298471,42.36206858 9.103458833,42.37168969 9.112127649,42.38761708 9.119063979,42.39149128 9.144830166,42.39155573 9.15177479,42.39548159 9.162825431,42.39646441 9.164904709,42.39415303 9.16035204,42.3807402 9.165966891,42.37114659 9.148572185,42.36055165 9.141781341,42.35168579 9.118433562,42.35005801 9.098218398,42.33568799" />
<polygon id="2B084 CATERI" points="8.879529568,42.559859 8.877077565,42.56045394 8.87628715,42.56615879 8.882624381,42.57010043 8.884607459,42.57596791 8.898483057,42.5742277 8.918838945,42.57456928 8.917080471,42.5715476 8.916325499,42.56867759 8.899159767,42.56440897 8.890623381,42.56598074 8.879529568,42.559859" />
<polygon id="2B086 CENTURI" points="9.393178104,42.94604607 9.349903459,42.96086908 9.347068838,42.96347284 9.350014044,42.96971345 9.343577905,42.97835864 9.343577114,42.99773893 9.36055248,42.97717339 9.379946695,42.96751366 9.385104893,42.95502625 9.393507961,42.9582611 9.393178104,42.94604607" />
<polygon id="2B087 CERVIONE" points="9.553670922,42.29923631 9.539609109,42.30048254 9.529297684,42.31203858 9.517345665,42.31752572 9.50348951,42.31913302 9.489864078,42.31669332 9.481668306,42.32409279 9.474331355,42.3257669 9.469645046,42.33448433 9.478549088,42.33717895 9.504451177,42.33061742 9.52708015,42.32940009 9.534473582,42.32541006 9.542538109,42.32862003 9.553670922,42.29923631" />
<polygon id="2B088 CHIATRA" points="9.515116431,42.27102133 9.485301652,42.28169454 9.457429746,42.28442252 9.467700617,42.29988426 9.498464957,42.29961912 9.497375968,42.29626801 9.508815385,42.29023739 9.515504803,42.2811606 9.515116431,42.27102133" />
<polygon id="2B093 CORBARA" points="8.918890249,42.60232473 8.906043494,42.59995343 8.881400728,42.60739105 8.875234092,42.6150962 8.882578784,42.62738516 8.905919921,42.62833198 8.924268746,42.63803485 8.923397732,42.62611924 8.915367208,42.60812776 8.918890249,42.60232473" />
<polygon id="2B095 CORSCIA" points="9.093242118,42.3233803 9.093557987,42.31999979 9.082676486,42.30927468 9.075871269,42.31379283 9.063575825,42.32441125 9.040071865,42.33559395 9.025096182,42.35261567 9.018525485,42.35772948 9.016908654,42.3716578 8.978412467,42.39153362 8.982764804,42.39769786 8.99070325,42.40134337 9.008328461,42.39627442 9.045243139,42.40042013 9.056556112,42.41157685 9.073392882,42.41730587 9.0944826,42.38797203 9.112127649,42.38761708 9.103458833,42.37168969 9.090298471,42.36206858 9.085184236,42.35252653 9.084524939,42.34911169 9.098218398,42.33568799 9.09301341,42.33004611 9.093242118,42.3233803" />
<polygon id="2B096 CORTE" points="9.045742524,42.20772985 9.02325174,42.20357551 9.006493091,42.20871732 9.002933113,42.21420034 8.99452516,42.21449584 8.984029021,42.224615 8.979793816,42.22398872 8.972326259,42.23233156 8.94861987,42.23402443 8.940114669,42.23721385 8.935556466,42.24680578 8.926624311,42.2541906 8.939519793,42.25646154 8.947106523,42.25232338 8.960731313,42.25102695 8.97409313,42.24156907 8.988013177,42.24200082 9.020491999,42.27558398 9.036532737,42.28283897 9.03535187,42.29328078 9.038769369,42.29569137 9.075871269,42.31379283 9.082676486,42.30927468 9.093557987,42.31999979 9.093242118,42.3233803 9.109348654,42.32953139 9.115842975,42.33830758 9.124290648,42.3408859 9.146594527,42.34336592 9.153933628,42.33989387 9.160983689,42.33138055 9.172591605,42.32728075 9.173749448,42.32064139 9.177582122,42.31885886 9.19441422,42.32248506 9.188636657,42.29544289 9.197199025,42.28743375 9.205720196,42.28478122 9.208838772,42.28236306 9.2053575,42.28033096 9.179843162,42.27507682 9.16152643,42.27346468 9.1489933,42.2779057 9.141055315,42.27432691 9.120438713,42.24803409 9.118940974,42.24473126 9.123746649,42.23894639 9.116702892,42.2301588 9.099184183,42.22486742 9.090317641,42.21668813 9.074266137,42.20969542 9.065263054,42.20985942 9.053991392,42.21599268 9.045742524,42.20772985" />
<polygon id="2B097 COSTA" points="9.004393338,42.56896555 8.999903306,42.56847901 8.994357294,42.57373165 8.996031849,42.58360011 8.999952558,42.58530002 9.004393338,42.56896555" />
<polygon id="2B101 CROCE" points="9.32577114,42.39861509 9.32587019,42.40222512 9.324162735,42.40499582 9.323641174,42.41130289 9.342074811,42.41240526 9.363713758,42.41811916 9.38066277,42.40883409 9.389042031,42.40856536 9.391907275,42.40428096 9.389069026,42.39791362 9.384613372,42.39900195 9.384225284,42.39879079 9.354778617,42.40613701 9.341427803,42.40510362 9.339388626,42.40212323 9.32577114,42.39861509" />
<polygon id="2B102 CROCICCHIA" points="9.36469288,42.46963466 9.349849339,42.4636405 9.333045466,42.46592239 9.340736289,42.48356374 9.346507243,42.47871073 9.370317978,42.48455721 9.37223022,42.47875212 9.36469288,42.46963466" />
<polygon id="2B105 ERBAJOLO" points="9.257762684,42.22682211 9.245192173,42.2280321 9.228991134,42.24061426 9.233852844,42.24479998 9.232146697,42.24985848 9.245671069,42.24890065 9.248964836,42.25133905 9.253904119,42.26804171 9.264065936,42.27475375 9.282449595,42.27626331 9.290704358,42.27309653 9.298690899,42.2646257 9.283637126,42.25770196 9.270263937,42.23629765 9.257762684,42.22682211" />
<polygon id="2B106 ERONE" points="9.280518812,42.36392391 9.251389128,42.3715474 9.258858558,42.38690456 9.270528685,42.38526097 9.278968152,42.37868551 9.280518812,42.36392391" />
<polygon id="2B107 ERSA" points="9.393507961,42.9582611 9.385104893,42.95502625 9.379946695,42.96751366 9.36055248,42.97717339 9.343577114,42.99773893 9.357600551,43.00622071 9.371358497,43.00522463 9.38389554,43.00920788 9.404635082,43.00563565 9.413532793,42.98210443 9.393507961,42.9582611" />
<polygon id="2B109 FARINOLE" points="9.396514443,42.72775572 9.376706368,42.71773586 9.349406376,42.71061186 9.335588995,42.7136781 9.329004874,42.71881288 9.342998314,42.7329208 9.343822424,42.7396823 9.352867997,42.7398126 9.375029165,42.75072536 9.388118085,42.74786925 9.395447279,42.74051196 9.396514443,42.72775572" />
<polygon id="2B110 FAVALELLO" points="9.235664062,42.27661604 9.231246825,42.27754266 9.222624612,42.28927261 9.228785554,42.29559158 9.238220478,42.2887537 9.246616859,42.29063089 9.274476987,42.30222259 9.280297153,42.29545908 9.279153124,42.29215485 9.257020873,42.28799852 9.249108726,42.27610454 9.235664062,42.27661604" />
<polygon id="2B111 FELCE" points="9.412338632,42.33537218 9.410385093,42.35590582 9.413846497,42.3576447 9.429941771,42.35496732 9.439920118,42.3490874 9.44505658,42.34043433 9.412338632,42.33537218" />
<polygon id="2B112 FELICETO" points="8.939586595,42.51594407 8.932348167,42.51965583 8.934460841,42.52999549 8.923043349,42.54058321 8.930305415,42.55300785 8.917080471,42.5715476 8.918838945,42.57456928 8.92474268,42.58116519 8.941822026,42.58355974 8.949151215,42.58735243 8.948747536,42.57468104 8.951721524,42.57227023 8.944673759,42.56344963 8.944675634,42.54350774 8.965814504,42.53086814 8.961501692,42.51813669 8.939586595,42.51594407" />
<polygon id="2B113 FICAJA" points="9.389042031,42.40856536 9.38066277,42.40883409 9.363713758,42.41811916 9.360292077,42.42458222 9.369925009,42.43187832 9.396499761,42.42676632 9.390126376,42.41613841 9.389042031,42.40856536" />
<polygon id="2B116 FOCICCHIA" points="9.311423363,42.24447605 9.283591666,42.24246854 9.269421516,42.22888292 9.261698588,42.22494899 9.257762684,42.22682211 9.270263937,42.23629765 9.283637126,42.25770196 9.298690899,42.2646257 9.309806093,42.26943775 9.313321261,42.25723754 9.311423363,42.24447605" />
<polygon id="2B120 FURIANI" points="9.394522285,42.63474818 9.392237923,42.63786165 9.386306746,42.64259146 9.380275665,42.65811484 9.382026912,42.6673911 9.393186315,42.67461621 9.413344456,42.6665247 9.449197238,42.66224499 9.462848258,42.63924632 9.4401664,42.6362156 9.41714315,42.6391451 9.394522285,42.63474818" />
<polygon id="2B121 GALERIA" points="8.72475668,42.34217486 8.714449821,42.34845193 8.683479612,42.34803125 8.68131814,42.35816731 8.658682064,42.36004171 8.637098318,42.37283981 8.614262804,42.37384094 8.601111364,42.37013739 8.586955276,42.37840618 8.573411068,42.38140571 8.585506662,42.38423112 8.593460584,42.38275875 8.609800726,42.38736755 8.602118927,42.39903621 8.612426334,42.40280911 8.60203135,42.40852045 8.60691759,42.41204769 8.606946785,42.41678603 8.620197822,42.41724028 8.622575787,42.4212238 8.636799997,42.41838949 8.647034321,42.41266512 8.656551561,42.41763852 8.66363023,42.42704864 8.660498632,42.4342715 8.648751613,42.4436281 8.670867113,42.44445267 8.662723684,42.4558358 8.679451771,42.46728232 8.694849777,42.45991684 8.717946113,42.45675911 8.734187484,42.44405196 8.7604485,42.4587396 8.773979123,42.46090871 8.798198398,42.45045294 8.802369287,42.43339827 8.836789371,42.42231318 8.838316953,42.4189756 8.829638627,42.41599955 8.814701123,42.40243261 8.801356842,42.39871813 8.791861175,42.39897435 8.776159879,42.40681299 8.757242936,42.40551345 8.733898634,42.40877521 8.730080657,42.40667385 8.71858682,42.39572106 8.72083525,42.39260816 8.750815914,42.38333971 8.72475668,42.34217486" />
<polygon id="2B122 GAVIGNANO" points="9.32587019,42.40222512 9.289131797,42.40870582 9.279744607,42.40797122 9.273890649,42.41339331 9.247496287,42.42077208 9.242327225,42.42637744 9.223850977,42.42522408 9.209121344,42.43319898 9.201513501,42.44499455 9.219467703,42.44405472 9.227790327,42.43557002 9.242079075,42.43464236 9.259310904,42.42290867 9.287630147,42.42120209 9.309324275,42.41383058 9.324162735,42.40499582 9.32587019,42.40222512" />
<polygon id="2B123 GHISONACCIA" points="9.441408505,41.98962435 9.417811743,42.00579008 9.39995329,42.00927127 9.379849771,42.01747304 9.368082402,42.02812531 9.366629215,42.03468494 9.370466786,42.04308925 9.366945183,42.04875501 9.367462207,42.06144302 9.358737538,42.07347937 9.358963841,42.08349883 9.34094716,42.09326129 9.344521197,42.10090764 9.389519627,42.08282928 9.431862323,42.06139429 9.456264228,42.07724331 9.473559361,42.07550985 9.486900715,42.05848241 9.494527647,42.05492184 9.496981083,42.04845125 9.457181056,42.00220092 9.441408505,41.98962435" />
<polygon id="2B124 GHISONI" points="9.160211567,42.02680052 9.151657893,42.03896038 9.131868812,42.05287117 9.13356604,42.05939668 9.129171516,42.06491461 9.133688097,42.09055437 9.149837599,42.10275741 9.151574888,42.10963237 9.177890722,42.1337871 9.180083944,42.14058139 9.204076966,42.15055349 9.219582018,42.16300262 9.223985749,42.16191464 9.237792533,42.14410182 9.250792962,42.14129794 9.259522299,42.12935233 9.276215651,42.12364046 9.281453039,42.11035845 9.332590051,42.10632797 9.344521197,42.10090764 9.34094716,42.09326129 9.322031971,42.09204063 9.314006539,42.09360163 9.3126091,42.09636224 9.284597047,42.0951815 9.278459579,42.09041702 9.275543228,42.07638442 9.2626905,42.07237809 9.240044563,42.07432054 9.229148649,42.05942417 9.228445024,42.04572081 9.221084973,42.02760592 9.186271812,42.03070378 9.160211567,42.02680052" />
<polygon id="2B125 GIOCATOJO" points="9.360112768,42.443269 9.357698484,42.44055462 9.336735733,42.43698992 9.327558448,42.4438576 9.357678654,42.45154872 9.360112768,42.443269" />
<polygon id="2B126 GIUNCAGGIO" points="9.451966679,42.14328359 9.442644264,42.14432917 9.407814881,42.17747509 9.399367273,42.18025776 9.387014513,42.17613478 9.382159236,42.18174667 9.368951903,42.18502983 9.35495562,42.19412853 9.353598513,42.19726619 9.344834022,42.19638493 9.347466958,42.21766638 9.364136488,42.2237353 9.373790682,42.2074495 9.402623578,42.19497335 9.412956031,42.17893108 9.452822809,42.14390761 9.451966679,42.14328359" />
<polygon id="2B134 L'ILE-ROUSSE" points="8.935265812,42.62206092 8.923397732,42.62611924 8.924268746,42.63803485 8.935515778,42.64067383 8.94043336,42.6356128 8.948379084,42.63354742 8.935265812,42.62206092" />
<polygon id="2B135 ISOLACCIO-DI-FIUMORBO" points="9.220242627,41.98962291 9.215611522,41.9949514 9.221084973,42.02760592 9.228445024,42.04572081 9.251959895,42.04704572 9.276628726,42.03618307 9.299911468,42.03242735 9.312434694,42.03713333 9.316532121,42.03554552 9.309071372,42.0130249 9.312506627,42.01080073 9.31492604,41.99777617 9.323555416,41.99599807 9.306755379,41.9926852 9.297322522,41.98594751 9.284704434,41.98837551 9.280955753,41.99467316 9.259059262,41.99781148 9.238632281,41.99022364 9.220242627,41.98962291" />
<polygon id="2B136 LAMA" points="9.212276574,42.57905737 9.17202237,42.56213379 9.154256962,42.56139354 9.133818183,42.56989339 9.125892201,42.58547074 9.135062048,42.60081402 9.134835289,42.60758108 9.139512579,42.59764534 9.161572734,42.59135047 9.209453406,42.59457931 9.210229398,42.58594905 9.207450949,42.58381127 9.212276574,42.57905737" />
<polygon id="2B137 LANO" points="9.233974428,42.35534068 9.22940121,42.35873747 9.226324298,42.36522903 9.227386889,42.38238756 9.202443806,42.3908605 9.20904245,42.39549727 9.22595846,42.39294811 9.235975131,42.386852 9.256987923,42.39203691 9.258858558,42.38690456 9.251389128,42.3715474 9.24756237,42.36589385 9.236889606,42.3611292 9.233974428,42.35534068" />
<polygon id="2B138 LAVATOGGIO" points="8.877077565,42.56045394 8.856820645,42.56128017 8.850069491,42.56496817 8.84038219,42.58012985 8.852775792,42.59008786 8.860657513,42.58269565 8.884607459,42.57596791 8.882624381,42.57010043 8.87628715,42.56615879 8.877077565,42.56045394" />
<polygon id="2B140 LENTO" points="9.298598507,42.49511915 9.284720298,42.50010543 9.287775034,42.50266652 9.282356062,42.50813554 9.265201742,42.51965177 9.256944254,42.5166563 9.245314229,42.52085571 9.236106883,42.52002446 9.221781947,42.52800393 9.227075777,42.54058078 9.225362089,42.54691211 9.228745792,42.54913115 9.242353489,42.55661338 9.289590548,42.54920985 9.287446036,42.53284211 9.295813555,42.51368047 9.306240645,42.50268379 9.298598507,42.49511915" />
<polygon id="2B143 LINGUIZZETTA" points="9.554385493,42.15679282 9.549702784,42.15664076 9.542609601,42.16551018 9.524252203,42.16664275 9.516042946,42.16998848 9.499749921,42.1822065 9.4801506,42.19145014 9.470941676,42.21115548 9.472806117,42.22122167 9.475997321,42.22364167 9.475371521,42.23037953 9.469465976,42.23952267 9.456133974,42.24825222 9.443917092,42.26968035 9.44399712,42.26985583 9.47600168,42.27107189 9.497378364,42.26370488 9.525716389,42.24511097 9.539013009,42.24137004 9.553220097,42.24143973 9.553137043,42.2200998 9.558745133,42.19575707 9.554385493,42.15679282" />
<polygon id="2B145 LORETO-DI-CASINCA" points="9.40828305,42.46335721 9.405621243,42.47006499 9.411890328,42.48686824 9.41796041,42.49197694 9.44461826,42.48662354 9.446597573,42.48093888 9.442240517,42.47580026 9.435648932,42.46420386 9.432755432,42.46193472 9.40828305,42.46335721" />
<polygon id="2B147 LOZZI" points="8.997894448,42.33409895 8.966116938,42.33722251 8.955299484,42.34826705 8.950439314,42.36140162 8.930156772,42.36956584 8.929641439,42.37299267 8.969311007,42.39076502 8.978412467,42.39153362 9.016908654,42.3716578 9.018525485,42.35772948 9.025096182,42.35261567 8.997894448,42.33409895" />
<polygon id="2B148 LUCCIANA" points="9.428378046,42.51406765 9.427005675,42.51920127 9.42499822,42.52897306 9.407286502,42.54012338 9.403983375,42.54668959 9.395719686,42.5500811 9.410022504,42.55146753 9.433775218,42.54882744 9.467281637,42.55176 9.527541005,42.56496301 9.534349836,42.52330395 9.533107218,42.52375001 9.525091726,42.52382644 9.50904088,42.53515469 9.499817645,42.53600648 9.472593311,42.53423649 9.453491229,42.52506789 9.446101469,42.52352205 9.438925499,42.51662331 9.428378046,42.51406765" />
<polygon id="2B149 LUGO-DI-NAZZA" points="9.366945183,42.04875501 9.362887632,42.04702521 9.339282102,42.05801628 9.316268448,42.06075468 9.286215113,42.06961233 9.275543228,42.07638442 9.278459579,42.09041702 9.284597047,42.0951815 9.3126091,42.09636224 9.314006539,42.09360163 9.322031971,42.09204063 9.34094716,42.09326129 9.358963841,42.08349883 9.358737538,42.07347937 9.367462207,42.06144302 9.366945183,42.04875501" />
<polygon id="2B150 LUMIO" points="8.850069491,42.56496817 8.823825773,42.5519098 8.81008638,42.55326344 8.796518957,42.56505323 8.803186145,42.56991882 8.801672738,42.58337833 8.809426268,42.5920158 8.805764824,42.60191472 8.823566957,42.60544282 8.831854452,42.60216855 8.847486308,42.609219 8.847209473,42.60378917 8.855768729,42.59764935 8.852775792,42.59008786 8.84038219,42.58012985 8.850069491,42.56496817" />
<polygon id="2B152 LURI" points="9.402042389,42.86118558 9.393811505,42.86405906 9.369529118,42.88839418 9.360781573,42.88962654 9.362054923,42.89608279 9.376995945,42.91153375 9.390348183,42.92096987 9.41094707,42.91242275 9.424788781,42.91006014 9.437205284,42.89974209 9.451294632,42.89798354 9.474493197,42.90010337 9.473900378,42.8875522 9.477581285,42.88184381 9.420820895,42.88655979 9.410613817,42.87958327 9.403800508,42.86266834 9.402042389,42.86118558" />
<polygon id="2B153 MANSO" points="8.857165708,42.33098309 8.820055476,42.31666581 8.789823626,42.32553669 8.771169269,42.32540736 8.75626419,42.33844493 8.72475668,42.34217486 8.750815914,42.38333971 8.72083525,42.39260816 8.71858682,42.39572106 8.730080657,42.40667385 8.733898634,42.40877521 8.757242936,42.40551345 8.776159879,42.40681299 8.791861175,42.39897435 8.801356842,42.39871813 8.814701123,42.40243261 8.829638627,42.41599955 8.838316953,42.4189756 8.846684794,42.4160464 8.863878271,42.42094961 8.884218573,42.41310235 8.911220447,42.41019895 8.901413963,42.39103099 8.901384581,42.38411935 8.913785792,42.37511085 8.900356423,42.36550996 8.891176188,42.35365332 8.857165708,42.33098309" />
<polygon id="2B155 MATRA" points="9.397048918,42.26607002 9.388296631,42.26684994 9.378005291,42.27311354 9.372069762,42.27780715 9.379127392,42.29955511 9.395776166,42.2976334 9.401148689,42.28868028 9.397048918,42.26607002" />
<polygon id="2B156 MAUSOLEO" points="8.916452379,42.46737222 8.91581726,42.47371751 8.923643094,42.48543382 8.921589617,42.49184015 8.930675729,42.49207373 8.952001093,42.50517249 8.984259611,42.50667355 8.98806854,42.51576325 8.997335911,42.51664833 9.006044055,42.52854507 9.020092939,42.51137987 8.947738571,42.47353452 8.916452379,42.46737222" />
<polygon id="2B157 MAZZOLA" points="9.334276569,42.2835504 9.322942455,42.28900494 9.320784578,42.29544483 9.30504493,42.30141203 9.341048219,42.32586613 9.344470041,42.3282856 9.334276569,42.2835504" />
<polygon id="2B159 MERIA" points="9.474493197,42.90010337 9.451294632,42.89798354 9.437205284,42.89974209 9.424788781,42.91006014 9.41094707,42.91242275 9.390348183,42.92096987 9.402341817,42.9383986 9.409587719,42.93629655 9.42098853,42.93811379 9.451550171,42.93509738 9.469239446,42.93646785 9.46618163,42.93371976 9.470550924,42.9238104 9.469656068,42.90624238 9.474493197,42.90010337" />
<polygon id="2B161 MOITA" points="9.4042175,42.26268901 9.397048918,42.26607002 9.401148689,42.28868028 9.395776166,42.2976334 9.41258014,42.29591606 9.421186143,42.28878614 9.428117713,42.28677043 9.431490146,42.28187716 9.412316398,42.27135176 9.4042175,42.26268901" />
<polygon id="2B162 MOLTIFAO" points="9.078511988,42.42756127 9.082091204,42.4338838 9.081780971,42.46887283 9.074224062,42.48179107 9.064830727,42.48235361 9.05800956,42.4869252 9.061082279,42.50430403 9.07836479,42.50726812 9.082603388,42.50117474 9.100330413,42.49685187 9.128000851,42.49616478 9.149441184,42.5026019 9.158464617,42.51015946 9.177669276,42.50058946 9.179634184,42.49452434 9.180766305,42.49141095 9.188614096,42.48935913 9.191471782,42.48334106 9.188220075,42.48116773 9.190123566,42.47167064 9.176475974,42.45929931 9.16472487,42.46344296 9.149890634,42.45198501 9.13201121,42.45145705 9.123665163,42.44861079 9.115959207,42.44047997 9.102340449,42.43933261 9.107061547,42.43012725 9.078511988,42.42756127" />
<polygon id="2B164 MONACIA-D'OREZZA" points="9.393525031,42.37293708 9.386744962,42.3885666 9.388539131,42.38995571 9.388048189,42.39147315 9.401121394,42.39120968 9.411365686,42.38490191 9.420292952,42.38511147 9.425780366,42.37959447 9.426485228,42.37273426 9.409930128,42.37570011 9.401946217,42.37309735 9.393525031,42.37293708" />
<polygon id="2B165 MONCALE" points="8.80918014,42.48497911 8.805543262,42.48698014 8.804900839,42.48860154 8.803189824,42.49086704 8.802850875,42.49125506 8.802144209,42.49137468 8.801513757,42.4929954 8.801011458,42.49761966 8.801146695,42.50155123 8.801729045,42.50238482 8.801291642,42.50435558 8.800132772,42.50678926 8.800279771,42.51120696 8.799390607,42.5120666 8.799478957,42.51418 8.800283533,42.51369453 8.801126447,42.51359456 8.801841869,42.51282549 8.802725433,42.51301172 8.804007827,42.51194135 8.804453879,42.5120162 8.805554457,42.51095571 8.80812208,42.51153686 8.814274396,42.50847911 8.815340086,42.50878149 8.815983268,42.50851202 8.818990432,42.50983508 8.821048446,42.51153443 8.821504693,42.51366381 8.821248142,42.5146333 8.825403189,42.51475773 8.827583107,42.51450331 8.833489983,42.51849775 8.835717106,42.51883551 8.838449653,42.5198396 8.838386815,42.51750841 8.838998566,42.51692503 8.840173581,42.51649105 8.840626834,42.51493381 8.842484765,42.51280378 8.842438922,42.51185983 8.843557716,42.51147396 8.843429755,42.51080492 8.842467089,42.51031688 8.842706203,42.50917702 8.843259078,42.50910162 8.843292712,42.50882936 8.843110026,42.50834361 8.841691898,42.50756505 8.841391203,42.50699563 8.842514402,42.5066546 8.842482968,42.50634084 8.842321393,42.50594407 8.842113609,42.50569406 8.840628269,42.50546002 8.840468932,42.50447723 8.840334309,42.5043494 8.839641467,42.50424316 8.839274407,42.50422723 8.839036581,42.50428533 8.838545223,42.5048531 8.837831734,42.50502741 8.837165362,42.50506393 8.835231329,42.50472821 8.835113317,42.50464454 8.835389365,42.50314212 8.833705786,42.50287378 8.833566698,42.50270112 8.83267306,42.50058674 8.83078121,42.49811236 8.829580228,42.49718658 8.829276549,42.49670745 8.829105001,42.49486901 8.826986392,42.49512015 8.825752613,42.4949623 8.823079811,42.49381049 8.821335989,42.49354527 8.819840054,42.49259045 8.816762686,42.49177608 8.816311008,42.49152133 8.80918014,42.48497911" />
<polygon id="2B166 MONTE" points="9.391532673,42.44943917 9.386084027,42.45094776 9.37223022,42.47875212 9.370317978,42.48455721 9.380544632,42.50285678 9.38374227,42.49977913 9.3905497,42.49072181 9.398707836,42.48755321 9.439713906,42.51084835 9.441933294,42.51394305 9.438925499,42.51662331 9.446101469,42.52352205 9.453491229,42.52506789 9.448643354,42.5191651 9.449658264,42.50552938 9.41796041,42.49197694 9.411890328,42.48686824 9.405621243,42.47006499 9.40828305,42.46335721 9.39695327,42.45478595 9.391532673,42.44943917" />
<polygon id="2B167 MONTEGROSSO" points="8.85791834,42.52344038 8.848440029,42.52443879 8.833743729,42.53345625 8.815314127,42.53698739 8.802715394,42.54633649 8.805629452,42.55246061 8.81008638,42.55326344 8.823825773,42.5519098 8.850069491,42.56496817 8.856820645,42.56128017 8.877077565,42.56045394 8.879529568,42.559859 8.878941618,42.55403184 8.89491799,42.54996734 8.904924213,42.54427504 8.907250745,42.5382414 8.871132586,42.5254174 8.85791834,42.52344038" />
<polygon id="2B168 MONTICELLO" points="8.952397888,42.60252503 8.940631751,42.61076308 8.935265812,42.62206092 8.948379084,42.63354742 8.980306567,42.63933701 8.986593963,42.62697481 8.984851805,42.62048165 8.975146681,42.61358722 8.961457741,42.60423705 8.952397888,42.60252503" />
<polygon id="2B169 MOROSAGLIA" points="9.32682335,42.41697491 9.317442087,42.41822698 9.30758634,42.42579141 9.284279647,42.42783835 9.265354386,42.43817024 9.228927782,42.44508823 9.219467703,42.44405472 9.201513501,42.44499455 9.198773008,42.44773298 9.201681182,42.4540194 9.198353817,42.45639529 9.176475974,42.45929931 9.190123566,42.47167064 9.188220075,42.48116773 9.191471782,42.48334106 9.199932174,42.48179372 9.210206131,42.47165499 9.215730716,42.46612075 9.240227404,42.45523739 9.271072134,42.44606599 9.294845238,42.44443662 9.308135211,42.44810409 9.325430144,42.44623859 9.327558448,42.4438576 9.326398963,42.43507124 9.32682335,42.41697491" />
<polygon id="2B170 MORSIGLIA" points="9.376995945,42.91153375 9.359989296,42.919852 9.359475557,42.92288683 9.350608877,42.9306932 9.357863326,42.94353494 9.347101802,42.95470125 9.349903459,42.96086908 9.393178104,42.94604607 9.402341817,42.9383986 9.390348183,42.92096987 9.376995945,42.91153375" />
<polygon id="2B171 MURACCIOLE" points="9.180083944,42.14058139 9.172084259,42.14857421 9.179100213,42.17159145 9.168212038,42.19317396 9.174393683,42.19926794 9.187121194,42.19695722 9.201477033,42.17625106 9.219106947,42.16583388 9.219254306,42.16550974 9.219582018,42.16300262 9.204076966,42.15055349 9.180083944,42.14058139" />
<polygon id="2B172 MURATO" points="9.321310737,42.54444704 9.294395272,42.55191124 9.293099636,42.55866136 9.301755832,42.57417589 9.312458814,42.58544746 9.315598212,42.59931303 9.328145202,42.59535851 9.335618432,42.58696898 9.346687066,42.58202664 9.352781309,42.56998396 9.366544707,42.56183026 9.366742348,42.55537883 9.343628746,42.55014632 9.321310737,42.54444704" />
<polygon id="2B173 MURO" points="8.932348167,42.51965583 8.917447759,42.52761513 8.914557589,42.53408596 8.907250745,42.5382414 8.904924213,42.54427504 8.89491799,42.54996734 8.916325499,42.56867759 8.917080471,42.5715476 8.930305415,42.55300785 8.923043349,42.54058321 8.934460841,42.52999549 8.932348167,42.51965583" />
<polygon id="2B175 NESSA" points="8.965814504,42.53086814 8.944675634,42.54350774 8.944673759,42.56344963 8.951721524,42.57227023 8.958715909,42.56397299 8.962369935,42.54783841 8.973677428,42.53777514 8.965814504,42.53086814" />
<polygon id="2B176 NOCARIO" points="9.35031647,42.3831206 9.355741196,42.3884863 9.352768655,42.39101756 9.326710646,42.39616961 9.32577114,42.39861509 9.339388626,42.40212323 9.353585928,42.40087892 9.366189408,42.39606699 9.364496348,42.38789928 9.35031647,42.3831206" />
<polygon id="2B177 NOCETA" points="9.219106947,42.16583388 9.201477033,42.17625106 9.187121194,42.19695722 9.174393683,42.19926794 9.190788905,42.22019799 9.245192173,42.2280321 9.241941336,42.21824414 9.227481124,42.20577105 9.224321878,42.18870307 9.217623162,42.17960439 9.219106947,42.16583388" />
<polygon id="2B178 NONZA" points="9.339857493,42.76064664 9.342508748,42.79421799 9.337935427,42.80393388 9.358651815,42.80706203 9.369303748,42.79527835 9.381223574,42.78960638 9.367986671,42.78059827 9.355212909,42.77723544 9.339857493,42.76064664" />
<polygon id="2B179 NOVALE" points="9.421186143,42.28878614 9.41258014,42.29591606 9.395776166,42.2976334 9.397433844,42.31034667 9.402823178,42.3156304 9.412934639,42.31776132 9.423381015,42.31187265 9.421201212,42.30231097 9.425237116,42.3010117 9.421186143,42.28878614" />
<polygon id="2B180 NOVELLA" points="9.126601617,42.56124628 9.109523369,42.56262317 9.10215182,42.56619222 9.094237152,42.56422847 9.093447916,42.57090988 9.074555879,42.57902084 9.0704013,42.58516332 9.07805051,42.61554723 9.087348302,42.62320469 9.089348128,42.63695005 9.096345492,42.64591965 9.101294015,42.63615061 9.134835289,42.60758108 9.135062048,42.60081402 9.125892201,42.58547074 9.133818183,42.56989339 9.126601617,42.56124628" />
<polygon id="2B182 OCCHIATANA" points="9.020350092,42.55187303 9.008195952,42.55935675 9.004393338,42.56896555 8.999952558,42.58530002 8.984851805,42.62048165 8.986593963,42.62697481 8.980306567,42.63933701 9.000253826,42.64175207 8.998365284,42.61360083 9.00624743,42.58978735 9.015831182,42.57755326 9.038036142,42.57333189 9.031983297,42.56129529 9.020350092,42.55187303" />
<polygon id="2B183 OGLIASTRO" points="9.337935427,42.80393388 9.32629971,42.81227212 9.331237412,42.82203851 9.345140064,42.83172493 9.37183761,42.83832167 9.385071198,42.83481774 9.385349704,42.82743951 9.364594271,42.82046616 9.354873015,42.80902758 9.358651815,42.80706203 9.337935427,42.80393388" />
<polygon id="2B184 OLCANI" points="9.381223574,42.78960638 9.369303748,42.79527835 9.358651815,42.80706203 9.354873015,42.80902758 9.364594271,42.82046616 9.385349704,42.82743951 9.406624502,42.81432279 9.407979204,42.80395704 9.416431805,42.79563778 9.418387471,42.78851071 9.381223574,42.78960638" />
<polygon id="2B185 OLETTA" points="9.398234559,42.62051762 9.370857979,42.61922457 9.344256741,42.62625753 9.3015275,42.6267603 9.283021653,42.66247584 9.302435864,42.6697647 9.323752139,42.66999259 9.321919216,42.66673681 9.360380985,42.63622035 9.379037528,42.63401532 9.392237923,42.63786165 9.394522285,42.63474818 9.405586215,42.62450527 9.398234559,42.62051762" />
<polygon id="2B187 OLMETA-DI-CAPOCORSO" points="9.343822424,42.7396823 9.339857493,42.76064664 9.355212909,42.77723544 9.367986671,42.78059827 9.381223574,42.78960638 9.418387471,42.78851071 9.414992482,42.77264716 9.402471157,42.75948678 9.388482886,42.7511852 9.388118085,42.74786925 9.375029165,42.75072536 9.352867997,42.7398126 9.343822424,42.7396823" />
<polygon id="2B188 OLMETA-DI-TUDA" points="9.363096067,42.59213332 9.343970474,42.60682875 9.320903418,42.61747888 9.311625094,42.61806428 9.3015275,42.6267603 9.344256741,42.62625753 9.370857979,42.61922457 9.398234559,42.62051762 9.418157394,42.6114644 9.41628519,42.60522697 9.402535515,42.60510616 9.392236651,42.59871558 9.373924414,42.59782732 9.363096067,42.59213332" />
<polygon id="2B190 OLMI-CAPPELLA" points="9.035949796,42.49516501 9.031831071,42.49692199 9.018268335,42.4939389 8.987793616,42.46740373 8.970660841,42.46192056 8.965155435,42.45618044 8.932367948,42.45577744 8.919039838,42.4595122 8.916452379,42.46737222 8.947738571,42.47353452 9.020092939,42.51137987 9.006044055,42.52854507 9.020350092,42.55187303 9.031983297,42.56129529 9.038036142,42.57333189 9.041384577,42.57503565 9.05242008,42.57980164 9.074555879,42.57902084 9.093447916,42.57090988 9.094237152,42.56422847 9.090998404,42.55798472 9.080138023,42.55243746 9.080984375,42.54255228 9.074522912,42.53811509 9.067211343,42.534285 9.040190043,42.53140228 9.034827541,42.5183447 9.039806684,42.50511595 9.035949796,42.49516501" />
<polygon id="2B192 OLMO" points="9.438925499,42.51662331 9.441933294,42.51394305 9.439713906,42.51084835 9.398707836,42.48755321 9.3905497,42.49072181 9.38374227,42.49977913 9.400319576,42.4957987 9.406689197,42.50463294 9.415329492,42.50505974 9.428378046,42.51406765 9.438925499,42.51662331" />
<polygon id="2B193 OMESSA" points="9.22940121,42.35873747 9.21570503,42.35889047 9.205320916,42.35314134 9.193275871,42.35796434 9.184936237,42.35945087 9.165966891,42.37114659 9.16035204,42.3807402 9.164904709,42.39415303 9.189556367,42.42167129 9.19868409,42.42122084 9.197134422,42.41820053 9.197537765,42.40835836 9.20673007,42.40178132 9.20904245,42.39549727 9.202443806,42.3908605 9.227386889,42.38238756 9.226324298,42.36522903 9.22940121,42.35873747" />
<polygon id="2B194 ORTALE" points="9.425237116,42.3010117 9.421201212,42.30231097 9.423381015,42.31187265 9.412934639,42.31776132 9.421381462,42.32065931 9.447783407,42.3141355 9.456077325,42.31607519 9.45828816,42.30979968 9.455209718,42.30733576 9.446541026,42.30936853 9.438779181,42.30187726 9.425237116,42.3010117" />
<polygon id="2B195 ORTIPORIO" points="9.327558448,42.4438576 9.325430144,42.44623859 9.331247315,42.4551899 9.333045466,42.46592239 9.349849339,42.4636405 9.36469288,42.46963466 9.35975948,42.46438339 9.364872703,42.45598838 9.357678654,42.45154872 9.327558448,42.4438576" />
<polygon id="2B199 PALASCA" points="9.041384577,42.57503565 9.030251785,42.58604353 9.025994025,42.60279312 9.016940995,42.61061639 9.016404476,42.61747208 9.023926586,42.6299955 9.017582183,42.64256193 9.029908016,42.65272266 9.047827028,42.65600122 9.058850285,42.66213914 9.055400787,42.67888149 9.058128811,42.6923972 9.062211964,42.69392399 9.068011535,42.68472148 9.083490838,42.67799761 9.094337219,42.65928096 9.106990777,42.65563625 9.096345492,42.64591965 9.089348128,42.63695005 9.087348302,42.62320469 9.07805051,42.61554723 9.0704013,42.58516332 9.074555879,42.57902084 9.05242008,42.57980164 9.041384577,42.57503565" />
<polygon id="2B201 PANCHERACCIA" points="9.452822809,42.14390761 9.412956031,42.17893108 9.402623578,42.19497335 9.373790682,42.2074495 9.364136488,42.2237353 9.378401401,42.22885561 9.381679047,42.23399593 9.384733823,42.2330817 9.386480241,42.22284233 9.418222987,42.20200888 9.420819035,42.19161823 9.429544703,42.18340728 9.438804893,42.16342409 9.454192716,42.1501894 9.452822809,42.14390761" />
<polygon id="2B202 PARATA" points="9.429941771,42.35496732 9.402778444,42.36992708 9.401946217,42.37309735 9.409930128,42.37570011 9.426485228,42.37273426 9.432608143,42.36405823 9.429941771,42.35496732" />
<polygon id="2B205 PATRIMONIO" points="9.398521338,42.69321258 9.376298422,42.69707627 9.364853552,42.69128229 9.360229921,42.69160282 9.354970271,42.6970664 9.346998727,42.6938331 9.3288806,42.6935281 9.321143061,42.69602476 9.322163465,42.7151859 9.329004874,42.71881288 9.335588995,42.7136781 9.349406376,42.71061186 9.376706368,42.71773586 9.396514443,42.72775572 9.401103522,42.7269848 9.407927607,42.7179699 9.404835885,42.70479551 9.398521338,42.69321258" />
<polygon id="2B206 PENTA-ACQUATELLA" points="9.386084027,42.45094776 9.368270355,42.45766086 9.364872703,42.45598838 9.35975948,42.46438339 9.36469288,42.46963466 9.37223022,42.47875212 9.386084027,42.45094776" />
<polygon id="2B207 PENTA-DI-CASINCA" points="9.54087606,42.44162389 9.508506642,42.44051582 9.462210041,42.44611636 9.460998997,42.44925637 9.444404968,42.45900214 9.436081547,42.46050702 9.435648932,42.46420386 9.453641083,42.46872403 9.464565418,42.47551084 9.467032903,42.46534959 9.478601058,42.46015433 9.506214322,42.46211325 9.536057444,42.47046759 9.541639494,42.45799286 9.54087606,42.44162389" />
<polygon id="2B208 PERELLI" points="9.395776166,42.2976334 9.379127392,42.29955511 9.379709185,42.30633687 9.368112855,42.31586067 9.402078278,42.33179817 9.403137703,42.3313736 9.407371665,42.32465277 9.39973012,42.32156085 9.402823178,42.3156304 9.397433844,42.31034667 9.395776166,42.2976334" />
<polygon id="2B210 PERO-CASEVECCHIE" points="9.446431898,42.40404584 9.461946597,42.43032227 9.470001122,42.42939966 9.480631103,42.42130278 9.471785567,42.41046884 9.45861594,42.40341452 9.446431898,42.40404584" />
<polygon id="2B213 PIANELLO" points="9.358277108,42.27233215 9.353897553,42.27124209 9.33503468,42.27989865 9.334276569,42.2835504 9.344470041,42.3282856 9.347158529,42.32943237 9.353283882,42.32765041 9.368112855,42.31586067 9.379709185,42.30633687 9.379127392,42.29955511 9.372069762,42.27780715 9.378005291,42.27311354 9.358277108,42.27233215" />
<polygon id="2B214 PIANO" points="9.396499761,42.42676632 9.384066954,42.44152752 9.391532673,42.44943917 9.39695327,42.45478595 9.408487478,42.44725583 9.403991843,42.4411325 9.404624153,42.43069631 9.396499761,42.42676632" />
<polygon id="2B216 PIAZZALI" points="9.402823178,42.3156304 9.39973012,42.32156085 9.407371665,42.32465277 9.412934639,42.31776132 9.402823178,42.3156304" />
<polygon id="2B217 PIAZZOLE" points="9.420292952,42.38511147 9.411365686,42.38490191 9.401121394,42.39120968 9.388048189,42.39147315 9.389069026,42.39791362 9.391907275,42.40428096 9.416516201,42.39901089 9.424255221,42.39127486 9.420292952,42.38511147" />
<polygon id="2B218 PIEDICORTE-DI-GAGGIO" points="9.35495562,42.19412853 9.328867916,42.17653254 9.316644081,42.18051659 9.312188803,42.1859658 9.297101592,42.1919841 9.295928468,42.19832827 9.291795164,42.19924087 9.292738387,42.20881298 9.305218803,42.21863716 9.308099905,42.24212238 9.311423363,42.24447605 9.313321261,42.25723754 9.331116926,42.25547357 9.338552475,42.25072884 9.34240864,42.24498954 9.339052664,42.23562437 9.341984679,42.22281793 9.347466958,42.21766638 9.344834022,42.19638493 9.353598513,42.19726619 9.35495562,42.19412853" />
<polygon id="2B219 PIEDICROCE" points="9.360589007,42.36989101 9.355416423,42.37823493 9.344626328,42.38246854 9.35031647,42.3831206 9.364496348,42.38789928 9.379782786,42.3937641 9.384613372,42.39900195 9.389069026,42.39791362 9.388048189,42.39147315 9.388539131,42.38995571 9.375832363,42.38844626 9.370653718,42.37542891 9.360589007,42.36989101" />
<polygon id="2B220 PIEDIGRIGGIO" points="9.202771538,42.42739317 9.16395879,42.44166792 9.155634072,42.44352936 9.149890634,42.45198501 9.16472487,42.46344296 9.176475974,42.45929931 9.198353817,42.45639529 9.201681182,42.4540194 9.198773008,42.44773298 9.201513501,42.44499455 9.209121344,42.43319898 9.202771538,42.42739317" />
<polygon id="2B221 PIEDIPARTINO" points="9.339308936,42.34210098 9.333917163,42.34719255 9.331337076,42.35984377 9.360589007,42.36989101 9.364845959,42.37134939 9.339308936,42.34210098" />
<polygon id="2B222 PIE-D'OREZZA" points="9.331337076,42.35984377 9.328671897,42.36262649 9.324922738,42.37662768 9.321187363,42.38616454 9.32684552,42.39123818 9.332156367,42.38311304 9.344626328,42.38246854 9.355416423,42.37823493 9.360589007,42.36989101 9.331337076,42.35984377" />
<polygon id="2B223 PIETRALBA" points="9.19276119,42.50638547 9.175543608,42.50997307 9.139074564,42.54082665 9.131687593,42.54953842 9.130763249,42.55964545 9.126601617,42.56124628 9.133818183,42.56989339 9.154256962,42.56139354 9.17202237,42.56213379 9.212276574,42.57905737 9.216020027,42.56257106 9.219514465,42.56033823 9.222341135,42.55242702 9.228745792,42.54913115 9.225362089,42.54691211 9.227075777,42.54058078 9.221781947,42.52800393 9.221633576,42.51839099 9.204647569,42.51638802 9.19276119,42.50638547" />
<polygon id="2B224 PIETRACORBARA" points="9.487021839,42.82688358 9.407715655,42.83052364 9.385071198,42.83481774 9.39149155,42.84513438 9.402042389,42.86118558 9.403800508,42.86266834 9.41748619,42.86442951 9.452754639,42.85788041 9.480014626,42.86015923 9.484100083,42.85381259 9.48171644,42.83644402 9.487021839,42.82688358" />
<polygon id="2B225 PIETRA-DI-VERDE" points="9.44399712,42.26985583 9.431490146,42.28187716 9.428117713,42.28677043 9.421186143,42.28878614 9.425237116,42.3010117 9.438779181,42.30187726 9.446541026,42.30936853 9.455209718,42.30733576 9.467700617,42.29988426 9.457429746,42.28442252 9.447547688,42.27872041 9.44399712,42.26985583" />
<polygon id="2B226 PIETRASERENA" points="9.347466958,42.21766638 9.341984679,42.22281793 9.339052664,42.23562437 9.34240864,42.24498954 9.338552475,42.25072884 9.348952628,42.25072885 9.360162746,42.24489091 9.366214784,42.23682799 9.377888057,42.23238475 9.381679047,42.23399593 9.378401401,42.22885561 9.364136488,42.2237353 9.347466958,42.21766638" />
<polygon id="2B227 PIETRICAGGIO" points="9.368112855,42.31586067 9.353283882,42.32765041 9.37578906,42.33924099 9.389704416,42.33978431 9.402078278,42.33179817 9.368112855,42.31586067" />
<polygon id="2B229 PIETROSO" points="9.389519627,42.08282928 9.344521197,42.10090764 9.332590051,42.10632797 9.281453039,42.11035845 9.276215651,42.12364046 9.259522299,42.12935233 9.250792962,42.14129794 9.250144086,42.15498367 9.27163924,42.16792864 9.283832308,42.14930307 9.312891699,42.12205424 9.324336753,42.11589914 9.338121115,42.11449754 9.3479353,42.10706716 9.367851006,42.09960521 9.379688863,42.10483283 9.383578583,42.10297554 9.389519627,42.08282928" />
<polygon id="2B230 PIEVE" points="9.228745792,42.54913115 9.222341135,42.55242702 9.219514465,42.56033823 9.251434694,42.56246589 9.274448709,42.57486661 9.281114478,42.57987616 9.27921329,42.58997165 9.282415596,42.59657406 9.297489114,42.61404744 9.264397151,42.65226039 9.277699577,42.65483402 9.307433649,42.61172827 9.294818139,42.58991743 9.301755832,42.57417589 9.293099636,42.55866136 9.294395272,42.55191124 9.289590548,42.54920985 9.242353489,42.55661338 9.228745792,42.54913115" />
<polygon id="2B231 PIGNA" points="8.894554029,42.59458473 8.881400728,42.60739105 8.906043494,42.59995343 8.918890249,42.60232473 8.916885114,42.59832491 8.908962098,42.59456291 8.894554029,42.59458473" />
<polygon id="2B233 PINO" points="9.360781573,42.88962654 9.326389143,42.90118032 9.359475557,42.92288683 9.359989296,42.919852 9.376995945,42.91153375 9.362054923,42.89608279 9.360781573,42.88962654" />
<polygon id="2B234 PIOBETTA" points="9.353283882,42.32765041 9.347158529,42.32943237 9.344163222,42.3392323 9.372858604,42.34714458 9.392184981,42.35390954 9.389704416,42.33978431 9.37578906,42.33924099 9.353283882,42.32765041" />
<polygon id="2B235 PIOGGIOLA" points="8.921589617,42.49184015 8.918912107,42.49798366 8.939586595,42.51594407 8.961501692,42.51813669 8.965814504,42.53086814 8.973677428,42.53777514 8.998596407,42.54879896 8.998418746,42.55181119 9.006242011,42.55353444 9.008195952,42.55935675 9.020350092,42.55187303 9.006044055,42.52854507 8.997335911,42.51664833 8.98806854,42.51576325 8.984259611,42.50667355 8.952001093,42.50517249 8.930675729,42.49207373 8.921589617,42.49184015" />
<polygon id="2B236 POGGIO-DI-NAZZA" points="9.316532121,42.03554552 9.312434694,42.03713333 9.299911468,42.03242735 9.276628726,42.03618307 9.251959895,42.04704572 9.228445024,42.04572081 9.229148649,42.05942417 9.240044563,42.07432054 9.2626905,42.07237809 9.275543228,42.07638442 9.286215113,42.06961233 9.316268448,42.06075468 9.339282102,42.05801628 9.362887632,42.04702521 9.366945183,42.04875501 9.370466786,42.04308925 9.366629215,42.03468494 9.336662083,42.03833368 9.316532121,42.03554552" />
<polygon id="2B238 POGGIO-DI-VENACO" points="9.228238714,42.24973646 9.215205563,42.24926596 9.209532217,42.25469163 9.182113826,42.25669882 9.174603669,42.26338334 9.179843162,42.27507682 9.2053575,42.28033096 9.208838772,42.28236306 9.205720196,42.28478122 9.208702124,42.28748262 9.222624612,42.28927261 9.231246825,42.27754266 9.235664062,42.27661604 9.225030743,42.26281622 9.228238714,42.24973646" />
<polygon id="2B239 POGGIO-D'OLETTA" points="9.392237923,42.63786165 9.379037528,42.63401532 9.360380985,42.63622035 9.321919216,42.66673681 9.323752139,42.66999259 9.337571669,42.67813893 9.365557584,42.67426439 9.382026912,42.6673911 9.380275665,42.65811484 9.386306746,42.64259146 9.392237923,42.63786165" />
<polygon id="2B241 POGGIO-MARINACCIO" points="9.373165538,42.43836655 9.371537848,42.43505525 9.358261891,42.43142189 9.334631759,42.43207436 9.326398963,42.43507124 9.327558448,42.4438576 9.336735733,42.43698992 9.357698484,42.44055462 9.360112768,42.443269 9.361868783,42.43737446 9.373165538,42.43836655" />
<polygon id="2B242 POGGIO-MEZZANA" points="9.535249417,42.39399566 9.512786838,42.39311069 9.497241487,42.38647733 9.48874707,42.38907962 9.487882559,42.38951118 9.485812687,42.40187591 9.495391966,42.40922763 9.5091602,42.41045991 9.515802307,42.41523003 9.538227955,42.41201336 9.535249417,42.39399566" />
<polygon id="2B243 POLVEROSO" points="9.366189408,42.39606699 9.353585928,42.40087892 9.339388626,42.40212323 9.341427803,42.40510362 9.354778617,42.40613701 9.384225284,42.39879079 9.366189408,42.39606699" />
<polygon id="2B244 POPOLASCA" points="9.147312596,42.42242627 9.131437357,42.427571 9.118464623,42.42675827 9.107061547,42.43012725 9.102340449,42.43933261 9.115959207,42.44047997 9.123665163,42.44861079 9.13201121,42.45145705 9.149890634,42.45198501 9.155634072,42.44352936 9.16395879,42.44166792 9.158155285,42.43708119 9.157270105,42.42788197 9.147312596,42.42242627" />
<polygon id="2B245 PORRI" points="9.447906866,42.43602645 9.446319219,42.43873812 9.434962085,42.44075154 9.426675529,42.45152472 9.429310125,42.45730888 9.436081547,42.46050702 9.444404968,42.45900214 9.460998997,42.44925637 9.462210041,42.44611636 9.459348249,42.44853588 9.455979472,42.44648565 9.447906866,42.43602645" />
<polygon id="2B246 LA PORTA" points="9.323641174,42.41130289 9.32682335,42.41697491 9.333494281,42.42159153 9.347211265,42.42293795 9.375278486,42.43474995 9.37521593,42.43818958 9.380197331,42.4426615 9.384066954,42.44152752 9.396499761,42.42676632 9.369925009,42.43187832 9.360292077,42.42458222 9.363713758,42.41811916 9.342074811,42.41240526 9.323641174,42.41130289" />
<polygon id="2B248 PRATO-DI-GIOVELLINA" points="9.164904709,42.39415303 9.162825431,42.39646441 9.15177479,42.39548159 9.147312596,42.42242627 9.157270105,42.42788197 9.158155285,42.43708119 9.16395879,42.44166792 9.202771538,42.42739317 9.19868409,42.42122084 9.189556367,42.42167129 9.164904709,42.39415303" />
<polygon id="2B250 PRUNELLI-DI-CASACCONI" points="9.428378046,42.51406765 9.415329492,42.50505974 9.406689197,42.50463294 9.400319576,42.4957987 9.38374227,42.49977913 9.380544632,42.50285678 9.38462912,42.50988109 9.388842487,42.50461393 9.393032019,42.5054718 9.396241257,42.51461366 9.402933278,42.51871204 9.400764813,42.521503 9.412611155,42.52489417 9.41859123,42.52040317 9.427005675,42.51920127 9.428378046,42.51406765" />
<polygon id="2B251 PRUNELLI-DI-FIUMORBO" points="9.439854477,41.9876819 9.42177765,41.97683005 9.40334354,41.97583133 9.391050595,41.98009145 9.372382433,41.99944527 9.359374966,41.99571335 9.323555416,41.99599807 9.31492604,41.99777617 9.312506627,42.01080073 9.309071372,42.0130249 9.316532121,42.03554552 9.336662083,42.03833368 9.366629215,42.03468494 9.368082402,42.02812531 9.379849771,42.01747304 9.39995329,42.00927127 9.417811743,42.00579008 9.441408505,41.98962435 9.439854477,41.9876819" />
<polygon id="2B252 PRUNO" points="9.446431898,42.40404584 9.43886114,42.4076701 9.433450545,42.41334553 9.431258256,42.42625726 9.444956525,42.43047841 9.447906866,42.43602645 9.455979472,42.44648565 9.459348249,42.44853588 9.462210041,42.44611636 9.458972695,42.43997268 9.461946597,42.43032227 9.446431898,42.40404584" />
<polygon id="2B255 QUERCITELLO" points="9.32682335,42.41697491 9.326398963,42.43507124 9.334631759,42.43207436 9.358261891,42.43142189 9.371537848,42.43505525 9.373165538,42.43836655 9.37521593,42.43818958 9.375278486,42.43474995 9.347211265,42.42293795 9.333494281,42.42159153 9.32682335,42.41697491" />
<polygon id="2B256 RAPAGGIO" points="9.381609194,42.36494247 9.378851226,42.36529746 9.375003448,42.36959526 9.37973313,42.38495682 9.386744962,42.3885666 9.393525031,42.37293708 9.390221555,42.36675135 9.381609194,42.36494247" />
<polygon id="2B257 RAPALE" points="9.301755832,42.57417589 9.294818139,42.58991743 9.307433649,42.61172827 9.277699577,42.65483402 9.264397151,42.65226039 9.262240753,42.66139689 9.265806825,42.66670734 9.283021653,42.66247584 9.3015275,42.6267603 9.311625094,42.61806428 9.321049487,42.60769348 9.315598212,42.59931303 9.312458814,42.58544746 9.301755832,42.57417589" />
<polygon id="2B260 RIVENTOSA" points="9.228991134,42.24061426 9.201163392,42.24258769 9.187345755,42.24052814 9.17890157,42.24362564 9.177307429,42.25047935 9.182113826,42.25669882 9.209532217,42.25469163 9.215205563,42.24926596 9.228238714,42.24973646 9.232146697,42.24985848 9.233852844,42.24479998 9.228991134,42.24061426" />
<polygon id="2B261 ROGLIANO" points="9.42098853,42.93811379 9.409587719,42.93629655 9.402341817,42.9383986 9.393178104,42.94604607 9.393507961,42.9582611 9.413532793,42.98210443 9.404635082,43.00563565 9.42145427,43.01073067 9.460566786,42.98585211 9.451916434,42.96306519 9.455223647,42.95647775 9.4335962,42.95133466 9.42098853,42.93811379" />
<polygon id="2B263 ROSPIGLIANI" points="9.219254306,42.16550974 9.219106947,42.16583388 9.217623162,42.17960439 9.224321878,42.18870307 9.227481124,42.20577105 9.241941336,42.21824414 9.260768761,42.19764379 9.25472531,42.18804851 9.230727809,42.17678825 9.219254306,42.16550974" />
<polygon id="2B264 RUSIO" points="9.259121187,42.32817523 9.254999754,42.33564889 9.250718255,42.3485685 9.238486924,42.35263245 9.233974428,42.35534068 9.236889606,42.3611292 9.24756237,42.36589385 9.251389128,42.3715474 9.280518812,42.36392391 9.279057406,42.36062009 9.270447088,42.35005653 9.27168427,42.34051643 9.259121187,42.32817523" />
<polygon id="2B265 RUTALI" points="9.366742348,42.55537883 9.366544707,42.56183026 9.352781309,42.56998396 9.346687066,42.58202664 9.351527519,42.58746558 9.363096067,42.59213332 9.373924414,42.59782732 9.392236651,42.59871558 9.402535515,42.60510616 9.41628519,42.60522697 9.414846665,42.58652513 9.382642649,42.56700057 9.381934102,42.56008914 9.375129732,42.5559958 9.366742348,42.55537883" />
<polygon id="2B267 SALICETO" points="9.326710646,42.39616961 9.304633841,42.39236856 9.275010751,42.40060442 9.269439015,42.40604565 9.256190411,42.40310214 9.250981905,42.41274975 9.233559822,42.41721679 9.197134422,42.41820053 9.19868409,42.42122084 9.202771538,42.42739317 9.209121344,42.43319898 9.223850977,42.42522408 9.242327225,42.42637744 9.247496287,42.42077208 9.273890649,42.41339331 9.279744607,42.40797122 9.289131797,42.40870582 9.32587019,42.40222512 9.32577114,42.39861509 9.326710646,42.39616961" />
<polygon id="2B273 SCATA" points="9.41447322,42.41685487 9.406815641,42.41472832 9.390126376,42.41613841 9.396499761,42.42676632 9.404624153,42.43069631 9.417724412,42.42794061 9.41447322,42.41685487" />
<polygon id="2B274 SCOLCA" points="9.391287778,42.522027 9.362032312,42.5249869 9.346047024,42.54502396 9.343628746,42.55014632 9.366742348,42.55537883 9.375129732,42.5559958 9.371659036,42.54623729 9.375469563,42.53313024 9.391287778,42.522027" />
<polygon id="2B275 SERMANO" points="9.246616859,42.29063089 9.257408298,42.30899123 9.255268721,42.32226239 9.259121187,42.32817523 9.27168427,42.34051643 9.281256096,42.33515413 9.275476937,42.33101474 9.277495214,42.31925564 9.279676818,42.31343751 9.274476987,42.30222259 9.246616859,42.29063089" />
<polygon id="2B277 SERRA-DI-FIUMORBO" points="9.230643244,41.93263044 9.277683163,41.97805892 9.297322522,41.98594751 9.306755379,41.9926852 9.323555416,41.99599807 9.359374966,41.99571335 9.372382433,41.99944527 9.391050595,41.98009145 9.40334354,41.97583133 9.42177765,41.97683005 9.439854477,41.9876819 9.413558246,41.95519175 9.412961673,41.93809318 9.407761029,41.94321329 9.408473865,41.96416271 9.401228445,41.96805453 9.377713002,41.96983821 9.349532589,41.96847219 9.329942779,41.95915735 9.294577771,41.94970878 9.281761637,41.94647979 9.269058263,41.94973148 9.243452027,41.9359648 9.230643244,41.93263044" />
<polygon id="2B280 SILVARECCIO" points="9.434962085,42.44075154 9.422192203,42.43944902 9.41698718,42.44493075 9.408487478,42.44725583 9.39695327,42.45478595 9.40828305,42.46335721 9.432755432,42.46193472 9.435648932,42.46420386 9.436081547,42.46050702 9.429310125,42.45730888 9.426675529,42.45152472 9.434962085,42.44075154" />
<polygon id="2B281 SISCO" points="9.416431805,42.79563778 9.407979204,42.80395704 9.406624502,42.81432279 9.385349704,42.82743951 9.385071198,42.83481774 9.407715655,42.83052364 9.487021839,42.82688358 9.491457928,42.79752634 9.467891685,42.80109189 9.459340813,42.79790944 9.416431805,42.79563778" />
<polygon id="2B283 SOLARO" points="9.309095238,41.83214524 9.308599195,41.83887945 9.302047979,41.84342576 9.283692441,41.84408938 9.270567108,41.84056388 9.24526389,41.84877073 9.236082478,41.84776454 9.227497391,41.85558903 9.236106904,41.87543607 9.240986246,41.88120293 9.258351241,41.88540935 9.285631109,41.90812779 9.311560703,41.92143174 9.319529617,41.92495625 9.337142554,41.92018662 9.365296386,41.91985263 9.40897714,41.90661748 9.402379224,41.89776182 9.397158205,41.87447414 9.402269298,41.8587072 9.38671902,41.86639198 9.377328714,41.86607731 9.354093554,41.85421464 9.348856586,41.84834804 9.336339931,41.84381145 9.327056286,41.83580821 9.309095238,41.83214524" />
<polygon id="2B286 SORBO-OCAGNANO" points="9.435648932,42.46420386 9.442240517,42.47580026 9.449426698,42.48029849 9.458965291,42.47962088 9.506120359,42.49633061 9.529584888,42.49557954 9.531422811,42.48337097 9.482748992,42.47347578 9.464565418,42.47551084 9.453641083,42.46872403 9.435648932,42.46420386" />
<polygon id="2B287 SORIO" points="9.219514465,42.56033823 9.216020027,42.56257106 9.212276574,42.57905737 9.207450949,42.58381127 9.210229398,42.58594905 9.246579733,42.59250141 9.270206876,42.59111484 9.282415596,42.59657406 9.27921329,42.58997165 9.281114478,42.57987616 9.274448709,42.57486661 9.251434694,42.56246589 9.219514465,42.56033823" />
<polygon id="2B289 SOVERIA" points="9.093242118,42.3233803 9.09301341,42.33004611 9.098218398,42.33568799 9.118433562,42.35005801 9.141781341,42.35168579 9.148572185,42.36055165 9.165966891,42.37114659 9.184936237,42.35945087 9.193275871,42.35796434 9.181426199,42.34879142 9.155058807,42.3463106 9.153933628,42.33989387 9.146594527,42.34336592 9.124290648,42.3408859 9.115842975,42.33830758 9.109348654,42.32953139 9.093242118,42.3233803" />
<polygon id="2B290 SPELONCATO" points="8.973677428,42.53777514 8.962369935,42.54783841 8.958715909,42.56397299 8.951721524,42.57227023 8.948747536,42.57468104 8.949151215,42.58735243 8.948895242,42.60049352 8.952397888,42.60252503 8.961457741,42.60423705 8.975146681,42.61358722 8.978121147,42.61081497 8.978896403,42.58627514 8.983322941,42.58007642 8.983790731,42.56242435 8.998596407,42.54879896 8.973677428,42.53777514" />
<polygon id="2B291 STAZZONA" points="9.360589007,42.36989101 9.370653718,42.37542891 9.375832363,42.38844626 9.388539131,42.38995571 9.386744962,42.3885666 9.37973313,42.38495682 9.375003448,42.36959526 9.364845959,42.37134939 9.360589007,42.36989101" />
<polygon id="2B292 SANT'ANDREA-DI-BOZIO" points="9.228238714,42.24973646 9.225030743,42.26281622 9.235664062,42.27661604 9.249108726,42.27610454 9.257020873,42.28799852 9.279153124,42.29215485 9.280297153,42.29545908 9.293986594,42.30090526 9.30504493,42.30141203 9.320784578,42.29544483 9.322942455,42.28900494 9.334276569,42.2835504 9.33503468,42.27989865 9.325860793,42.26455969 9.331116926,42.25547357 9.313321261,42.25723754 9.309806093,42.26943775 9.298690899,42.2646257 9.290704358,42.27309653 9.282449595,42.27626331 9.264065936,42.27475375 9.253904119,42.26804171 9.248964836,42.25133905 9.245671069,42.24890065 9.232146697,42.24985848 9.228238714,42.24973646" />
<polygon id="2B293 SANT'ANDREA-DI-COTONE" points="9.467700617,42.29988426 9.455209718,42.30733576 9.45828816,42.30979968 9.456077325,42.31607519 9.458162863,42.33880847 9.469645046,42.33448433 9.474331355,42.3257669 9.481668306,42.32409279 9.489864078,42.31669332 9.485232059,42.31141233 9.498464957,42.29961912 9.467700617,42.29988426" />
<polygon id="2B296 SANT'ANTONINO" points="8.898483057,42.5742277 8.894554029,42.59458473 8.908962098,42.59456291 8.916885114,42.59832491 8.915466786,42.58856779 8.92474268,42.58116519 8.918838945,42.57456928 8.898483057,42.5742277" />
<polygon id="2B297 SAN-DAMIANO" points="9.424255221,42.39127486 9.416516201,42.39901089 9.391907275,42.40428096 9.389042031,42.40856536 9.390126376,42.41613841 9.406815641,42.41472832 9.41447322,42.41685487 9.426008242,42.40742867 9.43886114,42.4076701 9.446431898,42.40404584 9.427800507,42.39695839 9.424255221,42.39127486" />
<polygon id="2B298 SAINT-FLORENT" points="9.283021653,42.66247584 9.265806825,42.66670734 9.265481672,42.67367116 9.258933871,42.67869999 9.260595184,42.69231183 9.235963837,42.7018157 9.229732526,42.7184047 9.234004332,42.71991434 9.248080406,42.71988599 9.25588767,42.71593871 9.256554336,42.70554541 9.27059532,42.69694747 9.286949763,42.67586377 9.295986741,42.67612506 9.321143061,42.69602476 9.3288806,42.6935281 9.337476805,42.69128658 9.337571669,42.67813893 9.323752139,42.66999259 9.302435864,42.6697647 9.283021653,42.66247584" />
<polygon id="2B299 SAN-GAVINO-D'AMPUGNANI" points="9.43886114,42.4076701 9.426008242,42.40742867 9.41447322,42.41685487 9.417724412,42.42794061 9.431258256,42.42625726 9.433450545,42.41334553 9.43886114,42.4076701" />
<polygon id="2B301 SAN-GAVINO-DI-TENDA" points="9.210229398,42.58594905 9.209453406,42.59457931 9.203420793,42.60371386 9.173431283,42.61962967 9.169731672,42.62942065 9.133524996,42.64589094 9.119080532,42.6597685 9.106990777,42.65563625 9.094337219,42.65928096 9.083490838,42.67799761 9.068011535,42.68472148 9.062211964,42.69392399 9.071430048,42.69334641 9.074556596,42.69600923 9.082794712,42.70463942 9.08623303,42.71458873 9.100417028,42.71561967 9.132704331,42.69477026 9.132642801,42.68178773 9.142453167,42.67410871 9.144183679,42.66735384 9.156302247,42.66189429 9.173163824,42.64047662 9.2009285,42.62088485 9.231958826,42.60414257 9.244891179,42.59951734 9.254446227,42.59948953 9.297489114,42.61404744 9.282415596,42.59657406 9.270206876,42.59111484 9.246579733,42.59250141 9.210229398,42.58594905" />
<polygon id="2B302 SAN-GIOVANNI-DI-MORIANI" points="9.479853831,42.3524573 9.471121732,42.35463095 9.450258099,42.3676324 9.432608143,42.36405823 9.437516374,42.37350939 9.45742041,42.38699242 9.487882559,42.38951118 9.48874707,42.38907962 9.48316293,42.37592864 9.486102063,42.37326016 9.479124116,42.35804804 9.482134846,42.35548353 9.479853831,42.3524573" />
<polygon id="2B303 SAN-GIULIANO" points="9.55515878,42.25214142 9.552324422,42.24959317 9.543792385,42.25112103 9.526887807,42.26639294 9.515116431,42.27102133 9.515504803,42.2811606 9.508815385,42.29023739 9.497375968,42.29626801 9.498464957,42.29961912 9.485232059,42.31141233 9.489864078,42.31669332 9.50348951,42.31913302 9.517345665,42.31752572 9.529297684,42.31203858 9.539609109,42.30048254 9.553670922,42.29923631 9.559823318,42.28271322 9.55515878,42.25214142" />
<polygon id="2B304 SAN-LORENZO" points="9.324922738,42.37662768 9.320793564,42.37533145 9.318654084,42.37826296 9.300995209,42.38017704 9.278968152,42.37868551 9.270528685,42.38526097 9.258858558,42.38690456 9.256987923,42.39203691 9.256190411,42.40310214 9.269439015,42.40604565 9.275010751,42.40060442 9.304633841,42.39236856 9.326710646,42.39616961 9.32684552,42.39123818 9.321187363,42.38616454 9.324922738,42.37662768" />
<polygon id="2B305 SAN-MARTINO-DI-LOTA" points="9.456258423,42.71758638 9.434455327,42.72463903 9.396514443,42.72775572 9.395447279,42.74051196 9.413777258,42.73715839 9.424872728,42.74320377 9.46132681,42.7401674 9.456258423,42.71758638" />
<polygon id="2B306 SANTA-LUCIA-DI-MERCURIO" points="9.205720196,42.28478122 9.197199025,42.28743375 9.188636657,42.29544289 9.19441422,42.32248506 9.195996515,42.3291633 9.213076297,42.33393539 9.223275871,42.34516689 9.238486924,42.35263245 9.250718255,42.3485685 9.254999754,42.33564889 9.240582026,42.32284708 9.238928954,42.30234346 9.228785554,42.29559158 9.222624612,42.28927261 9.208702124,42.28748262 9.205720196,42.28478122" />
<polygon id="2B307 SANTA-LUCIA-DI-MORIANI" points="9.486102063,42.37326016 9.48316293,42.37592864 9.48874707,42.38907962 9.497241487,42.38647733 9.512786838,42.39311069 9.535249417,42.39399566 9.532625384,42.37902298 9.523812684,42.37701205 9.506012772,42.38014164 9.499364479,42.37527256 9.486102063,42.37326016" />
<polygon id="2B309 SANTA-MARIA-DI-LOTA" points="9.46132681,42.7401674 9.424872728,42.74320377 9.413777258,42.73715839 9.395447279,42.74051196 9.388118085,42.74786925 9.388482886,42.7511852 9.402471157,42.75948678 9.414992482,42.77264716 9.419400984,42.76678034 9.442763418,42.75663341 9.468417042,42.75283799 9.46132681,42.7401674" />
<polygon id="2B311 SANTA-MARIA-POGGIO" points="9.540421099,42.33729111 9.529180934,42.34178868 9.506968053,42.33968897 9.479906628,42.34174948 9.476425899,42.34346783 9.479853831,42.3524573 9.482134846,42.35548353 9.493102681,42.36150533 9.535137464,42.35885552 9.540421099,42.33729111" />
<polygon id="2B313 SAN-NICOLAO" points="9.482134846,42.35548353 9.479124116,42.35804804 9.486102063,42.37326016 9.499364479,42.37527256 9.506012772,42.38014164 9.523812684,42.37701205 9.532625384,42.37902298 9.535137464,42.35885552 9.493102681,42.36150533 9.482134846,42.35548353" />
<polygon id="2B314 SANTO-PIETRO-DI-TENDA" points="9.297489114,42.61404744 9.254446227,42.59948953 9.244891179,42.59951734 9.231958826,42.60414257 9.2009285,42.62088485 9.173163824,42.64047662 9.156302247,42.66189429 9.144183679,42.66735384 9.142453167,42.67410871 9.132642801,42.68178773 9.132704331,42.69477026 9.100417028,42.71561967 9.107835928,42.72430424 9.116997126,42.72523227 9.123389719,42.73029528 9.137291185,42.72999403 9.163616467,42.73621734 9.197565857,42.72553305 9.212788615,42.73255904 9.221760164,42.73419281 9.234004332,42.71991434 9.229732526,42.7184047 9.235963837,42.7018157 9.260595184,42.69231183 9.258933871,42.67869999 9.265481672,42.67367116 9.265806825,42.66670734 9.262240753,42.66139689 9.264397151,42.65226039 9.297489114,42.61404744" />
<polygon id="2B315 SANTO-PIETRO-DI-VENACO" points="9.123746649,42.23894639 9.128215749,42.24479069 9.149419362,42.25735519 9.167178008,42.25499008 9.172877971,42.2497817 9.177307429,42.25047935 9.17890157,42.24362564 9.187345755,42.24052814 9.201163392,42.24258769 9.228991134,42.24061426 9.216460045,42.23594073 9.193014654,42.23654635 9.175650572,42.24190394 9.123746649,42.23894639" />
<polygon id="2B316 SANTA-REPARATA-DI-BALAGNA" points="8.92474268,42.58116519 8.915466786,42.58856779 8.916885114,42.59832491 8.918890249,42.60232473 8.915367208,42.60812776 8.923397732,42.62611924 8.935265812,42.62206092 8.940631751,42.61076308 8.952397888,42.60252503 8.948895242,42.60049352 8.949151215,42.58735243 8.941822026,42.58355974 8.92474268,42.58116519" />
<polygon id="2B317 SANTA-REPARATA-DI-MORIANI" points="9.469645046,42.33448433 9.458162863,42.33880847 9.44505658,42.34043433 9.439920118,42.3490874 9.429941771,42.35496732 9.432608143,42.36405823 9.450258099,42.3676324 9.471121732,42.35463095 9.479853831,42.3524573 9.476425899,42.34346783 9.479906628,42.34174948 9.478549088,42.33717895 9.469645046,42.33448433" />
<polygon id="2B318 TAGLIO-ISOLACCIO" points="9.480631103,42.42130278 9.470001122,42.42939966 9.461946597,42.43032227 9.458972695,42.43997268 9.462210041,42.44611636 9.508506642,42.44051582 9.54087606,42.44162389 9.54338558,42.42794914 9.524817784,42.43065939 9.480631103,42.42130278" />
<polygon id="2B319 TALASANI" points="9.485812687,42.40187591 9.47819403,42.40296276 9.471785567,42.41046884 9.480631103,42.42130278 9.524817784,42.43065939 9.54338558,42.42794914 9.538227955,42.41201336 9.515802307,42.41523003 9.5091602,42.41045991 9.495391966,42.40922763 9.485812687,42.40187591" />
<polygon id="2B320 TALLONE" points="9.556247066,42.14266514 9.548065015,42.14610207 9.536403047,42.13137714 9.531742604,42.13097058 9.51961629,42.13619042 9.492700077,42.14155955 9.469573888,42.14233526 9.454192716,42.1501894 9.438804893,42.16342409 9.429544703,42.18340728 9.420819035,42.19161823 9.418222987,42.20200888 9.386480241,42.22284233 9.384733823,42.2330817 9.410912403,42.24922843 9.448218284,42.22310801 9.460985244,42.22645129 9.472806117,42.22122167 9.470941676,42.21115548 9.4801506,42.19145014 9.499749921,42.1822065 9.516042946,42.16998848 9.524252203,42.16664275 9.542609601,42.16551018 9.549702784,42.15664076 9.554385493,42.15679282 9.556247066,42.14266514" />
<polygon id="2B321 TARRANO" points="9.403137703,42.3313736 9.402078278,42.33179817 9.389704416,42.33978431 9.392184981,42.35390954 9.410385093,42.35590582 9.412338632,42.33537218 9.403137703,42.3313736" />
<polygon id="2B327 TOMINO" points="9.469239446,42.93646785 9.451550171,42.93509738 9.42098853,42.93811379 9.4335962,42.95133466 9.455223647,42.95647775 9.469239446,42.93646785" />
<polygon id="2B328 TOX" points="9.472806117,42.22122167 9.460985244,42.22645129 9.448218284,42.22310801 9.410912403,42.24922843 9.409641731,42.25413815 9.4151246,42.25975768 9.43718634,42.2651116 9.443917092,42.26968035 9.456133974,42.24825222 9.469465976,42.23952267 9.475371521,42.23037953 9.475997321,42.22364167 9.472806117,42.22122167" />
<polygon id="2B329 TRALONCA" points="9.19441422,42.32248506 9.177582122,42.31885886 9.173749448,42.32064139 9.172591605,42.32728075 9.160983689,42.33138055 9.153933628,42.33989387 9.155058807,42.3463106 9.181426199,42.34879142 9.193275871,42.35796434 9.205320916,42.35314134 9.21570503,42.35889047 9.22940121,42.35873747 9.233974428,42.35534068 9.238486924,42.35263245 9.223275871,42.34516689 9.213076297,42.33393539 9.195996515,42.3291633 9.19441422,42.32248506" />
<polygon id="2B332 URTACA" points="9.209453406,42.59457931 9.161572734,42.59135047 9.139512579,42.59764534 9.134835289,42.60758108 9.101294015,42.63615061 9.096345492,42.64591965 9.106990777,42.65563625 9.119080532,42.6597685 9.133524996,42.64589094 9.169731672,42.62942065 9.173431283,42.61962967 9.203420793,42.60371386 9.209453406,42.59457931" />
<polygon id="2B333 VALLECALLE" points="9.346687066,42.58202664 9.335618432,42.58696898 9.328145202,42.59535851 9.315598212,42.59931303 9.321049487,42.60769348 9.311625094,42.61806428 9.320903418,42.61747888 9.343970474,42.60682875 9.363096067,42.59213332 9.351527519,42.58746558 9.346687066,42.58202664" />
<polygon id="2B334 VALLE-D'ALESANI" points="9.456077325,42.31607519 9.447783407,42.3141355 9.421381462,42.32065931 9.412934639,42.31776132 9.407371665,42.32465277 9.403137703,42.3313736 9.412338632,42.33537218 9.44505658,42.34043433 9.458162863,42.33880847 9.456077325,42.31607519" />
<polygon id="2B335 VALLE-DI-CAMPOLORO" points="9.542538109,42.32862003 9.534473582,42.32541006 9.52708015,42.32940009 9.504451177,42.33061742 9.478549088,42.33717895 9.479906628,42.34174948 9.506968053,42.33968897 9.529180934,42.34178868 9.540421099,42.33729111 9.542538109,42.32862003" />
<polygon id="2B337 VALLE-DI-ROSTINO" points="9.308135211,42.44810409 9.294845238,42.44443662 9.271072134,42.44606599 9.240227404,42.45523739 9.215730716,42.46612075 9.210206131,42.47165499 9.223519478,42.4726898 9.236382422,42.46961954 9.249933799,42.47082647 9.261817772,42.47555642 9.273977252,42.4707104 9.287473949,42.47026564 9.308135211,42.44810409" />
<polygon id="2B338 VALLE-D'OREZZA" points="9.392184981,42.35390954 9.388367657,42.36202945 9.381609194,42.36494247 9.390221555,42.36675135 9.393525031,42.37293708 9.401946217,42.37309735 9.402778444,42.36992708 9.429941771,42.35496732 9.413846497,42.3576447 9.410385093,42.35590582 9.392184981,42.35390954" />
<polygon id="2B339 VALLICA" points="9.035949796,42.49516501 9.039806684,42.50511595 9.034827541,42.5183447 9.040190043,42.53140228 9.067211343,42.534285 9.074522912,42.53811509 9.081239401,42.52127736 9.07836479,42.50726812 9.061082279,42.50430403 9.051495409,42.4981054 9.035949796,42.49516501" />
<polygon id="2B340 VELONE-ORNETO" points="9.432608143,42.36405823 9.426485228,42.37273426 9.425780366,42.37959447 9.420292952,42.38511147 9.424255221,42.39127486 9.427800507,42.39695839 9.446431898,42.40404584 9.45861594,42.40341452 9.471785567,42.41046884 9.47819403,42.40296276 9.485812687,42.40187591 9.487882559,42.38951118 9.45742041,42.38699242 9.437516374,42.37350939 9.432608143,42.36405823" />
<polygon id="2B341 VENACO" points="9.168212038,42.19317396 9.15447917,42.19445015 9.121104487,42.18315143 9.058004874,42.19477214 9.048985929,42.19299804 9.045742524,42.20772985 9.053991392,42.21599268 9.065263054,42.20985942 9.074266137,42.20969542 9.090317641,42.21668813 9.099184183,42.22486742 9.116702892,42.2301588 9.123746649,42.23894639 9.175650572,42.24190394 9.193014654,42.23654635 9.216460045,42.23594073 9.228991134,42.24061426 9.245192173,42.2280321 9.190788905,42.22019799 9.174393683,42.19926794 9.168212038,42.19317396" />
<polygon id="2B342 VENTISERI" points="9.40897714,41.90661748 9.365296386,41.91985263 9.337142554,41.92018662 9.319529617,41.92495625 9.311560703,41.92143174 9.30385895,41.92501047 9.302268058,41.94170639 9.294577771,41.94970878 9.329942779,41.95915735 9.349532589,41.96847219 9.377713002,41.96983821 9.401228445,41.96805453 9.408473865,41.96416271 9.407761029,41.94321329 9.412961673,41.93809318 9.416116208,41.92860853 9.40897714,41.90661748" />
<polygon id="2B343 VENZOLASCA" points="9.442240517,42.47580026 9.446597573,42.48093888 9.44461826,42.48662354 9.465793442,42.49999598 9.466178989,42.50347213 9.485347366,42.51284136 9.503525685,42.51655841 9.5109418,42.52084079 9.524811386,42.52056025 9.533107218,42.52375001 9.534349836,42.52330395 9.529584888,42.49557954 9.506120359,42.49633061 9.458965291,42.47962088 9.449426698,42.48029849 9.442240517,42.47580026" />
<polygon id="2B344 VERDESE" points="9.364496348,42.38789928 9.366189408,42.39606699 9.384225284,42.39879079 9.384613372,42.39900195 9.379782786,42.3937641 9.364496348,42.38789928" />
<polygon id="2B346 VESCOVATO" points="9.44461826,42.48662354 9.41796041,42.49197694 9.449658264,42.50552938 9.448643354,42.5191651 9.453491229,42.52506789 9.472593311,42.53423649 9.499817645,42.53600648 9.50904088,42.53515469 9.525091726,42.52382644 9.533107218,42.52375001 9.524811386,42.52056025 9.5109418,42.52084079 9.503525685,42.51655841 9.485347366,42.51284136 9.466178989,42.50347213 9.465793442,42.49999598 9.44461826,42.48662354" />
<polygon id="2B347 VEZZANI" points="9.367851006,42.09960521 9.3479353,42.10706716 9.338121115,42.11449754 9.324336753,42.11589914 9.312891699,42.12205424 9.283832308,42.14930307 9.27163924,42.16792864 9.250144086,42.15498367 9.250792962,42.14129794 9.237792533,42.14410182 9.223985749,42.16191464 9.219582018,42.16300262 9.219254306,42.16550974 9.230727809,42.17678825 9.25472531,42.18804851 9.260768761,42.19764379 9.264481046,42.1992544 9.275833008,42.19510299 9.291795164,42.19924087 9.295928468,42.19832827 9.297101592,42.1919841 9.312188803,42.1859658 9.316644081,42.18051659 9.318076745,42.15310684 9.343554237,42.14481335 9.343604245,42.135534 9.356981762,42.12363412 9.35692344,42.11717398 9.367851006,42.09960521" />
<polygon id="2B350 VIGNALE" points="9.427005675,42.51920127 9.41859123,42.52040317 9.412611155,42.52489417 9.400764813,42.521503 9.391287778,42.522027 9.375469563,42.53313024 9.371659036,42.54623729 9.375129732,42.5559958 9.381934102,42.56008914 9.395719686,42.5500811 9.403983375,42.54668959 9.407286502,42.54012338 9.42499822,42.52897306 9.427005675,42.51920127" />
<polygon id="2B352 VILLE-DI-PARASO" points="8.998596407,42.54879896 8.983790731,42.56242435 8.983322941,42.58007642 8.978896403,42.58627514 8.978121147,42.61081497 8.975146681,42.61358722 8.984851805,42.62048165 8.999952558,42.58530002 8.996031849,42.58360011 8.994357294,42.57373165 8.999903306,42.56847901 9.004393338,42.56896555 9.008195952,42.55935675 9.006242011,42.55353444 8.998418746,42.55181119 8.998596407,42.54879896" />
<polygon id="2B353 VILLE-DI-PIETRABUGNO" points="9.404835885,42.70479551 9.407927607,42.7179699 9.401103522,42.7269848 9.396514443,42.72775572 9.434455327,42.72463903 9.456258423,42.71758638 9.454509391,42.70812051 9.446228497,42.70966695 9.43865137,42.70630797 9.421098424,42.7090694 9.413809632,42.70520429 9.404835885,42.70479551" />
<polygon id="2B354 VIVARIO" points="9.133688097,42.09055437 9.123633486,42.1054036 9.105522471,42.11570587 9.092107048,42.1167222 9.083619125,42.12475376 9.07203224,42.13000629 9.076167611,42.13614984 9.065062432,42.16587898 9.052273621,42.1696747 9.048122524,42.17570687 9.048985929,42.19299804 9.058004874,42.19477214 9.121104487,42.18315143 9.15447917,42.19445015 9.168212038,42.19317396 9.179100213,42.17159145 9.172084259,42.14857421 9.180083944,42.14058139 9.177890722,42.1337871 9.151574888,42.10963237 9.149837599,42.10275741 9.133688097,42.09055437" />
<polygon id="2B355 VOLPAJOLA" points="9.334993176,42.50595521 9.333914705,42.53551869 9.346047024,42.54502396 9.362032312,42.5249869 9.391287778,42.522027 9.400764813,42.521503 9.402933278,42.51871204 9.396241257,42.51461366 9.393032019,42.5054718 9.388842487,42.50461393 9.38462912,42.50988109 9.367710335,42.50531153 9.341735882,42.51045989 9.334993176,42.50595521" />
<polygon id="2B356 ZALANA" points="9.381679047,42.23399593 9.377888057,42.23238475 9.366214784,42.23682799 9.360162746,42.24489091 9.367238232,42.2490285 9.366811844,42.25570808 9.35704574,42.26222655 9.358277108,42.27233215 9.378005291,42.27311354 9.388296631,42.26684994 9.397048918,42.26607002 9.4042175,42.26268901 9.409641731,42.25413815 9.410912403,42.24922843 9.384733823,42.2330817 9.381679047,42.23399593" />
<polygon id="2B361 ZILIA" points="8.918912107,42.49798366 8.85791834,42.52344038 8.871132586,42.5254174 8.907250745,42.5382414 8.914557589,42.53408596 8.917447759,42.52761513 8.932348167,42.51965583 8.939586595,42.51594407 8.918912107,42.49798366" />
<polygon id="2B364 ZUANI" points="9.338552475,42.25072884 9.331116926,42.25547357 9.325860793,42.26455969 9.33503468,42.27989865 9.353897553,42.27124209 9.358277108,42.27233215 9.35704574,42.26222655 9.345518287,42.25711039 9.348952628,42.25072885 9.338552475,42.25072884" />
<polygon id="2B365 SAN-GAVINO-DI-FIUMORBO" points="9.230643244,41.93263044 9.216812853,41.94062842 9.222672254,41.94946617 9.226045438,41.97221186 9.220691945,41.97674504 9.220242627,41.98962291 9.238632281,41.99022364 9.259059262,41.99781148 9.280955753,41.99467316 9.284704434,41.98837551 9.297322522,41.98594751 9.277683163,41.97805892 9.230643244,41.93263044" />
<polygon id="2B366 CHISA" points="9.236106904,41.87543607 9.237199402,41.88199471 9.250097688,41.8964964 9.25067742,41.90331987 9.249417157,41.90667479 9.2463549,41.90930734 9.234748588,41.91499538 9.221067094,41.91419898 9.213279745,41.91746046 9.230643244,41.93263044 9.243452027,41.9359648 9.269058263,41.94973148 9.281761637,41.94647979 9.294577771,41.94970878 9.302268058,41.94170639 9.30385895,41.92501047 9.311560703,41.92143174 9.285631109,41.90812779 9.258351241,41.88540935 9.240986246,41.88120293 9.236106904,41.87543607" />

</g>

</g>

</svg>
