<?xml version="1.0" encoding="UTF-8" standalone="no"?>
<!-- Created with Inkscape (http://www.inkscape.org/) -->

<svg
   xmlns:dc="http://purl.org/dc/elements/1.1/"
   xmlns:cc="http://creativecommons.org/ns#"
   xmlns:rdf="http://www.w3.org/1999/02/22-rdf-syntax-ns#"
   xmlns:svg="http://www.w3.org/2000/svg"
   xmlns="http://www.w3.org/2000/svg"
   xmlns:sodipodi="http://sodipodi.sourceforge.net/DTD/sodipodi-0.dtd"
   xmlns:inkscape="http://www.inkscape.org/namespaces/inkscape"
   width="1164.744"
   height="655.88202"
   id="svg2"
   sodipodi:version="0.32"
   inkscape:version="0.92.4 (5da689c313, 2019-01-14)"
   version="1.0"
   sodipodi:docname="CarteParisQuartiers.svg">
  <defs
     id="defs4" />
  <sodipodi:namedview
     id="base"
     pagecolor="#ffffff"
     bordercolor="#666666"
     borderopacity="1.0"
     gridtolerance="10000"
     guidetolerance="10"
     objecttolerance="10"
     inkscape:pageopacity="0.0"
     inkscape:pageshadow="2"
     inkscape:zoom="6.8140006"
     inkscape:cx="561.14573"
     inkscape:cy="468.16952"
     inkscape:document-units="px"
     inkscape:current-layer="layer1"
     width="1030px"
     height="740px"
     showguides="true"
     inkscape:guide-bbox="true"
     inkscape:window-width="958"
     inkscape:window-height="1041"
     inkscape:window-x="952"
     inkscape:window-y="0"
     showgrid="false"
     inkscape:window-maximized="0" />
  <metadata
     id="metadata7">
    <rdf:RDF>
      <cc:Work
         rdf:about="">
        <dc:format>image/svg+xml</dc:format>
        <dc:type
           rdf:resource="http://purl.org/dc/dcmitype/StillImage" />
        <dc:title />
      </cc:Work>
    </rdf:RDF>
  </metadata>
  <g
     inkscape:label="Layer 1"
     inkscape:groupmode="layer"
     id="layer1"
     transform="translate(0,-84.118)"
     style="opacity:1">
    <path
       style="opacity:1;vector-effect:none;fill:#c0c0c0;fill-opacity:1;stroke:none;stroke-width:1.26833141;stroke-linecap:butt;stroke-linejoin:miter;stroke-miterlimit:4.5;stroke-dasharray:none;stroke-dashoffset:0;stroke-opacity:1"
       d="M 652.70117 346.40039 L 643.8457 359.41016 L 631.16211 378.17969 C 632.77618 379.19933 634.07454 380.14308 635.49219 381.36523 C 637.81448 383.36729 639.81433 385.34621 639.9375 385.76172 C 640.54252 387.80268 643.23863 402.56247 643.26953 404.00391 C 643.32183 406.44359 643.56487 406.82296 648.76758 412.60156 C 651.39502 415.51983 653.68788 417.81934 653.86328 417.71094 C 654.03867 417.60254 654.34038 416.32469 654.5332 414.87109 C 654.93524 411.84041 655.5074 410.93953 657.02148 410.95312 C 657.61083 410.95812 660.91032 411.85995 664.35547 412.95703 C 667.80062 414.05416 670.6503 414.89954 670.6875 414.83594 C 671.45729 413.51892 682.93983 373.42705 682.60742 373.2168 C 682.34754 373.05243 681.03191 369.20297 679.68359 364.66211 L 675.84766 352.46094 L 652.70117 346.40039 z "
       id="path2520"
       transform="translate(0,84.118)" />
    <path
       style="opacity:1;vector-effect:none;fill:#c0c0c0;fill-opacity:1;stroke:none;stroke-width:1.26833141;stroke-linecap:butt;stroke-linejoin:miter;stroke-miterlimit:4.5;stroke-dasharray:none;stroke-dashoffset:0;stroke-opacity:1"
       d="M 614.46094 320.92969 L 603.12695 337.07617 L 593.60352 358.70898 C 594.0358 359.00904 595.15562 359.59674 595.38672 359.80469 C 596.07924 360.42782 604.43764 364.71551 613.95898 369.33203 C 622.60366 373.52351 626.94125 375.68168 629.82031 377.3418 L 642.53711 358.52344 L 651.08008 345.97656 L 642.36328 343.69336 L 614.46094 320.92969 z "
       id="path2515"
       transform="translate(0,84.118)" />
    <path
       style="opacity:1;vector-effect:none;fill:#c0c0c0;fill-opacity:1;stroke:none;stroke-width:1.26833141;stroke-linecap:butt;stroke-linejoin:miter;stroke-miterlimit:4.5;stroke-dasharray:none;stroke-dashoffset:0;stroke-opacity:1"
       d="M 578.61719 307.18945 L 562.23633 344.78711 C 563.5111 345.21387 568.24047 346.85748 568.38281 346.88867 C 570.32632 347.76649 575.0537 349.15218 577.32422 349.95898 C 580.5976 351.12214 588.029 355.18944 592.24609 357.875 L 601.74414 336.29688 L 613.16797 320.02148 L 578.61719 307.18945 z "
       id="path2465"
       transform="translate(0,84.118)" />
    <path
       style="opacity:1;vector-effect:none;fill:#c0c0c0;fill-opacity:1;stroke:none;stroke-width:1.26833141;stroke-linecap:butt;stroke-linejoin:miter;stroke-miterlimit:4.5;stroke-dasharray:none;stroke-dashoffset:0;stroke-opacity:1"
       d="M 629.08789 301.57812 L 615.67188 318.84961 L 643.46289 341.52734 L 675.00781 349.78516 L 674.78125 349.06836 C 674.73985 348.35245 672.74351 338.33526 670.18164 326.02344 C 668.90737 319.89956 668.40036 317.91991 667.61914 314.35156 L 635.6543 307.26953 L 629.08789 301.57812 z "
       id="path2510"
       transform="translate(0,84.118)" />
    <path
       style="opacity:1;vector-effect:none;fill:#c0c0c0;fill-opacity:1;stroke:none;stroke-width:1.26833141;stroke-linecap:butt;stroke-linejoin:miter;stroke-miterlimit:4.5;stroke-dasharray:none;stroke-dashoffset:0;stroke-opacity:1"
       d="M 596.19336 284.6543 L 587.42383 286.97266 L 579.56641 305.00781 L 614.38086 317.9375 L 627.89258 300.54297 L 626.50586 299.3418 L 596.19336 284.6543 z "
       id="path2500"
       transform="translate(0,84.118)" />
    <path
       style="opacity:1;vector-effect:none;fill:#c0c0c0;fill-opacity:1;stroke:none;stroke-width:1.26833141;stroke-linecap:butt;stroke-linejoin:miter;stroke-miterlimit:4.5;stroke-dasharray:none;stroke-dashoffset:0;stroke-opacity:1"
       d="M 622.14062 295.4707 L 627.38281 298.01172 L 636.38672 305.8125 L 667.24609 312.64844 C 665.33295 304.08072 663.92199 298.84848 660.75195 289.96094 L 656.13281 277.00977 L 651.06836 271.9707 L 646.00391 266.92969 L 645.97852 266.92188 L 639.22266 270.2793 L 622.14062 295.4707 z "
       id="path2505"
       transform="translate(0,84.118)" />
    <path
       style="opacity:1;vector-effect:none;fill:#c0c0c0;fill-opacity:1;stroke:none;stroke-width:1.26833141;stroke-linecap:butt;stroke-linejoin:miter;stroke-miterlimit:4.5;stroke-dasharray:none;stroke-dashoffset:0;stroke-opacity:1"
       d="M 643.78906 266.24609 L 626.38086 260.87109 C 615.88168 257.62931 603.0038 253.55267 602.08398 253.32227 L 588.22852 285.12695 L 596.35547 282.97852 L 620.70312 294.77539 L 638.14648 269.04883 L 643.78906 266.24609 z "
       id="path2503"
       transform="translate(0,84.118)" />
    <path
       style="opacity:1;vector-effect:none;fill:#c0c0c0;fill-opacity:1;stroke:none;stroke-width:1.26833141;stroke-linecap:butt;stroke-linejoin:miter;stroke-miterlimit:4.5;stroke-dasharray:none;stroke-dashoffset:0;stroke-opacity:1"
       d="M 555.55859 360.11719 C 557.47433 361.90363 559.00952 363.22877 559.25586 363.14453 C 559.63292 363.50981 569.35986 369.19383 576.62695 372.72852 C 588.92541 378.71045 590.42878 379.31603 593.87695 379.68359 C 595.95452 379.90505 597.79154 380.1174 597.95898 380.1543 C 598.12641 380.1911 596.74137 376.67394 594.88281 372.33984 C 592.22982 366.15316 591.21776 364.30972 590.17188 363.76172 C 589.43917 363.37782 588.83703 362.78858 588.83203 362.45117 C 588.81533 361.24101 568.76344 352.36935 565.77148 351.9668 C 565.77048 351.9648 565.77248 351.95638 565.77148 351.95508 C 565.67012 351.86472 561.79919 350.62972 559.97852 349.97266 L 555.55859 360.11719 z M 599.60352 368.78516 C 599.44845 368.94023 600.78855 372.30232 602.58008 376.25586 L 605.83789 383.44336 L 621.38867 393.14062 C 629.94165 398.4739 637.13653 402.84803 637.37891 402.86133 C 637.62126 402.87463 637.69603 402.26177 637.54492 401.5 C 637.39382 400.73822 636.75077 397.44124 636.11523 394.17383 L 634.95898 388.23438 L 631.66797 385.32422 C 628.91344 382.89025 626.05223 381.28101 614.13086 375.45898 C 606.296 371.63267 599.75858 368.6301 599.60352 368.78516 z "
       id="path2453"
       transform="translate(0,84.118)" />
    <path
       style="opacity:1;vector-effect:none;fill:#c0c0c0;fill-opacity:1;stroke:none;stroke-width:1.26833141;stroke-linecap:butt;stroke-linejoin:miter;stroke-miterlimit:4.5;stroke-dasharray:none;stroke-dashoffset:0;stroke-opacity:1"
       d="M 456.24414 276.87305 C 455.20526 279.51352 454.19985 282.26473 452.54883 287.21484 C 450.16166 294.37209 448.40369 300.40713 448.64258 300.62695 C 448.88148 300.84676 453.26986 302.55395 458.39453 304.41992 C 463.51919 306.28589 479.04408 312.70492 492.89453 318.68359 C 515.35167 328.37743 520.77525 330.4913 543.00781 338.21289 C 552.06146 341.35731 555.4801 342.49476 559.98242 344.01758 L 566.16602 329.82617 L 456.24414 276.87305 z M 535.59375 341.63281 C 535.49087 341.73569 537.85347 343.87065 540.84375 346.37695 C 543.83402 348.88325 549.1069 353.77952 552.56055 357.25781 C 553.01648 357.71701 553.30114 357.95408 553.72852 358.37305 L 557.72461 349.20312 C 549.06329 346.14126 535.75225 341.47431 535.59375 341.63281 z "
       transform="translate(0,84.118)"
       id="path2451" />
    <path
       style="opacity:1;vector-effect:none;fill:#c0c0c0;fill-opacity:1;stroke:none;stroke-width:1.26833141;stroke-linecap:butt;stroke-linejoin:miter;stroke-miterlimit:4.5;stroke-dasharray:none;stroke-dashoffset:0;stroke-opacity:1"
       d="M 535.34766 278.23828 L 525.74414 301.56641 L 524.82812 308.16016 L 566.79688 328.37695 L 581.77734 293.99219 L 535.34766 278.23828 z "
       id="path2475"
       transform="translate(0,84.118)" />
    <path
       style="opacity:1;vector-effect:none;fill:#c0c0c0;fill-opacity:1;stroke:none;stroke-width:1.26833141;stroke-linecap:butt;stroke-linejoin:miter;stroke-miterlimit:4.5;stroke-dasharray:none;stroke-dashoffset:0;stroke-opacity:1"
       d="M 496.96875 265.21484 L 487.00586 289.93945 L 523.33203 307.43945 L 524.20703 301.15039 L 533.84766 277.72852 L 496.96875 265.21484 z "
       id="path2480"
       transform="translate(0,84.118)" />
    <path
       style="opacity:1;vector-effect:none;fill:#c0c0c0;fill-opacity:1;stroke:none;stroke-width:1.26833141;stroke-linecap:butt;stroke-linejoin:miter;stroke-miterlimit:4.5;stroke-dasharray:none;stroke-dashoffset:0;stroke-opacity:1"
       d="M 474.28711 254.17773 C 474.12767 254.22165 472.01809 254.73767 472.00586 254.74805 L 468.9043 256.41602 L 465.80273 258.08398 L 461.3457 266.14258 C 459.2854 269.86785 458.02561 272.35045 456.77734 275.37695 L 485.58008 289.25195 L 495.4707 264.70703 L 479.04102 259.13281 L 474.28711 254.17773 z "
       id="path2460"
       transform="translate(0,84.118)" />
    <path
       style="opacity:1;vector-effect:none;fill:#c0c0c0;fill-opacity:1;stroke:none;stroke-width:1.26833141;stroke-linecap:butt;stroke-linejoin:miter;stroke-miterlimit:4.5;stroke-dasharray:none;stroke-dashoffset:0;stroke-opacity:1"
       d="M 564.40234 285.58789 L 582.72852 291.80664 L 599.77734 252.67383 L 595.19727 251.25586 C 591.56224 250.12973 587.45535 248.85717 586.07031 248.42773 C 584.68526 247.99829 583.31719 247.35669 583.03125 247.00195 C 582.84873 246.77553 574.91217 245.12955 568.89844 243.82812 L 568.79102 255.57422 L 568.78125 255.62891 C 568.78125 255.62891 567.49697 264.08895 566.21289 272.85938 C 565.57085 277.24459 564.93026 281.70781 564.44922 285.22656 C 564.42965 285.36973 564.42139 285.44791 564.40234 285.58789 z "
       id="path2495"
       transform="translate(0,84.118)" />
    <path
       style="opacity:1;vector-effect:none;fill:#c0c0c0;fill-opacity:1;stroke:none;stroke-width:1.26833141;stroke-linecap:butt;stroke-linejoin:miter;stroke-miterlimit:4.5;stroke-dasharray:none;stroke-dashoffset:0;stroke-opacity:1"
       d="M 567.32227 243.47461 C 564.30487 242.83232 564.28497 242.7047 560.68945 241.98438 L 544.33984 238.70898 L 534.03516 275.28516 L 562.875 285.07031 C 562.87805 285.04798 562.87975 285.03608 562.88281 285.01367 C 563.36512 281.48564 564.00796 277.01872 564.65039 272.63086 C 565.9316 263.88003 567.20394 255.48921 567.21094 255.44141 L 567.32227 243.47461 z "
       id="path2493"
       transform="translate(0,84.118)" />
    <path
       style="opacity:1;vector-effect:none;fill:#c0c0c0;fill-opacity:1;stroke:none;stroke-width:1.26833141;stroke-linecap:butt;stroke-linejoin:miter;stroke-miterlimit:4.5;stroke-dasharray:none;stroke-dashoffset:0;stroke-opacity:1"
       d="M 542.78516 238.39844 L 538.86719 237.61328 L 512.89844 244.46289 L 513.06641 254.24805 L 508.56445 266.64258 L 532.53516 274.77539 L 542.78516 238.39844 z "
       id="path2488"
       transform="translate(0,84.118)" />
    <path
       style="opacity:1;vector-effect:none;fill:#c0c0c0;fill-opacity:1;stroke:none;stroke-width:1.26833141;stroke-linecap:butt;stroke-linejoin:miter;stroke-miterlimit:4.5;stroke-dasharray:none;stroke-dashoffset:0;stroke-opacity:1"
       d="M 511.32422 244.87695 L 508.83008 245.53516 C 494.52358 249.30879 481.36824 252.39476 476.94141 253.51367 L 480.35352 257.07031 L 507.06836 266.13477 L 511.48047 253.98242 L 511.32422 244.87695 z "
       id="path2483"
       transform="translate(0,84.118)" />
    <path
       style="opacity:1;vector-effect:none;fill:#c0c0c0;fill-opacity:1;stroke:none;stroke-width:2.53666282;stroke-linecap:butt;stroke-linejoin:miter;stroke-miterlimit:4.5;stroke-dasharray:none;stroke-dashoffset:0;stroke-opacity:1"
       d="M 582.7793 490.19336 C 588.35062 491.14071 593.76556 491.97764 594.76562 492.02734 C 595.80579 492.07908 605.61556 487.48181 616.56445 481.8125 L 636.4707 471.50391 L 648.49414 452.85352 L 660.51562 434.20117 L 650.58789 423.11914 C 648.41002 420.68852 646.74659 418.87569 645.13086 417.21289 L 610.1875 444.46289 L 599.79688 444.25 L 582.96875 439.5625 L 585.90625 457.10742 L 586.81836 476.95312 L 582.7793 490.19336 z "
       id="path1838"
       transform="translate(0,84.118)" />
    <path
       style="opacity:1;vector-effect:none;fill:#c0c0c0;fill-opacity:1;stroke:none;stroke-width:2.53666282;stroke-linecap:butt;stroke-linejoin:miter;stroke-miterlimit:4.5;stroke-dasharray:none;stroke-dashoffset:0;stroke-opacity:1"
       d="M 581.28906 439.09375 L 562.78711 433.94141 L 542.33789 418.55273 C 532.58475 446.208 522.82589 474.2801 523.07812 474.50586 C 524.28093 475.5824 571.67914 488.07189 581.22852 489.85547 L 585.22656 476.75195 L 584.33203 457.27539 L 581.28906 439.09375 z "
       id="path1836"
       transform="translate(0,84.118)" />
    <path
       style="opacity:1;vector-effect:none;fill:#c0c0c0;fill-opacity:1;stroke:none;stroke-width:2.53666282;stroke-linecap:butt;stroke-linejoin:miter;stroke-miterlimit:4.5;stroke-dasharray:none;stroke-dashoffset:0;stroke-opacity:1"
       d="M 584.625 382.58789 L 579.86133 394.26562 L 579.05078 416.16797 L 582.67969 437.8418 L 600.0293 442.67383 L 609.6582 442.87109 L 643.99805 416.0918 C 638.93387 411.08166 634.35083 408.07607 619.41797 398.69336 C 600.75052 386.96411 597.65471 385.3457 593.87109 385.3457 C 591.87178 385.3457 588.77229 384.31488 584.625 382.58789 z "
       id="path1833"
       transform="translate(0,84.118)" />
    <path
       style="opacity:1;vector-effect:none;fill:#c0c0c0;fill-opacity:1;stroke:none;stroke-width:2.53666282;stroke-linecap:butt;stroke-linejoin:miter;stroke-miterlimit:4.5;stroke-dasharray:none;stroke-dashoffset:0;stroke-opacity:1"
       d="M 559.16406 371.85352 C 558.74397 372.29347 550.66341 395.00151 542.89844 416.99609 L 563.49805 432.49805 L 581 437.37305 L 577.4668 416.26953 L 578.29297 393.92773 L 583.18359 381.9375 C 580.71769 380.87009 578.5704 379.98983 574.79492 378.15039 C 566.25997 373.99212 559.66094 371.33315 559.16406 371.85352 z "
       id="Paris5"
       transform="translate(0,84.118)" />
    <path
       style="opacity:1;vector-effect:none;fill:#c0c0c0;fill-opacity:1;stroke:none;stroke-width:2.53666282;stroke-linecap:butt;stroke-linejoin:miter;stroke-miterlimit:4.5;stroke-dasharray:none;stroke-dashoffset:0;stroke-opacity:1"
       d="M 520.07031 465.2168 C 523.05417 457.88803 528.88055 442.22575 536.72656 419.8457 L 545.8418 393.8457 L 534.45312 379.76562 L 518.33984 373.78125 L 498.74414 378.77734 L 496.50781 428.45703 L 520.07031 465.2168 z "
       id="path1869"
       transform="translate(0,84.118)" />
    <path
       style="opacity:1;vector-effect:none;fill:#c0c0c0;fill-opacity:1;stroke:none;stroke-width:2.53666282;stroke-linecap:butt;stroke-linejoin:miter;stroke-miterlimit:4.5;stroke-dasharray:none;stroke-dashoffset:0;stroke-opacity:1"
       d="M 497.14453 379.18555 L 484.10547 382.50977 L 480.05664 390.69922 L 456.16406 408.41992 C 443.02334 418.16672 432.38098 426.50926 432.51367 426.95898 C 432.94418 428.41804 458.22882 442.32709 487.61133 457.26758 C 503.40085 465.29627 516.79854 471.89002 517.38477 471.91992 C 517.47884 471.92472 518.86543 468.14586 519.34961 467.01758 L 494.9082 428.88867 L 497.14453 379.18555 z "
       id="path1867"
       transform="translate(0,84.118)" />
    <path
       style="opacity:1;vector-effect:none;fill:#c0c0c0;fill-opacity:1;stroke:none;stroke-width:2.53666282;stroke-linecap:butt;stroke-linejoin:miter;stroke-miterlimit:4.5;stroke-dasharray:none;stroke-dashoffset:0;stroke-opacity:1"
       d="M 524.82617 374.50586 L 535.41016 378.43555 L 546.45703 392.0918 L 555.00195 367.71875 L 550.26562 362.81641 C 547.66138 360.12048 539.78968 353.08494 532.77148 347.18164 C 527.83213 343.02694 524.18587 340.1563 521.04492 338.01367 L 524.82617 374.50586 z "
       id="path1860"
       transform="translate(0,84.118)" />
    <path
       style="opacity:1;vector-effect:none;fill:#c0c0c0;fill-opacity:1;stroke:none;stroke-width:2.53666282;stroke-linecap:butt;stroke-linejoin:miter;stroke-miterlimit:4.5;stroke-dasharray:none;stroke-dashoffset:0;stroke-opacity:1"
       d="M 519.34766 336.96094 C 517.00491 335.48073 514.82669 334.2851 512.55273 333.33594 L 505.0957 330.22266 L 500.24805 344.94141 C 497.47948 353.34663 492.10922 366.31707 487.72852 375.17969 L 485.02734 380.64453 L 518.42773 372.12891 L 523.17383 373.89062 L 519.34766 336.96094 z "
       id="path1858"
       transform="translate(0,84.118)" />
    <path
       style="opacity:1;vector-effect:none;fill:#c0c0c0;fill-opacity:1;stroke:none;stroke-width:2.53666282;stroke-linecap:butt;stroke-linejoin:miter;stroke-miterlimit:4.5;stroke-dasharray:none;stroke-dashoffset:0;stroke-opacity:1"
       d="M 472.58594 316.40234 L 442.58008 364.03125 L 438.35352 388.05078 L 446.07617 409.85547 C 448.06204 408.40445 449.53097 407.40111 451.63281 405.83789 L 476.14453 387.60938 L 483.4082 373.0332 C 489.60373 360.60201 501.41811 329.31459 500.32812 328.22461 C 499.5055 327.40199 486.95412 322.17229 472.58594 316.40234 z "
       id="path1878"
       transform="translate(0,84.118)" />
    <path
       style="opacity:1;vector-effect:none;fill:#c0c0c0;fill-opacity:1;stroke:none;stroke-width:2.53666282;stroke-linecap:butt;stroke-linejoin:miter;stroke-miterlimit:4.5;stroke-dasharray:none;stroke-dashoffset:0;stroke-opacity:1"
       d="M 436.74609 388.24609 L 413.82227 387.87109 L 414.64258 373.87109 L 370.42773 369.07812 L 350.02344 390.54102 C 363.6549 404.26025 379.56919 420.30259 379.91797 420.43164 C 380.41229 420.61455 382.01735 419.82041 383.48242 418.66797 C 384.9475 417.51555 386.71448 416.57227 387.41016 416.57227 C 388.10584 416.57227 392.76942 419.26105 397.77344 422.54688 C 403.11445 426.05397 408.25519 428.663 410.22266 428.86523 C 412.36766 429.08571 415.3879 428.29443 418.61133 426.66797 C 421.38142 425.27025 424.42935 424.11376 425.38477 424.09766 C 426.15543 424.08469 434.66372 418.15067 444.74023 410.82031 L 436.74609 388.24609 z "
       id="path1887"
       transform="translate(0,84.118)" />
    <path
       style="opacity:1;vector-effect:none;fill:#c0c0c0;fill-opacity:1;stroke:none;stroke-width:2.53666282;stroke-linecap:butt;stroke-linejoin:miter;stroke-miterlimit:4.5;stroke-dasharray:none;stroke-dashoffset:0;stroke-opacity:1"
       d="M 391.26953 369.74609 L 416.30859 372.46094 L 415.49609 386.31836 L 436.99219 386.66992 L 441.07812 363.45312 L 471.08594 315.81836 C 461.15108 311.84227 450.44769 307.58384 442.43359 304.65625 L 417.9043 295.69531 L 398.40234 295.69531 C 397.33362 295.69531 396.7446 295.71692 395.7793 295.71875 L 391.26953 369.74609 z "
       id="path1896"
       transform="translate(0,84.118)" />
    <path
       style="opacity:1;vector-effect:none;fill:#c0c0c0;fill-opacity:1;stroke:none;stroke-width:2.53666282;stroke-linecap:butt;stroke-linejoin:miter;stroke-miterlimit:4.5;stroke-dasharray:none;stroke-dashoffset:0;stroke-opacity:1"
       d="M 394.19727 295.73242 C 379.54956 295.79241 375.47474 296.29579 349.95898 300.75977 C 334.04015 303.54476 320.95857 305.92523 320.88867 306.04883 C 320.81873 306.17244 315.55755 312.39185 309.19727 319.87109 C 302.83699 327.35034 297.28235 334.04788 296.85352 334.75391 C 296.32535 335.62352 309.452 349.59586 337.54688 378.06836 C 343.66109 384.26476 343.61361 384.09543 348.9043 389.42383 L 369.82031 367.42188 L 389.69727 369.57617 L 394.19727 295.73242 z "
       id="path1894"
       transform="translate(0,84.118)" />
    <path
       style="opacity:1;vector-effect:none;fill:#c0c0c0;fill-opacity:1;stroke:none;stroke-width:2.53666282;stroke-linecap:butt;stroke-linejoin:miter;stroke-miterlimit:4.5;stroke-dasharray:none;stroke-dashoffset:0;stroke-opacity:1"
       d="M 403.19531 249.45312 L 392.48438 257.31836 L 315.69727 221.93555 L 319.53516 230.43555 C 322.35787 236.68891 327.79485 250.33013 331.61719 260.75 C 335.43953 271.16989 340.34198 283.22558 342.51172 287.54102 L 346.45703 295.38867 L 362.38672 292.56445 C 376.22388 290.11225 380.97704 289.73597 398.53906 289.69727 L 418.75781 289.65234 L 430.77148 294.12891 C 437.37916 296.59133 443.02542 298.63151 443.31836 298.66211 C 443.61132 298.69277 445.79089 292.83906 448.16211 285.6543 C 449.29917 282.20901 450.88976 278.10726 452.52148 274.22266 L 403.32031 250.23828 L 403.19531 249.45312 z "
       id="path1914"
       transform="translate(0,84.118)" />
    <path
       style="opacity:1;vector-effect:none;fill:#c0c0c0;fill-opacity:1;stroke:none;stroke-width:2.53666282;stroke-linecap:butt;stroke-linejoin:miter;stroke-miterlimit:4.5;stroke-dasharray:none;stroke-dashoffset:0;stroke-opacity:1"
       d="M 362.4375 182.95898 L 326.78125 194.21484 L 320.5918 206.64062 L 314.40234 219.06641 L 314.70703 219.74219 L 392.29883 255.49414 L 402.91602 247.69727 L 399.41016 225.61719 L 362.4375 182.95898 z "
       id="path1905"
       transform="translate(0,84.118)" />
    <path
       style="opacity:1;vector-effect:none;fill:#c0c0c0;fill-opacity:1;stroke:none;stroke-width:2.53666282;stroke-linecap:butt;stroke-linejoin:miter;stroke-miterlimit:4.5;stroke-dasharray:none;stroke-dashoffset:0;stroke-opacity:1"
       d="M 467.18359 207.84961 L 401.00781 225.60547 L 404.75195 249.17969 L 453.1582 272.77734 C 454.71242 269.17361 456.30469 265.70833 457.57812 263.41992 C 461.96315 255.53992 463.30261 253.9445 467.08789 252.10547 C 469.51122 250.92813 471.49414 249.62843 471.49414 249.2168 C 471.49414 248.80518 469.59369 245.43532 467.26953 241.72852 L 463.04297 234.99023 L 465.30273 223.79102 C 466.41805 218.26604 466.94283 214.19014 467.18359 207.84961 z "
       id="path1926"
       transform="translate(0,84.118)" />
    <path
       style="opacity:1;vector-effect:none;fill:#c0c0c0;fill-opacity:1;stroke:none;stroke-width:2.53666282;stroke-linecap:butt;stroke-linejoin:miter;stroke-miterlimit:4.5;stroke-dasharray:none;stroke-dashoffset:0;stroke-opacity:1"
       d="M 466.96094 149.96289 L 396.87109 172.08984 L 364.08008 182.44141 L 400.25 224.17383 L 467.1875 206.21094 C 467.35903 200.6606 467.38728 194.12754 467.26367 181.2793 L 466.96094 149.96289 z "
       id="Paris8"
       transform="translate(0,84.118)" />
    <path
       style="opacity:1;vector-effect:none;fill:#c0c0c0;fill-opacity:1;stroke:none;stroke-width:2.53666282;stroke-linecap:butt;stroke-linejoin:miter;stroke-miterlimit:4.5;stroke-dasharray:none;stroke-dashoffset:0;stroke-opacity:1"
       d="M 581.42188 196.49805 L 532.53125 196.08008 L 522.42578 237.16602 L 538.48047 232.91016 L 559.99023 237.16992 C 571.82076 239.51209 581.6925 241.23524 581.92773 241 C 582.17606 240.75167 581.83179 218.39981 581.42188 196.49805 z "
       id="path907"
       transform="translate(0,84.118)" />
    <path
       style="opacity:1;vector-effect:none;fill:#c0c0c0;fill-opacity:1;stroke:none;stroke-width:2.53666282;stroke-linecap:butt;stroke-linejoin:miter;stroke-miterlimit:4.5;stroke-dasharray:none;stroke-dashoffset:0;stroke-opacity:1"
       d="M 579.95703 141.92188 C 579.71781 141.68263 568.27558 144.76393 554.53125 148.76953 L 536.18555 154.11523 L 539.73047 166.81445 L 532.91992 194.50391 L 581.4043 194.91797 C 580.90383 168.70109 580.26468 142.22952 579.95703 141.92188 z "
       id="path1935"
       transform="translate(0,84.118)" />
    <path
       style="opacity:1;vector-effect:none;fill:#c0c0c0;fill-opacity:1;stroke:none;stroke-width:2.53666282;stroke-linecap:butt;stroke-linejoin:miter;stroke-miterlimit:4.5;stroke-dasharray:none;stroke-dashoffset:0;stroke-opacity:1"
       d="M 530.98047 195.76953 L 501.04297 195.27344 L 471.81641 205.4375 C 471.51319 215.10715 471.06294 221.40816 470.03516 225.76953 L 468.11719 233.91016 L 472.87891 241.54883 C 477.61092 249.14104 477.66099 249.1833 480.86328 248.25781 C 482.63564 247.74558 496.32471 244.08368 511.2832 240.11914 L 520.68359 237.62695 L 530.98047 195.76953 z "
       id="path1944"
       transform="translate(0,84.118)" />
    <path
       style="opacity:1;vector-effect:none;fill:#c0c0c0;fill-opacity:1;stroke:none;stroke-width:2.53666282;stroke-linecap:butt;stroke-linejoin:miter;stroke-miterlimit:4.5;stroke-dasharray:none;stroke-dashoffset:0;stroke-opacity:1"
       d="M 488.78516 140.28711 L 480.6875 143.70312 L 472.58984 147.11914 L 472.27148 182.37305 C 472.17516 193.03934 472.01089 198.00044 471.84961 203.75391 L 500.78906 193.68945 L 531.36719 194.19531 L 538.0957 166.83984 L 534.66797 154.55859 L 529.54102 156.05273 L 523.9375 153.95703 C 520.85538 152.80457 511.68663 149.25755 503.56055 146.07422 L 488.78516 140.28711 z "
       id="Paris9"
       transform="translate(0,84.118)" />
    <path
       style="opacity:1;vector-effect:none;fill:#c0c0c0;fill-opacity:1;stroke:none;stroke-width:2.53666282;stroke-linecap:butt;stroke-linejoin:miter;stroke-miterlimit:4.5;stroke-dasharray:none;stroke-dashoffset:0;stroke-opacity:1"
       d="M 609.97852 251.03906 L 616.90234 253.1875 C 633.05069 258.20089 646.94241 262.31252 647.77344 262.32422 C 648.58857 262.33566 664.29314 254.76723 682.75 245.49023 L 678.11328 231.30078 L 636.61133 200.04883 L 628.05859 198.12109 L 609.97852 251.03906 z "
       id="path1962"
       transform="translate(0,84.118)" />
    <path
       style="opacity:1;vector-effect:none;fill:#c0c0c0;fill-opacity:1;stroke:none;stroke-width:2.53666282;stroke-linecap:butt;stroke-linejoin:miter;stroke-miterlimit:4.5;stroke-dasharray:none;stroke-dashoffset:0;stroke-opacity:1"
       d="M 626.50781 197.77148 L 586.31836 188.7168 C 586.50375 203.44808 586.70815 219.86723 586.94727 226.82227 L 587.54102 244.07227 L 608.4707 250.57031 L 626.50781 197.77148 z "
       id="path1960"
       transform="translate(0,84.118)" />
    <path
       style="opacity:1;vector-effect:none;fill:#c0c0c0;fill-opacity:1;stroke:none;stroke-width:2.53666282;stroke-linecap:butt;stroke-linejoin:miter;stroke-miterlimit:4.5;stroke-dasharray:none;stroke-dashoffset:0;stroke-opacity:1"
       d="M 640.24023 200.80469 L 679.46094 230.33789 L 684.17969 244.7793 L 718.10938 227.70312 L 703.40234 209.06836 L 688.69336 190.43164 L 684.79297 171.29297 C 682.64761 160.76663 680.57929 149.26771 680.19727 145.73828 L 679.50391 139.32031 L 679.4668 139.30859 L 649.44531 179.59766 L 640.24023 200.80469 z "
       id="path1971"
       transform="translate(0,84.118)" />
    <path
       style="opacity:1;vector-effect:none;fill:#c0c0c0;fill-opacity:1;stroke:none;stroke-width:2.53666282;stroke-linecap:butt;stroke-linejoin:miter;stroke-miterlimit:4.5;stroke-dasharray:none;stroke-dashoffset:0;stroke-opacity:1"
       d="M 677.85742 138.82227 L 668.92578 136.12695 L 658.34961 132.93359 L 638.70703 133.83203 C 626.38976 134.39541 612.86762 135.73355 602.44531 137.41992 L 585.82422 140.10742 L 586.08984 174.83984 C 586.12426 179.34214 586.23384 182.35112 586.29102 187.0918 L 637.28906 198.58203 L 638.94141 199.82617 L 648.06836 178.80078 L 677.85742 138.82227 z "
       id="path1969"
       transform="translate(0,84.118)" />
    <path
       style="opacity:1;vector-effect:none;fill:#c0c0c0;fill-opacity:1;stroke:none;stroke-width:2.53666282;stroke-linecap:butt;stroke-linejoin:miter;stroke-miterlimit:4.5;stroke-dasharray:none;stroke-dashoffset:0;stroke-opacity:1"
       d="M 802.25977 351.85938 L 735.54297 371.5 L 711.625 374.92773 L 709.76172 379.50391 L 711.86719 380.52148 L 764.68555 390.89453 C 793.73585 396.59979 818.07115 401.31163 818.76367 401.36523 C 819.53997 401.4253 820.00692 400.20784 819.98242 398.18945 C 819.82488 385.20021 811.72222 366.04242 802.25977 351.85938 z "
       id="path1993"
       transform="translate(0,84.118)" />
    <path
       style="opacity:1;vector-effect:none;fill:#c0c0c0;fill-opacity:1;stroke:none;stroke-width:2.53666282;stroke-linecap:butt;stroke-linejoin:miter;stroke-miterlimit:4.5;stroke-dasharray:none;stroke-dashoffset:0;stroke-opacity:1"
       d="M 769.36719 301.30859 L 679.21289 344.06445 C 680.24173 348.30447 681.50136 354.29802 682.17773 356.63867 L 685.37891 367.71875 L 698.62305 374.11914 L 708.33594 378.81445 L 710.50391 373.49219 L 735.20703 369.95312 L 801.38086 350.4707 C 795.14594 341.42344 788.42017 334.64421 782.97656 333.42188 L 778.27734 332.36719 L 773.39062 315.33398 L 769.36719 301.30859 z "
       id="path1998"
       transform="translate(0,84.118)" />
    <path
       style="opacity:1;vector-effect:none;fill:#c0c0c0;fill-opacity:1;stroke:none;stroke-width:2.53666282;stroke-linecap:butt;stroke-linejoin:miter;stroke-miterlimit:4.5;stroke-dasharray:none;stroke-dashoffset:0;stroke-opacity:1"
       d="M 748.47461 268.98438 L 700.37109 286.02539 L 669.83984 304.20898 C 671.40973 310.17538 672.95967 316.72196 674.45703 323.90039 C 675.86803 330.66479 677.28728 336.00686 678.8418 342.49219 L 768.92578 299.76953 L 768.50391 298.30273 L 748.47461 268.98438 z "
       id="path2003"
       transform="translate(0,84.118)" />
    <path
       style="opacity:1;vector-effect:none;fill:#c0c0c0;fill-opacity:1;stroke:none;stroke-width:2.53666282;stroke-linecap:butt;stroke-linejoin:miter;stroke-miterlimit:4.5;stroke-dasharray:none;stroke-dashoffset:0;stroke-opacity:1"
       d="M 722.7793 231.42188 C 722.55446 231.13775 653.82386 265.22544 652.91406 266.07227 C 652.69455 266.27659 654.29687 268.37823 656.47461 270.74414 C 660.54033 275.16114 665.03213 286.51839 669.37891 302.64648 L 699.69531 284.58984 L 747.55273 267.63672 L 745.76367 265.01758 C 733.25681 246.71075 722.91411 231.59222 722.7793 231.42188 z "
       id="Paris11"
       transform="translate(0,84.118)" />
    <path
       style="opacity:1;vector-effect:none;fill:#c0c0c0;fill-opacity:1;stroke:none;stroke-width:2.53666282;stroke-linecap:butt;stroke-linejoin:miter;stroke-miterlimit:4.5;stroke-dasharray:none;stroke-dashoffset:0;stroke-opacity:1"
       d="M 829.38086 540.36328 L 799.41602 501.73047 L 753.43945 435.91602 L 701.88867 471.00586 C 704.24931 473.625 704.18053 473.61064 706.8125 476.52734 C 733.79939 506.43378 762.63074 538.9592 770.88281 548.80664 C 780.37647 560.1357 786.32864 566.45402 787.08984 566.01172 C 787.75149 565.62727 793.05195 562.29893 798.86914 558.61523 C 804.68633 554.93153 815.17996 548.59482 822.1875 544.5332 L 829.38086 540.36328 z "
       id="path2021"
       transform="translate(0,84.118)" />
    <path
       style="opacity:1;vector-effect:none;fill:#c0c0c0;fill-opacity:1;stroke:none;stroke-width:2.53666282;stroke-linecap:butt;stroke-linejoin:miter;stroke-miterlimit:4.5;stroke-dasharray:none;stroke-dashoffset:0;stroke-opacity:1"
       d="M 829.58594 408.33594 L 848.59375 433.44922 L 839.23828 473.28125 L 859.51172 515.93164 L 850.68359 520.27539 L 860.75391 543.82031 L 865.07617 547.44531 C 873.48057 554.49132 878.90384 558.38659 885.73242 562.28125 L 894.99219 567.5625 L 912.79883 571.62695 C 930.06303 575.56826 930.81774 575.67704 937.55078 575.20117 C 941.37034 574.93123 944.49395 574.82465 944.49414 574.96484 C 944.49432 575.10504 945.61734 583.99261 946.98828 594.71289 C 948.35922 605.43316 949.48047 614.48731 949.48047 614.83398 C 949.48047 615.18903 961.95916 615.46484 978.05664 615.46484 L 997.64453 615.46484 L 999.31836 619.02148 L 1018.9062 631.48633 L 1021.7559 637.00586 L 1029.7676 634.86914 L 1047.5762 641.10156 L 1087.4629 638.78711 L 1100.1055 643.41797 L 1117.1992 645.19727 L 1139.6367 634.69141 L 1159.0469 577.88867 L 1151.3887 569.875 L 1154.416 544.94531 L 1164.7441 502.20898 L 1162.9629 485.64844 L 1155.6621 465.70508 L 1142.6641 454.30859 L 1058.6152 435.61133 L 1036.7891 432.28516 L 1004.8672 466.24219 L 969.51758 455.0625 C 935.89019 444.42629 933.49354 443.77505 920.34375 441.70703 C 912.74082 440.51136 906.72243 439.64641 906.67383 439.5332 C 904.87127 435.33075 907.8548 423.15693 906.49609 419.18555 C 906.60953 418.63264 906.65938 418.26094 906.60352 418.20508 C 906.34785 417.94942 888.23709 415.65645 866.35547 413.10938 C 850.4751 411.26084 837.8381 409.57067 829.58594 408.33594 z "
       id="path2038"
       transform="translate(0,84.118)" />
    <path
       style="opacity:1;vector-effect:none;fill:#c0c0c0;fill-opacity:1;stroke:none;stroke-width:2.53666282;stroke-linecap:butt;stroke-linejoin:miter;stroke-miterlimit:4.5;stroke-dasharray:none;stroke-dashoffset:0;stroke-opacity:1"
       d="M 761.00977 394.97656 L 755.52734 434.49609 L 754.74609 435.02734 L 800.68945 500.79297 L 830.75977 539.56445 L 834.92773 537.14844 L 834.92773 537.14648 C 835.71241 536.85663 840.73076 535.51501 842.52539 536.99805 C 843.15242 537.51621 845.72621 537.84046 848.65234 537.85938 L 853.67969 537.89062 L 858.07617 541.57617 L 848.64062 519.51758 L 857.41602 515.20312 L 837.57227 473.45898 L 846.88672 433.81055 L 827.3457 407.99219 C 825.43822 407.68939 821.64619 407.18878 821.0293 407.02734 C 817.9822 406.2299 791.99705 401.00678 763.28516 395.41992 L 761.00977 394.97656 z "
       id="path2012"
       transform="translate(0,84.118)" />
    <path
       style="opacity:1;vector-effect:none;fill:#c0c0c0;fill-opacity:1;stroke:none;stroke-width:2.53666282;stroke-linecap:butt;stroke-linejoin:miter;stroke-miterlimit:4.5;stroke-dasharray:none;stroke-dashoffset:0;stroke-opacity:1"
       d="M 687.58008 374.51172 C 687.49068 374.65371 684.54054 384.51439 681.02539 396.42578 C 677.51024 408.33717 674.24548 418.5259 673.76953 419.06641 C 673.21363 419.69772 670.51552 419.42374 666.22656 418.29883 C 662.55441 417.3357 659.42995 416.66771 659.2832 416.81445 C 659.13646 416.9612 658.73085 418.22078 658.38086 419.61523 C 657.857 421.70245 665.46684 430.56962 700.82812 469.81641 L 754.05859 433.58398 L 759.45703 394.67578 L 711.08203 385.26172 L 699.41211 379.75781 C 692.9935 376.73023 687.66948 374.36972 687.58008 374.51172 z "
       id="Paris12"
       transform="translate(0,84.118)" />
    <path
       style="opacity:1;vector-effect:none;fill:#c0c0c0;fill-opacity:1;stroke:none;stroke-width:2.53666282;stroke-linecap:butt;stroke-linejoin:miter;stroke-miterlimit:4.5;stroke-dasharray:none;stroke-dashoffset:0;stroke-opacity:1"
       d="M 541.69531 531.87305 C 541.75655 535.32649 542.48871 539.36548 544.55664 548.82031 C 547.035 560.15169 548.05078 567.30813 548.05078 573.46094 C 548.05078 580.52445 548.97379 585.78746 553.03125 601.8457 C 558.50774 623.52004 561.32145 638.86112 561.31445 647.01367 L 561.31055 652.32227 L 568.02734 651.65625 C 574 651.06399 575.98672 650.23077 585.97266 644.14453 L 597.20312 637.30078 L 611.15625 640.78516 L 625.10938 644.27148 L 647.26953 641.67578 C 656.78754 640.56086 662.30634 639.66469 666.24609 638.96484 L 617.19727 539.02734 L 586.80664 550.48438 L 541.69531 531.87305 z "
       id="path2063"
       transform="translate(0,84.118)" />
    <path
       style="opacity:1;vector-effect:none;fill:#c0c0c0;fill-opacity:1;stroke:none;stroke-width:2.53666282;stroke-linecap:butt;stroke-linejoin:miter;stroke-miterlimit:4.5;stroke-dasharray:none;stroke-dashoffset:0;stroke-opacity:1"
       d="M 616.49805 537.60156 L 596.66211 497.18555 L 584.17773 495.19531 C 576.93227 494.04147 566.91854 491.95064 561.92578 490.54688 C 556.93302 489.14308 552.7463 488.12956 552.62109 488.29492 C 551.51597 489.75441 542.9523 520.38546 542.12695 525.83203 C 541.87836 527.4725 541.7104 528.8164 541.64258 530.14258 L 586.83203 548.78711 L 616.49805 537.60156 z "
       id="path2061"
       transform="translate(0,84.118)" />
    <path
       style="opacity:1;vector-effect:none;fill:#c0c0c0;fill-opacity:1;stroke:none;stroke-width:2.53666282;stroke-linecap:butt;stroke-linejoin:miter;stroke-miterlimit:4.5;stroke-dasharray:none;stroke-dashoffset:0;stroke-opacity:1"
       d="M 706.8418 485.50586 L 687.48828 500.9668 L 621.79102 537.29688 L 618.68164 538.46875 L 667.89062 638.73047 C 668.48687 638.6123 671.39202 638.27791 671.57031 638.20508 C 672.74776 637.72411 683.5816 630.4727 695.64453 622.0918 C 709.80194 612.25575 725.1118 602.72588 738.83203 595.20703 C 757.56187 584.94284 780.73828 571.10993 780.73828 570.19531 C 780.73828 568.86142 740.37257 522.98463 706.8418 485.50586 z "
       id="path2058"
       transform="translate(0,84.118)" />
    <path
       style="opacity:1;vector-effect:none;fill:#c0c0c0;fill-opacity:1;stroke:none;stroke-width:2.53666282;stroke-linecap:butt;stroke-linejoin:miter;stroke-miterlimit:4.5;stroke-dasharray:none;stroke-dashoffset:0;stroke-opacity:1"
       d="M 663.9668 438.73242 C 663.57793 438.73242 658.07679 446.86562 651.74023 456.80469 L 640.21875 474.875 L 618.78516 486.08398 L 598.24414 496.82812 L 617.98242 537.04297 L 621.125 535.85742 L 686.60742 499.64844 L 705.78516 484.32812 C 684.05102 460.04738 664.73895 438.73242 663.9668 438.73242 z "
       id="Paris13"
       transform="translate(0,84.118)" />
    <path
       style="opacity:1;vector-effect:none;fill:#c0c0c0;fill-opacity:1;stroke:none;stroke-width:2.53666282;stroke-linecap:butt;stroke-linejoin:miter;stroke-miterlimit:4.5;stroke-dasharray:none;stroke-dashoffset:0;stroke-opacity:1"
       d="M 485.26758 637.77539 C 491.45718 640.87887 498.63694 644.30717 505.74219 647.36523 C 521.85551 654.30032 527.16692 656.16421 529.91797 655.84961 C 531.85703 655.62787 538.50729 654.88661 544.69531 654.20312 L 555.94531 652.96094 L 556.51562 649.85156 C 557.36533 645.22316 553.86748 624.96017 548.63281 604.1875 C 545.16008 590.40669 543.85862 583.09593 543.42773 574.97461 C 543.08959 568.6015 541.47086 557.71569 539.49609 548.5293 C 538.46625 543.73862 538.23986 541.94342 537.78906 539.36719 L 518.51562 530.43359 L 500.46094 569.70898 L 485.26758 637.77539 z "
       id="path2090"
       transform="translate(0,84.118)" />
    <path
       style="opacity:1;vector-effect:none;fill:#c0c0c0;fill-opacity:1;stroke:none;stroke-width:2.53666282;stroke-linecap:butt;stroke-linejoin:miter;stroke-miterlimit:4.5;stroke-dasharray:none;stroke-dashoffset:0;stroke-opacity:1"
       d="M 517.08203 529.76953 L 499.89648 521.80469 L 496.0957 529.76758 L 474.32617 516.55078 L 463.31641 543.91602 L 435.08398 592.16992 L 415.56055 611.41406 C 418.43409 612.23088 420.30539 612.82481 423.06055 613.59961 C 443.79007 619.42916 462.05555 624.87545 463.65234 625.70117 C 465.24911 626.5269 470.72661 629.73926 475.82422 632.83984 C 477.43981 633.82252 480.85558 635.5065 483.81836 637.01758 L 498.95508 569.20117 L 517.08203 529.76953 z "
       id="path2088"
       transform="translate(0,84.118)" />
    <path
       style="opacity:1;vector-effect:none;fill:#c0c0c0;fill-opacity:1;stroke:none;stroke-width:2.53666282;stroke-linecap:butt;stroke-linejoin:miter;stroke-miterlimit:4.5;stroke-dasharray:none;stroke-dashoffset:0;stroke-opacity:1"
       d="M 448.61523 471.57031 L 443.23047 474.375 L 435.72266 478.28711 L 417.37891 504.59375 C 398.18122 532.12564 374.7524 561.88566 362.17188 574.71875 C 358.0985 578.87389 353.21884 584.30372 351.33008 586.78516 L 347.89648 591.29688 L 366.63281 597.15039 C 375.2511 599.84199 395.65364 605.72956 413.82422 610.90625 L 433.82617 591.19141 L 461.89453 543.21875 L 472.95703 515.7207 L 457.46289 506.31445 L 448.61523 471.57031 z "
       id="path2080"
       transform="translate(0,84.118)" />
    <path
       style="opacity:1;vector-effect:none;fill:#c0c0c0;fill-opacity:1;stroke:none;stroke-width:2.53666282;stroke-linecap:butt;stroke-linejoin:miter;stroke-miterlimit:4.5;stroke-dasharray:none;stroke-dashoffset:0;stroke-opacity:1"
       d="M 457.85742 449.07812 C 457.60278 449.75922 455.89647 454.85045 454.06641 460.39062 L 450.74023 470.46289 L 450.05469 470.82031 L 458.83398 505.29883 L 495.42188 527.50977 L 499.14258 519.71289 L 537.43359 537.46094 C 536.74477 532.88266 536.67237 529.60381 537.51758 524.35352 C 538.27568 519.64436 540.94742 509.24858 543.45312 501.25 C 545.95883 493.25142 547.90437 486.63267 547.77734 486.54297 C 547.65032 486.4533 541.19962 484.66604 533.44336 482.57031 C 520.58576 479.09621 516.64779 477.39579 488.83008 463.30078 C 468.75438 453.12859 458.16206 448.2633 457.85742 449.07812 z "
       id="Paris14"
       transform="translate(0,84.118)" />
    <path
       style="opacity:1;vector-effect:none;fill:#c0c0c0;fill-opacity:1;stroke:none;stroke-width:2.53666282;stroke-linecap:butt;stroke-linejoin:miter;stroke-miterlimit:4.5;stroke-dasharray:none;stroke-dashoffset:0;stroke-opacity:1"
       d="M 401.91406 517.72656 L 376.90625 497.40039 L 361.86523 473.72266 L 350.31055 457.9707 L 331.07031 450.64844 L 314.01953 452.92383 L 294.51367 472.52539 L 286.51758 489.21484 L 247.8457 508.80469 L 261.30859 520.32812 L 241.69727 538.67578 C 243.442 539.60269 244.67813 540.28326 246.86523 541.43359 C 257.66859 547.11578 279.58287 559.0365 295.56445 567.92578 C 315.73296 579.14392 327.28977 584.9452 333.33984 586.88672 C 338.13394 588.42519 342.34352 589.71576 342.69531 589.75586 C 343.0471 589.79599 344.13933 588.58214 345.12305 587.05859 C 346.10679 585.53504 350.4063 580.66262 354.67773 576.23047 C 365.67109 564.8235 384.95683 540.76642 401.91406 517.72656 z "
       id="path2117"
       transform="translate(0,84.118)" />
    <path
       style="opacity:1;vector-effect:none;fill:#c0c0c0;fill-opacity:1;stroke:none;stroke-width:2.53666282;stroke-linecap:butt;stroke-linejoin:miter;stroke-miterlimit:4.5;stroke-dasharray:none;stroke-dashoffset:0;stroke-opacity:1"
       d="M 359.74023 406.97461 L 315.84766 451.08398 L 331.25781 449.0293 L 351.30859 456.6582 L 363.16992 472.83008 L 378.10352 496.33594 L 402.83984 516.44336 C 406.78176 511.06742 410.75832 505.65062 414.26758 500.60156 L 432.58789 474.24219 L 439.64648 470.75195 L 446.70703 467.25977 L 450.38281 456.27148 L 454.05859 445.28125 L 439.5332 437.09961 L 425.00781 428.91797 L 420.04883 431.63086 C 412.801 435.59435 407.93252 434.7212 396.42969 427.39258 L 387.47461 421.68555 L 384.22266 424.16602 C 382.43453 425.52989 380.56008 426.64648 380.05664 426.64648 C 379.74781 426.64648 371.04412 418.14824 359.74023 406.97461 z "
       id="path2099"
       transform="translate(0,84.118)" />
    <path
       style="opacity:1;vector-effect:none;fill:#c0c0c0;fill-opacity:1;stroke:none;stroke-width:2.53666282;stroke-linecap:butt;stroke-linejoin:miter;stroke-miterlimit:4.5;stroke-dasharray:none;stroke-dashoffset:0;stroke-opacity:1"
       d="M 310.58203 454.13867 L 271.55273 431.2793 L 240.36328 401.5625 C 234.64969 410.38409 222.63458 428.9073 205.80078 454.82422 C 186.19822 485.00387 170.07952 510.08362 169.98242 510.55664 C 169.88531 511.02967 173.88688 512.9125 178.87305 514.74023 L 187.9375 518.0625 L 197.39648 514.70117 C 204.1331 512.30708 207.35923 511.60842 208.60547 512.27539 C 209.56788 512.79045 214.15048 517.23676 218.78906 522.15625 C 225.79929 529.59101 228.03511 531.37378 240.22461 537.89062 L 258.93945 520.38086 L 245.01953 508.4668 L 285.32422 488.04883 L 293.20508 471.60156 L 310.58203 454.13867 z "
       id="path2108"
       transform="translate(0,84.118)" />
    <path
       style="opacity:1;vector-effect:none;fill:#c0c0c0;fill-opacity:1;stroke:none;stroke-width:2.53666282;stroke-linecap:butt;stroke-linejoin:miter;stroke-miterlimit:4.5;stroke-dasharray:none;stroke-dashoffset:0;stroke-opacity:1"
       d="M 292.0957 340.25781 C 289.98502 341.08637 249.89468 386.83428 246.04883 392.80273 C 245.74601 393.27268 241.96206 399.097 241.23828 400.21484 L 272.50977 430.00781 L 311.73242 452.98242 L 358.62109 405.86133 C 351.70336 399.01747 344.70246 392.09771 335.95312 383.32031 C 312.20023 359.49121 292.4646 340.11299 292.0957 340.25781 z "
       id="Paris15"
       transform="translate(0,84.118)" />
    <path
       style="fill:#c0c0c0;fill-opacity:1;stroke:none;stroke-width:2.51826477;stroke-linecap:butt;stroke-miterlimit:4.5;stroke-dasharray:none;stroke-opacity:1"
       d="M 258.33008 201.75977 L 275.74219 304.57031 L 297.11133 324.62109 C 297.88669 323.72061 299.29723 322.17965 299.97656 321.38281 C 308.00597 311.9645 315.60403 303.30917 316.85938 302.14844 C 318.5356 300.59854 322.1034 299.56011 330.29492 298.24219 L 341.44922 296.44727 L 337.91992 289.44141 C 335.97933 285.58793 330.99572 273.16615 326.84375 261.83594 C 322.69177 250.50573 317.39035 237.30519 315.0625 232.50195 L 310.83008 223.76758 L 281.62109 211.43164 C 269.12762 206.15452 262.76261 203.48564 258.33008 201.75977 z "
       id="path2126"
       transform="translate(0,84.118)" />
    <path
       style="fill:#c0c0c0;fill-opacity:1;stroke:none;stroke-width:2.51826477;stroke-linecap:butt;stroke-miterlimit:4.5;stroke-dasharray:none;stroke-opacity:1"
       d="M 236.33984 396.98828 L 219.40234 380.80273 L 160.85938 356.50781 L 164.83594 347.19531 L 6.8398438 276.72461 L 0.90820312 286.63086 L 0.45507812 327.94336 L 0 369.25586 L 50.748047 392.38281 L 101.49609 415.50977 L 106.08203 421.57227 L 99.917969 429.83398 C 96.528259 434.37782 93.753906 438.74032 93.753906 439.5293 C 93.753906 440.31827 94.693174 448.05415 95.839844 456.7207 C 98.248084 474.92226 96.007357 471.28291 117.07812 491.23438 L 130.83203 504.25781 L 145.60938 506.15234 C 153.73613 507.19519 160.66359 508.32765 161.00391 508.66797 C 161.34422 509.0082 162.10276 509.12916 162.69141 508.93555 C 163.77173 508.58022 167.74932 502.55796 218.70703 424.12695 L 236.33984 396.98828 z "
       id="path2144"
       transform="translate(0,84.118)" />
    <path
       style="fill:#c0c0c0;fill-opacity:1;stroke:none;stroke-width:2.51826477;stroke-linecap:butt;stroke-miterlimit:4.5;stroke-dasharray:none;stroke-opacity:1"
       d="M 123.01172 200.24023 C 119.04443 212.15736 117.07946 217.18555 116.33398 217.18555 C 115.74579 217.18555 106.76828 215.55907 96.382812 213.57227 C 85.997355 211.58547 77.424331 210.06347 77.332031 210.18945 C 77.239731 210.31544 71.357035 218.11167 64.259766 227.51367 L 51.355469 244.60742 L 33.167969 253.86719 L 14.978516 263.12695 L 7.9433594 274.87891 L 7.65625 275.35742 L 166.89844 346.38477 L 162.9375 355.66211 L 220.28125 379.45703 L 237.2168 395.63867 L 246.84961 380.8125 L 266.11328 359.66016 C 275.48448 349.37016 287.62931 335.57405 296.06445 325.80664 L 274.27344 305.35938 L 274.18555 304.8418 L 212.33984 296.07227 L 179.75781 304.88086 L 123.01172 200.24023 z "
       id="path2135"
       transform="translate(0,84.118)" />
    <path
       style="fill:#c0c0c0;fill-opacity:1;stroke:none;stroke-width:2.51826477;stroke-linecap:butt;stroke-miterlimit:4.5;stroke-dasharray:none;stroke-opacity:1"
       d="M 129.89258 181.35352 C 129.70768 181.35427 129.60477 181.36582 129.58594 181.38672 C 129.33701 181.66284 126.63414 189.47782 123.71484 198.22461 L 180.55078 303.0293 L 212.24023 294.46289 L 273.9082 303.20703 L 256.61914 201.10547 C 255.67444 200.75922 253.95574 200.02721 253.33008 199.85156 C 251.61349 198.3651 247.13688 196.20589 247.53906 195.02344 C 248.50328 192.18852 249.29297 189.76593 249.29297 189.63867 C 249.29297 189.11183 244.25701 189.48722 233.21484 190.83789 C 225.52222 191.77884 221.08763 192.03868 220.26758 191.59766 C 218.58979 190.69533 135.62423 181.33015 129.89258 181.35352 z "
       id="Paris16"
       transform="translate(0,84.118)" />
    <path
       style="opacity:1;vector-effect:none;fill:#c0c0c0;fill-opacity:1;stroke:none;stroke-width:2.53666282;stroke-linecap:butt;stroke-linejoin:miter;stroke-miterlimit:4.5;stroke-dasharray:none;stroke-dashoffset:0;stroke-opacity:1"
       d="M 332.19531 187.49023 L 287.05664 128.7207 L 295.07812 121.01758 L 282.73633 104.16992 L 271.85547 115.09766 L 250.00586 137.04492 L 240.5957 153.16211 C 234.57716 163.46951 230.31735 172.09008 228.77734 177.07812 C 227.45293 181.36781 226.56207 185.06584 226.79688 185.29492 C 227.03167 185.524 233.46511 184.99232 241.09375 184.11328 C 257.48519 182.22449 257.97398 182.40936 255.52734 189.58984 C 254.61714 192.26117 254.22269 194.58102 254.65039 194.74414 C 255.07808 194.90726 267.43961 200.20041 282.12109 206.50781 C 296.80257 212.81522 309.05484 218.01139 309.34766 218.05469 C 309.64047 218.09795 313.00234 211.83703 316.81836 204.14258 L 323.75586 190.1543 L 332.19531 187.49023 z "
       id="path2153"
       transform="translate(0,84.118)" />
    <path
       style="opacity:1;vector-effect:none;fill:#c0c0c0;fill-opacity:1;stroke:none;stroke-width:2.53666282;stroke-linecap:butt;stroke-linejoin:miter;stroke-miterlimit:4.5;stroke-dasharray:none;stroke-dashoffset:0;stroke-opacity:1"
       d="M 405.20703 164.4375 C 399.81648 156.79506 394.41444 149.02791 394.33984 148.91992 L 376.08398 137.05469 L 323.42969 73.964844 C 322.0947 74.826046 321.28332 75.322901 319.89453 76.220703 L 293.70508 93.150391 L 283.86328 103.03516 L 297.16992 121.19922 L 289.17188 128.88086 L 333.79883 186.98242 L 395.10156 167.62891 L 405.20703 164.4375 z "
       id="path2162"
       transform="translate(0,84.118)" />
    <path
       style="opacity:1;vector-effect:none;fill:#c0c0c0;fill-opacity:1;stroke:none;stroke-width:2.53666282;stroke-linecap:butt;stroke-linejoin:miter;stroke-miterlimit:4.5;stroke-dasharray:none;stroke-dashoffset:0;stroke-opacity:1"
       d="M 458.28906 116.5918 L 443.24219 124.59375 L 380.07227 69.939453 L 393.20508 65.078125 L 370.79102 44.472656 C 358.73482 51.506866 344.86435 60.157131 324.77148 73.107422 L 377.14453 135.85938 L 395.46289 147.76758 L 395.55078 147.89453 C 395.55078 147.89453 401.15429 155.96065 406.78711 163.93945 L 466.44727 145.10352 L 466.45312 142.125 C 466.45598 140.48643 464.59772 134.22314 462.32422 128.20703 L 458.19141 117.26758 L 458.28906 116.5918 z "
       id="path2171"
       transform="translate(0,84.118)" />
    <path
       style="opacity:1;vector-effect:none;fill:#c0c0c0;fill-opacity:1;stroke:none;stroke-width:2.53666282;stroke-linecap:butt;stroke-linejoin:miter;stroke-miterlimit:4.5;stroke-dasharray:none;stroke-dashoffset:0;stroke-opacity:1"
       d="M 473.81641 10.359375 L 455.31055 11.107422 L 436.80273 11.855469 L 411.08594 23.603516 C 397.04454 30.018081 385.83191 35.726817 372.20508 43.625 L 396.17773 65.664062 L 383.12695 70.494141 L 443.45703 122.69141 L 458.57031 114.6543 L 465.41211 67.460938 C 469.38364 40.066886 472.89905 16.012008 473.22461 14.005859 L 473.81641 10.359375 z "
       id="Paris17"
       transform="translate(0,84.118)" />
    <path
       style="opacity:1;vector-effect:none;fill:#c0c0c0;fill-opacity:1;stroke:none;stroke-width:2.53666282;stroke-linecap:butt;stroke-linejoin:miter;stroke-miterlimit:4.5;stroke-dasharray:none;stroke-dashoffset:0;stroke-opacity:1"
       d="M 626.80078 129.69922 C 629.92341 129.4675 633.05813 129.2072 636.12891 129.09375 C 644.96045 128.76746 652.50556 128.15689 652.89453 127.73633 C 653.28349 127.31577 659.9721 111.72207 667.75781 93.083984 L 681.91211 59.197266 L 679.73633 30.380859 L 677.55859 1.5625 L 646.80078 1.5625 C 637.83342 1.562663 632.36028 1.7721293 626.32227 1.9589844 L 627.58594 41.396484 L 629.85352 93.822266 L 626.80078 129.69922 z "
       id="path2198"
       transform="translate(0,84.118)" />
    <path
       style="opacity:1;vector-effect:none;fill:#c0c0c0;fill-opacity:1;stroke:none;stroke-width:2.53666282;stroke-linecap:butt;stroke-linejoin:miter;stroke-miterlimit:4.5;stroke-dasharray:none;stroke-dashoffset:0;stroke-opacity:1"
       d="M 624.74219 1.9882812 C 614.16453 2.356641 604.5869 3.0048624 590.52148 4.5429688 L 595.16211 51.351562 L 588.55273 82.054688 L 588.44531 102.63867 L 576.72852 121.95898 L 577.56836 137.57617 C 594.48966 133.53036 610.16911 131.01291 625.20703 129.80273 L 628.27148 93.789062 L 626.00586 41.455078 L 624.74219 1.9882812 z "
       id="path2196"
       transform="translate(0,84.118)" />
    <path
       style="opacity:1;vector-effect:none;fill:#c0c0c0;fill-opacity:1;stroke:none;stroke-width:2.53666282;stroke-linecap:butt;stroke-linejoin:miter;stroke-miterlimit:4.5;stroke-dasharray:none;stroke-dashoffset:0;stroke-opacity:1"
       d="M 588.94922 4.6953125 C 586.84295 4.9278369 586.22126 4.9180007 583.80859 5.1894531 C 570.14426 6.7268487 561.46594 7.5823931 552.44336 8.1796875 L 551.42383 30.472656 L 543.54492 30.888672 L 528.69727 81.144531 L 529.10547 112.68164 L 520.33594 122.90039 L 518.01758 146.40039 C 522.32081 148.00443 528.68521 150.51021 529.24023 150.54102 C 530.25279 150.59719 542.03972 147.42386 555.43164 143.48828 C 562.5148 141.4067 569.33763 139.60114 576.00781 137.97852 L 575.125 121.55664 L 586.86719 102.19336 L 586.97266 81.882812 L 593.56445 51.261719 L 588.94922 4.6953125 z "
       id="path2191"
       transform="translate(0,84.118)" />
    <path
       style="opacity:1;vector-effect:none;fill:#c0c0c0;fill-opacity:1;stroke:none;stroke-width:2.53666282;stroke-linecap:butt;stroke-linejoin:miter;stroke-miterlimit:4.5;stroke-dasharray:none;stroke-dashoffset:0;stroke-opacity:1"
       d="M 550.85742 8.3242188 C 541.40721 8.9156331 531.55215 9.1812597 515.64648 9.4707031 C 495.88553 9.8303031 479.43446 10.408322 479.08789 10.755859 C 478.74132 11.103396 475.01852 35.043048 470.81641 63.955078 L 463.17578 116.52344 L 467.34375 127.79102 C 469.6355 133.98862 471.50595 139.83664 471.50195 140.78516 C 471.49516 142.26683 472.64253 142.01763 479.64258 139.02148 C 484.12382 137.10343 488.31555 135.53611 488.95898 135.53711 C 489.60241 135.53816 498.51628 138.89038 508.76562 142.98828 C 512.62959 144.53318 513.29863 144.63141 516.48438 145.83594 L 518.8125 122.25 L 527.51953 112.10547 L 527.11523 80.925781 L 542.3457 29.369141 L 549.91211 28.970703 L 550.85742 8.3242188 z "
       id="path2186"
       transform="translate(0,84.118)" />
    <path
       style="opacity:1;vector-effect:none;fill:#c0c0c0;fill-opacity:1;stroke:none;stroke-width:2.53666282;stroke-linecap:butt;stroke-linejoin:miter;stroke-miterlimit:4.5;stroke-dasharray:none;stroke-dashoffset:0;stroke-opacity:1"
       d="M 764.0957 211.14258 L 771.76367 167.55078 L 737.74219 124.36914 L 701.91992 151.01758 L 689.57812 169.76758 L 693.30273 188.3457 L 708.06055 207.23047 C 716.1769 217.6174 723.09292 226.1335 723.42969 226.1543 C 723.76645 226.17513 739.17787 220.50376 757.67773 213.55273 L 764.0957 211.14258 z "
       id="path2225"
       transform="translate(0,84.118)" />
    <path
       style="opacity:1;vector-effect:none;fill:#c0c0c0;fill-opacity:1;stroke:none;stroke-width:2.53666282;stroke-linecap:butt;stroke-linejoin:miter;stroke-miterlimit:4.5;stroke-dasharray:none;stroke-dashoffset:0;stroke-opacity:1"
       d="M 823.58203 90.771484 L 743.01562 120.44531 L 739.00977 123.42383 L 773.44336 167.12891 L 765.81445 210.49609 L 791.31445 200.91602 L 797.86133 203.31055 C 804.18525 205.62401 804.94134 205.67475 820.02148 204.8125 C 834.49477 203.98493 836.4805 203.62266 847.21875 199.85352 C 856.35325 196.6473 881.87561 185.71999 883.26172 184.42188 C 883.41768 184.27582 881.67907 180.69468 879.39648 176.46289 C 876.57876 171.23901 874.54656 168.62243 873.06836 168.3125 C 871.8709 168.06144 866.18499 167.15032 860.43359 166.28711 L 849.97656 164.7168 L 838.52539 154.59961 C 832.22689 149.03491 827.0537 143.71435 827.0293 142.77734 C 827.00497 141.84034 826.5486 137.67467 826.01562 133.51953 C 825.48262 129.3644 824.61779 115.65927 824.09375 103.06445 L 823.58203 90.771484 z "
       id="path2207"
       transform="translate(0,84.118)" />
    <path
       style="opacity:1;vector-effect:none;fill:#c0c0c0;fill-opacity:1;stroke:none;stroke-width:2.53666282;stroke-linecap:butt;stroke-linejoin:miter;stroke-miterlimit:4.5;stroke-dasharray:none;stroke-dashoffset:0;stroke-opacity:1"
       d="M 753.08984 115.05078 L 744.23438 90.253906 L 714.57227 66.574219 L 686.73828 59.1875 L 686.80859 60.083984 L 672.83203 93.416016 C 665.14428 111.74933 658.85352 127.06771 658.85352 127.45508 C 658.85352 127.84245 663.95285 129.64686 670.18555 131.4668 C 685.53655 135.94925 685.04306 135.60516 685.03906 141.86523 C 685.03719 144.73892 686.88188 156.28065 689.13867 167.56055 L 700.75391 149.91602 L 742.25586 119.04102 L 753.08984 115.05078 z "
       id="path2216"
       transform="translate(0,84.118)" />
    <path
       style="opacity:1;vector-effect:none;fill:#c0c0c0;fill-opacity:1;stroke:none;stroke-width:2.53666282;stroke-linecap:butt;stroke-linejoin:miter;stroke-miterlimit:4.5;stroke-dasharray:none;stroke-dashoffset:0;stroke-opacity:1"
       d="M 727.98828 0.064453125 C 721.45239 -0.0916815 714.89827 0.03797775 705.52734 0.38671875 C 693.15463 0.84717175 682.86285 1.4130594 682.65625 1.6445312 C 682.44965 1.8760032 683.29942 15.119478 684.54492 31.074219 L 686.60742 57.517578 L 715.29883 65.132812 L 745.57031 89.298828 L 754.57227 114.50391 L 823.51367 89.113281 L 823.14062 80.166016 L 818.08203 64.25 C 813.85469 50.95096 811.81964 46.322387 805.69531 36.091797 C 798.47338 24.027687 798.17741 23.699428 785.50781 13.607422 L 772.65039 3.3652344 L 750.33594 1.4570312 C 741.04089 0.6623828 734.52417 0.22058775 727.98828 0.064453125 z "
       id="Paris19"
       transform="translate(0,84.118)" />
    <path
       style="opacity:1;vector-effect:none;fill:#c0c0c0;fill-opacity:1;stroke:none;stroke-width:2.53666282;stroke-linecap:butt;stroke-linejoin:miter;stroke-miterlimit:4.5;stroke-dasharray:none;stroke-dashoffset:0;stroke-opacity:1"
       d="M 900.24219 280.26953 L 874.97461 286.11133 L 852.33398 318.25977 L 820.35938 342.34375 L 805.07617 346.63867 C 807.79171 350.27877 810.03813 354.23308 813.75195 361.67383 C 819.47602 373.14214 821.18822 377.73169 822.92383 386.24219 C 824.09765 391.99803 825.05859 398.22988 825.05859 400.0918 C 825.05859 402.10296 825.57032 403.49689 826.31836 403.52539 C 827.01088 403.55172 843.89519 405.54093 863.83984 407.94531 C 883.7845 410.3497 901.75653 412.36729 903.77734 412.42969 L 907.45117 412.54297 L 908.16602 399.19727 C 909.10084 381.74181 907.21802 337.48334 904.72656 318.35938 C 903.86267 311.72842 901.94825 295.18466 900.24219 280.26953 z "
       id="path2234"
       transform="translate(0,84.118)" />
    <path
       style="opacity:1;vector-effect:none;fill:#c0c0c0;fill-opacity:1;stroke:none;stroke-width:2.53666282;stroke-linecap:butt;stroke-linejoin:miter;stroke-miterlimit:4.5;stroke-dasharray:none;stroke-dashoffset:0;stroke-opacity:1"
       d="M 858.95312 306.11719 L 826.76562 240.12891 C 826.1295 240.33777 804.5073 247.43716 781.96875 254.74609 C 770.9172 258.32995 759.9699 261.85396 751.30078 264.60156 L 772.90234 296.07422 L 777.57617 312.17578 L 782.24805 328.27734 L 786.27734 329.36328 C 789.337 330.18715 792.28062 332.50798 798.50977 339.00977 C 800.81886 341.41993 802.51194 343.36595 804.04883 345.28711 L 819.64648 340.90234 L 851.18555 317.14648 L 858.95312 306.11719 z "
       id="path2243"
       transform="translate(0,84.118)" />
    <path
       style="opacity:1;vector-effect:none;fill:#c0c0c0;fill-opacity:1;stroke:none;stroke-width:2.53666282;stroke-linecap:butt;stroke-linejoin:miter;stroke-miterlimit:4.5;stroke-dasharray:none;stroke-dashoffset:0;stroke-opacity:1"
       d="M 808.42188 244.45312 L 806.67773 239.80469 L 810.57812 225.02344 L 806.1543 209.83008 C 802.32678 209.70856 799.86299 209.28136 797.00586 208.14258 L 791.61523 205.99609 L 759.98633 217.84961 C 742.59028 224.36991 728.35742 230.03718 728.35742 230.44141 C 728.35742 230.84096 738.31652 245.66927 750.37305 263.24219 C 759.08946 260.48143 770.27 256.88017 781.48242 253.24414 C 795.03593 248.84893 799.71194 247.30419 808.42188 244.45312 z "
       id="path2252"
       transform="translate(0,84.118)" />
    <path
       style="opacity:1;vector-effect:none;fill:#c0c0c0;fill-opacity:1;stroke:none;stroke-width:2.53666282;stroke-linecap:butt;stroke-linejoin:miter;stroke-miterlimit:4.5;stroke-dasharray:none;stroke-dashoffset:0;stroke-opacity:1"
       d="M 885.9375 189.02539 C 885.68256 188.77045 880.15374 191.12543 873.65039 194.25781 C 867.14704 197.39019 856.10153 201.96489 849.10547 204.42383 C 836.58639 208.82396 836.11747 208.9063 819.39062 209.59375 C 813.34863 209.84207 810.64986 209.8324 807.79297 209.80078 L 812.21875 225.00195 L 808.33398 239.7207 L 809.92383 243.96289 C 815.07842 242.27506 826.92773 238.41406 826.92773 238.41406 L 827.58203 238.19922 L 859.99219 304.64258 L 874.0293 284.70898 L 900.05664 278.69141 C 899.697 275.53692 899.44681 273.65615 899.10742 270.62305 C 895.98719 242.73768 887.58353 190.67142 885.9375 189.02539 z "
       id="Paris20"
       transform="translate(0,84.118)" />
  </g>
</svg>
