<?xml version="1.0" encoding="UTF-8" standalone="no"?>
<svg xmlns:dc="http://purl.org/dc/elements/1.1/" xmlns:cc="http://creativecommons.org/ns#" xmlns:rdf="http://www.w3.org/1999/02/22-rdf-syntax-ns#" xmlns:svg="http://www.w3.org/2000/svg" xmlns="http://www.w3.org/2000/svg" xmlns:sodipodi="http://sodipodi.sourceforge.net/DTD/sodipodi-0.dtd" xmlns:inkscape="http://www.inkscape.org/namespaces/inkscape" width="1000" height="797" viewBox="5.418397418 44.1862688 1.657606032 0.940579110000002" preserveAspectRatio="none" version="1.1" id="svg2" inkscape:version="0.48.4 r9939" sodipodi:docname="Blank_Map_of_Hautes-Alpes_Department,_France,_with_Communes.svg">
  <metadata id="metadata191">
    <rdf:RDF>
      <cc:Work rdf:about="">
        <dc:format>image/svg+xml</dc:format>
        <dc:type rdf:resource="http://purl.org/dc/dcmitype/StillImage"/>
      </cc:Work>
    </rdf:RDF>
  </metadata>
  <defs id="defs189"/>
  <sodipodi:namedview pagecolor="#ffffff" bordercolor="#666666" borderopacity="1" objecttolerance="10" gridtolerance="10" guidetolerance="10" inkscape:pageopacity="0" inkscape:pageshadow="2" inkscape:window-width="1863" inkscape:window-height="1056" id="namedview187" showgrid="false" inkscape:zoom="0.80503" inkscape:cx="390.28004" inkscape:cy="325.13182" inkscape:window-x="57" inkscape:window-y="24" inkscape:window-maximized="1" inkscape:current-layer="g8"/>
  <style type="text/css" id="style4">

.communes { 
	fill           : #b9b9b9;
	fill-opacity   : 1;
	stroke         : white;
	stroke-opacity : 1;
	stroke-width   : 0.002;
}

</style>
  <g transform="translate(0,45.12684791) scale(1,-1) translate(0,-44.1862688)" id="g6">
    <g class="communes" id="g8">
      <polygon id="05001 ABRIES" points="6.922524391,44.76000038 6.912602075,44.76777004 6.896998307,44.79383911 6.873217141,44.81154723 6.866129111,44.82833547 6.876277712,44.83552596 6.883381397,44.84811365 6.911827602,44.84536518 6.930829385,44.86121691 6.935782405,44.86117651 6.970288581,44.84745243 7.003334643,44.84030561 7.010604966,44.82732285 7.019471838,44.82430626 7.020876059,44.82091981 7.019276839,44.81397321 6.999397841,44.78967634 6.99023411,44.78791536 6.9662577,44.79130939 6.957234668,44.78847696 6.942380095,44.77937017 6.922524391,44.76000038"/>
      <polygon id="05003 AIGUILLES" points="6.925240734,44.73892816 6.916172051,44.73728429 6.884369909,44.74064026 6.873739295,44.74678163 6.866711924,44.75586987 6.836968575,44.76844204 6.844489874,44.7923833 6.832786753,44.79822406 6.828282406,44.81200862 6.843953669,44.82413982 6.85347201,44.8234939 6.866129111,44.82833547 6.873217141,44.81154723 6.896998307,44.79383911 6.912602075,44.76777004 6.922524391,44.76000038 6.925240734,44.73892816"/>
      <polygon id="05004 ANCELLE" points="6.267223291,44.60315523 6.254192667,44.59830496 6.191663996,44.59019153 6.169534952,44.59712664 6.173263163,44.59929006 6.168064797,44.60889055 6.156094894,44.61451287 6.16245231,44.62598079 6.157694046,44.63135157 6.188326357,44.63753595 6.216909284,44.64063619 6.224602431,44.63635745 6.24226021,44.64212104 6.260678181,44.64241724 6.277638137,44.64758322 6.286716018,44.64871033 6.290025132,44.64636828 6.30204459,44.62575423 6.291404084,44.61488071 6.28838857,44.60189646 6.267223291,44.60315523"/>
      <polygon id="05006 L'ARGENTIERE-LA-BESSEE" points="6.359552609,44.75800529 6.353424755,44.77295135 6.36669949,44.7761893 6.384618415,44.79180982 6.405378188,44.79878861 6.413412382,44.7949909 6.42829595,44.79436928 6.456184892,44.80169477 6.495731427,44.80418552 6.534321934,44.80227678 6.553402742,44.80494717 6.560584059,44.80040881 6.566252017,44.80973465 6.569886138,44.80018167 6.58982151,44.78728078 6.56445457,44.77183248 6.561745264,44.76900866 6.566042961,44.76296735 6.558271164,44.7584949 6.529267417,44.77219306 6.510255572,44.77002142 6.500871011,44.7724993 6.486825328,44.7687878 6.457002139,44.76704604 6.438505459,44.76162901 6.359552609,44.75800529"/>
      <polygon id="05007 ARVIEUX" points="6.719912607,44.70392734 6.717960735,44.70709338 6.692370183,44.71675579 6.682977009,44.72812744 6.691619379,44.76522492 6.681569861,44.77211179 6.681793274,44.77899924 6.669908668,44.78536009 6.66455328,44.79522618 6.673648606,44.7972684 6.680248089,44.80970366 6.695857751,44.81698963 6.719341391,44.81651067 6.737738223,44.81970454 6.748326473,44.81365058 6.757315305,44.80548656 6.757809466,44.7736977 6.770642306,44.75486536 6.768618785,44.73411357 6.761745826,44.71737552 6.719912607,44.70392734"/>
      <polygon id="05008 ASPREMONT" points="5.73741199,44.47846343 5.714369507,44.47543923 5.704233701,44.48235377 5.680968404,44.48151682 5.67120559,44.4958952 5.726337994,44.51126395 5.734635125,44.50791492 5.748276261,44.51068351 5.759502644,44.4884786 5.757945475,44.48235637 5.73741199,44.47846343"/>
      <polygon id="05009 ASPRES-LES-CORPS" points="5.977782179,44.79098997 5.961000972,44.79643082 5.949519248,44.80453012 5.979182157,44.81859385 6.003416211,44.82035473 6.016206228,44.83528828 6.030210546,44.8380961 6.056502376,44.81581377 6.022664598,44.81718283 6.014142084,44.80532369 6.000585219,44.79532129 5.986128689,44.79448638 5.977782179,44.79098997"/>
      <polygon id="05010 ASPRES-SUR-BUECH" points="5.759502644,44.4884786 5.748276261,44.51068351 5.734635125,44.50791492 5.726337994,44.51126395 5.721627356,44.5174784 5.721175316,44.53866645 5.768838611,44.54623652 5.771647813,44.55624585 5.778022898,44.56162549 5.77951105,44.56856021 5.778141274,44.57196368 5.768683354,44.58441606 5.764803912,44.60530377 5.759662562,44.61129656 5.768971492,44.61904487 5.800898846,44.63285172 5.812171866,44.62692627 5.815504088,44.62065271 5.805152491,44.60754768 5.807380912,44.59354636 5.795528748,44.57393 5.795267358,44.55619077 5.787307929,44.54732101 5.782314868,44.51936944 5.780864265,44.51343384 5.763514834,44.50361907 5.766792508,44.50141108 5.766420525,44.4920164 5.759502644,44.4884786"/>
      <polygon id="05011 AVANCON" points="6.186652736,44.50708683 6.160928603,44.52143136 6.158164729,44.52785318 6.171904666,44.54936127 6.171595244,44.56291164 6.18031725,44.56427344 6.211204209,44.56068534 6.207997534,44.54418255 6.223780237,44.52030617 6.219234618,44.50860919 6.201208176,44.5079987 6.193196562,44.51104194 6.186652736,44.50708683"/>
      <polygon id="05012 BARATIER" points="6.516718177,44.45879341 6.50837212,44.46763787 6.507962967,44.48516819 6.491659838,44.50284266 6.478380087,44.54808307 6.486682763,44.55050636 6.496923144,44.54493784 6.497027118,44.54173558 6.509614863,44.52492654 6.502959117,44.50881002 6.516048776,44.50486108 6.525484584,44.49726978 6.529206117,44.46797281 6.516718177,44.45879341"/>
      <polygon id="05013 BARCILLONNETTE" points="5.910435492,44.40524575 5.870224715,44.42281259 5.851859859,44.42628023 5.857466112,44.43100813 5.871571025,44.43051522 5.881517767,44.44167748 5.914944383,44.44495984 5.924237887,44.45275783 5.926486819,44.45951731 5.931267679,44.45905694 5.941578081,44.43651393 5.919428783,44.40955666 5.910435492,44.40524575"/>
      <polygon id="05014 BARRET-SUR-MEOUGE" points="5.760472656,44.22915837 5.748804806,44.22359696 5.735433136,44.2260295 5.732614967,44.23981649 5.68665277,44.26606948 5.675610027,44.27588578 5.718284591,44.28666383 5.75357212,44.29501714 5.758499735,44.27567312 5.77006424,44.2704104 5.772700006,44.26765989 5.769329551,44.26537615 5.756104995,44.26534851 5.744814912,44.25919149 5.743522599,44.24905536 5.760472656,44.22915837"/>
      <polygon id="05016 LA BATIE-MONTSALEON" points="5.745735189,44.42993163 5.729105331,44.44062221 5.716692981,44.44421663 5.725577448,44.45220287 5.726598431,44.45903221 5.737160531,44.46521971 5.73741199,44.47846343 5.757945475,44.48235637 5.762353391,44.4811561 5.763507687,44.47105669 5.769832401,44.46201649 5.778634463,44.45966913 5.77795231,44.45320989 5.745735189,44.42993163"/>
      <polygon id="05017 LA BATIE-NEUVE" points="6.211204209,44.56068534 6.18031725,44.56427344 6.171595244,44.56291164 6.163305359,44.56497846 6.164418317,44.57358681 6.160181915,44.57446496 6.16135538,44.59405447 6.169534952,44.59712664 6.191663996,44.59019153 6.254192667,44.59830496 6.267223291,44.60315523 6.26902175,44.59654256 6.252152363,44.5692714 6.252733834,44.56252377 6.224534605,44.56394575 6.211204209,44.56068534"/>
      <polygon id="05018 LA BATIE-VIEILLE" points="6.158164729,44.52785318 6.150626837,44.53089767 6.146684562,44.52954164 6.150092217,44.54298562 6.146175341,44.55995414 6.142142647,44.56606034 6.133780533,44.56866752 6.132293832,44.57525963 6.160181915,44.57446496 6.164418317,44.57358681 6.163305359,44.56497846 6.171595244,44.56291164 6.171904666,44.54936127 6.158164729,44.52785318"/>
      <polygon id="05019 LA BEAUME" points="5.646326272,44.52007598 5.627653039,44.53435744 5.614987005,44.53277579 5.597248798,44.54327373 5.606489716,44.56665493 5.607147666,44.56835079 5.6161332,44.55696917 5.634744677,44.55544567 5.649786274,44.56322839 5.652906093,44.56955779 5.669730211,44.57492616 5.678552129,44.57281192 5.687632337,44.57454595 5.693806394,44.56977458 5.695195264,44.55954404 5.706734355,44.54480446 5.688632383,44.54052695 5.672470125,44.52848022 5.646326272,44.52007598"/>
      <path style="stroke-width:1.42995" d="m 418.84375,338.75 -9,0.25 -11.34375,9.46875 -7.75,-7.3125 -6.59375,3.90625 1,7.90625 -2.34375,7.65625 4.125,3.65625 3.375,7.78125 6.65625,13.5 6.1875,6.46875 2.625,3.71875 7.8125,3.15625 6.125,-15.96875 14.34375,-10.15625 2.25,-8.4375 2.09375,-8.53125 -6.4375,-10.1875 -13.125,-6.875 z" transform="matrix(0.00165761,0,0,-0.00118015,5.4183974,45.126848)" id="05020 BENEVENT-ET-CHARBILLAC" inkscape:connector-curvature="0"/>
      <polygon id="05021 LE BERSAC" points="5.754423108,44.39125363 5.755139285,44.40106259 5.750673567,44.40172369 5.740735177,44.39497296 5.731796056,44.39638409 5.729906282,44.39757488 5.730021034,44.40412023 5.737694496,44.4076857 5.738615709,44.41737258 5.746823529,44.42490543 5.761821661,44.41750464 5.762915981,44.41109099 5.778496091,44.39902543 5.776870376,44.39585083 5.7711152,44.39120398 5.754423108,44.39125363"/>
      <polygon id="05022 BREZIERS" points="6.227244,44.38173808 6.211064179,44.40344602 6.199880826,44.41502414 6.184895496,44.42413444 6.173945409,44.43958598 6.191505528,44.45037627 6.226894561,44.44435419 6.240256403,44.44774599 6.246395843,44.44317759 6.262495029,44.41225866 6.244687608,44.38777489 6.227244,44.38173808"/>
      <polygon id="05023 BRIANCON" points="6.605025847,44.86922599 6.607566012,44.88074292 6.620590331,44.88475315 6.62686231,44.89411113 6.622447935,44.90036605 6.600685004,44.91416068 6.606261077,44.91980209 6.619554773,44.92037909 6.627835979,44.92857215 6.647102925,44.92965371 6.648781724,44.92289277 6.658208539,44.92134787 6.669108692,44.91014535 6.68185098,44.90543324 6.687678936,44.8960823 6.7065844,44.89471357 6.697157023,44.88308529 6.669350415,44.87972684 6.665824275,44.86980275 6.642773617,44.88275647 6.628067377,44.88176906 6.605025847,44.86922599"/>
      <polygon id="05024 BRUIS" points="5.512935078,44.42656275 5.493615332,44.42821765 5.497848892,44.43642563 5.495489994,44.43880274 5.481633815,44.44818514 5.486665079,44.47939626 5.460352353,44.48613799 5.458908554,44.48852089 5.457842946,44.49815457 5.470847261,44.49999855 5.474924886,44.49426001 5.4831339,44.49122039 5.51102953,44.49150741 5.549713683,44.47990167 5.542548157,44.47079022 5.5202079,44.45721689 5.512935078,44.42656275"/>
      <polygon id="05025 BUISSARD" points="6.15637862,44.6644104 6.156717969,44.64861533 6.139169468,44.65011509 6.137289728,44.65035765 6.135290525,44.65979359 6.153918913,44.66940902 6.15637862,44.6644104"/>
      <polygon id="05026 CEILLAC" points="6.907604162,44.65638989 6.90147069,44.64715116 6.882274129,44.63133233 6.858737809,44.62790247 6.852356037,44.61486656 6.845108549,44.61017982 6.821003974,44.60806001 6.80898705,44.60200372 6.799941932,44.6042531 6.799607674,44.60771657 6.784489502,44.61631119 6.770381349,44.63044814 6.741838603,44.62960683 6.72071436,44.6426585 6.708790405,44.67610876 6.714434706,44.68182268 6.727520477,44.6865648 6.746193068,44.68276137 6.803387395,44.68953405 6.795277949,44.70193545 6.802893315,44.70728024 6.814798831,44.70167866 6.822580239,44.69381175 6.826690574,44.68438581 6.907604162,44.65638989"/>
      <polygon id="05027 CERVIERES" points="6.748326473,44.81365058 6.737738223,44.81970454 6.719341391,44.81651067 6.695857751,44.81698963 6.690828676,44.83006395 6.693839796,44.83617374 6.676966546,44.84796479 6.673418636,44.86112431 6.665824275,44.86980275 6.669350415,44.87972684 6.697157023,44.88308529 6.7065844,44.89471357 6.713797589,44.89372437 6.723179756,44.89217524 6.75101692,44.90550663 6.774269685,44.90141955 6.78478525,44.88960499 6.799305226,44.88887456 6.807273922,44.87644174 6.839717579,44.86073011 6.853711368,44.85743247 6.864814793,44.85064613 6.883381397,44.84811365 6.876277712,44.83552596 6.866129111,44.82833547 6.85347201,44.8234939 6.843953669,44.82413982 6.828282406,44.81200862 6.794744312,44.81677634 6.786277286,44.82041892 6.763155317,44.81422977 6.748326473,44.81365058"/>
      <polygon id="05028 CHABESTAN" points="5.778634463,44.45966913 5.769832401,44.46201649 5.763507687,44.47105669 5.762353391,44.4811561 5.757945475,44.48235637 5.759502644,44.4884786 5.766420525,44.4920164 5.766792508,44.50141108 5.771228928,44.49563385 5.784519674,44.49463248 5.805327951,44.48764649 5.802914678,44.4745115 5.806447997,44.46839543 5.801573194,44.45912442 5.778634463,44.45966913"/>
      <polygon id="05029 CHABOTTES" points="6.157694046,44.63135157 6.144681258,44.63444354 6.139169468,44.65011509 6.156717969,44.64861533 6.15637862,44.6644104 6.181891841,44.66459826 6.19024321,44.65423031 6.192532016,44.64895643 6.188326357,44.63753595 6.157694046,44.63135157"/>
      <polygon id="05031 CHAMPCELLA" points="6.466513355,44.69665612 6.460357502,44.72106288 6.463264875,44.73112804 6.478206255,44.73192123 6.493873884,44.72485826 6.495975264,44.71860082 6.489880205,44.70571719 6.50872123,44.70571612 6.520183956,44.71220106 6.526726025,44.72926862 6.538870525,44.74065075 6.548092411,44.74271677 6.57117625,44.73624286 6.573145025,44.75369913 6.581702598,44.74150843 6.579698707,44.73485911 6.587417644,44.7187026 6.582281039,44.70929804 6.566047623,44.69723251 6.552425438,44.7004104 6.533476078,44.69806131 6.48556639,44.70074355 6.466513355,44.69665612"/>
      <polygon id="05032 CHAMPOLEON" points="6.263358483,44.68324554 6.237922863,44.70939341 6.214358917,44.70410646 6.194941968,44.70569593 6.189572492,44.71015772 6.189295795,44.71597731 6.19387248,44.72514398 6.190611943,44.73785247 6.193315105,44.74048666 6.203173417,44.74066145 6.207645934,44.75723738 6.215994231,44.76611397 6.237730352,44.77347328 6.255441113,44.79882431 6.269794521,44.79711325 6.293791498,44.78440907 6.338295176,44.79852248 6.344265072,44.79356655 6.346343466,44.77704029 6.353424755,44.77295135 6.359552609,44.75800529 6.344873652,44.74404979 6.322657084,44.73012088 6.306145846,44.71287286 6.285705034,44.70344368 6.279739097,44.69386214 6.281050952,44.68689408 6.263358483,44.68324554"/>
      <polygon id="05033 CHANOUSSE" points="5.664551981,44.33561537 5.645793888,44.34265204 5.625735323,44.36099269 5.638988313,44.37544652 5.640095869,44.38573265 5.649320438,44.39363513 5.654139197,44.39379826 5.666950328,44.38389635 5.685194121,44.38325463 5.694992998,44.37117105 5.683606834,44.36037093 5.679825137,44.34386367 5.664551981,44.33561537"/>
      <polygon id="05035 CHATEAUNEUF-D'OZE" points="5.928180392,44.47788514 5.91590442,44.487471 5.898551631,44.49263083 5.89174242,44.48794521 5.882713668,44.48683943 5.870141691,44.49103187 5.862073954,44.4947367 5.84388838,44.51498881 5.844253913,44.51799709 5.888820993,44.5282705 5.902722584,44.52531124 5.90780777,44.5196462 5.921119255,44.52310508 5.925099417,44.51024373 5.932990216,44.50680017 5.946388537,44.50422697 5.96135606,44.51215897 5.96127579,44.50774694 5.956351887,44.50194244 5.940208065,44.49504119 5.932541015,44.47923758 5.928180392,44.47788514"/>
      <polygon id="05036 CHATEAUROUX-LES-ALPES" points="6.519387237,44.58408982 6.516244977,44.59072321 6.454262326,44.61849637 6.43566921,44.60241459 6.423494117,44.61710214 6.404307155,44.61818159 6.401476153,44.62102614 6.400263774,44.63836455 6.407206578,44.64715279 6.431410155,44.66278652 6.435183402,44.67931324 6.442948576,44.68299173 6.452390737,44.68289567 6.466513355,44.69665612 6.48556639,44.70074355 6.497307987,44.6989672 6.499183223,44.68137116 6.508132477,44.67823097 6.519047285,44.66674572 6.546026313,44.65780921 6.557080029,44.65070424 6.565381992,44.64184846 6.56691846,44.63142625 6.553063062,44.62905193 6.541222047,44.61393196 6.532279978,44.59424862 6.519387237,44.58408982"/>
      <polygon id="05037 CHATEAUVIEUX" points="6.060285826,44.46796354 6.052751227,44.46495637 6.034799334,44.47595631 6.036434638,44.4827399 6.043867061,44.50367864 6.052555843,44.50116824 6.056938841,44.49539824 6.070880965,44.49694776 6.060285826,44.46796354"/>
      <polygon id="05038 CHATEAU-VILLE-VIEILLE" points="6.795277949,44.70193545 6.771313985,44.71056937 6.761745826,44.71737552 6.768618785,44.73411357 6.770642306,44.75486536 6.757809466,44.7736977 6.757315305,44.80548656 6.748326473,44.81365058 6.763155317,44.81422977 6.786277286,44.82041892 6.794744312,44.81677634 6.828282406,44.81200862 6.832786753,44.79822406 6.844489874,44.7923833 6.836968575,44.76844204 6.866711924,44.75586987 6.873739295,44.74678163 6.849540362,44.74545336 6.831473801,44.74036542 6.823332429,44.74394587 6.814408568,44.7425321 6.806187619,44.72253479 6.799806613,44.71734604 6.802893315,44.70728024 6.795277949,44.70193545"/>
      <polygon id="05039 CHAUFFAYER" points="6.007930025,44.7308927 6.003816238,44.73693263 5.999761526,44.75405253 5.984387125,44.77622582 6.025559741,44.77528043 6.034744187,44.7614786 6.021544676,44.74811772 6.031112515,44.73492744 6.018084432,44.73782401 6.007930025,44.7308927"/>
      <polygon id="05040 CHORGES" points="6.307300167,44.4914971 6.299438075,44.49503032 6.290033701,44.50624947 6.277908145,44.50297955 6.260447462,44.50539827 6.243224274,44.51087954 6.240580013,44.52009321 6.260762939,44.54269906 6.261463531,44.54610216 6.250375849,44.55243895 6.252733834,44.56252377 6.252152363,44.5692714 6.26902175,44.59654256 6.267223291,44.60315523 6.28838857,44.60189646 6.300757687,44.59710343 6.310795319,44.58549494 6.323323998,44.58050525 6.313096392,44.54954675 6.334732176,44.51843121 6.33482066,44.51140054 6.332396212,44.51000516 6.317733985,44.50219394 6.307300167,44.4914971"/>
      <polygon id="05043 LES COSTES" points="6.047777767,44.73363207 6.031112515,44.73492744 6.021544676,44.74811772 6.034744187,44.7614786 6.058233515,44.75809362 6.076940697,44.76002625 6.076629567,44.75295311 6.047777767,44.73363207"/>
      <polygon id="05044 CREVOUX" points="6.64166954,44.48554481 6.633615909,44.49420045 6.630361665,44.50801443 6.618107519,44.51900591 6.590926705,44.52713052 6.567593337,44.53046493 6.555174947,44.55931502 6.57726443,44.57254228 6.589911843,44.56742759 6.642681552,44.57170973 6.656281572,44.55434449 6.67297821,44.54964446 6.68060016,44.54148686 6.683020554,44.531655 6.668497059,44.50029975 6.653630055,44.49452123 6.64166954,44.48554481"/>
      <polygon id="05045 CROTS" points="6.512446422,44.44998186 6.498925961,44.44941192 6.481649387,44.45402313 6.468074058,44.45236083 6.458981991,44.46433347 6.445131861,44.46706507 6.438481177,44.47212048 6.415901608,44.46913736 6.409319712,44.47391849 6.408369041,44.48048048 6.398808691,44.49415621 6.403416264,44.49520346 6.425660641,44.48876578 6.432032774,44.49378473 6.432806447,44.49719371 6.425570179,44.52069333 6.416644389,44.52887255 6.415652411,44.53225525 6.419932549,44.53387073 6.436447656,44.54131411 6.464716046,44.54636831 6.478380087,44.54808307 6.491659838,44.50284266 6.507962967,44.48516819 6.50837212,44.46763787 6.516718177,44.45879341 6.512446422,44.44998186"/>
      <polygon id="05046 EMBRUN" points="6.497027118,44.54173558 6.496923144,44.54493784 6.486682763,44.55050636 6.478380087,44.54808307 6.464716046,44.54636831 6.434860697,44.5854179 6.430428408,44.59152997 6.43566921,44.60241459 6.454262326,44.61849637 6.516244977,44.59072321 6.519387237,44.58408982 6.51348434,44.56240726 6.497027118,44.54173558"/>
      <polygon id="05047 EOURRES" points="5.69239018,44.1862688 5.676037326,44.19143313 5.685231213,44.19368514 5.685922274,44.1971806 5.676722626,44.21340924 5.681132665,44.23069252 5.698598641,44.2263198 5.735433136,44.2260295 5.748804806,44.22359696 5.760472656,44.22915837 5.790637594,44.23608734 5.793482966,44.22644989 5.787431205,44.22283898 5.785325914,44.2164347 5.791913685,44.2118631 5.77625413,44.20557756 5.754536576,44.20982652 5.739008821,44.20175824 5.714941075,44.19851075 5.697941829,44.19195033 5.69239018,44.1862688"/>
      <polygon id="05048 L'EPINE" points="5.583498182,44.38730074 5.581507338,44.38798691 5.585065122,44.39768454 5.580110329,44.43090912 5.582728189,44.4373146 5.600464303,44.45778423 5.564686977,44.47524912 5.569099852,44.47657846 5.603636603,44.46550031 5.609410065,44.46087833 5.622364981,44.4606339 5.62140147,44.45070414 5.626102464,44.44471068 5.649598801,44.44170727 5.648288397,44.4384242 5.636440794,44.43399773 5.641421673,44.42087244 5.65192616,44.41412603 5.654512432,44.39720285 5.641547992,44.40016268 5.622452583,44.39989863 5.609516845,44.396171 5.611087766,44.38937876 5.607032648,44.38751143 5.583498182,44.38730074"/>
      <polygon id="05049 ESPARRON" points="5.851859859,44.42628023 5.845722938,44.42647499 5.847281339,44.43795563 5.875626675,44.4479748 5.878037365,44.45086646 5.873135983,44.46008339 5.87548504,44.4736242 5.868100667,44.47809539 5.866077449,44.48484097 5.870141691,44.49103187 5.882713668,44.48683943 5.89174242,44.48794521 5.898551631,44.49263083 5.91590442,44.487471 5.928180392,44.47788514 5.925331733,44.47243872 5.929865243,44.46427396 5.926486819,44.45951731 5.924237887,44.45275783 5.914944383,44.44495984 5.881517767,44.44167748 5.871571025,44.43051522 5.857466112,44.43100813 5.851859859,44.42628023"/>
      <polygon id="05050 ESPINASSES" points="6.212771803,44.46007399 6.214397883,44.48711819 6.222611243,44.4989423 6.219234618,44.50860919 6.223780237,44.52030617 6.240580013,44.52009321 6.243224274,44.51087954 6.260447462,44.50539827 6.261604957,44.49840844 6.254783511,44.48904161 6.240744463,44.48895065 6.234141171,44.48397301 6.230038498,44.47032662 6.233524696,44.4637465 6.232770425,44.46287668 6.212771803,44.46007399"/>
      <polygon id="05051 ETOILE-SAINT-CYRICE" points="5.633798845,44.30087985 5.625326612,44.30262262 5.61605701,44.30938221 5.608318359,44.3061167 5.613215935,44.31577223 5.630209413,44.32784989 5.631219164,44.33122117 5.623800327,44.33521717 5.645793888,44.34265204 5.664551981,44.33561537 5.67034871,44.33053914 5.673458059,44.31399953 5.660534768,44.31019708 5.633798845,44.30087985"/>
      <path id="05052 LEYGLIERS" d="M6.719912607,44.70392734 L6.705654152,44.69428445 L6.694642021,44.67859218 L6.678432701,44.67062465 L6.664137743,44.66813415 L6.640039898,44.67143551 L6.624115592,44.66302741 L6.60457694,44.6686949 L6.607458972,44.67957776 L6.620845229,44.68247485 L6.657632343,44.70447161 L6.662520251,44.72112744 L6.6733924,44.72752664 L6.682977009,44.72812744 L6.692370183,44.71675579 L6.717960735,44.70709338 L6.719912607,44.70392734 Z M6.624190701,44.66399827 L6.625035851,44.66437611 L6.629971802,44.66963957 L6.630598689,44.67133132 L6.630342602,44.67206071 L6.629649422,44.67208347 L6.629572666,44.67285203 L6.624544586,44.67322423 L6.621111607,44.67110166 L6.619908173,44.6694738 L6.620014059,44.66640617 L6.620522293,44.66566855 L6.624190701,44.66399827 Z"/>
      <path style="stroke-width:1.42995" d="m 233.28125,618.03125 -11.21875,7.90625 -5.8125,-6.53125 -3.46875,3.9375 -10.0625,-0.0313 2.6875,10.75 -9.0625,6.84375 10.28125,14.625 4.96875,6.84375 -10.9375,1.25 -6.875,-4.96875 -5.4375,-0.46875 -9.21875,10.34375 2.75,-0.15625 4.40625,6.96875 9.09375,6.15625 4.71875,-2.4375 6.40625,-9.65625 7.4375,-4.75 6.90625,9.25 8.875,-21.09375 1.59375,-17.09375 14.875,2.625 8.53125,-0.0313 4.3125,-3.8125 5.75,-0.84375 -1.53125,-5.46875 -10.34375,-5.28125 -19.625,-4.875 z" transform="matrix(0.00165761,0,0,-0.00118015,5.4183974,45.126848)" id="05053 GARDE-COLOMBE" inkscape:connector-curvature="0"/>
      <polygon id="05054 LA FARE-EN-CHAMPSAUR" points="6.046762144,44.64556471 6.033272189,44.66292732 6.046317959,44.67726318 6.065387481,44.68774608 6.076389516,44.67182699 6.086689949,44.66417912 6.060418227,44.64907059 6.046762144,44.64556471"/>
      <polygon id="05055 LA FAURIE" points="5.721175316,44.53866645 5.706734355,44.54480446 5.695195264,44.55954404 5.693806394,44.56977458 5.709939563,44.57300092 5.711638469,44.58212912 5.725247024,44.57944311 5.759662562,44.61129656 5.764803912,44.60530377 5.768683354,44.58441606 5.778141274,44.57196368 5.77951105,44.56856021 5.778022898,44.56162549 5.771647813,44.55624585 5.768838611,44.54623652 5.721175316,44.53866645"/>
      <polygon id="05056 FOREST-SAINT-JULIEN" points="6.139581649,44.61266783 6.133998731,44.61411472 6.123009296,44.6482122 6.137289728,44.65035765 6.139169468,44.65011509 6.144681258,44.63444354 6.157694046,44.63135157 6.16245231,44.62598079 6.156094894,44.61451287 6.139581649,44.61266783"/>
      <polygon id="05057 FOUILLOUSE" points="5.993772173,44.43397273 5.999659337,44.44280297 5.99695015,44.44910153 5.98845986,44.45073745 5.981094829,44.44700931 5.975987034,44.45246233 5.988761899,44.46572832 6.011307115,44.46766405 6.014712148,44.46546295 6.015229348,44.459359 6.022412487,44.45161304 6.0132107,44.45051378 6.01319924,44.44038854 6.00788764,44.43461515 5.993772173,44.43397273"/>
      <polygon id="05058 FREISSINIERES" points="6.442948576,44.68299173 6.439976484,44.68582366 6.416097276,44.69031237 6.404396044,44.69672863 6.404743762,44.70707186 6.397827338,44.72353176 6.377586349,44.73355894 6.35801514,44.73353252 6.344873652,44.74404979 6.359552609,44.75800529 6.438505459,44.76162901 6.457002139,44.76704604 6.486825328,44.7687878 6.500871011,44.7724993 6.510255572,44.77002142 6.529267417,44.77219306 6.558271164,44.7584949 6.566042961,44.76296735 6.573145025,44.75369913 6.57117625,44.73624286 6.548092411,44.74271677 6.538870525,44.74065075 6.526726025,44.72926862 6.520183956,44.71220106 6.50872123,44.70571612 6.489880205,44.70571719 6.495975264,44.71860082 6.493873884,44.72485826 6.478206255,44.73192123 6.463264875,44.73112804 6.460357502,44.72106288 6.466513355,44.69665612 6.452390737,44.68289567 6.442948576,44.68299173"/>
      <polygon id="05059 LA FREISSINOUSE" points="5.978803861,44.52048157 5.99491571,44.53200893 5.991356337,44.54422227 6.000254731,44.54360235 6.004565601,44.54838589 6.012919093,44.5505275 6.022480008,44.55050033 6.032031696,44.54303117 6.03237731,44.53961629 6.021430003,44.53324098 6.017494165,44.52699745 6.006899574,44.52078236 5.978803861,44.52048157"/>
      <polygon id="05060 FURMEYER" points="5.844253913,44.51799709 5.842679976,44.53525212 5.864406758,44.54868909 5.880292512,44.55610393 5.893535914,44.5541721 5.905208537,44.54352382 5.90780777,44.5196462 5.902722584,44.52531124 5.888820993,44.5282705 5.844253913,44.51799709"/>
      <polygon id="05061 GAP" points="6.070880965,44.49694776 6.056938841,44.49539824 6.052555843,44.50116824 6.043867061,44.50367864 6.039973474,44.50524547 6.039214774,44.51781574 6.033998351,44.52290522 6.017494165,44.52699745 6.021430003,44.53324098 6.03237731,44.53961629 6.032031696,44.54303117 6.022480008,44.55050033 6.012919093,44.5505275 6.01466224,44.57325454 6.024333677,44.57474682 6.041424635,44.58666495 6.049430017,44.59948954 6.047624256,44.61344067 6.03279417,44.62263273 6.018704783,44.62595549 5.999815489,44.62540675 5.984278123,44.63407069 5.98211867,44.64094885 5.99026842,44.64305305 5.989518827,44.66365027 6.001015813,44.66382538 6.01299298,44.65881488 6.02417831,44.66378001 6.033272189,44.66292732 6.046762144,44.64556471 6.044447224,44.63238473 6.056061278,44.62645137 6.083770808,44.62907822 6.091509749,44.63307848 6.090691669,44.62253319 6.096271495,44.61686316 6.105492227,44.614343 6.119820266,44.61660621 6.133998731,44.61411472 6.139581649,44.61266783 6.13820761,44.59546239 6.121903961,44.57815762 6.122253453,44.57467909 6.124499809,44.56812872 6.133397965,44.56631789 6.132580518,44.56294451 6.116299746,44.55589147 6.10849228,44.53996692 6.110983246,44.53350914 6.093052751,44.52923837 6.087615862,44.51249855 6.080243842,44.50799294 6.080949005,44.50107232 6.070880965,44.49694776"/>
      <polygon id="05062 LE GLAIZIL" points="5.965579076,44.7153409 5.951597628,44.73448087 5.951121583,44.75962054 5.953164593,44.77131433 5.980273414,44.78118367 5.984387125,44.77622582 5.999761526,44.75405253 6.003816238,44.73693263 5.996803677,44.73295126 5.994681021,44.72346769 5.980582351,44.72355086 5.965579076,44.7153409"/>
      <polygon id="05063 LA GRAVE" points="6.318198731,45.00386577 6.298856443,45.00371113 6.256173044,44.99621866 6.214373491,45.00567976 6.203138113,45.01244682 6.202925044,45.02293299 6.208685718,45.02833598 6.209562582,45.04229619 6.220080156,45.06536794 6.243285307,45.06994823 6.22926313,45.10680719 6.260566198,45.12684791 6.276887563,45.11493339 6.29334222,45.10863575 6.317030695,45.1119345 6.332876063,45.11961767 6.334232579,45.1229386 6.365100602,45.10198591 6.374600823,45.08229534 6.364877555,45.0701708 6.361755056,45.06456046 6.325591968,45.05305672 6.328430022,45.01101283 6.318198731,45.00386577"/>
      <polygon id="05064 LA CHAPELLE-EN-VALGAUDEMAR" points="6.193315105,44.74048666 6.187001345,44.7493185 6.178744983,44.75223186 6.175752713,44.76194075 6.165964144,44.7689066 6.17553318,44.78067062 6.174422266,44.78743324 6.157847281,44.79936797 6.138052198,44.80839083 6.148776487,44.82290886 6.162519533,44.82234657 6.169659029,44.85239117 6.18865757,44.85457701 6.196382213,44.85897725 6.229097887,44.8520017 6.248866431,44.85255994 6.267094947,44.86909163 6.294563167,44.87398369 6.304352587,44.87279153 6.319428237,44.85513899 6.336319027,44.84836943 6.33016109,44.83958819 6.337463771,44.8271403 6.347607638,44.82057165 6.338295176,44.79852248 6.293791498,44.78440907 6.269794521,44.79711325 6.255441113,44.79882431 6.237730352,44.77347328 6.215994231,44.76611397 6.207645934,44.75723738 6.203173417,44.74066145 6.193315105,44.74048666"/>
      <polygon id="05065 GUILLESTRE" points="6.649899171,44.60239186 6.642677106,44.61107467 6.649713653,44.62738884 6.651352916,44.64470136 6.648245097,44.65129285 6.613250749,44.66058923 6.595484835,44.65565302 6.591019889,44.65572605 6.60457694,44.6686949 6.624115592,44.66302741 6.640039898,44.67143551 6.664137743,44.66813415 6.678432701,44.67062465 6.694642021,44.67859218 6.705654152,44.69428445 6.719912607,44.70392734 6.761745826,44.71737552 6.771313985,44.71056937 6.795277949,44.70193545 6.803387395,44.68953405 6.746193068,44.68276137 6.727520477,44.6865648 6.714434706,44.68182268 6.708790405,44.67610876 6.72071436,44.6426585 6.674556938,44.63407277 6.657690072,44.60562185 6.649899171,44.60239186"/>
      <polygon id="05066 LA HAUTE-BEAUME" points="5.652906093,44.56955779 5.649786274,44.56322839 5.634744677,44.55544567 5.6161332,44.55696917 5.607147666,44.56835079 5.613898388,44.57182116 5.61843125,44.58396383 5.626319023,44.58662291 5.643520017,44.57066563 5.652906093,44.56955779"/>
      <polygon id="05068 JARJAYES" points="6.109716687,44.47553486 6.102344172,44.47211198 6.09137052,44.47735722 6.082678297,44.47740245 6.079318602,44.48386567 6.080949005,44.50107232 6.080243842,44.50799294 6.087615862,44.51249855 6.093052751,44.52923837 6.110983246,44.53350914 6.124014265,44.533186 6.136496551,44.52389457 6.147169803,44.51565333 6.125725352,44.49789326 6.123297537,44.48813304 6.112215531,44.48206799 6.109716687,44.47553486"/>
      <polygon id="05070 LARAGNE-MONTEGLIN" points="5.836127495,44.29753821 5.82261471,44.30774888 5.804146901,44.31274311 5.788602916,44.31934435 5.784484743,44.33153619 5.799167221,44.35643758 5.801809414,44.37660069 5.826496336,44.37351037 5.824692151,44.33936483 5.817420984,44.33120165 5.824964753,44.32243324 5.829642618,44.3216374 5.837388328,44.32573424 5.851365285,44.32621034 5.854360588,44.32016077 5.849039162,44.30066301 5.836127495,44.29753821"/>
      <polygon id="05071 LARDIER-ET-VALENCA" points="5.977589192,44.40718845 5.958160166,44.42302601 5.955521361,44.45070705 5.943334063,44.46155491 5.950015818,44.46594346 5.963568345,44.46267017 5.975987034,44.45246233 5.981094829,44.44700931 5.98845986,44.45073745 5.99695015,44.44910153 5.999659337,44.44280297 5.993772173,44.43397273 5.992139836,44.41167645 5.977589192,44.40718845"/>
      <polygon id="05072 LAYE" points="6.091509749,44.63307848 6.083770808,44.62907822 6.056061278,44.62645137 6.044447224,44.63238473 6.046762144,44.64556471 6.060418227,44.64907059 6.086689949,44.66417912 6.091006902,44.65979698 6.089758811,44.6494708 6.094585391,44.63968653 6.091509749,44.63307848"/>
      <polygon id="05073 LAZER" points="5.851365285,44.32621034 5.837388328,44.32573424 5.829642618,44.3216374 5.824964753,44.32243324 5.817420984,44.33120165 5.824692151,44.33936483 5.826496336,44.37351037 5.84061383,44.37355218 5.847771842,44.37804208 5.85727975,44.37904768 5.884063051,44.36166688 5.881204242,44.35532839 5.887134452,44.35024576 5.882154154,44.34463857 5.865406135,44.33935644 5.851365285,44.32621034"/>
      <polygon id="05074 LETTRET" points="6.076863993,44.46929473 6.069274601,44.46529922 6.060285826,44.46796354 6.070880965,44.49694776 6.080949005,44.50107232 6.079318602,44.48386567 6.082678297,44.47740245 6.076863993,44.46929473"/>
      <polygon id="05075 MANTEYER" points="5.96135606,44.51215897 5.946388537,44.50422697 5.932990216,44.50680017 5.925099417,44.51024373 5.921119255,44.52310508 5.923499636,44.52968124 5.915125827,44.54555046 5.913846977,44.55908795 5.961193069,44.55299038 5.976999763,44.54597079 5.991356337,44.54422227 5.99491571,44.53200893 5.978803861,44.52048157 5.964633496,44.51823278 5.96135606,44.51215897"/>
      <polygon id="05076 MEREUIL" points="5.694992998,44.37117105 5.685194121,44.38325463 5.686661386,44.39379296 5.692340048,44.39961684 5.704215847,44.39469617 5.725932164,44.39931265 5.729906282,44.39757488 5.731796056,44.39638409 5.741448845,44.37313995 5.737547119,44.37113843 5.694992998,44.37117105"/>
      <polygon id="05077 MOLINES-EN-QUEYRAS" points="6.963183832,44.67810918 6.952215807,44.68528034 6.91917867,44.69223397 6.896619286,44.70569546 6.869990853,44.71529232 6.840391715,44.71409719 6.82646544,44.71025317 6.826292056,44.69618014 6.822580239,44.69381175 6.814798831,44.70167866 6.802893315,44.70728024 6.799806613,44.71734604 6.806187619,44.72253479 6.814408568,44.7425321 6.823332429,44.74394587 6.831473801,44.74036542 6.849540362,44.74545336 6.873739295,44.74678163 6.884369909,44.74064026 6.916172051,44.73728429 6.925240734,44.73892816 6.934280993,44.72678064 6.951521057,44.71479949 6.964401731,44.71047162 6.971299913,44.70146234 6.995415432,44.69024543 6.986231966,44.68833224 6.972517272,44.67860358 6.963183832,44.67810918"/>
      <polygon id="05078 MONETIER-ALLEMONT" points="5.941362275,44.37266179 5.919010433,44.3848861 5.922936173,44.40058177 5.910435492,44.40524575 5.919428783,44.40955666 5.937671562,44.40778331 5.953542575,44.39501766 5.941362275,44.37266179"/>
      <polygon id="05079 LE MONETIER-LES-BAINS" points="6.508959957,44.93754601 6.500822041,44.93381925 6.467747912,44.93838036 6.447807241,44.92898844 6.436915531,44.9359138 6.427266182,44.9515775 6.408209771,44.95167691 6.411808958,44.95826242 6.411631908,44.98287083 6.403894719,44.99576093 6.412658579,45.00805532 6.406247056,45.03234139 6.380318099,45.04788478 6.361755056,45.06456046 6.364877555,45.0701708 6.396887835,45.0619892 6.406142993,45.06424793 6.420353146,45.06121679 6.434870003,45.06299597 6.453124048,45.05237341 6.487081932,45.05640707 6.498825743,45.05001812 6.495149917,45.02578136 6.503293504,45.0170083 6.519523813,45.00878114 6.53880525,45.00588916 6.549923768,44.99029415 6.579504316,44.98909352 6.572042013,44.97684157 6.572457948,44.96982519 6.563014924,44.96169225 6.543579682,44.95085844 6.508959957,44.93754601"/>
      <polygon id="05080 MONTBRAND" points="5.652906093,44.56955779 5.643520017,44.57066563 5.626319023,44.58662291 5.627476812,44.59497233 5.637030457,44.60921983 5.646091881,44.60992198 5.649461791,44.61938034 5.663673519,44.6196062 5.675925837,44.60857298 5.707620387,44.59951365 5.710187178,44.5931092 5.70529686,44.587347 5.711638469,44.58212912 5.709939563,44.57300092 5.693806394,44.56977458 5.687632337,44.57454595 5.678552129,44.57281192 5.669730211,44.57492616 5.652906093,44.56955779"/>
      <polygon id="05081 MONTCLUS" points="5.685194121,44.38325463 5.666950328,44.38389635 5.654139197,44.39379826 5.654512432,44.39720285 5.65192616,44.41412603 5.641421673,44.42087244 5.636440794,44.43399773 5.648288397,44.4384242 5.649598801,44.44170727 5.668424596,44.44127995 5.681614067,44.43759105 5.698328207,44.42165464 5.698483147,44.41225645 5.692340048,44.39961684 5.686661386,44.39379296 5.685194121,44.38325463"/>
      <polygon id="05082 MONT-DAUPHIN" points="6.624190701,44.66399827 6.620522293,44.66566855 6.620014059,44.66640617 6.619908173,44.6694738 6.621111607,44.67110166 6.624544586,44.67322423 6.629572666,44.67285203 6.629649422,44.67208347 6.630342602,44.67206071 6.630598689,44.67133132 6.629971802,44.66963957 6.625035851,44.66437611 6.624190701,44.66399827"/>
      <polygon id="05084 MONTGARDIN" points="6.223780237,44.52030617 6.207997534,44.54418255 6.211204209,44.56068534 6.224534605,44.56394575 6.252733834,44.56252377 6.250375849,44.55243895 6.261463531,44.54610216 6.260762939,44.54269906 6.240580013,44.52009321 6.223780237,44.52030617"/>
      <polygon id="05085 MONTGENEVRE" points="6.75101692,44.90550663 6.723179756,44.89217524 6.713797589,44.89372437 6.705154246,44.91011115 6.691338683,44.91392426 6.679524435,44.92448338 6.684742376,44.93380147 6.699275706,44.93540055 6.705856214,44.94049919 6.716241774,44.97788329 6.737851706,44.98922827 6.746425119,44.98618149 6.7642294,44.96647962 6.762714819,44.95621903 6.748994615,44.937862 6.757844756,44.9350932 6.750298868,44.92283716 6.75101692,44.90550663"/>
      <polygon id="05086 MONTJAY" points="5.588187073,44.33217932 5.593921324,44.34944453 5.585647173,44.36615708 5.583498182,44.38730074 5.607032648,44.38751143 5.611087766,44.38937876 5.609516845,44.396171 5.622452583,44.39989863 5.641547992,44.40016268 5.654512432,44.39720285 5.654139197,44.39379826 5.649320438,44.39363513 5.640095869,44.38573265 5.638988313,44.37544652 5.625735323,44.36099269 5.645793888,44.34265204 5.623800327,44.33521717 5.61575217,44.33240074 5.588187073,44.33217932"/>
      <polygon id="05087 MONTMAUR" points="5.90780777,44.5196462 5.905208537,44.54352382 5.893535914,44.5541721 5.880292512,44.55610393 5.864406758,44.54868909 5.859554937,44.55486845 5.861207945,44.56535631 5.849430455,44.58865011 5.820035613,44.60735799 5.805152491,44.60754768 5.815504088,44.62065271 5.827693975,44.61472927 5.842277564,44.61356237 5.854909977,44.6079938 5.892577143,44.62420253 5.900862292,44.63273283 5.905358069,44.63502008 5.934092242,44.62736932 5.93342357,44.60652268 5.904619316,44.58274427 5.913846977,44.55908795 5.915125827,44.54555046 5.923499636,44.52968124 5.921119255,44.52310508 5.90780777,44.5196462"/>
      <polygon id="05088 MONTMORIN" points="5.52982083,44.4250234 5.512935078,44.42656275 5.5202079,44.45721689 5.542548157,44.47079022 5.549713683,44.47990167 5.56043006,44.47430328 5.564686977,44.47524912 5.600464303,44.45778423 5.582728189,44.4373146 5.566364364,44.43074386 5.542684559,44.42936557 5.52982083,44.4250234"/>
      <polygon id="05089 MONTROND" points="5.743869825,44.37049457 5.741448845,44.37313995 5.731796056,44.39638409 5.740735177,44.39497296 5.750673567,44.40172369 5.755139285,44.40106259 5.754423108,44.39125363 5.758867099,44.3785683 5.743869825,44.37049457"/>
      <polygon id="05090 LA MOTTE-EN-CHAMPSAUR" points="6.189295795,44.71597731 6.159137226,44.7052642 6.145081401,44.70695299 6.134453861,44.7189405 6.1126998,44.72705965 6.097757384,44.72676699 6.078971867,44.71559633 6.06609796,44.72421561 6.055156201,44.71960784 6.047777767,44.73363207 6.076629567,44.75295311 6.076940697,44.76002625 6.09346363,44.76429629 6.102855225,44.77061998 6.112101807,44.77200047 6.120873012,44.76936606 6.143496868,44.77381723 6.165964144,44.7689066 6.175752713,44.76194075 6.178744983,44.75223186 6.187001345,44.7493185 6.193315105,44.74048666 6.190611943,44.73785247 6.19387248,44.72514398 6.189295795,44.71597731"/>
      <polygon id="05091 MOYDANS" points="5.497167272,44.38682532 5.489660466,44.39890157 5.496976915,44.41439782 5.486044257,44.42896519 5.493615332,44.42821765 5.512935078,44.42656275 5.52982083,44.4250234 5.525799736,44.40336517 5.529097434,44.40125403 5.520138719,44.39388511 5.502443571,44.39168595 5.497167272,44.38682532"/>
      <polygon id="05092 NEFFES" points="6.019615502,44.47530127 6.004124425,44.48211163 6.014748897,44.50482981 6.030038488,44.51317638 6.033998351,44.52290522 6.039214774,44.51781574 6.039973474,44.50524547 6.043867061,44.50367864 6.036434638,44.4827399 6.027587938,44.48226251 6.019615502,44.47530127"/>
      <polygon id="05093 NEVACHE" points="6.716241774,44.97788329 6.701860414,44.9751092 6.693704387,44.97871551 6.669211928,44.97607443 6.642536287,44.98531601 6.62315136,44.9844712 6.621843838,44.994888 6.611464741,45.00235496 6.597313814,45.00494965 6.583360698,45.00271416 6.579504316,44.98909352 6.549923768,44.99029415 6.53880525,45.00588916 6.519523813,45.00878114 6.503293504,45.0170083 6.495149917,45.02578136 6.498825743,45.05001812 6.487081932,45.05640707 6.488729452,45.07018093 6.481724527,45.09045341 6.510422971,45.10900257 6.525810961,45.10053125 6.535193198,45.09897213 6.558304561,45.10459066 6.563907742,45.11382135 6.576530696,45.1230972 6.589940898,45.11919595 6.613530341,45.12095738 6.629987338,45.10932693 6.627004993,45.10260082 6.644249197,45.08540809 6.647346479,45.07515745 6.660508112,45.07022781 6.662417475,45.06694717 6.661697611,45.05284657 6.668214901,45.04344715 6.665985759,45.03310093 6.67226909,45.02347458 6.675736638,45.02092641 6.725591059,45.02087253 6.739483253,45.01689103 6.743308928,45.01461705 6.748642448,45.00469339 6.750322735,44.99772307 6.73736342,44.99276007 6.737851706,44.98922827 6.716241774,44.97788329"/>
      <polygon id="05094 NOSSAGE-ET-BENEVENT" points="5.75357212,44.29501714 5.748122818,44.29979203 5.742239344,44.32257312 5.750057331,44.3254492 5.760108235,44.31876641 5.768764031,44.29975133 5.75357212,44.29501714"/>
      <polygon id="05095 LE NOYER" points="5.989518827,44.66365027 5.976551362,44.68533381 5.99181833,44.7024271 5.965579076,44.7153409 5.980582351,44.72355086 5.994681021,44.72346769 5.996803677,44.73295126 6.003816238,44.73693263 6.007930025,44.7308927 6.032821337,44.71293327 6.01232743,44.67870758 6.013342422,44.66888677 6.001015813,44.66382538 5.989518827,44.66365027"/>
      <polygon id="05096 ORCIERES" points="6.30204459,44.62575423 6.290025132,44.64636828 6.286716018,44.64871033 6.277638137,44.64758322 6.274201186,44.67184217 6.263358483,44.68324554 6.281050952,44.68689408 6.279739097,44.69386214 6.285705034,44.70344368 6.306145846,44.71287286 6.322657084,44.73012088 6.344873652,44.74404979 6.35801514,44.73353252 6.377586349,44.73355894 6.397827338,44.72353176 6.404743762,44.70707186 6.404396044,44.69672863 6.416097276,44.69031237 6.439976484,44.68582366 6.442948576,44.68299173 6.435183402,44.67931324 6.431410155,44.66278652 6.407206578,44.64715279 6.400263774,44.63836455 6.387195366,44.64288382 6.37095289,44.65999649 6.357288004,44.66204322 6.348836286,44.65856001 6.32005476,44.63119762 6.30204459,44.62575423"/>
      <polygon id="05097 ORPIERRE" points="5.718284591,44.28666383 5.71306516,44.29628579 5.705150022,44.30018263 5.700360697,44.29994914 5.695686364,44.29395743 5.68643204,44.29263492 5.678383326,44.3011624 5.665033755,44.30424288 5.660534768,44.31019708 5.673458059,44.31399953 5.67034871,44.33053914 5.664551981,44.33561537 5.679825137,44.34386367 5.692672459,44.34218088 5.700197203,44.33232314 5.704684826,44.33169947 5.715320219,44.33786824 5.719897991,44.33807036 5.727182949,44.32985584 5.742239344,44.32257312 5.748122818,44.29979203 5.75357212,44.29501714 5.718284591,44.28666383"/>
      <polygon id="05098 LES ORRES" points="6.585621522,44.44599329 6.57635402,44.44803373 6.557482342,44.44599555 6.535107706,44.45187917 6.521775167,44.44808007 6.512446422,44.44998186 6.516718177,44.45879341 6.529206117,44.46797281 6.525484584,44.49726978 6.532843475,44.50622562 6.534534832,44.52600517 6.567593337,44.53046493 6.590926705,44.52713052 6.618107519,44.51900591 6.630361665,44.50801443 6.633615909,44.49420045 6.64166954,44.48554481 6.632299693,44.44691503 6.603091595,44.44792837 6.58886423,44.44555427 6.585621522,44.44599329"/>
      <polygon id="05099 OZE" points="5.805327951,44.48764649 5.784519674,44.49463248 5.771228928,44.49563385 5.766792508,44.50141108 5.763514834,44.50361907 5.780864265,44.51343384 5.782314868,44.51936944 5.800376042,44.51747119 5.813325491,44.52241136 5.832706251,44.51217777 5.814364813,44.49905434 5.816644705,44.49303292 5.809526974,44.49212455 5.805327951,44.48764649"/>
      <polygon id="05100 PELLEAUTIER" points="6.004124425,44.48211163 5.99237371,44.49997094 5.96127579,44.50774694 5.96135606,44.51215897 5.964633496,44.51823278 5.978803861,44.52048157 6.006899574,44.52078236 6.017494165,44.52699745 6.033998351,44.52290522 6.030038488,44.51317638 6.014748897,44.50482981 6.004124425,44.48211163"/>
      <polygon id="05101 PELVOUX" points="6.533611395,44.85417422 6.513767225,44.85493971 6.494830929,44.85095967 6.478603032,44.85854423 6.467112528,44.87006084 6.462798522,44.87182672 6.457867592,44.8722238 6.448446807,44.87009271 6.432649271,44.85651494 6.419123259,44.85223746 6.397659362,44.85993503 6.382911308,44.861413 6.365299521,44.85508175 6.355364141,44.85482397 6.350469728,44.87513059 6.351997303,44.88203236 6.358550182,44.88732234 6.354660107,44.89710039 6.357945458,44.90729236 6.354169485,44.92430333 6.358172282,44.94157501 6.385317994,44.95488191 6.408209771,44.95167691 6.427266182,44.9515775 6.436915531,44.9359138 6.447807241,44.92898844 6.467747912,44.93838036 6.500822041,44.93381925 6.508959957,44.93754601 6.515890953,44.91736423 6.528913039,44.90701041 6.519973111,44.89631702 6.521025542,44.89005606 6.525119631,44.88862833 6.528782038,44.86562945 6.535739824,44.85718864 6.533611395,44.85417422"/>
      <polygon id="05102 LA PIARRE" points="5.622364981,44.4606339 5.609410065,44.46087833 5.603636603,44.46550031 5.617743714,44.47463252 5.626329066,44.49777469 5.633187804,44.5020967 5.651243928,44.49932226 5.66450414,44.50189403 5.67120559,44.4958952 5.680968404,44.48151682 5.679686523,44.47464842 5.686687733,44.46579502 5.680441173,44.46058782 5.622364981,44.4606339"/>
      <polygon id="05103 LE POET" points="5.921825464,44.24840974 5.912233149,44.24951125 5.880136607,44.27114631 5.875073919,44.2771156 5.875487956,44.2909669 5.889838224,44.30039944 5.9235323,44.30244474 5.924474446,44.29931208 5.925751719,44.29295482 5.913496011,44.2882543 5.916191976,44.28167042 5.913983898,44.26847018 5.923269679,44.2669534 5.924755515,44.2636802 5.920628818,44.25753893 5.921825464,44.24840974"/>
      <polygon id="05104 POLIGNY" points="6.033272189,44.66292732 6.02417831,44.66378001 6.01299298,44.65881488 6.001015813,44.66382538 6.013342422,44.66888677 6.01232743,44.67870758 6.032821337,44.71293327 6.05293511,44.70126242 6.059786914,44.69693776 6.065387481,44.68774608 6.046317959,44.67726318 6.033272189,44.66292732"/>
      <polygon id="05106 PRUNIERES" points="6.33482066,44.51140054 6.334732176,44.51843121 6.313096392,44.54954675 6.323323998,44.58050525 6.335584268,44.57634214 6.340758747,44.55238907 6.345957319,44.54655501 6.358265272,44.54122538 6.357196947,44.53491453 6.369381616,44.52504606 6.362000081,44.52207258 6.357373679,44.52263698 6.347638782,44.51542725 6.33482066,44.51140054"/>
      <polygon id="05107 PUY-SAINT-ANDRE" points="6.601003358,44.86283136 6.554687036,44.88906434 6.525119631,44.88862833 6.521025542,44.89005606 6.519973111,44.89631702 6.528913039,44.90701041 6.549844231,44.91070533 6.566512943,44.90337565 6.581273156,44.90514471 6.589513852,44.89262122 6.607566012,44.88074292 6.605025847,44.86922599 6.601003358,44.86283136"/>
      <polygon id="05108 PUY-SAINT-EUSEBE" points="6.413487947,44.54166635 6.404344828,44.54423754 6.393062226,44.55503741 6.39267521,44.57249405 6.391661414,44.57576006 6.399803714,44.58388968 6.430428408,44.59152997 6.434860697,44.5854179 6.413487947,44.54166635"/>
      <polygon id="05109 PUY-SAINT-PIERRE" points="6.607566012,44.88074292 6.589513852,44.89262122 6.581273156,44.90514471 6.600685004,44.91416068 6.622447935,44.90036605 6.62686231,44.89411113 6.620590331,44.88475315 6.607566012,44.88074292"/>
      <polygon id="05110 PUY-SAINT-VINCENT" points="6.495731427,44.80418552 6.456184892,44.80169477 6.42829595,44.79436928 6.413412382,44.7949909 6.405378188,44.79878861 6.41890727,44.81353871 6.436324195,44.82030877 6.455659497,44.82360996 6.46869319,44.8341255 6.483208507,44.83659045 6.513904186,44.82555549 6.516342423,44.81939497 6.512186236,44.81367782 6.495731427,44.80418552"/>
      <polygon id="05111 PUY-SANIERES" points="6.419932549,44.53387073 6.413487947,44.54166635 6.434860697,44.5854179 6.464716046,44.54636831 6.436447656,44.54131411 6.419932549,44.53387073"/>
      <polygon id="05112 RABOU" points="6.01466224,44.57325454 6.010098131,44.57440608 6.002644495,44.58710447 5.985881267,44.59312646 5.972471562,44.62934377 5.962953137,44.63714888 5.98211867,44.64094885 5.984278123,44.63407069 5.999815489,44.62540675 6.018704783,44.62595549 6.03279417,44.62263273 6.047624256,44.61344067 6.049430017,44.59948954 6.041424635,44.58666495 6.024333677,44.57474682 6.01466224,44.57325454"/>
      <polygon id="05113 RAMBAUD" points="6.136496551,44.52389457 6.124014265,44.533186 6.110983246,44.53350914 6.10849228,44.53996692 6.116299746,44.55589147 6.132580518,44.56294451 6.133397965,44.56631789 6.124499809,44.56812872 6.122253453,44.57467909 6.132293832,44.57525963 6.133780533,44.56866752 6.142142647,44.56606034 6.146175341,44.55995414 6.150092217,44.54298562 6.146684562,44.52954164 6.136496551,44.52389457"/>
      <polygon id="05114 REALLON" points="6.361036428,44.56977646 6.335584268,44.57634214 6.323323998,44.58050525 6.310795319,44.58549494 6.300757687,44.59710343 6.28838857,44.60189646 6.291404084,44.61488071 6.30204459,44.62575423 6.32005476,44.63119762 6.348836286,44.65856001 6.357288004,44.66204322 6.37095289,44.65999649 6.387195366,44.64288382 6.400263774,44.63836455 6.401476153,44.62102614 6.404307155,44.61818159 6.423494117,44.61710214 6.43566921,44.60241459 6.430428408,44.59152997 6.399803714,44.58388968 6.391661414,44.57576006 6.39267521,44.57249405 6.361036428,44.56977646"/>
      <polygon id="05115 REMOLLON" points="6.155615551,44.46196882 6.131766997,44.46814471 6.156134756,44.48388246 6.160915315,44.4838536 6.167917241,44.48618424 6.168966804,44.47976645 6.179319919,44.47389153 6.181254301,44.46757421 6.177510474,44.46162796 6.155615551,44.46196882"/>
      <polygon id="05116 REOTIER" points="6.591019889,44.65572605 6.567854571,44.66016197 6.551324557,44.67275205 6.53089703,44.68172406 6.522516115,44.6901019 6.512939013,44.69089309 6.497307987,44.6989672 6.48556639,44.70074355 6.533476078,44.69806131 6.552425438,44.7004104 6.566047623,44.69723251 6.578940708,44.69194963 6.603379443,44.68925467 6.607458972,44.67957776 6.60457694,44.6686949 6.591019889,44.65572605"/>
      <polygon id="05117 RIBEYRET" points="5.557297175,44.3872731 5.545975242,44.39161545 5.533748446,44.40159741 5.529097434,44.40125403 5.525799736,44.40336517 5.52982083,44.4250234 5.542684559,44.42936557 5.566364364,44.43074386 5.582728189,44.4373146 5.580110329,44.43090912 5.585065122,44.39768454 5.581507338,44.38798691 5.557615981,44.39071516 5.557297175,44.3872731"/>
      <path style="stroke-width:1.42995" d="m 232.71875,689.84375 -2.15625,5.4375 -11.53125,1.34375 -7.65625,4.21875 -9.15625,4 2.96875,16.40625 6.96875,4.4375 1.59375,2.34375 -2.03125,1.9375 12.84375,5.625 0.65625,16.09375 -0.65625,3.09375 1.71875,8.15625 -3.65625,3.0625 -1.25,5.4375 3.96875,3.875 11.4375,0.9375 11.96875,8.75 17.09375,4.46875 24.875,3.625 5.8125,-0.625 1.3125,-11.15625 -19.25,-6.0625 -4.53125,-10.40625 -1.96875,-5.5 -4.59375,-3.75 -1.5,-8.71875 -16.9375,-11.78125 -2.71875,-3.3125 -2.25,-11.21875 7.78125,-12.21875 0.125,-5.625 -8.15625,-8.65625 -11.125,-4.21875 z" transform="matrix(0.00165761,0,0,-0.00118015,5.4183974,45.126848)" id="05118 VAL-BUCH-MOUGE" inkscape:connector-curvature="0"/>
      <polygon id="05119 RISOUL" points="6.645187317,44.57926923 6.639740104,44.58903776 6.635326973,44.59061605 6.615640456,44.59042429 6.597961969,44.59580503 6.601862627,44.59783172 6.595278579,44.62492878 6.595484835,44.65565302 6.613250749,44.66058923 6.648245097,44.65129285 6.651352916,44.64470136 6.649713653,44.62738884 6.642677106,44.61107467 6.649899171,44.60239186 6.648255169,44.59336194 6.652474525,44.58762593 6.645187317,44.57926923"/>
      <polygon id="05120 RISTOLAS" points="6.999397841,44.78967634 7.011426373,44.78367935 7.023419536,44.7682077 7.02239766,44.75074718 7.030782787,44.73060076 7.042603244,44.7192888 7.064780188,44.71176029 7.07441258,44.69167241 7.07600345,44.68467237 7.074445446,44.68130415 7.064806691,44.68010835 7.05986783,44.6804791 7.028776955,44.69112657 7.00455373,44.68760724 6.995415432,44.69024543 6.971299913,44.70146234 6.964401731,44.71047162 6.951521057,44.71479949 6.934280993,44.72678064 6.925240734,44.73892816 6.922524391,44.76000038 6.942380095,44.77937017 6.957234668,44.78847696 6.9662577,44.79130939 6.99023411,44.78791536 6.999397841,44.78967634"/>
      <polygon id="05121 ROCHEBRUNE" points="6.162351879,44.43442385 6.156255287,44.44211231 6.155615551,44.46196882 6.177510474,44.46162796 6.212771803,44.46007399 6.232770425,44.46287668 6.240256403,44.44774599 6.226894561,44.44435419 6.191505528,44.45037627 6.173945409,44.43958598 6.162351879,44.43442385"/>
      <polygon id="05122 LA ROCHE-DE-RAME" points="6.681569861,44.77211179 6.622408069,44.74897128 6.60684976,44.73532967 6.604815588,44.7250948 6.590162162,44.71575672 6.587417644,44.7187026 6.579698707,44.73485911 6.581702598,44.74150843 6.573145025,44.75369913 6.566042961,44.76296735 6.561745264,44.76900866 6.56445457,44.77183248 6.58982151,44.78728078 6.593777727,44.78542214 6.607612892,44.78724369 6.615995587,44.79537921 6.64422065,44.79594174 6.656641604,44.79249526 6.66455328,44.79522618 6.669908668,44.78536009 6.681793274,44.77899924 6.681569861,44.77211179"/>
      <polygon id="05123 LA ROCHE-DES-ARNAUDS" points="6.012919093,44.5505275 6.004565601,44.54838589 6.000254731,44.54360235 5.991356337,44.54422227 5.976999763,44.54597079 5.961193069,44.55299038 5.913846977,44.55908795 5.904619316,44.58274427 5.93342357,44.60652268 5.934092242,44.62736932 5.962953137,44.63714888 5.972471562,44.62934377 5.985881267,44.59312646 6.002644495,44.58710447 6.010098131,44.57440608 6.01466224,44.57325454 6.012919093,44.5505275"/>
      <polygon id="05124 LA ROCHETTE" points="6.122253453,44.57467909 6.121903961,44.57815762 6.13820761,44.59546239 6.139581649,44.61266783 6.156094894,44.61451287 6.168064797,44.60889055 6.173263163,44.59929006 6.169534952,44.59712664 6.16135538,44.59405447 6.160181915,44.57446496 6.132293832,44.57525963 6.122253453,44.57467909"/>
      <polygon id="05126 ROSANS" points="5.462781849,44.36723732 5.443921515,44.36774786 5.434953501,44.36911743 5.431328213,44.37533062 5.442621501,44.38126766 5.441701839,44.391681 5.432839209,44.41166348 5.418397418,44.42477017 5.438582416,44.43355649 5.47272239,44.42093422 5.48150358,44.42287122 5.486044257,44.42896519 5.496976915,44.41439782 5.489660466,44.39890157 5.497167272,44.38682532 5.476742832,44.36895935 5.462781849,44.36723732"/>
      <polygon id="05127 ROUSSET" points="6.233524696,44.4637465 6.230038498,44.47032662 6.234141171,44.48397301 6.240744463,44.48895065 6.254783511,44.48904161 6.261604957,44.49840844 6.260447462,44.50539827 6.277908145,44.50297955 6.290033701,44.50624947 6.299438075,44.49503032 6.307300167,44.4914971 6.301040301,44.48367483 6.293492428,44.48092732 6.272061704,44.4726909 6.262168794,44.46566826 6.233524696,44.4637465"/>
      <polygon id="05128 SAINT-ANDRE-D'EMBRUN" points="6.555174947,44.55931502 6.541586965,44.56271665 6.51348434,44.56240726 6.519387237,44.58408982 6.532279978,44.59424862 6.541222047,44.61393196 6.553063062,44.62905193 6.56691846,44.63142625 6.564029092,44.62166057 6.571706805,44.60940892 6.581288199,44.60196134 6.597961969,44.59580503 6.615640456,44.59042429 6.635326973,44.59061605 6.639740104,44.58903776 6.645187317,44.57926923 6.642681552,44.57170973 6.589911843,44.56742759 6.57726443,44.57254228 6.555174947,44.55931502"/>
      <polygon id="05129 SAINT-ANDRE-DE-ROSANS" points="5.571306604,44.33347593 5.562270999,44.33456042 5.549130128,44.33058786 5.539977624,44.33242074 5.536909525,44.34208311 5.521001008,44.34923049 5.503272933,44.34426771 5.492944223,44.33713538 5.478569981,44.35104124 5.468856187,44.35134973 5.462781849,44.36723732 5.476742832,44.36895935 5.497167272,44.38682532 5.502443571,44.39168595 5.520138719,44.39388511 5.529097434,44.40125403 5.533748446,44.40159741 5.545975242,44.39161545 5.557297175,44.3872731 5.557660634,44.37724953 5.548484308,44.3695098 5.548969264,44.36605815 5.564940745,44.35361852 5.571306604,44.33347593"/>
      <polygon id="05130 SAINT-APOLLINAIRE" points="6.358265272,44.54122538 6.345957319,44.54655501 6.340758747,44.55238907 6.335584268,44.57634214 6.361036428,44.56977646 6.372685783,44.55104856 6.371164096,44.54413891 6.358265272,44.54122538"/>
      <polygon id="05131 SAINT-AUBAN-D'OZE" points="5.873135983,44.46008339 5.846249854,44.46192505 5.852250402,44.48412759 5.816644705,44.49303292 5.814364813,44.49905434 5.832706251,44.51217777 5.84388838,44.51498881 5.862073954,44.4947367 5.870141691,44.49103187 5.866077449,44.48484097 5.868100667,44.47809539 5.87548504,44.4736242 5.873135983,44.46008339"/>
      <polygon id="05133 SAINT-CHAFFREY" points="6.581273156,44.90514471 6.566512943,44.90337565 6.549844231,44.91070533 6.585305505,44.93925433 6.585643697,44.95326748 6.600873767,44.97141394 6.611039377,44.96365739 6.625003271,44.95971475 6.645938881,44.94023735 6.647102925,44.92965371 6.627835979,44.92857215 6.619554773,44.92037909 6.606261077,44.91980209 6.600685004,44.91416068 6.581273156,44.90514471"/>
      <polygon id="05134 SAINT-CLEMENT-SUR-DURANCE" points="6.597961969,44.59580503 6.581288199,44.60196134 6.571706805,44.60940892 6.564029092,44.62166057 6.56691846,44.63142625 6.565381992,44.64184846 6.557080029,44.65070424 6.546026313,44.65780921 6.519047285,44.66674572 6.508132477,44.67823097 6.499183223,44.68137116 6.497307987,44.6989672 6.512939013,44.69089309 6.522516115,44.6901019 6.53089703,44.68172406 6.551324557,44.67275205 6.567854571,44.66016197 6.591019889,44.65572605 6.595484835,44.65565302 6.595278579,44.62492878 6.601862627,44.59783172 6.597961969,44.59580503"/>
      <polygon id="05135 SAINTE-COLOMBE" points="5.646781325,44.26709148 5.645607055,44.27389247 5.632612076,44.28369723 5.632988415,44.29045193 5.64021155,44.29370104 5.633798845,44.30087985 5.660534768,44.31019708 5.665033755,44.30424288 5.678383326,44.3011624 5.68643204,44.29263492 5.695686364,44.29395743 5.700360697,44.29994914 5.705150022,44.30018263 5.71306516,44.29628579 5.718284591,44.28666383 5.675610027,44.27588578 5.646781325,44.26709148"/>
      <polygon id="05136 SAINT-CREPIN" points="6.607458972,44.67957776 6.603379443,44.68925467 6.578940708,44.69194963 6.566047623,44.69723251 6.582281039,44.70929804 6.587417644,44.7187026 6.590162162,44.71575672 6.604815588,44.7250948 6.60684976,44.73532967 6.622408069,44.74897128 6.681569861,44.77211179 6.691619379,44.76522492 6.682977009,44.72812744 6.6733924,44.72752664 6.662520251,44.72112744 6.657632343,44.70447161 6.620845229,44.68247485 6.607458972,44.67957776"/>
      <path style="stroke-width:1.42995" d="m 313.28125,307.9375 -10.9375,9.03125 -10.46875,-4.40625 -5.46875,2.03125 -4.625,7.03125 -22.625,-3.59375 -4.1875,-4.09375 -8.40625,-2.84375 1.375,14.625 -6.34375,10 -4.5625,14.09375 -5.9375,6.125 6.78125,1.5 7.6875,3.4375 2.71875,8.25 -10.0625,9.59375 -7.40625,4.3125 -6.25,18.21875 7.78125,7.15625 -1.59375,10.1875 6.8125,5 2,5.34375 7.34375,5 8.8125,1 7.625,4.71875 22.71875,-13.75 5,-7.21875 2.71875,-1.9375 17.3125,6.46875 17.4375,-8.28125 11.5625,-3.21875 L 345,409.9375 344.53125,392.5 l -7.8125,-18.375 9.21875,-14.5 -15.84375,-10.9375 -8.4375,-16.21875 -0.28125,-21.3125 -8.09375,-3.21875 z" transform="matrix(0.00165761,0,0,-0.00118015,5.4183974,45.126848)" id="05139 DVOLUY" inkscape:connector-curvature="0"/>
      <polygon id="05140 SAINT-ETIENNE-LE-LAUS" points="6.160915315,44.4838536 6.156071167,44.50392103 6.147169803,44.51565333 6.136496551,44.52389457 6.146684562,44.52954164 6.150626837,44.53089767 6.158164729,44.52785318 6.160928603,44.52143136 6.186652736,44.50708683 6.175685377,44.48892483 6.167917241,44.48618424 6.160915315,44.4838536"/>
      <polygon id="05141 SAINT-EUSEBE-EN-CHAMPSAUR" points="6.05293511,44.70126242 6.032821337,44.71293327 6.007930025,44.7308927 6.018084432,44.73782401 6.031112515,44.73492744 6.047777767,44.73363207 6.055156201,44.71960784 6.056811941,44.7103092 6.05293511,44.70126242"/>
      <polygon id="05142 SAINT-FIRMIN" points="5.984387125,44.77622582 5.980273414,44.78118367 5.977782179,44.79098997 5.986128689,44.79448638 6.000585219,44.79532129 6.014142084,44.80532369 6.022664598,44.81718283 6.056502376,44.81581377 6.062975218,44.783857 6.050024245,44.77856502 6.025559741,44.77528043 5.984387125,44.77622582"/>
      <polygon id="05144 SAINT-JACQUES-EN-VALGODEMARD" points="6.076940697,44.76002625 6.058233515,44.75809362 6.034744187,44.7614786 6.025559741,44.77528043 6.050024245,44.77856502 6.062975218,44.783857 6.091539822,44.79601126 6.102648365,44.7808522 6.102855225,44.77061998 6.09346363,44.76429629 6.076940697,44.76002625"/>
      <polygon id="05145 SAINT-JEAN-SAINT-NICOLAS" points="6.24226021,44.64212104 6.229417443,44.65189465 6.202936691,44.65880088 6.19024321,44.65423031 6.181891841,44.66459826 6.189117808,44.67314794 6.192815056,44.68646643 6.188999879,44.69269439 6.194941968,44.70569593 6.214358917,44.70410646 6.237922863,44.70939341 6.263358483,44.68324554 6.274201186,44.67184217 6.277638137,44.64758322 6.260678181,44.64241724 6.24226021,44.64212104"/>
      <polygon id="05146 SAINT-JULIEN-EN-BEAUCHENE" points="5.759662562,44.61129656 5.725247024,44.57944311 5.711638469,44.58212912 5.70529686,44.587347 5.710187178,44.5931092 5.707620387,44.59951365 5.675925837,44.60857298 5.663673519,44.6196062 5.649461791,44.61938034 5.642842233,44.62425884 5.639893129,44.63427378 5.641715477,44.65108369 5.651550901,44.65521706 5.659304762,44.65104941 5.683495085,44.64997857 5.725504982,44.64008712 5.749155498,44.65107699 5.753769298,44.66052889 5.771119531,44.65427616 5.790620212,44.6532993 5.803541077,44.64488294 5.800898846,44.63285172 5.768971492,44.61904487 5.759662562,44.61129656"/>
      <polygon id="05147 SAINT-JULIEN-EN-CHAMPSAUR" points="6.123009296,44.6482122 6.103969078,44.65609129 6.114150089,44.67494175 6.137885866,44.68689382 6.141625774,44.69687885 6.145509123,44.69516474 6.145126398,44.68221026 6.152326303,44.67862657 6.153918913,44.66940902 6.135290525,44.65979359 6.137289728,44.65035765 6.123009296,44.6482122"/>
      <polygon id="05148 SAINT-LAURENT-DU-CROS" points="6.133998731,44.61411472 6.119820266,44.61660621 6.105492227,44.614343 6.096271495,44.61686316 6.090691669,44.62253319 6.091509749,44.63307848 6.094585391,44.63968653 6.089758811,44.6494708 6.091006902,44.65979698 6.103969078,44.65609129 6.123009296,44.6482122 6.133998731,44.61411472"/>
      <polygon id="05149 SAINT-LEGER-LES-MELEZES" points="6.24226021,44.64212104 6.224602431,44.63635745 6.216909284,44.64063619 6.188326357,44.63753595 6.192532016,44.64895643 6.19024321,44.65423031 6.202936691,44.65880088 6.229417443,44.65189465 6.24226021,44.64212104"/>
      <polygon id="05150 SAINTE-MARIE" points="5.495489994,44.43880274 5.468517814,44.44639927 5.463835729,44.45205197 5.460217309,44.46858745 5.466821826,44.47351948 5.460352353,44.48613799 5.486665079,44.47939626 5.481633815,44.44818514 5.495489994,44.43880274"/>
      <polygon id="05151 SAINT-MARTIN-DE-QUEYRIERES" points="6.64422065,44.79594174 6.615995587,44.79537921 6.607612892,44.78724369 6.593777727,44.78542214 6.58982151,44.78728078 6.569886138,44.80018167 6.566252017,44.80973465 6.562067062,44.82300029 6.551760433,44.83443419 6.549763,44.84451094 6.544074464,44.84992004 6.535056996,44.85218149 6.533611395,44.85417422 6.535739824,44.85718864 6.528782038,44.86562945 6.525119631,44.88862833 6.554687036,44.88906434 6.601003358,44.86283136 6.619848948,44.84261523 6.629370394,44.82725267 6.631999759,44.81014143 6.642307992,44.80275519 6.64422065,44.79594174"/>
      <polygon id="05152 SAINT-MAURICE-EN-VALGODEMARD" points="6.165964144,44.7689066 6.143496868,44.77381723 6.120873012,44.76936606 6.112101807,44.77200047 6.102855225,44.77061998 6.102648365,44.7808522 6.091539822,44.79601126 6.062975218,44.783857 6.056502376,44.81581377 6.097321584,44.83823369 6.102978647,44.8253351 6.120155657,44.81364436 6.138052198,44.80839083 6.157847281,44.79936797 6.174422266,44.78743324 6.17553318,44.78067062 6.165964144,44.7689066"/>
      <polygon id="05153 SAINT-MICHEL-DE-CHAILLOL" points="6.15637862,44.6644104 6.153918913,44.66940902 6.152326303,44.67862657 6.145126398,44.68221026 6.145509123,44.69516474 6.141625774,44.69687885 6.145081401,44.70695299 6.159137226,44.7052642 6.189295795,44.71597731 6.189572492,44.71015772 6.194941968,44.70569593 6.188999879,44.69269439 6.192815056,44.68646643 6.189117808,44.67314794 6.181891841,44.66459826 6.15637862,44.6644104"/>
      <polygon id="05154 SAINT-PIERRE-D'ARGENCON" points="5.67120559,44.4958952 5.66450414,44.50189403 5.646326272,44.52007598 5.672470125,44.52848022 5.688632383,44.54052695 5.706734355,44.54480446 5.721175316,44.53866645 5.721627356,44.5174784 5.726337994,44.51126395 5.67120559,44.4958952"/>
      <polygon id="05155 SAINT-PIERRE-AVEZ" points="5.760472656,44.22915837 5.743522599,44.24905536 5.744814912,44.25919149 5.756104995,44.26534851 5.769329551,44.26537615 5.790636598,44.25873928 5.791731963,44.23974325 5.790637594,44.23608734 5.760472656,44.22915837"/>
      <polygon id="05156 SAINT-SAUVEUR" points="6.525484584,44.49726978 6.516048776,44.50486108 6.502959117,44.50881002 6.509614863,44.52492654 6.497027118,44.54173558 6.51348434,44.56240726 6.541586965,44.56271665 6.555174947,44.55931502 6.567593337,44.53046493 6.534534832,44.52600517 6.532843475,44.50622562 6.525484584,44.49726978"/>
      <polygon id="05157 SAINT-VERAN" points="6.948335091,44.6548163 6.939938793,44.65213229 6.915266606,44.65979639 6.907604162,44.65638989 6.826690574,44.68438581 6.822580239,44.69381175 6.826292056,44.69618014 6.82646544,44.71025317 6.840391715,44.71409719 6.869990853,44.71529232 6.896619286,44.70569546 6.91917867,44.69223397 6.952215807,44.68528034 6.963183832,44.67810918 6.958268226,44.67234495 6.957565988,44.66235544 6.948335091,44.6548163"/>
      <polygon id="05158 LE SAIX" points="5.847281339,44.43795563 5.824066256,44.44160679 5.801573194,44.45912442 5.806447997,44.46839543 5.802914678,44.4745115 5.805327951,44.48764649 5.809526974,44.49212455 5.816644705,44.49303292 5.852250402,44.48412759 5.846249854,44.46192505 5.873135983,44.46008339 5.878037365,44.45086646 5.875626675,44.4479748 5.847281339,44.43795563"/>
      <polygon id="05159 SALEON" points="5.768764031,44.29975133 5.760108235,44.31876641 5.750057331,44.3254492 5.760688418,44.33685583 5.772998076,44.34246378 5.784484743,44.33153619 5.788602916,44.31934435 5.804146901,44.31274311 5.800592628,44.30631262 5.781487393,44.30473515 5.768764031,44.29975133"/>
      <polygon id="05160 SALERANS" points="5.735433136,44.2260295 5.698598641,44.2263198 5.681132665,44.23069252 5.672644088,44.24566971 5.674252071,44.2558617 5.68665277,44.26606948 5.732614967,44.23981649 5.735433136,44.2260295"/>
      <polygon id="05161 LA SALLE-LES-ALPES" points="6.528913039,44.90701041 6.515890953,44.91736423 6.508959957,44.93754601 6.543579682,44.95085844 6.563014924,44.96169225 6.572457948,44.96982519 6.572042013,44.97684157 6.579504316,44.98909352 6.583360698,45.00271416 6.597313814,45.00494965 6.611464741,45.00235496 6.621843838,44.994888 6.62315136,44.9844712 6.611457984,44.97920941 6.598061613,44.98100474 6.600873767,44.97141394 6.585643697,44.95326748 6.585305505,44.93925433 6.549844231,44.91070533 6.528913039,44.90701041"/>
      <polygon id="05162 LA SAULCE" points="5.992139836,44.41167645 5.993772173,44.43397273 6.00788764,44.43461515 6.01319924,44.44038854 6.0132107,44.45051378 6.022412487,44.45161304 6.028838974,44.44668003 6.032485394,44.43682344 6.024752888,44.43259485 6.019295305,44.41915083 5.992139836,44.41167645"/>
      <polygon id="05163 LE SAUZE-DU-LAC" points="6.327110102,44.46345638 6.313231978,44.46644237 6.298017199,44.47479142 6.293492428,44.48092732 6.301040301,44.48367483 6.307300167,44.4914971 6.317733985,44.50219394 6.332396212,44.51000516 6.346351245,44.50007676 6.340235429,44.4798992 6.337659955,44.47081393 6.329482007,44.46890789 6.327110102,44.46345638"/>
      <polygon id="05164 SAVINES-LE-LAC" points="6.419932549,44.53387073 6.415652411,44.53225525 6.416644389,44.52887255 6.425570179,44.52069333 6.432806447,44.49719371 6.432032774,44.49378473 6.425660641,44.48876578 6.403416264,44.49520346 6.398808691,44.49415621 6.38640183,44.49865576 6.370457753,44.51037123 6.362000081,44.52207258 6.369381616,44.52504606 6.357196947,44.53491453 6.358265272,44.54122538 6.371164096,44.54413891 6.372685783,44.55104856 6.361036428,44.56977646 6.39267521,44.57249405 6.393062226,44.55503741 6.404344828,44.54423754 6.413487947,44.54166635 6.419932549,44.53387073"/>
      <polygon id="05165 SAVOURNON" points="5.83761914,44.39172552 5.805104875,44.39748594 5.786466111,44.3881503 5.776870376,44.39585083 5.778496091,44.39902543 5.762915981,44.41109099 5.761821661,44.41750464 5.746823529,44.42490543 5.745735189,44.42993163 5.77795231,44.45320989 5.778634463,44.45966913 5.801573194,44.45912442 5.824066256,44.44160679 5.847281339,44.43795563 5.845722938,44.42647499 5.839921551,44.41758102 5.83761914,44.39172552"/>
      <polygon id="05166 SERRES" points="5.729906282,44.39757488 5.725932164,44.39931265 5.704215847,44.39469617 5.692340048,44.39961684 5.698483147,44.41225645 5.698328207,44.42165464 5.681614067,44.43759105 5.693815564,44.44169788 5.70724606,44.44097236 5.710426256,44.44699208 5.714850007,44.44720743 5.716692981,44.44421663 5.729105331,44.44062221 5.745735189,44.42993163 5.746823529,44.42490543 5.738615709,44.41737258 5.737694496,44.4076857 5.730021034,44.40412023 5.729906282,44.39757488"/>
      <polygon id="05167 SIGOTTIER" points="5.681614067,44.43759105 5.668424596,44.44127995 5.649598801,44.44170727 5.626102464,44.44471068 5.62140147,44.45070414 5.622364981,44.4606339 5.680441173,44.46058782 5.686687733,44.46579502 5.679686523,44.47464842 5.680968404,44.48151682 5.704233701,44.48235377 5.714369507,44.47543923 5.73741199,44.47846343 5.737160531,44.46521971 5.726598431,44.45903221 5.725577448,44.45220287 5.716692981,44.44421663 5.714850007,44.44720743 5.710426256,44.44699208 5.70724606,44.44097236 5.693815564,44.44169788 5.681614067,44.43759105"/>
      <polygon id="05168 SIGOYER" points="5.975987034,44.45246233 5.963568345,44.46267017 5.950015818,44.46594346 5.943334063,44.46155491 5.935743133,44.45998276 5.929865243,44.46427396 5.925331733,44.47243872 5.928180392,44.47788514 5.932541015,44.47923758 5.940208065,44.49504119 5.956351887,44.50194244 5.96127579,44.50774694 5.99237371,44.49997094 6.004124425,44.48211163 6.019615502,44.47530127 6.014712148,44.46546295 6.011307115,44.46766405 5.988761899,44.46572832 5.975987034,44.45246233"/>
      <polygon id="05169 SORBIERS" points="5.586925847,44.33203788 5.571306604,44.33347593 5.564940745,44.35361852 5.548969264,44.36605815 5.548484308,44.3695098 5.557660634,44.37724953 5.557297175,44.3872731 5.557615981,44.39071516 5.581507338,44.38798691 5.583498182,44.38730074 5.585647173,44.36615708 5.593921324,44.34944453 5.588187073,44.33217932 5.586925847,44.33203788"/>
      <polygon id="05170 TALLARD" points="6.032485394,44.43682344 6.028838974,44.44668003 6.022412487,44.45161304 6.015229348,44.459359 6.014712148,44.46546295 6.019615502,44.47530127 6.027587938,44.48226251 6.036434638,44.4827399 6.034799334,44.47595631 6.052751227,44.46495637 6.060285826,44.46796354 6.069274601,44.46529922 6.076863993,44.46929473 6.081920884,44.46420756 6.074234944,44.44501726 6.071219279,44.44251586 6.056239947,44.44944573 6.032485394,44.43682344"/>
      <polygon id="05171 THEUS" points="6.212771803,44.46007399 6.177510474,44.46162796 6.181254301,44.46757421 6.179319919,44.47389153 6.168966804,44.47976645 6.167917241,44.48618424 6.175685377,44.48892483 6.186652736,44.50708683 6.193196562,44.51104194 6.201208176,44.5079987 6.219234618,44.50860919 6.222611243,44.4989423 6.214397883,44.48711819 6.212771803,44.46007399"/>
      <polygon id="05172 TRESCLEOUX" points="5.715320219,44.33786824 5.704684826,44.33169947 5.700197203,44.33232314 5.692672459,44.34218088 5.679825137,44.34386367 5.683606834,44.36037093 5.694992998,44.37117105 5.737547119,44.37113843 5.741448845,44.37313995 5.743869825,44.37049457 5.760884284,44.35323471 5.769150979,44.34515474 5.751017877,44.34368227 5.739629221,44.34955084 5.730605016,44.35009047 5.715320219,44.33786824"/>
      <polygon id="05173 UPAIX" points="5.875487956,44.2909669 5.849039162,44.30066301 5.854360588,44.32016077 5.851365285,44.32621034 5.865406135,44.33935644 5.882154154,44.34463857 5.887134452,44.35024576 5.905392601,44.34839585 5.912852739,44.34407303 5.912934734,44.33736917 5.903710623,44.33713571 5.903765182,44.32693771 5.897084489,44.31825056 5.907999193,44.31188232 5.920962622,44.31513262 5.925138758,44.31340022 5.9235323,44.30244474 5.889838224,44.30039944 5.875487956,44.2909669"/>
      <polygon id="05174 VAL-DES-PRES" points="6.713797589,44.89372437 6.7065844,44.89471357 6.687678936,44.8960823 6.68185098,44.90543324 6.669108692,44.91014535 6.658208539,44.92134787 6.648781724,44.92289277 6.647102925,44.92965371 6.645938881,44.94023735 6.625003271,44.95971475 6.611039377,44.96365739 6.600873767,44.97141394 6.598061613,44.98100474 6.611457984,44.97920941 6.62315136,44.9844712 6.642536287,44.98531601 6.669211928,44.97607443 6.693704387,44.97871551 6.701860414,44.9751092 6.716241774,44.97788329 6.705856214,44.94049919 6.699275706,44.93540055 6.684742376,44.93380147 6.679524435,44.92448338 6.691338683,44.91392426 6.705154246,44.91011115 6.713797589,44.89372437"/>
      <polygon id="05175 VALLOUISE" points="6.353424755,44.77295135 6.346343466,44.77704029 6.344265072,44.79356655 6.338295176,44.79852248 6.347607638,44.82057165 6.337463771,44.8271403 6.33016109,44.83958819 6.336319027,44.84836943 6.355364141,44.85482397 6.365299521,44.85508175 6.382911308,44.861413 6.397659362,44.85993503 6.419123259,44.85223746 6.432649271,44.85651494 6.448446807,44.87009271 6.457867592,44.8722238 6.462798522,44.87182672 6.467112528,44.87006084 6.478603032,44.85854423 6.494830929,44.85095967 6.513767225,44.85493971 6.533611395,44.85417422 6.535056996,44.85218149 6.525491712,44.836453 6.513904186,44.82555549 6.483208507,44.83659045 6.46869319,44.8341255 6.455659497,44.82360996 6.436324195,44.82030877 6.41890727,44.81353871 6.405378188,44.79878861 6.384618415,44.79180982 6.36669949,44.7761893 6.353424755,44.77295135"/>
      <polygon id="05176 VALSERRES" points="6.131766997,44.46814471 6.123765939,44.4692907 6.11531861,44.47558389 6.109716687,44.47553486 6.112215531,44.48206799 6.123297537,44.48813304 6.125725352,44.49789326 6.147169803,44.51565333 6.156071167,44.50392103 6.160915315,44.4838536 6.156134756,44.48388246 6.131766997,44.46814471"/>
      <polygon id="05177 VARS" points="6.799941932,44.6042531 6.794088658,44.59470235 6.780234286,44.59313158 6.769219397,44.58609963 6.769147119,44.57577351 6.755807974,44.57125318 6.738555309,44.55425548 6.705065668,44.5396676 6.68060016,44.54148686 6.67297821,44.54964446 6.656281572,44.55434449 6.642681552,44.57170973 6.645187317,44.57926923 6.652474525,44.58762593 6.648255169,44.59336194 6.649899171,44.60239186 6.657690072,44.60562185 6.674556938,44.63407277 6.72071436,44.6426585 6.741838603,44.62960683 6.770381349,44.63044814 6.784489502,44.61631119 6.799607674,44.60771657 6.799941932,44.6042531"/>
      <polygon id="05178 VENTAVON" points="5.912934734,44.33736917 5.912852739,44.34407303 5.905392601,44.34839585 5.887134452,44.35024576 5.881204242,44.35532839 5.884063051,44.36166688 5.85727975,44.37904768 5.854779204,44.38549894 5.83761914,44.39172552 5.839921551,44.41758102 5.845722938,44.42647499 5.851859859,44.42628023 5.870224715,44.42281259 5.910435492,44.40524575 5.922936173,44.40058177 5.919010433,44.3848861 5.941362275,44.37266179 5.937460108,44.35990282 5.926030533,44.34962329 5.917280964,44.33841595 5.912934734,44.33736917"/>
      <polygon id="05179 VEYNES" points="5.832706251,44.51217777 5.813325491,44.52241136 5.800376042,44.51747119 5.782314868,44.51936944 5.787307929,44.54732101 5.795267358,44.55619077 5.795528748,44.57393 5.807380912,44.59354636 5.805152491,44.60754768 5.820035613,44.60735799 5.849430455,44.58865011 5.861207945,44.56535631 5.859554937,44.55486845 5.864406758,44.54868909 5.842679976,44.53525212 5.844253913,44.51799709 5.84388838,44.51498881 5.832706251,44.51217777"/>
      <polygon id="05180 LES VIGNEAUX" points="6.566252017,44.80973465 6.560584059,44.80040881 6.553402742,44.80494717 6.534321934,44.80227678 6.495731427,44.80418552 6.512186236,44.81367782 6.516342423,44.81939497 6.513904186,44.82555549 6.525491712,44.836453 6.535056996,44.85218149 6.544074464,44.84992004 6.549763,44.84451094 6.551760433,44.83443419 6.562067062,44.82300029 6.566252017,44.80973465"/>
      <polygon id="05181 VILLAR-D'ARENE" points="6.358172282,44.94157501 6.330079471,44.94776438 6.323872544,44.95308682 6.328213698,44.96634821 6.315991669,44.98118613 6.316204319,44.98820887 6.322680555,44.99762204 6.318198731,45.00386577 6.328430022,45.01101283 6.325591968,45.05305672 6.361755056,45.06456046 6.380318099,45.04788478 6.406247056,45.03234139 6.412658579,45.00805532 6.403894719,44.99576093 6.411631908,44.98287083 6.411808958,44.95826242 6.408209771,44.95167691 6.385317994,44.95488191 6.358172282,44.94157501"/>
      <polygon id="05182 VILLAR-LOUBIERE" points="6.138052198,44.80839083 6.120155657,44.81364436 6.102978647,44.8253351 6.097321584,44.83823369 6.113150513,44.84553043 6.130448598,44.86251487 6.15790604,44.85828584 6.169659029,44.85239117 6.162519533,44.82234657 6.148776487,44.82290886 6.138052198,44.80839083"/>
      <polygon id="05183 VILLAR-SAINT-PANCRACE" points="6.66455328,44.79522618 6.656641604,44.79249526 6.64422065,44.79594174 6.642307992,44.80275519 6.631999759,44.81014143 6.629370394,44.82725267 6.619848948,44.84261523 6.601003358,44.86283136 6.605025847,44.86922599 6.628067377,44.88176906 6.642773617,44.88275647 6.665824275,44.86980275 6.673418636,44.86112431 6.676966546,44.84796479 6.693839796,44.83617374 6.690828676,44.83006395 6.695857751,44.81698963 6.680248089,44.80970366 6.673648606,44.7972684 6.66455328,44.79522618"/>
      <polygon id="05184 VITROLLES" points="5.953542575,44.39501766 5.937671562,44.40778331 5.919428783,44.40955666 5.941578081,44.43651393 5.931267679,44.45905694 5.926486819,44.45951731 5.929865243,44.46427396 5.935743133,44.45998276 5.943334063,44.46155491 5.955521361,44.45070705 5.958160166,44.42302601 5.977589192,44.40718845 5.971520136,44.4033708 5.953542575,44.39501766"/>
    </g>
  </g>
</svg>