<?xml version="1.0" standalone="no"?>
<!DOCTYPE svg PUBLIC "-//W3C//DTD SVG 1.1//EN" 
  "http://www.w3.org/Graphics/SVG/1.1/DTD/svg11.dtd">
<svg width="1000" height="1509" viewBox="6.757638484 47.43369912 0.38453491 0.3910828"  preserveAspectRatio="none"
     xmlns="http://www.w3.org/2000/svg" version="1.1">

<style type="text/css" >
<![CDATA[

.communes { 
	fill           : #b9b9b9;
	fill-opacity   : 1;
	stroke         : white;
	stroke-opacity : 1;
	stroke-width   : 0.002;
}

]]>
</style>

<g transform="translate(0,47.82478192) scale(1,-1) translate(0,-47.43369912)">

<g class="communes">

<polygon id="90001 ANDELNANS" points="6.863165097,47.59242378 6.848863057,47.60340444 6.840007337,47.60292126 6.838780022,47.60716114 6.839867367,47.60819776 6.884032118,47.61134096 6.88390981,47.61075925 6.884522728,47.59776151 6.863165097,47.59242378" />
<polygon id="90002 ANGEOT" points="6.983602492,47.68578778 6.967519152,47.69025529 6.978297327,47.69427775 7.000604707,47.70461027 7.027565261,47.70536965 7.038652419,47.6925859 7.03634239,47.69222411 7.009740056,47.68780468 6.996297064,47.68866177 6.983602492,47.68578778" />
<polygon id="90003 ANJOUTEY" points="6.926586585,47.69066464 6.917438519,47.68932252 6.900983863,47.69445096 6.892262409,47.69255193 6.890350615,47.69433682 6.89060197,47.70051944 6.915467873,47.70300537 6.944385218,47.72194027 6.947508539,47.72209621 6.951531807,47.72250102 6.953785675,47.71724299 6.952337628,47.71662507 6.944100368,47.70475525 6.946161104,47.69833229 6.950615134,47.69683001 6.954920001,47.69296245 6.934590557,47.69295479 6.926586585,47.69066464" />
<polygon id="90004 ARGIESANS" points="6.834110667,47.59855525 6.800826604,47.60020321 6.813070816,47.60448968 6.81545735,47.61662241 6.825917197,47.61026914 6.838780022,47.60716114 6.840007337,47.60292126 6.835899739,47.59916331 6.834110667,47.59855525" />
<polygon id="90005 AUXELLES-BAS" points="6.771582876,47.71257541 6.759074095,47.72280908 6.759587446,47.73915608 6.805164388,47.74119653 6.81300535,47.72738862 6.804279285,47.72208598 6.797837263,47.71733033 6.778768273,47.71637127 6.771582876,47.71257541" />
<polygon id="90006 AUXELLES-HAUT" points="6.759587446,47.73915608 6.757638484,47.74787797 6.774580573,47.7667326 6.783123453,47.76376255 6.791052192,47.75199919 6.799576234,47.74862294 6.805164388,47.74119653 6.759587446,47.73915608" />
<polygon id="90007 BANVILLARS" points="6.820109173,47.57549393 6.804106971,47.58304624 6.802326785,47.58965577 6.791301855,47.59628673 6.793286289,47.59927714 6.800826604,47.60020321 6.834110667,47.59855525 6.820109173,47.57549393" />
<polygon id="90008 BAVILLIERS" points="6.838780022,47.60716114 6.825917197,47.61026914 6.81545735,47.61662241 6.807038927,47.62266474 6.825899516,47.62656278 6.834881502,47.63505435 6.847257635,47.6217964 6.839867367,47.60819776 6.838780022,47.60716114" />
<polygon id="90009 BEAUCOURT" points="6.938335476,47.47315057 6.91571121,47.47824021 6.907610517,47.49455507 6.92298201,47.50015773 6.931237135,47.49775226 6.934826006,47.48851005 6.942672334,47.48491878 6.938335476,47.47315057" />
<polygon id="90010 BELFORT" points="6.847257635,47.6217964 6.834881502,47.63505435 6.827050003,47.64575575 6.818382731,47.64650812 6.825859383,47.65053483 6.835183663,47.64982342 6.834269471,47.65602634 6.810634847,47.65266372 6.798230393,47.65021126 6.791296787,47.65491521 6.791983901,47.65820004 6.807669446,47.66604319 6.830833137,47.67075571 6.8356077,47.66202011 6.850137419,47.66095628 6.875782107,47.65059162 6.894142437,47.65472999 6.888013852,47.64622876 6.876891234,47.63264831 6.878617945,47.62962604 6.847257635,47.6217964" />
<polygon id="90011 BERMONT" points="6.854561166,47.56662776 6.848328032,47.57178127 6.834629877,47.56851069 6.821724383,47.57331421 6.821011293,47.57432889 6.839960497,47.57634684 6.845088018,47.58171119 6.859036179,47.58488227 6.861168875,47.58232436 6.854561166,47.56662776" />
<polygon id="90012 BESSONCOURT" points="6.966211682,47.63701941 6.941111406,47.63567958 6.910617842,47.63858866 6.909512949,47.64497913 6.926223345,47.65567443 6.939485158,47.6517491 6.969952155,47.65466457 6.973642465,47.64261572 6.970711835,47.63674925 6.966211682,47.63701941" />
<polygon id="90013 BETHONVILLIERS" points="6.9736752,47.67365295 6.965021572,47.67122533 6.962208167,47.67376309 6.957817014,47.68919646 6.967519152,47.69025529 6.976734501,47.67817211 6.9736752,47.67365295" />
<polygon id="90014 BORON" points="7.028221308,47.54158503 7.026314327,47.54436389 7.012892799,47.54449341 6.994920985,47.54821141 6.992580764,47.55430321 6.997505299,47.55997476 7.002019603,47.56424518 7.009341018,47.56704896 7.021613649,47.56396737 7.028870402,47.5600755 7.039594618,47.54623865 7.028221308,47.54158503" />
<polygon id="90015 BOTANS" points="6.859315676,47.58874817 6.850065547,47.58793642 6.835965338,47.59599801 6.835899739,47.59916331 6.840007337,47.60292126 6.848863057,47.60340444 6.863165097,47.59242378 6.859315676,47.58874817" />
<polygon id="90016 BOURG-SOUS-CHATELET" points="6.950615134,47.69683001 6.946161104,47.69833229 6.944100368,47.70475525 6.952337628,47.71662507 6.950615134,47.69683001" />
<polygon id="90017 BOUROGNE" points="6.907028281,47.54227803 6.903906811,47.5483759 6.889827069,47.5500724 6.883473649,47.55533116 6.874259178,47.56631725 6.884482616,47.58091922 6.896408871,47.5815397 6.910010144,47.58229207 6.921865974,47.57813578 6.937452703,47.5668045 6.933722622,47.56118045 6.939164699,47.55625606 6.930331465,47.5574375 6.927671222,47.55149781 6.91545185,47.54606891 6.907028281,47.54227803" />
<polygon id="90018 BREBOTTE" points="6.966974088,47.56553323 6.962329251,47.56610579 6.955491451,47.57428712 6.961750605,47.58235717 6.974897287,47.58789416 6.984396668,47.58897597 6.996463928,47.58324553 6.993236802,47.58070634 6.985764388,47.58070965 6.966974088,47.56553323" />
<polygon id="90019 BRETAGNE" points="6.993236802,47.58070634 6.996463928,47.58324553 6.984396668,47.58897597 6.974897287,47.58789416 6.979612805,47.59521383 7.009212608,47.59939147 7.017367446,47.59691176 7.019561318,47.58853533 7.018850996,47.58706367 7.008935723,47.58187107 6.993236802,47.58070634" />
<polygon id="90020 BUC" points="6.789340941,47.60469512 6.788234464,47.60487524 6.785643004,47.6113575 6.777867776,47.61541232 6.780404772,47.62526071 6.791076892,47.62687903 6.799247849,47.62350438 6.796971323,47.61343153 6.789340941,47.60469512" />
<polygon id="90021 CHARMOIS" points="6.956558297,47.58059577 6.942506972,47.56654355 6.937452703,47.5668045 6.921865974,47.57813578 6.950595959,47.5932622 6.951816734,47.59409506 6.956558297,47.58059577" />
<polygon id="90022 CHATENOIS-LES-FORGES" points="6.830636167,47.54643654 6.816660002,47.54792248 6.807005332,47.56280138 6.809822859,47.56870218 6.821724383,47.57331421 6.834629877,47.56851069 6.848328032,47.57178127 6.854561166,47.56662776 6.860620173,47.55742418 6.855715416,47.54794358 6.830636167,47.54643654" />
<polygon id="90023 CHAUX" points="6.861438132,47.69965728 6.852642824,47.69728015 6.829093386,47.69816221 6.827268324,47.70787304 6.81611979,47.71382443 6.812822509,47.71998748 6.804279285,47.72208598 6.81300535,47.72738862 6.834528599,47.73082997 6.842464703,47.71994525 6.860122607,47.71465968 6.872207592,47.6992469 6.861438132,47.69965728" />
<polygon id="90024 CHAVANATTE" points="7.057815138,47.5693194 7.055401336,47.57664096 7.064239406,47.58338151 7.066853418,47.59286235 7.085388397,47.59305277 7.086425005,47.58553544 7.078712144,47.57735103 7.057815138,47.5693194" />
<polygon id="90025 CHAVANNES-LES-GRANDS" points="7.055401336,47.57664096 7.03966504,47.58219851 7.033121723,47.57810779 7.029336326,47.58301554 7.018850996,47.58706367 7.019561318,47.58853533 7.02463594,47.58922554 7.025416561,47.5926866 7.04311582,47.59996973 7.074027787,47.5988761 7.074360039,47.5988645 7.078390891,47.59685789 7.085388397,47.59305277 7.066853418,47.59286235 7.064239406,47.58338151 7.055401336,47.57664096" />
<polygon id="90026 CHEVREMONT" points="6.949415025,47.61493197 6.940362767,47.6177885 6.920455712,47.61733251 6.913382523,47.62157132 6.90373768,47.61983059 6.894176386,47.62178122 6.910617842,47.63858866 6.941111406,47.63567958 6.966211682,47.63701941 6.963041633,47.62970991 6.953549861,47.6273822 6.947991508,47.62163125 6.949415025,47.61493197" />
<polygon id="90027 COURCELLES" points="7.096725883,47.49513764 7.078799684,47.48906099 7.036238152,47.49899923 7.081745787,47.50831901 7.09159886,47.50773883 7.096725883,47.49513764" />
<polygon id="90028 COURTELEVANT" points="7.09159886,47.50773883 7.081745787,47.50831901 7.074388151,47.51319164 7.075632092,47.5340414 7.066592751,47.54205473 7.08111476,47.54396256 7.082275792,47.53772964 7.102392316,47.53189426 7.09159886,47.50773883" />
<polygon id="90029 CRAVANCHE" points="6.818382731,47.64650812 6.810634847,47.65266372 6.834269471,47.65602634 6.835183663,47.64982342 6.825859383,47.65053483 6.818382731,47.64650812" />
<polygon id="90030 CROIX" points="6.939179002,47.43369912 6.934316548,47.43856856 6.934951055,47.44701934 6.93231619,47.455824 6.93596615,47.45576365 6.945131099,47.45336216 6.959802158,47.45463022 6.97125737,47.44908415 6.970282899,47.44705339 6.96257144,47.43531982 6.939179002,47.43369912" />
<polygon id="90031 CUNELIERES" points="7.005052613,47.61959665 6.984830082,47.62208248 6.978121315,47.62775491 6.990811467,47.63182792 7.000024171,47.63075549 7.006659418,47.62643617 7.005052613,47.61959665" />
<polygon id="90032 DANJOUTIN" points="6.839867367,47.60819776 6.847257635,47.6217964 6.878617945,47.62962604 6.890233265,47.62236333 6.884032118,47.61134096 6.839867367,47.60819776" />
<polygon id="90033 DELLE" points="6.982897327,47.49425677 6.974025516,47.49781368 6.963940778,47.49632786 6.969874117,47.51104214 6.98861106,47.5166569 6.998521529,47.52446486 7.01970586,47.5200493 7.026514037,47.51169318 7.024394387,47.50421334 6.982897327,47.49425677" />
<polygon id="90034 DENNEY" points="6.909512949,47.64497913 6.896652702,47.65002315 6.888013852,47.64622876 6.894142437,47.65472999 6.896091109,47.65821566 6.896203966,47.66140209 6.909030624,47.66495673 6.923665058,47.6598789 6.926223345,47.65567443 6.909512949,47.64497913" />
<polygon id="90035 DORANS" points="6.821011293,47.57432889 6.820109173,47.57549393 6.834110667,47.59855525 6.835899739,47.59916331 6.835965338,47.59599801 6.850065547,47.58793642 6.859315676,47.58874817 6.859036179,47.58488227 6.845088018,47.58171119 6.839960497,47.57634684 6.821011293,47.57432889" />
<polygon id="90036 EGUENIGUE" points="6.927590524,47.66373026 6.926586585,47.69066464 6.934590557,47.69295479 6.943661975,47.68567374 6.936610887,47.67676436 6.938377774,47.66654825 6.927590524,47.66373026" />
<polygon id="90037 ELOIE" points="6.885056848,47.67391226 6.863457991,47.67799892 6.853628984,47.68397376 6.861438132,47.69965728 6.872207592,47.6992469 6.890350615,47.69433682 6.892262409,47.69255193 6.88533916,47.68034624 6.885056848,47.67391226" />
<polygon id="90039 ESSERT" points="6.807038927,47.62266474 6.799247849,47.62350438 6.791076892,47.62687903 6.799867701,47.63763217 6.798334591,47.64399905 6.790703722,47.64788763 6.798230393,47.65021126 6.810634847,47.65266372 6.818382731,47.64650812 6.827050003,47.64575575 6.834881502,47.63505435 6.825899516,47.62656278 6.807038927,47.62266474" />
<polygon id="90041 ETUEFFONT" points="6.89060197,47.70051944 6.895573306,47.71318639 6.907897686,47.71846141 6.897527701,47.73824541 6.889603882,47.74936792 6.922592828,47.7469958 6.944385218,47.72194027 6.915467873,47.70300537 6.89060197,47.70051944" />
<polygon id="90042 EVETTE-SALBERT" points="6.790703722,47.64788763 6.787491134,47.65165947 6.780909469,47.6566397 6.777237035,47.66598599 6.778644824,47.67587073 6.780151228,47.68977117 6.797362965,47.6906459 6.811420021,47.68024885 6.829613108,47.67364332 6.830833137,47.67075571 6.807669446,47.66604319 6.791983901,47.65820004 6.791296787,47.65491521 6.798230393,47.65021126 6.790703722,47.64788763" />
<polygon id="90043 FAVEROIS" points="7.026514037,47.51169318 7.01970586,47.5200493 7.028221308,47.54158503 7.039594618,47.54623865 7.050653943,47.5395274 7.050968169,47.52225596 7.045877436,47.51617766 7.026514037,47.51169318" />
<polygon id="90044 FELON" points="6.978297327,47.69427775 6.957103595,47.71319253 6.966325919,47.71097845 6.98420939,47.71621012 6.991980119,47.71423273 6.993838544,47.70803198 7.000604707,47.70461027 6.978297327,47.69427775" />
<polygon id="90045 FECHE-L'EGLISE" points="6.952446415,47.48493878 6.94912545,47.48570044 6.944812956,47.49825741 6.948765616,47.5072985 6.945008017,47.51333826 6.958024373,47.5155734 6.969874117,47.51104214 6.963940778,47.49632786 6.952446415,47.48493878" />
<polygon id="90046 FLORIMONT" points="7.036238152,47.49899923 7.024394387,47.50421334 7.026514037,47.51169318 7.045877436,47.51617766 7.050968169,47.52225596 7.050653943,47.5395274 7.039594618,47.54623865 7.028870402,47.5600755 7.021613649,47.56396737 7.033121723,47.57810779 7.03966504,47.58219851 7.055401336,47.57664096 7.057815138,47.5693194 7.051108694,47.55991757 7.066592751,47.54205473 7.075632092,47.5340414 7.074388151,47.51319164 7.081745787,47.50831901 7.036238152,47.49899923" />
<polygon id="90047 FONTAINE" points="7.01656687,47.64504921 7.007348947,47.64519474 7.004109414,47.65089365 6.994968249,47.65100851 6.971255628,47.65515197 6.97103412,47.65790825 6.971930146,47.66814275 7.0091784,47.66863654 7.009772324,47.66784108 7.021292636,47.66314603 7.019805335,47.65067877 7.01656687,47.64504921" />
<polygon id="90048 FONTENELLE" points="6.950142696,47.61251906 6.949415025,47.61493197 6.947991508,47.62163125 6.953549861,47.6273822 6.963041633,47.62970991 6.963545397,47.61567852 6.950142696,47.61251906" />
<polygon id="90049 FOUSSEMAGNE" points="7.006659418,47.62643617 7.000024171,47.63075549 6.990811467,47.63182792 6.978121315,47.62775491 6.974370405,47.62876592 6.972313907,47.63677586 6.991319608,47.64111144 6.994968249,47.65100851 7.004109414,47.65089365 7.007348947,47.64519474 7.01656687,47.64504921 7.013694806,47.62957417 7.010525077,47.63015179 7.006659418,47.62643617" />
<polygon id="90050 FRAIS" points="6.970711835,47.63674925 6.973642465,47.64261572 6.969952155,47.65466457 6.971255628,47.65515197 6.994968249,47.65100851 6.991319608,47.64111144 6.972313907,47.63677586 6.970711835,47.63674925" />
<polygon id="90051 FROIDEFONTAINE" points="6.95462829,47.55454272 6.939164699,47.55625606 6.933722622,47.56118045 6.937452703,47.5668045 6.942506972,47.56654355 6.956558297,47.58059577 6.961750605,47.58235717 6.955491451,47.57428712 6.962329251,47.56610579 6.966974088,47.56553323 6.980783772,47.5637556 6.985003694,47.55945651 6.95462829,47.55454272" />
<polygon id="90052 GIROMAGNY" points="6.81300535,47.72738862 6.805164388,47.74119653 6.799576234,47.74862294 6.81447469,47.74789482 6.834526664,47.75750287 6.839853892,47.73540413 6.834528599,47.73082997 6.81300535,47.72738862" />
<polygon id="90053 GRANDVILLARS" points="6.945008017,47.51333826 6.937579623,47.51742008 6.938916884,47.52148466 6.943538143,47.52280638 6.943011556,47.53280128 6.94902677,47.53820343 6.95462829,47.55454272 6.985003694,47.55945651 6.993687879,47.56180905 6.997505299,47.55997476 6.992580764,47.55430321 6.994920985,47.54821141 7.012892799,47.54449341 6.988563483,47.53313427 6.983079098,47.52401155 6.958024373,47.5155734 6.945008017,47.51333826" />
<polygon id="90054 GROSMAGNY" points="6.890350615,47.69433682 6.872207592,47.6992469 6.860122607,47.71465968 6.865282881,47.72798823 6.88385245,47.73372601 6.888313551,47.75072648 6.889603882,47.74936792 6.897527701,47.73824541 6.891943079,47.72252611 6.895573306,47.71318639 6.89060197,47.70051944 6.890350615,47.69433682" />
<polygon id="90055 GROSNE" points="6.985003694,47.55945651 6.980783772,47.5637556 6.986143395,47.57169296 6.985764388,47.58070965 6.993236802,47.58070634 7.008935723,47.58187107 7.002019603,47.56424518 6.997505299,47.55997476 6.993687879,47.56180905 6.985003694,47.55945651" />
<polygon id="90056 JONCHEREY" points="7.01970586,47.5200493 6.998521529,47.52446486 6.988563483,47.53313427 7.012892799,47.54449341 7.026314327,47.54436389 7.028221308,47.54158503 7.01970586,47.5200493" />
<polygon id="90057 LACHAPELLE-SOUS-CHAUX" points="6.780151228,47.68977117 6.778815929,47.69615812 6.770078561,47.70339676 6.771582876,47.71257541 6.778768273,47.71637127 6.797837263,47.71733033 6.804279285,47.72208598 6.812822509,47.71998748 6.81611979,47.71382443 6.827268324,47.70787304 6.829093386,47.69816221 6.797362965,47.6906459 6.780151228,47.68977117" />
<polygon id="90058 LACHAPELLE-SOUS-ROUGEMONT" points="7.000604707,47.70461027 6.993838544,47.70803198 6.991980119,47.71423273 7.032078755,47.72618578 7.037417878,47.72155846 7.027565261,47.70536965 7.000604707,47.70461027" />
<polygon id="90059 LACOLLONGE" points="6.97103412,47.65790825 6.957280407,47.65753701 6.954133827,47.66654761 6.946049116,47.66312608 6.941307723,47.66377283 6.940545618,47.66699783 6.972100448,47.66935361 6.971930146,47.66814275 6.97103412,47.65790825" />
<polygon id="90060 LAGRANGE" points="6.976734501,47.67817211 6.967519152,47.69025529 6.983602492,47.68578778 6.983860752,47.68031756 6.976734501,47.67817211" />
<polygon id="90061 LAMADELEINE-VAL-DES-ANGES" points="6.922592828,47.7469958 6.889603882,47.74936792 6.888313551,47.75072648 6.889718435,47.7545907 6.89680737,47.76343827 6.905285012,47.76658898 6.902091833,47.77644576 6.907545837,47.77771464 6.922358322,47.7720917 6.923451893,47.77006351 6.922592828,47.7469958" />
<polygon id="90062 LARIVIERE" points="6.971930146,47.66814275 6.972100448,47.66935361 6.9736752,47.67365295 6.976734501,47.67817211 6.983860752,47.68031756 6.983602492,47.68578778 6.996297064,47.68866177 7.009740056,47.68780468 7.004999842,47.67836909 7.01628188,47.67313306 7.0091784,47.66863654 6.971930146,47.66814275" />
<polygon id="90063 LEBETAIN" points="6.988495837,47.47303738 6.952446415,47.48493878 6.963940778,47.49632786 6.974025516,47.49781368 6.982897327,47.49425677 6.988581011,47.48558982 6.988495837,47.47303738" />
<polygon id="90064 LEPUIX-NEUF" points="7.102392316,47.53189426 7.082275792,47.53772964 7.08111476,47.54396256 7.086859049,47.54961997 7.106215653,47.55133709 7.118775765,47.54760384 7.131576554,47.5402912 7.132778505,47.53965366 7.121392842,47.53390063 7.102392316,47.53189426" />
<polygon id="90065 LEPUIX" points="6.834526664,47.75750287 6.81447469,47.74789482 6.799576234,47.74862294 6.791052192,47.75199919 6.783123453,47.76376255 6.774580573,47.7667326 6.786246042,47.78228664 6.813623072,47.79790567 6.824671511,47.80964675 6.823538855,47.81305372 6.837407903,47.82301659 6.841830417,47.82478192 6.846179818,47.8229452 6.84299099,47.8136336 6.848836049,47.80808024 6.849117862,47.80125876 6.8649595,47.78460727 6.855516135,47.77330344 6.842297865,47.76925965 6.834526664,47.75750287" />
<polygon id="90066 LEVAL" points="6.981741411,47.71856524 6.968100242,47.72672523 6.998425443,47.74582514 7.011684723,47.74163113 7.015777827,47.74346432 7.020600787,47.73443967 6.981741411,47.71856524" />
<polygon id="90067 MENONCOURT" points="6.938377774,47.66654825 6.936610887,47.67676436 6.943661975,47.68567374 6.934590557,47.69295479 6.954920001,47.69296245 6.957817014,47.68919646 6.962208167,47.67376309 6.965021572,47.67122533 6.9736752,47.67365295 6.972100448,47.66935361 6.940545618,47.66699783 6.938377774,47.66654825" />
<polygon id="90068 MEROUX" points="6.921865974,47.57813578 6.910010144,47.58229207 6.896408871,47.5815397 6.887699992,47.58961686 6.878316943,47.59156946 6.884522728,47.59776151 6.88390981,47.61075925 6.924302245,47.59642096 6.939623157,47.59423719 6.944163006,47.59599439 6.950595959,47.5932622 6.921865974,47.57813578" />
<polygon id="90069 MEZIRE" points="6.937579623,47.51742008 6.934611512,47.51776374 6.925321817,47.51952824 6.907885212,47.52706326 6.915928365,47.53041619 6.907028281,47.54227803 6.91545185,47.54606891 6.927299579,47.54083047 6.933639702,47.53221684 6.934262228,47.52241707 6.938916884,47.52148466 6.937579623,47.51742008" />
<polygon id="90070 MONTBOUTON" points="6.93231619,47.455824 6.919362823,47.46820319 6.90734381,47.47288848 6.91571121,47.47824021 6.938335476,47.47315057 6.93596615,47.45576365 6.93231619,47.455824" />
<polygon id="90071 MONTREUX-CHATEAU" points="6.979612805,47.59521383 6.977902976,47.59622749 6.98091595,47.59821562 6.978805987,47.60655215 6.987494056,47.61616937 6.984830082,47.62208248 7.005052613,47.61959665 7.01001395,47.60473553 7.009212608,47.59939147 6.979612805,47.59521383" />
<polygon id="90072 MORVILLARS" points="6.938916884,47.52148466 6.934262228,47.52241707 6.933639702,47.53221684 6.927299579,47.54083047 6.91545185,47.54606891 6.927671222,47.55149781 6.930331465,47.5574375 6.939164699,47.55625606 6.95462829,47.55454272 6.94902677,47.53820343 6.943011556,47.53280128 6.943538143,47.52280638 6.938916884,47.52148466" />
<polygon id="90073 MOVAL" points="6.884482616,47.58091922 6.877833582,47.5849166 6.878316943,47.59156946 6.887699992,47.58961686 6.896408871,47.5815397 6.884482616,47.58091922" />
<polygon id="90074 NOVILLARD" points="6.950595959,47.5932622 6.944163006,47.59599439 6.943836558,47.60491868 6.950142696,47.61251906 6.963545397,47.61567852 6.978805987,47.60655215 6.98091595,47.59821562 6.977902976,47.59622749 6.964186502,47.59991195 6.949313385,47.59987571 6.951816734,47.59409506 6.950595959,47.5932622" />
<polygon id="90075 OFFEMONT" points="6.894142437,47.65472999 6.875782107,47.65059162 6.850137419,47.66095628 6.855086468,47.66077499 6.865196509,47.66811876 6.863457991,47.67799892 6.885056848,47.67391226 6.883259815,47.66774491 6.896091109,47.65821566 6.894142437,47.65472999" />
<polygon id="90076 PEROUSE" points="6.894176386,47.62178122 6.890233265,47.62236333 6.878617945,47.62962604 6.876891234,47.63264831 6.888013852,47.64622876 6.896652702,47.65002315 6.909512949,47.64497913 6.910617842,47.63858866 6.894176386,47.62178122" />
<polygon id="90077 PETIT-CROIX" points="6.978805987,47.60655215 6.963545397,47.61567852 6.963041633,47.62970991 6.966211682,47.63701941 6.970711835,47.63674925 6.972313907,47.63677586 6.974370405,47.62876592 6.978121315,47.62775491 6.984830082,47.62208248 6.987494056,47.61616937 6.978805987,47.60655215" />
<polygon id="90078 PETITEFONTAINE" points="6.991980119,47.71423273 6.98420939,47.71621012 6.981741411,47.71856524 7.020600787,47.73443967 7.032078755,47.72618578 6.991980119,47.71423273" />
<polygon id="90079 PETITMAGNY" points="6.895573306,47.71318639 6.891943079,47.72252611 6.897527701,47.73824541 6.907897686,47.71846141 6.895573306,47.71318639" />
<polygon id="90080 PHAFFANS" points="6.969952155,47.65466457 6.939485158,47.6517491 6.926223345,47.65567443 6.923665058,47.6598789 6.927590524,47.66373026 6.938377774,47.66654825 6.940545618,47.66699783 6.941307723,47.66377283 6.946049116,47.66312608 6.954133827,47.66654761 6.957280407,47.65753701 6.97103412,47.65790825 6.971255628,47.65515197 6.969952155,47.65466457" />
<polygon id="90081 RECHESY" points="7.096725883,47.49513764 7.09159886,47.50773883 7.102392316,47.53189426 7.121392842,47.53390063 7.132778505,47.53965366 7.137885354,47.53065687 7.142173394,47.52502403 7.136616982,47.50825737 7.130345969,47.50302658 7.110619367,47.49490023 7.096725883,47.49513764" />
<polygon id="90082 AUTRECHENE" points="6.956558297,47.58059577 6.951816734,47.59409506 6.949313385,47.59987571 6.964186502,47.59991195 6.977902976,47.59622749 6.979612805,47.59521383 6.974897287,47.58789416 6.961750605,47.58235717 6.956558297,47.58059577" />
<polygon id="90083 RECOUVRANCE" points="6.980783772,47.5637556 6.966974088,47.56553323 6.985764388,47.58070965 6.986143395,47.57169296 6.980783772,47.5637556" />
<polygon id="90084 REPPE" points="7.019805335,47.65067877 7.021292636,47.66314603 7.009772324,47.66784108 7.037637451,47.67514566 7.04166015,47.67241091 7.045281827,47.67037486 7.035236654,47.65965483 7.039244102,47.65039545 7.019805335,47.65067877" />
<polygon id="90085 RIERVESCEMONT" points="6.889718435,47.7545907 6.860620148,47.75467137 6.861524742,47.76437358 6.855516135,47.77330344 6.8649595,47.78460727 6.891696237,47.7783418 6.902091833,47.77644576 6.905285012,47.76658898 6.89680737,47.76343827 6.889718435,47.7545907" />
<polygon id="90086 ROMAGNY-SOUS-ROUGEMONT" points="6.98420939,47.71621012 6.966325919,47.71097845 6.957103595,47.71319253 6.953785675,47.71724299 6.951531807,47.72250102 6.947508539,47.72209621 6.968100242,47.72672523 6.981741411,47.71856524 6.98420939,47.71621012" />
<polygon id="90087 ROPPE" points="6.923665058,47.6598789 6.909030624,47.66495673 6.905552996,47.67084066 6.88533916,47.68034624 6.892262409,47.69255193 6.900983863,47.69445096 6.917438519,47.68932252 6.926586585,47.69066464 6.927590524,47.66373026 6.923665058,47.6598789" />
<polygon id="90088 ROUGEGOUTTE" points="6.860122607,47.71465968 6.842464703,47.71994525 6.834528599,47.73082997 6.839853892,47.73540413 6.844747215,47.7345405 6.857676074,47.73968372 6.868444163,47.75053811 6.888313551,47.75072648 6.88385245,47.73372601 6.865282881,47.72798823 6.860122607,47.71465968" />
<polygon id="90089 ROUGEMONT-LE-CHATEAU" points="6.944385218,47.72194027 6.922592828,47.7469958 6.923451893,47.77006351 6.938450418,47.77115477 6.974351884,47.75160206 6.998425443,47.74582514 6.968100242,47.72672523 6.947508539,47.72209621 6.944385218,47.72194027" />
<polygon id="90090 SAINT-DIZIER-L'EVEQUE" points="6.97125737,47.44908415 6.959802158,47.45463022 6.945131099,47.45336216 6.93596615,47.45576365 6.938335476,47.47315057 6.942672334,47.48491878 6.945373343,47.48728778 6.94912545,47.48570044 6.952446415,47.48493878 6.988495837,47.47303738 6.992032496,47.47179846 6.991763913,47.46641775 6.97125737,47.44908415" />
<polygon id="90091 SAINT-GERMAIN-LE-CHATELET" points="6.957817014,47.68919646 6.954920001,47.69296245 6.950615134,47.69683001 6.952337628,47.71662507 6.953785675,47.71724299 6.957103595,47.71319253 6.978297327,47.69427775 6.967519152,47.69025529 6.957817014,47.68919646" />
<polygon id="90093 SERMAMAGNY" points="6.829613108,47.67364332 6.811420021,47.68024885 6.797362965,47.6906459 6.829093386,47.69816221 6.852642824,47.69728015 6.861438132,47.69965728 6.853628984,47.68397376 6.829613108,47.67364332" />
<polygon id="90094 SEVENANS" points="6.877833582,47.5849166 6.870122417,47.58181126 6.861168875,47.58232436 6.859036179,47.58488227 6.859315676,47.58874817 6.863165097,47.59242378 6.884522728,47.59776151 6.878316943,47.59156946 6.877833582,47.5849166" />
<polygon id="90095 SUARCE" points="7.066592751,47.54205473 7.051108694,47.55991757 7.057815138,47.5693194 7.078712144,47.57735103 7.086425005,47.58553544 7.088896966,47.58371823 7.094360711,47.57349463 7.105093449,47.56791642 7.10753178,47.55858266 7.106215653,47.55133709 7.086859049,47.54961997 7.08111476,47.54396256 7.066592751,47.54205473" />
<polygon id="90096 THIANCOURT" points="6.969874117,47.51104214 6.958024373,47.5155734 6.983079098,47.52401155 6.988563483,47.53313427 6.998521529,47.52446486 6.98861106,47.5166569 6.969874117,47.51104214" />
<polygon id="90097 TREVENANS" points="6.859880181,47.54755337 6.855715416,47.54794358 6.860620173,47.55742418 6.854561166,47.56662776 6.861168875,47.58232436 6.870122417,47.58181126 6.877833582,47.5849166 6.884482616,47.58091922 6.874259178,47.56631725 6.883473649,47.55533116 6.859880181,47.54755337" />
<polygon id="90098 URCEREY" points="6.793286289,47.59927714 6.789340941,47.60469512 6.796971323,47.61343153 6.799247849,47.62350438 6.807038927,47.62266474 6.81545735,47.61662241 6.813070816,47.60448968 6.800826604,47.60020321 6.793286289,47.59927714" />
<polygon id="90099 VALDOIE" points="6.863457991,47.67799892 6.865196509,47.66811876 6.855086468,47.66077499 6.850137419,47.66095628 6.8356077,47.66202011 6.830833137,47.67075571 6.829613108,47.67364332 6.853628984,47.68397376 6.863457991,47.67799892" />
<polygon id="90100 VAUTHIERMONT" points="7.009772324,47.66784108 7.0091784,47.66863654 7.01628188,47.67313306 7.004999842,47.67836909 7.009740056,47.68780468 7.03634239,47.69222411 7.038634268,47.68794508 7.045745547,47.68333697 7.037637451,47.67514566 7.009772324,47.66784108" />
<polygon id="90101 VELLESCOT" points="7.002019603,47.56424518 7.008935723,47.58187107 7.018850996,47.58706367 7.029336326,47.58301554 7.033121723,47.57810779 7.021613649,47.56396737 7.009341018,47.56704896 7.002019603,47.56424518" />
<polygon id="90102 VESCEMONT" points="6.888313551,47.75072648 6.868444163,47.75053811 6.857676074,47.73968372 6.844747215,47.7345405 6.839853892,47.73540413 6.834526664,47.75750287 6.842297865,47.76925965 6.855516135,47.77330344 6.861524742,47.76437358 6.860620148,47.75467137 6.889718435,47.7545907 6.888313551,47.75072648" />
<polygon id="90103 VETRIGNE" points="6.896091109,47.65821566 6.883259815,47.66774491 6.885056848,47.67391226 6.88533916,47.68034624 6.905552996,47.67084066 6.909030624,47.66495673 6.896203966,47.66140209 6.896091109,47.65821566" />
<polygon id="90104 VEZELOIS" points="6.944163006,47.59599439 6.939623157,47.59423719 6.924302245,47.59642096 6.88390981,47.61075925 6.884032118,47.61134096 6.890233265,47.62236333 6.894176386,47.62178122 6.90373768,47.61983059 6.913382523,47.62157132 6.920455712,47.61733251 6.940362767,47.6177885 6.949415025,47.61493197 6.950142696,47.61251906 6.943836558,47.60491868 6.944163006,47.59599439" />
<polygon id="90105 VILLARS-LE-SEC" points="6.970282899,47.44705339 6.97125737,47.44908415 6.991763913,47.46641775 7.000036284,47.464349 6.998209289,47.45163992 6.989852574,47.44809622 6.970282899,47.44705339" />

</g>

</g>

</svg>
