<?xml version="1.0" encoding="UTF-8" standalone="no"?>
<!DOCTYPE svg PUBLIC "-//W3C//DTD SVG 1.1//EN" "http://www.w3.org/Graphics/SVG/1.1/DTD/svg11.dtd">
<svg width="1000" height="663" viewBox="4.230283393 43.16237075 1.582965007 0.761697720000001" preserveAspectRatio="none" xmlns="http://www.w3.org/2000/svg" version="1.1">

<style type="text/css">
<![CDATA[

.communes { 
	fill           : #b9b9b9;
	fill-opacity   : 1;
	stroke         : white;
	stroke-opacity : 1;
	stroke-width   : 0.002;
}

]]>
</style>

<g transform="translate(0,43.92406847) scale(1,-1) translate(0,-43.16237075)">

<g class="communes">

<polygon id="13001 AIX-EN-PROVENCE" points="5.301002589,43.44611494 5.298483448,43.45912014 5.28991503,43.46642097 5.289305153,43.4731393 5.271657923,43.48567938 5.269571894,43.49546178 5.291801364,43.51281586 5.294161903,43.51958865 5.306781275,43.51504557 5.334287056,43.51929069 5.348502224,43.5363111 5.353078151,43.53535685 5.360388535,43.53952767 5.373639465,43.54159697 5.381736685,43.56438222 5.357502582,43.58858517 5.334503639,43.59279961 5.340577666,43.59779077 5.356852471,43.60320891 5.366322666,43.61837801 5.365338312,43.62485374 5.411258166,43.62267424 5.444232052,43.62208155 5.463795498,43.61364583 5.465090468,43.5763212 5.49395358,43.5666511 5.497470022,43.56040395 5.480426898,43.53639098 5.48311428,43.533584 5.506303023,43.53221365 5.504571303,43.52910304 5.487468484,43.52441959 5.478661524,43.52501725 5.479509201,43.51255771 5.471441,43.51188672 5.464782978,43.50343285 5.465253761,43.49711218 5.470883562,43.49202427 5.469146868,43.48901238 5.457415026,43.47890948 5.441786112,43.47152167 5.433593645,43.47360516 5.406891414,43.47051997 5.387538063,43.46190211 5.359356414,43.47977391 5.33281396,43.48758501 5.321151375,43.48164277 5.327507844,43.46126385 5.301002589,43.44611494"/>
<polygon id="13002 ALLAUCH" points="5.475104149,43.31472951 5.466645383,43.32300501 5.454958468,43.33572731 5.46701569,43.3405831 5.474362157,43.34912765 5.473298655,43.36916905 5.479809344,43.38541918 5.504459492,43.38809186 5.511005713,43.38368281 5.544677016,43.39079016 5.556982761,43.38023905 5.565693818,43.35667558 5.547567037,43.34258587 5.548464102,43.33582327 5.522810628,43.32076399 5.513749391,43.32159608 5.497810576,43.31535028 5.475104149,43.31472951"/>
<polygon id="13003 ALLEINS" points="5.126043776,43.69055717 5.121901819,43.69226729 5.121974436,43.70259958 5.116587734,43.70825842 5.122397971,43.7130241 5.12748359,43.72631923 5.125327904,43.72943991 5.165974894,43.71940295 5.182516275,43.71248323 5.194168701,43.70145581 5.190653705,43.69584656 5.166772486,43.69653181 5.150131452,43.69014679 5.138216908,43.69364915 5.126043776,43.69055717"/>
<polygon id="13004 ARLES" points="4.847295123,43.32685546 4.837510714,43.3273101 4.81315723,43.33913096 4.771315285,43.34914643 4.727216126,43.35015643 4.663818333,43.34644405 4.592026333,43.35717007 4.567408802,43.36879482 4.557846287,43.38096312 4.561891575,43.38729341 4.597237274,43.40590777 4.619713341,43.41912539 4.615625783,43.44017977 4.621123364,43.46786734 4.622713652,43.47124506 4.640349315,43.48350597 4.64238231,43.48675077 4.641710762,43.49742464 4.63375326,43.51406691 4.64191509,43.53443465 4.629066695,43.54938696 4.62715544,43.55267335 4.623491867,43.57014185 4.619617745,43.57233255 4.614742227,43.57193719 4.576644008,43.56606258 4.553502488,43.57161568 4.534031022,43.57107357 4.507747261,43.5797479 4.491116695,43.55808281 4.477385737,43.55632677 4.464599864,43.56151241 4.448892699,43.58343771 4.460868398,43.58945967 4.474191859,43.60398433 4.473624223,43.61081346 4.466132084,43.61521646 4.44800976,43.61026689 4.43852519,43.61135578 4.428526839,43.61918201 4.426920997,43.62583555 4.45153276,43.66433321 4.477648395,43.67280116 4.476470045,43.68673969 4.486420575,43.69885293 4.500285913,43.7020556 4.524687988,43.70255346 4.537796965,43.70704 4.559585498,43.69939494 4.578783392,43.6969671 4.598219802,43.68669332 4.622166808,43.68706791 4.626823132,43.6881324 4.626948583,43.69167656 4.614312799,43.71072004 4.612276031,43.72475458 4.628118266,43.75771229 4.636749741,43.75992307 4.644367228,43.74454349 4.662401581,43.74011146 4.679766571,43.72861238 4.654387276,43.71280037 4.66566416,43.70718319 4.670068559,43.6973954 4.683981952,43.69596594 4.70157611,43.70112843 4.754170158,43.69443403 4.758629523,43.69584712 4.759537095,43.6926823 4.777478396,43.68404726 4.767427936,43.66459925 4.764072114,43.63613212 4.753182478,43.62892825 4.75094169,43.62574237 4.75101813,43.62215914 4.760788197,43.60586435 4.761687597,43.59159398 4.76334217,43.5882192 4.770758441,43.57898174 4.785979385,43.5700387 4.816204958,43.54184513 4.876394281,43.49452692 4.855716954,43.46746166 4.838138835,43.46256862 4.824615114,43.47284023 4.815981041,43.4698175 4.800971967,43.47782519 4.772659181,43.47739191 4.764341586,43.47373897 4.749735121,43.45950532 4.734852309,43.42972451 4.754321421,43.40938887 4.832235562,43.36686663 4.83544784,43.34226437 4.847295123,43.32685546"/>
<polygon id="13005 AUBAGNE" points="5.519641387,43.24432787 5.513050392,43.26344425 5.514442579,43.26769584 5.523500739,43.2672686 5.531211247,43.27037322 5.530406754,43.28039119 5.518421011,43.28801535 5.530284973,43.29867347 5.522810628,43.32076399 5.548464102,43.33582327 5.566388688,43.33517435 5.609636724,43.32383341 5.607022027,43.29301534 5.615348245,43.27012396 5.599100457,43.26489093 5.586624498,43.26681046 5.579558119,43.27018354 5.570903432,43.2675098 5.545090741,43.25331597 5.547209049,43.24663304 5.519641387,43.24432787"/>
<polygon id="13006 AUREILLE" points="4.964676595,43.72037801 4.964064469,43.66128866 4.937445484,43.66897577 4.930881578,43.68540196 4.926397667,43.68668756 4.923020805,43.70063566 4.92854664,43.71404832 4.917468713,43.73750276 4.953529602,43.72831961 4.956967641,43.72286617 4.964676595,43.72037801"/>
<polygon id="13007 AURIOL" points="5.669163667,43.31940985 5.661102586,43.31703432 5.646837984,43.32316308 5.649166785,43.32608534 5.643613366,43.3353752 5.632472925,43.34119155 5.609583543,43.36621987 5.608309703,43.3765028 5.618332109,43.3836147 5.62303302,43.39252911 5.649470628,43.38686244 5.670408547,43.40002104 5.679466624,43.40154351 5.682787816,43.39916586 5.689275103,43.38978732 5.694175171,43.36552361 5.703628185,43.3540091 5.688144712,43.3410012 5.689950466,43.33081202 5.682961103,43.32184962 5.669163667,43.31940985"/>
<polygon id="13008 AURONS" points="5.181133808,43.65761925 5.151947477,43.65098175 5.139214802,43.6539334 5.143190572,43.66311745 5.132320997,43.66890296 5.11579364,43.68508611 5.126043776,43.69055717 5.138216908,43.69364915 5.150131452,43.69014679 5.154724625,43.6773728 5.176174994,43.67036564 5.182376135,43.66126691 5.181133808,43.65761925"/>
<polygon id="13009 LA BARBEN" points="5.254210624,43.59208341 5.196349782,43.60109084 5.197297119,43.60803857 5.192737905,43.61417948 5.16854921,43.62549333 5.16806104,43.62896853 5.17969884,43.63488361 5.182699702,43.64143935 5.186978582,43.63988613 5.214467643,43.64433438 5.233914248,43.62933611 5.241471945,43.60932345 5.250763654,43.60776314 5.259035634,43.61114699 5.254210624,43.59208341"/>
<polygon id="13010 BARBENTANE" points="4.734466063,43.85771045 4.728694202,43.86593925 4.72880067,43.87932263 4.717418137,43.88566829 4.709324699,43.89801929 4.704636927,43.89736346 4.705445568,43.89943017 4.722586202,43.90598426 4.735505941,43.91650961 4.739061131,43.92406847 4.773596497,43.91964241 4.776746213,43.91401013 4.790618752,43.91085799 4.781511874,43.89115824 4.767501474,43.87725354 4.739257625,43.85819226 4.734466063,43.85771045"/>
<polygon id="13011 LES BAUX-DE-PROVENCE" points="4.76682504,43.72909748 4.773471955,43.74613581 4.770319156,43.76021038 4.77991678,43.7613411 4.79023372,43.76877783 4.795090808,43.76879691 4.806001552,43.76188386 4.832538273,43.75324974 4.832309831,43.74650287 4.84169978,43.73927873 4.839190452,43.73266048 4.825920368,43.72913949 4.797430478,43.73019862 4.779427118,43.73281654 4.76682504,43.72909748"/>
<polygon id="13012 BEAURECUEIL" points="5.562057387,43.50426584 5.549683299,43.50020065 5.536934269,43.5044064 5.531688747,43.50548316 5.533346339,43.51194368 5.527835682,43.51713122 5.531213088,43.52303862 5.526203847,43.52840343 5.525884278,43.53801582 5.533925074,43.53964672 5.545340032,43.53475256 5.552123146,43.53870711 5.561070359,43.53872134 5.570435024,43.5367265 5.563027958,43.52408296 5.558385935,43.52346338 5.556385327,43.51325745 5.562057387,43.50426584"/>
<polygon id="13013 BELCODENE" points="5.581787884,43.40503323 5.577486166,43.40353352 5.561498087,43.41016877 5.563416434,43.41637019 5.558263048,43.42155073 5.558717796,43.43399773 5.563185781,43.43309098 5.587469542,43.44271221 5.604584028,43.43162631 5.610457365,43.41189784 5.607988025,43.40917594 5.581787884,43.40503323"/>
<polygon id="13014 BERRE-L'ETANG" points="5.202793616,43.49117759 5.164655324,43.47048004 5.156478427,43.45839385 5.147580214,43.45799455 5.124684499,43.48435708 5.113704984,43.50745921 5.11807196,43.51321521 5.121720167,43.52292732 5.129695676,43.52686625 5.139253825,43.52676821 5.162482445,43.53920555 5.176794971,43.53979246 5.201573947,43.53517924 5.200927189,43.52927889 5.206463452,43.52462109 5.204410374,43.51463612 5.194571836,43.50313491 5.202793616,43.49117759"/>
<polygon id="13015 BOUC-BEL-AIR" points="5.379292738,43.41464082 5.374872798,43.42003016 5.391705798,43.43554587 5.387538063,43.46190211 5.406891414,43.47051997 5.433593645,43.47360516 5.441786112,43.47152167 5.447993368,43.46665606 5.445024815,43.44741584 5.417183204,43.43458431 5.418527725,43.42778572 5.414667586,43.42173335 5.392716709,43.41649617 5.379292738,43.41464082"/>
<polygon id="13016 LA BOUILLADISSE" points="5.608309703,43.3765028 5.603807069,43.38499127 5.595185861,43.39140913 5.586710813,43.39288116 5.581787884,43.40503323 5.607988025,43.40917594 5.610457365,43.41189784 5.628149298,43.40969657 5.63906669,43.40410217 5.646949124,43.40047119 5.670408547,43.40002104 5.649470628,43.38686244 5.62303302,43.39252911 5.618332109,43.3836147 5.608309703,43.3765028"/>
<polygon id="13017 BOULBON" points="4.728694202,43.86593925 4.721771137,43.86121499 4.721091251,43.85433974 4.700329586,43.84636617 4.691117245,43.84480816 4.668114476,43.84754762 4.672117922,43.86024996 4.662423952,43.87083046 4.667886807,43.87639088 4.693608489,43.88522116 4.709324699,43.89801929 4.717418137,43.88566829 4.72880067,43.87932263 4.728694202,43.86593925"/>
<polygon id="13018 CABANNES" points="4.991826627,43.83832722 4.978319794,43.8354314 4.970890787,43.84430671 4.937823398,43.84847288 4.931870657,43.85341243 4.923490951,43.86500182 4.923418643,43.8683968 4.933955464,43.87494401 4.930503384,43.88436717 4.969653154,43.86974155 4.991499893,43.85071986 4.997651289,43.84485512 4.991826627,43.83832722"/>
<polygon id="13019 CABRIES" points="5.374872798,43.42003016 5.343942567,43.41974997 5.310818748,43.43155029 5.301002589,43.44611494 5.327507844,43.46126385 5.321151375,43.48164277 5.33281396,43.48758501 5.359356414,43.47977391 5.387538063,43.46190211 5.391705798,43.43554587 5.374872798,43.42003016"/>
<polygon id="13020 CADOLIVE" points="5.544677016,43.39079016 5.511005713,43.38368281 5.504459492,43.38809186 5.537132592,43.40275854 5.555925172,43.40506182 5.553747819,43.39856043 5.544677016,43.39079016"/>
<polygon id="13021 CARRY-LE-ROUET" points="5.184769523,43.33248757 5.176592353,43.3333724 5.165858263,43.32790038 5.148116609,43.32649943 5.135188055,43.32922125 5.135715886,43.34213368 5.140808193,43.34777455 5.131490871,43.36624519 5.138715554,43.36448274 5.14766955,43.36213653 5.16937443,43.34860933 5.184769523,43.33248757"/>
<polygon id="13022 CASSIS" points="5.555549394,43.18837832 5.549442165,43.19379658 5.547380893,43.20757872 5.539121651,43.21113025 5.517207093,43.20658587 5.510186059,43.1979029 5.517008195,43.21415917 5.507343888,43.22962054 5.512890483,43.23461242 5.522210649,43.23551105 5.52409595,43.23865292 5.519641387,43.24432787 5.547209049,43.24663304 5.554795315,43.24863181 5.578854747,43.23489283 5.586290734,43.23876496 5.594329816,43.23631307 5.590013541,43.2350397 5.587957275,43.228438 5.592460222,43.21880798 5.578418059,43.20500561 5.565660334,43.20030586 5.555549394,43.18837832"/>
<polygon id="13023 CEYRESTE" points="5.678383424,43.21672784 5.666256718,43.20621891 5.656960856,43.20553919 5.648477035,43.20860978 5.637513495,43.2029383 5.626565915,43.20919933 5.617128067,43.20945564 5.592460222,43.21880798 5.587957275,43.228438 5.590013541,43.2350397 5.594329816,43.23631307 5.631240023,43.24183694 5.658739053,43.23614109 5.682416265,43.23545637 5.678383424,43.21672784"/>
<polygon id="13024 CHARLEVAL" points="5.268872104,43.71982721 5.250084121,43.69655111 5.236864912,43.69544641 5.228684633,43.70298678 5.226148389,43.70700851 5.225082035,43.72778875 5.245553742,43.747137 5.264102861,43.74423229 5.262273255,43.73155926 5.268872104,43.71982721"/>
<polygon id="13025 CHATEAUNEUF-LE-ROUGE" points="5.583715346,43.47601757 5.532697563,43.48291961 5.536934269,43.5044064 5.549683299,43.50020065 5.562057387,43.50426584 5.600755412,43.50212039 5.602594432,43.48538683 5.594881551,43.481863 5.585370868,43.48204523 5.583715346,43.47601757"/>
<polygon id="13026 CHATEAUNEUF-LES-MARTIGUES" points="5.102989366,43.36233022 5.099896816,43.38204485 5.10303441,43.38856252 5.096382025,43.40140783 5.115037757,43.40425785 5.12760892,43.40006972 5.137129057,43.40051219 5.17191579,43.41863853 5.18546783,43.40551408 5.188784395,43.39599729 5.196082554,43.39254656 5.195503533,43.38254159 5.186291136,43.37551935 5.184370126,43.3655326 5.170810997,43.36382558 5.143988555,43.36928308 5.138715554,43.36448274 5.131490871,43.36624519 5.102989366,43.36233022"/>
<polygon id="13027 CHATEAURENARD" points="4.80507557,43.85417973 4.79102205,43.852287 4.788022147,43.85500063 4.797250014,43.86639793 4.801056863,43.87980152 4.815037865,43.88897667 4.818427464,43.89535649 4.811893953,43.90404379 4.810973564,43.91427609 4.854805286,43.91079487 4.881334788,43.90156413 4.878758157,43.87018303 4.881857597,43.86002067 4.843187439,43.8602757 4.80507557,43.85417973"/>
<polygon id="13028 LA CIOTAT" points="5.671875006,43.17926879 5.64604603,43.18805044 5.622600831,43.18556304 5.612853537,43.1780778 5.610538381,43.16793723 5.604779203,43.16237075 5.570419671,43.17457064 5.555549394,43.18837832 5.565660334,43.20030586 5.578418059,43.20500561 5.592460222,43.21880798 5.617128067,43.20945564 5.626565915,43.20919933 5.637513495,43.2029383 5.648477035,43.20860978 5.656960856,43.20553919 5.666256718,43.20621891 5.678383424,43.21672784 5.675955986,43.19064263 5.671875006,43.17926879"/>
<polygon id="13029 CORNILLON-CONFOUX" points="5.107575615,43.55510066 5.10279175,43.55558946 5.092038553,43.56717394 5.087282215,43.56776952 5.082473955,43.56761884 5.074768368,43.55888286 5.066000487,43.55598093 5.062624253,43.55845725 5.057389732,43.57159827 5.047579248,43.57905614 5.043679443,43.59227042 5.062268015,43.5922971 5.084889643,43.59800374 5.089270866,43.59656044 5.102549372,43.58783449 5.099751321,43.58141711 5.107575615,43.55510066"/>
<polygon id="13030 CUGES-LES-PINS" points="5.701219547,43.24715621 5.668477074,43.25878892 5.661514677,43.2672322 5.656949045,43.26704758 5.678740004,43.29734581 5.694846755,43.30420909 5.696332281,43.30751139 5.691040376,43.31296284 5.726601266,43.31736435 5.736998662,43.30189868 5.751394797,43.28823852 5.762793877,43.28235798 5.760929376,43.26734699 5.738250936,43.26210077 5.701219547,43.24715621"/>
<polygon id="13031 LA DESTROUSSE" points="5.58757935,43.36662236 5.595185861,43.39140913 5.603807069,43.38499127 5.608309703,43.3765028 5.609583543,43.36621987 5.600926609,43.36821953 5.58757935,43.36662236"/>
<polygon id="13032 EGUILLES" points="5.334503639,43.59279961 5.357502582,43.58858517 5.381736685,43.56438222 5.373639465,43.54159697 5.360388535,43.53952767 5.353078151,43.53535685 5.348502224,43.5363111 5.344872025,43.53861291 5.341570802,43.55202406 5.327397091,43.55377812 5.304569711,43.56597579 5.278507023,43.57488804 5.265193815,43.57447351 5.255847483,43.58142797 5.251573532,43.58642233 5.254210624,43.59208341 5.282107811,43.58916047 5.310069237,43.59097269 5.321798025,43.59619549 5.334503639,43.59279961"/>
<polygon id="13033 ENSUES-LA-REDONNE" points="5.237172268,43.33172217 5.224131847,43.32828339 5.184769523,43.33248757 5.16937443,43.34860933 5.14766955,43.36213653 5.138715554,43.36448274 5.143988555,43.36928308 5.170810997,43.36382558 5.184370126,43.3655326 5.186291136,43.37551935 5.195503533,43.38254159 5.198352419,43.37636397 5.214271143,43.38189827 5.229446982,43.3643432 5.230760717,43.35399351 5.236507868,43.34859207 5.234068121,43.3419648 5.237172268,43.33172217"/>
<polygon id="13034 EYGALIERES" points="4.953529602,43.72831961 4.917468713,43.73750276 4.924111738,43.75674714 4.916800535,43.76537324 4.913415161,43.78224722 4.925729227,43.78562185 4.924172483,43.79917854 4.949983114,43.78745891 4.966811929,43.79193631 4.968207256,43.79095695 4.98086438,43.78076288 4.997719047,43.74896791 4.953529602,43.72831961"/>
<polygon id="13035 EYGUIERES" points="5.072756456,43.68381735 5.058479244,43.67412415 5.000035671,43.64826583 4.968797828,43.65832281 4.982402593,43.68032585 4.98109665,43.71465269 4.964676595,43.72037801 4.956967641,43.72286617 4.953529602,43.72831961 4.997719047,43.74896791 5.018044111,43.74997039 5.026988481,43.75218068 5.044428792,43.74607569 5.063175327,43.72154405 5.05447305,43.723914 5.054618354,43.71724121 5.072756456,43.68381735"/>
<polygon id="13036 EYRAGUES" points="4.868541568,43.82984212 4.86688266,43.826639 4.848424044,43.82372192 4.816337629,43.82458515 4.812735512,43.83723801 4.804018156,43.83723852 4.801581266,43.84001522 4.802048835,43.84656053 4.80507557,43.85417973 4.843187439,43.8602757 4.881857597,43.86002067 4.881691065,43.84703412 4.868541568,43.82984212"/>
<polygon id="13037 LA FARE-LES-OLIVIERS" points="5.201573947,43.53517924 5.176794971,43.53979246 5.17686552,43.56025874 5.184366269,43.56872189 5.210173473,43.57346516 5.226183354,43.56650433 5.233571581,43.54736954 5.220642885,43.54551964 5.216555727,43.53965365 5.207565395,43.54009793 5.201573947,43.53517924"/>
<polygon id="13038 FONTVIEILLE" points="4.758629523,43.69584712 4.754170158,43.69443403 4.70157611,43.70112843 4.683981952,43.69596594 4.670068559,43.6973954 4.66566416,43.70718319 4.654387276,43.71280037 4.679766571,43.72861238 4.697513401,43.73273836 4.711562693,43.73268043 4.73338876,43.75415276 4.748743139,43.75964981 4.770319156,43.76021038 4.773471955,43.74613581 4.76682504,43.72909748 4.751832779,43.71616288 4.758629523,43.69584712"/>
<polygon id="13039 FOS-SUR-MER" points="4.972215251,43.42186522 4.965423926,43.42654231 4.931712427,43.43343923 4.909260696,43.4266919 4.908711942,43.41871034 4.889403176,43.41042785 4.88604528,43.41342905 4.894452847,43.42358623 4.904133214,43.428456 4.887640735,43.42707082 4.883923969,43.41914436 4.872547846,43.4330022 4.868188789,43.43224055 4.861341607,43.4434993 4.861736036,43.45568641 4.851784052,43.45123134 4.877923228,43.41231034 4.86614807,43.40472983 4.82947275,43.4301656 4.823490722,43.42375124 4.859112499,43.40127831 4.853912606,43.39846984 4.841118662,43.4036015 4.816414637,43.4186148 4.818731198,43.42511811 4.840745617,43.44751378 4.841644825,43.45090917 4.829756312,43.45655503 4.829334688,43.45999982 4.838138835,43.46256862 4.855716954,43.46746166 4.876394281,43.49452692 4.914637496,43.50850089 4.928669801,43.51065522 4.95612239,43.48563029 4.962223328,43.47607041 4.975898881,43.47413008 4.979820179,43.46419493 4.975823601,43.45108352 4.980825101,43.44530453 4.980415345,43.43268581 4.972215251,43.42186522"/>
<polygon id="13040 FUVEAU" points="5.587469542,43.44271221 5.563185781,43.43309098 5.558717796,43.43399773 5.548320774,43.44075977 5.529480122,43.44014819 5.496141958,43.46325346 5.532697563,43.48291961 5.583715346,43.47601757 5.590243083,43.46781428 5.600263908,43.46885255 5.611258096,43.46355626 5.61024781,43.460358 5.590984443,43.4521788 5.587469542,43.44271221"/>
<polygon id="13041 GARDANNE" points="5.529480122,43.44014819 5.518349478,43.42912907 5.499996085,43.42854615 5.48650507,43.43158401 5.464344419,43.43006527 5.449875536,43.43861133 5.445024815,43.44741584 5.447993368,43.46665606 5.441786112,43.47152167 5.457415026,43.47890948 5.469146868,43.48901238 5.477881947,43.48601367 5.484401763,43.46953607 5.496141958,43.46325346 5.529480122,43.44014819"/>
<polygon id="13042 GEMENOS" points="5.656949045,43.26704758 5.615348245,43.27012396 5.607022027,43.29301534 5.609636724,43.32383341 5.623048098,43.32297781 5.634922593,43.32761252 5.646837984,43.32316308 5.661102586,43.31703432 5.669163667,43.31940985 5.681720625,43.31903608 5.691040376,43.31296284 5.696332281,43.30751139 5.694846755,43.30420909 5.678740004,43.29734581 5.656949045,43.26704758"/>
<polygon id="13043 GIGNAC-LA-NERTHE" points="5.214271143,43.38189827 5.198352419,43.37636397 5.195503533,43.38254159 5.196082554,43.39254656 5.263912285,43.40201225 5.265085208,43.40107871 5.271310376,43.39117425 5.252925086,43.39251245 5.228539332,43.38201041 5.214271143,43.38189827"/>
<polygon id="13044 GRANS" points="5.043679443,43.59227042 5.038842898,43.5920733 5.016298866,43.60528394 5.006725231,43.60637025 4.988599994,43.61804425 5.009306599,43.62702405 5.013487517,43.64058284 5.018358222,43.64093355 5.049889566,43.63126163 5.083115671,43.62521131 5.096092716,43.59887723 5.089270866,43.59656044 5.084889643,43.59800374 5.062268015,43.5922971 5.043679443,43.59227042"/>
<polygon id="13045 GRAVESON" points="4.750163775,43.81746724 4.747069655,43.8154736 4.732037252,43.81986294 4.739900916,43.83193432 4.741521513,43.8418638 4.734466063,43.85771045 4.739257625,43.85819226 4.767501474,43.87725354 4.781511874,43.89115824 4.801056863,43.87980152 4.797250014,43.86639793 4.788022147,43.85500063 4.79102205,43.852287 4.80507557,43.85417973 4.802048835,43.84656053 4.792346004,43.84690941 4.771937996,43.83855653 4.766674048,43.82878553 4.754170945,43.82368565 4.750163775,43.81746724"/>
<polygon id="13046 GREASQUE" points="5.559443327,43.40755303 5.546355854,43.41562957 5.533233701,43.41654943 5.535253368,43.42539527 5.529480122,43.44014819 5.548320774,43.44075977 5.558717796,43.43399773 5.558263048,43.42155073 5.563416434,43.41637019 5.561498087,43.41016877 5.559443327,43.40755303"/>
<polygon id="13047 ISTRES" points="5.006007553,43.46967121 5.001471386,43.46892709 4.988078264,43.47826325 4.975898881,43.47413008 4.962223328,43.47607041 4.95612239,43.48563029 4.928669801,43.51065522 4.88181209,43.54144735 4.889743434,43.55426037 4.883109645,43.57837863 4.885631238,43.58881099 4.918347456,43.61481597 4.922604443,43.61653181 4.94102958,43.6210375 4.945895913,43.62095947 4.954549372,43.61276673 4.978382127,43.61633164 4.980134685,43.60609311 4.970716306,43.59909999 5.004219401,43.56549147 5.004160333,43.55210014 5.00977467,43.55623546 5.014453179,43.55554572 5.015529553,43.52768811 5.002876951,43.51318035 4.998849824,43.5029947 5.003366064,43.48216671 5.000633769,43.47539535 5.006007553,43.46967121"/>
<polygon id="13048 JOUQUES" points="5.669315086,43.56464115 5.647848373,43.56975819 5.64121506,43.57816608 5.632309555,43.58028188 5.628294002,43.58642885 5.613951813,43.59430114 5.605791284,43.60225743 5.602701764,43.61225234 5.606717136,43.6463484 5.610755049,43.65252649 5.606943519,43.65868591 5.623852159,43.66614776 5.641422405,43.67198851 5.657153862,43.68544319 5.673112701,43.69350629 5.682821364,43.69282612 5.700435732,43.68139709 5.719581055,43.65689897 5.718973209,43.64983758 5.709944128,43.64165404 5.700600492,43.64252583 5.680884027,43.61088225 5.689607319,43.58737624 5.687576538,43.58421253 5.656919589,43.57528019 5.669315086,43.56464115"/>
<polygon id="13049 LAMANON" points="5.072756456,43.68381735 5.054618354,43.71724121 5.05447305,43.723914 5.063175327,43.72154405 5.071100567,43.72962091 5.09846327,43.72396601 5.116587734,43.70825842 5.121974436,43.70259958 5.121901819,43.69226729 5.126043776,43.69055717 5.11579364,43.68508611 5.113160204,43.68800874 5.106030863,43.68370932 5.072756456,43.68381735"/>
<polygon id="13050 LAMBESC" points="5.259035634,43.61114699 5.250763654,43.60776314 5.241471945,43.60932345 5.233914248,43.62933611 5.214467643,43.64433438 5.186978582,43.63988613 5.182699702,43.64143935 5.181133808,43.65761925 5.182376135,43.66126691 5.19174562,43.66213163 5.206373967,43.67526614 5.223319462,43.68016904 5.212534843,43.69060587 5.228684633,43.70298678 5.236864912,43.69544641 5.250084121,43.69655111 5.268872104,43.71982721 5.276976212,43.69639672 5.288421111,43.69001725 5.297969468,43.69053613 5.301317786,43.68803481 5.308820256,43.65380358 5.317471724,43.63810941 5.298886045,43.64196975 5.281081954,43.63687183 5.270404154,43.62982213 5.259035634,43.61114699"/>
<polygon id="13051 LANCON-PROVENCE" points="5.121720167,43.52292732 5.107575615,43.55510066 5.099751321,43.58141711 5.102549372,43.58783449 5.089270866,43.59656044 5.096092716,43.59887723 5.10427065,43.5996552 5.127066438,43.60985933 5.130944349,43.61554397 5.129974962,43.62213373 5.138550603,43.61985005 5.141424032,43.61318669 5.165112729,43.61028693 5.196349782,43.60109084 5.254210624,43.59208341 5.251573532,43.58642233 5.255847483,43.58142797 5.246698273,43.57449775 5.226183354,43.56650433 5.210173473,43.57346516 5.184366269,43.56872189 5.17686552,43.56025874 5.176794971,43.53979246 5.162482445,43.53920555 5.139253825,43.52676821 5.129695676,43.52686625 5.121720167,43.52292732"/>
<polygon id="13052 MAILLANE" points="4.764507156,43.79846873 4.750163775,43.81746724 4.754170945,43.82368565 4.766674048,43.82878553 4.771937996,43.83855653 4.792346004,43.84690941 4.802048835,43.84656053 4.801581266,43.84001522 4.804018156,43.83723852 4.812735512,43.83723801 4.816337629,43.82458515 4.813488025,43.81784559 4.803138333,43.81053719 4.771918288,43.80302907 4.764507156,43.79846873"/>
<polygon id="13053 MALLEMORT" points="5.226148389,43.70700851 5.207078347,43.69773805 5.194168701,43.70145581 5.182516275,43.71248323 5.165974894,43.71940295 5.125327904,43.72943991 5.123783723,43.75875277 5.138787818,43.752797 5.186262028,43.73550676 5.236377582,43.74746988 5.245553742,43.747137 5.225082035,43.72778875 5.226148389,43.70700851"/>
<polygon id="13054 MARIGNANE" points="5.196082554,43.39254656 5.188784395,43.39599729 5.18546783,43.40551408 5.17191579,43.41863853 5.19860737,43.43959201 5.200040886,43.446394 5.211921276,43.44567511 5.220468078,43.44916337 5.239020714,43.423086 5.230193468,43.42153111 5.227194562,43.41901881 5.229302712,43.41606841 5.254468682,43.40923835 5.263912285,43.40201225 5.196082554,43.39254656"/>
<polygon id="13056 MARTIGUES" points="5.088464741,43.33253643 5.081483596,43.32765858 5.067755053,43.33084662 5.054588457,43.32667011 5.036516296,43.33080948 5.016546957,43.34316117 5.025317107,43.3551909 5.015903464,43.35789543 4.999269487,43.38001771 4.986873047,43.39333069 5.00091698,43.39938047 4.995505463,43.40348501 5.00453213,43.40466816 5.006921285,43.42787826 5.014337922,43.43127738 5.023449429,43.42982064 5.021420723,43.43288235 5.039058,43.43714158 5.045008323,43.44228521 5.054235546,43.44300162 5.061164166,43.42230587 5.059948928,43.40491496 5.072218868,43.4001361 5.096382025,43.40140783 5.10303441,43.38856252 5.099896816,43.38204485 5.102989366,43.36233022 5.102090321,43.34580712 5.088464741,43.33253643"/>
<polygon id="13057 MAS-BLANC-DES-ALPILLES" points="4.772856248,43.78237441 4.759004188,43.78157278 4.7554941,43.78783105 4.755436482,43.79121635 4.767544788,43.79623225 4.772856248,43.78237441"/>
<polygon id="13058 MAUSSANE-LES-ALPILLES" points="4.823470811,43.67990187 4.800629463,43.67878828 4.792146549,43.68115147 4.79909781,43.69833573 4.797430478,43.73019862 4.825920368,43.72913949 4.839190452,43.73266048 4.84169978,43.73927873 4.832309831,43.74650287 4.832538273,43.75324974 4.852044483,43.7520467 4.86497395,43.73728042 4.88335784,43.73346259 4.880602297,43.72326712 4.861931688,43.71206698 4.847946925,43.69360181 4.82947114,43.68954874 4.823470811,43.67990187"/>
<polygon id="13059 MEYRARGUES" points="5.557670322,43.57962609 5.534951213,43.58139217 5.511123583,43.60680977 5.489457831,43.61342092 5.476659735,43.62348079 5.484124707,43.63188954 5.480844461,43.6483127 5.488080822,43.66764664 5.530507945,43.65923141 5.5498258,43.65975237 5.540149699,43.62917207 5.547578627,43.61282976 5.554047886,43.60340539 5.587652528,43.59039371 5.557670322,43.57962609"/>
<polygon id="13060 MEYREUIL" points="5.496141958,43.46325346 5.484401763,43.46953607 5.477881947,43.48601367 5.469146868,43.48901238 5.470883562,43.49202427 5.465253761,43.49711218 5.464782978,43.50343285 5.471441,43.51188672 5.479509201,43.51255771 5.491325151,43.50723708 5.504792589,43.50921327 5.531688747,43.50548316 5.536934269,43.5044064 5.532697563,43.48291961 5.496141958,43.46325346"/>
<polygon id="13061 SAINT-PIERRE-DE-MEZOARGUES" points="4.66667458,43.84721859 4.661577762,43.85243596 4.643417864,43.85200894 4.647040474,43.85815606 4.641909591,43.86747755 4.656837625,43.87427286 4.661295682,43.87396206 4.662423952,43.87083046 4.672117922,43.86024996 4.668114476,43.84754762 4.66667458,43.84721859"/>
<polygon id="13062 MIMET" points="5.479809344,43.38541918 5.475391906,43.39146076 5.47737893,43.41210812 5.464344419,43.43006527 5.48650507,43.43158401 5.499996085,43.42854615 5.518349478,43.42912907 5.529480122,43.44014819 5.535253368,43.42539527 5.533233701,43.41654943 5.528551948,43.41650584 5.515614883,43.40669904 5.504459492,43.38809186 5.479809344,43.38541918"/>
<polygon id="13063 MIRAMAS" points="5.014453179,43.55554572 5.00977467,43.55623546 5.004160333,43.55210014 5.004219401,43.56549147 4.970716306,43.59909999 4.980134685,43.60609311 4.978382127,43.61633164 4.988599994,43.61804425 5.006725231,43.60637025 5.016298866,43.60528394 5.038842898,43.5920733 5.043679443,43.59227042 5.047579248,43.57905614 5.057389732,43.57159827 5.062624253,43.55845725 5.053698297,43.56011155 5.040699137,43.56870909 5.03104779,43.55727056 5.021999123,43.55616144 5.014453179,43.55554572"/>
<polygon id="13064 MOLLEGES" points="4.966811929,43.79193631 4.949983114,43.78745891 4.924172483,43.79917854 4.912029616,43.80286679 4.908506847,43.81201104 4.940010528,43.81800816 4.972713116,43.81999587 4.983012777,43.804029 4.982208601,43.80055098 4.966811929,43.79193631"/>
<polygon id="13065 MOURIES" points="4.926397667,43.68668756 4.931795103,43.67313563 4.913135072,43.67024319 4.898743813,43.67151246 4.87641288,43.67837147 4.823470811,43.67990187 4.82947114,43.68954874 4.847946925,43.69360181 4.861931688,43.71206698 4.880602297,43.72326712 4.88335784,43.73346259 4.893474151,43.74019994 4.917468713,43.73750276 4.92854664,43.71404832 4.923020805,43.70063566 4.926397667,43.68668756"/>
<polygon id="13066 NOVES" points="4.907720427,43.81824486 4.878756881,43.82210534 4.868541568,43.82984212 4.881691065,43.84703412 4.881857597,43.86002067 4.878758157,43.87018303 4.881334788,43.90156413 4.902945313,43.88766868 4.922008362,43.88675857 4.930503384,43.88436717 4.933955464,43.87494401 4.923418643,43.8683968 4.923490951,43.86500182 4.931870657,43.85341243 4.925404106,43.85162737 4.907281597,43.84682373 4.905703735,43.84352068 4.912922398,43.82360868 4.907720427,43.81824486"/>
<polygon id="13067 ORGON" points="4.997719047,43.74896791 4.98086438,43.78076288 4.968207256,43.79095695 5.016217335,43.80491417 5.035353802,43.8201408 5.042624474,43.80650196 5.048139022,43.78972708 5.09066408,43.77211305 5.06946969,43.76451517 5.052416431,43.76626008 5.03506745,43.75482949 5.018044111,43.74997039 4.997719047,43.74896791"/>
<polygon id="13068 PARADOU" points="4.792146549,43.68115147 4.777478396,43.68404726 4.759537095,43.6926823 4.758629523,43.69584712 4.751832779,43.71616288 4.76682504,43.72909748 4.779427118,43.73281654 4.797430478,43.73019862 4.79909781,43.69833573 4.792146549,43.68115147"/>
<polygon id="13069 PELISSANNE" points="5.196349782,43.60109084 5.165112729,43.61028693 5.141424032,43.61318669 5.138550603,43.61985005 5.129974962,43.62213373 5.128608586,43.64240399 5.139214802,43.6539334 5.151947477,43.65098175 5.181133808,43.65761925 5.182699702,43.64143935 5.17969884,43.63488361 5.16806104,43.62896853 5.16854921,43.62549333 5.192737905,43.61417948 5.197297119,43.60803857 5.196349782,43.60109084"/>
<polygon id="13070 LA PENNE-SUR-HUVEAUNE" points="5.518421011,43.28801535 5.530406754,43.28039119 5.531211247,43.27037322 5.523500739,43.2672686 5.514442579,43.26769584 5.506134049,43.27489092 5.505738512,43.28138012 5.514010988,43.28859505 5.518421011,43.28801535"/>
<polygon id="13071 LES PENNES-MIRABEAU" points="5.33227939,43.37144546 5.319188239,43.37202383 5.300135756,43.38706453 5.278797321,43.38046889 5.271310376,43.39117425 5.265085208,43.40107871 5.272158672,43.40547554 5.27493521,43.41888148 5.293164115,43.42178212 5.297133649,43.43151736 5.310818748,43.43155029 5.343942567,43.41974997 5.374872798,43.42003016 5.379292738,43.41464082 5.362298642,43.40880257 5.348256174,43.40805498 5.345536737,43.40524281 5.343635278,43.39886676 5.350372962,43.3825022 5.353825447,43.37670303 5.337395913,43.37652813 5.33227939,43.37144546"/>
<polygon id="13072 PEYNIER" points="5.63906669,43.40410217 5.628149298,43.40969657 5.610457365,43.41189784 5.604584028,43.43162631 5.587469542,43.44271221 5.590984443,43.4521788 5.61024781,43.460358 5.611258096,43.46355626 5.621695853,43.46940743 5.639221815,43.46644353 5.647361766,43.46875651 5.653068623,43.46386397 5.648459739,43.44698135 5.650327969,43.42291026 5.63906669,43.40410217"/>
<polygon id="13073 PEYPIN" points="5.565693818,43.35667558 5.556982761,43.38023905 5.544677016,43.39079016 5.553747819,43.39856043 5.555925172,43.40506182 5.559443327,43.40755303 5.561498087,43.41016877 5.577486166,43.40353352 5.581787884,43.40503323 5.586710813,43.39288116 5.595185861,43.39140913 5.58757935,43.36662236 5.565693818,43.35667558"/>
<polygon id="13074 PEYROLLES-EN-PROVENCE" points="5.587652528,43.59039371 5.554047886,43.60340539 5.547578627,43.61282976 5.540149699,43.62917207 5.5498258,43.65975237 5.573623117,43.66198253 5.606943519,43.65868591 5.610755049,43.65252649 5.606717136,43.6463484 5.602701764,43.61225234 5.605791284,43.60225743 5.613951813,43.59430114 5.587652528,43.59039371"/>
<polygon id="13075 PLAN-DE-CUQUES" points="5.454958468,43.33572731 5.452204428,43.3454741 5.463686091,43.36105389 5.447505382,43.38697356 5.475391906,43.39146076 5.479809344,43.38541918 5.473298655,43.36916905 5.474362157,43.34912765 5.46701569,43.3405831 5.454958468,43.33572731"/>
<polygon id="13076 PLAN-D'ORGON" points="4.968207256,43.79095695 4.966811929,43.79193631 4.982208601,43.80055098 4.983012777,43.804029 4.972713116,43.81999587 4.990365966,43.82459904 4.991826627,43.83832722 4.997651289,43.84485512 5.027721176,43.82858279 5.035353802,43.8201408 5.016217335,43.80491417 4.968207256,43.79095695"/>
<polygon id="13077 PORT-DE-BOUC" points="4.995505463,43.40348501 4.984356716,43.40410387 4.983214687,43.39782536 4.975616054,43.40152795 4.972215251,43.42186522 4.980415345,43.43268581 4.980825101,43.44530453 5.016999061,43.43885045 5.021420723,43.43288235 5.023449429,43.42982064 5.014337922,43.43127738 5.006921285,43.42787826 5.00453213,43.40466816 4.995505463,43.40348501"/>
<polygon id="13078 PORT-SAINT-LOUIS-DU-RHONE" points="4.847295123,43.32685546 4.83544784,43.34226437 4.832235562,43.36686663 4.754321421,43.40938887 4.734852309,43.42972451 4.749735121,43.45950532 4.764341586,43.47373897 4.772659181,43.47739191 4.800971967,43.47782519 4.815981041,43.4698175 4.824615114,43.47284023 4.838138835,43.46256862 4.829334688,43.45999982 4.829756312,43.45655503 4.841644825,43.45090917 4.840745617,43.44751378 4.818731198,43.42511811 4.816414637,43.4186148 4.841118662,43.4036015 4.836769345,43.39725924 4.853365081,43.39296295 4.850613008,43.379134 4.832948902,43.37649203 4.865880955,43.36983719 4.882475901,43.35714064 4.913684054,43.37740729 4.913128136,43.38666796 4.917997925,43.37691699 4.860817548,43.33796158 4.857084156,43.32693075 4.847295123,43.32685546"/>
<polygon id="13079 PUYLOUBIER" points="5.698803015,43.48217912 5.654308173,43.49071342 5.628240894,43.5103787 5.635604658,43.51425094 5.63774086,43.52063554 5.622086216,43.52566018 5.618537307,43.53166932 5.626236027,43.53578628 5.669609018,43.54008415 5.68776545,43.54541551 5.706691597,43.55623436 5.716863914,43.55119977 5.725073869,43.55127301 5.717834879,43.53510579 5.714278015,43.50121963 5.703217741,43.49534737 5.698803015,43.48217912"/>
<polygon id="13080 LE PUY-SAINTE-REPARADE" points="5.463795498,43.61364583 5.444232052,43.62208155 5.411258166,43.62267424 5.393562714,43.64968437 5.398219766,43.65935804 5.39632901,43.67611681 5.404375109,43.67839685 5.412713917,43.69291304 5.445293164,43.68009529 5.488080822,43.66764664 5.480844461,43.6483127 5.484124707,43.63188954 5.476659735,43.62348079 5.463795498,43.61364583"/>
<polygon id="13081 ROGNAC" points="5.271657923,43.48567938 5.258259099,43.48318711 5.250033886,43.47515866 5.223417703,43.47912802 5.218432922,43.48735755 5.202793616,43.49117759 5.194571836,43.50313491 5.204410374,43.51463612 5.206463452,43.52462109 5.269571894,43.49546178 5.271657923,43.48567938"/>
<polygon id="13082 ROGNES" points="5.411258166,43.62267424 5.365338312,43.62485374 5.351477408,43.62619877 5.317471724,43.63810941 5.308820256,43.65380358 5.301317786,43.68803481 5.297969468,43.69053613 5.306864992,43.6927064 5.310510664,43.69881346 5.329302853,43.70874727 5.347043481,43.71133684 5.354146355,43.70690733 5.367931255,43.70655422 5.370576165,43.69370436 5.39632901,43.67611681 5.398219766,43.65935804 5.393562714,43.64968437 5.411258166,43.62267424"/>
<polygon id="13083 ROGNONAS" points="4.801056863,43.87980152 4.781511874,43.89115824 4.790618752,43.91085799 4.776746213,43.91401013 4.773596497,43.91964241 4.810973564,43.91427609 4.811893953,43.90404379 4.818427464,43.89535649 4.815037865,43.88897667 4.801056863,43.87980152"/>
<polygon id="13084 LA ROQUE-D'ANTHERON" points="5.297969468,43.69053613 5.288421111,43.69001725 5.276976212,43.69639672 5.268872104,43.71982721 5.262273255,43.73155926 5.264102861,43.74423229 5.286389831,43.74013868 5.315300024,43.73656597 5.325915736,43.72923685 5.343699147,43.7187728 5.370534661,43.70918923 5.367931255,43.70655422 5.354146355,43.70690733 5.347043481,43.71133684 5.329302853,43.70874727 5.310510664,43.69881346 5.306864992,43.6927064 5.297969468,43.69053613"/>
<polygon id="13085 ROQUEFORT-LA-BEDOULE" points="5.594329816,43.23631307 5.586290734,43.23876496 5.578854747,43.23489283 5.554795315,43.24863181 5.575956386,43.25572518 5.586624498,43.26681046 5.599100457,43.26489093 5.615348245,43.27012396 5.656949045,43.26704758 5.661514677,43.2672322 5.668477074,43.25878892 5.701219547,43.24715621 5.704507723,43.24165557 5.682416265,43.23545637 5.658739053,43.23614109 5.631240023,43.24183694 5.594329816,43.23631307"/>
<polygon id="13086 ROQUEVAIRE" points="5.646837984,43.32316308 5.634922593,43.32761252 5.623048098,43.32297781 5.609636724,43.32383341 5.566388688,43.33517435 5.548464102,43.33582327 5.547567037,43.34258587 5.565693818,43.35667558 5.58757935,43.36662236 5.600926609,43.36821953 5.609583543,43.36621987 5.632472925,43.34119155 5.643613366,43.3353752 5.649166785,43.32608534 5.646837984,43.32316308"/>
<polygon id="13087 ROUSSET" points="5.611258096,43.46355626 5.600263908,43.46885255 5.590243083,43.46781428 5.583715346,43.47601757 5.585370868,43.48204523 5.594881551,43.481863 5.602594432,43.48538683 5.600755412,43.50212039 5.6176298,43.50497307 5.628240894,43.5103787 5.654308173,43.49071342 5.657975638,43.47697653 5.653068623,43.46386397 5.647361766,43.46875651 5.639221815,43.46644353 5.621695853,43.46940743 5.611258096,43.46355626"/>
<polygon id="13088 LE ROVE" points="5.237172268,43.33172217 5.234068121,43.3419648 5.236507868,43.34859207 5.230760717,43.35399351 5.229446982,43.3643432 5.214271143,43.38189827 5.228539332,43.38201041 5.252925086,43.39251245 5.271310376,43.39117425 5.278797321,43.38046889 5.283305582,43.3749829 5.278845023,43.36608602 5.282250636,43.35365747 5.257860995,43.33837486 5.237172268,43.33172217"/>
<polygon id="13089 SAINT-ANDIOL" points="4.908506847,43.81201104 4.907720427,43.81824486 4.912922398,43.82360868 4.929473595,43.83032036 4.92808721,43.83714116 4.93280358,43.84311586 4.925404106,43.85162737 4.931870657,43.85341243 4.937823398,43.84847288 4.970890787,43.84430671 4.978319794,43.8354314 4.991826627,43.83832722 4.990365966,43.82459904 4.972713116,43.81999587 4.940010528,43.81800816 4.908506847,43.81201104"/>
<polygon id="13090 SAINT-ANTONIN-SUR-BAYON" points="5.600755412,43.50212039 5.562057387,43.50426584 5.556385327,43.51325745 5.558385935,43.52346338 5.563027958,43.52408296 5.570435024,43.5367265 5.576511853,43.53151423 5.585756053,43.53017805 5.618537307,43.53166932 5.622086216,43.52566018 5.63774086,43.52063554 5.635604658,43.51425094 5.628240894,43.5103787 5.6176298,43.50497307 5.600755412,43.50212039"/>
<polygon id="13091 SAINT-CANNAT" points="5.334503639,43.59279961 5.321798025,43.59619549 5.310069237,43.59097269 5.282107811,43.58916047 5.254210624,43.59208341 5.259035634,43.61114699 5.270404154,43.62982213 5.281081954,43.63687183 5.298886045,43.64196975 5.317471724,43.63810941 5.351477408,43.62619877 5.365338312,43.62485374 5.366322666,43.61837801 5.356852471,43.60320891 5.340577666,43.59779077 5.334503639,43.59279961"/>
<polygon id="13092 SAINT-CHAMAS" points="5.11807196,43.51321521 5.116733936,43.5201986 5.104702282,43.5256709 5.060998053,43.52729294 5.04740711,43.52356317 5.035414229,43.53451705 5.032375388,43.54478028 5.021999123,43.55616144 5.03104779,43.55727056 5.040699137,43.56870909 5.053698297,43.56011155 5.062624253,43.55845725 5.066000487,43.55598093 5.074768368,43.55888286 5.082473955,43.56761884 5.087282215,43.56776952 5.092038553,43.56717394 5.10279175,43.55558946 5.107575615,43.55510066 5.121720167,43.52292732 5.11807196,43.51321521"/>
<polygon id="13093 SAINT-ESTEVE-JANSON" points="5.39632901,43.67611681 5.370576165,43.69370436 5.367931255,43.70655422 5.370534661,43.70918923 5.388125772,43.70218785 5.412713917,43.69291304 5.404375109,43.67839685 5.39632901,43.67611681"/>
<polygon id="13094 SAINT-ETIENNE-DU-GRES" points="4.73338876,43.75415276 4.71014825,43.75846244 4.699529407,43.77723314 4.710768542,43.79250272 4.713817337,43.81670343 4.732037252,43.81986294 4.747069655,43.8154736 4.750163775,43.81746724 4.764507156,43.79846873 4.767544788,43.79623225 4.755436482,43.79121635 4.7554941,43.78783105 4.759004188,43.78157278 4.772856248,43.78237441 4.770319156,43.76021038 4.748743139,43.75964981 4.73338876,43.75415276"/>
<polygon id="13095 SAINT-MARC-JAUMEGARDE" points="5.506303023,43.53221365 5.48311428,43.533584 5.480426898,43.53639098 5.497470022,43.56040395 5.49395358,43.5666511 5.506970708,43.57670357 5.534951213,43.58139217 5.557670322,43.57962609 5.552946601,43.56307425 5.538939123,43.55481484 5.560914927,43.54217277 5.561070359,43.53872134 5.552123146,43.53870711 5.545340032,43.53475256 5.533925074,43.53964672 5.525884278,43.53801582 5.507780067,43.53543816 5.506303023,43.53221365"/>
<polygon id="13096 SAINTES-MARIES-DE-LA-MER" points="4.597237274,43.40590777 4.587253293,43.42606673 4.574863032,43.43708158 4.554050613,43.44647945 4.521260234,43.45393646 4.452622523,43.45543606 4.425085858,43.44878307 4.400671405,43.44735575 4.377368397,43.45257638 4.230283393,43.46018543 4.231616957,43.48092846 4.239356538,43.49373446 4.237933076,43.49708 4.244232818,43.50146198 4.293263782,43.51435885 4.320893796,43.52763154 4.30918673,43.54628329 4.318520493,43.55731957 4.322091746,43.55174199 4.315768803,43.5468516 4.317340877,43.54365605 4.33242214,43.53572422 4.348482113,43.54226578 4.353650067,43.54739365 4.372169945,43.54945578 4.389386636,43.56100715 4.408153474,43.5612963 4.414553779,43.569942 4.406919283,43.57405469 4.425404947,43.58477438 4.448892699,43.58343771 4.464599864,43.56151241 4.477385737,43.55632677 4.491116695,43.55808281 4.507747261,43.5797479 4.534031022,43.57107357 4.553502488,43.57161568 4.576644008,43.56606258 4.614742227,43.57193719 4.619617745,43.57233255 4.623491867,43.57014185 4.62715544,43.55267335 4.629066695,43.54938696 4.64191509,43.53443465 4.63375326,43.51406691 4.641710762,43.49742464 4.64238231,43.48675077 4.640349315,43.48350597 4.622713652,43.47124506 4.621123364,43.46786734 4.615625783,43.44017977 4.619713341,43.41912539 4.597237274,43.40590777"/>
<polygon id="13097 SAINT-MARTIN-DE-CRAU" points="4.876394281,43.49452692 4.816204958,43.54184513 4.785979385,43.5700387 4.770758441,43.57898174 4.76334217,43.5882192 4.761687597,43.59159398 4.760788197,43.60586435 4.75101813,43.62215914 4.75094169,43.62574237 4.753182478,43.62892825 4.764072114,43.63613212 4.767427936,43.66459925 4.777478396,43.68404726 4.792146549,43.68115147 4.800629463,43.67878828 4.823470811,43.67990187 4.87641288,43.67837147 4.898743813,43.67151246 4.913135072,43.67024319 4.931795103,43.67313563 4.926397667,43.68668756 4.930881578,43.68540196 4.937445484,43.66897577 4.964064469,43.66128866 4.964676595,43.72037801 4.98109665,43.71465269 4.982402593,43.68032585 4.968797828,43.65832281 4.955750919,43.63928775 4.988599994,43.61804425 4.978382127,43.61633164 4.954549372,43.61276673 4.945895913,43.62095947 4.94102958,43.6210375 4.922604443,43.61653181 4.918347456,43.61481597 4.885631238,43.58881099 4.883109645,43.57837863 4.889743434,43.55426037 4.88181209,43.54144735 4.928669801,43.51065522 4.914637496,43.50850089 4.876394281,43.49452692"/>
<polygon id="13098 SAINT-MITRE-LES-REMPARTS" points="5.021420723,43.43288235 5.016999061,43.43885045 4.980825101,43.44530453 4.975823601,43.45108352 4.979820179,43.46419493 4.975898881,43.47413008 4.988078264,43.47826325 5.001471386,43.46892709 5.006007553,43.46967121 5.039831497,43.47010194 5.048142415,43.46648029 5.053181592,43.46053507 5.054235546,43.44300162 5.045008323,43.44228521 5.039058,43.43714158 5.021420723,43.43288235"/>
<polygon id="13099 SAINT-PAUL-LES-DURANCE" points="5.718973209,43.64983758 5.719581055,43.65689897 5.700435732,43.68139709 5.682821364,43.69282612 5.712026333,43.69064336 5.737882398,43.71655648 5.753650891,43.72462223 5.772453944,43.72218201 5.784077123,43.71636587 5.783261603,43.70623033 5.788631894,43.69671979 5.8132484,43.68905392 5.804581654,43.68057102 5.799205967,43.65992892 5.770087761,43.66045865 5.718973209,43.64983758"/>
<polygon id="13100 SAINT-REMY-DE-PROVENCE" points="4.88335784,43.73346259 4.86497395,43.73728042 4.852044483,43.7520467 4.832538273,43.75324974 4.806001552,43.76188386 4.795090808,43.76879691 4.79023372,43.76877783 4.77991678,43.7613411 4.770319156,43.76021038 4.772856248,43.78237441 4.767544788,43.79623225 4.764507156,43.79846873 4.771918288,43.80302907 4.803138333,43.81053719 4.813488025,43.81784559 4.816337629,43.82458515 4.848424044,43.82372192 4.86688266,43.826639 4.868541568,43.82984212 4.878756881,43.82210534 4.907720427,43.81824486 4.908506847,43.81201104 4.912029616,43.80286679 4.924172483,43.79917854 4.925729227,43.78562185 4.913415161,43.78224722 4.916800535,43.76537324 4.924111738,43.75674714 4.917468713,43.73750276 4.893474151,43.74019994 4.88335784,43.73346259"/>
<polygon id="13101 SAINT-SAVOURNIN" points="5.504459492,43.38809186 5.515614883,43.40669904 5.528551948,43.41650584 5.533233701,43.41654943 5.546355854,43.41562957 5.559443327,43.40755303 5.555925172,43.40506182 5.537132592,43.40275854 5.504459492,43.38809186"/>
<polygon id="13102 SAINT-VICTORET" points="5.265085208,43.40107871 5.263912285,43.40201225 5.254468682,43.40923835 5.229302712,43.41606841 5.227194562,43.41901881 5.230193468,43.42153111 5.239020714,43.423086 5.260025883,43.41997666 5.267154994,43.41633558 5.27493521,43.41888148 5.272158672,43.40547554 5.265085208,43.40107871"/>
<polygon id="13103 SALON-DE-PROVENCE" points="5.096092716,43.59887723 5.083115671,43.62521131 5.049889566,43.63126163 5.018358222,43.64093355 5.013487517,43.64058284 5.009306599,43.62702405 4.988599994,43.61804425 4.955750919,43.63928775 4.968797828,43.65832281 5.000035671,43.64826583 5.058479244,43.67412415 5.072756456,43.68381735 5.106030863,43.68370932 5.113160204,43.68800874 5.11579364,43.68508611 5.132320997,43.66890296 5.143190572,43.66311745 5.139214802,43.6539334 5.128608586,43.64240399 5.129974962,43.62213373 5.130944349,43.61554397 5.127066438,43.60985933 5.10427065,43.5996552 5.096092716,43.59887723"/>
<polygon id="13104 SAUSSET-LES-PINS" points="5.135188055,43.32922125 5.096865059,43.32928721 5.088464741,43.33253643 5.102090321,43.34580712 5.102989366,43.36233022 5.131490871,43.36624519 5.140808193,43.34777455 5.135715886,43.34213368 5.135188055,43.32922125"/>
<polygon id="13105 SENAS" points="5.116587734,43.70825842 5.09846327,43.72396601 5.071100567,43.72962091 5.063175327,43.72154405 5.044428792,43.74607569 5.026988481,43.75218068 5.018044111,43.74997039 5.03506745,43.75482949 5.052416431,43.76626008 5.06946969,43.76451517 5.09066408,43.77211305 5.123783723,43.75875277 5.125327904,43.72943991 5.12748359,43.72631923 5.122397971,43.7130241 5.116587734,43.70825842"/>
<polygon id="13106 SEPTEMES-LES-VALLONS" points="5.391635976,43.37207589 5.377977284,43.37055886 5.377116635,43.38378117 5.371478393,43.38860302 5.350372962,43.3825022 5.343635278,43.39886676 5.345536737,43.40524281 5.348256174,43.40805498 5.362298642,43.40880257 5.379292738,43.41464082 5.392716709,43.41649617 5.398091602,43.4005903 5.409414261,43.39064535 5.424573834,43.38341246 5.415168827,43.37866351 5.391635976,43.37207589"/>
<polygon id="13107 SIMIANE-COLLONGUE" points="5.424573834,43.38341246 5.409414261,43.39064535 5.398091602,43.4005903 5.392716709,43.41649617 5.414667586,43.42173335 5.418527725,43.42778572 5.417183204,43.43458431 5.445024815,43.44741584 5.449875536,43.43861133 5.464344419,43.43006527 5.47737893,43.41210812 5.475391906,43.39146076 5.447505382,43.38697356 5.439819324,43.39023429 5.424573834,43.38341246"/>
<polygon id="13108 TARASCON" points="4.679766571,43.72861238 4.662401581,43.74011146 4.644367228,43.74454349 4.636749741,43.75992307 4.628118266,43.75771229 4.651798161,43.78435766 4.654428774,43.80915991 4.642970145,43.83211445 4.66667458,43.84721859 4.668114476,43.84754762 4.691117245,43.84480816 4.700329586,43.84636617 4.721091251,43.85433974 4.721771137,43.86121499 4.728694202,43.86593925 4.734466063,43.85771045 4.741521513,43.8418638 4.739900916,43.83193432 4.732037252,43.81986294 4.713817337,43.81670343 4.710768542,43.79250272 4.699529407,43.77723314 4.71014825,43.75846244 4.73338876,43.75415276 4.711562693,43.73268043 4.697513401,43.73273836 4.679766571,43.72861238"/>
<polygon id="13109 LE THOLONET" points="5.531688747,43.50548316 5.504792589,43.50921327 5.491325151,43.50723708 5.479509201,43.51255771 5.478661524,43.52501725 5.487468484,43.52441959 5.504571303,43.52910304 5.506303023,43.53221365 5.507780067,43.53543816 5.525884278,43.53801582 5.526203847,43.52840343 5.531213088,43.52303862 5.527835682,43.51713122 5.533346339,43.51194368 5.531688747,43.50548316"/>
<polygon id="13110 TRETS" points="5.682787816,43.39916586 5.679466624,43.40154351 5.670408547,43.40002104 5.646949124,43.40047119 5.63906669,43.40410217 5.650327969,43.42291026 5.648459739,43.44698135 5.653068623,43.46386397 5.657975638,43.47697653 5.654308173,43.49071342 5.698803015,43.48217912 5.71026156,43.47899453 5.727213654,43.46708252 5.751574231,43.43427505 5.773999531,43.42156821 5.787862184,43.42041101 5.788349033,43.42026344 5.786164163,43.41391021 5.778915414,43.4100726 5.749995489,43.40151213 5.722596196,43.40846991 5.703262895,43.40799118 5.682787816,43.39916586"/>
<polygon id="13111 VAUVENARGUES" points="5.618537307,43.53166932 5.585756053,43.53017805 5.576511853,43.53151423 5.570435024,43.5367265 5.561070359,43.53872134 5.560914927,43.54217277 5.538939123,43.55481484 5.552946601,43.56307425 5.557670322,43.57962609 5.587652528,43.59039371 5.613951813,43.59430114 5.628294002,43.58642885 5.632309555,43.58028188 5.64121506,43.57816608 5.647848373,43.56975819 5.669315086,43.56464115 5.69168756,43.56334146 5.706691597,43.55623436 5.68776545,43.54541551 5.669609018,43.54008415 5.626236027,43.53578628 5.618537307,43.53166932"/>
<polygon id="13112 VELAUX" points="5.269571894,43.49546178 5.206463452,43.52462109 5.200927189,43.52927889 5.201573947,43.53517924 5.207565395,43.54009793 5.216555727,43.53965365 5.220642885,43.54551964 5.233571581,43.54736954 5.236334748,43.54460336 5.245433288,43.54627868 5.264826322,43.53817987 5.273945994,43.53695403 5.290718288,43.52566505 5.294161903,43.51958865 5.291801364,43.51281586 5.269571894,43.49546178"/>
<polygon id="13113 VENELLES" points="5.49395358,43.5666511 5.465090468,43.5763212 5.463795498,43.61364583 5.476659735,43.62348079 5.489457831,43.61342092 5.511123583,43.60680977 5.534951213,43.58139217 5.506970708,43.57670357 5.49395358,43.5666511"/>
<polygon id="13114 VENTABREN" points="5.348502224,43.5363111 5.334287056,43.51929069 5.306781275,43.51504557 5.294161903,43.51958865 5.290718288,43.52566505 5.273945994,43.53695403 5.264826322,43.53817987 5.264966765,43.54801501 5.282511221,43.55322813 5.273649863,43.56885104 5.278507023,43.57488804 5.304569711,43.56597579 5.327397091,43.55377812 5.341570802,43.55202406 5.344872025,43.53861291 5.348502224,43.5363111"/>
<polygon id="13115 VERNEGUES" points="5.182376135,43.66126691 5.176174994,43.67036564 5.154724625,43.6773728 5.150131452,43.69014679 5.166772486,43.69653181 5.190653705,43.69584656 5.194168701,43.70145581 5.207078347,43.69773805 5.226148389,43.70700851 5.228684633,43.70298678 5.212534843,43.69060587 5.223319462,43.68016904 5.206373967,43.67526614 5.19174562,43.66213163 5.182376135,43.66126691"/>
<polygon id="13116 VERQUIERES" points="4.912922398,43.82360868 4.905703735,43.84352068 4.907281597,43.84682373 4.925404106,43.85162737 4.93280358,43.84311586 4.92808721,43.83714116 4.929473595,43.83032036 4.912922398,43.82360868"/>
<polygon id="13117 VITROLLES" points="5.27493521,43.41888148 5.267154994,43.41633558 5.260025883,43.41997666 5.239020714,43.423086 5.220468078,43.44916337 5.226717846,43.45392226 5.229596004,43.46697657 5.223417703,43.47912802 5.250033886,43.47515866 5.258259099,43.48318711 5.271657923,43.48567938 5.289305153,43.4731393 5.28991503,43.46642097 5.298483448,43.45912014 5.301002589,43.44611494 5.310818748,43.43155029 5.297133649,43.43151736 5.293164115,43.42178212 5.27493521,43.41888148"/>
<polygon id="13118 COUDOUX" points="5.264826322,43.53817987 5.245433288,43.54627868 5.236334748,43.54460336 5.233571581,43.54736954 5.226183354,43.56650433 5.246698273,43.57449775 5.255847483,43.58142797 5.265193815,43.57447351 5.278507023,43.57488804 5.273649863,43.56885104 5.282511221,43.55322813 5.264966765,43.54801501 5.264826322,43.53817987"/>
<polygon id="13119 CARNOUX-EN-PROVENCE" points="5.547209049,43.24663304 5.545090741,43.25331597 5.570903432,43.2675098 5.579558119,43.27018354 5.586624498,43.26681046 5.575956386,43.25572518 5.554795315,43.24863181 5.547209049,43.24663304"/>
<polygon id="13201 MARSEILLE--1ER-ARRONDISSEMENT" points="5.372144737,43.29096544 5.371008366,43.29359129 5.373616425,43.29499198 5.3750219,43.3015939 5.390502166,43.30939747 5.393048243,43.30422922 5.389078069,43.30031214 5.385563774,43.29429693 5.381847823,43.29590885 5.38035779,43.29294477 5.372144737,43.29096544"/>
<polygon id="13202 MARSEILLE--2E--ARRONDISSEMENT" points="5.373616425,43.29499198 5.360818836,43.2980982 5.363131708,43.30853232 5.360178392,43.31887459 5.345515525,43.33626636 5.354777491,43.3348141 5.369137442,43.31672567 5.3750219,43.3015939 5.373616425,43.29499198"/>
<polygon id="13203 MARSEILLE--3E--ARRONDISSEMENT" points="5.3750219,43.3015939 5.369137442,43.31672567 5.371580489,43.32008305 5.393184281,43.31641203 5.390502166,43.30939747 5.3750219,43.3015939"/>
<polygon id="13204 MARSEILLE--4E--ARRONDISSEMENT" points="5.408970526,43.29569467 5.389078069,43.30031214 5.393048243,43.30422922 5.390502166,43.30939747 5.393184281,43.31641203 5.393642528,43.31646488 5.410528505,43.3149827 5.408970526,43.29569467"/>
<polygon id="13205 MARSEILLE--5E--ARRONDISSEMENT" points="5.391944698,43.28476018 5.385563774,43.29429693 5.389078069,43.30031214 5.408970526,43.29569467 5.413891896,43.29169693 5.391944698,43.28476018"/>
<polygon id="13206 MARSEILLE--6E--ARRONDISSEMENT" points="5.373816144,43.27919323 5.372144737,43.29096544 5.38035779,43.29294477 5.381847823,43.29590885 5.385563774,43.29429693 5.391944698,43.28476018 5.388736592,43.28314821 5.373816144,43.27919323"/>
<polygon id="13207 MARSEILLE--7E--ARRONDISSEMENT" points="5.367986667,43.26831473 5.347862812,43.2822172 5.357269252,43.29385585 5.371008366,43.29359129 5.372144737,43.29096544 5.373816144,43.27919323 5.372030184,43.26961194 5.367986667,43.26831473"/>
<polygon id="13208 MARSEILLE--8E--ARRONDISSEMENT" points="5.381534951,43.20958429 5.362663332,43.20780332 5.340528672,43.21441397 5.350139572,43.23047549 5.373330584,43.24823671 5.373711536,43.25869465 5.367986667,43.26831473 5.372030184,43.26961194 5.373816144,43.27919323 5.388736592,43.28314821 5.399838143,43.27462252 5.395664851,43.26488759 5.395779702,43.24778599 5.389496963,43.23460613 5.380517655,43.22668716 5.381534951,43.20958429"/>
<polygon id="13209 MARSEILLE--9E--ARRONDISSEMENT" points="5.510186059,43.1979029 5.509016872,43.2012869 5.494796215,43.20100468 5.458577854,43.21018741 5.44977078,43.20849783 5.448630314,43.20510397 5.430353819,43.20813593 5.423268337,43.20522653 5.396696737,43.21236235 5.381534951,43.20958429 5.380517655,43.22668716 5.389496963,43.23460613 5.395779702,43.24778599 5.395664851,43.26488759 5.399838143,43.27462252 5.409343366,43.27513093 5.414401381,43.26943821 5.427531408,43.26537308 5.433828579,43.26021855 5.452243945,43.25746209 5.470456832,43.25375311 5.484103637,43.25614 5.485242401,43.26256668 5.491759386,43.26718648 5.513050392,43.26344425 5.519641387,43.24432787 5.52409595,43.23865292 5.522210649,43.23551105 5.512890483,43.23461242 5.507343888,43.22962054 5.517008195,43.21415917 5.510186059,43.1979029"/>
<polygon id="13210 MARSEILLE-10E--ARRONDISSEMENT" points="5.452243945,43.25746209 5.433828579,43.26021855 5.427531408,43.26537308 5.414401381,43.26943821 5.409343366,43.27513093 5.399838143,43.27462252 5.388736592,43.28314821 5.391944698,43.28476018 5.413891896,43.29169693 5.425802141,43.29014325 5.426052267,43.2867177 5.439819101,43.28452676 5.454034116,43.27175804 5.458093758,43.26210797 5.452243945,43.25746209"/>
<polygon id="13211 MARSEILLE-11E--ARRONDISSEMENT" points="5.484103637,43.25614 5.470456832,43.25375311 5.452243945,43.25746209 5.458093758,43.26210797 5.454034116,43.27175804 5.439819101,43.28452676 5.426052267,43.2867177 5.425802141,43.29014325 5.427577354,43.29338833 5.436665353,43.29560477 5.473580672,43.30134518 5.475104149,43.31472951 5.497810576,43.31535028 5.513749391,43.32159608 5.522810628,43.32076399 5.530284973,43.29867347 5.518421011,43.28801535 5.514010988,43.28859505 5.505738512,43.28138012 5.506134049,43.27489092 5.514442579,43.26769584 5.513050392,43.26344425 5.491759386,43.26718648 5.485242401,43.26256668 5.484103637,43.25614"/>
<polygon id="13212 MARSEILLE-12E--ARRONDISSEMENT" points="5.425802141,43.29014325 5.413891896,43.29169693 5.408970526,43.29569467 5.410528505,43.3149827 5.431502165,43.32276605 5.459661139,43.31851104 5.466645383,43.32300501 5.475104149,43.31472951 5.473580672,43.30134518 5.436665353,43.29560477 5.427577354,43.29338833 5.425802141,43.29014325"/>
<polygon id="13213 MARSEILLE-13E--ARRONDISSEMENT" points="5.410528505,43.3149827 5.393642528,43.31646488 5.407946451,43.33460628 5.414895723,43.35126363 5.415168827,43.37866351 5.424573834,43.38341246 5.439819324,43.39023429 5.447505382,43.38697356 5.463686091,43.36105389 5.452204428,43.3454741 5.454958468,43.33572731 5.466645383,43.32300501 5.459661139,43.31851104 5.431502165,43.32276605 5.410528505,43.3149827"/>
<polygon id="13214 MARSEILLE-14E--ARRONDISSEMENT" points="5.393184281,43.31641203 5.371580489,43.32008305 5.368641824,43.3370583 5.376049814,43.3414858 5.380366181,43.35821207 5.394460374,43.36730628 5.395979973,43.37062074 5.391635976,43.37207589 5.415168827,43.37866351 5.414895723,43.35126363 5.407946451,43.33460628 5.393642528,43.31646488 5.393184281,43.31641203"/>
<polygon id="13215 MARSEILLE-15E--ARRONDISSEMENT" points="5.369137442,43.31672567 5.354777491,43.3348141 5.345515525,43.33626636 5.337717766,43.33947715 5.345953154,43.3421698 5.35136205,43.35475133 5.346791837,43.36427362 5.33227939,43.37144546 5.337395913,43.37652813 5.353825447,43.37670303 5.350372962,43.3825022 5.371478393,43.38860302 5.377116635,43.38378117 5.377977284,43.37055886 5.391635976,43.37207589 5.395979973,43.37062074 5.394460374,43.36730628 5.380366181,43.35821207 5.376049814,43.3414858 5.368641824,43.3370583 5.371580489,43.32008305 5.369137442,43.31672567"/>
<polygon id="13216 MARSEILLE-16E--ARRONDISSEMENT" points="5.337717766,43.33947715 5.333995144,43.34163652 5.335764087,43.34725028 5.313493307,43.35955476 5.30396986,43.36045099 5.282250636,43.35365747 5.278845023,43.36608602 5.283305582,43.3749829 5.278797321,43.38046889 5.300135756,43.38706453 5.319188239,43.37202383 5.33227939,43.37144546 5.346791837,43.36427362 5.35136205,43.35475133 5.345953154,43.3421698 5.337717766,43.33947715"/>

</g>

</g>

</svg>