<?xml version="1.0" encoding="UTF-8" standalone="no"?>
<svg xmlns:dc="http://purl.org/dc/elements/1.1/" xmlns:cc="http://creativecommons.org/ns#" xmlns:rdf="http://www.w3.org/1999/02/22-rdf-syntax-ns#" xmlns:svg="http://www.w3.org/2000/svg" xmlns="http://www.w3.org/2000/svg" xmlns:sodipodi="http://sodipodi.sourceforge.net/DTD/sodipodi-0.dtd" xmlns:inkscape="http://www.inkscape.org/namespaces/inkscape" width="1000" height="940" viewBox="5.498165294 43.66828843 1.469011714 0.99150796" preserveAspectRatio="none" version="1.1" id="svg2" inkscape:version="0.48.4 r9939" sodipodi:docname="Blank_Map_of_Alpes-de-Haute-Provence_Department,_France,_with_Communes.svg">
  <metadata id="metadata214">
    <rdf:RDF>
      <cc:Work rdf:about="">
        <dc:format>image/svg+xml</dc:format>
        <dc:type rdf:resource="http://purl.org/dc/dcmitype/StillImage"/>
      </cc:Work>
    </rdf:RDF>
  </metadata>
  <defs id="defs212"/>
  <sodipodi:namedview pagecolor="#ffffff" bordercolor="#666666" borderopacity="1" objecttolerance="10" gridtolerance="10" guidetolerance="10" inkscape:pageopacity="0" inkscape:pageshadow="2" inkscape:window-width="1920" inkscape:window-height="1018" id="namedview210" showgrid="false" inkscape:zoom="0.88253408" inkscape:cx="500" inkscape:cy="470" inkscape:window-x="-8" inkscape:window-y="-8" inkscape:window-maximized="1" inkscape:current-layer="g8"/>
  <style type="text/css" id="style4">

.communes { 
	fill           : #b9b9b9;
	fill-opacity   : 1;
	stroke         : white;
	stroke-opacity : 1;
	stroke-width   : 0.002;
}

</style>
  <g transform="translate(0,44.65979639) scale(1,-1) translate(0,-43.66828843)" id="g6">
    <g class="communes" id="g8">
      <polygon id="04001 AIGLUN" points="6.143760887,44.04126242 6.134566465,44.04844378 6.111162806,44.05688489 6.107926078,44.0602825 6.106189923,44.07058199 6.11559818,44.07835812 6.117294566,44.0851464 6.141203828,44.07525747 6.164350733,44.07494212 6.174522333,44.06869364 6.174573178,44.06535037 6.159577483,44.05266047 6.143760887,44.04126242"/>
      <polygon id="04004 ALLEMAGNE-EN-PROVENCE" points="6.046170721,43.75480208 6.041744337,43.75403431 6.037585487,43.75970665 6.024099572,43.76078441 6.016553714,43.76447871 6.003000716,43.76335843 6.00544293,43.76987382 5.984674023,43.78313318 5.997102174,43.79235553 6.002034894,43.80816817 6.008017672,43.81363159 6.017506674,43.81457603 6.036124192,43.83049424 6.048825601,43.80881441 6.065275443,43.80181488 6.070447873,43.79625687 6.065896451,43.77977881 6.060217592,43.77422904 6.059637609,43.76385309 6.046170721,43.75480208"/>
      <polygon id="04005 ALLONS" points="6.628167415,43.95397662 6.608077943,43.94512852 6.601451578,43.93241037 6.597067955,43.93169002 6.578395395,43.94700599 6.556837054,43.96660171 6.554381886,43.97183469 6.55899748,43.99880147 6.556902186,44.00541926 6.561029309,44.01133903 6.55714778,44.02094298 6.569908436,44.02553628 6.588983249,44.02348848 6.607697664,44.00769187 6.61773368,43.99708053 6.622473726,43.98448165 6.632981575,43.96611421 6.628167415,43.95397662"/>
      <polygon id="04006 ALLOS" points="6.598522703,44.21552639 6.59490461,44.22861986 6.58277365,44.23416146 6.554840752,44.23397952 6.541649317,44.23766765 6.544129459,44.24406589 6.541458158,44.25709072 6.54616251,44.26656183 6.532555703,44.28806636 6.54528323,44.32329263 6.584332669,44.30842909 6.594531414,44.29255255 6.602524437,44.2886324 6.624567805,44.29573767 6.638298148,44.29190475 6.677155868,44.29409823 6.701169044,44.28986759 6.70895438,44.28135074 6.705479342,44.26752779 6.722759472,44.26197814 6.728284725,44.25256321 6.724806634,44.25038343 6.721964716,44.2342058 6.724866843,44.22839433 6.714075418,44.21822629 6.65653188,44.22179002 6.634176252,44.2160812 6.619322498,44.22441129 6.598522703,44.21552639"/>
      <polygon id="04007 ANGLES" points="6.546966253,43.92163586 6.530730338,43.93538669 6.52805503,43.93808564 6.545932107,43.9605329 6.556837054,43.96660171 6.578395395,43.94700599 6.546966253,43.92163586"/>
      <polygon id="04008 ANNOT" points="6.657775182,43.92951097 6.644248319,43.9324138 6.642681672,43.9459438 6.637100134,43.9514903 6.628167415,43.95397662 6.632981575,43.96611421 6.622473726,43.98448165 6.646520509,43.98490719 6.675092,43.99762668 6.69251266,43.97852464 6.694477747,43.96245714 6.69899094,43.95646621 6.694017254,43.94322838 6.703237618,43.93621303 6.688911384,43.93793226 6.667507678,43.93004036 6.657775182,43.92951097"/>
      <polygon id="04009 ARCHAIL" points="6.300080925,44.0934638 6.30486322,44.1086517 6.328241316,44.13659989 6.362251862,44.11035529 6.362276042,44.1069583 6.340864317,44.09470438 6.313231573,44.09670603 6.300080925,44.0934638"/>
      <polygon id="04012 AUBENAS-LES-ALPES" points="5.68929909,43.91588597 5.661556028,43.91931213 5.661213279,43.92611897 5.663738301,43.92896591 5.661254979,43.94223632 5.671701645,43.94868989 5.675694558,43.94745756 5.678267389,43.95340975 5.682523227,43.95405275 5.690746148,43.94683575 5.68929909,43.91588597"/>
      <polygon id="04013 AUBIGNOSC" points="5.977222038,44.10578821 5.942977769,44.10661456 5.909524844,44.11167827 5.903479575,44.11667519 5.911407321,44.11963513 5.929614519,44.12018557 5.942825242,44.12951382 5.97468285,44.13371553 5.97759848,44.13637447 5.985284403,44.13126556 5.989779366,44.12114525 6.005110782,44.11290772 5.979167653,44.10880665 5.977222038,44.10578821"/>
      <polygon id="04016 AUTHON" points="6.119740631,44.22203876 6.112803857,44.23830604 6.098690031,44.23958812 6.094605313,44.24579275 6.080488424,44.24728871 6.069505547,44.25391085 6.086759699,44.25729163 6.105207714,44.26686963 6.10912351,44.27266822 6.132513011,44.26734639 6.181518499,44.26957718 6.194404631,44.26508624 6.214986744,44.25641392 6.213818667,44.24619634 6.219110237,44.24028484 6.196496969,44.22591957 6.191450876,44.23153451 6.16839723,44.23354463 6.165448057,44.2235765 6.147460299,44.23421002 6.119740631,44.22203876"/>
      <polygon id="04017 AUZET" points="6.306687969,44.27333044 6.297981958,44.27412373 6.285799429,44.28914658 6.266849264,44.2996126 6.271656921,44.33030783 6.280744273,44.33659577 6.296491848,44.33454815 6.310494333,44.32542438 6.324324521,44.32819638 6.333304944,44.32638384 6.340798473,44.31766943 6.354550767,44.31489009 6.366041907,44.30870958 6.367589283,44.30202214 6.358630246,44.29480044 6.340702915,44.28944584 6.31547146,44.27365125 6.306687969,44.27333044"/>
      <polygon id="04018 BANON" points="5.64535631,43.98180221 5.624451614,43.98389093 5.612729867,43.98690916 5.612371308,43.99377937 5.622925429,44.00519701 5.622799729,44.03254813 5.617780778,44.04202457 5.623850859,44.05481956 5.639809426,44.06748442 5.658511556,44.0635828 5.666443916,44.06762239 5.675282729,44.06461507 5.682202733,44.05774571 5.68725978,44.03101987 5.681406987,44.0116942 5.67269341,44.01293407 5.659771019,43.9948608 5.64535631,43.98180221"/>
      <polygon id="04019 BARCELONNETTE" points="6.664772615,44.33735984 6.65457088,44.34484528 6.644713918,44.36455547 6.618755607,44.38528206 6.632842619,44.38705265 6.637955192,44.40363576 6.652199061,44.41281529 6.670125892,44.38993365 6.671945731,44.38292512 6.664772615,44.33735984"/>
      <polygon id="04020 BARLES" points="6.257040849,44.23480577 6.234111365,44.23283522 6.219110237,44.24028484 6.213818667,44.24619634 6.214986744,44.25641392 6.194404631,44.26508624 6.200172238,44.27843124 6.217053076,44.28422626 6.218870119,44.28751528 6.21252071,44.29697113 6.217488792,44.30670846 6.264709254,44.33149635 6.271656921,44.33030783 6.266849264,44.2996126 6.285799429,44.28914658 6.297981958,44.27412373 6.306687969,44.27333044 6.311743839,44.24697069 6.302504172,44.24864541 6.294902871,44.24012613 6.279987751,44.23184324 6.257040849,44.23480577"/>
      <polygon id="04021 BARRAS" points="6.107926078,44.0602825 6.091131964,44.06636955 6.089708826,44.07973134 6.080975243,44.09196604 6.076361607,44.09285236 6.075416596,44.08947418 6.064757874,44.09900537 6.06751349,44.10815162 6.079402341,44.11300624 6.079734739,44.11937409 6.081939861,44.12245565 6.103939686,44.1291847 6.113524371,44.1288227 6.132628732,44.1192075 6.128440047,44.11330114 6.116356273,44.10839421 6.114246364,44.09840193 6.117294566,44.0851464 6.11559818,44.07835812 6.106189923,44.07058199 6.107926078,44.0602825"/>
      <polygon id="04022 BARREME" points="6.347364186,43.91716483 6.33049675,43.92322032 6.328026233,43.92979008 6.318666278,43.93728997 6.320507083,43.9404317 6.329599278,43.94221762 6.334013816,43.96143146 6.34801244,43.97046159 6.357329369,43.97151789 6.381374901,43.96411953 6.387352612,43.97635645 6.390731708,43.97402666 6.388342039,43.964255 6.391241611,43.96163378 6.413772158,43.95926558 6.420244759,43.96758485 6.429270318,43.96688757 6.452333153,43.94508188 6.452477183,43.93819505 6.448021796,43.93687649 6.424615607,43.94193688 6.410159782,43.93994805 6.401096223,43.93722203 6.384273522,43.92471935 6.369615967,43.92406475 6.347364186,43.91716483"/>
      <polygon id="04023 BAYONS" points="6.194404631,44.26508624 6.181518499,44.26957718 6.132513011,44.26734639 6.10912351,44.27266822 6.092159046,44.28529008 6.090369876,44.29916801 6.094752738,44.31235891 6.11405863,44.32235349 6.10257961,44.33248821 6.106338319,44.33877809 6.104251754,44.3584215 6.13656144,44.37658547 6.154919209,44.37309675 6.169277887,44.37493633 6.193195656,44.37297455 6.202294496,44.3752867 6.226972658,44.38138567 6.234459507,44.37764325 6.23539466,44.3643362 6.243348739,44.36068749 6.262145153,44.35911364 6.276305964,44.34515177 6.264709254,44.33149635 6.217488792,44.30670846 6.21252071,44.29697113 6.218870119,44.28751528 6.217053076,44.28422626 6.200172238,44.27843124 6.194404631,44.26508624"/>
      <polygon id="04024 BEAUJEU" points="6.376865811,44.17241808 6.352617653,44.18361253 6.348170355,44.20352305 6.324925594,44.21569837 6.310811651,44.22971058 6.312421447,44.24677007 6.33884071,44.23887958 6.348237389,44.24033213 6.363700292,44.24876055 6.394495934,44.25084887 6.405340095,44.25630617 6.406152993,44.24604616 6.416742186,44.23436512 6.429658209,44.22995305 6.428550167,44.22654604 6.405470267,44.20878648 6.400783757,44.19537293 6.394240355,44.19023317 6.392742726,44.17983792 6.376865811,44.17241808"/>
      <polygon id="04025 BEAUVEZER" points="6.664384237,44.12665688 6.627070559,44.12117717 6.581278869,44.13047733 6.554928538,44.13918296 6.549970224,44.14512795 6.549938712,44.16224754 6.545554605,44.16840798 6.568696894,44.17055828 6.590747797,44.16452234 6.598653976,44.15595581 6.603253711,44.15507487 6.605167815,44.15821952 6.646724342,44.14151831 6.650736615,44.13522171 6.663110943,44.12999721 6.664384237,44.12665688"/>
      <polygon id="04026 BELLAFFAIRE" points="6.202294496,44.3752867 6.188454276,44.39672474 6.178288761,44.40365841 6.178506663,44.41044497 6.165523861,44.4144947 6.171974853,44.42284067 6.162351879,44.43442385 6.173945409,44.43958598 6.184895496,44.42413444 6.199880826,44.41502414 6.211064179,44.40344602 6.227244,44.38173808 6.226972658,44.38138567 6.202294496,44.3752867"/>
      <polygon id="04027 BEVONS" points="5.900015857,44.15490112 5.884301715,44.16695235 5.856050551,44.16476468 5.852039057,44.16660737 5.859293629,44.18221614 5.859057256,44.19517399 5.900313244,44.19087556 5.900015857,44.15490112"/>
      <polygon id="04028 BEYNES" points="6.245652443,43.94396084 6.23348765,43.95367111 6.219670735,43.95650213 6.205829363,43.95448627 6.198814319,43.96345579 6.186142805,43.96832957 6.191658683,43.97418535 6.197213118,43.99137986 6.212006589,44.00548404 6.222601463,44.01165765 6.24510042,44.01574828 6.249735528,44.016043 6.2600139,44.00981905 6.278121702,44.00740408 6.284870925,44.00303095 6.296917937,43.9886613 6.297395334,43.98526901 6.28877149,43.97721481 6.276675897,43.97185835 6.259089507,43.97490636 6.257326586,43.95475535 6.245652443,43.94396084"/>
      <polygon id="04030 BLIEUX" points="6.392925601,43.83468126 6.38712958,43.82926797 6.378223547,43.8269953 6.351394175,43.841109 6.3395734,43.84709215 6.335519177,43.85716014 6.315176164,43.86653533 6.307815162,43.87550472 6.308500667,43.8894811 6.322157353,43.90799061 6.31553538,43.9203159 6.31857947,43.92615933 6.33049675,43.92322032 6.347364186,43.91716483 6.366658252,43.90710451 6.370035331,43.90057787 6.38862297,43.88989575 6.402878091,43.89020878 6.427152641,43.87463129 6.415916133,43.85145585 6.400056755,43.84389884 6.392925601,43.83468126"/>
      <polygon id="04031 BRAS-D'ASSE" points="6.111362036,43.89603625 6.097591004,43.9293823 6.100514006,43.93592813 6.093193672,43.94871781 6.093321846,43.95567625 6.098960722,43.96124467 6.111346076,43.95605609 6.114890034,43.94972249 6.122996599,43.94614055 6.149896595,43.95107846 6.154790675,43.94174127 6.151458751,43.93220024 6.159326119,43.92865843 6.161250199,43.92222598 6.161172082,43.91586951 6.145584702,43.90139584 6.13394735,43.89611957 6.111362036,43.89603625"/>
      <polygon id="04032 BRAUX" points="6.694477747,43.96245714 6.69251266,43.97852464 6.675092,43.99762668 6.700205172,44.01743898 6.711090243,44.01070006 6.720304497,43.99103361 6.720739446,43.98775723 6.71275665,43.98455995 6.703986163,43.96942396 6.694477747,43.96245714"/>
      <polygon id="04033 LA BREOLE" points="6.298739134,44.40826857 6.263857568,44.41212818 6.262495029,44.41225866 6.246395843,44.44317759 6.240256403,44.44774599 6.232770425,44.46287668 6.233524696,44.4637465 6.262168794,44.46566826 6.272061704,44.4726909 6.293492428,44.48092732 6.298017199,44.47479142 6.313231978,44.46644237 6.327110102,44.46345638 6.333112895,44.4628425 6.338961378,44.42746338 6.327933269,44.42103079 6.304492977,44.41747511 6.298739134,44.40826857"/>
      <polygon id="04034 LA BRILLANNE" points="5.889613904,43.91002079 5.874856565,43.92220751 5.865451445,43.93687247 5.881529507,43.94849898 5.886077052,43.9494416 5.898721852,43.94488315 5.894510366,43.93877192 5.898351661,43.92582804 5.889613904,43.91002079"/>
      <polygon id="04035 BRUNET" points="6.052876797,43.86044804 6.006671449,43.87007074 5.995125451,43.87635912 5.985501092,43.87563226 5.972501451,43.88610956 5.994867728,43.89114466 5.994705039,43.90062326 6.032820579,43.90957657 6.032539606,43.90311803 6.07010685,43.90821011 6.073927409,43.90605818 6.073952458,43.8956553 6.069270418,43.8901132 6.077428476,43.87766213 6.052876797,43.86044804"/>
      <polygon id="04036 LE BRUSQUET" points="6.328686371,44.14419865 6.305376487,44.14135481 6.28317636,44.14793166 6.282475122,44.16091583 6.267557695,44.1696042 6.268355695,44.17129203 6.273230901,44.18030825 6.281147075,44.18363908 6.291204346,44.19451746 6.29606834,44.19483085 6.304693006,44.20317473 6.312792451,44.19947105 6.323181286,44.17264393 6.339637552,44.15534257 6.328686371,44.14419865"/>
      <polygon id="04037 LE CAIRE" points="6.079311031,44.35742889 6.065093249,44.35827639 6.056635559,44.35511558 6.047706842,44.35671457 6.038041255,44.36845847 6.036828514,44.3786263 6.05298544,44.39267381 6.057236842,44.39160091 6.063306009,44.40020647 6.096831521,44.3816205 6.104251754,44.3584215 6.096025717,44.36022982 6.079311031,44.35742889"/>
      <polygon id="04039 CASTELLANE" points="6.554070504,43.78343459 6.546085988,43.77557883 6.541533368,43.77573598 6.544901334,43.7823372 6.541279808,43.79251674 6.538437762,43.79541953 6.520384057,43.80697592 6.487235942,43.79228753 6.469969496,43.79749577 6.456834549,43.79313038 6.438808399,43.79774519 6.437182284,43.81144269 6.399034525,43.82525844 6.392925601,43.83468126 6.400056755,43.84389884 6.415916133,43.85145585 6.427152641,43.87463129 6.461825927,43.88417481 6.469363556,43.88852046 6.478507355,43.90080463 6.489927221,43.90725024 6.517459896,43.91345599 6.527112937,43.92124311 6.531805864,43.92074906 6.537848606,43.90062665 6.544481066,43.89167326 6.535043484,43.89094345 6.535589825,43.88407941 6.554012294,43.86450023 6.548102775,43.84874806 6.55746788,43.84982117 6.556883167,43.84283185 6.532548897,43.82589521 6.53952145,43.82135417 6.562915627,43.81862811 6.581176864,43.79814861 6.554070504,43.78343459"/>
      <polygon id="04040 LE CASTELLARD-MELAN" points="6.148855007,44.16519541 6.138940703,44.17306432 6.095778577,44.18002926 6.098582874,44.20160476 6.102892566,44.2069147 6.101473511,44.21326034 6.119740631,44.22203876 6.147460299,44.23421002 6.165448057,44.2235765 6.170908421,44.21884268 6.157976999,44.20390173 6.156362715,44.19693989 6.147076744,44.18911749 6.15093981,44.17209863 6.148855007,44.16519541"/>
      <polygon id="04041 LE CASTELLET" points="5.972501451,43.88610956 5.964620898,43.88757572 5.959329409,43.90392056 5.966181147,43.91927859 5.959012257,43.92783052 5.960696325,43.93770936 5.973447175,43.95757248 5.984570344,43.94403926 5.994624482,43.94964508 5.998216524,43.94754719 6.000325683,43.9198767 5.988444867,43.90998981 5.994705039,43.90062326 5.994867728,43.89114466 5.972501451,43.88610956"/>
      <polygon id="04042 CASTELLET-LES-SAUSSES" points="6.76553234,43.97027523 6.761012252,43.97097153 6.74735032,43.98802829 6.720304497,43.99103361 6.711090243,44.01070006 6.700205172,44.01743898 6.709328067,44.02542804 6.716701238,44.04177422 6.710769996,44.04697619 6.69675733,44.0493337 6.695298342,44.05264462 6.70365194,44.05507419 6.705748219,44.06136436 6.690833851,44.07260846 6.687413343,44.08249974 6.689225207,44.08557423 6.698259488,44.08667498 6.700293477,44.09641842 6.705138038,44.09689432 6.714941298,44.11643009 6.719090878,44.1182986 6.724663981,44.1109639 6.740849241,44.09845523 6.749820536,44.08660586 6.75648284,44.07959252 6.747683882,44.06347716 6.745687326,44.04283081 6.735148688,44.03565866 6.743923598,44.01962687 6.753552984,44.01189939 6.770946547,44.00590371 6.779239627,43.99768831 6.783168658,43.99971485 6.797065656,43.99697138 6.801289066,43.99086876 6.789224657,43.98586357 6.785967939,43.97647973 6.779088622,43.97189748 6.76553234,43.97027523"/>
      <polygon id="04043 VAL-DE-CHALVAGNE" points="6.781622233,43.88355825 6.748080558,43.87185937 6.716514654,43.87957932 6.720412236,43.88587008 6.733572591,43.88881703 6.735325498,43.89561319 6.735427175,43.89906934 6.720906478,43.91274621 6.725164798,43.9216555 6.733233376,43.92552427 6.740646235,43.92109006 6.745452558,43.92158296 6.780002927,43.93396085 6.784635603,43.93500769 6.788887821,43.93332853 6.783703867,43.92359744 6.785549503,43.91684815 6.7945215,43.91775295 6.822100777,43.9320087 6.832526358,43.92481353 6.832286437,43.91846082 6.801382125,43.91035137 6.781622233,43.88355825"/>
      <polygon id="04045 CERESTE" points="5.550928641,43.81741696 5.544782352,43.81761464 5.548647532,43.84796585 5.56132803,43.857465 5.572737029,43.86350829 5.590289891,43.8872329 5.610417136,43.88877031 5.625093709,43.85676851 5.624433208,43.84672684 5.63073068,43.84191101 5.631372653,43.82856957 5.627681889,43.83080153 5.599380669,43.82713101 5.57171885,43.82929061 5.563798025,43.82073454 5.550928641,43.81741696"/>
      <polygon id="04046 LE CHAFFAUT-SAINT-JURSON" points="6.081423786,43.99828068 6.084340873,44.00099953 6.082328905,44.01108985 6.090641435,44.02697758 6.100724454,44.02920517 6.132361754,44.03515823 6.143760887,44.04126242 6.159577483,44.05266047 6.18380597,44.04192391 6.202541158,44.04089069 6.211410258,44.03275812 6.203161344,44.03149572 6.196282526,44.02394154 6.187417385,44.02234473 6.177346641,44.02978058 6.163071711,44.02811361 6.160753684,44.02503708 6.164139474,44.0113833 6.155541583,43.99901276 6.136529232,44.00020836 6.111013834,44.00891749 6.102763983,44.00569324 6.100329372,43.99925034 6.081423786,43.99828068"/>
      <polygon id="04047 CHAMPTERCIER" points="6.164350733,44.07494212 6.141203828,44.07525747 6.117294566,44.0851464 6.114246364,44.09840193 6.116356273,44.10839421 6.128440047,44.11330114 6.132628732,44.1192075 6.157810009,44.1207545 6.165305819,44.11209795 6.174209219,44.08570001 6.164350733,44.07494212"/>
      <polygon id="04049 CHATEAU-ARNOUX-SAINT-AUBAN" points="5.985843854,44.04668553 5.983604426,44.06280541 5.967742333,44.07455796 5.970545914,44.1009797 5.977222038,44.10578821 5.979167653,44.10880665 6.005110782,44.11290772 6.022145022,44.09986528 6.007642079,44.07851287 6.006275745,44.06495013 5.995946047,44.05356968 5.985843854,44.04668553"/>
      <polygon id="04050 CHATEAUFORT" points="6.035392282,44.24550905 6.024671256,44.25148879 5.998363101,44.25688527 5.993771506,44.26606322 6.022203633,44.27809365 6.035658554,44.30364756 6.041393422,44.30532664 6.052564629,44.30428728 6.057913172,44.29856259 6.048231803,44.28296845 6.053736273,44.27737477 6.053439883,44.2704739 6.040857194,44.27429101 6.037777929,44.27180896 6.035392282,44.24550905"/>
      <polygon id="04051 CHATEAUNEUF-MIRAVAIL" points="5.729282972,44.12860986 5.720504154,44.13615896 5.706983932,44.13663783 5.697448506,44.14387948 5.689080306,44.14438228 5.678605452,44.14609769 5.682728094,44.16348628 5.691923618,44.16190101 5.700099918,44.17415528 5.733101979,44.17215799 5.749457318,44.16493147 5.742502327,44.14137457 5.748354173,44.13178065 5.729282972,44.12860986"/>
      <polygon id="04053 CHATEAUNEUF-VAL-SAINT-DONAT" points="5.935113202,44.07339314 5.925998715,44.08150879 5.891255035,44.09360867 5.880106814,44.11259074 5.903479575,44.11667519 5.909524844,44.11167827 5.942977769,44.10661456 5.977222038,44.10578821 5.970545914,44.1009797 5.967742333,44.07455796 5.958382918,44.0761983 5.935113202,44.07339314"/>
      <polygon id="04054 CHATEAUREDON" points="6.212006589,44.00548404 6.196282526,44.02394154 6.203161344,44.03149572 6.211410258,44.03275812 6.234646743,44.04706224 6.244203605,44.04623882 6.250134376,44.04074823 6.239806858,44.02911038 6.24510042,44.01574828 6.222601463,44.01165765 6.212006589,44.00548404"/>
      <polygon id="04055 CHAUDON-NORANTE" points="6.318666278,43.93728997 6.307560685,43.95901078 6.288939031,43.97384993 6.28877149,43.97721481 6.297395334,43.98526901 6.296917937,43.9886613 6.284870925,44.00303095 6.296633384,44.00854098 6.281143832,44.02108629 6.279176899,44.03462098 6.292376644,44.03767453 6.305967191,44.03517481 6.31178751,44.03970995 6.320747477,44.03917711 6.318141857,44.02575314 6.325437844,44.01322663 6.364342646,43.9884804 6.354367934,43.9771487 6.357329369,43.97151789 6.34801244,43.97046159 6.334013816,43.96143146 6.329599278,43.94221762 6.320507083,43.9404317 6.318666278,43.93728997"/>
      <polygon id="04057 CLAMENSANE" points="6.090369876,44.29916801 6.072106335,44.30424723 6.052564629,44.30428728 6.041393422,44.30532664 6.045857217,44.32279584 6.054032261,44.33152319 6.054983012,44.34217154 6.075671625,44.35099061 6.079311031,44.35742889 6.096025717,44.36022982 6.104251754,44.3584215 6.106338319,44.33877809 6.10257961,44.33248821 6.11405863,44.32235349 6.094752738,44.31235891 6.090369876,44.29916801"/>
      <polygon id="04058 CLARET" points="5.952542475,44.34189773 5.95129014,44.34508407 5.933098845,44.34551666 5.926030533,44.34962329 5.937460108,44.35990282 5.941362275,44.37266179 5.953542575,44.39501766 5.971520136,44.4033708 5.977863434,44.3985512 5.990471638,44.39604744 5.999378604,44.39768783 6.006200809,44.38561985 6.003543609,44.38289085 5.982627311,44.37570372 5.983992728,44.36896469 5.973032274,44.36255944 5.968115886,44.34949555 5.952542475,44.34189773"/>
      <polygon id="04059 CLUMANC" points="6.364342646,43.9884804 6.325437844,44.01322663 6.318141857,44.02575314 6.320747477,44.03917711 6.329310353,44.0557711 6.362108208,44.0542188 6.399029545,44.04664605 6.41810995,44.04699751 6.430631184,44.02886767 6.438363638,44.00639178 6.437443445,43.99714201 6.427991686,43.99104288 6.417037499,43.99751153 6.396163596,43.99045098 6.377663326,43.98882625 6.364342646,43.9884804"/>
      <polygon id="04061 COLMARS" points="6.700293477,44.09641842 6.678978443,44.10437189 6.677934985,44.11472366 6.665611785,44.11989417 6.664384237,44.12665688 6.663110943,44.12999721 6.650736615,44.13522171 6.646724342,44.14151831 6.605167815,44.15821952 6.614785623,44.17011151 6.604445989,44.17741679 6.598522703,44.21552639 6.619322498,44.22441129 6.634176252,44.2160812 6.65653188,44.22179002 6.714075418,44.21822629 6.717369482,44.20864424 6.698475682,44.19015301 6.702656693,44.18417297 6.701234745,44.17753504 6.687238277,44.16830224 6.704946064,44.14480025 6.707956122,44.12438875 6.719090878,44.1182986 6.714941298,44.11643009 6.705138038,44.09689432 6.700293477,44.09641842"/>
      <polygon id="04062 LA CONDAMINE-CHATELARD" points="6.677465624,44.43827909 6.665150819,44.43535531 6.653172303,44.4364472 6.641022212,44.43995853 6.632299693,44.44691503 6.64166954,44.48554481 6.653630055,44.49452123 6.668497059,44.50029975 6.703956383,44.49262547 6.739966358,44.46982542 6.763681215,44.47157744 6.769512208,44.46634926 6.767745931,44.4566584 6.778648401,44.44225286 6.740178541,44.43652759 6.681742337,44.44001965 6.677465624,44.43827909"/>
      <polygon id="04063 CORBIERES" points="5.757332978,43.72940911 5.748016801,43.74148485 5.716274264,43.75693073 5.713558249,43.78112007 5.721024659,43.78864133 5.725485304,43.788872 5.72860487,43.78261709 5.772123694,43.76868739 5.783447511,43.75780064 5.781343239,43.75565739 5.757332978,43.72940911"/>
      <polygon id="04065 CRUIS" points="5.802953849,44.04743421 5.797784817,44.06090413 5.808587381,44.06671549 5.807825244,44.10493863 5.812698396,44.12209649 5.833171679,44.11520157 5.864338258,44.11249079 5.882755639,44.06719205 5.864638151,44.06236303 5.838033562,44.0470524 5.824303284,44.05041561 5.814961095,44.05845542 5.802953849,44.04743421"/>
      <polygon id="04066 CURBANS" points="6.026280543,44.37679993 6.015747338,44.38160224 6.003543609,44.38289085 6.006200809,44.38561985 5.999378604,44.39768783 5.990471638,44.39604744 5.977863434,44.3985512 5.971520136,44.4033708 5.977589192,44.40718845 5.992139836,44.41167645 6.019295305,44.41915083 6.024752888,44.43259485 6.032485394,44.43682344 6.056239947,44.44944573 6.058558537,44.44650761 6.05497669,44.43328317 6.066266447,44.41866372 6.065748713,44.40192216 6.063306009,44.40020647 6.057236842,44.39160091 6.05298544,44.39267381 6.036828514,44.3786263 6.026280543,44.37679993"/>
      <polygon id="04067 CUREL" points="5.700099918,44.17415528 5.691923618,44.16190101 5.682728094,44.16348628 5.645830271,44.16744476 5.643896743,44.17052634 5.651592585,44.18957708 5.673196139,44.18904376 5.676037326,44.19143313 5.69239018,44.1862688 5.698523577,44.18101165 5.700099918,44.17415528"/>
      <polygon id="04068 DAUPHIN" points="5.79074429,43.8758075 5.781962836,43.87493315 5.774221281,43.88290142 5.762227863,43.87844212 5.755105453,43.88227812 5.753829967,43.89171131 5.758273286,43.89295884 5.759485889,43.89975387 5.767190538,43.90840167 5.765704917,43.91167209 5.780730336,43.91531569 5.794764918,43.89487611 5.793902911,43.88845962 5.799642455,43.88032515 5.79074429,43.8758075"/>
      <polygon id="04069 DEMANDOLX" points="6.601994719,43.84470188 6.589184034,43.84584504 6.5797503,43.85241599 6.55746788,43.84982117 6.548102775,43.84874806 6.554012294,43.86450023 6.535589825,43.88407941 6.535043484,43.89094345 6.544481066,43.89167326 6.568945275,43.89225412 6.578715793,43.8847723 6.606597165,43.87835887 6.620213987,43.88078162 6.60563437,43.86765242 6.601994719,43.84470188"/>
      <polygon id="04070 DIGNE-LES-BAINS" points="6.211410258,44.03275812 6.202541158,44.04089069 6.18380597,44.04192391 6.159577483,44.05266047 6.174573178,44.06535037 6.174522333,44.06869364 6.164350733,44.07494212 6.174209219,44.08570001 6.165305819,44.11209795 6.157810009,44.1207545 6.17621537,44.13080663 6.187044512,44.14170705 6.188933102,44.14482292 6.181651494,44.14905209 6.186162262,44.15519963 6.19490622,44.15761151 6.222983825,44.14479974 6.237267398,44.1447481 6.244838229,44.15289288 6.242191868,44.16308749 6.254962812,44.17346508 6.268355695,44.17129203 6.267557695,44.1696042 6.255080254,44.15061639 6.240173674,44.13669898 6.235750788,44.1196512 6.265627876,44.10926102 6.287381485,44.08848593 6.300080925,44.0934638 6.313231573,44.09670603 6.340864317,44.09470438 6.338522456,44.07802019 6.329310353,44.0557711 6.320747477,44.03917711 6.31178751,44.03970995 6.296112942,44.04764194 6.267450614,44.07505702 6.25751174,44.06754335 6.252198108,44.05785577 6.239557929,44.0530422 6.234646743,44.04706224 6.211410258,44.03275812"/>
      <polygon id="04072 DRAIX" points="6.418417098,44.11408512 6.387886125,44.10703392 6.380590648,44.11113309 6.362251862,44.11035529 6.328241316,44.13659989 6.328686371,44.14419865 6.339637552,44.15534257 6.347865742,44.15801041 6.365589017,44.14666608 6.374887646,44.14523601 6.392847471,44.14114997 6.400609646,44.12870226 6.409889125,44.13055798 6.422574306,44.12560389 6.418417098,44.11408512"/>
      <polygon id="04073 ENCHASTRAYES" points="6.755088796,44.33283413 6.746391799,44.34086285 6.736873726,44.34048386 6.720719801,44.33370537 6.696954909,44.33296618 6.664772615,44.33735984 6.671945731,44.38292512 6.670125892,44.38993365 6.684585723,44.39043269 6.69845972,44.399844 6.716806826,44.40436261 6.727058156,44.39701379 6.737897061,44.3818578 6.757596185,44.37232811 6.755836942,44.35187735 6.760503341,44.34233663 6.755088796,44.33283413"/>
      <polygon id="04074 ENTRAGES" points="6.284870925,44.00303095 6.278121702,44.00740408 6.2600139,44.00981905 6.249735528,44.016043 6.24510042,44.01574828 6.239806858,44.02911038 6.250134376,44.04074823 6.244203605,44.04623882 6.234646743,44.04706224 6.239557929,44.0530422 6.252198108,44.05785577 6.25751174,44.06754335 6.267450614,44.07505702 6.296112942,44.04764194 6.31178751,44.03970995 6.305967191,44.03517481 6.292376644,44.03767453 6.279176899,44.03462098 6.281143832,44.02108629 6.296633384,44.00854098 6.284870925,44.00303095"/>
      <polygon id="04075 ENTREPIERRES" points="5.954189091,44.15760687 5.95559514,44.16130688 5.95229107,44.16779089 5.956712724,44.17701208 5.971687439,44.18526322 5.978215974,44.21236922 5.975940952,44.22248316 5.982153208,44.22771899 5.985120498,44.23221412 6.035673274,44.22359456 6.043837167,44.21512643 6.05582097,44.20927166 6.060487507,44.20035912 6.084287199,44.2037551 6.098582874,44.20160476 6.095778577,44.18002926 6.087919737,44.17177461 6.057742256,44.18077208 6.040470595,44.17542444 6.031093384,44.17607135 6.024133678,44.16735521 5.988229931,44.17754493 5.954189091,44.15760687"/>
      <polygon id="04076 ENTREVAUX" points="6.832526358,43.92481353 6.822100777,43.9320087 6.7945215,43.91775295 6.785549503,43.91684815 6.783703867,43.92359744 6.788887821,43.93332853 6.784635603,43.93500769 6.780002927,43.93396085 6.745452558,43.92158296 6.740646235,43.92109006 6.733233376,43.92552427 6.725164798,43.9216555 6.722044439,43.92827583 6.728680109,43.9443478 6.738546814,43.95181289 6.740045302,43.96172641 6.76553234,43.97027523 6.779088622,43.97189748 6.785967939,43.97647973 6.789224657,43.98586357 6.801289066,43.99086876 6.834712933,43.98328562 6.845487159,43.97762684 6.848068639,43.96522767 6.848904587,43.95507052 6.872764577,43.95340712 6.882008784,43.93786919 6.891724348,43.93022482 6.878212317,43.9278854 6.859700175,43.92974885 6.832526358,43.92481353"/>
      <polygon id="04077 ENTREVENNES" points="5.994705039,43.90062326 5.988444867,43.90998981 6.000325683,43.9198767 5.998216524,43.94754719 6.021867482,43.95820735 6.040735202,43.95804413 6.058185823,43.96353735 6.064368234,43.96859693 6.065847423,43.97546346 6.074562929,43.97773146 6.077779338,43.9744706 6.076598158,43.97107234 6.08310881,43.96647562 6.081196519,43.95624406 6.057040277,43.93031785 6.038728638,43.9189948 6.032820579,43.90957657 5.994705039,43.90062326"/>
      <polygon id="04079 L'ESCALE" points="6.024483283,44.04747072 5.995946047,44.05356968 6.006275745,44.06495013 6.007642079,44.07851287 6.022145022,44.09986528 6.037538059,44.10654603 6.059932774,44.10457162 6.06751349,44.10815162 6.064757874,44.09900537 6.075416596,44.08947418 6.076324334,44.08638624 6.065220656,44.08254536 6.02829668,44.06047015 6.023192667,44.0544416 6.024483283,44.04747072"/>
      <polygon id="04081 ESPARRON-DE-VERDON" points="5.984534232,43.71449218 5.975232094,43.71490001 5.965626695,43.72263613 5.951862353,43.72153358 5.944047087,43.72552724 5.939572069,43.73147421 5.941732934,43.73824139 5.938253287,43.74835763 5.925918762,43.7524898 5.925661613,43.75596354 5.961409548,43.76375897 6.003000716,43.76335843 6.016553714,43.76447871 6.024099572,43.76078441 6.037585487,43.75970665 6.041744337,43.75403431 6.046170721,43.75480208 6.047788016,43.7518121 6.060958377,43.75068618 6.06427475,43.74139849 6.062923937,43.73959943 6.039198494,43.74025542 6.000941938,43.72648563 5.984534232,43.71449218"/>
      <polygon id="04084 ESTOUBLON" points="6.232869476,43.9221014 6.218833369,43.92047151 6.210644828,43.92398214 6.192725184,43.91975196 6.161250199,43.92222598 6.159326119,43.92865843 6.151458751,43.93220024 6.154790675,43.94174127 6.149896595,43.95107846 6.150666651,43.95734303 6.145122267,43.96600525 6.147663132,43.97859581 6.170391364,43.96854452 6.183438712,43.96568825 6.186142805,43.96832957 6.198814319,43.96345579 6.205829363,43.95448627 6.219670735,43.95650213 6.23348765,43.95367111 6.245652443,43.94396084 6.255800201,43.92562637 6.247803454,43.92766595 6.245583496,43.9217242 6.232869476,43.9221014"/>
      <polygon id="04085 FAUCON-DU-CAIRE" points="6.104251754,44.3584215 6.096831521,44.3816205 6.063306009,44.40020647 6.065748713,44.40192216 6.075365821,44.40292413 6.082034991,44.40793561 6.093179053,44.42695585 6.116118227,44.43212894 6.111557413,44.41961845 6.123567965,44.40607143 6.117956641,44.40048288 6.124809055,44.38758619 6.13656144,44.37658547 6.104251754,44.3584215"/>
      <polygon id="04086 FAUCON-DE-BARCELONNETTE" points="6.670125892,44.38993365 6.652199061,44.41281529 6.653172303,44.4364472 6.665150819,44.43535531 6.677465624,44.43827909 6.685330659,44.42965332 6.703842034,44.41869572 6.716806826,44.40436261 6.69845972,44.399844 6.684585723,44.39043269 6.670125892,44.38993365"/>
      <polygon id="04087 FONTIENNE" points="5.807672011,43.99575557 5.805531414,43.98952464 5.797140418,43.98807363 5.768245427,44.00537911 5.777434703,44.01318804 5.808710944,44.02847349 5.810786965,44.02248538 5.805659288,44.01365637 5.809007909,44.00792386 5.807672011,43.99575557"/>
      <polygon id="04088 FORCALQUIER" points="5.816754234,43.91097933 5.805600005,43.91668763 5.782263843,43.91585295 5.774290461,43.94273793 5.75581741,43.95376853 5.742388445,43.95446662 5.739160263,43.95706902 5.754247247,43.99274681 5.768245427,44.00537911 5.797140418,43.98807363 5.805531414,43.98952464 5.807672011,43.99575557 5.82047271,43.9947777 5.824896891,43.98613515 5.819300148,43.98066017 5.81608295,43.96401089 5.820136249,43.95067739 5.829211159,43.94289623 5.817593547,43.92949042 5.826514441,43.9224339 5.816754234,43.91097933"/>
      <polygon id="04090 LE FUGERET" points="6.622473726,43.98448165 6.61773368,43.99708053 6.607697664,44.00769187 6.651852477,44.01942493 6.677636965,44.03472437 6.681428235,44.04448969 6.695298342,44.05264462 6.69675733,44.0493337 6.710769996,44.04697619 6.716701238,44.04177422 6.709328067,44.02542804 6.700205172,44.01743898 6.675092,43.99762668 6.646520509,43.98490719 6.622473726,43.98448165"/>
      <polygon id="04091 GANAGOBIE" points="5.916829609,43.98040655 5.896089942,43.98951363 5.887737539,43.99798398 5.889040798,44.0185192 5.893695817,44.0244122 5.901885524,44.01587361 5.925650196,44.01520445 5.937143832,44.00890726 5.929985042,44.00485741 5.916829609,43.98040655"/>
      <polygon id="04092 LA GARDE" points="6.581176864,43.79814861 6.562915627,43.81862811 6.53952145,43.82135417 6.532548897,43.82589521 6.556883167,43.84283185 6.55746788,43.84982117 6.5797503,43.85241599 6.589184034,43.84584504 6.601994719,43.84470188 6.590649245,43.82183464 6.586912484,43.80531955 6.581176864,43.79814861"/>
      <polygon id="04093 GIGORS" points="6.123567965,44.40607143 6.111557413,44.41961845 6.116118227,44.43212894 6.119520323,44.43408667 6.142928935,44.44285369 6.156255287,44.44211231 6.162351879,44.43442385 6.171974853,44.42284067 6.165523861,44.4144947 6.164033608,44.4112222 6.149784085,44.41150465 6.137766832,44.40648747 6.123567965,44.40607143"/>
      <polygon id="04094 GREOUX-LES-BAINS" points="5.849042985,43.71817799 5.843043334,43.73485767 5.831820054,43.74595535 5.781343239,43.75565739 5.783447511,43.75780064 5.807694073,43.7747006 5.824151398,43.80448533 5.84561035,43.79697551 5.871150815,43.80624682 5.889975589,43.80550612 5.897832215,43.80155145 5.916729161,43.80055203 5.923312783,43.79557596 5.932383191,43.79426964 5.938094744,43.78881183 5.922232106,43.77613633 5.91831794,43.76275208 5.922661135,43.7575389 5.905001703,43.75277974 5.903144169,43.73551346 5.888624463,43.72636402 5.874982943,43.72298841 5.855748547,43.72318868 5.849042985,43.71817799"/>
      <polygon id="04095 L'HOSPITALET" points="5.729282972,44.12860986 5.724196936,44.11510152 5.726361438,44.09063297 5.722628869,44.08417869 5.71058171,44.07912822 5.707050023,44.07264151 5.698220952,44.06978858 5.689949724,44.07792598 5.694786944,44.09011765 5.694364476,44.09966501 5.690394336,44.10106841 5.688215384,44.10414781 5.692227572,44.11762086 5.686586448,44.13422183 5.689080306,44.14438228 5.697448506,44.14387948 5.706983932,44.13663783 5.720504154,44.13615896 5.729282972,44.12860986"/>
      <polygon id="04096 JAUSIERS" points="6.796833855,44.31670186 6.784506964,44.32589551 6.755088796,44.33283413 6.760503341,44.34233663 6.755836942,44.35187735 6.757596185,44.37232811 6.737897061,44.3818578 6.727058156,44.39701379 6.716806826,44.40436261 6.703842034,44.41869572 6.685330659,44.42965332 6.677465624,44.43827909 6.681742337,44.44001965 6.740178541,44.43652759 6.778648401,44.44225286 6.807938077,44.43371871 6.847509464,44.40415198 6.861923194,44.36042338 6.87153974,44.35280324 6.862962657,44.34657094 6.854558618,44.34377468 6.840886579,44.34568609 6.823419386,44.33381316 6.809935138,44.33028001 6.804541527,44.32082408 6.796833855,44.31670186"/>
      <polygon id="04097 LA JAVIE" points="6.374887646,44.14523601 6.365589017,44.14666608 6.347865742,44.15801041 6.339637552,44.15534257 6.323181286,44.17264393 6.312792451,44.19947105 6.304693006,44.20317473 6.29606834,44.19483085 6.291204346,44.19451746 6.276790924,44.19557959 6.272224636,44.20912075 6.274315396,44.21909406 6.257040849,44.23480577 6.279987751,44.23184324 6.294902871,44.24012613 6.302504172,44.24864541 6.311743839,44.24697069 6.312421447,44.24677007 6.310811651,44.22971058 6.324925594,44.21569837 6.348170355,44.20352305 6.352617653,44.18361253 6.376865811,44.17241808 6.374221838,44.16604906 6.379163538,44.15044652 6.374887646,44.14523601"/>
      <polygon id="04099 LAMBRUISSE" points="6.438363638,44.00639178 6.430631184,44.02886767 6.41810995,44.04699751 6.427781796,44.05474865 6.430260146,44.06146354 6.421557999,44.08129391 6.428960118,44.09026934 6.455472084,44.06558919 6.459165701,44.04845481 6.468535955,44.04050065 6.485493592,44.03414192 6.487992469,44.02784616 6.456814374,44.02454789 6.453025333,44.0225956 6.456537206,44.01298957 6.438363638,44.00639178"/>
      <path style="stroke-width:1.6066941" d="m 889.96875,145.6875 -17.78125,8.875 -10.71875,23.875 3.96875,4.96875 -1.1875,9.1875 7.40625,13.65625 19.9375,8.09375 26.9375,28.03125 9.8125,41.4375 6.5625,7.21875 10.8125,-7.8125 -0.28125,-3.34375 6.0625,-7.65625 -0.375,-43.46875 11.9375,-5.8125 10.0625,-0.34375 9.25,-4.03125 0.625,-3.03125 -3.90625,-5.46875 -13.53125,-9.96875 -2.15625,-2.5625 -6.25,-15.59375 -16.875,-10.875 -2.71875,-9.34375 -3,-1.46875 -6.625,-11.09375 -6.5625,0.71875 -12.875,9.0625 -9.40625,-9.3125 -9.125,-3.9375 z" transform="matrix(0.00146901,0,0,-0.0010548,5.4981653,44.659796)" id="04120 VAL-D'ORONAYE" inkscape:connector-curvature="0"/>
      <polygon id="04101 LARDIERS" points="5.755235929,44.08517326 5.742296363,44.08033777 5.730460648,44.05732696 5.714313416,44.03977166 5.699755773,44.03895211 5.692057818,44.04775991 5.691012534,44.05470176 5.682202733,44.05774571 5.675282729,44.06461507 5.685921409,44.07965487 5.689949724,44.07792598 5.698220952,44.06978858 5.707050023,44.07264151 5.71058171,44.07912822 5.722628869,44.08417869 5.726361438,44.09063297 5.724196936,44.11510152 5.729282972,44.12860986 5.748354173,44.13178065 5.767482654,44.12426552 5.767214468,44.1141315 5.755235929,44.08517326"/>
      <polygon id="04102 LE LAUZET-UBAYE" points="6.41226377,44.36680359 6.387197935,44.39773462 6.386497822,44.4093431 6.399156492,44.41981923 6.404801603,44.42942993 6.40142953,44.44987934 6.366212938,44.46071003 6.333112895,44.4628425 6.327110102,44.46345638 6.329482007,44.46890789 6.337659955,44.47081393 6.340235429,44.4798992 6.356472564,44.47400884 6.385320988,44.48398397 6.408369041,44.48048048 6.409319712,44.47391849 6.415901608,44.46913736 6.438481177,44.47212048 6.445131861,44.46706507 6.458981991,44.46433347 6.468074058,44.45236083 6.481649387,44.45402313 6.481731491,44.44391952 6.468560025,44.43363046 6.464964795,44.42359775 6.455295157,44.41576515 6.454355939,44.41232561 6.466356565,44.40158637 6.462971471,44.3914571 6.436041009,44.38398474 6.41226377,44.36680359"/>
      <polygon id="04104 LIMANS" points="5.739160263,43.95706902 5.717723546,43.96056696 5.705825388,43.97359534 5.696450428,43.98523643 5.685063005,43.99025337 5.685569954,43.99359981 5.700555464,44.00211879 5.709719893,44.00384622 5.712920161,44.01026867 5.720707989,44.01422665 5.738020585,44.00913884 5.754247247,43.99274681 5.739160263,43.95706902"/>
      <polygon id="04106 LURS" points="5.865451445,43.93687247 5.864047528,43.94564465 5.853113327,43.96875087 5.839242784,43.97866705 5.850993743,43.98869971 5.865053681,43.97981269 5.871290376,43.99195995 5.887737539,43.99798398 5.896089942,43.98951363 5.916829609,43.98040655 5.900808841,43.94842102 5.898721852,43.94488315 5.886077052,43.9494416 5.881529507,43.94849898 5.865451445,43.93687247"/>
      <polygon id="04107 MAJASTRES" points="6.287906685,43.85802046 6.254955961,43.89772954 6.245362356,43.90973336 6.233753324,43.91549109 6.232869476,43.9221014 6.245583496,43.9217242 6.247803454,43.92766595 6.255800201,43.92562637 6.260760076,43.91995696 6.278914023,43.92361064 6.31553538,43.9203159 6.322157353,43.90799061 6.308500667,43.8894811 6.307815162,43.87550472 6.315176164,43.86653533 6.287906685,43.85802046"/>
      <polygon id="04108 MALIJAI" points="6.076163842,43.99537552 6.068810156,44.00385035 6.051267005,44.00666503 6.042701638,44.01428015 6.034482188,44.01156335 6.017845717,44.02802843 6.015489161,44.04505296 6.024483283,44.04747072 6.023192667,44.0544416 6.02829668,44.06047015 6.065220656,44.08254536 6.053914072,44.05348051 6.05562996,44.04333588 6.081371391,44.02845505 6.090641435,44.02697758 6.082328905,44.01108985 6.084340873,44.00099953 6.081423786,43.99828068 6.076163842,43.99537552"/>
      <polygon id="04109 MALLEFOUGASSE-AUGES" points="5.885487538,44.04125427 5.88076556,44.06069691 5.882755639,44.06719205 5.864338258,44.11249079 5.880106814,44.11259074 5.891255035,44.09360867 5.925998715,44.08150879 5.935113202,44.07339314 5.929078721,44.0680428 5.930000071,44.06119127 5.924892091,44.05536566 5.90611697,44.05404655 5.889257487,44.04763923 5.885487538,44.04125427"/>
      <polygon id="04110 MALLEMOISSON" points="6.100724454,44.02920517 6.097102115,44.03559468 6.111162806,44.05688489 6.134566465,44.04844378 6.143760887,44.04126242 6.132361754,44.03515823 6.100724454,44.02920517"/>
      <polygon id="04111 MANE" points="5.765704917,43.91167209 5.758472172,43.91614142 5.735121645,43.91965542 5.729027518,43.92898387 5.716734461,43.93405394 5.701053459,43.95130898 5.705825388,43.97359534 5.717723546,43.96056696 5.739160263,43.95706902 5.742388445,43.95446662 5.75581741,43.95376853 5.774290461,43.94273793 5.782263843,43.91585295 5.780730336,43.91531569 5.765704917,43.91167209"/>
      <polygon id="04112 MANOSQUE" points="5.807694073,43.7747006 5.799204605,43.7901455 5.77555234,43.80605802 5.741484201,43.83377132 5.728275439,43.83666888 5.727149455,43.84539532 5.729056368,43.85249717 5.737081066,43.84883836 5.741091848,43.85048451 5.743283749,43.85700273 5.754706948,43.86266692 5.762227863,43.87844212 5.774221281,43.88290142 5.781962836,43.87493315 5.79074429,43.8758075 5.796770447,43.86718863 5.814922387,43.8660194 5.852210505,43.83483017 5.826296468,43.81115618 5.824151398,43.80448533 5.807694073,43.7747006"/>
      <polygon id="04113 MARCOUX" points="6.300080925,44.0934638 6.287381485,44.08848593 6.265627876,44.10926102 6.235750788,44.1196512 6.240173674,44.13669898 6.255080254,44.15061639 6.267557695,44.1696042 6.282475122,44.16091583 6.28317636,44.14793166 6.305376487,44.14135481 6.328686371,44.14419865 6.328241316,44.13659989 6.30486322,44.1086517 6.300080925,44.0934638"/>
      <polygon id="04115 MEAILLES" points="6.607697664,44.00769187 6.588983249,44.02348848 6.595981119,44.03623213 6.613606426,44.04081372 6.617050939,44.05452962 6.635261708,44.05916074 6.653792578,44.05491256 6.670252619,44.06237148 6.679758836,44.07798197 6.684653189,44.07809663 6.690833851,44.07260846 6.705748219,44.06136436 6.70365194,44.05507419 6.695298342,44.05264462 6.681428235,44.04448969 6.677636965,44.03472437 6.651852477,44.01942493 6.607697664,44.00769187"/>
      <polygon id="04116 LES MEES" points="5.960696325,43.93770936 5.900808841,43.94842102 5.916829609,43.98040655 5.929985042,44.00485741 5.937143832,44.00890726 5.9643201,44.03524709 5.975435875,44.04106976 5.985843854,44.04668553 5.995946047,44.05356968 6.024483283,44.04747072 6.015489161,44.04505296 6.017845717,44.02802843 6.034482188,44.01156335 6.025371526,44.00943805 6.007199353,43.99331338 5.988704304,43.99033512 5.973447175,43.95757248 5.960696325,43.93770936"/>
      <polygon id="04118 MELVE" points="6.004092027,44.32743108 5.989833948,44.32881059 5.979944039,44.34071728 5.966830081,44.34508034 5.953678484,44.34105652 5.952542475,44.34189773 5.968115886,44.34949555 5.973032274,44.36255944 5.983992728,44.36896469 5.982627311,44.37570372 6.003543609,44.38289085 6.015747338,44.38160224 6.026280543,44.37679993 6.002844102,44.36449725 6.007760083,44.35113904 6.004092027,44.32743108"/>
      <polygon id="04121 MEZEL" points="6.186142805,43.96832957 6.183438712,43.96568825 6.170391364,43.96854452 6.147663132,43.97859581 6.154730791,43.98662443 6.155541583,43.99901276 6.164139474,44.0113833 6.160753684,44.02503708 6.163071711,44.02811361 6.177346641,44.02978058 6.187417385,44.02234473 6.196282526,44.02394154 6.212006589,44.00548404 6.197213118,43.99137986 6.191658683,43.97418535 6.186142805,43.96832957"/>
      <polygon id="04122 MIRABEAU" points="6.090641435,44.02697758 6.081371391,44.02845505 6.05562996,44.04333588 6.053914072,44.05348051 6.065220656,44.08254536 6.076324334,44.08638624 6.075416596,44.08947418 6.076361607,44.09285236 6.080975243,44.09196604 6.089708826,44.07973134 6.091131964,44.06636955 6.107926078,44.0602825 6.111162806,44.05688489 6.097102115,44.03559468 6.100724454,44.02920517 6.090641435,44.02697758"/>
      <polygon id="04123 MISON" points="5.872681915,44.22420755 5.869427723,44.23069662 5.861810372,44.23514675 5.859308221,44.24540785 5.831220897,44.25931279 5.826753366,44.26321979 5.823013317,44.27646614 5.835908549,44.29090562 5.836127495,44.29753821 5.849039162,44.30066301 5.875487956,44.2909669 5.875073919,44.2771156 5.880136607,44.27114631 5.912233149,44.24951125 5.905634378,44.23346414 5.88869209,44.22770541 5.879496824,44.22891977 5.872681915,44.22420755"/>
      <polygon id="04124 MONTAGNAC-MONTPEZAT" points="6.090296416,43.72897394 6.084956444,43.7345016 6.06427475,43.74139849 6.060958377,43.75068618 6.047788016,43.7518121 6.046170721,43.75480208 6.059637609,43.76385309 6.060217592,43.77422904 6.065896451,43.77977881 6.070447873,43.79625687 6.129779616,43.79514508 6.142455342,43.78418028 6.11640949,43.76495388 6.128293421,43.75049229 6.128625142,43.73679429 6.11086669,43.74575042 6.095298454,43.72961526 6.090296416,43.72897394"/>
      <polygon id="04126 MONTCLAR" points="6.335836135,44.3734182 6.316275994,44.38388405 6.310362073,44.397045 6.298739134,44.40826857 6.304492977,44.41747511 6.327933269,44.42103079 6.338961378,44.42746338 6.355099824,44.41528695 6.383227713,44.41183131 6.386497822,44.4093431 6.387197935,44.39773462 6.353382207,44.38483181 6.335836135,44.3734182"/>
      <polygon id="04127 MONTFORT" points="5.975435875,44.04106976 5.967993681,44.05398909 5.960589607,44.05834164 5.932167246,44.0445885 5.927281987,44.03602822 5.922490881,44.03657059 5.918461921,44.03858747 5.91683105,44.04184619 5.927012733,44.04900451 5.924892091,44.05536566 5.930000071,44.06119127 5.929078721,44.0680428 5.935113202,44.07339314 5.958382918,44.0761983 5.967742333,44.07455796 5.983604426,44.06280541 5.985843854,44.04668553 5.975435875,44.04106976"/>
      <polygon id="04128 MONTFURON" points="5.674483354,43.80736045 5.659803355,43.81571523 5.654445137,43.82511099 5.657558626,43.8276103 5.652123416,43.84341879 5.6931238,43.8478076 5.705219014,43.84468989 5.721089858,43.85008491 5.727149455,43.84539532 5.728275439,43.83666888 5.721025055,43.82417192 5.717032989,43.82234457 5.708296552,43.82457891 5.695610218,43.81480863 5.681883474,43.81536332 5.674483354,43.80736045"/>
      <polygon id="04129 MONTJUSTIN" points="5.654445137,43.82511099 5.64691718,43.82610437 5.631372653,43.82856957 5.63073068,43.84191101 5.624433208,43.84672684 5.625093709,43.85676851 5.667112226,43.85855857 5.688081484,43.85117354 5.6931238,43.8478076 5.652123416,43.84341879 5.657558626,43.8276103 5.654445137,43.82511099"/>
      <polygon id="04130 MONTLAUX" points="5.846206708,44.01323006 5.827504219,44.03215006 5.807132487,44.04000537 5.802953849,44.04743421 5.814961095,44.05845542 5.824303284,44.05041561 5.838033562,44.0470524 5.864638151,44.06236303 5.882755639,44.06719205 5.88076556,44.06069691 5.885487538,44.04125427 5.885286248,44.04048505 5.865655488,44.02204332 5.846206708,44.01323006"/>
      <polygon id="04132 MONTSALIER" points="5.612729867,43.98690916 5.599846672,43.990467 5.597222495,44.00431566 5.588319508,44.01677327 5.578721107,44.0247081 5.565666072,44.02856295 5.564711394,44.04256084 5.555933687,44.05476071 5.573237652,44.05940705 5.582502256,44.05965712 5.603396741,44.05343493 5.615245527,44.04825367 5.617780778,44.04202457 5.622799729,44.03254813 5.622925429,44.00519701 5.612371308,43.99377937 5.612729867,43.98690916"/>
      <polygon id="04133 MORIEZ" points="6.469387099,43.91308474 6.454113668,43.92487427 6.448021796,43.93687649 6.452477183,43.93819505 6.452333153,43.94508188 6.429270318,43.96688757 6.421305947,43.97528969 6.43257952,43.98517859 6.427991686,43.99104288 6.437443445,43.99714201 6.438363638,44.00639178 6.456537206,44.01298957 6.469009234,44.00256797 6.503231226,43.94169545 6.501692226,43.93835763 6.484111356,43.9325961 6.481096668,43.91894563 6.469387099,43.91308474"/>
      <polygon id="04134 LA MOTTE-DU-CAIRE" points="6.035658554,44.30364756 6.027925062,44.30751813 6.005201874,44.30955602 6.002988543,44.3246057 6.006395794,44.3254404 6.004092027,44.32743108 6.007760083,44.35113904 6.002844102,44.36449725 6.026280543,44.37679993 6.036828514,44.3786263 6.038041255,44.36845847 6.047706842,44.35671457 6.056635559,44.35511558 6.065093249,44.35827639 6.079311031,44.35742889 6.075671625,44.35099061 6.054983012,44.34217154 6.054032261,44.33152319 6.045857217,44.32279584 6.041393422,44.30532664 6.035658554,44.30364756"/>
      <polygon id="04135 MOUSTIERS-SAINTE-MARIE" points="6.188386656,43.77614507 6.167338621,43.78636854 6.163611421,43.79629339 6.171140176,43.80896226 6.167468661,43.82618976 6.168971196,43.82950542 6.190193613,43.83772167 6.186147433,43.84370315 6.169071012,43.85014496 6.168366454,43.85359686 6.173611088,43.86331541 6.170353001,43.86987679 6.219995375,43.88366216 6.231015423,43.89464901 6.254955961,43.89772954 6.287906685,43.85802046 6.295033856,43.83441438 6.2835602,43.81901673 6.290868599,43.81027595 6.287621472,43.80009735 6.27929027,43.79793465 6.263233888,43.80527971 6.249629934,43.8015793 6.224189193,43.7998403 6.210674912,43.79766357 6.188386656,43.77614507"/>
      <polygon id="04136 LA MURE-ARGENS" points="6.554381886,43.97183469 6.516723203,43.96841375 6.513583953,43.97110925 6.5094905,43.98120441 6.521146198,44.00043265 6.521353902,44.01085826 6.497483759,44.04129066 6.502134103,44.04197071 6.503351367,44.05221102 6.516966339,44.06614381 6.525258878,44.06950773 6.529539925,44.06801836 6.550620964,44.04101131 6.55714778,44.02094298 6.561029309,44.01133903 6.556902186,44.00541926 6.55899748,43.99880147 6.554381886,43.97183469"/>
      <polygon id="04137 NIBLES" points="5.993771506,44.26606322 5.989080059,44.26600183 5.988354407,44.27602008 5.983351556,44.28173181 6.005201874,44.30955602 6.027925062,44.30751813 6.035658554,44.30364756 6.022203633,44.27809365 5.993771506,44.26606322"/>
      <polygon id="04138 NIOZELLES" points="5.874856565,43.92220751 5.867607661,43.91803949 5.85355347,43.917264 5.826514441,43.9224339 5.817593547,43.92949042 5.829211159,43.94289623 5.855870971,43.94912772 5.864047528,43.94564465 5.865451445,43.93687247 5.874856565,43.92220751"/>
      <polygon id="04139 NOYERS-SUR-JABRON" points="5.833171679,44.11520157 5.812698396,44.12209649 5.787335549,44.12244742 5.78559588,44.1293003 5.776384265,44.13731537 5.773039465,44.15078323 5.779149763,44.16369658 5.779388284,44.17752426 5.758405371,44.19641789 5.754536576,44.20982652 5.77625413,44.20557756 5.791913685,44.2118631 5.81088025,44.21075746 5.830738773,44.20042968 5.859057256,44.19517399 5.859293629,44.18221614 5.852039057,44.16660737 5.847416578,44.16100832 5.847452082,44.14374191 5.834461024,44.13404549 5.828531445,44.12445384 5.833171679,44.11520157"/>
      <polygon id="04140 LES OMERGUES" points="5.590182756,44.12004465 5.585495836,44.12061462 5.575492756,44.11366397 5.556516772,44.11334296 5.547531068,44.12899618 5.551315204,44.14924212 5.551333377,44.14964693 5.570422844,44.14861566 5.581188185,44.15515284 5.580769056,44.1585938 5.564374392,44.17090171 5.575815566,44.18619522 5.579704199,44.18831923 5.594260268,44.18749866 5.602053261,44.19150175 5.609326531,44.19070761 5.616955401,44.17862027 5.629772708,44.17409 5.638794766,44.16628143 5.631136351,44.15057941 5.607589193,44.15314125 5.602596937,44.12962043 5.594810389,44.12091675 5.590182756,44.12004465"/>
      <polygon id="04141 ONGLES" points="5.685569954,43.99359981 5.687399189,44.00302825 5.681406987,44.0116942 5.68725978,44.03101987 5.682202733,44.05774571 5.691012534,44.05470176 5.692057818,44.04775991 5.699755773,44.03895211 5.714313416,44.03977166 5.730460648,44.05732696 5.742296363,44.08033777 5.755235929,44.08517326 5.760254347,44.07195244 5.747188833,44.05384645 5.750257286,44.02948133 5.754380702,44.01950755 5.768245427,44.00537911 5.754247247,43.99274681 5.738020585,44.00913884 5.720707989,44.01422665 5.712920161,44.01026867 5.709719893,44.00384622 5.700555464,44.00211879 5.685569954,43.99359981"/>
      <polygon id="04142 OPPEDETTE" points="5.606559561,43.9160825 5.583383237,43.91591293 5.567633132,43.94264 5.607176495,43.94430572 5.613494824,43.92363351 5.606559561,43.9160825"/>
      <polygon id="04143 ORAISON" points="5.878833642,43.87460849 5.886953806,43.89018924 5.889613904,43.91002079 5.898351661,43.92582804 5.894510366,43.93877192 5.898721852,43.94488315 5.900808841,43.94842102 5.960696325,43.93770936 5.959012257,43.92783052 5.966181147,43.91927859 5.959329409,43.90392056 5.964620898,43.88757572 5.931587668,43.88155186 5.892194068,43.87933414 5.878833642,43.87460849"/>
      <polygon id="04144 LA PALUD-SUR-VERDON" points="6.378913493,43.73937208 6.371453214,43.74262967 6.354509898,43.73651528 6.329213127,43.74622645 6.312809353,43.75880459 6.267786673,43.7785471 6.257112988,43.79760016 6.249629934,43.8015793 6.263233888,43.80527971 6.27929027,43.79793465 6.287621472,43.80009735 6.290868599,43.81027595 6.2835602,43.81901673 6.295033856,43.83441438 6.287906685,43.85802046 6.315176164,43.86653533 6.335519177,43.85716014 6.3395734,43.84709215 6.351394175,43.841109 6.346510658,43.8350711 6.356098075,43.82755266 6.348641118,43.81473979 6.350274901,43.8080244 6.366744923,43.80174327 6.374575928,43.79346673 6.392771235,43.78934379 6.394137989,43.7859776 6.380357699,43.76381673 6.378913493,43.73937208"/>
      <polygon id="04145 PEIPIN" points="5.911407321,44.11963513 5.918184263,44.12403023 5.922182084,44.13345278 5.918908692,44.13960156 5.923056244,44.14899319 5.9373969,44.16143567 5.95559514,44.16130688 5.954189091,44.15760687 5.954893387,44.15430935 5.967917598,44.15121037 5.97759848,44.13637447 5.97468285,44.13371553 5.942825242,44.12951382 5.929614519,44.12018557 5.911407321,44.11963513"/>
      <polygon id="04148 PEYROULES" points="6.6363958,43.78895057 6.627953995,43.79171835 6.62351332,43.80445076 6.586912484,43.80531955 6.590649245,43.82183464 6.601994719,43.84470188 6.616164499,43.8426203 6.62134161,43.83691722 6.630136417,43.83411132 6.667906245,43.83061277 6.700319464,43.82477852 6.710744463,43.8174602 6.709830286,43.81066262 6.688273341,43.80375507 6.642115649,43.79519143 6.636038688,43.79017861 6.6363958,43.78895057"/>
      <polygon id="04149 PEYRUIS" points="5.937143832,44.00890726 5.925650196,44.01520445 5.901885524,44.01587361 5.893695817,44.0244122 5.885286248,44.04048505 5.885487538,44.04125427 5.889257487,44.04763923 5.90611697,44.05404655 5.924892091,44.05536566 5.927012733,44.04900451 5.91683105,44.04184619 5.918461921,44.03858747 5.922490881,44.03657059 5.927281987,44.03602822 5.932167246,44.0445885 5.960589607,44.05834164 5.967993681,44.05398909 5.975435875,44.04106976 5.9643201,44.03524709 5.937143832,44.00890726"/>
      <polygon id="04150 PIEGUT" points="6.119520323,44.43408667 6.108573288,44.44926086 6.114544684,44.46222733 6.11531861,44.47558389 6.123765939,44.4692907 6.131766997,44.46814471 6.155615551,44.46196882 6.156255287,44.44211231 6.142928935,44.44285369 6.119520323,44.43408667"/>
      <polygon id="04151 PIERRERUE" points="5.829211159,43.94289623 5.820136249,43.95067739 5.81608295,43.96401089 5.819300148,43.98066017 5.824896891,43.98613515 5.839242784,43.97866705 5.853113327,43.96875087 5.864047528,43.94564465 5.855870971,43.94912772 5.829211159,43.94289623"/>
      <polygon id="04152 PIERREVERT" points="5.713558249,43.78112007 5.70534868,43.7796495 5.695000538,43.78420988 5.684297556,43.7894533 5.674483354,43.80736045 5.681883474,43.81536332 5.695610218,43.81480863 5.708296552,43.82457891 5.717032989,43.82234457 5.721025055,43.82417192 5.728275439,43.83666888 5.741484201,43.83377132 5.77555234,43.80605802 5.773096248,43.80335619 5.764354696,43.8028129 5.73929392,43.78704902 5.725485304,43.788872 5.721024659,43.78864133 5.713558249,43.78112007"/>
      <polygon id="04154 PONTIS" points="6.408369041,44.48048048 6.385320988,44.48398397 6.356472564,44.47400884 6.340235429,44.4798992 6.346351245,44.50007676 6.332396212,44.51000516 6.33482066,44.51140054 6.347638782,44.51542725 6.357373679,44.52263698 6.362000081,44.52207258 6.370457753,44.51037123 6.38640183,44.49865576 6.398808691,44.49415621 6.408369041,44.48048048"/>
      <polygon id="04155 PRADS-HAUTE-BLEONE" points="6.422574306,44.12560389 6.409889125,44.13055798 6.400609646,44.12870226 6.392847471,44.14114997 6.374887646,44.14523601 6.379163538,44.15044652 6.374221838,44.16604906 6.376865811,44.17241808 6.392742726,44.17983792 6.394240355,44.19023317 6.400783757,44.19537293 6.405470267,44.20878648 6.428550167,44.22654604 6.429658209,44.22995305 6.416742186,44.23436512 6.406152993,44.24604616 6.405340095,44.25630617 6.433231723,44.28259286 6.467022359,44.30109222 6.475841897,44.29842592 6.483234703,44.28970432 6.495812473,44.28476371 6.532555703,44.28806636 6.54616251,44.26656183 6.541458158,44.25709072 6.544129459,44.24406589 6.541649317,44.23766765 6.535129919,44.2323997 6.53334931,44.20481438 6.537177749,44.19107702 6.526847388,44.17919242 6.503762966,44.17536458 6.476283596,44.14323772 6.45022603,44.13361054 6.430760805,44.13379833 6.422574306,44.12560389"/>
      <polygon id="04156 PUIMICHEL" points="5.998216524,43.94754719 5.994624482,43.94964508 5.984570344,43.94403926 5.973447175,43.95757248 5.988704304,43.99033512 6.007199353,43.99331338 6.025371526,44.00943805 6.034482188,44.01156335 6.042701638,44.01428015 6.051267005,44.00666503 6.068810156,44.00385035 6.076163842,43.99537552 6.069682926,43.98646996 6.074562929,43.97773146 6.065847423,43.97546346 6.064368234,43.96859693 6.058185823,43.96353735 6.040735202,43.95804413 6.021867482,43.95820735 5.998216524,43.94754719"/>
      <polygon id="04157 PUIMOISSON" points="6.115889753,43.83593476 6.108874824,43.84054796 6.106928606,43.8505191 6.095372725,43.85360355 6.077428476,43.87766213 6.069270418,43.8901132 6.073952458,43.8956553 6.111362036,43.89603625 6.13394735,43.89611957 6.145584702,43.90139584 6.152251766,43.89310662 6.144763488,43.88920669 6.143749423,43.88255313 6.170353001,43.86987679 6.173611088,43.86331541 6.168366454,43.85359686 6.143942708,43.84355922 6.120366772,43.84204793 6.115889753,43.83593476"/>
      <polygon id="04158 QUINSON" points="6.021735496,43.66828843 6.01119058,43.67535247 6.004164697,43.68828838 5.987772283,43.69542137 5.984534232,43.71449218 6.000941938,43.72648563 6.039198494,43.74025542 6.062923937,43.73959943 6.049199343,43.72211854 6.048829653,43.71541112 6.056552923,43.70008399 6.051561041,43.69771176 6.034615228,43.69271086 6.038783859,43.6795915 6.021735496,43.66828843"/>
      <polygon id="04159 REDORTIERS" points="5.617780778,44.04202457 5.615245527,44.04825367 5.603396741,44.05343493 5.582502256,44.05965712 5.573237652,44.05940705 5.576895838,44.06159926 5.575683953,44.08145692 5.589906149,44.10656122 5.590182756,44.12004465 5.594810389,44.12091675 5.602596937,44.12962043 5.607589193,44.15314125 5.631136351,44.15057941 5.645178646,44.14861146 5.64713764,44.1383067 5.64008033,44.12932722 5.638530619,44.10859779 5.648720105,44.08934135 5.64005179,44.07755552 5.639809426,44.06748442 5.623850859,44.05481956 5.617780778,44.04202457"/>
      <polygon id="04160 REILLANNE" points="5.688081484,43.85117354 5.667112226,43.85855857 5.625093709,43.85676851 5.610417136,43.88877031 5.626607486,43.89563936 5.638334687,43.90608979 5.640273144,43.91272424 5.644904907,43.92155363 5.661213279,43.92611897 5.661556028,43.91931213 5.68929909,43.91588597 5.70204691,43.8791565 5.697363566,43.87910128 5.69936916,43.86965099 5.685287813,43.85712219 5.688081484,43.85117354"/>
      <polygon id="04161 MEOLANS-REVEL" points="6.532555703,44.28806636 6.495812473,44.28476371 6.483234703,44.28970432 6.475841897,44.29842592 6.467022359,44.30109222 6.464513383,44.30540606 6.454938725,44.33152127 6.428419057,44.36021047 6.41226377,44.36680359 6.436041009,44.38398474 6.462971471,44.3914571 6.466356565,44.40158637 6.454355939,44.41232561 6.455295157,44.41576515 6.464964795,44.42359775 6.468560025,44.43363046 6.481731491,44.44391952 6.481649387,44.45402313 6.498925961,44.44941192 6.512446422,44.44998186 6.521775167,44.44808007 6.535107706,44.45187917 6.557482342,44.44599555 6.57635402,44.44803373 6.585621522,44.44599329 6.579926472,44.44028521 6.570079635,44.43971272 6.557461025,44.43426383 6.543335944,44.40814599 6.54682709,44.39806755 6.528350719,44.36157349 6.537159381,44.35339727 6.54571034,44.33733532 6.54528323,44.32329263 6.532555703,44.28806636"/>
      <polygon id="04162 REVEST-DES-BROUSSES" points="5.690746148,43.94683575 5.682523227,43.95405275 5.678267389,43.95340975 5.675694558,43.94745756 5.671701645,43.94868989 5.64881612,43.95937746 5.64338944,43.96870274 5.64535631,43.98180221 5.659771019,43.9948608 5.67269341,44.01293407 5.681406987,44.0116942 5.687399189,44.00302825 5.685569954,43.99359981 5.685063005,43.99025337 5.696450428,43.98523643 5.705825388,43.97359534 5.701053459,43.95130898 5.699483435,43.94816004 5.690746148,43.94683575"/>
      <polygon id="04163 REVEST-DU-BION" points="5.555933687,44.05476071 5.547902533,44.05777549 5.544598165,44.06989192 5.517135065,44.06343097 5.502637181,44.0634482 5.498165294,44.07309539 5.498787806,44.11571935 5.507614943,44.11775993 5.511088587,44.12395691 5.542145704,44.13326364 5.551315204,44.14924212 5.547531068,44.12899618 5.556516772,44.11334296 5.575492756,44.11366397 5.585495836,44.12061462 5.590182756,44.12004465 5.589906149,44.10656122 5.575683953,44.08145692 5.576895838,44.06159926 5.573237652,44.05940705 5.555933687,44.05476071"/>
      <polygon id="04164 REVEST-SAINT-MARTIN" points="5.846206708,44.01323006 5.83646085,44.0062156 5.809007909,44.00792386 5.805659288,44.01365637 5.810786965,44.02248538 5.808710944,44.02847349 5.807132487,44.04000537 5.827504219,44.03215006 5.846206708,44.01323006"/>
      <polygon id="04166 RIEZ" points="6.070447873,43.79625687 6.065275443,43.80181488 6.048825601,43.80881441 6.036124192,43.83049424 6.048192602,43.83588512 6.052475051,43.8419883 6.053681385,43.8487269 6.049200988,43.8547781 6.052876797,43.86044804 6.077428476,43.87766213 6.095372725,43.85360355 6.106928606,43.8505191 6.108874824,43.84054796 6.115889753,43.83593476 6.112727712,43.81900379 6.124679222,43.81374456 6.132750636,43.8051193 6.129779616,43.79514508 6.070447873,43.79625687"/>
      <polygon id="04167 LA ROBINE-SUR-GALABRE" points="6.268355695,44.17129203 6.254962812,44.17346508 6.242191868,44.16308749 6.244838229,44.15289288 6.237267398,44.1447481 6.222983825,44.14479974 6.19490622,44.15761151 6.186162262,44.15519963 6.181651494,44.14905209 6.174492229,44.15974492 6.187400622,44.17036021 6.196147445,44.19079737 6.19374286,44.21905431 6.196496969,44.22591957 6.219110237,44.24028484 6.234111365,44.23283522 6.257040849,44.23480577 6.274315396,44.21909406 6.272224636,44.20912075 6.276790924,44.19557959 6.291204346,44.19451746 6.281147075,44.18363908 6.273230901,44.18030825 6.268355695,44.17129203"/>
      <polygon id="04169 LA ROCHEGIRON" points="5.666443916,44.06762239 5.658511556,44.0635828 5.639809426,44.06748442 5.64005179,44.07755552 5.648720105,44.08934135 5.638530619,44.10859779 5.64008033,44.12932722 5.64713764,44.1383067 5.645178646,44.14861146 5.678605452,44.14609769 5.689080306,44.14438228 5.686586448,44.13422183 5.692227572,44.11762086 5.688215384,44.10414781 5.690394336,44.10106841 5.683628499,44.08798717 5.668314778,44.07449296 5.666443916,44.06762239"/>
      <polygon id="04170 LA ROCHETTE" points="6.892592612,43.88998054 6.883456252,43.89083774 6.875218945,43.89924883 6.849879225,43.9141025 6.835946727,43.915431 6.832286437,43.91846082 6.832526358,43.92481353 6.859700175,43.92974885 6.878212317,43.9278854 6.891724348,43.93022482 6.899665075,43.92674272 6.906420216,43.92252756 6.918679257,43.89356986 6.892592612,43.88998054"/>
      <polygon id="04171 ROUGON" points="6.383540942,43.73443675 6.378913493,43.73937208 6.380357699,43.76381673 6.394137989,43.7859776 6.392771235,43.78934379 6.374575928,43.79346673 6.366744923,43.80174327 6.350274901,43.8080244 6.348641118,43.81473979 6.356098075,43.82755266 6.346510658,43.8350711 6.351394175,43.841109 6.378223547,43.8269953 6.38712958,43.82926797 6.392925601,43.83468126 6.399034525,43.82525844 6.437182284,43.81144269 6.438808399,43.79774519 6.435123214,43.79188059 6.415852457,43.7900456 6.412788382,43.76225565 6.383540942,43.73443675"/>
      <polygon id="04172 ROUMOULES" points="6.142455342,43.78418028 6.129779616,43.79514508 6.132750636,43.8051193 6.124679222,43.81374456 6.112727712,43.81900379 6.115889753,43.83593476 6.120366772,43.84204793 6.143942708,43.84355922 6.168366454,43.85359686 6.169071012,43.85014496 6.186147433,43.84370315 6.190193613,43.83772167 6.168971196,43.82950542 6.167468661,43.82618976 6.171140176,43.80896226 6.163611421,43.79629339 6.167338621,43.78636854 6.150138838,43.78713744 6.142455342,43.78418028"/>
      <polygon id="04173 SAINT-ANDRE-LES-ALPES" points="6.478507355,43.90080463 6.471445303,43.90411026 6.469387099,43.91308474 6.481096668,43.91894563 6.484111356,43.9325961 6.501692226,43.93835763 6.503231226,43.94169545 6.469009234,44.00256797 6.456537206,44.01298957 6.453025333,44.0225956 6.456814374,44.02454789 6.487992469,44.02784616 6.49462963,44.0236884 6.497100549,44.02631208 6.494183333,44.03554033 6.497483759,44.04129066 6.521353902,44.01085826 6.521146198,44.00043265 6.5094905,43.98120441 6.513583953,43.97110925 6.516723203,43.96841375 6.554381886,43.97183469 6.556837054,43.96660171 6.545932107,43.9605329 6.52805503,43.93808564 6.530730338,43.93538669 6.525890383,43.93049829 6.527112937,43.92124311 6.517459896,43.91345599 6.489927221,43.90725024 6.478507355,43.90080463"/>
      <polygon id="04174 SAINT-BENOIT" points="6.722044439,43.92827583 6.703237618,43.93621303 6.694017254,43.94322838 6.69899094,43.95646621 6.694477747,43.96245714 6.703986163,43.96942396 6.71275665,43.98455995 6.720739446,43.98775723 6.720304497,43.99103361 6.74735032,43.98802829 6.761012252,43.97097153 6.76553234,43.97027523 6.740045302,43.96172641 6.738546814,43.95181289 6.728680109,43.9443478 6.722044439,43.92827583"/>
      <polygon id="04175 SAINTE-CROIX-A-LAUZE" points="5.590289891,43.8872329 5.606559561,43.9160825 5.613494824,43.92363351 5.619434711,43.9184217 5.633220407,43.91698258 5.640273144,43.91272424 5.638334687,43.90608979 5.626607486,43.89563936 5.610417136,43.88877031 5.590289891,43.8872329"/>
      <polygon id="04176 SAINTE-CROIX-DU-VERDON" points="6.128625142,43.73679429 6.128293421,43.75049229 6.11640949,43.76495388 6.142455342,43.78418028 6.150138838,43.78713744 6.167338621,43.78636854 6.188386656,43.77614507 6.184158536,43.76561468 6.169112464,43.75176131 6.140605909,43.73761098 6.128625142,43.73679429"/>
      <polygon id="04177 HAUTES-DUYES" points="6.174492229,44.15974492 6.148855007,44.16519541 6.15093981,44.17209863 6.147076744,44.18911749 6.156362715,44.19693989 6.157976999,44.20390173 6.170908421,44.21884268 6.165448057,44.2235765 6.16839723,44.23354463 6.191450876,44.23153451 6.196496969,44.22591957 6.19374286,44.21905431 6.196147445,44.19079737 6.187400622,44.17036021 6.174492229,44.15974492"/>
      <polygon id="04178 SAINT-ETIENNE-LES-ORGUES" points="5.768245427,44.00537911 5.754380702,44.01950755 5.750257286,44.02948133 5.747188833,44.05384645 5.760254347,44.07195244 5.755235929,44.08517326 5.767214468,44.1141315 5.767482654,44.12426552 5.787335549,44.12244742 5.812698396,44.12209649 5.807825244,44.10493863 5.808587381,44.06671549 5.797784817,44.06090413 5.802953849,44.04743421 5.807132487,44.04000537 5.808710944,44.02847349 5.777434703,44.01318804 5.768245427,44.00537911"/>
      <polygon id="04179 SAINT-GENIEZ" points="6.098582874,44.20160476 6.084287199,44.2037551 6.060487507,44.20035912 6.05582097,44.20927166 6.043837167,44.21512643 6.035673274,44.22359456 5.985120498,44.23221412 6.019095481,44.2444451 6.032904346,44.24256923 6.035392282,44.24550905 6.037777929,44.27180896 6.040857194,44.27429101 6.053439883,44.2704739 6.064660421,44.26490976 6.063725934,44.25898158 6.069505547,44.25391085 6.080488424,44.24728871 6.094605313,44.24579275 6.098690031,44.23958812 6.112803857,44.23830604 6.119740631,44.22203876 6.101473511,44.21326034 6.102892566,44.2069147 6.098582874,44.20160476"/>
      <polygon id="04180 SAINT-JACQUES" points="6.387352612,43.97635645 6.381374901,43.96411953 6.357329369,43.97151789 6.354367934,43.9771487 6.364342646,43.9884804 6.377663326,43.98882625 6.376960655,43.98581224 6.387352612,43.97635645"/>
      <polygon id="04181 SAINT-JEANNET" points="6.149896595,43.95107846 6.122996599,43.94614055 6.114890034,43.94972249 6.111346076,43.95605609 6.098960722,43.96124467 6.093434585,43.9657965 6.097916069,43.97850407 6.09393162,43.98023815 6.077779338,43.9744706 6.074562929,43.97773146 6.069682926,43.98646996 6.076163842,43.99537552 6.081423786,43.99828068 6.100329372,43.99925034 6.102763983,44.00569324 6.111013834,44.00891749 6.136529232,44.00020836 6.155541583,43.99901276 6.154730791,43.98662443 6.147663132,43.97859581 6.145122267,43.96600525 6.150666651,43.95734303 6.149896595,43.95107846"/>
      <polygon id="04182 SAINT-JULIEN-D'ASSE" points="6.073952458,43.8956553 6.073927409,43.90605818 6.07010685,43.90821011 6.032539606,43.90311803 6.032820579,43.90957657 6.038728638,43.9189948 6.057040277,43.93031785 6.081196519,43.95624406 6.08310881,43.96647562 6.076598158,43.97107234 6.077779338,43.9744706 6.09393162,43.98023815 6.097916069,43.97850407 6.093434585,43.9657965 6.098960722,43.96124467 6.093321846,43.95567625 6.093193672,43.94871781 6.100514006,43.93592813 6.097591004,43.9293823 6.111362036,43.89603625 6.073952458,43.8956553"/>
      <polygon id="04183 SAINT-JULIEN-DU-VERDON" points="6.544481066,43.89167326 6.537848606,43.90062665 6.531805864,43.92074906 6.527112937,43.92124311 6.525890383,43.93049829 6.530730338,43.93538669 6.546966253,43.92163586 6.559115124,43.91140305 6.568945275,43.89225412 6.544481066,43.89167326"/>
      <polygon id="04184 SAINT-JURS" points="6.170353001,43.86987679 6.143749423,43.88255313 6.144763488,43.88920669 6.152251766,43.89310662 6.145584702,43.90139584 6.161172082,43.91586951 6.161250199,43.92222598 6.192725184,43.91975196 6.210644828,43.92398214 6.218833369,43.92047151 6.232869476,43.9221014 6.233753324,43.91549109 6.245362356,43.90973336 6.254955961,43.89772954 6.231015423,43.89464901 6.219995375,43.88366216 6.170353001,43.86987679"/>
      <polygon id="04186 SAINT-LAURENT-DU-VERDON" points="6.056552923,43.70008399 6.048829653,43.71541112 6.049199343,43.72211854 6.062923937,43.73959943 6.06427475,43.74139849 6.084956444,43.7345016 6.090296416,43.72897394 6.091826084,43.72579665 6.085981441,43.71666012 6.070404595,43.70494386 6.062157605,43.70415873 6.056552923,43.70008399"/>
      <polygon id="04187 SAINT-LIONS" points="6.429270318,43.96688757 6.420244759,43.96758485 6.413772158,43.95926558 6.391241611,43.96163378 6.388342039,43.964255 6.390731708,43.97402666 6.387352612,43.97635645 6.376960655,43.98581224 6.377663326,43.98882625 6.396163596,43.99045098 6.417037499,43.99751153 6.427991686,43.99104288 6.43257952,43.98517859 6.421305947,43.97528969 6.429270318,43.96688757"/>
      <polygon id="04188 SAINT-MAIME" points="5.813518011,43.90067086 5.815961895,43.88785666 5.803438364,43.87852576 5.799642455,43.88032515 5.793902911,43.88845962 5.794764918,43.89487611 5.780730336,43.91531569 5.782263843,43.91585295 5.805600005,43.91668763 5.816754234,43.91097933 5.812102489,43.90631752 5.813518011,43.90067086"/>
      <polygon id="04189 SAINT-MARTIN-DE-BROMES" points="5.925661613,43.75596354 5.922661135,43.7575389 5.91831794,43.76275208 5.922232106,43.77613633 5.938094744,43.78881183 5.969714532,43.79424911 6.002034894,43.80816817 5.997102174,43.79235553 5.984674023,43.78313318 6.00544293,43.76987382 6.003000716,43.76335843 5.961409548,43.76375897 5.925661613,43.75596354"/>
      <polygon id="04190 SAINT-MARTIN-LES-EAUX" points="5.762227863,43.87844212 5.754706948,43.86266692 5.743283749,43.85700273 5.741091848,43.85048451 5.737081066,43.84883836 5.729056368,43.85249717 5.723596982,43.88126812 5.741405915,43.89021411 5.753829967,43.89171131 5.755105453,43.88227812 5.762227863,43.87844212"/>
      <polygon id="04191 SAINT-MARTIN-LES-SEYNE" points="6.262145153,44.35911364 6.243348739,44.36068749 6.23539466,44.3643362 6.234459507,44.37764325 6.226972658,44.38138567 6.227244,44.38173808 6.244687608,44.38777489 6.262495029,44.41225866 6.263857568,44.41212818 6.276784817,44.39704064 6.277652361,44.38641965 6.263498306,44.37278568 6.262145153,44.35911364"/>
      <polygon id="04192 SAINT-MICHEL-L'OBSERVATOIRE" points="5.723596982,43.88126812 5.717828501,43.87699068 5.70204691,43.8791565 5.68929909,43.91588597 5.690746148,43.94683575 5.699483435,43.94816004 5.701053459,43.95130898 5.716734461,43.93405394 5.729027518,43.92898387 5.735121645,43.91965542 5.758472172,43.91614142 5.765704917,43.91167209 5.767190538,43.90840167 5.759485889,43.89975387 5.758273286,43.89295884 5.753829967,43.89171131 5.741405915,43.89021411 5.723596982,43.88126812"/>
      <polygon id="04193 SAINT-PAUL-SUR-UBAYE" points="6.763681215,44.47157744 6.739966358,44.46982542 6.703956383,44.49262547 6.668497059,44.50029975 6.683020554,44.531655 6.68060016,44.54148686 6.705065668,44.5396676 6.738555309,44.55425548 6.755807974,44.57125318 6.769147119,44.57577351 6.769219397,44.58609963 6.780234286,44.59313158 6.794088658,44.59470235 6.799941932,44.6042531 6.80898705,44.60200372 6.821003974,44.60806001 6.845108549,44.61017982 6.852356037,44.61486656 6.858737809,44.62790247 6.882274129,44.63133233 6.90147069,44.64715116 6.907604162,44.65638989 6.915266606,44.65979639 6.939938793,44.65213229 6.948335091,44.6548163 6.953784376,44.63781944 6.967177008,44.622908 6.954003675,44.61954036 6.938621693,44.60206231 6.930576604,44.57462296 6.918222233,44.5688699 6.90783864,44.55731327 6.879201681,44.55187921 6.869948073,44.5393604 6.855214489,44.53029543 6.861337245,44.50247445 6.851675643,44.50170384 6.832742205,44.49216124 6.818926711,44.50198691 6.805517462,44.50613675 6.779400677,44.49677886 6.763681215,44.47157744"/>
      <polygon id="04194 SAINT-PIERRE" points="6.918679257,43.89356986 6.906420216,43.92252756 6.899665075,43.92674272 6.908890832,43.92892671 6.912989179,43.92705887 6.929796469,43.91007378 6.941527691,43.90398302 6.94227201,43.89726125 6.937584811,43.89633121 6.918679257,43.89356986"/>
      <polygon id="04195 SAINT-PONS" points="6.618755607,44.38528206 6.605795142,44.38342772 6.585343902,44.38886283 6.582872379,44.39567454 6.585860431,44.42021353 6.580298509,44.42987423 6.588157085,44.43857558 6.58886423,44.44555427 6.603091595,44.44792837 6.632299693,44.44691503 6.641022212,44.43995853 6.653172303,44.4364472 6.652199061,44.41281529 6.637955192,44.40363576 6.632842619,44.38705265 6.618755607,44.38528206"/>
      <polygon id="04197 SAINTE-TULLE" points="5.783447511,43.75780064 5.772123694,43.76868739 5.72860487,43.78261709 5.725485304,43.788872 5.73929392,43.78704902 5.764354696,43.8028129 5.773096248,43.80335619 5.77555234,43.80605802 5.799204605,43.7901455 5.807694073,43.7747006 5.783447511,43.75780064"/>
      <polygon id="04198 SAINT-VINCENT-LES-FORTS" points="6.386497822,44.4093431 6.383227713,44.41183131 6.355099824,44.41528695 6.338961378,44.42746338 6.333112895,44.4628425 6.366212938,44.46071003 6.40142953,44.44987934 6.404801603,44.42942993 6.399156492,44.41981923 6.386497822,44.4093431"/>
      <polygon id="04199 SAINT-VINCENT-SUR-JABRON" points="5.787335549,44.12244742 5.767482654,44.12426552 5.748354173,44.13178065 5.742502327,44.14137457 5.749457318,44.16493147 5.733101979,44.17215799 5.700099918,44.17415528 5.698523577,44.18101165 5.69239018,44.1862688 5.697941829,44.19195033 5.714941075,44.19851075 5.739008821,44.20175824 5.754536576,44.20982652 5.758405371,44.19641789 5.779388284,44.17752426 5.779149763,44.16369658 5.773039465,44.15078323 5.776384265,44.13731537 5.78559588,44.1293003 5.787335549,44.12244742"/>
      <polygon id="04200 SALIGNAC" points="5.985284403,44.13126556 5.97759848,44.13637447 5.967917598,44.15121037 5.954893387,44.15430935 5.954189091,44.15760687 5.988229931,44.17754493 6.024133678,44.16735521 6.001742678,44.14928054 6.000514324,44.14283804 5.985284403,44.13126556"/>
      <polygon id="04201 SAUMANE" points="5.675282729,44.06461507 5.666443916,44.06762239 5.668314778,44.07449296 5.683628499,44.08798717 5.690394336,44.10106841 5.694364476,44.09966501 5.694786944,44.09011765 5.689949724,44.07792598 5.685921409,44.07965487 5.675282729,44.06461507"/>
      <polygon id="04202 SAUSSES" points="6.834712933,43.98328562 6.801289066,43.99086876 6.797065656,43.99697138 6.783168658,43.99971485 6.779239627,43.99768831 6.770946547,44.00590371 6.753552984,44.01189939 6.743923598,44.01962687 6.735148688,44.03565866 6.745687326,44.04283081 6.771137196,44.02650361 6.788984668,44.02128236 6.795561572,44.00811534 6.838726888,43.98970431 6.834712933,43.98328562"/>
      <polygon id="04203 SELONNET" points="6.271656921,44.33030783 6.264709254,44.33149635 6.276305964,44.34515177 6.262145153,44.35911364 6.263498306,44.37278568 6.277652361,44.38641965 6.276784817,44.39704064 6.263857568,44.41212818 6.298739134,44.40826857 6.310362073,44.397045 6.316275994,44.38388405 6.335836135,44.3734182 6.333597655,44.36335019 6.298982076,44.34432971 6.296491848,44.33454815 6.280744273,44.33659577 6.271656921,44.33030783"/>
      <path id="04204 SENEZ" d="M6.31553538,43.9203159 L6.278914023,43.92361064 L6.260760076,43.91995696 L6.255800201,43.92562637 L6.245652443,43.94396084 L6.257326586,43.95475535 L6.259089507,43.97490636 L6.276675897,43.97185835 L6.28877149,43.97721481 L6.288939031,43.97384993 L6.307560685,43.95901078 L6.318666278,43.93728997 L6.328026233,43.92979008 L6.33049675,43.92322032 L6.31857947,43.92615933 L6.31553538,43.9203159 Z M6.427152641,43.87463129 L6.402878091,43.89020878 L6.38862297,43.88989575 L6.370035331,43.90057787 L6.366658252,43.90710451 L6.347364186,43.91716483 L6.369615967,43.92406475 L6.384273522,43.92471935 L6.401096223,43.93722203 L6.410159782,43.93994805 L6.424615607,43.94193688 L6.448021796,43.93687649 L6.454113668,43.92487427 L6.469387099,43.91308474 L6.471445303,43.90411026 L6.478507355,43.90080463 L6.469363556,43.88852046 L6.461825927,43.88417481 L6.427152641,43.87463129 Z"/>
      <polygon id="04205 SEYNE" points="6.464513383,44.30540606 6.423160336,44.29629567 6.411022727,44.29076277 6.391999295,44.29021654 6.380081184,44.29480934 6.375864588,44.30299352 6.367589283,44.30202214 6.366041907,44.30870958 6.354550767,44.31489009 6.340798473,44.31766943 6.333304944,44.32638384 6.324324521,44.32819638 6.310494333,44.32542438 6.296491848,44.33454815 6.298982076,44.34432971 6.333597655,44.36335019 6.335836135,44.3734182 6.353382207,44.38483181 6.387197935,44.39773462 6.41226377,44.36680359 6.428419057,44.36021047 6.454938725,44.33152127 6.464513383,44.30540606"/>
      <polygon id="04206 SIGONCE" points="5.839242784,43.97866705 5.824896891,43.98613515 5.82047271,43.9947777 5.807672011,43.99575557 5.809007909,44.00792386 5.83646085,44.0062156 5.846206708,44.01323006 5.865655488,44.02204332 5.885286248,44.04048505 5.893695817,44.0244122 5.889040798,44.0185192 5.887737539,43.99798398 5.871290376,43.99195995 5.865053681,43.97981269 5.850993743,43.98869971 5.839242784,43.97866705"/>
      <polygon id="04207 SIGOYER" points="5.924474446,44.29931208 5.9235323,44.30244474 5.925138758,44.31340022 5.933307366,44.31464178 5.953678484,44.34105652 5.966830081,44.34508034 5.979944039,44.34071728 5.989833948,44.32881059 6.004092027,44.32743108 6.006395794,44.3254404 6.002988543,44.3246057 5.998136642,44.32444986 5.992588215,44.31562016 5.97885928,44.31818194 5.969685998,44.31025108 5.924474446,44.29931208"/>
      <polygon id="04208 SIMIANE-LA-ROTONDE" points="5.544991958,43.93905484 5.529600086,43.94602145 5.512673821,43.94540358 5.507972449,43.95780233 5.513170428,43.97335938 5.519569337,43.99401224 5.542867446,44.0244488 5.544598165,44.06989192 5.547902533,44.05777549 5.555933687,44.05476071 5.564711394,44.04256084 5.565666072,44.02856295 5.578721107,44.0247081 5.588319508,44.01677327 5.597222495,44.00431566 5.599846672,43.990467 5.612729867,43.98690916 5.624451614,43.98389093 5.614576605,43.96817119 5.614914492,43.94781265 5.607176495,43.94430572 5.567633132,43.94264 5.544991958,43.93905484"/>
      <polygon id="04209 SISTERON" points="5.923056244,44.14899319 5.900015857,44.15490112 5.900313244,44.19087556 5.909914446,44.19160304 5.912117206,44.20477588 5.880200952,44.21194117 5.872681915,44.22420755 5.879496824,44.22891977 5.88869209,44.22770541 5.905634378,44.23346414 5.912233149,44.24951125 5.921825464,44.24840974 5.92224879,44.23813921 5.931853288,44.23052421 5.95014054,44.23361015 5.982153208,44.22771899 5.975940952,44.22248316 5.978215974,44.21236922 5.971687439,44.18526322 5.956712724,44.17701208 5.95229107,44.16779089 5.95559514,44.16130688 5.9373969,44.16143567 5.923056244,44.14899319"/>
      <polygon id="04210 SOLEILHAS" points="6.667906245,43.83061277 6.630136417,43.83411132 6.62134161,43.83691722 6.616164499,43.8426203 6.601994719,43.84470188 6.60563437,43.86765242 6.620213987,43.88078162 6.627198679,43.88897283 6.635094695,43.89188117 6.641134795,43.87955383 6.670718776,43.88774255 6.678214816,43.87919274 6.695946841,43.87489966 6.698669303,43.85771716 6.702826087,43.85596347 6.680088728,43.85223775 6.667906245,43.83061277"/>
      <polygon id="04211 SOURRIBES" points="6.062465613,44.14116052 6.034807369,44.14602818 6.010517016,44.13591647 6.000514324,44.14283804 6.001742678,44.14928054 6.024133678,44.16735521 6.031093384,44.17607135 6.040470595,44.17542444 6.057742256,44.18077208 6.087919737,44.17177461 6.062465613,44.14116052"/>
      <polygon id="04214 TARTONNE" points="6.41810995,44.04699751 6.399029545,44.04664605 6.362108208,44.0542188 6.329310353,44.0557711 6.338522456,44.07802019 6.340864317,44.09470438 6.362276042,44.1069583 6.362251862,44.11035529 6.380590648,44.11113309 6.387886125,44.10703392 6.418417098,44.11408512 6.42264775,44.09483613 6.428960118,44.09026934 6.421557999,44.08129391 6.430260146,44.06146354 6.427781796,44.05474865 6.41810995,44.04699751"/>
      <polygon id="04216 THEZE" points="5.925138758,44.31340022 5.920962622,44.31513262 5.907999193,44.31188232 5.897084489,44.31825056 5.903765182,44.32693771 5.903710623,44.33713571 5.912934734,44.33736917 5.917280964,44.33841595 5.926030533,44.34962329 5.933098845,44.34551666 5.95129014,44.34508407 5.952542475,44.34189773 5.953678484,44.34105652 5.933307366,44.31464178 5.925138758,44.31340022"/>
      <polygon id="04217 THOARD" points="6.079734739,44.11937409 6.071537338,44.1342772 6.062465613,44.14116052 6.087919737,44.17177461 6.095778577,44.18002926 6.138940703,44.17306432 6.148855007,44.16519541 6.174492229,44.15974492 6.181651494,44.14905209 6.188933102,44.14482292 6.187044512,44.14170705 6.17621537,44.13080663 6.157810009,44.1207545 6.132628732,44.1192075 6.113524371,44.1288227 6.103939686,44.1291847 6.081939861,44.12245565 6.079734739,44.11937409"/>
      <polygon id="04218 THORAME-BASSE" points="6.497483759,44.04129066 6.494183333,44.03554033 6.497100549,44.02631208 6.49462963,44.0236884 6.487992469,44.02784616 6.485493592,44.03414192 6.468535955,44.04050065 6.459165701,44.04845481 6.455472084,44.06558919 6.428960118,44.09026934 6.42264775,44.09483613 6.418417098,44.11408512 6.422574306,44.12560389 6.430760805,44.13379833 6.45022603,44.13361054 6.476283596,44.14323772 6.503762966,44.17536458 6.526847388,44.17919242 6.529172396,44.17309007 6.545554605,44.16840798 6.549938712,44.16224754 6.549970224,44.14512795 6.53182595,44.1243705 6.535904871,44.11413923 6.533906843,44.09286033 6.537967526,44.07172836 6.529539925,44.06801836 6.525258878,44.06950773 6.516966339,44.06614381 6.503351367,44.05221102 6.502134103,44.04197071 6.497483759,44.04129066"/>
      <polygon id="04219 THORAME-HAUTE" points="6.55714778,44.02094298 6.550620964,44.04101131 6.529539925,44.06801836 6.537967526,44.07172836 6.533906843,44.09286033 6.535904871,44.11413923 6.53182595,44.1243705 6.549970224,44.14512795 6.554928538,44.13918296 6.581278869,44.13047733 6.627070559,44.12117717 6.664384237,44.12665688 6.665611785,44.11989417 6.677934985,44.11472366 6.678978443,44.10437189 6.700293477,44.09641842 6.698259488,44.08667498 6.689225207,44.08557423 6.687413343,44.08249974 6.690833851,44.07260846 6.684653189,44.07809663 6.679758836,44.07798197 6.670252619,44.06237148 6.653792578,44.05491256 6.635261708,44.05916074 6.617050939,44.05452962 6.613606426,44.04081372 6.595981119,44.03623213 6.588983249,44.02348848 6.569908436,44.02553628 6.55714778,44.02094298"/>
      <polygon id="04220 LES THUILES" points="6.54571034,44.33733532 6.537159381,44.35339727 6.528350719,44.36157349 6.54682709,44.39806755 6.543335944,44.40814599 6.557461025,44.43426383 6.570079635,44.43971272 6.579926472,44.44028521 6.585621522,44.44599329 6.58886423,44.44555427 6.588157085,44.43857558 6.580298509,44.42987423 6.585860431,44.42021353 6.582872379,44.39567454 6.585343902,44.38886283 6.580928638,44.36516367 6.571213799,44.36508303 6.564026338,44.34848405 6.54571034,44.33733532"/>
      <polygon id="04222 TURRIERS" points="6.202294496,44.3752867 6.193195656,44.37297455 6.169277887,44.37493633 6.154919209,44.37309675 6.13656144,44.37658547 6.124809055,44.38758619 6.117956641,44.40048288 6.123567965,44.40607143 6.137766832,44.40648747 6.149784085,44.41150465 6.164033608,44.4112222 6.165523861,44.4144947 6.178506663,44.41044497 6.178288761,44.40365841 6.188454276,44.39672474 6.202294496,44.3752867"/>
      <polygon id="04224 UBRAYE" points="6.670718776,43.88774255 6.641134795,43.87955383 6.635094695,43.89188117 6.649491729,43.90039154 6.648706743,43.92747203 6.657775182,43.92951097 6.667507678,43.93004036 6.688911384,43.93793226 6.703237618,43.93621303 6.722044439,43.92827583 6.725164798,43.9216555 6.720906478,43.91274621 6.735427175,43.89906934 6.735325498,43.89561319 6.733572591,43.88881703 6.720412236,43.88587008 6.716514654,43.87957932 6.670718776,43.88774255"/>
      <polygon id="04226 UVERNET-FOURS" points="6.728284725,44.25256321 6.722759472,44.26197814 6.705479342,44.26752779 6.70895438,44.28135074 6.701169044,44.28986759 6.677155868,44.29409823 6.638298148,44.29190475 6.624567805,44.29573767 6.602524437,44.2886324 6.594531414,44.29255255 6.584332669,44.30842909 6.54528323,44.32329263 6.54571034,44.33733532 6.564026338,44.34848405 6.571213799,44.36508303 6.580928638,44.36516367 6.585343902,44.38886283 6.605795142,44.38342772 6.618755607,44.38528206 6.644713918,44.36455547 6.65457088,44.34484528 6.664772615,44.33735984 6.696954909,44.33296618 6.720719801,44.33370537 6.736873726,44.34048386 6.746391799,44.34086285 6.755088796,44.33283413 6.784506964,44.32589551 6.796833855,44.31670186 6.796040748,44.30018362 6.786443604,44.28876358 6.790338793,44.27234522 6.76308731,44.27842798 6.756922343,44.2622473 6.743443767,44.2586616 6.73755914,44.25327512 6.728284725,44.25256321"/>
      <polygon id="04227 VACHERES" points="5.640273144,43.91272424 5.633220407,43.91698258 5.619434711,43.9184217 5.613494824,43.92363351 5.607176495,43.94430572 5.614914492,43.94781265 5.614576605,43.96817119 5.624451614,43.98389093 5.64535631,43.98180221 5.64338944,43.96870274 5.64881612,43.95937746 5.671701645,43.94868989 5.661254979,43.94223632 5.663738301,43.92896591 5.661213279,43.92611897 5.644904907,43.92155363 5.640273144,43.91272424"/>
      <polygon id="04228 VALAVOIRE" points="6.069505547,44.25391085 6.063725934,44.25898158 6.064660421,44.26490976 6.053439883,44.2704739 6.053736273,44.27737477 6.048231803,44.28296845 6.057913172,44.29856259 6.052564629,44.30428728 6.072106335,44.30424723 6.090369876,44.29916801 6.092159046,44.28529008 6.10912351,44.27266822 6.105207714,44.26686963 6.086759699,44.25729163 6.069505547,44.25391085"/>
      <polygon id="04229 VALBELLE" points="5.864338258,44.11249079 5.833171679,44.11520157 5.828531445,44.12445384 5.834461024,44.13404549 5.847452082,44.14374191 5.847416578,44.16100832 5.852039057,44.16660737 5.856050551,44.16476468 5.884301715,44.16695235 5.900015857,44.15490112 5.923056244,44.14899319 5.918908692,44.13960156 5.922182084,44.13345278 5.918184263,44.12403023 5.911407321,44.11963513 5.903479575,44.11667519 5.880106814,44.11259074 5.864338258,44.11249079"/>
      <polygon id="04230 VALENSOLE" points="5.938094744,43.78881183 5.932383191,43.79426964 5.923312783,43.79557596 5.916729161,43.80055203 5.897832215,43.80155145 5.889975589,43.80550612 5.871150815,43.80624682 5.84561035,43.79697551 5.824151398,43.80448533 5.826296468,43.81115618 5.852210505,43.83483017 5.860185714,43.8470301 5.878833642,43.87460849 5.892194068,43.87933414 5.931587668,43.88155186 5.964620898,43.88757572 5.972501451,43.88610956 5.985501092,43.87563226 5.995125451,43.87635912 6.006671449,43.87007074 6.052876797,43.86044804 6.049200988,43.8547781 6.053681385,43.8487269 6.052475051,43.8419883 6.048192602,43.83588512 6.036124192,43.83049424 6.017506674,43.81457603 6.008017672,43.81363159 6.002034894,43.80816817 5.969714532,43.79424911 5.938094744,43.78881183"/>
      <polygon id="04231 VALERNES" points="5.982153208,44.22771899 5.95014054,44.23361015 5.931853288,44.23052421 5.92224879,44.23813921 5.921825464,44.24840974 5.920628818,44.25753893 5.928672458,44.25384789 5.933102091,44.25517084 5.950474217,44.27135125 5.974526647,44.28249354 5.983351556,44.28173181 5.988354407,44.27602008 5.989080059,44.26600183 5.993771506,44.26606322 5.998363101,44.25688527 6.024671256,44.25148879 6.035392282,44.24550905 6.032904346,44.24256923 6.019095481,44.2444451 5.985120498,44.23221412 5.982153208,44.22771899"/>
      <polygon id="04233 VAUMEILH" points="5.983351556,44.28173181 5.974526647,44.28249354 5.950474217,44.27135125 5.933102091,44.25517084 5.928672458,44.25384789 5.920628818,44.25753893 5.924755515,44.2636802 5.923269679,44.2669534 5.913983898,44.26847018 5.916191976,44.28167042 5.913496011,44.2882543 5.925751719,44.29295482 5.924474446,44.29931208 5.969685998,44.31025108 5.97885928,44.31818194 5.992588215,44.31562016 5.998136642,44.32444986 6.002988543,44.3246057 6.005201874,44.30955602 5.983351556,44.28173181"/>
      <polygon id="04234 VENTEROL" points="6.065748713,44.40192216 6.066266447,44.41866372 6.05497669,44.43328317 6.058558537,44.44650761 6.056239947,44.44944573 6.071219279,44.44251586 6.074234944,44.44501726 6.081920884,44.46420756 6.076863993,44.46929473 6.082678297,44.47740245 6.09137052,44.47735722 6.102344172,44.47211198 6.109716687,44.47553486 6.11531861,44.47558389 6.114544684,44.46222733 6.108573288,44.44926086 6.119520323,44.43408667 6.116118227,44.43212894 6.093179053,44.42695585 6.082034991,44.40793561 6.075365821,44.40292413 6.065748713,44.40192216"/>
      <polygon id="04235 VERDACHES" points="6.363700292,44.24876055 6.348237389,44.24033213 6.33884071,44.23887958 6.312421447,44.24677007 6.311743839,44.24697069 6.306687969,44.27333044 6.31547146,44.27365125 6.340702915,44.28944584 6.358630246,44.29480044 6.367589283,44.30202214 6.375864588,44.30299352 6.380081184,44.29480934 6.365630206,44.27473842 6.367708446,44.26159309 6.363700292,44.24876055"/>
      <polygon id="04236 VERGONS" points="6.620213987,43.88078162 6.606597165,43.87835887 6.578715793,43.8847723 6.568945275,43.89225412 6.559115124,43.91140305 6.546966253,43.92163586 6.578395395,43.94700599 6.597067955,43.93169002 6.601451578,43.93241037 6.608077943,43.94512852 6.628167415,43.95397662 6.637100134,43.9514903 6.642681672,43.9459438 6.644248319,43.9324138 6.657775182,43.92951097 6.648706743,43.92747203 6.649491729,43.90039154 6.635094695,43.89188117 6.627198679,43.88897283 6.620213987,43.88078162"/>
      <polygon id="04237 LE VERNET" points="6.363700292,44.24876055 6.367708446,44.26159309 6.365630206,44.27473842 6.380081184,44.29480934 6.391999295,44.29021654 6.411022727,44.29076277 6.423160336,44.29629567 6.464513383,44.30540606 6.467022359,44.30109222 6.433231723,44.28259286 6.405340095,44.25630617 6.394495934,44.25084887 6.363700292,44.24876055"/>
      <polygon id="04240 VILLARS-COLMARS" points="6.605167815,44.15821952 6.603253711,44.15507487 6.598653976,44.15595581 6.590747797,44.16452234 6.568696894,44.17055828 6.545554605,44.16840798 6.529172396,44.17309007 6.526847388,44.17919242 6.537177749,44.19107702 6.53334931,44.20481438 6.535129919,44.2323997 6.541649317,44.23766765 6.554840752,44.23397952 6.58277365,44.23416146 6.59490461,44.22861986 6.598522703,44.21552639 6.604445989,44.17741679 6.614785623,44.17011151 6.605167815,44.15821952"/>
      <polygon id="04241 VILLEMUS" points="5.727149455,43.84539532 5.721089858,43.85008491 5.705219014,43.84468989 5.6931238,43.8478076 5.688081484,43.85117354 5.685287813,43.85712219 5.69936916,43.86965099 5.697363566,43.87910128 5.70204691,43.8791565 5.717828501,43.87699068 5.723596982,43.88126812 5.729056368,43.85249717 5.727149455,43.84539532"/>
      <polygon id="04242 VILLENEUVE" points="5.860185714,43.8470301 5.853812604,43.86291981 5.85454882,43.87316635 5.843196508,43.89117584 5.836173208,43.89568105 5.813518011,43.90067086 5.812102489,43.90631752 5.816754234,43.91097933 5.826514441,43.9224339 5.85355347,43.917264 5.867607661,43.91803949 5.874856565,43.92220751 5.889613904,43.91002079 5.886953806,43.89018924 5.878833642,43.87460849 5.860185714,43.8470301"/>
      <polygon id="04244 VOLONNE" points="6.022145022,44.09986528 6.005110782,44.11290772 5.989779366,44.12114525 5.985284403,44.13126556 6.000514324,44.14283804 6.010517016,44.13591647 6.034807369,44.14602818 6.062465613,44.14116052 6.071537338,44.1342772 6.079734739,44.11937409 6.079402341,44.11300624 6.06751349,44.10815162 6.059932774,44.10457162 6.037538059,44.10654603 6.022145022,44.09986528"/>
      <polygon id="04245 VOLX" points="5.852210505,43.83483017 5.814922387,43.8660194 5.796770447,43.86718863 5.79074429,43.8758075 5.799642455,43.88032515 5.803438364,43.87852576 5.815961895,43.88785666 5.813518011,43.90067086 5.836173208,43.89568105 5.843196508,43.89117584 5.85454882,43.87316635 5.853812604,43.86291981 5.860185714,43.8470301 5.852210505,43.83483017"/>
    </g>
  </g>
</svg>