<?xml version="1.0" standalone="no"?>
<!DOCTYPE svg PUBLIC "-//W3C//DTD SVG 1.1//EN" 
  "http://www.w3.org/Graphics/SVG/1.1/DTD/svg11.dtd">
<svg width="1000" height="692" viewBox="0.738908963 43.76824219 1.258145509 0.625634309999995"  preserveAspectRatio="none"
     xmlns="http://www.w3.org/2000/svg" version="1.1">

<style type="text/css" >
<![CDATA[

.communes { 
	fill           : #b9b9b9;
	fill-opacity   : 1;
	stroke         : white;
	stroke-opacity : 1;
	stroke-width   : 0.002;
}

]]>
</style>

<g transform="translate(0,44.3938765) scale(1,-1) translate(0,-43.76824219)">

<g class="communes">

<polygon id="82001 ALBEFEUILLE-LAGARDE" points="1.270198064,44.02906116 1.251947871,44.0545448 1.265503202,44.05867644 1.278537195,44.06896481 1.286648385,44.05833422 1.29051168,44.05231806 1.287567625,44.04976941 1.289824013,44.03365468 1.281175802,44.03450944 1.270198064,44.02906116" />
<polygon id="82002 ALBIAS" points="1.468664295,44.06122037 1.46021714,44.0582933 1.445087645,44.06652332 1.435644733,44.06713599 1.415270714,44.07515194 1.405895522,44.08398201 1.405885402,44.09013936 1.412752288,44.09829604 1.420355035,44.1011696 1.430687354,44.10339759 1.441642519,44.11073771 1.442178794,44.105299 1.447901745,44.10159931 1.448785688,44.09254668 1.45705085,44.09083598 1.464448158,44.09349651 1.492120547,44.08150316 1.494975481,44.06846263 1.468664295,44.06122037" />
<polygon id="82003 ANGEVILLE" points="1.03140516,43.96864169 1.028535278,43.97485576 1.009698564,43.98914378 1.018038726,44.00246625 1.02029626,44.00928622 1.04309812,44.00711275 1.05860714,44.00001595 1.037677857,43.98702971 1.033556373,43.97746691 1.034970092,43.97081243 1.03140516,43.96864169" />
<polygon id="82004 ASQUES" points="0.960190422,43.9843782 0.943881176,43.98023749 0.941933657,43.98617876 0.950520485,43.99462271 0.953520621,44.0048432 0.945952039,44.01376735 0.923141324,44.02659825 0.945475148,44.02872149 0.959593293,44.03728651 0.964108517,44.02758427 0.967163168,44.0178638 0.961939926,44.0083315 0.978696936,44.00327672 0.970241419,43.99134438 0.960190422,43.9843782" />
<polygon id="82005 AUCAMVILLE" points="1.26687878,43.79862125 1.2697966,43.79213291 1.27740991,43.78895017 1.274345561,43.78632744 1.212776395,43.76824219 1.210042389,43.77106861 1.207038441,43.77734692 1.217956988,43.78375473 1.215753456,43.79027144 1.183190043,43.79407201 1.175342889,43.80439134 1.201334371,43.81771306 1.224133791,43.81769973 1.241142928,43.81315082 1.243826254,43.80389594 1.249524311,43.79882999 1.254137223,43.799156 1.257262815,43.80547073 1.261894473,43.80560769 1.26687878,43.79862125" />
<polygon id="82006 AUTERIVE" points="0.984799424,43.85611794 0.984588575,43.84904743 0.976626406,43.84556928 0.959081726,43.85132785 0.953366167,43.85704516 0.962560451,43.86296063 0.971092488,43.86480301 0.984799424,43.85611794" />
<polygon id="82007 AUTY" points="1.490738152,44.18496458 1.483902243,44.17624598 1.475660047,44.17387215 1.464855198,44.18026628 1.452493608,44.1789583 1.44596956,44.18377246 1.454116766,44.19148571 1.459800842,44.20058623 1.470160083,44.20718598 1.477614816,44.20268931 1.483994407,44.18966993 1.490738152,44.18496458" />
<polygon id="82008 AUVILLAR" points="0.864664426,44.03869855 0.853537123,44.04219028 0.850633883,44.04767944 0.859847086,44.06094205 0.86430231,44.05966953 0.872309142,44.06324676 0.875715319,44.07301869 0.886205448,44.08008238 0.882536059,44.0931027 0.905733822,44.06869907 0.909698825,44.0668211 0.91883898,44.06853479 0.922119899,44.06212369 0.91942552,44.05556311 0.904165606,44.04278439 0.901029327,44.04016735 0.879375569,44.04684456 0.864664426,44.03869855" />
<polygon id="82009 BALIGNAC" points="0.861350943,43.94780082 0.855472969,43.96361192 0.882117163,43.96172767 0.9016436,43.95372264 0.894288689,43.95142048 0.861350943,43.94780082" />
<polygon id="82010 BARDIGUES" points="0.919204116,44.0295125 0.915803944,44.01944526 0.902712132,44.01650311 0.893200818,44.00920784 0.884157675,44.01120305 0.885381321,44.0212563 0.868067467,44.0248097 0.865292211,44.03094089 0.857867874,44.03490134 0.864664426,44.03869855 0.879375569,44.04684456 0.901029327,44.04016735 0.904165606,44.04278439 0.918202433,44.03575067 0.919204116,44.0295125" />
<polygon id="82011 BARRY-D'ISLEMADE" points="1.251947871,44.0545448 1.247966357,44.05331084 1.224756786,44.06706182 1.233192,44.07889254 1.24772915,44.08576097 1.249892563,44.09866925 1.265728379,44.08693869 1.272913506,44.0822989 1.278537195,44.06896481 1.265503202,44.05867644 1.251947871,44.0545448" />
<polygon id="82012 LES BARTHES" points="1.176583608,44.06676533 1.170341416,44.07956206 1.153580188,44.08614988 1.15643263,44.10258309 1.161784092,44.10825479 1.156166925,44.11309401 1.162813494,44.11545638 1.172122916,44.11663838 1.172706882,44.10040696 1.178772494,44.09513329 1.1876171,44.09316433 1.191967985,44.08793362 1.187181384,44.07273 1.176583608,44.06676533" />
<polygon id="82013 BEAUMONT-DE-LOMAGNE" points="1.068881504,43.84551317 1.04675938,43.83954717 1.028003831,43.84281942 1.012851289,43.86044933 1.000431009,43.85522629 0.984799424,43.85611794 0.971092488,43.86480301 0.962560451,43.86296063 0.960957243,43.87231998 0.953201893,43.87586572 0.951088914,43.88550355 0.963761468,43.88860342 0.960574461,43.8980234 0.968754368,43.91025709 0.965294443,43.91963624 0.978650349,43.92899474 0.983111472,43.92788887 0.978757534,43.92174974 0.984087109,43.91190958 1.011836544,43.89782565 1.029932756,43.89473287 1.055845365,43.8824685 1.068587853,43.87958905 1.061210133,43.8714555 1.069633945,43.86410625 1.077925498,43.86173211 1.065351067,43.85427239 1.068881504,43.84551317" />
<polygon id="82014 BEAUPUY" points="1.115083152,43.79777614 1.110935575,43.79655216 1.105058441,43.80140091 1.108060565,43.80382043 1.10586596,43.80666278 1.097103869,43.80813945 1.083305731,43.81633217 1.093723335,43.82751474 1.101661488,43.83072276 1.134193059,43.83367858 1.150043692,43.82650439 1.144597614,43.8222982 1.142278852,43.81560667 1.125584354,43.80914595 1.115083152,43.79777614" />
<polygon id="82015 BELBESE" points="1.079906294,43.89200441 1.052388278,43.90938615 1.063044275,43.91864087 1.067197493,43.91809329 1.073316057,43.91023451 1.087009233,43.90292252 1.080152384,43.89208976 1.079906294,43.89200441" />
<polygon id="82016 BELVEZE" points="1.063815552,44.30632167 1.07248532,44.32939844 1.070280842,44.33593283 1.080805526,44.34744422 1.081222641,44.35439374 1.08693944,44.34899172 1.096261652,44.34902736 1.104229309,44.34529316 1.113645285,44.33759445 1.109471504,44.32469202 1.120364155,44.31809873 1.104438769,44.31165762 1.07458928,44.30660993 1.063815552,44.30632167" />
<polygon id="82017 BESSENS" points="1.260639442,43.86811012 1.24550867,43.88353946 1.236683532,43.88237108 1.258474842,43.89421585 1.254027107,43.90004084 1.271760495,43.90354552 1.293411745,43.89726096 1.293581297,43.89075556 1.300317975,43.88647697 1.298241602,43.88348317 1.267737821,43.87569418 1.260639442,43.86811012" />
<polygon id="82018 BIOULE" points="1.585406843,44.08895892 1.562093801,44.0848206 1.538670743,44.08801235 1.526130851,44.07839235 1.51375032,44.08339214 1.497080992,44.09558743 1.512000604,44.10446002 1.508097738,44.10655844 1.527573181,44.11483368 1.524821173,44.12121514 1.537810157,44.11713123 1.556819017,44.11701411 1.576144912,44.10722073 1.580922495,44.10751676 1.587198032,44.10233175 1.585406843,44.08895892" />
<polygon id="82019 BOUDOU" points="1.047279275,44.08747535 1.042538553,44.08658044 1.025225541,44.09272494 0.99175215,44.08796585 0.996870915,44.0933625 0.984993793,44.11020601 1.00193079,44.11896133 1.014169349,44.12388354 1.02648152,44.11882099 1.037039912,44.10367809 1.049797549,44.09381339 1.047279275,44.08747535" />
<polygon id="82020 BOUILLAC" points="1.082128959,43.81546533 1.058023386,43.82428333 1.065649641,43.82745245 1.072456247,43.83909514 1.07334071,43.84532197 1.068881504,43.84551317 1.065351067,43.85427239 1.077925498,43.86173211 1.108176207,43.85404221 1.112924882,43.86280211 1.121455234,43.86558681 1.130443582,43.87341066 1.153898069,43.88001211 1.161417252,43.87182147 1.155317412,43.85572262 1.15671843,43.85239771 1.16579713,43.85051638 1.157205843,43.84307135 1.154010423,43.82802984 1.150043692,43.82650439 1.134193059,43.83367858 1.101661488,43.83072276 1.093723335,43.82751474 1.083305731,43.81633217 1.082128959,43.81546533" />
<polygon id="82021 BOULOC" points="1.148521974,44.27886064 1.125761857,44.28305774 1.109582953,44.29089311 1.105322267,44.29723052 1.07458928,44.30660993 1.104438769,44.31165762 1.120364155,44.31809873 1.122865528,44.31565637 1.130534326,44.31698454 1.138965904,44.31533578 1.151414636,44.30738828 1.155581055,44.30188489 1.146696614,44.29445139 1.150853917,44.28844387 1.148521974,44.27886064" />
<polygon id="82022 BOURG-DE-VISA" points="0.962612051,44.22187946 0.951832661,44.22809875 0.929239237,44.23025012 0.919089819,44.23827003 0.932794737,44.25125179 0.927782484,44.26741002 0.940855059,44.26422519 0.950788108,44.27507194 0.986111465,44.26428978 0.972364671,44.25486171 0.973235745,44.25151926 0.967363837,44.24617938 0.953423764,44.24787438 0.94984585,44.24566467 0.951876691,44.23555494 0.964609918,44.23146076 0.962612051,44.22187946" />
<polygon id="82023 BOURRET" points="1.157885002,43.92038067 1.146206553,43.93484735 1.11998727,43.92795379 1.119113136,43.93104447 1.125359798,43.93540983 1.123034262,43.94134732 1.126080145,43.94723299 1.137611956,43.95771962 1.163327034,43.96643677 1.172046365,43.96777122 1.175881773,43.95229766 1.188336497,43.94228757 1.181049783,43.93051797 1.174933305,43.92547389 1.157885002,43.92038067" />
<polygon id="82024 BRASSAC" points="0.983616876,44.19804687 0.970265567,44.19482046 0.962559641,44.19891847 0.953285414,44.19926811 0.945187634,44.20757149 0.943810476,44.21414562 0.962152952,44.21513597 0.962612051,44.22187946 0.964609918,44.23146076 0.951876691,44.23555494 0.94984585,44.24566467 0.953423764,44.24787438 0.967363837,44.24617938 0.973235745,44.25151926 0.972364671,44.25486171 0.983730781,44.24419405 1.00031943,44.2380145 1.005316141,44.23232486 1.009057533,44.21884195 0.998657696,44.20700187 0.983616876,44.19804687" />
<polygon id="82025 BRESSOLS" points="1.321604786,43.92655674 1.301500189,43.93459949 1.297001003,43.93384533 1.292075723,43.94649684 1.279400306,43.95986371 1.289802272,43.96996499 1.286459385,43.97585389 1.290017366,43.97775498 1.291807911,43.9745783 1.300632601,43.97711033 1.322485137,43.97075046 1.340241719,43.97477523 1.341981908,43.96808633 1.354540182,43.95357638 1.343961238,43.94284869 1.334975948,43.94038973 1.325503767,43.93289967 1.321604786,43.92655674" />
<polygon id="82026 BRUNIQUEL" points="1.704208,44.04435914 1.689730809,44.02325874 1.672877107,44.01738482 1.669219652,44.01109352 1.664533206,44.01149547 1.662158934,44.0180644 1.643816196,44.02934231 1.619608969,44.05934771 1.617684884,44.0697023 1.609689122,44.0734988 1.609860659,44.07516629 1.61913778,44.07311425 1.6381991,44.0753873 1.645786856,44.09181939 1.653121259,44.09644666 1.669095393,44.08850439 1.663960257,44.07157288 1.666837662,44.0649288 1.68041589,44.06457119 1.6935263,44.06011065 1.704208,44.04435914" />
<polygon id="82027 CAMPSAS" points="1.349290011,43.87192639 1.319187741,43.87161995 1.300782479,43.87797791 1.300317975,43.88647697 1.293581297,43.89075556 1.293411745,43.89726096 1.30638801,43.89750803 1.313838967,43.90064783 1.32592388,43.90627064 1.346534146,43.89749328 1.356253257,43.89759503 1.362585469,43.89252343 1.365184231,43.88957396 1.355915294,43.8825308 1.356188332,43.87607204 1.349290011,43.87192639" />
<polygon id="82028 CANALS" points="1.293822921,43.84559978 1.28099118,43.84548834 1.275759886,43.85068951 1.279901099,43.85236611 1.285672217,43.86522975 1.300782479,43.87797791 1.319187741,43.87161995 1.319412324,43.85806756 1.29955379,43.85070292 1.293822921,43.84559978" />
<polygon id="82029 CASTANET" points="1.88449315,44.23738379 1.885076951,44.24081047 1.877408258,44.24487327 1.880061519,44.25130079 1.897611191,44.2537198 1.913510083,44.26131385 1.901390505,44.27911646 1.940270797,44.28254993 1.943413206,44.2800146 1.957518772,44.28022131 1.970633349,44.27634803 1.964207895,44.26455808 1.96202127,44.24233874 1.949045751,44.24315155 1.943065128,44.24758611 1.920624228,44.24226379 1.906398246,44.24359939 1.898692436,44.23930948 1.88449315,44.23738379" />
<polygon id="82030 CASTELFERRUS" points="1.111928878,43.99870784 1.098790496,43.99814714 1.096261245,43.99172937 1.088521967,43.98862354 1.068042991,43.99575376 1.068648172,44.00512716 1.081551481,44.0093784 1.091181126,44.02166439 1.094314529,44.02794885 1.099830622,44.01969034 1.110617951,44.01342232 1.1113315,44.00055204 1.111928878,43.99870784" />
<polygon id="82031 CASTELMAYRAN" points="1.068042991,43.99575376 1.05860714,44.00001595 1.04309812,44.00711275 1.02029626,44.00928622 1.016970597,44.01523986 1.032025821,44.02794462 1.032885388,44.03123711 1.028621361,44.03257383 1.032498521,44.04604893 1.045343196,44.04274994 1.048841442,44.04774594 1.063573198,44.04692721 1.064068285,44.03823924 1.058985506,44.02955153 1.060033491,44.02296209 1.071248766,44.01747067 1.068648172,44.00512716 1.068042991,43.99575376" />
<polygon id="82032 CASTELSAGRAT" points="0.96613303,44.14526842 0.955142598,44.15603046 0.948547571,44.16862057 0.937089791,44.17480739 0.930346381,44.1703495 0.921862512,44.17280922 0.917894092,44.17117628 0.918822561,44.16461208 0.901351833,44.16418011 0.899514997,44.17326592 0.907852055,44.17516302 0.925952135,44.17832496 0.936332316,44.19325111 0.953285414,44.19926811 0.962559641,44.19891847 0.970265567,44.19482046 0.983616876,44.19804687 1.003799013,44.17718512 0.995743986,44.16861982 0.972889195,44.15391998 0.96613303,44.14526842" />
<polygon id="82033 CASTELSARRASIN" points="1.142313062,43.99818388 1.140137986,43.99528416 1.131192479,43.99465453 1.1113315,44.00055204 1.110617951,44.01342232 1.099830622,44.01969034 1.094314529,44.02794885 1.091181126,44.02166439 1.084229964,44.01689753 1.079613547,44.01728473 1.078724571,44.02403913 1.085457707,44.03641885 1.08165666,44.03811682 1.065000852,44.03172871 1.064068285,44.03823924 1.063573198,44.04692721 1.048841442,44.04774594 1.044138897,44.04874236 1.04200472,44.05526735 1.055240144,44.0734642 1.066691573,44.06867933 1.070655279,44.07036077 1.065988951,44.07980361 1.093620276,44.07628178 1.119306869,44.09182377 1.151031587,44.10000728 1.156166925,44.11309401 1.161784092,44.10825479 1.15643263,44.10258309 1.153580188,44.08614988 1.170341416,44.07956206 1.176583608,44.06676533 1.177361957,44.06429356 1.17287647,44.06322851 1.176884477,44.0433366 1.185798884,44.0354005 1.202441072,44.0296165 1.156050254,44.01262213 1.139076818,44.00066754 1.142313062,43.99818388" />
<polygon id="82034 CASTERA-BOUZET" points="0.905480433,43.98599969 0.892354827,43.98250637 0.888407577,43.98438387 0.890143346,43.99441978 0.876434291,44.00354472 0.884157675,44.01120305 0.893200818,44.00920784 0.902712132,44.01650311 0.915803944,44.01944526 0.919204116,44.0295125 0.923141324,44.02659825 0.945952039,44.01376735 0.953520621,44.0048432 0.950520485,43.99462271 0.941933657,43.98617876 0.913125043,43.98937794 0.905480433,43.98599969" />
<polygon id="82035 CAUMONT" points="1.018038726,44.00246625 0.995006083,44.00661087 0.980795715,44.00634946 0.978696936,44.00327672 0.961939926,44.0083315 0.967163168,44.0178638 0.964108517,44.02758427 0.970615592,44.02321265 0.974183861,44.02532246 0.990184038,44.03723139 0.990638898,44.04379395 1.028621361,44.03257383 1.032885388,44.03123711 1.032025821,44.02794462 1.016970597,44.01523986 1.02029626,44.00928622 1.018038726,44.00246625" />
<polygon id="82036 LE CAUSE" points="0.982502847,43.79046069 0.971630909,43.78657717 0.964061449,43.78978466 0.956062842,43.78932887 0.943187595,43.80803556 0.947516074,43.80691989 0.982423633,43.81841878 0.988489197,43.81704555 0.991890489,43.8069272 1.000343752,43.79836893 0.987578458,43.79559549 0.982502847,43.79046069" />
<polygon id="82037 CAUSSADE" points="1.580922495,44.10751676 1.576144912,44.10722073 1.556819017,44.11701411 1.537810157,44.11713123 1.524821173,44.12121514 1.521606088,44.14442437 1.513060109,44.14565914 1.494044931,44.13573121 1.489412093,44.13602757 1.494491741,44.14151679 1.493920047,44.15837922 1.499091314,44.17090937 1.514717839,44.19179156 1.528231225,44.19129845 1.538344219,44.19797837 1.552279575,44.19668669 1.567744333,44.20915085 1.57190408,44.21046539 1.588422832,44.20603383 1.595641008,44.19856447 1.580234735,44.18563699 1.553484637,44.1926065 1.547006546,44.18758762 1.548823202,44.18112098 1.539984805,44.17358581 1.552842741,44.15542764 1.576463815,44.15289212 1.583247939,44.14858695 1.576200569,44.12496431 1.599154949,44.11240533 1.586813023,44.11179677 1.580922495,44.10751676" />
<polygon id="82038 CAYLUS" points="1.829435546,44.21316253 1.817901102,44.20749374 1.818984495,44.19752229 1.799874054,44.19532556 1.783534618,44.20285133 1.769076619,44.20421147 1.75494398,44.21353123 1.740596858,44.21424978 1.738928809,44.19692867 1.725088703,44.19697581 1.714085246,44.20326592 1.701229305,44.20015285 1.700129629,44.20664837 1.690578134,44.2138176 1.692188688,44.22051643 1.682234246,44.2319563 1.686884715,44.25229425 1.681542638,44.26550881 1.689558621,44.26884558 1.695026778,44.2778591 1.692884592,44.28436044 1.680604689,44.29399048 1.702225224,44.30170195 1.725210924,44.295237 1.740017847,44.29506561 1.746998674,44.28999601 1.766693072,44.26614648 1.791375548,44.25543805 1.800770118,44.25541497 1.83161351,44.26425436 1.833864913,44.24004461 1.845927346,44.22938762 1.851496877,44.2239008 1.850355129,44.21722742 1.847189584,44.21470069 1.837948783,44.21610659 1.829435546,44.21316253" />
<polygon id="82039 CAYRAC" points="1.464448158,44.09349651 1.45705085,44.09083598 1.448785688,44.09254668 1.447901745,44.10159931 1.473001988,44.1112692 1.49621945,44.11542517 1.501015327,44.11504077 1.508097738,44.10655844 1.512000604,44.10446002 1.497080992,44.09558743 1.485382076,44.10993766 1.464448158,44.09349651" />
<polygon id="82040 CAYRIECH" points="1.595641008,44.19856447 1.588422832,44.20603383 1.589562781,44.21909294 1.58629018,44.22534354 1.590859699,44.23089378 1.602324382,44.22648507 1.615065559,44.22663752 1.62919085,44.21924379 1.626108702,44.20952778 1.618127872,44.20626779 1.613796345,44.20683433 1.595641008,44.19856447" />
<polygon id="82041 CAZALS" points="1.722089132,44.11839964 1.722150839,44.11509674 1.703120838,44.11621446 1.68959314,44.11276792 1.671048045,44.11612729 1.661998881,44.11411782 1.658715708,44.11664319 1.647503076,44.12681249 1.663418432,44.1366577 1.671936183,44.13374559 1.694590255,44.13838357 1.703628583,44.13669945 1.722089132,44.11839964" />
<polygon id="82042 CAZES-MONDENARD" points="1.194342017,44.15561135 1.1838125,44.16265793 1.175659116,44.18210448 1.175178701,44.19238718 1.183106003,44.19610202 1.18280755,44.19956333 1.165360226,44.21122948 1.167980349,44.22119497 1.18532227,44.22583162 1.190379939,44.23135315 1.179342495,44.24597237 1.185749183,44.25008494 1.200648035,44.2629529 1.209070677,44.26602566 1.22611721,44.26061203 1.236053977,44.25329922 1.25059291,44.24003577 1.26682268,44.25154719 1.273096224,44.24214756 1.262000248,44.22659502 1.254250684,44.22290681 1.253774528,44.21274366 1.232127216,44.19840623 1.229567747,44.19540294 1.229313028,44.19193262 1.232412584,44.18923665 1.265176997,44.17426545 1.26716458,44.1710288 1.256900637,44.16351079 1.233766681,44.17546577 1.221889998,44.17003414 1.208390144,44.1693463 1.194342017,44.15561135" />
<polygon id="82043 COMBEROUGER" points="1.130443582,43.87341066 1.121455234,43.86558681 1.112924882,43.86280211 1.108176207,43.85404221 1.077925498,43.86173211 1.069633945,43.86410625 1.061210133,43.8714555 1.068587853,43.87958905 1.079906294,43.89200441 1.080152384,43.89208976 1.112344658,43.87734797 1.130443582,43.87341066" />
<polygon id="82044 CORBARIEU" points="1.389657188,43.91593336 1.383234251,43.9167296 1.367347669,43.9236044 1.363311272,43.94015173 1.355186805,43.95232589 1.361723984,43.95681687 1.36157865,43.96361092 1.366239547,43.96404976 1.394458236,43.95242381 1.402326782,43.95397936 1.415555247,43.94427034 1.398547158,43.93859452 1.389657188,43.91593336" />
<polygon id="82045 CORDES-TOLOSANNES" points="1.126080145,43.94723299 1.112614445,43.9565436 1.114412293,43.96322731 1.120645538,43.97225593 1.116189609,43.98903167 1.111443603,43.99340601 1.111928878,43.99870784 1.1113315,44.00055204 1.131192479,43.99465453 1.140137986,43.99528416 1.142313062,43.99818388 1.159458914,43.99591711 1.15832678,43.99274724 1.149966819,43.99022051 1.154729472,43.98484559 1.161436983,43.98021439 1.163327034,43.96643677 1.137611956,43.95771962 1.126080145,43.94723299" />
<polygon id="82046 COUTURES" points="0.984371161,43.93771584 0.980176067,43.94149144 0.974462885,43.97361516 0.999955897,43.98215095 0.996069225,43.94942724 0.997072782,43.94001101 0.984371161,43.93771584" />
<polygon id="82047 CUMONT" points="0.923737996,43.84763614 0.912698416,43.84848772 0.904105901,43.8609532 0.886032895,43.87224465 0.88286611,43.88583105 0.885672009,43.891404 0.900634079,43.89685122 0.896386714,43.88339172 0.911865831,43.86990627 0.920290136,43.86649323 0.925331695,43.86095377 0.923737996,43.84763614" />
<polygon id="82048 DIEUPENTALE" points="1.275759886,43.85068951 1.273611794,43.85221276 1.266988087,43.85611332 1.260639442,43.86811012 1.267737821,43.87569418 1.298241602,43.88348317 1.300317975,43.88647697 1.300782479,43.87797791 1.285672217,43.86522975 1.279901099,43.85236611 1.275759886,43.85068951" />
<polygon id="82049 DONZAC" points="0.820154369,44.06811813 0.814061462,44.06939223 0.803448101,44.07874182 0.804977251,44.08864066 0.796459632,44.10374924 0.798587848,44.11010379 0.793164969,44.11845845 0.797564987,44.13038728 0.809033486,44.12409823 0.827976143,44.12166606 0.833852156,44.11638003 0.837464229,44.10290061 0.825756443,44.09832002 0.820154369,44.06811813" />
<polygon id="82050 DUNES" points="0.753346984,44.05636816 0.750387758,44.06553635 0.741884791,44.06519924 0.738908963,44.07472703 0.747659268,44.0865225 0.748003462,44.0932916 0.754382946,44.10480369 0.775040831,44.11688541 0.781919684,44.11291902 0.798587848,44.11010379 0.796459632,44.10374924 0.804977251,44.08864066 0.803448101,44.07874182 0.814061462,44.06939223 0.814011164,44.06907609 0.80998809,44.07107556 0.781584935,44.06895511 0.753346984,44.05636816" />
<polygon id="82051 DURFORT-LACAPELETTE" points="1.193117978,44.15438478 1.185614076,44.15833026 1.166771783,44.1609159 1.158029777,44.15821253 1.157515189,44.1513255 1.150476049,44.14783982 1.139383685,44.15399938 1.125974421,44.15107908 1.11242027,44.15369161 1.112392709,44.15715738 1.123586097,44.17986669 1.120372627,44.18245866 1.106372511,44.182452 1.090396983,44.18984603 1.088052176,44.20337349 1.098185426,44.20389169 1.126625308,44.20835135 1.143601567,44.21514927 1.148441526,44.21529404 1.160434524,44.20524083 1.165360226,44.21122948 1.18280755,44.19956333 1.183106003,44.19610202 1.175178701,44.19238718 1.175659116,44.18210448 1.1838125,44.16265793 1.194342017,44.15561135 1.193117978,44.15438478" />
<polygon id="82052 ESCATALENS" points="1.175881773,43.95229766 1.172046365,43.96777122 1.163327034,43.96643677 1.161436983,43.98021439 1.154729472,43.98484559 1.173169047,43.98797292 1.18304008,43.99514114 1.201355889,43.99878374 1.212565255,44.00520605 1.221321606,44.01756485 1.227822306,44.01632 1.228140601,44.0129043 1.227751788,44.01056643 1.226555588,43.99369494 1.217974803,43.99055773 1.217639435,43.98373765 1.200979755,43.97751439 1.206310364,43.96102917 1.190169234,43.95363346 1.175881773,43.95229766" />
<polygon id="82053 ESCAZEAUX" points="1.058023386,43.82428333 1.046402193,43.81871073 1.033146546,43.82132596 1.024740789,43.81848249 1.011471873,43.82073479 0.990723523,43.84968272 0.999401288,43.85194868 1.000431009,43.85522629 1.012851289,43.86044933 1.028003831,43.84281942 1.04675938,43.83954717 1.068881504,43.84551317 1.07334071,43.84532197 1.072456247,43.83909514 1.065649641,43.82745245 1.058023386,43.82428333" />
<polygon id="82054 ESPALAIS" points="0.957047322,44.06094436 0.929268711,44.05987326 0.923498405,44.06848821 0.91883898,44.06853479 0.909698825,44.0668211 0.905733822,44.06869907 0.882536059,44.0931027 0.873396735,44.09663515 0.876523061,44.10124265 0.886576699,44.09396405 0.900013507,44.09411443 0.907236669,44.08522214 0.931519625,44.06939632 0.940557544,44.07154741 0.946310129,44.06682068 0.958701087,44.06391927 0.957047322,44.06094436" />
<polygon id="82055 ESPARSAC" points="0.951088914,43.88550355 0.93981929,43.88564252 0.912733659,43.90438427 0.926536208,43.9186012 0.93471279,43.93562701 0.94130364,43.93112407 0.959342555,43.92865375 0.980176067,43.94149144 0.984371161,43.93771584 0.983111472,43.92788887 0.978650349,43.92899474 0.965294443,43.91963624 0.968754368,43.91025709 0.960574461,43.8980234 0.963761468,43.88860342 0.951088914,43.88550355" />
<polygon id="82056 ESPINAS" points="1.837912066,44.17814541 1.832473731,44.17861878 1.777392459,44.1922868 1.749632421,44.18986755 1.738928809,44.19692867 1.740596858,44.21424978 1.75494398,44.21353123 1.769076619,44.20421147 1.783534618,44.20285133 1.799874054,44.19532556 1.818984495,44.19752229 1.817901102,44.20749374 1.829435546,44.21316253 1.843726337,44.19423002 1.836797331,44.19043904 1.837912066,44.17814541" />
<polygon id="82057 FABAS" points="1.349290011,43.87192639 1.361470479,43.85807718 1.358857124,43.85248424 1.335297573,43.85124519 1.319412324,43.85806756 1.319187741,43.87161995 1.349290011,43.87192639" />
<polygon id="82058 FAJOLLES" points="0.996069225,43.94942724 0.999955897,43.98215095 1.009698564,43.98914378 1.028535278,43.97485576 1.03140516,43.96864169 1.02731569,43.96218517 1.026971182,43.95233022 1.02362627,43.94996514 0.996069225,43.94942724" />
<polygon id="82059 FAUDOAS" points="0.93949075,43.81438414 0.927872506,43.82795507 0.929083796,43.83433356 0.943700458,43.8476902 0.953366167,43.85704516 0.959081726,43.85132785 0.976626406,43.84556928 0.984588575,43.84904743 0.984799424,43.85611794 1.000431009,43.85522629 0.999401288,43.85194868 0.990723523,43.84968272 1.011471873,43.82073479 0.988489197,43.81704555 0.982423633,43.81841878 0.978534176,43.82399092 0.948758458,43.81455891 0.93949075,43.81438414" />
<polygon id="82060 FAUROUX" points="1.005316141,44.23232486 1.00031943,44.2380145 0.983730781,44.24419405 0.972364671,44.25486171 0.986111465,44.26428978 0.994172457,44.26771474 1.012916497,44.27063051 1.02215828,44.26901447 1.036469212,44.24727454 1.024420496,44.24363698 1.024857525,44.23719806 1.005316141,44.23232486" />
<polygon id="82061 FENEYROLS" points="1.837430476,44.10325614 1.825328478,44.10796984 1.806013871,44.12644826 1.809566767,44.13940419 1.803987094,44.14854316 1.832473731,44.17861878 1.837912066,44.17814541 1.837852961,44.17186157 1.847771973,44.16625912 1.847502283,44.16290766 1.834999009,44.15367488 1.836774584,44.14389096 1.830068267,44.13202754 1.840518731,44.11415358 1.837430476,44.10325614" />
<polygon id="82062 FINHAN" points="1.253148047,43.90395147 1.249381591,43.90619557 1.223784438,43.89615942 1.209241468,43.89626392 1.211350684,43.89926905 1.201397121,43.91054675 1.188806102,43.90944747 1.186536651,43.92953796 1.195883592,43.92898158 1.202293497,43.9239922 1.211461883,43.92234235 1.234402603,43.92555114 1.23889639,43.91957451 1.251027498,43.91424241 1.256399026,43.90593878 1.253148047,43.90395147" />
<polygon id="82063 GARGANVILLAR" points="1.045851633,43.94391915 1.031739384,43.95282132 1.02731569,43.96218517 1.03140516,43.96864169 1.034970092,43.97081243 1.033556373,43.97746691 1.037677857,43.98702971 1.05860714,44.00001595 1.068042991,43.99575376 1.088521967,43.98862354 1.096261245,43.99172937 1.098790496,43.99814714 1.111928878,43.99870784 1.111443603,43.99340601 1.116189609,43.98903167 1.10399794,43.98294237 1.084986682,43.96655072 1.066181839,43.95725324 1.045851633,43.94391915" />
<polygon id="82064 GARIES" points="1.059131935,43.79859447 1.044982347,43.7995208 1.036771316,43.80302787 1.000343752,43.79836893 0.991890489,43.8069272 0.988489197,43.81704555 1.011471873,43.82073479 1.024740789,43.81848249 1.033146546,43.82132596 1.046402193,43.81871073 1.058023386,43.82428333 1.082128959,43.81546533 1.059131935,43.79859447" />
<polygon id="82065 GASQUES" points="0.926208187,44.12880905 0.901228664,44.12856767 0.896675214,44.12831831 0.892065892,44.13733258 0.893402213,44.14344484 0.888351338,44.14881301 0.885223716,44.16128616 0.889793781,44.16688461 0.901351833,44.16418011 0.918822561,44.16461208 0.917894092,44.17117628 0.921862512,44.17280922 0.930346381,44.1703495 0.925001334,44.16462111 0.933792949,44.15675572 0.933316408,44.14303405 0.924322472,44.13560715 0.926208187,44.12880905" />
<polygon id="82066 GENEBRIERES" points="1.527858605,43.98649086 1.519176606,43.98667969 1.505888202,43.97853266 1.497770168,43.98101384 1.48507426,43.97887636 1.471223454,43.98404846 1.4702002,44.00034497 1.462282178,44.00864147 1.454931867,44.02811665 1.486765909,44.0226924 1.496369404,44.0152184 1.52055123,44.00480924 1.526976586,43.99215888 1.527858605,43.98649086" />
<polygon id="82067 GENSAC" points="0.980176067,43.94149144 0.959342555,43.92865375 0.94130364,43.93112407 0.93471279,43.93562701 0.934634985,43.94259361 0.945040137,43.95431325 0.96282619,43.97063507 0.971854733,43.97299062 0.974462885,43.97361516 0.980176067,43.94149144" />
<polygon id="82068 GIMAT" points="0.943700458,43.8476902 0.936131974,43.84474759 0.923737996,43.84763614 0.925331695,43.86095377 0.920290136,43.86649323 0.917892065,43.87288417 0.930757549,43.87500136 0.932689428,43.88420237 0.93981929,43.88564252 0.951088914,43.88550355 0.953201893,43.87586572 0.960957243,43.87231998 0.962560451,43.86296063 0.953366167,43.85704516 0.943700458,43.8476902" />
<polygon id="82069 GINALS" points="1.890347485,44.20756586 1.869618553,44.20025192 1.865181596,44.19435496 1.856941218,44.19100179 1.843726337,44.19423002 1.829435546,44.21316253 1.837948783,44.21610659 1.847189584,44.21470069 1.850355129,44.21722742 1.851496877,44.2239008 1.845927346,44.22938762 1.852280724,44.23776304 1.873244257,44.23257894 1.88449315,44.23738379 1.898692436,44.23930948 1.906398246,44.24359939 1.920624228,44.24226379 1.943065128,44.24758611 1.932162528,44.24264664 1.908349702,44.21245431 1.894638024,44.2128122 1.890347485,44.20756586" />
<polygon id="82070 GLATENS" points="0.932689428,43.88420237 0.918186723,43.89279413 0.900634079,43.89685122 0.904653848,43.89892701 0.912733659,43.90438427 0.93981929,43.88564252 0.932689428,43.88420237" />
<polygon id="82071 GOAS" points="0.982423633,43.81841878 0.947516074,43.80691989 0.943187595,43.80803556 0.93949075,43.81438414 0.948758458,43.81455891 0.978534176,43.82399092 0.982423633,43.81841878" />
<polygon id="82072 GOLFECH" points="0.873396735,44.09663515 0.865972543,44.0933845 0.847516006,44.09581453 0.837464229,44.10290061 0.833852156,44.11638003 0.857814136,44.12757465 0.869091678,44.12651595 0.874541107,44.12151662 0.870563807,44.11557795 0.878180852,44.10737927 0.876523061,44.10124265 0.873396735,44.09663515" />
<polygon id="82073 GOUDOURVILLE" points="0.913256475,44.09069408 0.902719508,44.101027 0.904550851,44.10761667 0.900849686,44.11377634 0.909087725,44.12526946 0.901228664,44.12856767 0.926208187,44.12880905 0.93707072,44.13501947 0.93913099,44.11887874 0.95697432,44.10959711 0.958425789,44.10327673 0.957351618,44.09839486 0.950175753,44.10268152 0.94087392,44.10249808 0.928368328,44.10691714 0.913256475,44.09069408" />
<polygon id="82074 GRAMONT" points="0.77000398,43.92214332 0.760549111,43.93866873 0.760114126,43.94530419 0.783777673,43.95491599 0.785137304,43.95809468 0.792216274,43.96615177 0.813564706,43.95489481 0.809297946,43.93230167 0.77000398,43.92214332" />
<polygon id="82075 GRISOLLES" points="1.281825142,43.79624761 1.277960202,43.80162319 1.26687878,43.79862125 1.261894473,43.80560769 1.26426437,43.81228822 1.254565197,43.81933427 1.255132091,43.82275477 1.278712511,43.83897155 1.273611794,43.85221276 1.275759886,43.85068951 1.28099118,43.84548834 1.293822921,43.84559978 1.303039038,43.8439163 1.314450725,43.8331299 1.331644659,43.83748074 1.298699137,43.81340706 1.297573081,43.80655775 1.301897451,43.80030654 1.299029858,43.79978478 1.281825142,43.79624761" />
<polygon id="82076 L'HONOR-DE-COS" points="1.355217491,44.07829947 1.348682595,44.08187406 1.345409503,44.0905029 1.346777695,44.09371039 1.330267717,44.10083296 1.307793077,44.12729771 1.324985166,44.14235307 1.338834916,44.14371612 1.352549087,44.14115025 1.359797207,44.14904615 1.370029287,44.13406547 1.388071876,44.12991206 1.411231457,44.11831306 1.430687354,44.10339759 1.420355035,44.1011696 1.423439483,44.10752459 1.417014327,44.11258126 1.399967592,44.10737341 1.39011793,44.11459305 1.385376954,44.11433425 1.382683936,44.1114858 1.384864687,44.0980505 1.357596157,44.08458274 1.355217491,44.07829947" />
<polygon id="82077 LABARTHE" points="1.329184626,44.17046955 1.317797753,44.18498812 1.302580022,44.19349558 1.300669623,44.20339628 1.292514452,44.21197563 1.28854958,44.21394858 1.279632038,44.21163044 1.272888853,44.21644924 1.272030624,44.22326011 1.281317633,44.23534407 1.30304133,44.22831738 1.316281154,44.23067293 1.324359146,44.22764544 1.33386357,44.2284563 1.341077648,44.22410004 1.35757826,44.20334436 1.348763631,44.19573073 1.339977661,44.19792091 1.332916909,44.17243492 1.329184626,44.17046955" />
<polygon id="82078 LABASTIDE-DE-PENNE" points="1.61619298,44.27797502 1.606493929,44.27083942 1.598929665,44.25903085 1.580789652,44.25958124 1.576670176,44.26949388 1.565241291,44.27553009 1.564491305,44.27892333 1.575559219,44.28529723 1.570604584,44.29839496 1.573824438,44.30095756 1.587527085,44.30143156 1.596701299,44.30152203 1.602524675,44.29616755 1.616652496,44.29766964 1.61619298,44.27797502" />
<polygon id="82079 LABASTIDE-SAINT-PIERRE" points="1.362585469,43.89252343 1.356253257,43.89759503 1.346534146,43.89749328 1.32592388,43.90627064 1.313838967,43.90064783 1.306084785,43.9161184 1.317809152,43.92053933 1.321604786,43.92655674 1.325503767,43.93289967 1.334975948,43.94038973 1.343961238,43.94284869 1.354540182,43.95357638 1.355186805,43.95232589 1.363311272,43.94015173 1.367347669,43.9236044 1.383234251,43.9167296 1.374058633,43.90224526 1.362585469,43.89252343" />
<polygon id="82080 LABASTIDE-DU-TEMPLE" points="1.222848767,44.06578852 1.218209534,44.06641532 1.198252692,44.05828352 1.186797956,44.0639911 1.177361957,44.06429356 1.176583608,44.06676533 1.187181384,44.07273 1.191967985,44.08793362 1.1876171,44.09316433 1.203740051,44.10356697 1.21158555,44.10676525 1.222739416,44.10128403 1.22264673,44.09785251 1.212071377,44.0909104 1.214820122,44.07416533 1.222848767,44.06578852" />
<polygon id="82081 LABOURGADE" points="1.09936439,43.94653751 1.093369459,43.94249009 1.084967104,43.9493199 1.066181839,43.95725324 1.084986682,43.96655072 1.114412293,43.96322731 1.112614445,43.9565436 1.09936439,43.94653751" />
<polygon id="82082 LACAPELLE-LIVRON" points="1.83161351,44.26425436 1.800770118,44.25541497 1.791375548,44.25543805 1.766693072,44.26614648 1.746998674,44.28999601 1.770314805,44.28979119 1.795462692,44.27472971 1.802182254,44.27930429 1.811529529,44.27933375 1.814684563,44.28186145 1.819883314,44.28134125 1.83161351,44.26425436" />
<polygon id="82083 LACHAPELLE" points="0.876950153,43.96961307 0.868846147,43.96731265 0.855611636,43.9708621 0.808342169,43.9811786 0.809019479,43.98204749 0.826871835,43.99749327 0.825148652,44.00440959 0.853586431,43.99982152 0.852604128,43.99312185 0.85871258,43.98455359 0.876950153,43.96961307" />
<polygon id="82084 LACOUR" points="0.986111465,44.26428978 0.950788108,44.27507194 0.92484983,44.28831679 0.923514782,44.29156918 0.93406263,44.29762981 0.970586888,44.29686051 0.978414041,44.30483847 0.989928613,44.29482978 0.991134844,44.28873797 0.995423314,44.27664264 0.988062798,44.27251028 0.994172457,44.26771474 0.986111465,44.26428978" />
<polygon id="82085 LACOURT-SAINT-PIERRE" points="1.279400306,43.95986371 1.27883461,43.96332951 1.271182188,43.96744863 1.26929009,43.97763588 1.251289144,43.98048214 1.239291238,43.98629396 1.24117743,43.99668573 1.227751788,44.01056643 1.228140601,44.0129043 1.232379756,44.01457528 1.256404388,43.99828886 1.284501595,43.99493434 1.29407577,44.00126848 1.303347801,44.0023219 1.31106517,43.99819241 1.311238873,43.99148865 1.290017366,43.97775498 1.286459385,43.97585389 1.289802272,43.96996499 1.279400306,43.95986371" />
<polygon id="82086 LAFITTE" points="1.114412293,43.96322731 1.084986682,43.96655072 1.10399794,43.98294237 1.116189609,43.98903167 1.120645538,43.97225593 1.114412293,43.96322731" />
<polygon id="82087 LAFRANCAISE" points="1.265728379,44.08693869 1.249892563,44.09866925 1.250975141,44.10896755 1.245321639,44.11442282 1.221457199,44.11752217 1.213631422,44.11363172 1.179669087,44.13192491 1.178309736,44.14158054 1.193117978,44.15438478 1.194342017,44.15561135 1.208390144,44.1693463 1.221889998,44.17003414 1.233766681,44.17546577 1.256900637,44.16351079 1.268683338,44.16182482 1.273790272,44.15262339 1.271614876,44.14685434 1.286809596,44.13429093 1.299442181,44.13028338 1.294728763,44.12407036 1.291580129,44.1215456 1.294841806,44.11196362 1.275666038,44.09738546 1.267740084,44.09798963 1.26912922,44.08887401 1.265728379,44.08693869" />
<polygon id="82088 LAGUEPIE" points="1.990170713,44.14945256 1.98336846,44.15232417 1.968628248,44.14474237 1.95545375,44.14875831 1.941393709,44.14785836 1.932682095,44.15574923 1.919064302,44.16307814 1.9204604,44.16594538 1.940710408,44.16977043 1.946483916,44.1828243 1.960596297,44.18407509 1.973979682,44.18139256 1.980073007,44.17642651 1.973623167,44.17135252 1.975742934,44.16476523 1.997054472,44.15822009 1.990170713,44.14945256" />
<polygon id="82089 LAMAGISTERE" points="0.833852156,44.11638003 0.827976143,44.12166606 0.809033486,44.12409823 0.797564987,44.13038728 0.787732622,44.14275901 0.796567764,44.14515196 0.820500129,44.14290213 0.855410831,44.13064299 0.857814136,44.12757465 0.833852156,44.11638003" />
<polygon id="82090 LAMOTHE-CAPDEVILLE" points="1.405895522,44.08398201 1.401320615,44.0850136 1.385952583,44.07687529 1.367539282,44.07319953 1.355217491,44.07829947 1.357596157,44.08458274 1.384864687,44.0980505 1.382683936,44.1114858 1.385376954,44.11433425 1.39011793,44.11459305 1.399967592,44.10737341 1.417014327,44.11258126 1.423439483,44.10752459 1.420355035,44.1011696 1.412752288,44.09829604 1.405885402,44.09013936 1.405895522,44.08398201" />
<polygon id="82091 LAMOTHE-CUMONT" points="0.920290136,43.86649323 0.911865831,43.86990627 0.896386714,43.88339172 0.900634079,43.89685122 0.918186723,43.89279413 0.932689428,43.88420237 0.930757549,43.87500136 0.917892065,43.87288417 0.920290136,43.86649323" />
<polygon id="82092 LAPENCHE" points="1.588422832,44.20603383 1.57190408,44.21046539 1.567744333,44.20915085 1.54605403,44.23018362 1.573018434,44.23535368 1.578932681,44.24369469 1.590859699,44.23089378 1.58629018,44.22534354 1.589562781,44.21909294 1.588422832,44.20603383" />
<polygon id="82093 LARRAZET" points="1.087009233,43.90292252 1.073316057,43.91023451 1.067197493,43.91809329 1.081147762,43.91654786 1.085014956,43.92228708 1.076528818,43.92537875 1.068669105,43.93385519 1.050430702,43.93789736 1.045851633,43.94391915 1.066181839,43.95725324 1.084967104,43.9493199 1.093369459,43.94249009 1.09936439,43.94653751 1.115924062,43.92313069 1.090664042,43.90904487 1.087009233,43.90292252" />
<polygon id="82094 LAUZERTE" points="1.167980349,44.22119497 1.158796553,44.22217576 1.151043147,44.23804466 1.146566513,44.2389866 1.139963693,44.23410307 1.13088266,44.23264336 1.121582838,44.23364612 1.114777753,44.23832842 1.11017117,44.23751094 1.112203366,44.24757597 1.107223082,44.2601945 1.103872288,44.26261275 1.072222454,44.26522228 1.079671953,44.27390641 1.065326315,44.29144659 1.054274753,44.29787848 1.063815552,44.30632167 1.07458928,44.30660993 1.105322267,44.29723052 1.109582953,44.29089311 1.125761857,44.28305774 1.148521974,44.27886064 1.152654972,44.27702141 1.175920309,44.28074142 1.181320235,44.27493354 1.182118701,44.27152538 1.156877077,44.26163304 1.15514023,44.2584076 1.185749183,44.25008494 1.179342495,44.24597237 1.190379939,44.23135315 1.18532227,44.22583162 1.167980349,44.22119497" />
<polygon id="82095 LAVAURETTE" points="1.662261399,44.18849513 1.640656618,44.18789653 1.642707571,44.19683408 1.657081687,44.21337693 1.657561248,44.23280075 1.67527607,44.23020716 1.690578134,44.2138176 1.700129629,44.20664837 1.701229305,44.20015285 1.662261399,44.18849513" />
<polygon id="82096 LA VILLE-DIEU-DU-TEMPLE" points="1.227822306,44.01632 1.221321606,44.01756485 1.217105536,44.02313167 1.208564425,44.02455856 1.206869473,44.03044536 1.202441072,44.0296165 1.185798884,44.0354005 1.176884477,44.0433366 1.17287647,44.06322851 1.177361957,44.06429356 1.186797956,44.0639911 1.198252692,44.05828352 1.218209534,44.06641532 1.222848767,44.06578852 1.224756786,44.06706182 1.247966357,44.05331084 1.251947871,44.0545448 1.270198064,44.02906116 1.264966583,44.02344197 1.246317652,44.02092111 1.229056765,44.02556733 1.225905417,44.02299563 1.227822306,44.01632" />
<polygon id="82097 LAVIT" points="0.926536208,43.9186012 0.915725499,43.92338288 0.902870099,43.92375799 0.889253481,43.93224636 0.883457464,43.941065 0.894288689,43.95142048 0.9016436,43.95372264 0.906248375,43.95389199 0.90747649,43.95710252 0.913936843,43.97946316 0.913125043,43.98937794 0.941933657,43.98617876 0.943881176,43.98023749 0.960190422,43.9843782 0.97119268,43.97933428 0.971854733,43.97299062 0.96282619,43.97063507 0.945040137,43.95431325 0.934634985,43.94259361 0.93471279,43.93562701 0.926536208,43.9186012" />
<polygon id="82098 LEOJAC" points="1.471223454,43.98404846 1.468994449,43.97745518 1.464469845,43.97651858 1.442580458,43.98247404 1.435531723,43.99129401 1.439963055,43.99748743 1.433324705,44.02123811 1.425777421,44.03387639 1.446003277,44.02703603 1.454931867,44.02811665 1.462282178,44.00864147 1.4702002,44.00034497 1.471223454,43.98404846" />
<polygon id="82099 LIZAC" points="1.1876171,44.09316433 1.178772494,44.09513329 1.172706882,44.10040696 1.172122916,44.11663838 1.162813494,44.11545638 1.167072028,44.12795175 1.179669087,44.13192491 1.213631422,44.11363172 1.212901838,44.11298963 1.21158555,44.10676525 1.203740051,44.10356697 1.1876171,44.09316433" />
<polygon id="82100 LOZE" points="1.814684563,44.28186145 1.811529529,44.27933375 1.802182254,44.27930429 1.795462692,44.27472971 1.770314805,44.28979119 1.746998674,44.28999601 1.740017847,44.29506561 1.725210924,44.295237 1.702225224,44.30170195 1.680604689,44.29399048 1.669675978,44.29073487 1.670327938,44.29339852 1.70578447,44.30613716 1.783445217,44.29466354 1.797099552,44.29739747 1.813888004,44.28999092 1.818667766,44.29096963 1.814684563,44.28186145" />
<polygon id="82101 MALAUSE" points="0.980280903,44.0761227 0.976592807,44.07834144 0.963084456,44.07471478 0.948723357,44.0746988 0.943137943,44.08376845 0.946155297,44.09014546 0.954895962,44.09198364 0.957351618,44.09839486 0.958425789,44.10327673 0.984993793,44.11020601 0.996870915,44.0933625 0.99175215,44.08796585 0.995999943,44.07907643 0.993417485,44.07651725 0.980280903,44.0761227" />
<polygon id="82102 MANSONVILLE" points="0.876434291,44.00354472 0.871300972,43.99805202 0.853586431,43.99982152 0.825148652,44.00440959 0.817423529,44.00907251 0.822487564,44.0146385 0.81455108,44.02281742 0.81987949,44.02769557 0.828458669,44.02883855 0.840035944,44.02431391 0.849297764,44.03447213 0.857867874,44.03490134 0.865292211,44.03094089 0.868067467,44.0248097 0.885381321,44.0212563 0.884157675,44.01120305 0.876434291,44.00354472" />
<polygon id="82103 MARIGNAC" points="0.925163163,43.83202651 0.895239291,43.83989716 0.895379739,43.84925323 0.912698416,43.84848772 0.923737996,43.84763614 0.936131974,43.84474759 0.943700458,43.8476902 0.929083796,43.83433356 0.925163163,43.83202651" />
<polygon id="82104 MARSAC" points="0.849346694,43.91718044 0.840336884,43.91600332 0.819942691,43.92497914 0.809297946,43.93230167 0.813564706,43.95489481 0.792216274,43.96615177 0.791497749,43.9695765 0.800900111,43.97725678 0.815335752,43.96884911 0.817547699,43.95893581 0.843824736,43.94433234 0.86261148,43.94475549 0.862324558,43.92880578 0.852140446,43.92270013 0.849346694,43.91718044" />
<polygon id="82105 MAS-GRENIER" points="1.219206422,43.87491311 1.213125284,43.86961983 1.199698867,43.87083041 1.191351698,43.86762285 1.168535541,43.87141006 1.162991904,43.88089468 1.148195297,43.89238297 1.15036163,43.91234982 1.157885002,43.92038067 1.174933305,43.92547389 1.181049783,43.93051797 1.186536651,43.92953796 1.188806102,43.90944747 1.201397121,43.91054675 1.211350684,43.89926905 1.209241468,43.89626392 1.20487021,43.88761355 1.217366505,43.88442473 1.219206422,43.87491311" />
<polygon id="82106 MAUBEC" points="0.953983117,43.78737247 0.942079146,43.79186527 0.923683849,43.79094022 0.917444254,43.78586112 0.904057054,43.78429917 0.897291102,43.78853476 0.905987074,43.81065806 0.914785229,43.81857747 0.925163163,43.83202651 0.929083796,43.83433356 0.927872506,43.82795507 0.93949075,43.81438414 0.943187595,43.80803556 0.956062842,43.78932887 0.953983117,43.78737247" />
<polygon id="82107 MAUMUSSON" points="0.904653848,43.89892701 0.889230503,43.90424753 0.88819748,43.90962014 0.902870099,43.92375799 0.915725499,43.92338288 0.926536208,43.9186012 0.912733659,43.90438427 0.904653848,43.89892701" />
<polygon id="82108 MEAUZAC" points="1.222848767,44.06578852 1.214820122,44.07416533 1.212071377,44.0909104 1.22264673,44.09785251 1.222739416,44.10128403 1.21158555,44.10676525 1.212901838,44.11298963 1.213631422,44.11363172 1.221457199,44.11752217 1.245321639,44.11442282 1.250975141,44.10896755 1.249892563,44.09866925 1.24772915,44.08576097 1.233192,44.07889254 1.224756786,44.06706182 1.222848767,44.06578852" />
<polygon id="82109 MERLES" points="0.982900963,44.04906246 0.969956156,44.0501196 0.962042192,44.05220532 0.957047322,44.06094436 0.958701087,44.06391927 0.946310129,44.06682068 0.940557544,44.07154741 0.939067928,44.08061278 0.941843816,44.08294284 0.943137943,44.08376845 0.948723357,44.0746988 0.963084456,44.07471478 0.976592807,44.07834144 0.980280903,44.0761227 0.979066854,44.06634981 0.98836397,44.05978667 0.989637935,44.05340886 0.982900963,44.04906246" />
<polygon id="82110 MIRABEL" points="1.430687354,44.10339759 1.411231457,44.11831306 1.388071876,44.12991206 1.370029287,44.13406547 1.359797207,44.14904615 1.379832229,44.15852662 1.399032685,44.17344678 1.422431836,44.17359673 1.431216228,44.1761894 1.43590363,44.16722681 1.433722387,44.16105598 1.443655935,44.15040348 1.439130977,44.14944793 1.438660996,44.14607434 1.445655831,44.13350742 1.445129798,44.12348941 1.452302412,44.11479574 1.45089103,44.11156201 1.441642519,44.11073771 1.430687354,44.10339759" />
<polygon id="82111 MIRAMONT-DE-QUERCY" points="1.053290179,44.19948505 1.042819407,44.20624964 1.024857525,44.23719806 1.024420496,44.24363698 1.036469212,44.24727454 1.047659635,44.25150776 1.059666855,44.24838912 1.080391567,44.22635204 1.075670356,44.22009288 1.063687639,44.21388573 1.054556216,44.20125421 1.053290179,44.19948505" />
<polygon id="82112 MOISSAC" points="1.156166925,44.11309401 1.151031587,44.10000728 1.119306869,44.09182377 1.093620276,44.07628178 1.065988951,44.07980361 1.056059112,44.08714536 1.047279275,44.08747535 1.049797549,44.09381339 1.037039912,44.10367809 1.02648152,44.11882099 1.035398569,44.12153814 1.040984524,44.1270041 1.04983749,44.14294481 1.032097542,44.15480947 1.018038523,44.15560067 1.008863597,44.16297043 1.036952098,44.16850076 1.062681284,44.15936058 1.069334609,44.16451982 1.08827941,44.16799385 1.097680982,44.16626661 1.112392709,44.15715738 1.11242027,44.15369161 1.125974421,44.15107908 1.139383685,44.15399938 1.150476049,44.14783982 1.157515189,44.1513255 1.158029777,44.15821253 1.166771783,44.1609159 1.185614076,44.15833026 1.193117978,44.15438478 1.178309736,44.14158054 1.179669087,44.13192491 1.167072028,44.12795175 1.162813494,44.11545638 1.156166925,44.11309401" />
<polygon id="82113 MOLIERES" points="1.379832229,44.15852662 1.367807122,44.16357884 1.371835791,44.16963448 1.367384238,44.17481688 1.344080071,44.17868086 1.332916909,44.17243492 1.339977661,44.19792091 1.348763631,44.19573073 1.35757826,44.20334436 1.377170916,44.22282989 1.394160919,44.22898558 1.405285951,44.21404099 1.409811644,44.21290027 1.420723673,44.21930572 1.438692584,44.20729204 1.44186112,44.19718208 1.454116766,44.19148571 1.44596956,44.18377246 1.431216228,44.1761894 1.422431836,44.17359673 1.399032685,44.17344678 1.379832229,44.15852662" />
<polygon id="82114 MONBEQUI" points="1.219206422,43.87491311 1.217366505,43.88442473 1.20487021,43.88761355 1.209241468,43.89626392 1.223784438,43.89615942 1.249381591,43.90619557 1.253148047,43.90395147 1.254027107,43.90004084 1.258474842,43.89421585 1.236683532,43.88237108 1.219206422,43.87491311" />
<polygon id="82115 MONCLAR-DE-QUERCY" points="1.622719206,43.96070532 1.589318101,43.96040537 1.566415682,43.96531008 1.552291261,43.96303565 1.536462488,43.98837063 1.527858605,43.98649086 1.526976586,43.99215888 1.532374589,44.00477948 1.536899547,44.00583027 1.54910781,44.00146515 1.557520753,44.01346733 1.571801684,44.01448283 1.578654016,44.01929783 1.583228461,44.01994225 1.597638387,44.01073042 1.607236455,44.0099349 1.637097333,43.9946848 1.627257747,43.98337324 1.618637279,43.97283232 1.622719206,43.96070532" />
<polygon id="82116 MONTAGUDET" points="1.080391567,44.22635204 1.059666855,44.24838912 1.072222454,44.26522228 1.103872288,44.26261275 1.107223082,44.2601945 1.112203366,44.24757597 1.11017117,44.23751094 1.093162002,44.23160762 1.080391567,44.22635204" />
<polygon id="82117 MONTAIGU-DE-QUERCY" points="0.991134844,44.28873797 0.989928613,44.29482978 0.978414041,44.30483847 0.981470301,44.31795991 0.966452817,44.33487268 0.95617399,44.34158862 0.942382097,44.34442008 0.944109327,44.35422237 0.950215686,44.35957698 0.983089622,44.3595091 0.996705418,44.36914952 1.018735264,44.36343428 1.028208478,44.36425275 1.046888633,44.36271295 1.060229073,44.36606441 1.060661084,44.37617491 1.064083832,44.37851327 1.082962733,44.38158999 1.102329607,44.39189331 1.132478105,44.3938765 1.134424053,44.3744604 1.130922181,44.37215895 1.12132849,44.37224773 1.103415793,44.3669702 1.093987187,44.36777076 1.089133676,44.35797102 1.081222641,44.35439374 1.080805526,44.34744422 1.070280842,44.33593283 1.07248532,44.32939844 1.063815552,44.30632167 1.054274753,44.29787848 1.030565492,44.29647481 1.0233383,44.29196907 0.999499824,44.29182591 0.991134844,44.28873797" />
<polygon id="82118 MONTAIN" points="1.115924062,43.92313069 1.09936439,43.94653751 1.112614445,43.9565436 1.126080145,43.94723299 1.123034262,43.94134732 1.125359798,43.93540983 1.119113136,43.93104447 1.11998727,43.92795379 1.115924062,43.92313069" />
<polygon id="82119 MONTALZAT" points="1.499091314,44.17090937 1.490738152,44.18496458 1.483994407,44.18966993 1.477614816,44.20268931 1.470160083,44.20718598 1.473613225,44.21328381 1.497716363,44.22339314 1.510799255,44.23292509 1.520048401,44.2326 1.526928043,44.23721182 1.537463001,44.23025858 1.54605403,44.23018362 1.567744333,44.20915085 1.552279575,44.19668669 1.538344219,44.19797837 1.528231225,44.19129845 1.514717839,44.19179156 1.499091314,44.17090937" />
<polygon id="82120 MONTASTRUC" points="1.302332631,44.09249949 1.285494968,44.09124697 1.275666038,44.09738546 1.294841806,44.11196362 1.291580129,44.1215456 1.294728763,44.12407036 1.309187015,44.10647831 1.309014448,44.10303669 1.301018862,44.09926698 1.302332631,44.09249949" />
<polygon id="82121 MONTAUBAN" points="1.402326782,43.95397936 1.394458236,43.95242381 1.366239547,43.96404976 1.36157865,43.96361092 1.361723984,43.95681687 1.355186805,43.95232589 1.354540182,43.95357638 1.341981908,43.96808633 1.340241719,43.97477523 1.322485137,43.97075046 1.300632601,43.97711033 1.291807911,43.9745783 1.290017366,43.97775498 1.311238873,43.99148865 1.31106517,43.99819241 1.303347801,44.0023219 1.299302464,44.0120893 1.303580701,44.02131083 1.291450989,44.02683845 1.289824013,44.03365468 1.287567625,44.04976941 1.29051168,44.05231806 1.286648385,44.05833422 1.304457272,44.06940525 1.313025154,44.0815377 1.312034833,44.08840027 1.31563873,44.08648422 1.320480948,44.09168994 1.328556823,44.0889057 1.345409503,44.0905029 1.348682595,44.08187406 1.355217491,44.07829947 1.367539282,44.07319953 1.385952583,44.07687529 1.401320615,44.0850136 1.405895522,44.08398201 1.415270714,44.07515194 1.425692777,44.05996278 1.426282368,44.05308474 1.421693003,44.04708638 1.425777421,44.03387639 1.433324705,44.02123811 1.439963055,43.99748743 1.435531723,43.99129401 1.442580458,43.98247404 1.423890754,43.97985682 1.419980168,43.9702767 1.402326782,43.95397936" />
<polygon id="82122 MONTBARLA" points="1.054556216,44.20125421 1.063687639,44.21388573 1.075670356,44.22009288 1.080391567,44.22635204 1.093162002,44.23160762 1.099927798,44.22289236 1.098185426,44.20389169 1.088052176,44.20337349 1.054556216,44.20125421" />
<polygon id="82123 MONTBARTIER" points="1.293411745,43.89726096 1.271760495,43.90354552 1.254027107,43.90004084 1.253148047,43.90395147 1.256399026,43.90593878 1.251027498,43.91424241 1.255258621,43.91595739 1.257834746,43.92620642 1.28133106,43.92598452 1.297001003,43.93384533 1.301500189,43.93459949 1.321604786,43.92655674 1.317809152,43.92053933 1.306084785,43.9161184 1.313838967,43.90064783 1.30638801,43.89750803 1.293411745,43.89726096" />
<polygon id="82124 MONTBETON" points="1.303347801,44.0023219 1.29407577,44.00126848 1.284501595,43.99493434 1.256404388,43.99828886 1.232379756,44.01457528 1.228140601,44.0129043 1.227822306,44.01632 1.225905417,44.02299563 1.229056765,44.02556733 1.246317652,44.02092111 1.264966583,44.02344197 1.270198064,44.02906116 1.281175802,44.03450944 1.289824013,44.03365468 1.291450989,44.02683845 1.303580701,44.02131083 1.299302464,44.0120893 1.303347801,44.0023219" />
<polygon id="82125 MONTECH" points="1.251027498,43.91424241 1.23889639,43.91957451 1.234402603,43.92555114 1.211461883,43.92234235 1.202293497,43.9239922 1.195883592,43.92898158 1.186536651,43.92953796 1.181049783,43.93051797 1.188336497,43.94228757 1.175881773,43.95229766 1.190169234,43.95363346 1.206310364,43.96102917 1.200979755,43.97751439 1.217639435,43.98373765 1.217974803,43.99055773 1.226555588,43.99369494 1.227751788,44.01056643 1.24117743,43.99668573 1.239291238,43.98629396 1.251289144,43.98048214 1.26929009,43.97763588 1.271182188,43.96744863 1.27883461,43.96332951 1.279400306,43.95986371 1.292075723,43.94649684 1.297001003,43.93384533 1.28133106,43.92598452 1.257834746,43.92620642 1.255258621,43.91595739 1.251027498,43.91424241" />
<polygon id="82126 MONTEILS" points="1.576463815,44.15289212 1.552842741,44.15542764 1.539984805,44.17358581 1.548823202,44.18112098 1.547006546,44.18758762 1.553484637,44.1926065 1.580234735,44.18563699 1.589920036,44.17043111 1.581569546,44.1547227 1.576463815,44.15289212" />
<polygon id="82127 MONTESQUIEU" points="1.112392709,44.15715738 1.097680982,44.16626661 1.08827941,44.16799385 1.069334609,44.16451982 1.062681284,44.15936058 1.036952098,44.16850076 1.008863597,44.16297043 1.000125258,44.16319859 0.995743986,44.16861982 1.003799013,44.17718512 1.01460748,44.1843681 1.053290179,44.19948505 1.054556216,44.20125421 1.088052176,44.20337349 1.090396983,44.18984603 1.106372511,44.182452 1.120372627,44.18245866 1.123586097,44.17986669 1.112392709,44.15715738" />
<polygon id="82128 MONTFERMIER" points="1.420723673,44.21930572 1.409811644,44.21290027 1.405285951,44.21404099 1.394160919,44.22898558 1.4230513,44.24277353 1.42575202,44.24202902 1.436874764,44.22786442 1.436138237,44.22460393 1.431650595,44.22526014 1.420723673,44.21930572" />
<polygon id="82129 MONTGAILLARD" points="0.88819748,43.90962014 0.875289276,43.91282677 0.864677692,43.92318004 0.856064741,43.92102168 0.852140446,43.92270013 0.862324558,43.92880578 0.86261148,43.94475549 0.861350943,43.94780082 0.894288689,43.95142048 0.883457464,43.941065 0.889253481,43.93224636 0.902870099,43.92375799 0.88819748,43.90962014" />
<polygon id="82130 MONTJOI" points="0.907852055,44.17516302 0.903111355,44.19005512 0.929239237,44.23025012 0.951832661,44.22809875 0.962612051,44.22187946 0.962152952,44.21513597 0.943810476,44.21414562 0.945187634,44.20757149 0.953285414,44.19926811 0.936332316,44.19325111 0.925952135,44.17832496 0.907852055,44.17516302" />
<polygon id="82131 MONTPEZAT-DE-QUERCY" points="1.454116766,44.19148571 1.44186112,44.19718208 1.438692584,44.20729204 1.420723673,44.21930572 1.431650595,44.22526014 1.436138237,44.22460393 1.436874764,44.22786442 1.42575202,44.24202902 1.452111868,44.25588095 1.454618157,44.26596346 1.462972249,44.26929468 1.473533995,44.2842157 1.484430225,44.27885671 1.487351254,44.27270297 1.496148587,44.27123922 1.509262945,44.27378566 1.524151633,44.26115769 1.518169131,44.2523085 1.526928043,44.23721182 1.520048401,44.2326 1.510799255,44.23292509 1.497716363,44.22339314 1.473613225,44.21328381 1.470160083,44.20718598 1.459800842,44.20058623 1.454116766,44.19148571" />
<polygon id="82132 MONTRICOUX" points="1.653121259,44.09644666 1.645786856,44.09181939 1.6381991,44.0753873 1.61913778,44.07311425 1.609860659,44.07516629 1.585406843,44.08895892 1.587198032,44.10233175 1.580922495,44.10751676 1.586813023,44.11179677 1.599154949,44.11240533 1.610541095,44.10662707 1.621266105,44.13164373 1.637617502,44.13568297 1.645754719,44.13830433 1.663418432,44.1366577 1.647503076,44.12681249 1.658715708,44.11664319 1.652835542,44.10851447 1.653121259,44.09644666" />
<polygon id="82133 MOUILLAC" points="1.681542638,44.26550881 1.652182786,44.25471872 1.653538496,44.26832008 1.660925161,44.27703475 1.659487494,44.28325599 1.661914819,44.28926327 1.669675978,44.29073487 1.680604689,44.29399048 1.692884592,44.28436044 1.695026778,44.2778591 1.689558621,44.26884558 1.681542638,44.26550881" />
<polygon id="82134 NEGREPELISSE" points="1.609689122,44.0734988 1.591215932,44.06871686 1.581184941,44.06092691 1.559219126,44.05383479 1.555419492,44.0515793 1.536600126,44.0354594 1.534111667,44.02500222 1.526710633,44.01595525 1.50766234,44.01933374 1.495456559,44.02522469 1.495609206,44.04826221 1.474478263,44.05575637 1.468664295,44.06122037 1.494975481,44.06846263 1.492120547,44.08150316 1.464448158,44.09349651 1.485382076,44.10993766 1.497080992,44.09558743 1.51375032,44.08339214 1.526130851,44.07839235 1.538670743,44.08801235 1.562093801,44.0848206 1.585406843,44.08895892 1.609860659,44.07516629 1.609689122,44.0734988" />
<polygon id="82135 NOHIC" points="1.448923207,43.87031852 1.447741687,43.87350607 1.43099327,43.86945015 1.41812346,43.87187466 1.408610948,43.8828257 1.415167842,43.89140016 1.425552862,43.89710412 1.432293331,43.90911866 1.43658878,43.90820811 1.469869358,43.89748214 1.45820968,43.88627383 1.448923207,43.87031852" />
<polygon id="82136 ORGUEIL" points="1.408610948,43.8828257 1.399729823,43.88444209 1.391022186,43.88164974 1.365184231,43.88957396 1.362585469,43.89252343 1.374058633,43.90224526 1.383234251,43.9167296 1.389657188,43.91593336 1.432293331,43.90911866 1.425552862,43.89710412 1.415167842,43.89140016 1.408610948,43.8828257" />
<polygon id="82137 PARISOT" points="1.845927346,44.22938762 1.833864913,44.24004461 1.83161351,44.26425436 1.819883314,44.28134125 1.843094882,44.27684386 1.85630716,44.28153726 1.868779186,44.29203687 1.901390505,44.27911646 1.913510083,44.26131385 1.897611191,44.2537198 1.880061519,44.25130079 1.877408258,44.24487327 1.885076951,44.24081047 1.88449315,44.23738379 1.873244257,44.23257894 1.852280724,44.23776304 1.845927346,44.22938762" />
<polygon id="82138 PERVILLE" points="0.901351833,44.16418011 0.889793781,44.16688461 0.890030661,44.17027465 0.882225194,44.17395091 0.870263321,44.16899219 0.863911579,44.17356878 0.853632131,44.17478175 0.85367495,44.18424592 0.859686552,44.19273722 0.860991505,44.19297877 0.903111355,44.19005512 0.907852055,44.17516302 0.899514997,44.17326592 0.901351833,44.16418011" />
<polygon id="82139 LE PIN" points="0.990638898,44.04379395 0.990184038,44.03723139 0.974183861,44.02532246 0.970615592,44.02321265 0.964108517,44.02758427 0.959593293,44.03728651 0.969208401,44.04378554 0.969956156,44.0501196 0.982900963,44.04906246 0.990638898,44.04379395" />
<polygon id="82140 PIQUECOS" points="1.345409503,44.0905029 1.328556823,44.0889057 1.320480948,44.09168994 1.31563873,44.08648422 1.312034833,44.08840027 1.302332631,44.09249949 1.301018862,44.09926698 1.309014448,44.10303669 1.309187015,44.10647831 1.294728763,44.12407036 1.299442181,44.13028338 1.307793077,44.12729771 1.330267717,44.10083296 1.346777695,44.09371039 1.345409503,44.0905029" />
<polygon id="82141 POMMEVIC" points="0.941843816,44.08294284 0.93460512,44.08622786 0.924166031,44.08065545 0.913256475,44.09069408 0.928368328,44.10691714 0.94087392,44.10249808 0.950175753,44.10268152 0.957351618,44.09839486 0.954895962,44.09198364 0.946155297,44.09014546 0.943137943,44.08376845 0.941843816,44.08294284" />
<polygon id="82142 POMPIGNAN" points="1.301897451,43.80030654 1.297573081,43.80655775 1.298699137,43.81340706 1.331644659,43.83748074 1.354418766,43.83643156 1.360031381,43.81720912 1.347679517,43.81577152 1.343356442,43.81053041 1.3263127,43.80851492 1.311637168,43.80083587 1.301897451,43.80030654" />
<polygon id="82143 POUPAS" points="0.86261148,43.94475549 0.843824736,43.94433234 0.817547699,43.95893581 0.815335752,43.96884911 0.800900111,43.97725678 0.804556578,43.9768441 0.808342169,43.9811786 0.855611636,43.9708621 0.855472969,43.96361192 0.861350943,43.94780082 0.86261148,43.94475549" />
<polygon id="82144 PUYCORNET" points="1.307793077,44.12729771 1.299442181,44.13028338 1.286809596,44.13429093 1.271614876,44.14685434 1.273790272,44.15262339 1.268683338,44.16182482 1.329184626,44.17046955 1.332916909,44.17243492 1.344080071,44.17868086 1.367384238,44.17481688 1.371835791,44.16963448 1.367807122,44.16357884 1.379832229,44.15852662 1.359797207,44.14904615 1.352549087,44.14115025 1.338834916,44.14371612 1.324985166,44.14235307 1.307793077,44.12729771" />
<polygon id="82145 PUYGAILLARD-DE-QUERCY" points="1.654318994,43.9929898 1.645206044,43.99188716 1.637097333,43.9946848 1.607236455,44.0099349 1.628722694,44.02767798 1.604861264,44.04938506 1.609689122,44.0734988 1.617684884,44.0697023 1.619608969,44.05934771 1.643816196,44.02934231 1.662158934,44.0180644 1.664533206,44.01149547 1.651180655,44.01127765 1.657586178,43.99879072 1.654318994,43.9929898" />
<polygon id="82146 PUYGAILLARD-DE-LOMAGNE" points="0.9016436,43.95372264 0.882117163,43.96172767 0.855472969,43.96361192 0.855611636,43.9708621 0.868846147,43.96731265 0.876950153,43.96961307 0.894377494,43.97534295 0.905480433,43.98599969 0.913125043,43.98937794 0.913936843,43.97946316 0.90747649,43.95710252 0.906248375,43.95389199 0.9016436,43.95372264" />
<polygon id="82147 PUYLAGARDE" points="1.868779186,44.29203687 1.85630716,44.28153726 1.843094882,44.27684386 1.819883314,44.28134125 1.814684563,44.28186145 1.818667766,44.29096963 1.818523472,44.30692023 1.829625726,44.3211457 1.826465277,44.32358769 1.833701789,44.33513378 1.847231446,44.33780608 1.851763827,44.3320289 1.88208268,44.34007425 1.885626806,44.33526692 1.876000274,44.33494392 1.8604829,44.32193786 1.880166427,44.30310918 1.868779186,44.29203687" />
<polygon id="82148 PUYLAROQUE" points="1.690578134,44.2138176 1.67527607,44.23020716 1.657561248,44.23280075 1.63949972,44.23620642 1.615065559,44.22663752 1.602324382,44.22648507 1.590859699,44.23089378 1.578932681,44.24369469 1.585915512,44.25094184 1.580789652,44.25958124 1.598929665,44.25903085 1.606493929,44.27083942 1.61619298,44.27797502 1.631625586,44.27040804 1.640879531,44.27114407 1.650052187,44.28320352 1.633938773,44.29505896 1.651059331,44.2967108 1.659487494,44.28325599 1.660925161,44.27703475 1.653538496,44.26832008 1.652182786,44.25471872 1.681542638,44.26550881 1.686884715,44.25229425 1.682234246,44.2319563 1.692188688,44.22051643 1.690578134,44.2138176" />
<polygon id="82149 REALVILLE" points="1.447901745,44.10159931 1.442178794,44.105299 1.441642519,44.11073771 1.45089103,44.11156201 1.452302412,44.11479574 1.445129798,44.12348941 1.445655831,44.13350742 1.438660996,44.14607434 1.439130977,44.14944793 1.443655935,44.15040348 1.477787646,44.14861401 1.494491741,44.14151679 1.489412093,44.13602757 1.494044931,44.13573121 1.513060109,44.14565914 1.521606088,44.14442437 1.524821173,44.12121514 1.527573181,44.11483368 1.508097738,44.10655844 1.501015327,44.11504077 1.49621945,44.11542517 1.473001988,44.1112692 1.447901745,44.10159931" />
<polygon id="82150 REYNIES" points="1.43658878,43.90820811 1.432293331,43.90911866 1.389657188,43.91593336 1.398547158,43.93859452 1.415555247,43.94427034 1.433442792,43.93982053 1.431123818,43.93354932 1.434312493,43.92401767 1.430691615,43.91801587 1.431067698,43.91475383 1.438338001,43.91116753 1.43658878,43.90820811" />
<polygon id="82151 ROQUECOR" points="0.923514782,44.29156918 0.916429596,44.30220442 0.908557838,44.31946972 0.917282413,44.32233668 0.939972288,44.34029591 0.941253552,44.34439897 0.942382097,44.34442008 0.95617399,44.34158862 0.966452817,44.33487268 0.981470301,44.31795991 0.978414041,44.30483847 0.970586888,44.29686051 0.93406263,44.29762981 0.923514782,44.29156918" />
<polygon id="82152 SAINT-AIGNAN" points="1.068648172,44.00512716 1.071248766,44.01747067 1.060033491,44.02296209 1.058985506,44.02955153 1.064068285,44.03823924 1.065000852,44.03172871 1.08165666,44.03811682 1.085457707,44.03641885 1.078724571,44.02403913 1.079613547,44.01728473 1.084229964,44.01689753 1.091181126,44.02166439 1.081551481,44.0093784 1.068648172,44.00512716" />
<polygon id="82153 SAINT-AMANS-DU-PECH" points="0.895067329,44.29670088 0.883799767,44.30768623 0.869445138,44.30925493 0.874522534,44.3176555 0.873271968,44.32357442 0.883328076,44.32837884 0.882753503,44.324955 0.89425976,44.31878263 0.908557838,44.31946972 0.916429596,44.30220442 0.895067329,44.29670088" />
<polygon id="82154 SAINT-AMANS-DE-PELLAGAL" points="1.098185426,44.20389169 1.099927798,44.22289236 1.093162002,44.23160762 1.11017117,44.23751094 1.114777753,44.23832842 1.121582838,44.23364612 1.13088266,44.23264336 1.139963693,44.23410307 1.146566513,44.2389866 1.151043147,44.23804466 1.158796553,44.22217576 1.167980349,44.22119497 1.165360226,44.21122948 1.160434524,44.20524083 1.148441526,44.21529404 1.143601567,44.21514927 1.126625308,44.20835135 1.098185426,44.20389169" />
<polygon id="82155 SAINT-ANTONIN-NOBLE-VAL" points="1.777958433,44.09676704 1.746524568,44.1146851 1.733410739,44.1121939 1.722089132,44.11839964 1.703628583,44.13669945 1.694590255,44.13838357 1.671936183,44.13374559 1.663418432,44.1366577 1.645754719,44.13830433 1.637617502,44.13568297 1.634908773,44.15427436 1.648724645,44.15482355 1.653970701,44.18515297 1.662261399,44.18849513 1.701229305,44.20015285 1.714085246,44.20326592 1.725088703,44.19697581 1.738928809,44.19692867 1.749632421,44.18986755 1.777392459,44.1922868 1.832473731,44.17861878 1.803987094,44.14854316 1.809566767,44.13940419 1.806013871,44.12644826 1.800514289,44.1176027 1.787543041,44.1088725 1.793496769,44.10029679 1.777958433,44.09676704" />
<polygon id="82156 SAINT-ARROUMEX" points="0.971854733,43.97299062 0.97119268,43.97933428 0.960190422,43.9843782 0.970241419,43.99134438 0.978696936,44.00327672 0.980795715,44.00634946 0.995006083,44.00661087 1.018038726,44.00246625 1.009698564,43.98914378 0.999955897,43.98215095 0.974462885,43.97361516 0.971854733,43.97299062" />
<polygon id="82157 SAINT-BEAUZEIL" points="0.908557838,44.31946972 0.89425976,44.31878263 0.882753503,44.324955 0.883328076,44.32837884 0.896113169,44.34622833 0.914649133,44.34890446 0.939972288,44.34029591 0.917282413,44.32233668 0.908557838,44.31946972" />
<polygon id="82158 SAINT-CIRICE" points="0.850633883,44.04767944 0.836679494,44.04698135 0.822057103,44.05559591 0.813507392,44.0522832 0.809920364,44.05401222 0.814011164,44.06907609 0.814061462,44.06939223 0.820154369,44.06811813 0.846778957,44.0746864 0.861117391,44.07498541 0.865666435,44.07390371 0.859847086,44.06094205 0.850633883,44.04767944" />
<polygon id="82159 SAINT-CIRQ" points="1.637617502,44.13568297 1.621266105,44.13164373 1.610541095,44.10662707 1.599154949,44.11240533 1.576200569,44.12496431 1.583247939,44.14858695 1.576463815,44.15289212 1.581569546,44.1547227 1.613519364,44.14897388 1.625285975,44.15458625 1.634908773,44.15427436 1.637617502,44.13568297" />
<polygon id="82160 SAINT-CLAIR" points="0.926208187,44.12880905 0.924322472,44.13560715 0.933316408,44.14303405 0.933792949,44.15675572 0.925001334,44.16462111 0.930346381,44.1703495 0.937089791,44.17480739 0.948547571,44.16862057 0.955142598,44.15603046 0.96613303,44.14526842 0.95070599,44.13964199 0.93707072,44.13501947 0.926208187,44.12880905" />
<polygon id="82161 SAINT-ETIENNE-DE-TULMONT" points="1.486765909,44.0226924 1.454931867,44.02811665 1.446003277,44.02703603 1.425777421,44.03387639 1.421693003,44.04708638 1.426282368,44.05308474 1.425692777,44.05996278 1.415270714,44.07515194 1.435644733,44.06713599 1.445087645,44.06652332 1.46021714,44.0582933 1.468664295,44.06122037 1.474478263,44.05575637 1.495609206,44.04826221 1.495456559,44.02522469 1.486765909,44.0226924" />
<polygon id="82162 SAINT-GEORGES" points="1.642707571,44.19683408 1.618127872,44.20626779 1.626108702,44.20952778 1.62919085,44.21924379 1.615065559,44.22663752 1.63949972,44.23620642 1.657561248,44.23280075 1.657081687,44.21337693 1.642707571,44.19683408" />
<polygon id="82163 SAINT-JEAN-DU-BOUZET" points="0.876950153,43.96961307 0.85871258,43.98455359 0.852604128,43.99312185 0.853586431,43.99982152 0.871300972,43.99805202 0.876434291,44.00354472 0.890143346,43.99441978 0.888407577,43.98438387 0.892354827,43.98250637 0.905480433,43.98599969 0.894377494,43.97534295 0.876950153,43.96961307" />
<polygon id="82164 SAINTE-JULIETTE" points="1.181320235,44.27493354 1.175920309,44.28074142 1.152654972,44.27702141 1.148521974,44.27886064 1.150853917,44.28844387 1.146696614,44.29445139 1.155581055,44.30188489 1.151414636,44.30738828 1.159621201,44.30990296 1.169065322,44.3040191 1.178986035,44.31055853 1.177460296,44.29483072 1.184411748,44.28679743 1.181320235,44.27493354" />
<polygon id="82165 SAINT-LOUP" points="0.882536059,44.0931027 0.886205448,44.08008238 0.875715319,44.07301869 0.872309142,44.06324676 0.86430231,44.05966953 0.859847086,44.06094205 0.865666435,44.07390371 0.861117391,44.07498541 0.846778957,44.0746864 0.820154369,44.06811813 0.825756443,44.09832002 0.837464229,44.10290061 0.847516006,44.09581453 0.865972543,44.0933845 0.873396735,44.09663515 0.882536059,44.0931027" />
<polygon id="82166 SAINT-MICHEL" points="0.923141324,44.02659825 0.919204116,44.0295125 0.918202433,44.03575067 0.904165606,44.04278439 0.91942552,44.05556311 0.922119899,44.06212369 0.91883898,44.06853479 0.923498405,44.06848821 0.929268711,44.05987326 0.957047322,44.06094436 0.962042192,44.05220532 0.969956156,44.0501196 0.969208401,44.04378554 0.959593293,44.03728651 0.945475148,44.02872149 0.923141324,44.02659825" />
<polygon id="82167 SAINT-NAUPHARY" points="1.465068784,43.93251029 1.446479804,43.94322915 1.433442792,43.93982053 1.415555247,43.94427034 1.402326782,43.95397936 1.419980168,43.9702767 1.423890754,43.97985682 1.442580458,43.98247404 1.464469845,43.97651858 1.468994449,43.97745518 1.471223454,43.98404846 1.48507426,43.97887636 1.476947123,43.97559493 1.48203587,43.96658327 1.478846621,43.960463 1.490902599,43.94612 1.479833645,43.9440043 1.479320057,43.94130577 1.465068784,43.93251029" />
<polygon id="82168 SAINT-NAZAIRE-DE-VALENTANE" points="1.003799013,44.17718512 0.983616876,44.19804687 0.998657696,44.20700187 1.009057533,44.21884195 1.005316141,44.23232486 1.024857525,44.23719806 1.042819407,44.20624964 1.053290179,44.19948505 1.01460748,44.1843681 1.003799013,44.17718512" />
<polygon id="82169 SAINT-NICOLAS-DE-LA-GRAVE" points="1.028621361,44.03257383 0.990638898,44.04379395 0.982900963,44.04906246 0.989637935,44.05340886 0.98836397,44.05978667 0.979066854,44.06634981 0.980280903,44.0761227 0.993417485,44.07651725 0.995999943,44.07907643 0.99175215,44.08796585 1.025225541,44.09272494 1.042538553,44.08658044 1.047279275,44.08747535 1.056059112,44.08714536 1.065988951,44.07980361 1.070655279,44.07036077 1.066691573,44.06867933 1.055240144,44.0734642 1.04200472,44.05526735 1.044138897,44.04874236 1.048841442,44.04774594 1.045343196,44.04274994 1.032498521,44.04604893 1.028621361,44.03257383" />
<polygon id="82170 SAINT-PAUL-D'ESPIS" points="1.00193079,44.11896133 0.987918379,44.12750132 0.983482391,44.1264024 0.977358432,44.11724107 0.972772203,44.11793062 0.95070599,44.13964199 0.96613303,44.14526842 0.972889195,44.15391998 0.995743986,44.16861982 1.000125258,44.16319859 1.008863597,44.16297043 1.018038523,44.15560067 1.032097542,44.15480947 1.04983749,44.14294481 1.040984524,44.1270041 1.035398569,44.12153814 1.02648152,44.11882099 1.014169349,44.12388354 1.00193079,44.11896133" />
<polygon id="82171 SAINT-PORQUIER" points="1.154729472,43.98484559 1.149966819,43.99022051 1.15832678,43.99274724 1.159458914,43.99591711 1.142313062,43.99818388 1.139076818,44.00066754 1.156050254,44.01262213 1.202441072,44.0296165 1.206869473,44.03044536 1.208564425,44.02455856 1.217105536,44.02313167 1.221321606,44.01756485 1.212565255,44.00520605 1.201355889,43.99878374 1.18304008,43.99514114 1.173169047,43.98797292 1.154729472,43.98484559" />
<polygon id="82172 SAINT-PROJET" points="1.818667766,44.29096963 1.813888004,44.28999092 1.797099552,44.29739747 1.783445217,44.29466354 1.70578447,44.30613716 1.670327938,44.29339852 1.671103934,44.2982603 1.67555108,44.29784583 1.702320829,44.31450476 1.710997294,44.31176199 1.733115255,44.3178977 1.740953905,44.3262971 1.759608441,44.32316911 1.77348213,44.31429518 1.782668444,44.31625177 1.788152142,44.32192088 1.783345369,44.3279445 1.791359415,44.32794283 1.793702884,44.33391922 1.805975177,44.33663684 1.809100543,44.32997285 1.826465277,44.32358769 1.829625726,44.3211457 1.818523472,44.30692023 1.818667766,44.29096963" />
<polygon id="82173 SAINT-SARDOS" points="1.130443582,43.87341066 1.112344658,43.87734797 1.080152384,43.89208976 1.087009233,43.90292252 1.090664042,43.90904487 1.115924062,43.92313069 1.11998727,43.92795379 1.146206553,43.93484735 1.157885002,43.92038067 1.15036163,43.91234982 1.148195297,43.89238297 1.162991904,43.88089468 1.153898069,43.88001211 1.130443582,43.87341066" />
<polygon id="82174 SAINT-VINCENT" points="1.494491741,44.14151679 1.477787646,44.14861401 1.443655935,44.15040348 1.433722387,44.16105598 1.43590363,44.16722681 1.431216228,44.1761894 1.44596956,44.18377246 1.452493608,44.1789583 1.464855198,44.18026628 1.475660047,44.17387215 1.483902243,44.17624598 1.490738152,44.18496458 1.499091314,44.17090937 1.493920047,44.15837922 1.494491741,44.14151679" />
<polygon id="82175 SAINT-VINCENT-LESPINASSE" points="0.958425789,44.10327673 0.95697432,44.10959711 0.93913099,44.11887874 0.93707072,44.13501947 0.95070599,44.13964199 0.972772203,44.11793062 0.977358432,44.11724107 0.983482391,44.1264024 0.987918379,44.12750132 1.00193079,44.11896133 0.984993793,44.11020601 0.958425789,44.10327673" />
<polygon id="82176 LA SALVETAT-BELMONTET" points="1.535267578,43.95966742 1.513604331,43.95366815 1.517266909,43.94746204 1.513407418,43.94544734 1.499402966,43.9436087 1.490902599,43.94612 1.478846621,43.960463 1.48203587,43.96658327 1.476947123,43.97559493 1.48507426,43.97887636 1.497770168,43.98101384 1.505888202,43.97853266 1.519176606,43.98667969 1.527858605,43.98649086 1.536462488,43.98837063 1.552291261,43.96303565 1.54837358,43.95685386 1.535267578,43.95966742" />
<polygon id="82177 SAUVETERRE" points="1.26682268,44.25154719 1.25059291,44.24003577 1.236053977,44.25329922 1.24944929,44.25518813 1.241695278,44.26326638 1.244190274,44.26604332 1.250491452,44.26973619 1.255351307,44.28568652 1.25836706,44.2829883 1.272715571,44.28263853 1.282704387,44.29008783 1.299992382,44.29501133 1.304015777,44.29419114 1.29640566,44.2746172 1.302968761,44.26299648 1.284392573,44.25251626 1.26682268,44.25154719" />
<polygon id="82178 SAVENES" points="1.175342889,43.80439134 1.162995768,43.80881964 1.157369438,43.81832913 1.144597614,43.8222982 1.150043692,43.82650439 1.154010423,43.82802984 1.157205843,43.84307135 1.16579713,43.85051638 1.183181404,43.85614517 1.192662439,43.85569054 1.19658074,43.84939134 1.205651433,43.84730856 1.220711948,43.83417925 1.225551179,43.82450072 1.224133791,43.81769973 1.201334371,43.81771306 1.175342889,43.80439134" />
<polygon id="82179 SEPTFONDS" points="1.634908773,44.15427436 1.625285975,44.15458625 1.613519364,44.14897388 1.581569546,44.1547227 1.589920036,44.17043111 1.580234735,44.18563699 1.595641008,44.19856447 1.613796345,44.20683433 1.618127872,44.20626779 1.642707571,44.19683408 1.640656618,44.18789653 1.662261399,44.18849513 1.653970701,44.18515297 1.648724645,44.15482355 1.634908773,44.15427436" />
<polygon id="82180 SERIGNAC" points="1.029932756,43.89473287 1.011836544,43.89782565 0.984087109,43.91190958 0.978757534,43.92174974 0.983111472,43.92788887 0.984371161,43.93771584 0.997072782,43.94001101 0.996069225,43.94942724 1.02362627,43.94996514 1.026971182,43.95233022 1.02731569,43.96218517 1.031739384,43.95282132 1.045851633,43.94391915 1.050430702,43.93789736 1.068669105,43.93385519 1.076528818,43.92537875 1.085014956,43.92228708 1.081147762,43.91654786 1.067197493,43.91809329 1.063044275,43.91864087 1.052388278,43.90938615 1.029932756,43.89473287" />
<polygon id="82181 SISTELS" points="0.764047894,44.02963908 0.756565221,44.04123577 0.75869715,44.05112958 0.753346984,44.05636816 0.781584935,44.06895511 0.80998809,44.07107556 0.814011164,44.06907609 0.809920364,44.05401222 0.813507392,44.0522832 0.797375135,44.04396451 0.764047894,44.02963908" />
<polygon id="82182 TOUFFAILLES" points="1.036469212,44.24727454 1.02215828,44.26901447 1.012916497,44.27063051 0.994172457,44.26771474 0.988062798,44.27251028 0.995423314,44.27664264 0.991134844,44.28873797 0.999499824,44.29182591 1.0233383,44.29196907 1.030565492,44.29647481 1.054274753,44.29787848 1.065326315,44.29144659 1.079671953,44.27390641 1.072222454,44.26522228 1.059666855,44.24838912 1.047659635,44.25150776 1.036469212,44.24727454" />
<polygon id="82183 TREJOULS" points="1.185749183,44.25008494 1.15514023,44.2584076 1.156877077,44.26163304 1.182118701,44.27152538 1.181320235,44.27493354 1.184411748,44.28679743 1.199328895,44.28083035 1.203287154,44.28247977 1.212712656,44.27092886 1.220525222,44.27872665 1.225202611,44.27903638 1.237976451,44.27489326 1.244190274,44.26604332 1.241695278,44.26326638 1.24944929,44.25518813 1.236053977,44.25329922 1.22611721,44.26061203 1.209070677,44.26602566 1.200648035,44.2629529 1.185749183,44.25008494" />
<polygon id="82184 VAISSAC" points="1.526976586,43.99215888 1.52055123,44.00480924 1.496369404,44.0152184 1.486765909,44.0226924 1.495456559,44.02522469 1.50766234,44.01933374 1.526710633,44.01595525 1.534111667,44.02500222 1.536600126,44.0354594 1.555419492,44.0515793 1.559219126,44.05383479 1.581184941,44.06092691 1.591215932,44.06871686 1.609689122,44.0734988 1.604861264,44.04938506 1.628722694,44.02767798 1.607236455,44.0099349 1.597638387,44.01073042 1.583228461,44.01994225 1.578654016,44.01929783 1.571801684,44.01448283 1.557520753,44.01346733 1.54910781,44.00146515 1.536899547,44.00583027 1.532374589,44.00477948 1.526976586,43.99215888" />
<polygon id="82185 VALEILLES" points="0.939972288,44.34029591 0.914649133,44.34890446 0.896113169,44.34622833 0.892010698,44.34991379 0.893362896,44.35607194 0.887319968,44.36464572 0.893958953,44.37312046 0.898592478,44.38121434 0.910845704,44.38296038 0.919845414,44.3844185 0.923646721,44.37800681 0.93728523,44.36861018 0.941253552,44.34439897 0.939972288,44.34029591" />
<polygon id="82186 VALENCE" points="0.940557544,44.07154741 0.931519625,44.06939632 0.907236669,44.08522214 0.900013507,44.09411443 0.886576699,44.09396405 0.876523061,44.10124265 0.878180852,44.10737927 0.870563807,44.11557795 0.874541107,44.12151662 0.869091678,44.12651595 0.880094855,44.13179847 0.880455005,44.13823417 0.884059166,44.14015859 0.892065892,44.13733258 0.896675214,44.12831831 0.901228664,44.12856767 0.909087725,44.12526946 0.900849686,44.11377634 0.904550851,44.10761667 0.902719508,44.101027 0.913256475,44.09069408 0.924166031,44.08065545 0.93460512,44.08622786 0.941843816,44.08294284 0.939067928,44.08061278 0.940557544,44.07154741" />
<polygon id="82187 VAREN" points="1.914388389,44.13618948 1.903269099,44.13075896 1.891553234,44.14129887 1.882757634,44.13852715 1.864960634,44.14342122 1.850339292,44.13516749 1.846176687,44.13580788 1.841019159,44.14416995 1.836774584,44.14389096 1.834999009,44.15367488 1.847502283,44.16290766 1.847771973,44.16625912 1.876128938,44.16655332 1.885915486,44.17384547 1.899789021,44.17692001 1.913406478,44.17514738 1.911095133,44.18545836 1.927908129,44.18944062 1.933408363,44.18434528 1.934429144,44.17460645 1.940710408,44.16977043 1.9204604,44.16594538 1.919064302,44.16307814 1.909788941,44.16356244 1.894930628,44.15596944 1.918422381,44.140298 1.914388389,44.13618948" />
<polygon id="82188 VARENNES" points="1.51519503,43.90596578 1.514212614,43.89970573 1.496654796,43.88858322 1.491908255,43.88876078 1.487717162,43.90179926 1.47699985,43.90829311 1.463440768,43.9184995 1.465068784,43.93251029 1.479320057,43.94130577 1.503835629,43.93134684 1.51519503,43.90596578" />
<polygon id="82189 VAZERAC" points="1.268683338,44.16182482 1.256900637,44.16351079 1.26716458,44.1710288 1.265176997,44.17426545 1.232412584,44.18923665 1.229313028,44.19193262 1.229567747,44.19540294 1.232127216,44.19840623 1.253774528,44.21274366 1.254250684,44.22290681 1.262000248,44.22659502 1.273096224,44.24214756 1.26682268,44.25154719 1.284392573,44.25251626 1.2857955,44.24049186 1.281317633,44.23534407 1.272030624,44.22326011 1.272888853,44.21644924 1.279632038,44.21163044 1.28854958,44.21394858 1.292514452,44.21197563 1.300669623,44.20339628 1.302580022,44.19349558 1.317797753,44.18498812 1.329184626,44.17046955 1.268683338,44.16182482" />
<polygon id="82190 VERDUN-SUR-GARONNE" points="1.261894473,43.80560769 1.257262815,43.80547073 1.254137223,43.799156 1.249524311,43.79882999 1.243826254,43.80389594 1.241142928,43.81315082 1.224133791,43.81769973 1.225551179,43.82450072 1.220711948,43.83417925 1.205651433,43.84730856 1.19658074,43.84939134 1.192662439,43.85569054 1.183181404,43.85614517 1.16579713,43.85051638 1.15671843,43.85239771 1.155317412,43.85572262 1.161417252,43.87182147 1.153898069,43.88001211 1.162991904,43.88089468 1.168535541,43.87141006 1.191351698,43.86762285 1.199698867,43.87083041 1.213125284,43.86961983 1.219206422,43.87491311 1.236683532,43.88237108 1.24550867,43.88353946 1.260639442,43.86811012 1.266988087,43.85611332 1.273611794,43.85221276 1.278712511,43.83897155 1.255132091,43.82275477 1.254565197,43.81933427 1.26426437,43.81228822 1.261894473,43.80560769" />
<polygon id="82191 VERFEIL" points="1.911095133,44.18545836 1.913406478,44.17514738 1.899789021,44.17692001 1.885915486,44.17384547 1.876128938,44.16655332 1.847771973,44.16625912 1.837852961,44.17186157 1.837912066,44.17814541 1.836797331,44.19043904 1.843726337,44.19423002 1.856941218,44.19100179 1.865181596,44.19435496 1.869618553,44.20025192 1.890347485,44.20756586 1.905696083,44.20142771 1.903916177,44.19509973 1.91299015,44.1884117 1.911095133,44.18545836" />
<polygon id="82192 VERLHAC-TESCOU" points="1.5233235,43.90360073 1.51519503,43.90596578 1.503835629,43.93134684 1.479320057,43.94130577 1.479833645,43.9440043 1.490902599,43.94612 1.499402966,43.9436087 1.513407418,43.94544734 1.517266909,43.94746204 1.513604331,43.95366815 1.535267578,43.95966742 1.539562971,43.95397311 1.538735956,43.94734618 1.565952366,43.94408828 1.577520091,43.93881183 1.573866636,43.93248148 1.573536366,43.91978578 1.569630171,43.91814152 1.555617173,43.91831716 1.533791905,43.92109571 1.531161097,43.91154628 1.5233235,43.90360073" />
<polygon id="82193 VIGUERON" points="1.068587853,43.87958905 1.055845365,43.8824685 1.029932756,43.89473287 1.052388278,43.90938615 1.079906294,43.89200441 1.068587853,43.87958905" />
<polygon id="82194 VILLEBRUMIER" points="1.469869358,43.89748214 1.43658878,43.90820811 1.438338001,43.91116753 1.431067698,43.91475383 1.430691615,43.91801587 1.434312493,43.92401767 1.431123818,43.93354932 1.433442792,43.93982053 1.446479804,43.94322915 1.465068784,43.93251029 1.463440768,43.9184995 1.47699985,43.90829311 1.469869358,43.89748214" />
<polygon id="82195 VILLEMADE" points="1.286648385,44.05833422 1.278537195,44.06896481 1.272913506,44.0822989 1.265728379,44.08693869 1.26912922,44.08887401 1.267740084,44.09798963 1.275666038,44.09738546 1.285494968,44.09124697 1.302332631,44.09249949 1.312034833,44.08840027 1.313025154,44.0815377 1.304457272,44.06940525 1.286648385,44.05833422" />

</g>

</g>

</svg>
