<?xml version="1.0" standalone="no"?>
<!DOCTYPE svg PUBLIC "-//W3C//DTD SVG 1.1//EN" 
  "http://www.w3.org/Graphics/SVG/1.1/DTD/svg11.dtd">
<svg width="1000" height="1110" viewBox="1.916539441 48.28531937 0.667534563 0.490782659999994"  preserveAspectRatio="none"
     xmlns="http://www.w3.org/2000/svg" version="1.1">

<style type="text/css" >
<![CDATA[

.communes { 
	fill           : #b9b9b9;
	fill-opacity   : 1;
	stroke         : white;
	stroke-opacity : 1;
	stroke-width   : 0.002;
}

]]>
</style>

<g transform="translate(0,48.77610203) scale(1,-1) translate(0,-48.28531937)">

<g class="communes">

<polygon id="91001 ABBEVILLE-LA-RIVIERE" points="2.18148417,48.31379135 2.170835101,48.3150399 2.161212087,48.31705057 2.160912734,48.32398563 2.172600455,48.33490097 2.172249009,48.33837156 2.156171539,48.34706666 2.156030599,48.34828032 2.170998491,48.35607882 2.188440136,48.36047333 2.229800692,48.36092036 2.235957,48.36093323 2.234295532,48.34892905 2.226182127,48.34533135 2.207089543,48.34494416 2.18279798,48.32387778 2.18148417,48.31379135" />
<polygon id="91016 ANGERVILLE" points="2.051468166,48.29020916 2.043235863,48.28616575 2.028993552,48.28863215 2.009276322,48.28531937 1.994084718,48.28658588 1.97914137,48.28822151 1.96190516,48.30284638 1.959227237,48.30868957 1.9765453,48.31428435 1.975598211,48.32344503 1.982344483,48.32831706 2.014172236,48.33782703 2.04165788,48.3358662 2.043787116,48.33305813 2.034811329,48.32433846 2.03056957,48.31069907 2.037179942,48.29736412 2.052708365,48.29547391 2.051468166,48.29020916" />
<polygon id="91017 ANGERVILLIERS" points="2.054649987,48.57652871 2.046044536,48.57932976 2.04404557,48.58560191 2.035741286,48.58887242 2.033046952,48.59819732 2.035012975,48.60485221 2.054815015,48.60796168 2.064207866,48.59625136 2.07791022,48.59906604 2.087153991,48.59396468 2.08417912,48.58416331 2.073675254,48.57702019 2.054649987,48.57652871" />
<polygon id="91021 ARPAJON" points="2.241108589,48.57850266 2.234895694,48.58896989 2.236085258,48.59852193 2.242900163,48.60369296 2.253437433,48.59049097 2.257901584,48.59124753 2.24159621,48.57853276 2.241108589,48.57850266" />
<polygon id="91022 ARRANCOURT" points="2.153877534,48.30840556 2.126795028,48.31729658 2.131374915,48.3234307 2.156171539,48.34706666 2.172249009,48.33837156 2.172600455,48.33490097 2.160912734,48.32398563 2.161212087,48.31705057 2.170835101,48.3150399 2.169024018,48.3126968 2.154723395,48.31453005 2.153877534,48.30840556" />
<polygon id="91027 ATHIS-MONS" points="2.389918983,48.69186154 2.378311745,48.69681169 2.359690486,48.69953753 2.353874105,48.70178184 2.355793866,48.70478746 2.36930611,48.70782791 2.370706732,48.72017592 2.386585087,48.7200967 2.411013731,48.72604821 2.41426011,48.71781621 2.404620045,48.71088764 2.40057926,48.70177382 2.389918983,48.69186154" />
<polygon id="91035 AUTHON-LA-PLAINE" points="1.971705942,48.43708579 1.956548347,48.43642263 1.942894677,48.44099829 1.934138822,48.44267442 1.930627998,48.45371827 1.955625494,48.47264552 1.968700596,48.47584573 1.966820988,48.46615773 1.974717738,48.46220456 1.980522588,48.45306865 1.971705942,48.43708579" />
<polygon id="91037 AUVERNAUX" points="2.497610445,48.51724257 2.493476011,48.51910518 2.484064203,48.51227272 2.474123082,48.512571 2.47127865,48.51536514 2.474465774,48.52161349 2.470017432,48.52762102 2.475950104,48.53569864 2.472349956,48.54078336 2.49931531,48.54291502 2.509451613,48.54262442 2.497610445,48.51724257" />
<polygon id="91038 AUVERS-SAINT-GEORGES" points="2.23948271,48.44393534 2.2095146,48.47195305 2.193217668,48.48034519 2.216642541,48.49930455 2.222731271,48.50497624 2.227100057,48.50341239 2.227695704,48.49697488 2.242196775,48.49482817 2.249542407,48.49038561 2.247400195,48.47743518 2.237766494,48.47927199 2.230759094,48.46713547 2.243071262,48.46141181 2.250214898,48.45278439 2.248528558,48.44965188 2.23948271,48.44393534" />
<polygon id="91041 AVRAINVILLE" points="2.248825676,48.53195272 2.248702968,48.53862703 2.23403801,48.5400538 2.233263245,48.54671486 2.223623408,48.55356124 2.226369145,48.56675815 2.241108589,48.57850266 2.24159621,48.57853276 2.259186894,48.57323711 2.263504915,48.5621091 2.252377464,48.53744472 2.258799631,48.53257308 2.248825676,48.53195272" />
<polygon id="91044 BALLAINVILLIERS" points="2.291325368,48.65758521 2.276122659,48.66022837 2.277011555,48.67057811 2.286128615,48.68618536 2.305157019,48.67831925 2.300071591,48.66959135 2.291325368,48.65758521" />
<polygon id="91045 BALLANCOURT-SUR-ESSONNE" points="2.40622385,48.50393874 2.36637352,48.51029112 2.362615567,48.52428692 2.372243073,48.53686056 2.374443939,48.54540928 2.404570932,48.53149435 2.401942883,48.52915121 2.413354175,48.52488101 2.412464606,48.50878269 2.40622385,48.50393874" />
<polygon id="91047 BAULNE" points="2.415182718,48.48113278 2.400834819,48.47794854 2.391371982,48.48068928 2.384237742,48.4855645 2.364610484,48.49040909 2.351210349,48.48503783 2.346602094,48.48669488 2.352288421,48.48979376 2.36637352,48.51029112 2.40622385,48.50393874 2.406526845,48.50228496 2.398786483,48.49848565 2.397321644,48.48813257 2.415182718,48.48113278" />
<polygon id="91064 BIEVRES" points="2.204036107,48.73691812 2.19023783,48.73928985 2.183383666,48.74278703 2.189517467,48.75416195 2.19247239,48.76363515 2.187626751,48.77251573 2.190662977,48.77503676 2.200753095,48.774619 2.207691001,48.77028498 2.222893956,48.7709335 2.227194111,48.77275127 2.226559327,48.77610203 2.228842439,48.77447084 2.232859032,48.76598807 2.224502566,48.75882853 2.226414985,48.75003537 2.204036107,48.73691812" />
<polygon id="91067 BLANDY" points="2.24515724,48.29839664 2.248218137,48.31542166 2.238046846,48.31637336 2.246310314,48.32996755 2.249981051,48.34129165 2.254452027,48.34197669 2.276639578,48.34198831 2.269118363,48.31504868 2.254850698,48.30141831 2.24515724,48.29839664" />
<polygon id="91069 BOIGNEVILLE" points="2.369945408,48.3086732 2.367702282,48.31127051 2.359585281,48.30881555 2.355802482,48.31043257 2.331334541,48.32642936 2.329310114,48.33283306 2.344952447,48.34559785 2.376371618,48.34460679 2.385364207,48.34774885 2.392371524,48.33587262 2.395402486,48.32575713 2.402664267,48.32071946 2.398935772,48.31525715 2.369945408,48.3086732" />
<polygon id="91075 BOIS-HERPIN" points="2.235957,48.36093323 2.229800692,48.36092036 2.232021343,48.36602724 2.223823915,48.36612678 2.222083267,48.36878755 2.24209596,48.37808539 2.247567803,48.3873783 2.251987031,48.38722633 2.258715759,48.37272022 2.253743039,48.36152344 2.237076375,48.36381057 2.235957,48.36093323" />
<polygon id="91079 BOISSY-LA-RIVIERE" points="2.17883058,48.36805486 2.174064197,48.36890347 2.166487487,48.36472964 2.152642447,48.36757358 2.148449701,48.36883014 2.147547987,48.37781198 2.143300971,48.38234297 2.125023045,48.38335212 2.125646868,48.38645178 2.127582885,48.39270112 2.136908574,48.39573845 2.165625635,48.38927712 2.186363351,48.38913335 2.196628704,48.39008508 2.203207631,48.39541979 2.218515861,48.39441503 2.217446275,48.38640054 2.209692877,48.38370394 2.201748088,48.37943102 2.196711636,48.38023373 2.17883058,48.36805486" />
<polygon id="91080 BOISSY-LE-CUTTE" points="2.292920353,48.45920912 2.281768614,48.45965498 2.275053971,48.46299688 2.266135009,48.47009433 2.272935629,48.47432854 2.27059539,48.47916328 2.279098356,48.4827238 2.297585098,48.47653708 2.304068647,48.46717395 2.292920353,48.45920912" />
<polygon id="91081 BOISSY-LE-SEC" points="2.082217728,48.45928761 2.070364849,48.46407166 2.071219563,48.47387582 2.062219417,48.48234295 2.061545741,48.49201802 2.074033627,48.50994714 2.093148563,48.51326129 2.107124543,48.50915679 2.102973022,48.49618859 2.12119727,48.49025215 2.122761804,48.4800526 2.118104772,48.47050864 2.120912786,48.46764153 2.1147821,48.46215296 2.082217728,48.45928761" />
<polygon id="91085 BOISSY-SOUS-SAINT-YON" points="2.220357114,48.53173345 2.20823037,48.53378539 2.192640119,48.54253272 2.188209487,48.54693762 2.205041256,48.56008651 2.211118362,48.56961765 2.220340908,48.57199937 2.226369145,48.56675815 2.223623408,48.55356124 2.233263245,48.54671486 2.23403801,48.5400538 2.224792515,48.54047967 2.220357114,48.53173345" />
<polygon id="91086 BONDOUFLE" points="2.398570077,48.6071268 2.394039789,48.60828223 2.389124307,48.60290484 2.374794543,48.60235369 2.371609215,48.59992613 2.362191411,48.60148624 2.35938439,48.61807671 2.372269441,48.62065502 2.375578102,48.62650137 2.383529496,48.62997898 2.399270549,48.62410454 2.395050861,48.61821825 2.401094046,48.61296853 2.400059409,48.60973398 2.398570077,48.6071268" />
<polygon id="91093 BOULLAY-LES-TROUX" points="2.066511581,48.68689924 2.068271578,48.67733311 2.055361177,48.67242804 2.051973961,48.66298304 2.042071987,48.66386638 2.028902045,48.66374182 2.033637154,48.67866758 2.037642875,48.68022018 2.04255161,48.68069147 2.045836488,48.68678058 2.055658739,48.68678681 2.066511581,48.68689924" />
<polygon id="91095 BOURAY-SUR-JUINE" points="2.307086473,48.49990243 2.288597381,48.49974818 2.277063952,48.5046715 2.275586321,48.51658249 2.269508694,48.52030569 2.271090976,48.52338309 2.290326475,48.52103455 2.299159973,48.5237768 2.324144816,48.51865877 2.307086473,48.49990243" />
<polygon id="91097 BOUSSY-SAINT-ANTOINE" points="2.543107275,48.68677217 2.529639187,48.67832772 2.521284435,48.68145163 2.520818964,48.6907413 2.528722494,48.6941368 2.531076672,48.69978571 2.544309615,48.69845182 2.548997229,48.68902527 2.543107275,48.68677217" />
<polygon id="91098 BOUTERVILLIERS" points="2.063366859,48.44306293 2.051643426,48.44677554 2.038487965,48.44587796 2.029559325,48.45264297 2.020849901,48.45405594 2.020279298,48.45709219 2.025063157,48.46170199 2.034115251,48.46157805 2.03418288,48.46452057 2.070364849,48.46407166 2.082217728,48.45928761 2.078499451,48.45765737 2.063366859,48.44306293" />
<polygon id="91099 BOUTIGNY-SUR-ESSONNE" points="2.387445388,48.41131458 2.373362427,48.43411971 2.361591412,48.43930202 2.36247914,48.44860028 2.399871546,48.4604187 2.407660085,48.46065574 2.412700368,48.45627252 2.412595452,48.44630387 2.422191386,48.43448449 2.423931908,48.42124087 2.416290576,48.41557157 2.387445388,48.41131458" />
<polygon id="91100 BOUVILLE" points="2.288706296,48.41181615 2.283375679,48.41721818 2.24392608,48.41331154 2.245375402,48.43285296 2.23384159,48.438528 2.23948271,48.44393534 2.248528558,48.44965188 2.261527872,48.45040822 2.267301997,48.45917973 2.275053971,48.46299688 2.281768614,48.45965498 2.277058233,48.45104363 2.28746336,48.44369331 2.305922192,48.43850365 2.318955102,48.441728 2.324223467,48.43371508 2.328621285,48.43340717 2.324836823,48.42491077 2.308348476,48.41647574 2.288706296,48.41181615" />
<polygon id="91103 BRETIGNY-SUR-ORGE" points="2.313281782,48.57575657 2.290435266,48.58106493 2.288159458,48.59489564 2.268120878,48.60618052 2.282544096,48.61773753 2.291824539,48.6197091 2.292714326,48.62615509 2.328934735,48.6195102 2.318790251,48.61189646 2.328923408,48.59604998 2.326590094,48.59294233 2.316867985,48.58559149 2.313281782,48.57575657" />
<polygon id="91105 BREUILLET" points="2.181465764,48.56405577 2.167476841,48.56245637 2.138846664,48.5652932 2.129550296,48.57009237 2.13553319,48.57471492 2.153442619,48.57713764 2.168015907,48.58057788 2.199097781,48.58008946 2.198514645,48.57566858 2.181465764,48.56405577" />
<polygon id="91106 BREUX-JOUY" points="2.157386082,48.5367735 2.155298705,48.53853093 2.155730606,48.5487266 2.14497761,48.55587362 2.138846664,48.5652932 2.167476841,48.56245637 2.181465764,48.56405577 2.173517459,48.55154136 2.157386082,48.5367735" />
<polygon id="91109 BRIERES-LES-SCELLES" points="2.164839424,48.45409472 2.124144503,48.44989681 2.1147821,48.46215296 2.120912786,48.46764153 2.130156439,48.46987781 2.138754393,48.47853227 2.148651499,48.48069083 2.161588476,48.47473716 2.159567939,48.47163704 2.168673274,48.46395503 2.164839424,48.45409472" />
<polygon id="91111 BRIIS-SOUS-FORGES" points="2.130086863,48.60309302 2.118952827,48.6102437 2.103074032,48.61065589 2.100268927,48.61363929 2.116964831,48.62114068 2.117932134,48.63781658 2.122501799,48.6388848 2.115007094,48.6462506 2.11963614,48.65189802 2.132665941,48.6553848 2.134577899,48.64240039 2.144672089,48.6418616 2.160241168,48.62917184 2.145134019,48.62189494 2.142411925,48.60998317 2.142584962,48.60687192 2.130086863,48.60309302" />
<polygon id="91112 BROUY" points="2.300207697,48.31124164 2.291710904,48.30917565 2.269118363,48.31504868 2.276639578,48.34198831 2.27745173,48.34476446 2.285806768,48.34572386 2.307778204,48.3325202 2.317182165,48.33156709 2.312424415,48.33011797 2.300207697,48.31124164" />
<polygon id="91114 BRUNOY" points="2.498251929,48.67667966 2.493174072,48.68068785 2.482284537,48.68986068 2.489093766,48.69513395 2.489217006,48.70198839 2.506110731,48.71031655 2.52135526,48.71229451 2.529578737,48.70618395 2.526873889,48.70473412 2.510056275,48.69392666 2.508610015,48.6873456 2.51293213,48.68566333 2.498251929,48.67667966" />
<polygon id="91115 BRUYERES-LE-CHATEL" points="2.153442619,48.57713764 2.14751863,48.58377927 2.172802856,48.58823969 2.175030197,48.59490301 2.17071249,48.60122398 2.176977878,48.61076685 2.176233864,48.62098067 2.181171047,48.62715864 2.202022129,48.62842458 2.202972626,48.62838597 2.198579217,48.61930704 2.210105697,48.60802268 2.202005397,48.59569861 2.202598465,48.58881187 2.213635778,48.58251632 2.199097781,48.58008946 2.168015907,48.58057788 2.153442619,48.57713764" />
<polygon id="91121 BUNO-BONNEVAUX" points="2.433827159,48.33453953 2.419993956,48.33715377 2.401296776,48.33302094 2.392371524,48.33587262 2.385364207,48.34774885 2.383011233,48.35848827 2.386682852,48.38169282 2.408153672,48.38684927 2.409810589,48.37400982 2.427873893,48.36331992 2.429832229,48.36201578 2.441143248,48.35720224 2.430340341,48.34750582 2.433827159,48.33453953" />
<polygon id="91122 BURES-SUR-YVETTE" points="2.161288985,48.67556804 2.153378907,48.67839957 2.150231104,48.6840351 2.141573665,48.68593402 2.14565818,48.6878793 2.145298555,48.69741145 2.160814846,48.70595888 2.170751871,48.70665801 2.175163691,48.69578674 2.165981212,48.69476042 2.161288985,48.67556804" />
<polygon id="91129 CERNY" points="2.344160659,48.47629963 2.317220818,48.46280604 2.304068647,48.46717395 2.297585098,48.47653708 2.279098356,48.4827238 2.27059539,48.47916328 2.264778532,48.4819433 2.271733439,48.49076663 2.272229361,48.50380533 2.277063952,48.5046715 2.288597381,48.49974818 2.307086473,48.49990243 2.321995432,48.50160777 2.334532853,48.49610997 2.341659327,48.49989212 2.350338675,48.49642236 2.352288421,48.48979376 2.346602094,48.48669488 2.344160659,48.47629963" />
<polygon id="91130 CHALO-SAINT-MARS" points="2.050594007,48.38511866 2.045567328,48.38447547 2.02765749,48.39683624 2.001713279,48.39560394 2.00540429,48.40117732 2.02053716,48.4149791 2.017462878,48.43483734 2.020903019,48.43742094 2.038487965,48.44587796 2.051643426,48.44677554 2.063366859,48.44306293 2.07589326,48.43204088 2.106493061,48.42777677 2.108390984,48.42108827 2.092161361,48.41302974 2.076934914,48.41199451 2.07161503,48.39259097 2.050594007,48.38511866" />
<polygon id="91131 CHALOU-MOULINEUX" points="2.044188706,48.36073807 2.027992315,48.36118215 2.024726861,48.36981994 2.015931711,48.37004415 2.013989435,48.37640723 2.000443871,48.37851614 1.994794241,48.38367789 2.001713279,48.39560394 2.02765749,48.39683624 2.045567328,48.38447547 2.050594007,48.38511866 2.053451153,48.37572124 2.044188706,48.36073807" />
<polygon id="91132 CHAMARANDE" points="2.216642541,48.49930455 2.202780748,48.50733605 2.203466691,48.51655285 2.20823037,48.53378539 2.220357114,48.53173345 2.219407835,48.52543891 2.233558858,48.52464038 2.235403342,48.52167452 2.240773206,48.51276671 2.226120955,48.51105287 2.222731271,48.50497624 2.216642541,48.49930455" />
<polygon id="91135 CHAMPCUEIL" points="2.479129832,48.49514064 2.469611585,48.49677181 2.469322442,48.48386999 2.449803828,48.48433895 2.440320512,48.48659768 2.437876514,48.49619408 2.425120581,48.5016297 2.416059751,48.50447328 2.406526845,48.50228496 2.40622385,48.50393874 2.412464606,48.50878269 2.413354175,48.52488101 2.442540921,48.5209103 2.470017432,48.52762102 2.474465774,48.52161349 2.47127865,48.51536514 2.474123082,48.512571 2.482956325,48.50104082 2.479129832,48.49514064" />
<polygon id="91136 CHAMPLAN" points="2.284892043,48.69912157 2.268193302,48.70387749 2.259350145,48.70649437 2.266836157,48.71827874 2.293929238,48.71212785 2.293806597,48.70511123 2.292397752,48.69975998 2.284892043,48.69912157" />
<polygon id="91137 CHAMPMOTTEUX" points="2.317182165,48.33156709 2.307778204,48.3325202 2.285806768,48.34572386 2.284351035,48.34855823 2.302901311,48.35638852 2.304169905,48.3533549 2.32316882,48.3550035 2.327292872,48.34919676 2.340933016,48.34969631 2.34533278,48.34865903 2.344952447,48.34559785 2.329310114,48.33283306 2.317182165,48.33156709" />
<polygon id="91145 CHATIGNONVILLE" points="1.930627998,48.45371827 1.922148965,48.45760029 1.916539441,48.46330733 1.916825761,48.47369246 1.923263082,48.47913116 1.933108439,48.48142425 1.955625494,48.47264552 1.930627998,48.45371827" />
<polygon id="91148 CHAUFFOUR-LES-ETRECHY" points="2.182278366,48.51805527 2.188094407,48.51237351 2.178339385,48.50498344 2.178040941,48.49810813 2.157859326,48.4971841 2.151481459,48.50151099 2.150175495,48.50942748 2.175366175,48.52015762 2.182278366,48.51805527" />
<polygon id="91156 CHEPTAINVILLE" points="2.258799631,48.53257308 2.252377464,48.53744472 2.263504915,48.5621091 2.265708596,48.55959488 2.282745354,48.55947393 2.299547238,48.55156773 2.294405489,48.5429732 2.289291893,48.54341954 2.282800004,48.53468142 2.258799631,48.53257308" />
<polygon id="91159 CHEVANNES" points="2.470017432,48.52762102 2.442540921,48.5209103 2.413354175,48.52488101 2.401942883,48.52915121 2.404570932,48.53149435 2.425165596,48.54447782 2.445614661,48.54656298 2.465176547,48.54147098 2.472349956,48.54078336 2.475950104,48.53569864 2.470017432,48.52762102" />
<polygon id="91161 CHILLY-MAZARIN" points="2.316143347,48.69199204 2.314140345,48.68932706 2.309906997,48.69097568 2.302807252,48.70276257 2.293806597,48.70511123 2.293929238,48.71212785 2.301738757,48.71967537 2.324102231,48.72057767 2.325042594,48.71092274 2.321940274,48.69757494 2.316143347,48.69199204" />
<polygon id="91174 CORBEIL-ESSONNES" points="2.481253209,48.58020561 2.478349771,48.57361716 2.473848918,48.57770832 2.469570037,48.5785529 2.464395528,48.59405596 2.450467092,48.59548572 2.453480296,48.60433308 2.436981317,48.61117364 2.470342723,48.62549424 2.471024323,48.62518243 2.485775647,48.61531629 2.490357142,48.60735716 2.482368684,48.58256729 2.481253209,48.58020561" />
<polygon id="91175 CORBREUSE" points="1.955625494,48.47264552 1.933108439,48.48142425 1.934278601,48.49577568 1.952893097,48.52348892 1.96388551,48.52784959 1.967669117,48.52623615 1.960748383,48.52143468 1.963477049,48.514936 1.978253015,48.50577047 1.984770357,48.49360886 1.992615928,48.48964513 1.991581327,48.48643351 1.987281814,48.47779601 1.968700596,48.47584573 1.955625494,48.47264552" />
<polygon id="91179 LE COUDRAY-MONTCEAUX" points="2.472349956,48.54078336 2.465176547,48.54147098 2.468750459,48.55375725 2.466471529,48.55666166 2.456770496,48.55781418 2.456355292,48.56387538 2.473848918,48.57770832 2.478349771,48.57361716 2.481253209,48.58020561 2.481413546,48.57359457 2.492806003,48.56739174 2.521771676,48.57322389 2.531595443,48.57365877 2.519700399,48.56849287 2.517943536,48.56203591 2.49931531,48.54291502 2.472349956,48.54078336" />
<polygon id="91180 COURANCES" points="2.461092694,48.42475327 2.460089535,48.43687614 2.468439836,48.44407508 2.497940705,48.45726638 2.504064222,48.4533427 2.504411404,48.44808123 2.505029302,48.42986586 2.461092694,48.42475327" />
<polygon id="91182 COURCOURONNES" points="2.400059409,48.60973398 2.401094046,48.61296853 2.395050861,48.61821825 2.399270549,48.62410454 2.413329248,48.63607529 2.424822511,48.63008657 2.424983413,48.62038148 2.431928937,48.61173434 2.41259247,48.61344859 2.400059409,48.60973398" />
<polygon id="91184 COURDIMANCHE-SUR-ESSONNE" points="2.331327972,48.40769163 2.332340006,48.41206081 2.339852555,48.41646632 2.350084516,48.41638787 2.360523565,48.42816738 2.373362427,48.43411971 2.387445388,48.41131458 2.377600411,48.4096169 2.352500707,48.41224456 2.345885285,48.40846557 2.331327972,48.40769163" />
<polygon id="91186 COURSON-MONTELOUP" points="2.146352572,48.58710836 2.128843696,48.59302668 2.118745014,48.5919628 2.122410177,48.59740535 2.130707682,48.60001202 2.130086863,48.60309302 2.142584962,48.60687192 2.142411925,48.60998317 2.151078654,48.60840807 2.158388329,48.60008499 2.146352572,48.58710836" />
<polygon id="91191 CROSNE" points="2.465470289,48.71197629 2.45115518,48.7148795 2.449849977,48.72136753 2.462760976,48.72696695 2.472978587,48.72757016 2.475384701,48.72759874 2.474537395,48.71857357 2.465470289,48.71197629" />
<polygon id="91195 DANNEMOIS" points="2.468439836,48.44407508 2.444672047,48.45263888 2.441995943,48.46902679 2.445053291,48.47543752 2.460309448,48.47469816 2.484617826,48.4614286 2.499641403,48.45905485 2.497940705,48.45726638 2.468439836,48.44407508" />
<polygon id="91198 D'HUISON-LONGUEVILLE" points="2.328621285,48.43340717 2.324223467,48.43371508 2.318955102,48.441728 2.310203702,48.44915366 2.310713507,48.45255734 2.292920353,48.45920912 2.304068647,48.46717395 2.317220818,48.46280604 2.344160659,48.47629963 2.348556364,48.47207752 2.345652088,48.45542706 2.353154601,48.45135676 2.347352809,48.44590906 2.330457473,48.43996713 2.328621285,48.43340717" />
<polygon id="91200 DOURDAN" points="2.032328287,48.50129303 2.020784832,48.51703237 1.995072017,48.5140558 1.978253015,48.50577047 1.963477049,48.514936 1.960748383,48.52143468 1.967669117,48.52623615 1.977253142,48.52789338 1.976093448,48.53456776 1.962064569,48.5349949 1.934125187,48.54864719 1.93796478,48.56178021 1.962684635,48.56048697 1.979664302,48.55433645 1.982990219,48.55682991 2.01757406,48.55759739 2.026651886,48.54968338 2.050692871,48.54576644 2.03619589,48.53615873 2.039845093,48.51294155 2.036639675,48.50315437 2.032328287,48.50129303" />
<polygon id="91201 DRAVEIL" points="2.429370469,48.65355872 2.407056816,48.66741902 2.396339541,48.67353575 2.385900735,48.68348474 2.389918983,48.69186154 2.40057926,48.70177382 2.417524999,48.69441914 2.427233226,48.69500584 2.445892861,48.67919125 2.454741724,48.68248816 2.464023051,48.67286081 2.429370469,48.65355872" />
<polygon id="91204 ECHARCON" points="2.390374937,48.55722256 2.387351492,48.56546512 2.383194196,48.56630723 2.384278289,48.57901472 2.393595164,48.58928154 2.403162251,48.59100306 2.411662495,48.58755512 2.422234048,48.57322298 2.412753599,48.5652154 2.40278772,48.56319573 2.390374937,48.55722256" />
<polygon id="91207 EGLY" points="2.226369145,48.56675815 2.220340908,48.57199937 2.211118362,48.56961765 2.198514645,48.57566858 2.199097781,48.58008946 2.213635778,48.58251632 2.234895694,48.58896989 2.241108589,48.57850266 2.226369145,48.56675815" />
<polygon id="91215 EPINAY-SOUS-SENART" points="2.504247097,48.67181155 2.498251929,48.67667966 2.51293213,48.68566333 2.508610015,48.6873456 2.510056275,48.69392666 2.526873889,48.70473412 2.531076672,48.69978571 2.528722494,48.6941368 2.520818964,48.6907413 2.521284435,48.68145163 2.518174561,48.67547557 2.504247097,48.67181155" />
<polygon id="91216 EPINAY-SUR-ORGE" points="2.309444824,48.65705292 2.300071591,48.66959135 2.305157019,48.67831925 2.319514014,48.68146033 2.326417403,48.68650968 2.335290941,48.67776246 2.338125432,48.66737105 2.325107074,48.66909706 2.318742079,48.66564275 2.309444824,48.65705292" />
<polygon id="91222 ESTOUCHES" points="2.110599785,48.29694895 2.113716854,48.30724786 2.118765923,48.32389538 2.131374915,48.3234307 2.126795028,48.31729658 2.153877534,48.30840556 2.161900339,48.3026231 2.161589347,48.29843693 2.110599785,48.29694895" />
<polygon id="91223 ETAMPES" points="2.125646868,48.38645178 2.108316323,48.38326361 2.099304124,48.38580469 2.095146068,48.38409952 2.07161503,48.39259097 2.076934914,48.41199451 2.092161361,48.41302974 2.108390984,48.42108827 2.106493061,48.42777677 2.104532013,48.4310009 2.109190621,48.43691098 2.104143648,48.44664362 2.078499451,48.45765737 2.082217728,48.45928761 2.1147821,48.46215296 2.124144503,48.44989681 2.164839424,48.45409472 2.173648673,48.45037774 2.175636296,48.43661746 2.196760391,48.42656889 2.222475238,48.3970862 2.232818621,48.39654178 2.224190862,48.38977381 2.218515861,48.39441503 2.203207631,48.39541979 2.179124653,48.40892206 2.155178017,48.41569062 2.133128266,48.40623753 2.127582885,48.39270112 2.125646868,48.38645178" />
<polygon id="91225 ETIOLLES" points="2.471024323,48.62518243 2.470342723,48.62549424 2.452264073,48.63761893 2.465971104,48.64834033 2.469822588,48.66211086 2.504247097,48.67181155 2.518164314,48.66037317 2.509392945,48.657477 2.49048861,48.64263688 2.491619382,48.63941248 2.471024323,48.62518243" />
<polygon id="91226 ETRECHY" points="2.193217668,48.48034519 2.190838517,48.47404042 2.161588476,48.47473716 2.148651499,48.48069083 2.138377039,48.48750811 2.151481459,48.50151099 2.157859326,48.4971841 2.178040941,48.49810813 2.178339385,48.50498344 2.188094407,48.51237351 2.182278366,48.51805527 2.187298703,48.51828763 2.194862275,48.51516342 2.203466691,48.51655285 2.202780748,48.50733605 2.216642541,48.49930455 2.193217668,48.48034519" />
<polygon id="91228 EVRY" points="2.436981317,48.61117364 2.431928937,48.61173434 2.424983413,48.62038148 2.424822511,48.63008657 2.413329248,48.63607529 2.422037169,48.64391664 2.426371064,48.64232746 2.437760993,48.64847142 2.452264073,48.63761893 2.470342723,48.62549424 2.436981317,48.61117364" />
<polygon id="91232 LA FERTE-ALAIS" points="2.348556364,48.47207752 2.344160659,48.47629963 2.346602094,48.48669488 2.351210349,48.48503783 2.364610484,48.49040909 2.384237742,48.4855645 2.391371982,48.48068928 2.385747755,48.4733283 2.353224877,48.47750088 2.348556364,48.47207752" />
<polygon id="91235 FLEURY-MEROGIS" points="2.35938439,48.61807671 2.349942576,48.62018443 2.355395497,48.64122701 2.362493724,48.6479576 2.36577287,48.64621205 2.391422956,48.64319752 2.383529496,48.62997898 2.375578102,48.62650137 2.372269441,48.62065502 2.35938439,48.61807671" />
<polygon id="91240 FONTAINE-LA-RIVIERE" points="2.156030599,48.34828032 2.145898593,48.3629455 2.152642447,48.36757358 2.166487487,48.36472964 2.174064197,48.36890347 2.17883058,48.36805486 2.188440136,48.36047333 2.170998491,48.35607882 2.156030599,48.34828032" />
<polygon id="91243 FONTENAY-LES-BRIIS" points="2.14751863,48.58377927 2.146352572,48.58710836 2.158388329,48.60008499 2.151078654,48.60840807 2.142411925,48.60998317 2.145134019,48.62189494 2.160241168,48.62917184 2.172641398,48.62507571 2.18178964,48.63185852 2.187472244,48.63733964 2.202022129,48.62842458 2.181171047,48.62715864 2.176233864,48.62098067 2.176977878,48.61076685 2.17071249,48.60122398 2.175030197,48.59490301 2.172802856,48.58823969 2.14751863,48.58377927" />
<polygon id="91244 FONTENAY-LE-VICOMTE" points="2.404570932,48.53149435 2.374443939,48.54540928 2.390374937,48.55722256 2.40278772,48.56319573 2.425165596,48.54447782 2.404570932,48.53149435" />
<polygon id="91247 LA FORET-LE-ROI" points="2.070364849,48.46407166 2.03418288,48.46452057 2.026102217,48.46840418 2.017785107,48.48124606 2.046706708,48.48705067 2.061545741,48.49201802 2.062219417,48.48234295 2.071219563,48.47387582 2.070364849,48.46407166" />
<polygon id="91248 LA FORET-SAINTE-CROIX" points="2.222083267,48.36878755 2.209692877,48.38370394 2.217446275,48.38640054 2.218515861,48.39441503 2.224190862,48.38977381 2.232818621,48.39654178 2.235914832,48.39730853 2.251801292,48.39268639 2.247567803,48.3873783 2.24209596,48.37808539 2.222083267,48.36878755" />
<polygon id="91249 FORGES-LES-BAINS" points="2.07791022,48.59906604 2.064207866,48.59625136 2.054815015,48.60796168 2.057564352,48.61724909 2.042622551,48.62636848 2.051182785,48.63024213 2.061166738,48.62820727 2.086642405,48.63263326 2.10328073,48.64056776 2.117932134,48.63781658 2.116964831,48.62114068 2.100268927,48.61363929 2.07791022,48.59906604" />
<polygon id="91272 GIF-SUR-YVETTE" points="2.121591817,48.68015756 2.113415557,48.67608519 2.104030692,48.6768336 2.103727402,48.68343378 2.112243306,48.69153011 2.097852608,48.6940307 2.097183445,48.70052006 2.110332693,48.71438114 2.123314003,48.71597937 2.127386015,48.70982073 2.142027347,48.70630197 2.152152846,48.70793948 2.1551015,48.71806162 2.171682802,48.71480482 2.170751871,48.70665801 2.160814846,48.70595888 2.145298555,48.69741145 2.14565818,48.6878793 2.141573665,48.68593402 2.121943243,48.68349734 2.121591817,48.68015756" />
<polygon id="91273 GIRONVILLE-SUR-ESSONNE" points="2.327292872,48.34919676 2.32316882,48.3550035 2.304169905,48.3533549 2.302901311,48.35638852 2.308727425,48.3691627 2.321748133,48.37306172 2.327215707,48.37846416 2.331495225,48.37647302 2.362088961,48.37716346 2.386682852,48.38169282 2.383011233,48.35848827 2.347791509,48.35937929 2.327292872,48.34919676" />
<polygon id="91274 GOMETZ-LA-VILLE" points="2.11963614,48.65189802 2.099304162,48.66025569 2.09710885,48.66629293 2.089099941,48.67389596 2.091167209,48.68311383 2.082078805,48.68545492 2.089331408,48.69804071 2.097852608,48.6940307 2.112243306,48.69153011 2.103727402,48.68343378 2.104030692,48.6768336 2.113415557,48.67608519 2.121591817,48.68015756 2.13865635,48.66510717 2.13443135,48.66603006 2.136912128,48.66053395 2.132665941,48.6553848 2.11963614,48.65189802" />
<polygon id="91275 GOMETZ-LE-CHATEL" points="2.155439057,48.65933537 2.13865635,48.66510717 2.121591817,48.68015756 2.121943243,48.68349734 2.141573665,48.68593402 2.150231104,48.6840351 2.153378907,48.67839957 2.161288985,48.67556804 2.164094991,48.67506603 2.155421257,48.66632455 2.155439057,48.65933537" />
<polygon id="91284 LES GRANGES-LE-ROI" points="2.017785107,48.48124606 1.998991816,48.48249264 1.991581327,48.48643351 1.992615928,48.48964513 1.984770357,48.49360886 1.978253015,48.50577047 1.995072017,48.5140558 2.020784832,48.51703237 2.032328287,48.50129303 2.046706708,48.48705067 2.017785107,48.48124606" />
<polygon id="91286 GRIGNY" points="2.391422956,48.64319752 2.36577287,48.64621205 2.378054058,48.66137052 2.396339541,48.67353575 2.407056816,48.66741902 2.391422956,48.64319752" />
<polygon id="91292 GUIBEVILLE" points="2.282745354,48.55947393 2.265708596,48.55959488 2.263504915,48.5621091 2.259186894,48.57323711 2.267843319,48.57558461 2.281645124,48.57251122 2.282745354,48.55947393" />
<polygon id="91293 GUIGNEVILLE-SUR-ESSONNE" points="2.36247914,48.44860028 2.361042048,48.45112059 2.353154601,48.45135676 2.345652088,48.45542706 2.348556364,48.47207752 2.353224877,48.47750088 2.385747755,48.4733283 2.403837376,48.46972299 2.399871546,48.4604187 2.36247914,48.44860028" />
<polygon id="91294 GUILLERVAL" points="2.072970579,48.34021838 2.061831565,48.34351378 2.057936763,48.35676331 2.044188706,48.36073807 2.053451153,48.37572124 2.050594007,48.38511866 2.07161503,48.39259097 2.095146068,48.38409952 2.108684009,48.37352226 2.109840665,48.36342688 2.096065492,48.35889584 2.072970579,48.34021838" />
<polygon id="91312 IGNY" points="2.235462718,48.72756226 2.220793868,48.72566846 2.212902149,48.72880079 2.213690539,48.73784559 2.204036107,48.73691812 2.226414985,48.75003537 2.238024349,48.73556586 2.24099978,48.73293141 2.235462718,48.72756226" />
<polygon id="91315 ITTEVILLE" points="2.352288421,48.48979376 2.350338675,48.49642236 2.341659327,48.49989212 2.334532853,48.49610997 2.321995432,48.50160777 2.307086473,48.49990243 2.324144816,48.51865877 2.338447633,48.52164497 2.341510763,48.53762092 2.357098994,48.53681563 2.360009501,48.53475326 2.372243073,48.53686056 2.362615567,48.52428692 2.36637352,48.51029112 2.352288421,48.48979376" />
<polygon id="91318 JANVILLE-SUR-JUINE" points="2.247400195,48.47743518 2.249542407,48.49038561 2.242196775,48.49482817 2.227695704,48.49697488 2.227100057,48.50341239 2.222731271,48.50497624 2.226120955,48.51105287 2.240773206,48.51276671 2.25779967,48.51517729 2.269508694,48.52030569 2.275586321,48.51658249 2.277063952,48.5046715 2.272229361,48.50380533 2.271733439,48.49076663 2.264778532,48.4819433 2.247400195,48.47743518" />
<polygon id="91319 JANVRY" points="2.18178964,48.63185852 2.172641398,48.62507571 2.160241168,48.62917184 2.144672089,48.6418616 2.134577899,48.64240039 2.132665941,48.6553848 2.136912128,48.66053395 2.13443135,48.66603006 2.13865635,48.66510717 2.155439057,48.65933537 2.17710809,48.65599679 2.165598363,48.6489454 2.170938274,48.63922271 2.18178964,48.63185852" />
<polygon id="91326 JUVISY-SUR-ORGE" points="2.385900735,48.68348474 2.371882279,48.68571441 2.357918054,48.69449094 2.355856813,48.69747508 2.359690486,48.69953753 2.378311745,48.69681169 2.389918983,48.69186154 2.385900735,48.68348474" />
<polygon id="91330 LARDY" points="2.240773206,48.51276671 2.235403342,48.52167452 2.249192841,48.52901331 2.248825676,48.53195272 2.258799631,48.53257308 2.282800004,48.53468142 2.289291893,48.54341954 2.294405489,48.5429732 2.303967509,48.54114041 2.295340735,48.52983557 2.299159973,48.5237768 2.290326475,48.52103455 2.271090976,48.52338309 2.269508694,48.52030569 2.25779967,48.51517729 2.240773206,48.51276671" />
<polygon id="91332 LEUDEVILLE" points="2.342756038,48.55283089 2.339449315,48.55501655 2.317022753,48.55291979 2.312628019,48.56255601 2.313281782,48.57575657 2.316867985,48.58559149 2.326590094,48.59294233 2.338445909,48.59049905 2.336501928,48.57482682 2.347631266,48.55741861 2.342756038,48.55283089" />
<polygon id="91333 LEUVILLE-SUR-ORGE" points="2.268120878,48.60618052 2.26452796,48.60413438 2.256278551,48.6071866 2.257737304,48.61336662 2.263109576,48.62203563 2.276027551,48.62197092 2.282544096,48.61773753 2.268120878,48.60618052" />
<polygon id="91338 LIMOURS" points="2.042622551,48.62636848 2.041622378,48.62689118 2.060206515,48.64616382 2.050568908,48.65286101 2.053903211,48.65917533 2.063153792,48.66200099 2.089052174,48.66182393 2.09710885,48.66629293 2.099304162,48.66025569 2.11963614,48.65189802 2.115007094,48.6462506 2.122501799,48.6388848 2.117932134,48.63781658 2.10328073,48.64056776 2.086642405,48.63263326 2.061166738,48.62820727 2.051182785,48.63024213 2.042622551,48.62636848" />
<polygon id="91339 LINAS" points="2.236369124,48.61253886 2.223949651,48.62213772 2.225495993,48.62858852 2.24345199,48.63309366 2.252930406,48.63935126 2.26798597,48.6371779 2.281575739,48.62700595 2.276027551,48.62197092 2.263109576,48.62203563 2.257737304,48.61336662 2.236369124,48.61253886" />
<polygon id="91340 LISSES" points="2.422234048,48.57322298 2.411662495,48.58755512 2.403162251,48.59100306 2.393595164,48.58928154 2.405649371,48.59528837 2.398570077,48.6071268 2.400059409,48.60973398 2.41259247,48.61344859 2.431928937,48.61173434 2.436981317,48.61117364 2.453480296,48.60433308 2.450467092,48.59548572 2.433797739,48.58945259 2.439394863,48.57706523 2.422234048,48.57322298" />
<polygon id="91345 LONGJUMEAU" points="2.305157019,48.67831925 2.286128615,48.68618536 2.284892043,48.69912157 2.292397752,48.69975998 2.293806597,48.70511123 2.302807252,48.70276257 2.309906997,48.69097568 2.314140345,48.68932706 2.316143347,48.69199204 2.32817015,48.68754498 2.326417403,48.68650968 2.319514014,48.68146033 2.305157019,48.67831925" />
<polygon id="91347 LONGPONT-SUR-ORGE" points="2.282544096,48.61773753 2.276027551,48.62197092 2.281575739,48.62700595 2.281675,48.64350394 2.273006686,48.65190687 2.276122659,48.66022837 2.291325368,48.65758521 2.291425498,48.65219771 2.298933685,48.65012826 2.29785638,48.64441896 2.292714326,48.62615509 2.291824539,48.6197091 2.282544096,48.61773753" />
<polygon id="91359 MAISSE" points="2.386682852,48.38169282 2.362088961,48.37716346 2.331495225,48.37647302 2.327215707,48.37846416 2.330483808,48.39227511 2.325334411,48.40194465 2.331327972,48.40769163 2.345885285,48.40846557 2.352500707,48.41224456 2.377600411,48.4096169 2.387445388,48.41131458 2.416290576,48.41557157 2.42431122,48.41252488 2.40842328,48.39650431 2.408153672,48.38684927 2.386682852,48.38169282" />
<polygon id="91363 MARCOUSSIS" points="2.202972626,48.62838597 2.202022129,48.62842458 2.187472244,48.63733964 2.18178964,48.63185852 2.170938274,48.63922271 2.165598363,48.6489454 2.17710809,48.65599679 2.191269659,48.66826424 2.195456459,48.66888625 2.208440231,48.66614869 2.221783841,48.66103735 2.226566635,48.65164151 2.238271067,48.64498845 2.248510891,48.64560218 2.252930406,48.63935126 2.24345199,48.63309366 2.225495993,48.62858852 2.206233274,48.63081852 2.202972626,48.62838597" />
<polygon id="91374 MAROLLES-EN-BEAUCE" points="2.188440136,48.36047333 2.17883058,48.36805486 2.196711636,48.38023373 2.201748088,48.37943102 2.209692877,48.38370394 2.222083267,48.36878755 2.223823915,48.36612678 2.232021343,48.36602724 2.229800692,48.36092036 2.188440136,48.36047333" />
<polygon id="91376 MAROLLES-EN-HUREPOIX" points="2.317022753,48.55291979 2.306624644,48.54714723 2.299547238,48.55156773 2.282745354,48.55947393 2.281645124,48.57251122 2.290435266,48.58106493 2.313281782,48.57575657 2.312628019,48.56255601 2.317022753,48.55291979" />
<polygon id="91377 MASSY" points="2.293929238,48.71212785 2.266836157,48.71827874 2.250559876,48.72620987 2.235462718,48.72756226 2.24099978,48.73293141 2.238024349,48.73556586 2.274517408,48.74072223 2.278410605,48.7345396 2.283447335,48.73412921 2.30210055,48.73940257 2.303837318,48.72949175 2.301738757,48.71967537 2.293929238,48.71212785" />
<polygon id="91378 MAUCHAMPS" points="2.203466691,48.51655285 2.194862275,48.51516342 2.187298703,48.51828763 2.189277035,48.53485415 2.195177413,48.53963519 2.192640119,48.54253272 2.20823037,48.53378539 2.203466691,48.51655285" />
<polygon id="91386 MENNECY" points="2.465176547,48.54147098 2.445614661,48.54656298 2.425165596,48.54447782 2.40278772,48.56319573 2.412753599,48.5652154 2.422234048,48.57322298 2.439394863,48.57706523 2.442308115,48.57719586 2.456355292,48.56387538 2.456770496,48.55781418 2.466471529,48.55666166 2.468750459,48.55375725 2.465176547,48.54147098" />
<polygon id="91390 MEREVILLE" points="2.113716854,48.30724786 2.103783618,48.30683115 2.087542403,48.29450593 2.052708365,48.29547391 2.037179942,48.29736412 2.03056957,48.31069907 2.034811329,48.32433846 2.043787116,48.33305813 2.061831565,48.34351378 2.072970579,48.34021838 2.087447885,48.34356095 2.102947035,48.34328346 2.105052166,48.33060376 2.119967989,48.3278543 2.118765923,48.32389538 2.113716854,48.30724786" />
<polygon id="91393 MEROBERT" points="1.97724412,48.39916529 1.962225669,48.40432525 1.965487745,48.41091281 1.978593912,48.41662271 1.99494391,48.42956536 2.011328827,48.43748551 2.020903019,48.43742094 2.017462878,48.43483734 2.02053716,48.4149791 2.00540429,48.40117732 1.995741981,48.40266141 1.97724412,48.39916529" />
<polygon id="91399 MESPUITS" points="2.276639578,48.34198831 2.254452027,48.34197669 2.253743039,48.36152344 2.258715759,48.37272022 2.267289626,48.37183783 2.308727425,48.3691627 2.302901311,48.35638852 2.284351035,48.34855823 2.285806768,48.34572386 2.27745173,48.34476446 2.276639578,48.34198831" />
<polygon id="91405 MILLY-LA-FORET" points="2.427873893,48.36331992 2.409810589,48.37400982 2.408153672,48.38684927 2.40842328,48.39650431 2.42431122,48.41252488 2.416290576,48.41557157 2.423931908,48.42124087 2.438818828,48.42072745 2.452223509,48.41585991 2.461659524,48.41824225 2.461092694,48.42475327 2.505029302,48.42986586 2.517310538,48.4276853 2.547059834,48.4014244 2.52178381,48.40404218 2.50647961,48.39491071 2.486034562,48.39683014 2.473831971,48.39038886 2.457198739,48.39736741 2.441925703,48.38016639 2.438748033,48.37039863 2.427873893,48.36331992" />
<polygon id="91408 MOIGNY-SUR-ECOLE" points="2.461092694,48.42475327 2.461659524,48.41824225 2.452223509,48.41585991 2.438818828,48.42072745 2.423931908,48.42124087 2.422191386,48.43448449 2.412595452,48.44630387 2.412700368,48.45627252 2.444672047,48.45263888 2.468439836,48.44407508 2.460089535,48.43687614 2.461092694,48.42475327" />
<polygon id="91411 LES MOLIERES" points="2.053903211,48.65917533 2.04083567,48.65797344 2.042071987,48.66386638 2.051973961,48.66298304 2.055361177,48.67242804 2.068271578,48.67733311 2.066511581,48.68689924 2.069763142,48.68893057 2.082078805,48.68545492 2.091167209,48.68311383 2.089099941,48.67389596 2.09710885,48.66629293 2.089052174,48.66182393 2.063153792,48.66200099 2.053903211,48.65917533" />
<polygon id="91412 MONDEVILLE" points="2.436206339,48.48030783 2.415182718,48.48113278 2.397321644,48.48813257 2.398786483,48.49848565 2.406526845,48.50228496 2.416059751,48.50447328 2.425120581,48.5016297 2.437876514,48.49619408 2.440320512,48.48659768 2.449803828,48.48433895 2.448206672,48.48179459 2.436206339,48.48030783" />
<polygon id="91414 MONNERVILLE" points="2.043787116,48.33305813 2.04165788,48.3358662 2.014172236,48.33782703 2.012475461,48.35130043 2.026253414,48.35446468 2.027992315,48.36118215 2.044188706,48.36073807 2.057936763,48.35676331 2.061831565,48.34351378 2.043787116,48.33305813" />
<polygon id="91421 MONTGERON" points="2.493174072,48.68068785 2.467901373,48.67077338 2.464023051,48.67286081 2.454741724,48.68248816 2.435064787,48.71210603 2.442842773,48.72068742 2.45115518,48.7148795 2.465470289,48.71197629 2.475112964,48.7113445 2.473534287,48.69806151 2.482284537,48.68986068 2.493174072,48.68068785" />
<polygon id="91425 MONTLHERY" points="2.281575739,48.62700595 2.26798597,48.6371779 2.252930406,48.63935126 2.248510891,48.64560218 2.257880671,48.65014952 2.273006686,48.65190687 2.281675,48.64350394 2.281575739,48.62700595" />
<polygon id="91432 MORANGIS" points="2.32817015,48.68754498 2.316143347,48.69199204 2.321940274,48.69757494 2.325042594,48.71092274 2.334648392,48.7101132 2.344130877,48.71693867 2.354001956,48.71562534 2.351677731,48.70247151 2.32817015,48.68754498" />
<polygon id="91433 MORIGNY-CHAMPIGNY" points="2.232818621,48.39654178 2.222475238,48.3970862 2.196760391,48.42656889 2.175636296,48.43661746 2.173648673,48.45037774 2.164839424,48.45409472 2.168673274,48.46395503 2.159567939,48.47163704 2.161588476,48.47473716 2.190838517,48.47404042 2.193217668,48.48034519 2.2095146,48.47195305 2.23948271,48.44393534 2.23384159,48.438528 2.245375402,48.43285296 2.24392608,48.41331154 2.235914832,48.39730853 2.232818621,48.39654178" />
<polygon id="91434 MORSANG-SUR-ORGE" points="2.355395497,48.64122701 2.336861538,48.65030937 2.341952353,48.66758113 2.355465432,48.6708122 2.364681254,48.6567395 2.359960559,48.65084944 2.362493724,48.6479576 2.355395497,48.64122701" />
<polygon id="91435 MORSANG-SUR-SEINE" points="2.521771676,48.57322389 2.492806003,48.56739174 2.481413546,48.57359457 2.481253209,48.58020561 2.482368684,48.58256729 2.508874109,48.58402895 2.51122505,48.58635946 2.518277028,48.58325779 2.521771676,48.57322389" />
<polygon id="91441 NAINVILLE-LES-ROCHES" points="2.512085694,48.49540651 2.506988927,48.49620411 2.493408188,48.49107315 2.479129832,48.49514064 2.482956325,48.50104082 2.474123082,48.512571 2.484064203,48.51227272 2.493476011,48.51910518 2.497610445,48.51724257 2.506859128,48.51577898 2.509083198,48.50962593 2.51382274,48.50952846 2.512085694,48.49540651" />
<polygon id="91457 LA NORVILLE" points="2.281645124,48.57251122 2.267843319,48.57558461 2.259186894,48.57323711 2.24159621,48.57853276 2.257901584,48.59124753 2.266824521,48.59220239 2.280903441,48.58309472 2.290435266,48.58106493 2.281645124,48.57251122" />
<polygon id="91458 NOZAY" points="2.248510891,48.64560218 2.238271067,48.64498845 2.226566635,48.65164151 2.221783841,48.66103735 2.208440231,48.66614869 2.214580464,48.67143346 2.228700675,48.66896205 2.235384374,48.67346667 2.245486452,48.67365696 2.264980877,48.67043258 2.250865229,48.66604506 2.257880671,48.65014952 2.248510891,48.64560218" />
<polygon id="91461 OLLAINVILLE" points="2.213635778,48.58251632 2.202598465,48.58881187 2.202005397,48.59569861 2.210105697,48.60802268 2.198579217,48.61930704 2.202972626,48.62838597 2.206233274,48.63081852 2.225495993,48.62858852 2.223949651,48.62213772 2.236369124,48.61253886 2.242900163,48.60369296 2.236085258,48.59852193 2.234895694,48.58896989 2.213635778,48.58251632" />
<polygon id="91463 ONCY-SUR-ECOLE" points="2.429832229,48.36201578 2.427873893,48.36331992 2.438748033,48.37039863 2.441925703,48.38016639 2.457198739,48.39736741 2.473831971,48.39038886 2.482460801,48.38245559 2.44984008,48.37370756 2.450637658,48.36716143 2.441011631,48.36832202 2.429832229,48.36201578" />
<polygon id="91468 ORMOY" points="2.456355292,48.56387538 2.442308115,48.57719586 2.469570037,48.5785529 2.473848918,48.57770832 2.456355292,48.56387538" />
<polygon id="91469 ORMOY-LA-RIVIERE" points="2.203207631,48.39541979 2.196628704,48.39008508 2.186363351,48.38913335 2.165625635,48.38927712 2.136908574,48.39573845 2.127582885,48.39270112 2.133128266,48.40623753 2.155178017,48.41569062 2.179124653,48.40892206 2.203207631,48.39541979" />
<polygon id="91471 ORSAY" points="2.204707084,48.69106715 2.190173243,48.68732637 2.181827593,48.678913 2.174850052,48.69069341 2.165981212,48.69476042 2.175163691,48.69578674 2.170751871,48.70665801 2.171682802,48.71480482 2.193479634,48.71869597 2.192794947,48.71198122 2.20971085,48.70158849 2.204707084,48.69106715" />
<polygon id="91473 ORVEAU" points="2.318955102,48.441728 2.305922192,48.43850365 2.28746336,48.44369331 2.277058233,48.45104363 2.281768614,48.45965498 2.292920353,48.45920912 2.310713507,48.45255734 2.310203702,48.44915366 2.318955102,48.441728" />
<polygon id="91477 PALAISEAU" points="2.259350145,48.70649437 2.245001966,48.70721396 2.234535464,48.70084189 2.20971085,48.70158849 2.192794947,48.71198122 2.193479634,48.71869597 2.203462249,48.72104768 2.212902149,48.72880079 2.220793868,48.72566846 2.235462718,48.72756226 2.250559876,48.72620987 2.266836157,48.71827874 2.259350145,48.70649437" />
<polygon id="91479 PARAY-VIEILLE-POSTE" points="2.353874105,48.70178184 2.351677731,48.70247151 2.354001956,48.71562534 2.344130877,48.71693867 2.349134352,48.72229087 2.345661896,48.73144632 2.353948215,48.73866005 2.36983722,48.74605743 2.370437363,48.72786484 2.370706732,48.72017592 2.36930611,48.70782791 2.355793866,48.70478746 2.353874105,48.70178184" />
<polygon id="91482 PECQUEUSE" points="2.041622378,48.62689118 2.03585833,48.63187323 2.034758954,48.64144463 2.020277135,48.64209105 2.011657818,48.65357914 2.013269018,48.65957448 2.027073717,48.65763701 2.028902045,48.66374182 2.042071987,48.66386638 2.04083567,48.65797344 2.053903211,48.65917533 2.050568908,48.65286101 2.060206515,48.64616382 2.041622378,48.62689118" />
<polygon id="91494 LE PLESSIS-PATE" points="2.338445909,48.59049905 2.326590094,48.59294233 2.328923408,48.59604998 2.318790251,48.61189646 2.328934735,48.6195102 2.330499377,48.62022964 2.349942576,48.62018443 2.35938439,48.61807671 2.362191411,48.60148624 2.361605606,48.59836167 2.339736608,48.59352872 2.338445909,48.59049905" />
<polygon id="91495 PLESSIS-SAINT-BENOIST" points="1.99494391,48.42956536 1.989745052,48.43347095 1.971705942,48.43708579 1.980522588,48.45306865 2.010243996,48.45846644 2.020279298,48.45709219 2.020849901,48.45405594 2.029559325,48.45264297 2.038487965,48.44587796 2.020903019,48.43742094 2.011328827,48.43748551 1.99494391,48.42956536" />
<polygon id="91507 PRUNAY-SUR-ESSONNE" points="2.385364207,48.34774885 2.376371618,48.34460679 2.344952447,48.34559785 2.34533278,48.34865903 2.340933016,48.34969631 2.327292872,48.34919676 2.347791509,48.35937929 2.383011233,48.35848827 2.385364207,48.34774885" />
<polygon id="91508 PUISELET-LE-MARAIS" points="2.267289626,48.37183783 2.258715759,48.37272022 2.251987031,48.38722633 2.247567803,48.3873783 2.251801292,48.39268639 2.235914832,48.39730853 2.24392608,48.41331154 2.283375679,48.41721818 2.288706296,48.41181615 2.288599905,48.40170296 2.273490383,48.39219148 2.267289626,48.37183783" />
<polygon id="91511 PUSSAY" points="1.982344483,48.32831706 1.97061997,48.33999386 1.975622354,48.35688096 1.987355967,48.36381102 1.989986359,48.36675769 2.010068391,48.36444383 2.015931711,48.37004415 2.024726861,48.36981994 2.027992315,48.36118215 2.026253414,48.35446468 2.012475461,48.35130043 2.014172236,48.33782703 1.982344483,48.32831706" />
<polygon id="91514 QUINCY-SOUS-SENART" points="2.533752094,48.65729594 2.518164314,48.66037317 2.504247097,48.67181155 2.518174561,48.67547557 2.521284435,48.68145163 2.529639187,48.67832772 2.543107275,48.68677217 2.541206222,48.68048656 2.547460702,48.67192045 2.533752094,48.65729594" />
<polygon id="91519 RICHARVILLE" points="1.980522588,48.45306865 1.974717738,48.46220456 1.966820988,48.46615773 1.968700596,48.47584573 1.987281814,48.47779601 1.991581327,48.48643351 1.998991816,48.48249264 2.017785107,48.48124606 2.026102217,48.46840418 2.03418288,48.46452057 2.034115251,48.46157805 2.025063157,48.46170199 2.020279298,48.45709219 2.010243996,48.45846644 1.980522588,48.45306865" />
<polygon id="91521 RIS-ORANGIS" points="2.399270549,48.62410454 2.383529496,48.62997898 2.391422956,48.64319752 2.407056816,48.66741902 2.429370469,48.65355872 2.437760993,48.64847142 2.426371064,48.64232746 2.422037169,48.64391664 2.413329248,48.63607529 2.399270549,48.62410454" />
<polygon id="91525 ROINVILLE" points="2.046706708,48.48705067 2.032328287,48.50129303 2.036639675,48.50315437 2.039845093,48.51294155 2.03619589,48.53615873 2.050692871,48.54576644 2.055761723,48.5479389 2.060760181,48.54952583 2.074033627,48.50994714 2.061545741,48.49201802 2.046706708,48.48705067" />
<polygon id="91526 ROINVILLIERS" points="2.246310314,48.32996755 2.231821616,48.32976647 2.214690309,48.33667215 2.207089543,48.34494416 2.226182127,48.34533135 2.234295532,48.34892905 2.235957,48.36093323 2.237076375,48.36381057 2.253743039,48.36152344 2.254452027,48.34197669 2.249981051,48.34129165 2.246310314,48.32996755" />
<polygon id="91533 SACLAS" points="2.119967989,48.3278543 2.105052166,48.33060376 2.102947035,48.34328346 2.087447885,48.34356095 2.072970579,48.34021838 2.096065492,48.35889584 2.109840665,48.36342688 2.108684009,48.37352226 2.095146068,48.38409952 2.099304124,48.38580469 2.108316323,48.38326361 2.125646868,48.38645178 2.125023045,48.38335212 2.143300971,48.38234297 2.147547987,48.37781198 2.127362038,48.37507385 2.131710685,48.36197863 2.119967989,48.3278543" />
<polygon id="91534 SACLAY" points="2.171682802,48.71480482 2.1551015,48.71806162 2.143858239,48.72312651 2.145909728,48.7298603 2.134979897,48.73713928 2.138892811,48.74312204 2.138958105,48.74658544 2.151345551,48.75262854 2.161767486,48.75247729 2.17524948,48.75751815 2.189517467,48.75416195 2.183383666,48.74278703 2.19023783,48.73928985 2.183186252,48.73019318 2.184788033,48.72687609 2.203462249,48.72104768 2.193479634,48.71869597 2.171682802,48.71480482" />
<polygon id="91538 SAINT-AUBIN" points="2.1551015,48.71806162 2.152152846,48.70793948 2.142027347,48.70630197 2.127386015,48.70982073 2.123314003,48.71597937 2.126616074,48.7217333 2.143858239,48.72312651 2.1551015,48.71806162" />
<polygon id="91540 SAINT-CHERON" points="2.122423612,48.52942255 2.107435757,48.54179774 2.098142661,48.54332894 2.09312434,48.55225996 2.101577224,48.55478905 2.117879971,48.56199997 2.120470314,48.56755169 2.129550296,48.57009237 2.138846664,48.5652932 2.14497761,48.55587362 2.155730606,48.5487266 2.155298705,48.53853093 2.139622056,48.53705111 2.122423612,48.52942255" />
<polygon id="91544 SAINT-CYR-LA-RIVIERE" points="2.131374915,48.3234307 2.118765923,48.32389538 2.119967989,48.3278543 2.131710685,48.36197863 2.127362038,48.37507385 2.147547987,48.37781198 2.148449701,48.36883014 2.152642447,48.36757358 2.145898593,48.3629455 2.156030599,48.34828032 2.156171539,48.34706666 2.131374915,48.3234307" />
<polygon id="91546 SAINT-CYR-SOUS-DOURDAN" points="2.050692871,48.54576644 2.026651886,48.54968338 2.01757406,48.55759739 2.02192017,48.57815335 2.035741286,48.58887242 2.04404557,48.58560191 2.046044536,48.57932976 2.054649987,48.57652871 2.055761723,48.5479389 2.050692871,48.54576644" />
<polygon id="91547 SAINT-ESCOBILLE" points="1.930424125,48.4039527 1.929754527,48.41162143 1.925893345,48.41274718 1.939015631,48.42215951 1.937300684,48.43544207 1.942894677,48.44099829 1.956548347,48.43642263 1.971705942,48.43708579 1.989745052,48.43347095 1.99494391,48.42956536 1.978593912,48.41662271 1.965487745,48.41091281 1.962225669,48.40432525 1.948605264,48.40632865 1.930424125,48.4039527" />
<polygon id="91549 SAINTE-GENEVIEVE-DES-BOIS" points="2.349942576,48.62018443 2.330499377,48.62022964 2.329333646,48.63285252 2.312746747,48.6444518 2.29785638,48.64441896 2.298933685,48.65012826 2.309444824,48.65705292 2.318742079,48.66564275 2.324345881,48.65653565 2.336861538,48.65030937 2.355395497,48.64122701 2.349942576,48.62018443" />
<polygon id="91552 SAINT-GERMAIN-LES-ARPAJON" points="2.290435266,48.58106493 2.280903441,48.58309472 2.266824521,48.59220239 2.257901584,48.59124753 2.253437433,48.59049097 2.242900163,48.60369296 2.236369124,48.61253886 2.257737304,48.61336662 2.256278551,48.6071866 2.26452796,48.60413438 2.268120878,48.60618052 2.288159458,48.59489564 2.290435266,48.58106493" />
<polygon id="91553 SAINT-GERMAIN-LES-CORBEIL" points="2.485775647,48.61531629 2.471024323,48.62518243 2.491619382,48.63941248 2.496636596,48.63142813 2.505222717,48.63185089 2.510680135,48.62292325 2.50840031,48.62007137 2.485775647,48.61531629" />
<polygon id="91556 SAINT-HILAIRE" points="2.106493061,48.42777677 2.07589326,48.43204088 2.063366859,48.44306293 2.078499451,48.45765737 2.104143648,48.44664362 2.109190621,48.43691098 2.104532013,48.4310009 2.106493061,48.42777677" />
<polygon id="91560 SAINT-JEAN-DE-BEAUREGARD" points="2.17710809,48.65599679 2.155439057,48.65933537 2.155421257,48.66632455 2.164094991,48.67506603 2.168969352,48.6760266 2.191269659,48.66826424 2.17710809,48.65599679" />
<polygon id="91568 SAINT-MAURICE-MONTCOURONNE" points="2.101577224,48.55478905 2.106869478,48.5814031 2.105281844,48.58465668 2.095734456,48.58712136 2.092980255,48.59347847 2.102733239,48.59412812 2.109709579,48.58979953 2.118745014,48.5919628 2.128843696,48.59302668 2.146352572,48.58710836 2.14751863,48.58377927 2.153442619,48.57713764 2.13553319,48.57471492 2.129550296,48.57009237 2.120470314,48.56755169 2.117879971,48.56199997 2.101577224,48.55478905" />
<polygon id="91570 SAINT-MICHEL-SUR-ORGE" points="2.328934735,48.6195102 2.292714326,48.62615509 2.29785638,48.64441896 2.312746747,48.6444518 2.329333646,48.63285252 2.330499377,48.62022964 2.328934735,48.6195102" />
<polygon id="91573 SAINT-PIERRE-DU-PERRAY" points="2.518277028,48.58325779 2.51122505,48.58635946 2.508874109,48.58402895 2.504735654,48.5858019 2.499562379,48.60503043 2.490357142,48.60735716 2.485775647,48.61531629 2.50840031,48.62007137 2.510680135,48.62292325 2.505222717,48.63185089 2.521412146,48.63188105 2.517495729,48.62981436 2.526205707,48.61504324 2.542512561,48.60880133 2.541450338,48.59688743 2.518277028,48.58325779" />
<polygon id="91577 SAINTRY-SUR-SEINE" points="2.482368684,48.58256729 2.490357142,48.60735716 2.499562379,48.60503043 2.504735654,48.5858019 2.508874109,48.58402895 2.482368684,48.58256729" />
<polygon id="91578 SAINT-SULPICE-DE-FAVIERES" points="2.182278366,48.51805527 2.175366175,48.52015762 2.174402116,48.53666797 2.171420364,48.53933707 2.157386082,48.5367735 2.173517459,48.55154136 2.188209487,48.54693762 2.192640119,48.54253272 2.195177413,48.53963519 2.189277035,48.53485415 2.187298703,48.51828763 2.182278366,48.51805527" />
<polygon id="91579 SAINT-VRAIN" points="2.324144816,48.51865877 2.299159973,48.5237768 2.295340735,48.52983557 2.303967509,48.54114041 2.294405489,48.5429732 2.299547238,48.55156773 2.306624644,48.54714723 2.317022753,48.55291979 2.339449315,48.55501655 2.342756038,48.55283089 2.357098994,48.53681563 2.341510763,48.53762092 2.338447633,48.52164497 2.324144816,48.51865877" />
<polygon id="91581 SAINT-YON" points="2.188209487,48.54693762 2.173517459,48.55154136 2.181465764,48.56405577 2.198514645,48.57566858 2.211118362,48.56961765 2.205041256,48.56008651 2.188209487,48.54693762" />
<polygon id="91587 SAULX-LES-CHARTREUX" points="2.264980877,48.67043258 2.245486452,48.67365696 2.241772918,48.68529094 2.265725234,48.69770087 2.268193302,48.70387749 2.284892043,48.69912157 2.286128615,48.68618536 2.277011555,48.67057811 2.264980877,48.67043258" />
<polygon id="91589 SAVIGNY-SUR-ORGE" points="2.338125432,48.66737105 2.335290941,48.67776246 2.326417403,48.68650968 2.32817015,48.68754498 2.351677731,48.70247151 2.353874105,48.70178184 2.359690486,48.69953753 2.355856813,48.69747508 2.357918054,48.69449094 2.371882279,48.68571441 2.355465432,48.6708122 2.341952353,48.66758113 2.338125432,48.66737105" />
<polygon id="91593 SERMAISE" points="2.107124543,48.50915679 2.093148563,48.51326129 2.074033627,48.50994714 2.060760181,48.54952583 2.09312434,48.55225996 2.098142661,48.54332894 2.107435757,48.54179774 2.122423612,48.52942255 2.111431141,48.5234843 2.107124543,48.50915679" />
<polygon id="91599 SOISY-SUR-ECOLE" points="2.499641403,48.45905485 2.484617826,48.4614286 2.460309448,48.47469816 2.445053291,48.47543752 2.436524088,48.47717862 2.436206339,48.48030783 2.448206672,48.48179459 2.449803828,48.48433895 2.469322442,48.48386999 2.469611585,48.49677181 2.479129832,48.49514064 2.493408188,48.49107315 2.506988927,48.49620411 2.512085694,48.49540651 2.510363979,48.4884454 2.502459602,48.48424732 2.50593822,48.46115938 2.499641403,48.45905485" />
<polygon id="91600 SOISY-SUR-SEINE" points="2.452264073,48.63761893 2.437760993,48.64847142 2.429370469,48.65355872 2.464023051,48.67286081 2.467901373,48.67077338 2.493174072,48.68068785 2.498251929,48.67667966 2.504247097,48.67181155 2.469822588,48.66211086 2.465971104,48.64834033 2.452264073,48.63761893" />
<polygon id="91602 SOUZY-LA-BRICHE" points="2.150175495,48.50942748 2.143693521,48.52166095 2.122423612,48.52942255 2.139622056,48.53705111 2.155298705,48.53853093 2.157386082,48.5367735 2.171420364,48.53933707 2.174402116,48.53666797 2.175366175,48.52015762 2.150175495,48.50942748" />
<polygon id="91613 CONGERVILLE-THIONVILLE" points="1.987355967,48.36381102 1.977024761,48.37918908 1.966722253,48.38042235 1.97724412,48.39916529 1.995741981,48.40266141 2.00540429,48.40117732 2.001713279,48.39560394 1.994794241,48.38367789 2.000443871,48.37851614 2.013989435,48.37640723 2.015931711,48.37004415 2.010068391,48.36444383 1.989986359,48.36675769 1.987355967,48.36381102" />
<polygon id="91617 TIGERY" points="2.505222717,48.63185089 2.496636596,48.63142813 2.491619382,48.63941248 2.49048861,48.64263688 2.509392945,48.657477 2.518164314,48.66037317 2.533752094,48.65729594 2.547965472,48.64966002 2.542448923,48.64402609 2.540665352,48.63381883 2.521412146,48.63188105 2.505222717,48.63185089" />
<polygon id="91619 TORFOU" points="2.235403342,48.52167452 2.233558858,48.52464038 2.219407835,48.52543891 2.220357114,48.53173345 2.224792515,48.54047967 2.23403801,48.5400538 2.248702968,48.53862703 2.248825676,48.53195272 2.249192841,48.52901331 2.235403342,48.52167452" />
<polygon id="91629 VALPUISEAUX" points="2.308727425,48.3691627 2.267289626,48.37183783 2.273490383,48.39219148 2.288599905,48.40170296 2.288706296,48.41181615 2.308348476,48.41647574 2.324836823,48.42491077 2.327735891,48.41279054 2.332340006,48.41206081 2.331327972,48.40769163 2.325334411,48.40194465 2.330483808,48.39227511 2.327215707,48.37846416 2.321748133,48.37306172 2.308727425,48.3691627" />
<polygon id="91630 LE VAL-SAINT-GERMAIN" points="2.055761723,48.5479389 2.054649987,48.57652871 2.073675254,48.57702019 2.08417912,48.58416331 2.087153991,48.59396468 2.092980255,48.59347847 2.095734456,48.58712136 2.105281844,48.58465668 2.106869478,48.5814031 2.101577224,48.55478905 2.09312434,48.55225996 2.060760181,48.54952583 2.055761723,48.5479389" />
<polygon id="91631 VARENNES-JARCY" points="2.584074004,48.67715384 2.574668781,48.67625716 2.565205112,48.66936 2.55695921,48.67288259 2.547460702,48.67192045 2.541206222,48.68048656 2.543107275,48.68677217 2.548997229,48.68902527 2.571660245,48.69202309 2.580375775,48.6894816 2.584074004,48.67715384" />
<polygon id="91634 VAUGRIGNEUSE" points="2.118745014,48.5919628 2.109709579,48.58979953 2.102733239,48.59412812 2.092980255,48.59347847 2.087153991,48.59396468 2.07791022,48.59906604 2.100268927,48.61363929 2.103074032,48.61065589 2.118952827,48.6102437 2.130086863,48.60309302 2.130707682,48.60001202 2.122410177,48.59740535 2.118745014,48.5919628" />
<polygon id="91635 VAUHALLAN" points="2.203462249,48.72104768 2.184788033,48.72687609 2.183186252,48.73019318 2.19023783,48.73928985 2.204036107,48.73691812 2.213690539,48.73784559 2.212902149,48.72880079 2.203462249,48.72104768" />
<polygon id="91639 VAYRES-SUR-ESSONNE" points="2.332340006,48.41206081 2.327735891,48.41279054 2.324836823,48.42491077 2.328621285,48.43340717 2.330457473,48.43996713 2.347352809,48.44590906 2.353154601,48.45135676 2.361042048,48.45112059 2.36247914,48.44860028 2.361591412,48.43930202 2.373362427,48.43411971 2.360523565,48.42816738 2.350084516,48.41638787 2.339852555,48.41646632 2.332340006,48.41206081" />
<polygon id="91645 VERRIERES-LE-BUISSON" points="2.238024349,48.73556586 2.226414985,48.75003537 2.224502566,48.75882853 2.232859032,48.76598807 2.250043759,48.76121327 2.269288615,48.76064 2.276145973,48.75666127 2.283691113,48.74808113 2.274517408,48.74072223 2.238024349,48.73556586" />
<polygon id="91648 VERT-LE-GRAND" points="2.347631266,48.55741861 2.336501928,48.57482682 2.338445909,48.59049905 2.339736608,48.59352872 2.361605606,48.59836167 2.362191411,48.60148624 2.371609215,48.59992613 2.374794543,48.60235369 2.389124307,48.60290484 2.394039789,48.60828223 2.398570077,48.6071268 2.405649371,48.59528837 2.393595164,48.58928154 2.384278289,48.57901472 2.383194196,48.56630723 2.376020394,48.5620778 2.366993519,48.564387 2.353408437,48.56256876 2.347631266,48.55741861" />
<polygon id="91649 VERT-LE-PETIT" points="2.372243073,48.53686056 2.360009501,48.53475326 2.357098994,48.53681563 2.342756038,48.55283089 2.347631266,48.55741861 2.353408437,48.56256876 2.366993519,48.564387 2.376020394,48.5620778 2.383194196,48.56630723 2.387351492,48.56546512 2.390374937,48.55722256 2.374443939,48.54540928 2.372243073,48.53686056" />
<polygon id="91654 VIDELLES" points="2.444672047,48.45263888 2.412700368,48.45627252 2.407660085,48.46065574 2.399871546,48.4604187 2.403837376,48.46972299 2.385747755,48.4733283 2.391371982,48.48068928 2.400834819,48.47794854 2.415182718,48.48113278 2.436206339,48.48030783 2.436524088,48.47717862 2.445053291,48.47543752 2.441995943,48.46902679 2.444672047,48.45263888" />
<polygon id="91657 VIGNEUX-SUR-SEINE" points="2.454741724,48.68248816 2.445892861,48.67919125 2.427233226,48.69500584 2.417524999,48.69441914 2.40057926,48.70177382 2.404620045,48.71088764 2.41426011,48.71781621 2.435125456,48.72409604 2.440127548,48.7254328 2.442842773,48.72068742 2.435064787,48.71210603 2.454741724,48.68248816" />
<polygon id="91659 VILLABE" points="2.439394863,48.57706523 2.433797739,48.58945259 2.450467092,48.59548572 2.464395528,48.59405596 2.469570037,48.5785529 2.442308115,48.57719586 2.439394863,48.57706523" />
<polygon id="91661 VILLEBON-SUR-YVETTE" points="2.241772918,48.68529094 2.235521645,48.69009031 2.223873285,48.68494191 2.204728917,48.68516658 2.204707084,48.69106715 2.20971085,48.70158849 2.234535464,48.70084189 2.245001966,48.70721396 2.259350145,48.70649437 2.268193302,48.70387749 2.265725234,48.69770087 2.241772918,48.68529094" />
<polygon id="91662 VILLECONIN" points="2.120912786,48.46764153 2.118104772,48.47050864 2.122761804,48.4800526 2.12119727,48.49025215 2.102973022,48.49618859 2.107124543,48.50915679 2.111431141,48.5234843 2.122423612,48.52942255 2.143693521,48.52166095 2.150175495,48.50942748 2.151481459,48.50151099 2.138377039,48.48750811 2.148651499,48.48069083 2.138754393,48.47853227 2.130156439,48.46987781 2.120912786,48.46764153" />
<polygon id="91665 LA VILLE-DU-BOIS" points="2.257880671,48.65014952 2.250865229,48.66604506 2.264980877,48.67043258 2.277011555,48.67057811 2.276122659,48.66022837 2.273006686,48.65190687 2.257880671,48.65014952" />
<polygon id="91666 VILLEJUST" points="2.208440231,48.66614869 2.195456459,48.66888625 2.208911635,48.67717983 2.204728917,48.68516658 2.223873285,48.68494191 2.235521645,48.69009031 2.241772918,48.68529094 2.245486452,48.67365696 2.235384374,48.67346667 2.228700675,48.66896205 2.214580464,48.67143346 2.208440231,48.66614869" />
<polygon id="91667 VILLEMOISSON-SUR-ORGE" points="2.336861538,48.65030937 2.324345881,48.65653565 2.318742079,48.66564275 2.325107074,48.66909706 2.338125432,48.66737105 2.341952353,48.66758113 2.336861538,48.65030937" />
<polygon id="91671 VILLENEUVE-SUR-AUVERS" points="2.248528558,48.44965188 2.250214898,48.45278439 2.243071262,48.46141181 2.230759094,48.46713547 2.237766494,48.47927199 2.247400195,48.47743518 2.264778532,48.4819433 2.27059539,48.47916328 2.272935629,48.47432854 2.266135009,48.47009433 2.275053971,48.46299688 2.267301997,48.45917973 2.261527872,48.45040822 2.248528558,48.44965188" />
<polygon id="91679 VILLIERS-LE-BACLE" points="2.110332693,48.71438114 2.107693289,48.71770753 2.110490456,48.72427667 2.100445615,48.73600255 2.104654424,48.73797705 2.117747165,48.74136659 2.134979897,48.73713928 2.145909728,48.7298603 2.143858239,48.72312651 2.126616074,48.7217333 2.123314003,48.71597937 2.110332693,48.71438114" />
<polygon id="91685 VILLIERS-SUR-ORGE" points="2.298933685,48.65012826 2.291425498,48.65219771 2.291325368,48.65758521 2.300071591,48.66959135 2.309444824,48.65705292 2.298933685,48.65012826" />
<polygon id="91687 VIRY-CHATILLON" points="2.36577287,48.64621205 2.362493724,48.6479576 2.359960559,48.65084944 2.364681254,48.6567395 2.355465432,48.6708122 2.371882279,48.68571441 2.385900735,48.68348474 2.396339541,48.67353575 2.378054058,48.66137052 2.36577287,48.64621205" />
<polygon id="91689 WISSOUS" points="2.344130877,48.71693867 2.334648392,48.7101132 2.325042594,48.71092274 2.324102231,48.72057767 2.301738757,48.71967537 2.303837318,48.72949175 2.313477126,48.730519 2.320718018,48.74875624 2.323849274,48.75062685 2.330750484,48.74810233 2.340442439,48.7410057 2.353948215,48.73866005 2.345661896,48.73144632 2.349134352,48.72229087 2.344130877,48.71693867" />
<polygon id="91691 YERRES" points="2.482284537,48.68986068 2.473534287,48.69806151 2.475112964,48.7113445 2.465470289,48.71197629 2.474537395,48.71857357 2.475384701,48.72759874 2.484547064,48.72907777 2.510054892,48.73466278 2.52135526,48.71229451 2.506110731,48.71031655 2.489217006,48.70198839 2.489093766,48.69513395 2.482284537,48.68986068" />
<polygon id="91692 LES ULIS" points="2.191269659,48.66826424 2.168969352,48.6760266 2.164094991,48.67506603 2.161288985,48.67556804 2.165981212,48.69476042 2.174850052,48.69069341 2.181827593,48.678913 2.190173243,48.68732637 2.204707084,48.69106715 2.204728917,48.68516658 2.208911635,48.67717983 2.195456459,48.66888625 2.191269659,48.66826424" />

</g>

</g>

</svg>
