<?xml version="1.0" standalone="no"?>
<!DOCTYPE svg PUBLIC "-//W3C//DTD SVG 1.1//EN" 
  "http://www.w3.org/Graphics/SVG/1.1/DTD/svg11.dtd">
<svg width="1000" height="1253" viewBox="1.447279505 48.44001031 0.779914606 0.644275"  preserveAspectRatio="none"
     xmlns="http://www.w3.org/2000/svg" version="1.1">

<style type="text/css" >
<![CDATA[

.communes { 
	fill           : #b9b9b9;
	fill-opacity   : 1;
	stroke         : white;
	stroke-opacity : 1;
	stroke-width   : 0.002;
}

]]>
</style>

<g transform="translate(0,49.08428531) scale(1,-1) translate(0,-48.44001031)">

<g class="communes">

<polygon id="78003 ABLIS" points="1.842812985,48.49514486 1.829610196,48.49657199 1.812602447,48.50937676 1.811795395,48.51631426 1.818908942,48.52936749 1.828516671,48.53221554 1.832589596,48.56344667 1.840521462,48.55903502 1.850072195,48.56169172 1.85475351,48.56020749 1.872429327,48.54812321 1.876143874,48.54171687 1.894087833,48.53501177 1.892486712,48.53192904 1.900924626,48.52875059 1.898958323,48.52240777 1.884634339,48.52026797 1.88257268,48.51405888 1.867659843,48.5142416 1.863077499,48.50824199 1.83935364,48.50160687 1.842812985,48.49514486" />
<polygon id="78005 ACHERES" points="2.070157211,48.9463099 2.049002093,48.95709751 2.048854207,48.9592097 2.054221235,48.96897355 2.074400928,48.98480549 2.089784164,48.98802569 2.127452768,48.98905194 2.15264335,48.98610305 2.166353805,48.98147796 2.175023435,48.97324663 2.17815528,48.96351097 2.172905176,48.96386156 2.166086586,48.97684487 2.143263034,48.98570371 2.122047961,48.9870611 2.108124305,48.98229118 2.08706638,48.98405722 2.088198795,48.97714139 2.086659564,48.97377536 2.075634134,48.96617284 2.075675644,48.95231498 2.070157211,48.9463099" />
<polygon id="78006 ADAINVILLE" points="1.695734434,48.71311501 1.685530269,48.71294006 1.668786224,48.70589073 1.649030399,48.70932988 1.633281416,48.71382826 1.631053617,48.72051349 1.639954022,48.72852238 1.638670847,48.7318451 1.653141174,48.7349418 1.686117426,48.7268896 1.694585651,48.72318644 1.695734434,48.71311501" />
<polygon id="78007 AIGREMONT" points="1.998373859,48.89140232 1.995659511,48.89423956 2.001322658,48.89979101 2.014347784,48.90495328 2.022166134,48.91360612 2.027028641,48.91261147 2.026951436,48.89557715 2.02254073,48.89366157 2.012652512,48.89579287 1.998373859,48.89140232" />
<polygon id="78009 ALLAINVILLE" points="1.884120678,48.44001031 1.879441516,48.44066801 1.88256838,48.4646749 1.872555198,48.47674423 1.885395069,48.48064416 1.892002914,48.48943299 1.900958468,48.49223324 1.906844573,48.48712336 1.916037644,48.49351439 1.934278601,48.49577568 1.933108439,48.48142425 1.923263082,48.47913116 1.916825761,48.47369246 1.916539441,48.46330733 1.922148965,48.45760029 1.919885731,48.44794383 1.910190918,48.44589383 1.904506726,48.44026324 1.884120678,48.44001031" />
<polygon id="78010 LES ALLUETS-LE-ROI" points="1.93409451,48.9046347 1.927411768,48.8992328 1.911970052,48.90118005 1.903511479,48.90509611 1.893883069,48.91713101 1.883579452,48.91717034 1.901141392,48.92947398 1.917692243,48.92449832 1.936385727,48.91935956 1.942011279,48.91383338 1.931973587,48.90760169 1.93409451,48.9046347" />
<polygon id="78013 ANDELU" points="1.823215343,48.87645291 1.809924587,48.8858282 1.789082514,48.88596099 1.783104315,48.89141371 1.805658168,48.89880895 1.835524196,48.88517153 1.832123741,48.87868972 1.823215343,48.87645291" />
<polygon id="78015 ANDRESY" points="2.048854207,48.9592097 2.045555519,48.96184542 2.035319459,48.96146674 2.044321964,48.982888 2.027031832,48.98907096 2.024722631,48.99561693 2.039921366,48.99626108 2.051868131,48.99164389 2.071883805,48.99339209 2.074400928,48.98480549 2.054221235,48.96897355 2.048854207,48.9592097" />
<polygon id="78020 ARNOUVILLE-LES-MANTES" points="1.722083822,48.88960877 1.717310246,48.89070898 1.696811486,48.89936482 1.697387259,48.90742976 1.702290093,48.91216884 1.708153111,48.91784443 1.709403633,48.92794903 1.724227143,48.93238881 1.729498971,48.93115871 1.737597544,48.918617 1.749242614,48.91219162 1.748978834,48.91124451 1.727370012,48.89877607 1.722083822,48.88960877" />
<polygon id="78029 AUBERGENVILLE" points="1.852237514,48.93434872 1.849714323,48.93548469 1.834715378,48.95239141 1.839907316,48.96144411 1.836578224,48.97777058 1.817612632,48.97548071 1.828338802,48.98145852 1.854982163,48.98764225 1.864291998,48.95306196 1.869923799,48.94714359 1.856788747,48.94341268 1.852237514,48.93434872" />
<polygon id="78030 AUFFARGIS" points="1.909021994,48.65778426 1.898528652,48.65829945 1.89224827,48.66376455 1.894192377,48.67714999 1.890227083,48.68349994 1.870337986,48.68603881 1.862502903,48.70209312 1.869116264,48.7073463 1.914044603,48.70101729 1.937892292,48.68773906 1.935192187,48.68556509 1.924810984,48.66980188 1.929866016,48.66369442 1.928792754,48.66040141 1.909021994,48.65778426" />
<polygon id="78031 AUFFREVILLE-BRASSEUIL" points="1.698418443,48.94366826 1.694269552,48.94577263 1.694827621,48.95237107 1.699335971,48.95775328 1.702412125,48.96364143 1.71922565,48.96143891 1.710223589,48.94938093 1.698418443,48.94366826" />
<polygon id="78033 AULNAY-SUR-MAULDRE" points="1.853884048,48.92591054 1.840528357,48.92195975 1.830585688,48.92349997 1.828971571,48.92669493 1.827724091,48.9299654 1.837116497,48.93783634 1.84194547,48.9337101 1.849714323,48.93548469 1.852237514,48.93434872 1.853884048,48.92591054" />
<polygon id="78034 AUTEUIL" points="1.832720479,48.83381451 1.826069228,48.82969294 1.806116395,48.83005307 1.79923243,48.83141427 1.810673913,48.84287052 1.812690122,48.85306309 1.824846561,48.8506917 1.833918032,48.84362103 1.832720479,48.83381451" />
<polygon id="78036 AUTOUILLET" points="1.785211746,48.83031926 1.77804003,48.83230593 1.791696955,48.85439994 1.805999684,48.86012894 1.812690122,48.85306309 1.810673913,48.84287052 1.79923243,48.83141427 1.785211746,48.83031926" />
<polygon id="78043 BAILLY" points="2.083174638,48.81895285 2.070680908,48.82301168 2.059396428,48.8293992 2.071589706,48.83928895 2.069626391,48.85462631 2.070853017,48.85462684 2.081046982,48.85312265 2.092697912,48.84617837 2.102663857,48.84274592 2.08912012,48.82633746 2.083174638,48.81895285" />
<polygon id="78048 BAZAINVILLE" points="1.640756886,48.79224529 1.628816148,48.80368548 1.651272574,48.81203641 1.656204439,48.82148256 1.672430445,48.82672785 1.677094539,48.83189752 1.678276559,48.82181853 1.700316684,48.80814523 1.704489067,48.80190314 1.703062076,48.79960296 1.640756886,48.79224529" />
<polygon id="78049 BAZEMONT" points="1.883579452,48.91717034 1.878231876,48.91899106 1.871899971,48.92339243 1.853884048,48.92591054 1.852237514,48.93434872 1.856788747,48.94341268 1.869923799,48.94714359 1.871713506,48.94143164 1.88479865,48.94051087 1.893751481,48.93294942 1.901141392,48.92947398 1.883579452,48.91717034" />
<polygon id="78050 BAZOCHES-SUR-GUYONNE" points="1.858964194,48.75960125 1.848403461,48.76653391 1.839049995,48.76433855 1.8252923,48.76804486 1.834318253,48.77576993 1.83603796,48.78103966 1.856047377,48.78095409 1.871169124,48.79917719 1.872623707,48.79865124 1.866002617,48.78569027 1.870019835,48.77932409 1.863228557,48.77057069 1.869040323,48.76548981 1.867333741,48.76011268 1.858964194,48.75960125" />
<polygon id="78053 BEHOUST" points="1.713343374,48.81555392 1.710372284,48.83215306 1.718919507,48.84858797 1.732908327,48.84610158 1.740031488,48.83782095 1.73322174,48.82087518 1.713343374,48.81555392" />
<polygon id="78057 BENNECOURT" points="1.56189143,49.03513779 1.546451632,49.03650772 1.531748383,49.04662608 1.533165303,49.04780351 1.543310858,49.04021983 1.548020032,49.04156289 1.580968317,49.06229893 1.595250536,49.06046134 1.59928174,49.05459105 1.582984035,49.04261002 1.56189143,49.03513779" />
<polygon id="78062 BEYNES" points="1.874862143,48.83437128 1.865603069,48.83161251 1.851510558,48.83433821 1.846622179,48.82866969 1.841537491,48.82881842 1.839218875,48.83016308 1.841905889,48.84350974 1.84727164,48.84920096 1.837521034,48.85681466 1.83839847,48.87125875 1.857293982,48.8719443 1.874663272,48.87702857 1.88310262,48.87453534 1.912716945,48.86084936 1.9030441,48.84635253 1.893278662,48.84737786 1.888578764,48.84665973 1.882091589,48.83460997 1.874862143,48.83437128" />
<polygon id="78068 BLARU" points="1.471841866,49.01862874 1.457762316,49.02630004 1.456220761,49.03628996 1.448152297,49.04491856 1.451270805,49.05136206 1.447279505,49.0535139 1.461451911,49.063319 1.476459987,49.05370767 1.486533447,49.05173959 1.503301261,49.05909924 1.503031084,49.04949117 1.5188533,49.04113477 1.523082481,49.03288606 1.508336869,49.03292862 1.502993665,49.02754704 1.49344822,49.0261146 1.484952634,49.02668221 1.471841866,49.01862874" />
<polygon id="78070 BOINVILLE-EN-MANTOIS" points="1.749242614,48.91219162 1.737597544,48.918617 1.729498971,48.93115871 1.757435055,48.93882645 1.763601016,48.94419645 1.768613949,48.94237738 1.763394546,48.93680156 1.767330229,48.93087031 1.753093554,48.92174724 1.749242614,48.91219162" />
<polygon id="78071 BOINVILLE-LE-GAILLARD" points="1.872555198,48.47674423 1.865471369,48.48081538 1.850012014,48.47919118 1.842812985,48.49514486 1.83935364,48.50160687 1.863077499,48.50824199 1.867659843,48.5142416 1.88257268,48.51405888 1.891497052,48.51146144 1.893040314,48.50506114 1.897868842,48.5046472 1.900958468,48.49223324 1.892002914,48.48943299 1.885395069,48.48064416 1.872555198,48.47674423" />
<polygon id="78072 BOINVILLIERS" points="1.662852731,48.90376635 1.658361934,48.90755661 1.655146349,48.91266516 1.645334772,48.92159361 1.657791059,48.92651859 1.660186184,48.93262528 1.67383636,48.93318184 1.67644467,48.92294865 1.666605005,48.91227161 1.667183098,48.90621604 1.662852731,48.90376635" />
<polygon id="78073 BOIS-D'ARCY" points="2.050125421,48.79841285 2.030089508,48.79668691 1.994400509,48.79911726 1.996440552,48.81196934 2.000393008,48.81393622 2.024795939,48.81185322 2.048458423,48.80322054 2.050125421,48.79841285" />
<polygon id="78076 BOISSETS" points="1.586621428,48.84320338 1.577268588,48.84436077 1.582962132,48.85749765 1.572071758,48.86392528 1.577495074,48.86951254 1.595922492,48.87227559 1.599849789,48.86668204 1.595613104,48.85138653 1.598649934,48.8489486 1.586621428,48.84320338" />
<polygon id="78077 LA BOISSIERE-ECOLE" points="1.67110245,48.67039211 1.667856606,48.67304567 1.658560654,48.67007172 1.644430591,48.67391509 1.63134239,48.66849388 1.626272558,48.66915525 1.615831524,48.67671708 1.606204184,48.6791238 1.611295049,48.68845803 1.620325831,48.68657476 1.628929657,48.68903092 1.62600482,48.69485357 1.640602799,48.69732377 1.649030399,48.70932988 1.668786224,48.70589073 1.685530269,48.71294006 1.695734434,48.71311501 1.709667521,48.71256486 1.706388192,48.70995662 1.717002305,48.69839495 1.72625975,48.69548063 1.706534365,48.68593078 1.691443662,48.6722184 1.67110245,48.67039211" />
<polygon id="78082 BOISSY-MAUVOISIN" points="1.578977082,48.95162043 1.572177856,48.95305961 1.563148166,48.95662123 1.561275844,48.96308334 1.579152654,48.97568087 1.599464351,48.97684612 1.603911816,48.97505427 1.602208873,48.9682712 1.58146033,48.95820635 1.578977082,48.95162043" />
<polygon id="78084 BOISSY-SANS-AVOIR" points="1.791087781,48.80957439 1.781204885,48.8163999 1.78467252,48.81838703 1.785211746,48.83031926 1.79923243,48.83141427 1.806116395,48.83005307 1.813816227,48.82155796 1.811187806,48.81496584 1.804689182,48.81030481 1.803516202,48.81335124 1.798751647,48.81325849 1.791087781,48.80957439" />
<polygon id="78087 BONNELLES" points="2.033046952,48.59819732 2.0188572,48.60126575 2.009650895,48.59894055 2.004067711,48.60225844 2.015107285,48.61314528 2.01098773,48.62295251 2.020277135,48.64209105 2.034758954,48.64144463 2.03585833,48.63187323 2.041622378,48.62689118 2.042622551,48.62636848 2.057564352,48.61724909 2.054815015,48.60796168 2.035012975,48.60485221 2.033046952,48.59819732" />
<polygon id="78089 BONNIERES-SUR-SEINE" points="1.547395665,48.9910394 1.546059981,48.99188661 1.545971291,48.99261402 1.559418632,49.00595174 1.555297918,49.01501256 1.559905139,49.03130085 1.56189143,49.03513779 1.582984035,49.04261002 1.589093916,49.03725911 1.587658021,49.02417512 1.584356937,49.01634805 1.574855025,49.00485897 1.547395665,48.9910394" />
<polygon id="78090 BOUAFLE" points="1.893751481,48.93294942 1.88479865,48.94051087 1.885978002,48.97341025 1.889532844,48.97582639 1.89733232,48.97974739 1.915877441,48.97032981 1.909767023,48.95425754 1.900104918,48.95202888 1.895219183,48.94611132 1.893751481,48.93294942" />
<polygon id="78092 BOUGIVAL" points="2.122449918,48.8507803 2.131714613,48.86237789 2.12435642,48.87438478 2.131966627,48.87097767 2.150387185,48.87086701 2.153764153,48.86440652 2.144469037,48.86181321 2.139863842,48.85590729 2.122449918,48.8507803" />
<polygon id="78096 BOURDONNE" points="1.622704865,48.74015371 1.624960005,48.74903124 1.621476657,48.76452609 1.614959063,48.77221362 1.619741651,48.7714774 1.629702587,48.76320849 1.682456123,48.76315446 1.692709643,48.76120724 1.69502042,48.75803022 1.675093054,48.74340029 1.635667428,48.74426956 1.622704865,48.74015371" />
<polygon id="78104 BREUIL-BOIS-ROBERT" points="1.709403633,48.92794903 1.702820802,48.93631413 1.702883115,48.94257445 1.698418443,48.94366826 1.710223589,48.94938093 1.71922565,48.96143891 1.723572117,48.96297818 1.726120846,48.95037833 1.720244639,48.94168184 1.724227143,48.93238881 1.709403633,48.92794903" />
<polygon id="78107 BREVAL" points="1.572177856,48.95305961 1.562274123,48.94526042 1.53457874,48.9381435 1.516572583,48.94383111 1.50179679,48.94105702 1.50152382,48.94105361 1.51099582,48.95357447 1.523092237,48.96138694 1.528356055,48.96988791 1.535812537,48.96512251 1.550131888,48.96448706 1.565940138,48.9777001 1.575900904,48.97817852 1.579152654,48.97568087 1.561275844,48.96308334 1.563148166,48.95662123 1.572177856,48.95305961" />
<polygon id="78108 LES BREVIAIRES" points="1.803454689,48.684262 1.797712824,48.6970499 1.786222281,48.707926 1.782376839,48.71371585 1.790764031,48.72251765 1.794976194,48.73617909 1.809060106,48.74652093 1.821116845,48.74024507 1.853274633,48.7498142 1.853383382,48.73309341 1.837866544,48.72093474 1.824967967,48.70206211 1.814235843,48.69469657 1.812593385,48.68804153 1.803454689,48.684262" />
<polygon id="78113 BRUEIL-EN-VEXIN" points="1.820380621,49.011831 1.799137585,49.01707007 1.791178792,49.02006576 1.785234167,49.03103101 1.799614896,49.03131952 1.812421156,49.04065541 1.821814506,49.0438414 1.830872822,49.03583652 1.831662682,49.0201878 1.830198857,49.01354581 1.820380621,49.011831" />
<polygon id="78117 BUC" points="2.123282122,48.75352314 2.106444271,48.75735595 2.101493757,48.7564913 2.105472175,48.78074332 2.125014464,48.78083407 2.142014644,48.79233515 2.146395118,48.79084649 2.145853095,48.77074026 2.140552657,48.77117895 2.133318347,48.76597286 2.123282122,48.75352314" />
<polygon id="78118 BUCHELAY" points="1.663794537,48.96964773 1.654335039,48.98203397 1.664047705,48.9948772 1.702551852,48.98923824 1.686219937,48.97849327 1.665963893,48.97028345 1.663794537,48.96964773" />
<polygon id="78120 BULLION" points="1.955721047,48.5950432 1.932558902,48.60094605 1.931527979,48.61092233 1.941800483,48.6188315 1.966184953,48.62420027 1.977788852,48.63104724 1.980230964,48.64780008 1.987815696,48.65642851 1.993038808,48.65806495 2.011657818,48.65357914 2.020277135,48.64209105 2.01098773,48.62295251 2.015107285,48.61314528 2.004067711,48.60225844 1.986718726,48.60861607 1.966707662,48.60940665 1.959224604,48.60505042 1.955721047,48.5950432" />
<polygon id="78123 CARRIERES-SOUS-POISSY" points="2.049002093,48.95709751 2.04726846,48.9466248 2.036390265,48.93463986 2.022226504,48.93000152 2.008405583,48.93471735 2.00356966,48.94132326 2.008322701,48.94192925 2.028235253,48.95906235 2.03600794,48.95895423 2.035319459,48.96146674 2.045555519,48.96184542 2.048854207,48.9592097 2.049002093,48.95709751" />
<polygon id="78124 CARRIERES-SUR-SEINE" points="2.174289314,48.89906693 2.161364085,48.90799743 2.160838792,48.92026953 2.167915863,48.92657813 2.180340271,48.9167443 2.19919119,48.9189672 2.200591009,48.90867933 2.174289314,48.89906693" />
<polygon id="78125 LA CELLE-LES-BORDES" points="1.931527979,48.61092233 1.926605367,48.62075556 1.904752585,48.63536377 1.909677693,48.65238388 1.909021994,48.65778426 1.928792754,48.66040141 1.929866016,48.66369442 1.945675923,48.65613513 1.961660389,48.66417353 1.981848817,48.66163105 1.987815696,48.65642851 1.980230964,48.64780008 1.977788852,48.63104724 1.966184953,48.62420027 1.941800483,48.6188315 1.931527979,48.61092233" />
<polygon id="78126 LA CELLE-SAINT-CLOUD" points="2.120545689,48.83602536 2.110636174,48.84108762 2.110920421,48.84998467 2.119793951,48.8482695 2.122449918,48.8507803 2.139863842,48.85590729 2.144469037,48.86181321 2.153764153,48.86440652 2.15041165,48.85850089 2.159867593,48.8477212 2.150032316,48.84666241 2.145872523,48.83690143 2.120545689,48.83602536" />
<polygon id="78128 CERNAY-LA-VILLE" points="1.987815696,48.65642851 1.981848817,48.66163105 1.961660389,48.66417353 1.945675923,48.65613513 1.929866016,48.66369442 1.924810984,48.66980188 1.935192187,48.68556509 1.958762607,48.67739855 1.990225768,48.67577115 2.000764649,48.66802497 1.993038808,48.65806495 1.987815696,48.65642851" />
<polygon id="78133 CHAMBOURCY" points="2.037199223,48.87765472 2.020252868,48.88259867 1.998373859,48.89140232 2.012652512,48.89579287 2.02254073,48.89366157 2.026951436,48.89557715 2.027028641,48.91261147 2.039885102,48.91687015 2.052729085,48.90693576 2.054452747,48.8976681 2.037199223,48.87765472" />
<polygon id="78138 CHANTELOUP-LES-VIGNES" points="2.035319459,48.96146674 2.03600794,48.95895423 2.028235253,48.95906235 2.023417014,48.97855594 2.026211825,48.98470279 2.020437441,48.99384643 2.024722631,48.99561693 2.027031832,48.98907096 2.044321964,48.982888 2.035319459,48.96146674" />
<polygon id="78140 CHAPET" points="1.951517373,48.95469287 1.932478159,48.95816711 1.920774567,48.96868327 1.934534757,48.98243077 1.939088359,48.98090635 1.949439854,48.97979239 1.953586536,48.96994531 1.95573515,48.95682509 1.951517373,48.95469287" />
<polygon id="78143 CHATEAUFORT" points="2.105537547,48.71658502 2.102764121,48.72294156 2.084628612,48.7291452 2.086181792,48.74528471 2.078589752,48.7539242 2.088237895,48.75293689 2.101493757,48.7564913 2.106444271,48.75735595 2.10104905,48.74755629 2.104654424,48.73797705 2.100445615,48.73600255 2.110490456,48.72427667 2.107693289,48.71770753 2.105537547,48.71658502" />
<polygon id="78146 CHATOU" points="2.158314349,48.88060908 2.144932867,48.88338319 2.145855525,48.89364234 2.135995118,48.90591953 2.125952172,48.90766332 2.133703442,48.91164072 2.142580713,48.90449195 2.161364085,48.90799743 2.174289314,48.89906693 2.169348729,48.89581313 2.158314349,48.88060908" />
<polygon id="78147 CHAUFOUR-LES-BONNIERES" points="1.490881949,49.0047767 1.480401249,49.0055618 1.474046229,49.00969018 1.477095508,49.0148013 1.471841866,49.01862874 1.484952634,49.02668221 1.49344822,49.0261146 1.496790459,49.01884482 1.490881949,49.0047767" />
<polygon id="78152 CHAVENAY" points="1.983641157,48.83353729 1.970086059,48.83487839 1.968792679,48.83483127 1.970646934,48.84097224 1.961381702,48.8518919 1.969073371,48.86059264 1.972064731,48.858208 1.990617265,48.85953514 2.00939339,48.85130071 2.005748583,48.84947168 2.000680939,48.84368229 1.986776831,48.83973386 1.983641157,48.83353729" />
<polygon id="78158 LE CHESNAY" points="2.148475928,48.82849269 2.140437002,48.82446883 2.136072645,48.81493967 2.131007668,48.81486698 2.114001309,48.82187448 2.112676125,48.82851124 2.120545689,48.83602536 2.145872523,48.83690143 2.148475928,48.82849269" />
<polygon id="78160 CHEVREUSE" points="2.037642875,48.68022018 2.029656784,48.68454514 2.020820821,48.69645453 2.023426096,48.70319525 2.002901161,48.71409842 2.004349825,48.72082081 2.034230994,48.72594163 2.061828415,48.72302255 2.066560867,48.71761773 2.055518385,48.69981965 2.055658739,48.68678681 2.045836488,48.68678058 2.04255161,48.68069147 2.037642875,48.68022018" />
<polygon id="78162 CHOISEL" points="2.011657818,48.65357914 1.993038808,48.65806495 2.000764649,48.66802497 1.996724746,48.68464142 2.003423431,48.6888534 2.012034023,48.689015 2.019520024,48.69698355 2.020820821,48.69645453 2.029656784,48.68454514 2.037642875,48.68022018 2.033637154,48.67866758 2.028902045,48.66374182 2.027073717,48.65763701 2.013269018,48.65957448 2.011657818,48.65357914" />
<polygon id="78163 CIVRY-LA-FORET" points="1.620389342,48.8447849 1.61650308,48.84692572 1.606811058,48.84496933 1.598649934,48.8489486 1.595613104,48.85138653 1.599849789,48.86668204 1.595922492,48.87227559 1.60704336,48.87706467 1.612194404,48.87668377 1.6239081,48.88338491 1.636819057,48.87833388 1.642774221,48.87063939 1.630311264,48.86030665 1.623661861,48.8488432 1.620389342,48.8447849" />
<polygon id="78164 CLAIREFONTAINE-EN-YVELINES" points="1.928634188,48.58195604 1.875220602,48.61443396 1.892020273,48.62644809 1.877057072,48.63507894 1.883126177,48.64387991 1.893258472,48.65003758 1.902771575,48.65087219 1.909677693,48.65238388 1.904752585,48.63536377 1.926605367,48.62075556 1.931527979,48.61092233 1.932558902,48.60094605 1.935083609,48.58617914 1.928634188,48.58195604" />
<polygon id="78165 LES CLAYES-SOUS-BOIS" points="1.994400509,48.79911726 1.986479116,48.79968895 1.966898485,48.82179131 1.970086059,48.83487839 1.983641157,48.83353729 1.995914202,48.8272821 2.000393008,48.81393622 1.996440552,48.81196934 1.994400509,48.79911726" />
<polygon id="78168 COIGNIERES" points="1.932428891,48.74171516 1.916481817,48.73356594 1.906655067,48.73529333 1.90328857,48.73824879 1.89559543,48.74255844 1.89348425,48.76517008 1.900973052,48.76556304 1.901068543,48.76813643 1.91621892,48.7586864 1.940190234,48.75667083 1.937122798,48.74830534 1.932428891,48.74171516" />
<polygon id="78171 CONDE-SUR-VESGRE" points="1.711476443,48.73622446 1.714701793,48.71347377 1.713312059,48.71029236 1.709667521,48.71256486 1.695734434,48.71311501 1.694585651,48.72318644 1.686117426,48.7268896 1.653141174,48.7349418 1.638670847,48.7318451 1.621261595,48.72733638 1.617935496,48.72970873 1.620257564,48.7360055 1.622704865,48.74015371 1.635667428,48.74426956 1.675093054,48.74340029 1.711476443,48.73622446" />
<polygon id="78172 CONFLANS-SAINTE-HONORINE" points="2.074400928,48.98480549 2.071883805,48.99339209 2.071694219,49.00170884 2.084914921,49.01467871 2.107910568,49.00906964 2.12125682,49.01849327 2.126808839,49.00866906 2.121573868,48.99489922 2.127452768,48.98905194 2.089784164,48.98802569 2.074400928,48.98480549" />
<polygon id="78185 COURGENT" points="1.662185667,48.88725458 1.652835297,48.88755447 1.652047132,48.89060365 1.652183456,48.89956341 1.658361934,48.90755661 1.662852731,48.90376635 1.668194069,48.89496664 1.666457919,48.88872333 1.662185667,48.88725458" />
<polygon id="78188 CRAVENT" points="1.470889416,48.97481713 1.461702357,48.98886501 1.470983765,48.99111519 1.480401249,49.0055618 1.490881949,49.0047767 1.507903177,48.98377347 1.493874703,48.97935308 1.478260402,48.97924593 1.470889416,48.97481713" />
<polygon id="78189 CRESPIERES" points="1.921711343,48.85832247 1.912716945,48.86084936 1.88310262,48.87453534 1.89134844,48.87853335 1.889499996,48.88848143 1.899343486,48.88735816 1.903213525,48.88945326 1.911970052,48.90118005 1.927411768,48.8992328 1.93409451,48.9046347 1.953756576,48.89566153 1.949905978,48.88166055 1.945789893,48.87549058 1.929076443,48.8673826 1.921711343,48.85832247" />
<polygon id="78190 CROISSY-SUR-SEINE" points="2.150387185,48.87086701 2.131966627,48.87097767 2.12435642,48.87438478 2.119794118,48.87811065 2.110267283,48.8874385 2.118188802,48.89077973 2.129363382,48.87664272 2.135559274,48.88533942 2.144932867,48.88338319 2.158314349,48.88060908 2.150387185,48.87086701" />
<polygon id="78192 DAMMARTIN-EN-SERVE" points="1.585663742,48.88803003 1.583190131,48.89422489 1.587206448,48.89652093 1.586868499,48.90344255 1.608995522,48.92701436 1.606088581,48.93718875 1.61829357,48.93307595 1.645334772,48.92159361 1.655146349,48.91266516 1.649152595,48.90701239 1.640057004,48.90525454 1.631886357,48.89687783 1.600861081,48.8975537 1.595060919,48.88854542 1.585663742,48.88803003" />
<polygon id="78193 DAMPIERRE-EN-YVELINES" points="2.003423431,48.6888534 1.980543874,48.69583823 1.965868928,48.69582883 1.957701288,48.69179981 1.943273387,48.69508207 1.939710286,48.70059153 1.94192498,48.70933655 1.959904244,48.7197041 1.963558246,48.72533081 1.971530094,48.72094724 1.970862722,48.71755934 1.993036674,48.70896034 1.999368956,48.6998026 2.019520024,48.69698355 2.012034023,48.689015 2.003423431,48.6888534" />
<polygon id="78194 DANNEMARIE" points="1.624960005,48.74903124 1.605226427,48.76058635 1.584907282,48.7632978 1.606859074,48.77486299 1.614959063,48.77221362 1.621476657,48.76452609 1.624960005,48.74903124" />
<polygon id="78196 DAVRON" points="1.961381702,48.8518919 1.921711343,48.85832247 1.929076443,48.8673826 1.945789893,48.87549058 1.949905978,48.88166055 1.957737268,48.8698841 1.969701926,48.86396178 1.969073371,48.86059264 1.961381702,48.8518919" />
<polygon id="78202 DROCOURT" points="1.772786314,49.04212744 1.762940928,49.04254802 1.751176843,49.0482266 1.751367853,49.05507203 1.759422161,49.0632848 1.770733058,49.05778068 1.78938152,49.05786213 1.787231824,49.05148268 1.772786314,49.04212744" />
<polygon id="78206 ECQUEVILLY" points="1.917692243,48.92449832 1.901141392,48.92947398 1.893751481,48.93294942 1.895219183,48.94611132 1.900104918,48.95202888 1.909767023,48.95425754 1.915877441,48.97032981 1.920774567,48.96868327 1.932478159,48.95816711 1.951517373,48.95469287 1.953615724,48.94813716 1.92849433,48.936107 1.917692243,48.92449832" />
<polygon id="78208 ELANCOURT" points="1.973475056,48.75341764 1.967799891,48.75699362 1.964447051,48.76210959 1.951944219,48.75937405 1.952045772,48.76515857 1.947364263,48.76588196 1.936505781,48.77993442 1.941237904,48.79154348 1.956870313,48.78927043 1.97004222,48.79986324 1.985935301,48.79964836 1.970907901,48.78565942 1.976015744,48.77230137 1.973507485,48.76560579 1.978059992,48.75963637 1.973475056,48.75341764" />
<polygon id="78209 EMANCE" points="1.748166264,48.57568717 1.738781229,48.57300606 1.709252787,48.57802435 1.710271,48.58127414 1.701989055,48.58499862 1.71812508,48.60717874 1.738343397,48.60413805 1.752669946,48.60860722 1.764969229,48.60537084 1.763197615,48.59997267 1.748166264,48.57568717" />
<polygon id="78217 EPONE" points="1.805030743,48.91247333 1.800092331,48.91301755 1.784810436,48.92525691 1.783341567,48.92561974 1.790209638,48.9307797 1.794676416,48.94772364 1.809200218,48.95745581 1.806854051,48.97102143 1.817612632,48.97548071 1.836578224,48.97777058 1.839907316,48.96144411 1.834715378,48.95239141 1.830224631,48.95048604 1.828202501,48.95356902 1.821258804,48.94482227 1.814567765,48.92868479 1.817965064,48.92273757 1.809145099,48.92110332 1.805030743,48.91247333" />
<polygon id="78220 LES ESSARTS-LE-ROI" points="1.937892292,48.68773906 1.914044603,48.70101729 1.869116264,48.7073463 1.869357388,48.71064986 1.837866544,48.72093474 1.853383382,48.73309341 1.873847305,48.73251466 1.90328857,48.73824879 1.906655067,48.73529333 1.903472093,48.72238316 1.937525017,48.71784284 1.937580263,48.71111497 1.94192498,48.70933655 1.939710286,48.70059153 1.943273387,48.69508207 1.937892292,48.68773906" />
<polygon id="78224 L'ETANG-LA-VILLE" points="2.070853017,48.85462684 2.069626391,48.85462631 2.059741675,48.85557434 2.044011732,48.86382297 2.036302563,48.86789829 2.046811515,48.87470976 2.058703418,48.87984932 2.063022551,48.87852516 2.077372254,48.87361815 2.080725077,48.87136854 2.070853017,48.85462684" />
<polygon id="78227 EVECQUEMONT" points="1.936111079,49.01021473 1.919474003,49.01482328 1.931983413,49.01748915 1.937802165,49.02177633 1.945607277,49.02526232 1.954947812,49.02453465 1.957081174,49.02180147 1.951697073,49.0121594 1.936111079,49.01021473" />
<polygon id="78230 LA FALAISE" points="1.817965064,48.92273757 1.814567765,48.92868479 1.821258804,48.94482227 1.828202501,48.95356902 1.830224631,48.95048604 1.837116497,48.93783634 1.827724091,48.9299654 1.828971571,48.92669493 1.817965064,48.92273757" />
<polygon id="78231 FAVRIEUX" points="1.656616023,48.93978039 1.64855572,48.93682973 1.629169133,48.94100756 1.620321348,48.9436042 1.630992043,48.95163211 1.648473672,48.95102104 1.6534327,48.95094193 1.659033617,48.9455635 1.656616023,48.93978039" />
<polygon id="78233 FEUCHEROLLES" points="1.990617265,48.85953514 1.972064731,48.858208 1.969073371,48.86059264 1.969701926,48.86396178 1.957737268,48.8698841 1.949905978,48.88166055 1.953756576,48.89566153 1.971601492,48.8934148 1.981887669,48.90029289 1.998373859,48.89140232 2.020252868,48.88259867 2.013966547,48.87754656 1.995498718,48.87358864 1.988603659,48.86495945 1.990617265,48.85953514" />
<polygon id="78234 FLACOURT" points="1.645334772,48.92159361 1.61829357,48.93307595 1.629169133,48.94100756 1.64855572,48.93682973 1.656616023,48.93978039 1.66515068,48.94077513 1.660186184,48.93262528 1.657791059,48.92651859 1.645334772,48.92159361" />
<polygon id="78236 FLEXANVILLE" points="1.740031488,48.83782095 1.732908327,48.84610158 1.718919507,48.84858797 1.716446666,48.85492053 1.727488284,48.85933778 1.729202261,48.87121948 1.731439528,48.87396847 1.739913354,48.87144965 1.758615586,48.86876694 1.759018235,48.85873352 1.766417446,48.85020246 1.761115692,48.84103634 1.740031488,48.83782095" />
<polygon id="78237 FLINS-NEUVE-EGLISE" points="1.585663742,48.88803003 1.573222842,48.88809829 1.56861317,48.89304416 1.568370414,48.89591946 1.575749618,48.89893961 1.583190131,48.89422489 1.585663742,48.88803003" />
<polygon id="78238 FLINS-SUR-SEINE" points="1.88479865,48.94051087 1.871713506,48.94143164 1.869923799,48.94714359 1.864291998,48.95306196 1.854982163,48.98764225 1.864812509,48.989894 1.875786925,48.99236249 1.87795879,48.98228364 1.889532844,48.97582639 1.885978002,48.97341025 1.88479865,48.94051087" />
<polygon id="78239 FOLLAINVILLE-DENNEMONT" points="1.708405265,49.00829511 1.670579803,49.0082598 1.674538185,49.0192123 1.683953366,49.01998137 1.696950308,49.03060002 1.707021648,49.02873044 1.711475849,49.03054994 1.723457162,49.04497658 1.732065796,49.05041846 1.735637867,49.04868454 1.730035338,49.01542362 1.708405265,49.00829511" />
<polygon id="78242 FONTENAY-LE-FLEURY" points="2.048458423,48.80322054 2.024795939,48.81185322 2.034785407,48.82617208 2.047715943,48.82673445 2.052683141,48.83074929 2.059396428,48.8293992 2.070680908,48.82301168 2.060286579,48.81704828 2.048458423,48.80322054" />
<polygon id="78245 FONTENAY-MAUVOISIN" points="1.648473672,48.95102104 1.630992043,48.95163211 1.637029723,48.95625175 1.633989323,48.96177526 1.637113644,48.9676387 1.663794537,48.96964773 1.665963893,48.97028345 1.665907148,48.96983314 1.661278587,48.96019437 1.649356296,48.95436766 1.648473672,48.95102104" />
<polygon id="78246 FONTENAY-SAINT-PERE" points="1.755444722,49.00603123 1.730035338,49.01542362 1.735637867,49.04868454 1.751176843,49.0482266 1.762940928,49.04254802 1.772786314,49.04212744 1.785234167,49.03103101 1.767907563,49.01138477 1.755444722,49.00603123" />
<polygon id="78251 FOURQUEUX" points="2.046811515,48.87470976 2.037199223,48.87765472 2.054452747,48.8976681 2.075082276,48.8874057 2.063022551,48.87852516 2.058703418,48.87984932 2.046811515,48.87470976" />
<polygon id="78255 FRENEUSE" points="1.587658021,49.02417512 1.589093916,49.03725911 1.582984035,49.04261002 1.59928174,49.05459105 1.614300584,49.0711772 1.620154117,49.0739244 1.64492037,49.06431419 1.627978566,49.05755714 1.628325048,49.04807357 1.6196014,49.0442865 1.6099096,49.03225888 1.611170101,49.02604121 1.601629407,49.02738736 1.587658021,49.02417512" />
<polygon id="78261 GAILLON-SUR-MONTCIENT" points="1.907059475,49.01225586 1.899708233,49.01401423 1.89733139,49.01713989 1.8818983,49.01954209 1.883462901,49.03262304 1.908522502,49.04802383 1.914081504,49.04583509 1.91247369,49.04161205 1.905083695,49.02556507 1.907059475,49.01225586" />
<polygon id="78262 GALLUIS" points="1.789967636,48.78213806 1.767947633,48.79182535 1.769007227,48.79826755 1.778282989,48.79578123 1.787713626,48.79713653 1.791087781,48.80957439 1.798751647,48.81325849 1.803516202,48.81335124 1.804689182,48.81030481 1.810206538,48.80126627 1.795929978,48.7915439 1.789967636,48.78213806" />
<polygon id="78263 GAMBAIS" points="1.726837224,48.78613239 1.720929458,48.78058236 1.705637228,48.77977902 1.699484176,48.77436013 1.698996814,48.77098166 1.71108264,48.76430338 1.714760362,48.7580644 1.69502042,48.75803022 1.692709643,48.76120724 1.682456123,48.76315446 1.629702587,48.76320849 1.619741651,48.7714774 1.637641901,48.77754777 1.634904022,48.7869974 1.640756886,48.79224529 1.703062076,48.79960296 1.727099215,48.7982693 1.722901784,48.79731604 1.726837224,48.78613239" />
<polygon id="78264 GAMBAISEUIL" points="1.711476443,48.73622446 1.675093054,48.74340029 1.69502042,48.75803022 1.714760362,48.7580644 1.71108264,48.76430338 1.698996814,48.77098166 1.699484176,48.77436013 1.705637228,48.77977902 1.720929458,48.78058236 1.726837224,48.78613239 1.73227747,48.77679949 1.743435708,48.77009017 1.744710689,48.76347421 1.758762181,48.7624877 1.767348054,48.76592278 1.764097135,48.73829209 1.744067234,48.74271559 1.722939509,48.74349892 1.711476443,48.73622446" />
<polygon id="78265 GARANCIERES" points="1.748342358,48.80324291 1.74592105,48.8099366 1.73322174,48.82087518 1.740031488,48.83782095 1.761115692,48.84103634 1.773433985,48.83177308 1.77804003,48.83230593 1.785211746,48.83031926 1.78467252,48.81838703 1.781204885,48.8163999 1.748342358,48.80324291" />
<polygon id="78267 GARGENVILLE" points="1.792267113,48.96974226 1.80150436,48.98501553 1.797852557,49.00879269 1.799137585,49.01707007 1.820380621,49.011831 1.827651209,48.99619151 1.822835058,48.98315831 1.823799101,48.97980432 1.828338802,48.98145852 1.817612632,48.97548071 1.806854051,48.97102143 1.792267113,48.96974226" />
<polygon id="78269 GAZERAN" points="1.775091719,48.5982874 1.763197615,48.59997267 1.764969229,48.60537084 1.752669946,48.60860722 1.759680433,48.6213381 1.757850133,48.63156559 1.739946739,48.63841248 1.729496765,48.64616404 1.737490184,48.65246523 1.759684411,48.66526552 1.767165029,48.67400605 1.785978084,48.67455894 1.786790275,48.66414115 1.766793306,48.65290701 1.768876653,48.64284412 1.776490657,48.63826263 1.80234848,48.63884924 1.822350107,48.63489252 1.827546682,48.6192188 1.805789955,48.61057326 1.777111155,48.60474049 1.775091719,48.5982874" />
<polygon id="78276 GOMMECOURT" points="1.59928174,49.05459105 1.595250536,49.06046134 1.580968317,49.06229893 1.57226216,49.07680923 1.594359241,49.08275312 1.604106701,49.08377498 1.608796071,49.07789415 1.614300584,49.0711772 1.59928174,49.05459105" />
<polygon id="78278 GOUPILLIERES" points="1.758615586,48.86876694 1.739913354,48.87144965 1.74127681,48.8742702 1.750029556,48.87545022 1.752217667,48.87802739 1.748336924,48.87949789 1.770432297,48.89606906 1.783104315,48.89141371 1.789082514,48.88596099 1.775130925,48.87261572 1.758615586,48.86876694" />
<polygon id="78281 GOUSSONVILLE" points="1.761479141,48.9088831 1.756990862,48.90771237 1.748978834,48.91124451 1.749242614,48.91219162 1.753093554,48.92174724 1.767330229,48.93087031 1.763394546,48.93680156 1.768613949,48.94237738 1.776280172,48.93802205 1.783341567,48.92561974 1.784810436,48.92525691 1.761479141,48.9088831" />
<polygon id="78283 GRANDCHAMP" points="1.602291785,48.7050402 1.594878195,48.70931607 1.587935014,48.7107274 1.59001116,48.71287496 1.615040308,48.7353064 1.620257564,48.7360055 1.617935496,48.72970873 1.621261595,48.72733638 1.638670847,48.7318451 1.639954022,48.72852238 1.631053617,48.72051349 1.633281416,48.71382826 1.613814594,48.71129178 1.602291785,48.7050402" />
<polygon id="78285 GRESSEY" points="1.590482682,48.81733476 1.581793415,48.8298249 1.594496209,48.83569558 1.594893973,48.83913626 1.586621428,48.84320338 1.598649934,48.8489486 1.606811058,48.84496933 1.61650308,48.84692572 1.620389342,48.8447849 1.621940989,48.82888209 1.608708426,48.81984195 1.590482682,48.81733476" />
<polygon id="78289 GROSROUVRE" points="1.767348054,48.76592278 1.758762181,48.7624877 1.744710689,48.76347421 1.743435708,48.77009017 1.73227747,48.77679949 1.726837224,48.78613239 1.722901784,48.79731604 1.727099215,48.7982693 1.729075344,48.79819138 1.767947633,48.79182535 1.789967636,48.78213806 1.789616929,48.77906725 1.798713163,48.7776839 1.781968312,48.76622568 1.780863019,48.7692727 1.767348054,48.76592278" />
<polygon id="78290 GUERNES" points="1.657976271,49.00611404 1.6370204,49.00401626 1.614141979,49.01204609 1.617050252,49.02810557 1.618329691,49.02884874 1.626314179,49.02480351 1.63621568,49.0258157 1.674538185,49.0192123 1.670579803,49.0082598 1.657976271,49.00611404" />
<polygon id="78291 GUERVILLE" points="1.729498971,48.93115871 1.724227143,48.93238881 1.720244639,48.94168184 1.726120846,48.95037833 1.723572117,48.96297818 1.729985016,48.96828047 1.732468928,48.97789372 1.751753677,48.96735787 1.762926635,48.96680814 1.756228377,48.95446277 1.763601016,48.94419645 1.757435055,48.93882645 1.729498971,48.93115871" />
<polygon id="78296 GUITRANCOURT" points="1.775457151,48.98863755 1.76219038,48.9896975 1.763656031,48.99874176 1.755444722,49.00603123 1.767907563,49.01138477 1.785234167,49.03103101 1.791178792,49.02006576 1.799137585,49.01707007 1.797852557,49.00879269 1.795654192,49.00219675 1.778641441,48.99501918 1.775457151,48.98863755" />
<polygon id="78297 GUYANCOURT" points="2.101493757,48.7564913 2.088237895,48.75293689 2.078589752,48.7539242 2.068446544,48.7567148 2.05373553,48.76751859 2.055380119,48.77062573 2.046455005,48.77353201 2.044366015,48.77985644 2.053611708,48.79460892 2.070251387,48.78981062 2.105472175,48.78074332 2.101493757,48.7564913" />
<polygon id="78299 HARDRICOURT" points="1.888038124,48.99843898 1.881078102,49.01064957 1.861712766,49.01411858 1.868558417,49.0180592 1.8818983,49.01954209 1.89733139,49.01713989 1.899708233,49.01401423 1.905287818,49.00485662 1.888038124,48.99843898" />
<polygon id="78300 HARGEVILLE" points="1.748336924,48.87949789 1.722083822,48.88960877 1.727370012,48.89877607 1.748978834,48.91124451 1.756990862,48.90771237 1.761479141,48.9088831 1.762304076,48.89943901 1.770432297,48.89606906 1.748336924,48.87949789" />
<polygon id="78302 LA HAUTEVILLE" points="1.62600482,48.69485357 1.602291785,48.7050402 1.613814594,48.71129178 1.633281416,48.71382826 1.649030399,48.70932988 1.640602799,48.69732377 1.62600482,48.69485357" />
<polygon id="78305 HERBEVILLE" points="1.911970052,48.90118005 1.903213525,48.88945326 1.899343486,48.88735816 1.889499996,48.88848143 1.884977194,48.8939706 1.872285225,48.89806085 1.869307674,48.90388772 1.877834659,48.91209821 1.878231876,48.91899106 1.883579452,48.91717034 1.893883069,48.91713101 1.903511479,48.90509611 1.911970052,48.90118005" />
<polygon id="78307 HERMERAY" points="1.709581551,48.63293266 1.717317828,48.65619004 1.709093993,48.66040131 1.691167048,48.6534228 1.680766971,48.6264816 1.675946151,48.6249977 1.651574528,48.6381287 1.64083841,48.64488881 1.643197391,48.65129397 1.662308804,48.65522543 1.67123653,48.66351169 1.67110245,48.67039211 1.691443662,48.6722184 1.706534365,48.68593078 1.714108653,48.68123595 1.721769047,48.66129358 1.737490184,48.65246523 1.729496765,48.64616404 1.713439932,48.63112119 1.709581551,48.63293266" />
<polygon id="78310 HOUDAN" points="1.58759446,48.7736113 1.577015586,48.78525158 1.57943444,48.8089016 1.590222991,48.81434537 1.590482682,48.81733476 1.608708426,48.81984195 1.619150624,48.80821563 1.620053249,48.80138086 1.611547689,48.79762136 1.611952472,48.78855 1.606013673,48.78307476 1.591796422,48.77978669 1.58759446,48.7736113" />
<polygon id="78311 HOUILLES" points="2.19919119,48.9189672 2.180340271,48.9167443 2.167915863,48.92657813 2.182881354,48.93653752 2.198926853,48.93525192 2.204617626,48.92373373 2.19919119,48.9189672" />
<polygon id="78314 ISSOU" points="1.785941217,48.9680416 1.785987787,48.97833042 1.771521698,48.98227507 1.775457151,48.98863755 1.778641441,48.99501918 1.795654192,49.00219675 1.797852557,49.00879269 1.80150436,48.98501553 1.792267113,48.96974226 1.785941217,48.9680416" />
<polygon id="78317 JAMBVILLE" points="1.851334193,49.03336315 1.831609419,49.03592462 1.841728788,49.05194856 1.837604111,49.05834736 1.841384768,49.05939104 1.841442172,49.06478706 1.865468735,49.05747168 1.851334193,49.03336315" />
<polygon id="78320 JEUFOSSE" points="1.559905139,49.03130085 1.535010082,49.02607135 1.523082481,49.03288606 1.5188533,49.04113477 1.531748383,49.04662608 1.546451632,49.03650772 1.56189143,49.03513779 1.559905139,49.03130085" />
<polygon id="78321 JOUARS-PONTCHARTRAIN" points="1.89348425,48.76517008 1.889945589,48.77033624 1.885899951,48.80431637 1.885072705,48.80543298 1.894001107,48.80563285 1.893691576,48.80867012 1.898492104,48.80962289 1.914910943,48.80263145 1.941237904,48.79154348 1.936505781,48.77993442 1.933118416,48.78252166 1.923446727,48.7809328 1.909132627,48.78399606 1.89687527,48.77790206 1.901068543,48.76813643 1.900973052,48.76556304 1.89348425,48.76517008" />
<polygon id="78322 JOUY-EN-JOSAS" points="2.138892811,48.74312204 2.131088572,48.7470771 2.128439648,48.75339899 2.154687726,48.76295996 2.145853095,48.77074026 2.146395118,48.79084649 2.161929189,48.78223199 2.190662977,48.77503676 2.187626751,48.77251573 2.19247239,48.76363515 2.189517467,48.75416195 2.17524948,48.75751815 2.161767486,48.75247729 2.151345551,48.75262854 2.138958105,48.74658544 2.138892811,48.74312204" />
<polygon id="78324 JOUY-MAUVOISIN" points="1.637113644,48.9676387 1.630097391,48.97574294 1.644697251,48.98274388 1.651261917,48.98040761 1.654335039,48.98203397 1.663794537,48.96964773 1.637113644,48.9676387" />
<polygon id="78325 JUMEAUVILLE" points="1.783104315,48.89141371 1.770432297,48.89606906 1.762304076,48.89943901 1.761479141,48.9088831 1.784810436,48.92525691 1.800092331,48.91301755 1.805030743,48.91247333 1.805658168,48.89880895 1.783104315,48.89141371" />
<polygon id="78327 JUZIERS" points="1.828338802,48.98145852 1.823799101,48.97980432 1.822835058,48.98315831 1.827651209,48.99619151 1.820380621,49.011831 1.830198857,49.01354581 1.831662682,49.0201878 1.851427707,49.01677241 1.851364451,49.0103599 1.864812509,48.989894 1.854982163,48.98764225 1.828338802,48.98145852" />
<polygon id="78329 LAINVILLE-EN-VEXIN" points="1.812421156,49.04065541 1.810653884,49.04674394 1.794299675,49.05819935 1.799408782,49.06625386 1.79654669,49.0722322 1.81539413,49.07641208 1.8236011,49.07667254 1.840642531,49.0693385 1.841442172,49.06478706 1.841384768,49.05939104 1.837604111,49.05834736 1.818040623,49.05578246 1.821814506,49.0438414 1.812421156,49.04065541" />
<polygon id="78334 LEVIS-SAINT-NOM" points="1.94192498,48.70933655 1.937580263,48.71111497 1.937525017,48.71784284 1.903472093,48.72238316 1.906655067,48.73529333 1.916481817,48.73356594 1.932428891,48.74171516 1.947876824,48.73370288 1.961916096,48.73476128 1.963558246,48.72533081 1.959904244,48.7197041 1.94192498,48.70933655" />
<polygon id="78335 LIMAY" points="1.751753677,48.96735787 1.732468928,48.97789372 1.727270503,48.98486247 1.719248307,49.00099195 1.708405265,49.00829511 1.730035338,49.01542362 1.755444722,49.00603123 1.763656031,48.99874176 1.76219038,48.9896975 1.751987383,48.97412333 1.751753677,48.96735787" />
<polygon id="78337 LIMETZ-VILLEZ" points="1.580968317,49.06229893 1.548020032,49.04156289 1.543310858,49.04021983 1.533165303,49.04780351 1.521347391,49.06835172 1.546514052,49.07238185 1.560750773,49.07035893 1.57226216,49.07680923 1.580968317,49.06229893" />
<polygon id="78343 LES LOGES-EN-JOSAS" points="2.128439648,48.75339899 2.123282122,48.75352314 2.133318347,48.76597286 2.140552657,48.77117895 2.145853095,48.77074026 2.154687726,48.76295996 2.128439648,48.75339899" />
<polygon id="78344 LOMMOYE" points="1.520304411,48.97823403 1.518387886,48.97836327 1.513492536,48.97850056 1.507903177,48.98377347 1.490881949,49.0047767 1.496790459,49.01884482 1.50759295,49.01170387 1.517333063,49.0105475 1.53910802,49.00145228 1.545971291,48.99261402 1.546059981,48.99188661 1.538907331,48.98720397 1.529497023,48.98605471 1.520304411,48.97823403" />
<polygon id="78346 LONGNES" points="1.583190131,48.89422489 1.575749618,48.89893961 1.569948655,48.90848538 1.562016794,48.91308542 1.541664158,48.91575351 1.540523167,48.91848286 1.545637259,48.9191027 1.562184684,48.93614841 1.581330367,48.94094553 1.588070222,48.94615166 1.589173218,48.94525626 1.606088581,48.93718875 1.608995522,48.92701436 1.586868499,48.90344255 1.587206448,48.89652093 1.583190131,48.89422489" />
<polygon id="78349 LONGVILLIERS" points="2.01757406,48.55759739 1.982990219,48.55682991 1.979664302,48.55433645 1.962684635,48.56048697 1.958298926,48.57589514 2.002493768,48.58092481 2.010963794,48.58902894 2.009650895,48.59894055 2.0188572,48.60126575 2.033046952,48.59819732 2.035741286,48.58887242 2.02192017,48.57815335 2.01757406,48.55759739" />
<polygon id="78350 LOUVECIENNES" points="2.110636174,48.84108762 2.102663857,48.84274592 2.092697912,48.84617837 2.094520195,48.85266775 2.106944288,48.85695224 2.105603548,48.86677239 2.109398751,48.87283545 2.119794118,48.87811065 2.12435642,48.87438478 2.131714613,48.86237789 2.122449918,48.8507803 2.119793951,48.8482695 2.110920421,48.84998467 2.110636174,48.84108762" />
<polygon id="78354 MAGNANVILLE" points="1.699335971,48.95775328 1.674925606,48.96169501 1.665907148,48.96983314 1.665963893,48.97028345 1.686219937,48.97849327 1.696707401,48.978167 1.697464994,48.96483789 1.702412125,48.96364143 1.699335971,48.95775328" />
<polygon id="78356 MAGNY-LES-HAMEAUX" points="2.105537547,48.71658502 2.100744439,48.7154876 2.087142379,48.71989975 2.073239288,48.71662638 2.07237408,48.7232489 2.056440404,48.73229876 2.035267043,48.73241733 2.018838003,48.74127827 2.006299266,48.74626563 1.991707355,48.74756447 2.011238395,48.76196646 2.025542613,48.75585971 2.045187351,48.75133217 2.061005617,48.75215919 2.068446544,48.7567148 2.078589752,48.7539242 2.086181792,48.74528471 2.084628612,48.7291452 2.102764121,48.72294156 2.105537547,48.71658502" />
<polygon id="78358 MAISONS-LAFFITTE" points="2.142430773,48.93512179 2.127853526,48.9431913 2.134469098,48.95584742 2.147465234,48.96525715 2.172905176,48.96386156 2.17815528,48.96351097 2.178105164,48.95976961 2.17314149,48.95329658 2.142430773,48.93512179" />
<polygon id="78361 MANTES-LA-JOLIE" points="1.727270503,48.98486247 1.718442276,48.98269103 1.702551852,48.98923824 1.664047705,48.9948772 1.656069533,48.99738718 1.657976271,49.00611404 1.670579803,49.0082598 1.708405265,49.00829511 1.719248307,49.00099195 1.727270503,48.98486247" />
<polygon id="78362 MANTES-LA-VILLE" points="1.71922565,48.96143891 1.702412125,48.96364143 1.697464994,48.96483789 1.696707401,48.978167 1.686219937,48.97849327 1.702551852,48.98923824 1.718442276,48.98269103 1.727270503,48.98486247 1.732468928,48.97789372 1.729985016,48.96828047 1.723572117,48.96297818 1.71922565,48.96143891" />
<polygon id="78364 MARCQ" points="1.824846561,48.8506917 1.812690122,48.85306309 1.805999684,48.86012894 1.812093037,48.86968742 1.823215343,48.87645291 1.832123741,48.87868972 1.83839847,48.87125875 1.837521034,48.85681466 1.824653951,48.85379282 1.824846561,48.8506917" />
<polygon id="78366 MAREIL-LE-GUYON" points="1.871169124,48.79917719 1.856047377,48.78095409 1.83603796,48.78103966 1.841755255,48.80062273 1.871169124,48.79917719" />
<polygon id="78367 MAREIL-MARLY" points="2.077372254,48.87361815 2.063022551,48.87852516 2.075082276,48.8874057 2.087831431,48.88441872 2.091815253,48.88587898 2.08422244,48.8787162 2.077372254,48.87361815" />
<polygon id="78368 MAREIL-SUR-MAULDRE" points="1.88310262,48.87453534 1.874663272,48.87702857 1.868758973,48.88519337 1.858513739,48.89094216 1.857940318,48.89780799 1.869307674,48.90388772 1.872285225,48.89806085 1.884977194,48.8939706 1.889499996,48.88848143 1.89134844,48.87853335 1.88310262,48.87453534" />
<polygon id="78372 MARLY-LE-ROI" points="2.092697912,48.84617837 2.081046982,48.85312265 2.070853017,48.85462684 2.080725077,48.87136854 2.077372254,48.87361815 2.08422244,48.8787162 2.097451381,48.88014772 2.101094624,48.8855353 2.104393405,48.872933 2.109398751,48.87283545 2.105603548,48.86677239 2.106944288,48.85695224 2.094520195,48.85266775 2.092697912,48.84617837" />
<polygon id="78380 MAULE" points="1.835524196,48.88517153 1.805658168,48.89880895 1.805030743,48.91247333 1.809145099,48.92110332 1.817965064,48.92273757 1.828971571,48.92669493 1.830585688,48.92349997 1.840528357,48.92195975 1.853884048,48.92591054 1.871899971,48.92339243 1.878231876,48.91899106 1.877834659,48.91209821 1.869307674,48.90388772 1.857940318,48.89780799 1.858513739,48.89094216 1.835524196,48.88517153" />
<polygon id="78381 MAULETTE" points="1.584907282,48.7632978 1.582927558,48.76755613 1.58759446,48.7736113 1.591796422,48.77978669 1.606013673,48.78307476 1.611952472,48.78855 1.611547689,48.79762136 1.620053249,48.80138086 1.625488395,48.80491556 1.628816148,48.80368548 1.640756886,48.79224529 1.634904022,48.7869974 1.637641901,48.77754777 1.619741651,48.7714774 1.614959063,48.77221362 1.606859074,48.77486299 1.584907282,48.7632978" />
<polygon id="78382 MAURECOURT" points="2.071883805,48.99339209 2.051868131,48.99164389 2.039921366,48.99626108 2.024722631,48.99561693 2.02361373,48.99790106 2.026444957,49.00070281 2.046501654,49.00185304 2.064428879,49.00820803 2.071694219,49.00170884 2.071883805,48.99339209" />
<polygon id="78383 MAUREPAS" points="1.940190234,48.75667083 1.91621892,48.7586864 1.901068543,48.76813643 1.89687527,48.77790206 1.909132627,48.78399606 1.923446727,48.7809328 1.933118416,48.78252166 1.936505781,48.77993442 1.947364263,48.76588196 1.952045772,48.76515857 1.951944219,48.75937405 1.940190234,48.75667083" />
<polygon id="78384 MEDAN" points="1.969741349,48.94467954 1.969467129,48.9461161 1.979300104,48.95851188 1.996151247,48.96706266 2.002521172,48.95399492 1.99601125,48.94885046 1.980861352,48.94853376 1.978490145,48.94551884 1.969741349,48.94467954" />
<polygon id="78385 MENERVILLE" points="1.589173218,48.94525626 1.588070222,48.94615166 1.578977082,48.95162043 1.58146033,48.95820635 1.602208873,48.9682712 1.613481847,48.95739376 1.605436658,48.94877431 1.602828025,48.95133416 1.593545935,48.95068599 1.589173218,48.94525626" />
<polygon id="78389 MERE" points="1.834318253,48.77576993 1.827275462,48.780918 1.817278804,48.78300519 1.798713163,48.7776839 1.789616929,48.77906725 1.789967636,48.78213806 1.795929978,48.7915439 1.810206538,48.80126627 1.804689182,48.81030481 1.811187806,48.81496584 1.829003494,48.81126502 1.847901304,48.81270786 1.841755255,48.80062273 1.83603796,48.78103966 1.834318253,48.77576993" />
<polygon id="78391 MERICOURT" points="1.611170101,49.02604121 1.6099096,49.03225888 1.6196014,49.0442865 1.628325048,49.04807357 1.635176381,49.04038167 1.64296904,49.03741236 1.618329691,49.02884874 1.617050252,49.02810557 1.611170101,49.02604121" />
<polygon id="78396 LE MESNIL-LE-ROI" points="2.113204846,48.90633754 2.104127722,48.90740316 2.110353346,48.92071469 2.122239694,48.93202586 2.122791996,48.94217413 2.127853526,48.9431913 2.142430773,48.93512179 2.123833692,48.92247777 2.113204846,48.90633754" />
<polygon id="78397 LE MESNIL-SAINT-DENIS" points="1.971530094,48.72094724 1.963558246,48.72533081 1.961916096,48.73476128 1.947876824,48.73370288 1.932428891,48.74171516 1.937122798,48.74830534 1.956509072,48.74880015 1.958146374,48.75536268 1.967799891,48.75699362 1.973475056,48.75341764 1.991707355,48.74756447 1.987763563,48.74542631 1.988680127,48.72900041 1.971530094,48.72094724" />
<polygon id="78398 LES MESNULS" points="1.853274633,48.7498142 1.821116845,48.74024507 1.809060106,48.74652093 1.821404573,48.75581838 1.819817223,48.76465377 1.8252923,48.76804486 1.839049995,48.76433855 1.848403461,48.76653391 1.858964194,48.75960125 1.853274633,48.7498142" />
<polygon id="78401 MEULAN-EN-YVELINES" points="1.881045108,48.99377858 1.888038124,48.99843898 1.905287818,49.00485662 1.899708233,49.01401423 1.907059475,49.01225586 1.914951705,49.01598751 1.919474003,49.01482328 1.936111079,49.01021473 1.93710153,49.00657244 1.881045108,48.99377858" />
<polygon id="78402 MEZIERES-SUR-SEINE" points="1.783341567,48.92561974 1.776280172,48.93802205 1.768613949,48.94237738 1.763601016,48.94419645 1.756228377,48.95446277 1.762926635,48.96680814 1.785941217,48.9680416 1.792267113,48.96974226 1.806854051,48.97102143 1.809200218,48.95745581 1.794676416,48.94772364 1.790209638,48.9307797 1.783341567,48.92561974" />
<polygon id="78403 MEZY-SUR-SEINE" points="1.864812509,48.989894 1.851364451,49.0103599 1.851427707,49.01677241 1.859255155,49.01396935 1.861712766,49.01411858 1.881078102,49.01064957 1.888038124,48.99843898 1.881045108,48.99377858 1.875786925,48.99236249 1.864812509,48.989894" />
<polygon id="78404 MILLEMONT" points="1.729075344,48.79819138 1.727099215,48.7982693 1.703062076,48.79960296 1.704489067,48.80190314 1.705129437,48.8117594 1.713343374,48.81555392 1.73322174,48.82087518 1.74592105,48.8099366 1.748342358,48.80324291 1.729075344,48.79819138" />
<polygon id="78406 MILON-LA-CHAPELLE" points="2.066560867,48.71761773 2.061828415,48.72302255 2.034230994,48.72594163 2.029337974,48.72659454 2.018838003,48.74127827 2.035267043,48.73241733 2.056440404,48.73229876 2.07237408,48.7232489 2.066560867,48.71761773" />
<polygon id="78407 MITTAINVILLE" points="1.643197391,48.65129397 1.622748264,48.65032169 1.607565899,48.65961823 1.602706514,48.66309684 1.606204184,48.6791238 1.615831524,48.67671708 1.626272558,48.66915525 1.63134239,48.66849388 1.644430591,48.67391509 1.658560654,48.67007172 1.667856606,48.67304567 1.67110245,48.67039211 1.67123653,48.66351169 1.662308804,48.65522543 1.643197391,48.65129397" />
<polygon id="78410 MOISSON" points="1.683228816,49.05071138 1.667625567,49.05840806 1.64492037,49.06431419 1.620154117,49.0739244 1.64659798,49.08132033 1.670822349,49.07891085 1.687592364,49.0718471 1.697225284,49.06542325 1.693668225,49.05667967 1.683228816,49.05071138" />
<polygon id="78413 MONDREVILLE" points="1.563741879,48.89062929 1.538520831,48.90668492 1.544341167,48.91079425 1.541664158,48.91575351 1.562016794,48.91308542 1.569948655,48.90848538 1.575749618,48.89893961 1.568370414,48.89591946 1.56861317,48.89304416 1.563741879,48.89062929" />
<polygon id="78415 MONTAINVILLE" points="1.83839847,48.87125875 1.832123741,48.87868972 1.835524196,48.88517153 1.858513739,48.89094216 1.868758973,48.88519337 1.874663272,48.87702857 1.857293982,48.8719443 1.83839847,48.87125875" />
<polygon id="78416 MONTALET-LE-BOIS" points="1.830872822,49.03583652 1.821814506,49.0438414 1.818040623,49.05578246 1.837604111,49.05834736 1.841728788,49.05194856 1.831609419,49.03592462 1.830872822,49.03583652" />
<polygon id="78417 MONTCHAUVET" points="1.636819057,48.87833388 1.6239081,48.88338491 1.612194404,48.87668377 1.60704336,48.87706467 1.595060919,48.88854542 1.600861081,48.8975537 1.631886357,48.89687783 1.640057004,48.90525454 1.649152595,48.90701239 1.655146349,48.91266516 1.658361934,48.90755661 1.652183456,48.89956341 1.652047132,48.89060365 1.639388636,48.88489301 1.636819057,48.87833388" />
<polygon id="78418 MONTESSON" points="2.120242856,48.90320578 2.113204846,48.90633754 2.123833692,48.92247777 2.142430773,48.93512179 2.160838792,48.92026953 2.161364085,48.90799743 2.142580713,48.90449195 2.133703442,48.91164072 2.125952172,48.90766332 2.120242856,48.90320578" />
<polygon id="78420 MONTFORT-L'AMAURY" points="1.819817223,48.76465377 1.794565,48.75988607 1.781968312,48.76622568 1.798713163,48.7776839 1.817278804,48.78300519 1.827275462,48.780918 1.834318253,48.77576993 1.8252923,48.76804486 1.819817223,48.76465377" />
<polygon id="78423 MONTIGNY-LE-BRETONNEUX" points="2.025542613,48.75585971 2.011238395,48.76196646 2.00890823,48.7678926 2.022284832,48.78526336 1.994400509,48.79911726 2.030089508,48.79668691 2.050125421,48.79841285 2.053611708,48.79460892 2.044366015,48.77985644 2.046455005,48.77353201 2.055380119,48.77062573 2.05373553,48.76751859 2.04993104,48.76946719 2.025542613,48.75585971" />
<polygon id="78431 MORAINVILLIERS" points="1.942011279,48.91383338 1.936385727,48.91935956 1.917692243,48.92449832 1.92849433,48.936107 1.953615724,48.94813716 1.951517373,48.95469287 1.95573515,48.95682509 1.969467129,48.9461161 1.969741349,48.94467954 1.942011279,48.91383338" />
<polygon id="78437 MOUSSEAUX-SUR-SEINE" points="1.64296904,49.03741236 1.635176381,49.04038167 1.628325048,49.04807357 1.627978566,49.05755714 1.64492037,49.06431419 1.667625567,49.05840806 1.683228816,49.05071138 1.64296904,49.03741236" />
<polygon id="78439 MULCENT" points="1.658777176,48.86708711 1.642774221,48.87063939 1.636819057,48.87833388 1.639388636,48.88489301 1.652047132,48.89060365 1.652835297,48.88755447 1.662185667,48.88725458 1.666586042,48.87466668 1.664097332,48.87175174 1.658777176,48.86708711" />
<polygon id="78440 LES MUREAUX" points="1.920774567,48.96868327 1.915877441,48.97032981 1.89733232,48.97974739 1.889532844,48.97582639 1.87795879,48.98228364 1.875786925,48.99236249 1.881045108,48.99377858 1.93710153,49.00657244 1.946468883,49.00638525 1.939088359,48.98090635 1.934534757,48.98243077 1.920774567,48.96868327" />
<polygon id="78442 NEAUPHLE-LE-CHATEAU" points="1.914910943,48.80263145 1.898492104,48.80962289 1.893691576,48.80867012 1.888957982,48.80905796 1.901268932,48.82196179 1.913066136,48.81993795 1.914910943,48.80263145" />
<polygon id="78443 NEAUPHLE-LE-VIEUX" points="1.872623707,48.79865124 1.871169124,48.79917719 1.841755255,48.80062273 1.847901304,48.81270786 1.841537491,48.82881842 1.846622179,48.82866969 1.851510558,48.83433821 1.865603069,48.83161251 1.874862143,48.83437128 1.865896017,48.82253097 1.868949473,48.81300779 1.885072705,48.80543298 1.885899951,48.80431637 1.875821511,48.80504951 1.872623707,48.79865124" />
<polygon id="78444 NEAUPHLETTE" points="1.540523167,48.91848286 1.538249402,48.92169306 1.522954557,48.92488731 1.513924899,48.92180755 1.508104812,48.92724869 1.511530864,48.93345233 1.50179679,48.94105702 1.516572583,48.94383111 1.53457874,48.9381435 1.562274123,48.94526042 1.572177856,48.95305961 1.578977082,48.95162043 1.588070222,48.94615166 1.581330367,48.94094553 1.562184684,48.93614841 1.545637259,48.9191027 1.540523167,48.91848286" />
<polygon id="78451 NEZEL" points="1.849714323,48.93548469 1.84194547,48.9337101 1.837116497,48.93783634 1.830224631,48.95048604 1.834715378,48.95239141 1.849714323,48.93548469" />
<polygon id="78455 NOISY-LE-ROI" points="2.059396428,48.8293992 2.052683141,48.83074929 2.051618411,48.8368568 2.041544969,48.84304532 2.035476598,48.84550587 2.044011732,48.86382297 2.059741675,48.85557434 2.069626391,48.85462631 2.071589706,48.83928895 2.059396428,48.8293992" />
<polygon id="78460 OINVILLE-SUR-MONTCIENT" points="1.859255155,49.01396935 1.851427707,49.01677241 1.831662682,49.0201878 1.830872822,49.03583652 1.831609419,49.03592462 1.851334193,49.03336315 1.859304193,49.02978809 1.86244097,49.02019562 1.859255155,49.01396935" />
<polygon id="78464 ORCEMONT" points="1.83232259,48.57117197 1.819375736,48.57120614 1.816657108,48.58113812 1.802180415,48.58451985 1.79681705,48.59015143 1.775091719,48.5982874 1.777111155,48.60474049 1.805789955,48.61057326 1.827546682,48.6192188 1.830928941,48.6202686 1.824448495,48.59404404 1.83232259,48.57117197" />
<polygon id="78465 ORGERUS" points="1.704489067,48.80190314 1.700316684,48.80814523 1.678276559,48.82181853 1.677094539,48.83189752 1.676740332,48.84048348 1.67025845,48.84458509 1.696313058,48.86860819 1.701853375,48.86567329 1.705221892,48.86014227 1.716446666,48.85492053 1.718919507,48.84858797 1.710372284,48.83215306 1.713343374,48.81555392 1.705129437,48.8117594 1.704489067,48.80190314" />
<polygon id="78466 ORGEVAL" points="1.981887669,48.90029289 1.971601492,48.8934148 1.953756576,48.89566153 1.93409451,48.9046347 1.931973587,48.90760169 1.942011279,48.91383338 1.969741349,48.94467954 1.978490145,48.94551884 1.982363841,48.92896815 1.998111832,48.92840837 2.008618147,48.9206985 1.979890821,48.90334271 1.981887669,48.90029289" />
<polygon id="78470 ORPHIN" points="1.778177921,48.55262615 1.764915073,48.56223248 1.761452218,48.57168782 1.748166264,48.57568717 1.763197615,48.59997267 1.775091719,48.5982874 1.79681705,48.59015143 1.802180415,48.58451985 1.816657108,48.58113812 1.819375736,48.57120614 1.818393031,48.5678947 1.808418285,48.56661667 1.796854858,48.55544356 1.787245052,48.55374456 1.778177921,48.55262615" />
<polygon id="78472 ORSONVILLE" points="1.839126316,48.45803203 1.8345664,48.46723643 1.810509447,48.46612513 1.802130682,48.46809225 1.800663526,48.47427648 1.793727092,48.47876776 1.796336238,48.48419249 1.800144136,48.48634533 1.812919579,48.4815973 1.825422693,48.48710183 1.829610196,48.49657199 1.842812985,48.49514486 1.850012014,48.47919118 1.852752362,48.46959084 1.843922997,48.46687805 1.839126316,48.45803203" />
<polygon id="78474 ORVILLIERS" points="1.652197379,48.84528242 1.648559315,48.83895412 1.643457766,48.83863553 1.623661861,48.8488432 1.630311264,48.86030665 1.642774221,48.87063939 1.658777176,48.86708711 1.652197379,48.84528242" />
<polygon id="78475 OSMOY" points="1.716446666,48.85492053 1.705221892,48.86014227 1.701853375,48.86567329 1.719877708,48.87227138 1.729202261,48.87121948 1.727488284,48.85933778 1.716446666,48.85492053" />
<polygon id="78478 PARAY-DOUAVILLE" points="1.879441516,48.44066801 1.869316919,48.44049999 1.861090626,48.44446109 1.847221179,48.44667546 1.839126316,48.45803203 1.843922997,48.46687805 1.852752362,48.46959084 1.850012014,48.47919118 1.865471369,48.48081538 1.872555198,48.47674423 1.88256838,48.4646749 1.879441516,48.44066801" />
<polygon id="78481 LE PECQ" points="2.08422244,48.8787162 2.091815253,48.88587898 2.09925133,48.89039595 2.104127722,48.90740316 2.113204846,48.90633754 2.120242856,48.90320578 2.113065031,48.89933065 2.118188802,48.89077973 2.110267283,48.8874385 2.107096912,48.88940247 2.101094624,48.8855353 2.097451381,48.88014772 2.08422244,48.8787162" />
<polygon id="78484 PERDREAUVILLE" points="1.620321348,48.9436042 1.605436658,48.94877431 1.613481847,48.95739376 1.602208873,48.9682712 1.603911816,48.97505427 1.599464351,48.97684612 1.579152654,48.97568087 1.575900904,48.97817852 1.565940138,48.9777001 1.567148823,48.98341653 1.587270428,48.98715369 1.601482145,48.98258959 1.631077426,48.98729282 1.644697251,48.98274388 1.630097391,48.97574294 1.637113644,48.9676387 1.633989323,48.96177526 1.637029723,48.95625175 1.630992043,48.95163211 1.620321348,48.9436042" />
<polygon id="78486 LE PERRAY-EN-YVELINES" points="1.848264382,48.6784873 1.832860851,48.67785175 1.812593385,48.68804153 1.814235843,48.69469657 1.824967967,48.70206211 1.837866544,48.72093474 1.869357388,48.71064986 1.869116264,48.7073463 1.862502903,48.70209312 1.870337986,48.68603881 1.864808845,48.68102079 1.855465646,48.68150718 1.848264382,48.6784873" />
<polygon id="78490 PLAISIR" points="1.985935301,48.79964836 1.97004222,48.79986324 1.956870313,48.78927043 1.941237904,48.79154348 1.914910943,48.80263145 1.913066136,48.81993795 1.917838586,48.82034101 1.921737091,48.8261236 1.930890041,48.8261788 1.94325826,48.83696487 1.968792679,48.83483127 1.970086059,48.83487839 1.966898485,48.82179131 1.986479116,48.79968895 1.985935301,48.79964836" />
<polygon id="78497 POIGNY-LA-FORET" points="1.737490184,48.65246523 1.721769047,48.66129358 1.714108653,48.68123595 1.706534365,48.68593078 1.72625975,48.69548063 1.786222281,48.707926 1.797712824,48.6970499 1.803454689,48.684262 1.787264731,48.67764856 1.785978084,48.67455894 1.767165029,48.67400605 1.759684411,48.66526552 1.737490184,48.65246523" />
<polygon id="78498 POISSY" points="1.998373859,48.89140232 1.981887669,48.90029289 1.979890821,48.90334271 2.008618147,48.9206985 2.016906453,48.92405837 2.008405583,48.93471735 2.022226504,48.93000152 2.036390265,48.93463986 2.04726846,48.9466248 2.049002093,48.95709751 2.070157211,48.9463099 2.063219382,48.94111182 2.054601989,48.92550387 2.044986903,48.92290949 2.039885102,48.91687015 2.027028641,48.91261147 2.022166134,48.91360612 2.014347784,48.90495328 2.001322658,48.89979101 1.995659511,48.89423956 1.998373859,48.89140232" />
<polygon id="78499 PONTHEVRARD" points="1.896490743,48.53798496 1.894945097,48.55347152 1.902147088,48.55770355 1.916456662,48.55778978 1.927670217,48.55154898 1.925272932,48.54884641 1.911878721,48.54982218 1.910069717,48.54689077 1.917352446,48.53869855 1.90095932,48.54325332 1.896490743,48.53798496" />
<polygon id="78501 PORCHEVILLE" points="1.762926635,48.96680814 1.751753677,48.96735787 1.751987383,48.97412333 1.76219038,48.9896975 1.775457151,48.98863755 1.771521698,48.98227507 1.785987787,48.97833042 1.785941217,48.9680416 1.762926635,48.96680814" />
<polygon id="78502 LE PORT-MARLY" points="2.109398751,48.87283545 2.104393405,48.872933 2.101094624,48.8855353 2.107096912,48.88940247 2.110267283,48.8874385 2.119794118,48.87811065 2.109398751,48.87283545" />
<polygon id="78503 PORT-VILLEZ" points="1.5188533,49.04113477 1.503031084,49.04949117 1.503301261,49.05909924 1.512821875,49.07785102 1.510268798,49.08428531 1.516567561,49.07994769 1.521347391,49.06835172 1.533165303,49.04780351 1.531748383,49.04662608 1.5188533,49.04113477" />
<polygon id="78505 PRUNAY-LE-TEMPLE" points="1.658914411,48.84163414 1.652197379,48.84528242 1.658777176,48.86708711 1.664097332,48.87175174 1.689783799,48.87289014 1.696313058,48.86860819 1.67025845,48.84458509 1.658914411,48.84163414" />
<polygon id="78506 PRUNAY-EN-YVELINES" points="1.829610196,48.49657199 1.825422693,48.48710183 1.812919579,48.4815973 1.800144136,48.48634533 1.796336238,48.48419249 1.786640225,48.49147142 1.789522946,48.49794269 1.776842428,48.51287372 1.776300604,48.52681327 1.787245052,48.55374456 1.796854858,48.55544356 1.808418285,48.56661667 1.818393031,48.5678947 1.819375736,48.57120614 1.83232259,48.57117197 1.832589596,48.56344667 1.828516671,48.53221554 1.818908942,48.52936749 1.811795395,48.51631426 1.812602447,48.50937676 1.829610196,48.49657199" />
<polygon id="78513 LA QUEUE-LES-YVELINES" points="1.767947633,48.79182535 1.729075344,48.79819138 1.748342358,48.80324291 1.781204885,48.8163999 1.791087781,48.80957439 1.787713626,48.79713653 1.778282989,48.79578123 1.769007227,48.79826755 1.767947633,48.79182535" />
<polygon id="78516 RAIZEUX" points="1.666354498,48.61370824 1.657429178,48.62156072 1.656908704,48.62809517 1.649567304,48.6322764 1.651574528,48.6381287 1.675946151,48.6249977 1.680766971,48.6264816 1.691167048,48.6534228 1.709093993,48.66040131 1.717317828,48.65619004 1.709581551,48.63293266 1.697992171,48.62741783 1.690809696,48.61724529 1.682125996,48.6188588 1.666354498,48.61370824" />
<polygon id="78517 RAMBOUILLET" points="1.827546682,48.6192188 1.822350107,48.63489252 1.80234848,48.63884924 1.776490657,48.63826263 1.768876653,48.64284412 1.766793306,48.65290701 1.786790275,48.66414115 1.785978084,48.67455894 1.787264731,48.67764856 1.803454689,48.684262 1.812593385,48.68804153 1.832860851,48.67785175 1.848264382,48.6784873 1.842307467,48.66531399 1.856740167,48.66173808 1.872168336,48.66291057 1.888039299,48.654145 1.902771575,48.65087219 1.893258472,48.65003758 1.883126177,48.64387991 1.877057072,48.63507894 1.857693812,48.63423814 1.830928941,48.6202686 1.827546682,48.6192188" />
<polygon id="78518 RENNEMOULIN" points="2.034785407,48.82617208 2.030921178,48.83179813 2.041544969,48.84304532 2.051618411,48.8368568 2.052683141,48.83074929 2.047715943,48.82673445 2.034785407,48.82617208" />
<polygon id="78520 RICHEBOURG" points="1.620053249,48.80138086 1.619150624,48.80821563 1.608708426,48.81984195 1.621940989,48.82888209 1.620389342,48.8447849 1.623661861,48.8488432 1.643457766,48.83863553 1.648559315,48.83895412 1.652197379,48.84528242 1.658914411,48.84163414 1.652073566,48.82319904 1.656204439,48.82148256 1.651272574,48.81203641 1.628816148,48.80368548 1.625488395,48.80491556 1.620053249,48.80138086" />
<polygon id="78522 ROCHEFORT-EN-YVELINES" points="1.958298926,48.57589514 1.953868165,48.57713372 1.950496993,48.58637903 1.955721047,48.5950432 1.959224604,48.60505042 1.966707662,48.60940665 1.986718726,48.60861607 2.004067711,48.60225844 2.009650895,48.59894055 2.010963794,48.58902894 2.002493768,48.58092481 1.958298926,48.57589514" />
<polygon id="78524 ROCQUENCOURT" points="2.112676125,48.82851124 2.100600376,48.82413987 2.091738803,48.82380307 2.08912012,48.82633746 2.102663857,48.84274592 2.110636174,48.84108762 2.120545689,48.83602536 2.112676125,48.82851124" />
<polygon id="78528 ROLLEBOISE" points="1.614141979,49.01204609 1.600544702,49.01029651 1.584356937,49.01634805 1.587658021,49.02417512 1.601629407,49.02738736 1.611170101,49.02604121 1.617050252,49.02810557 1.614141979,49.01204609" />
<polygon id="78530 ROSAY" points="1.696811486,48.89936482 1.667183098,48.90621604 1.666605005,48.91227161 1.67644467,48.92294865 1.691617179,48.9198595 1.702290093,48.91216884 1.697387259,48.90742976 1.696811486,48.89936482" />
<polygon id="78531 ROSNY-SUR-SEINE" points="1.654335039,48.98203397 1.651261917,48.98040761 1.644697251,48.98274388 1.631077426,48.98729282 1.601482145,48.98258959 1.587270428,48.98715369 1.567148823,48.98341653 1.547395665,48.9910394 1.574855025,49.00485897 1.584356937,49.01634805 1.600544702,49.01029651 1.614141979,49.01204609 1.6370204,49.00401626 1.657976271,49.00611404 1.656069533,48.99738718 1.664047705,48.9948772 1.654335039,48.98203397" />
<polygon id="78536 SAILLY" points="1.785234167,49.03103101 1.772786314,49.04212744 1.787231824,49.05148268 1.78938152,49.05786213 1.794299675,49.05819935 1.810653884,49.04674394 1.812421156,49.04065541 1.799614896,49.03131952 1.785234167,49.03103101" />
<polygon id="78537 SAINT-ARNOULT-EN-YVELINES" points="1.934125187,48.54864719 1.927670217,48.55154898 1.916456662,48.55778978 1.902147088,48.55770355 1.899793888,48.56392528 1.908747603,48.56744434 1.915249582,48.57682391 1.928634188,48.58195604 1.935083609,48.58617914 1.932558902,48.60094605 1.955721047,48.5950432 1.950496993,48.58637903 1.953868165,48.57713372 1.958298926,48.57589514 1.962684635,48.56048697 1.93796478,48.56178021 1.934125187,48.54864719" />
<polygon id="78545 SAINT-CYR-L'ECOLE" points="2.070251387,48.78981062 2.053611708,48.79460892 2.050125421,48.79841285 2.048458423,48.80322054 2.060286579,48.81704828 2.070680908,48.82301168 2.083174638,48.81895285 2.070251387,48.78981062" />
<polygon id="78548 SAINT-FORGET" points="2.020820821,48.69645453 2.019520024,48.69698355 1.999368956,48.6998026 1.993036674,48.70896034 1.970862722,48.71755934 1.971530094,48.72094724 1.988680127,48.72900041 2.004349825,48.72082081 2.002901161,48.71409842 2.023426096,48.70319525 2.020820821,48.69645453" />
<polygon id="78550 SAINT-GERMAIN-DE-LA-GRANGE" points="1.913066136,48.81993795 1.901268932,48.82196179 1.89022651,48.83135784 1.88135333,48.831554 1.882091589,48.83460997 1.888578764,48.84665973 1.893278662,48.84737786 1.918172631,48.83575124 1.921737091,48.8261236 1.917838586,48.82034101 1.913066136,48.81993795" />
<polygon id="78551 SAINT-GERMAIN-EN-LAYE" points="2.091815253,48.88587898 2.087831431,48.88441872 2.075082276,48.8874057 2.054452747,48.8976681 2.052729085,48.90693576 2.039885102,48.91687015 2.044986903,48.92290949 2.054601989,48.92550387 2.063219382,48.94111182 2.070157211,48.9463099 2.075675644,48.95231498 2.075634134,48.96617284 2.086659564,48.97377536 2.088198795,48.97714139 2.08706638,48.98405722 2.108124305,48.98229118 2.122047961,48.9870611 2.143263034,48.98570371 2.166086586,48.97684487 2.172905176,48.96386156 2.147465234,48.96525715 2.134469098,48.95584742 2.127853526,48.9431913 2.122791996,48.94217413 2.122239694,48.93202586 2.110353346,48.92071469 2.104127722,48.90740316 2.09925133,48.89039595 2.091815253,48.88587898" />
<polygon id="78557 SAINT-HILARION" points="1.752669946,48.60860722 1.738343397,48.60413805 1.71812508,48.60717874 1.715143387,48.61314714 1.691464017,48.61440965 1.6891208,48.61154103 1.68323794,48.61511064 1.690809696,48.61724529 1.697992171,48.62741783 1.709581551,48.63293266 1.713439932,48.63112119 1.729496765,48.64616404 1.739946739,48.63841248 1.757850133,48.63156559 1.759680433,48.6213381 1.752669946,48.60860722" />
<polygon id="78558 SAINT-ILLIERS-LA-VILLE" points="1.565940138,48.9777001 1.550131888,48.96448706 1.535812537,48.96512251 1.528356055,48.96988791 1.520304411,48.97823403 1.529497023,48.98605471 1.538907331,48.98720397 1.546059981,48.99188661 1.547395665,48.9910394 1.567148823,48.98341653 1.565940138,48.9777001" />
<polygon id="78559 SAINT-ILLIERS-LE-BOIS" points="1.51099582,48.95357447 1.501099381,48.95293848 1.495225188,48.96574429 1.518387886,48.97836327 1.520304411,48.97823403 1.528356055,48.96988791 1.523092237,48.96138694 1.51099582,48.95357447" />
<polygon id="78561 SAINT-LAMBERT" points="2.004349825,48.72082081 1.988680127,48.72900041 1.987763563,48.74542631 1.991707355,48.74756447 2.006299266,48.74626563 2.018838003,48.74127827 2.029337974,48.72659454 2.034230994,48.72594163 2.004349825,48.72082081" />
<polygon id="78562 SAINT-LEGER-EN-YVELINES" points="1.72625975,48.69548063 1.717002305,48.69839495 1.706388192,48.70995662 1.709667521,48.71256486 1.713312059,48.71029236 1.714701793,48.71347377 1.711476443,48.73622446 1.722939509,48.74349892 1.744067234,48.74271559 1.764097135,48.73829209 1.767348054,48.76592278 1.780863019,48.7692727 1.781968312,48.76622568 1.794565,48.75988607 1.819817223,48.76465377 1.821404573,48.75581838 1.809060106,48.74652093 1.794976194,48.73617909 1.790764031,48.72251765 1.782376839,48.71371585 1.786222281,48.707926 1.72625975,48.69548063" />
<polygon id="78564 SAINT-MARTIN-DE-BRETHENCOURT" points="1.934278601,48.49577568 1.916037644,48.49351439 1.906844573,48.48712336 1.900958468,48.49223324 1.897868842,48.5046472 1.893040314,48.50506114 1.891497052,48.51146144 1.88257268,48.51405888 1.884634339,48.52026797 1.898958323,48.52240777 1.900924626,48.52875059 1.892486712,48.53192904 1.894087833,48.53501177 1.896490743,48.53798496 1.90095932,48.54325332 1.917352446,48.53869855 1.919852149,48.53244172 1.938687537,48.52274217 1.952893097,48.52348892 1.934278601,48.49577568" />
<polygon id="78565 SAINT-MARTIN-DES-CHAMPS" points="1.701853375,48.86567329 1.696313058,48.86860819 1.689783799,48.87289014 1.717310246,48.89070898 1.722083822,48.88960877 1.748336924,48.87949789 1.752217667,48.87802739 1.750029556,48.87545022 1.74127681,48.8742702 1.739913354,48.87144965 1.731439528,48.87396847 1.729202261,48.87121948 1.719877708,48.87227138 1.701853375,48.86567329" />
<polygon id="78567 SAINT-MARTIN-LA-GARENNE" points="1.674538185,49.0192123 1.63621568,49.0258157 1.626314179,49.02480351 1.618329691,49.02884874 1.64296904,49.03741236 1.683228816,49.05071138 1.693668225,49.05667967 1.723457162,49.04497658 1.711475849,49.03054994 1.707021648,49.02873044 1.696950308,49.03060002 1.683953366,49.01998137 1.674538185,49.0192123" />
<polygon id="78569 SAINTE-MESME" points="1.952893097,48.52348892 1.938687537,48.52274217 1.919852149,48.53244172 1.917352446,48.53869855 1.910069717,48.54689077 1.911878721,48.54982218 1.925272932,48.54884641 1.927670217,48.55154898 1.934125187,48.54864719 1.962064569,48.5349949 1.976093448,48.53456776 1.977253142,48.52789338 1.967669117,48.52623615 1.96388551,48.52784959 1.952893097,48.52348892" />
<polygon id="78571 SAINT-NOM-LA-BRETECHE" points="2.035476598,48.84550587 2.026442873,48.84253663 2.01545378,48.84864355 2.005748583,48.84947168 2.00939339,48.85130071 1.990617265,48.85953514 1.988603659,48.86495945 1.995498718,48.87358864 2.013966547,48.87754656 2.020252868,48.88259867 2.037199223,48.87765472 2.046811515,48.87470976 2.036302563,48.86789829 2.044011732,48.86382297 2.035476598,48.84550587" />
<polygon id="78575 SAINT-REMY-LES-CHEVREUSE" points="2.082078805,48.68545492 2.069763142,48.68893057 2.066511581,48.68689924 2.055658739,48.68678681 2.055518385,48.69981965 2.066560867,48.71761773 2.07237408,48.7232489 2.073239288,48.71662638 2.087142379,48.71989975 2.100744439,48.7154876 2.105537547,48.71658502 2.107693289,48.71770753 2.110332693,48.71438114 2.097183445,48.70052006 2.097852608,48.6940307 2.089331408,48.69804071 2.082078805,48.68545492" />
<polygon id="78576 SAINT-REMY-L'HONORE" points="1.90328857,48.73824879 1.873847305,48.73251466 1.853383382,48.73309341 1.853274633,48.7498142 1.858964194,48.75960125 1.867333741,48.76011268 1.869040323,48.76548981 1.882620924,48.76669701 1.889945589,48.77033624 1.89348425,48.76517008 1.89559543,48.74255844 1.90328857,48.73824879" />
<polygon id="78586 SARTROUVILLE" points="2.160838792,48.92026953 2.142430773,48.93512179 2.17314149,48.95329658 2.205858347,48.94974074 2.206092558,48.94065943 2.198926853,48.93525192 2.182881354,48.93653752 2.167915863,48.92657813 2.160838792,48.92026953" />
<polygon id="78588 SAULX-MARCHAIS" points="1.839218875,48.83016308 1.832720479,48.83381451 1.833918032,48.84362103 1.824846561,48.8506917 1.824653951,48.85379282 1.837521034,48.85681466 1.84727164,48.84920096 1.841905889,48.84350974 1.839218875,48.83016308" />
<polygon id="78590 SENLISSE" points="2.000764649,48.66802497 1.990225768,48.67577115 1.958762607,48.67739855 1.935192187,48.68556509 1.937892292,48.68773906 1.943273387,48.69508207 1.957701288,48.69179981 1.965868928,48.69582883 1.980543874,48.69583823 2.003423431,48.6888534 1.996724746,48.68464142 2.000764649,48.66802497" />
<polygon id="78591 SEPTEUIL" points="1.664097332,48.87175174 1.666586042,48.87466668 1.662185667,48.88725458 1.666457919,48.88872333 1.668194069,48.89496664 1.662852731,48.90376635 1.667183098,48.90621604 1.696811486,48.89936482 1.717310246,48.89070898 1.689783799,48.87289014 1.664097332,48.87175174" />
<polygon id="78597 SOINDRES" points="1.656616023,48.93978039 1.659033617,48.9455635 1.6534327,48.95094193 1.648473672,48.95102104 1.649356296,48.95436766 1.661278587,48.96019437 1.665907148,48.96983314 1.674925606,48.96169501 1.699335971,48.95775328 1.694827621,48.95237107 1.66515068,48.94077513 1.656616023,48.93978039" />
<polygon id="78601 SONCHAMP" points="1.894087833,48.53501177 1.876143874,48.54171687 1.872429327,48.54812321 1.85475351,48.56020749 1.850072195,48.56169172 1.840521462,48.55903502 1.832589596,48.56344667 1.83232259,48.57117197 1.824448495,48.59404404 1.830928941,48.6202686 1.857693812,48.63423814 1.877057072,48.63507894 1.892020273,48.62644809 1.875220602,48.61443396 1.928634188,48.58195604 1.915249582,48.57682391 1.908747603,48.56744434 1.899793888,48.56392528 1.902147088,48.55770355 1.894945097,48.55347152 1.896490743,48.53798496 1.894087833,48.53501177" />
<polygon id="78605 TACOIGNIERES" points="1.656204439,48.82148256 1.652073566,48.82319904 1.658914411,48.84163414 1.67025845,48.84458509 1.676740332,48.84048348 1.677094539,48.83189752 1.672430445,48.82672785 1.656204439,48.82148256" />
<polygon id="78606 LE TARTRE-GAUDRAN" points="1.62600482,48.69485357 1.628929657,48.68903092 1.620325831,48.68657476 1.611295049,48.68845803 1.582188999,48.69605896 1.582495398,48.70430283 1.594878195,48.70931607 1.602291785,48.7050402 1.62600482,48.69485357" />
<polygon id="78608 LE TERTRE-SAINT-DENIS" points="1.61829357,48.93307595 1.606088581,48.93718875 1.589173218,48.94525626 1.593545935,48.95068599 1.602828025,48.95133416 1.605436658,48.94877431 1.620321348,48.9436042 1.629169133,48.94100756 1.61829357,48.93307595" />
<polygon id="78609 TESSANCOURT-SUR-AUBETTE" points="1.907059475,49.01225586 1.905083695,49.02556507 1.91247369,49.04161205 1.937802165,49.02177633 1.931983413,49.01748915 1.919474003,49.01482328 1.914951705,49.01598751 1.907059475,49.01225586" />
<polygon id="78615 THIVERVAL-GRIGNON" points="1.968792679,48.83483127 1.94325826,48.83696487 1.930890041,48.8261788 1.921737091,48.8261236 1.918172631,48.83575124 1.893278662,48.84737786 1.9030441,48.84635253 1.912716945,48.86084936 1.921711343,48.85832247 1.961381702,48.8518919 1.970646934,48.84097224 1.968792679,48.83483127" />
<polygon id="78616 THOIRY" points="1.791696955,48.85439994 1.78694275,48.85545813 1.78665382,48.86201202 1.775130925,48.87261572 1.789082514,48.88596099 1.809924587,48.8858282 1.823215343,48.87645291 1.812093037,48.86968742 1.805999684,48.86012894 1.791696955,48.85439994" />
<polygon id="78618 TILLY" points="1.572071758,48.86392528 1.559559969,48.86725625 1.55883868,48.86425236 1.546231337,48.87243789 1.563741879,48.89062929 1.56861317,48.89304416 1.573222842,48.88809829 1.585663742,48.88803003 1.595060919,48.88854542 1.60704336,48.87706467 1.595922492,48.87227559 1.577495074,48.86951254 1.572071758,48.86392528" />
<polygon id="78620 TOUSSUS-LE-NOBLE" points="2.134979897,48.73713928 2.117747165,48.74136659 2.104654424,48.73797705 2.10104905,48.74755629 2.106444271,48.75735595 2.123282122,48.75352314 2.128439648,48.75339899 2.131088572,48.7470771 2.138892811,48.74312204 2.134979897,48.73713928" />
<polygon id="78621 TRAPPES" points="1.991707355,48.74756447 1.973475056,48.75341764 1.978059992,48.75963637 1.973507485,48.76560579 1.976015744,48.77230137 1.970907901,48.78565942 1.985935301,48.79964836 1.986479116,48.79968895 1.994400509,48.79911726 2.022284832,48.78526336 2.00890823,48.7678926 2.011238395,48.76196646 1.991707355,48.74756447" />
<polygon id="78623 LE TREMBLAY-SUR-MAULDRE" points="1.869040323,48.76548981 1.863228557,48.77057069 1.870019835,48.77932409 1.866002617,48.78569027 1.872623707,48.79865124 1.875821511,48.80504951 1.885899951,48.80431637 1.889945589,48.77033624 1.882620924,48.76669701 1.869040323,48.76548981" />
<polygon id="78624 TRIEL-SUR-SEINE" points="2.00356966,48.94132326 2.002521172,48.95399492 1.996151247,48.96706266 1.997974693,48.97379567 1.993307514,48.98342399 1.982514783,48.99243372 2.004889103,49.01007624 2.007630934,49.00823746 2.02361373,48.99790106 2.024722631,48.99561693 2.020437441,48.99384643 2.026211825,48.98470279 2.023417014,48.97855594 2.028235253,48.95906235 2.008322701,48.94192925 2.00356966,48.94132326" />
<polygon id="78638 VAUX-SUR-SEINE" points="1.982514783,48.99243372 1.961396605,49.00292725 1.946468883,49.00638525 1.93710153,49.00657244 1.936111079,49.01021473 1.951697073,49.0121594 1.957081174,49.02180147 1.967144289,49.02320138 1.981510298,49.01927745 1.991881552,49.02101063 2.004889103,49.01007624 1.982514783,48.99243372" />
<polygon id="78640 VELIZY-VILLACOUBLAY" points="2.226559327,48.77610203 2.227194111,48.77275127 2.222893956,48.7709335 2.207691001,48.77028498 2.200753095,48.774619 2.190662977,48.77503676 2.161929189,48.78223199 2.168168049,48.78787003 2.182939877,48.79722698 2.202635045,48.79840332 2.209148286,48.79354479 2.210036359,48.78703887 2.224203282,48.7844604 2.226627708,48.78158897 2.226559327,48.77610203" />
<polygon id="78642 VERNEUIL-SUR-SEINE" points="1.953586536,48.96994531 1.949439854,48.97979239 1.939088359,48.98090635 1.946468883,49.00638525 1.961396605,49.00292725 1.982514783,48.99243372 1.993307514,48.98342399 1.968309048,48.97145778 1.953586536,48.96994531" />
<polygon id="78643 VERNOUILLET" points="1.969467129,48.9461161 1.95573515,48.95682509 1.953586536,48.96994531 1.968309048,48.97145778 1.993307514,48.98342399 1.997974693,48.97379567 1.996151247,48.96706266 1.979300104,48.95851188 1.969467129,48.9461161" />
<polygon id="78644 LA VERRIERE" points="1.937122798,48.74830534 1.940190234,48.75667083 1.951944219,48.75937405 1.964447051,48.76210959 1.967799891,48.75699362 1.958146374,48.75536268 1.956509072,48.74880015 1.937122798,48.74830534" />
<polygon id="78646 VERSAILLES" points="2.146395118,48.79084649 2.142014644,48.79233515 2.125014464,48.78083407 2.105472175,48.78074332 2.070251387,48.78981062 2.083174638,48.81895285 2.08912012,48.82633746 2.091738803,48.82380307 2.100600376,48.82413987 2.112676125,48.82851124 2.114001309,48.82187448 2.131007668,48.81486698 2.136072645,48.81493967 2.140437002,48.82446883 2.148475928,48.82849269 2.151465536,48.82140869 2.150744479,48.81884927 2.161274834,48.81278066 2.160154468,48.80032494 2.168168049,48.78787003 2.161929189,48.78223199 2.146395118,48.79084649" />
<polygon id="78647 VERT" points="1.660186184,48.93262528 1.66515068,48.94077513 1.694827621,48.95237107 1.694269552,48.94577263 1.698418443,48.94366826 1.702883115,48.94257445 1.702820802,48.93631413 1.67383636,48.93318184 1.660186184,48.93262528" />
<polygon id="78650 LE VESINET" points="2.144932867,48.88338319 2.135559274,48.88533942 2.129363382,48.87664272 2.118188802,48.89077973 2.113065031,48.89933065 2.120242856,48.90320578 2.125952172,48.90766332 2.135995118,48.90591953 2.145855525,48.89364234 2.144932867,48.88338319" />
<polygon id="78653 VICQ" points="1.847901304,48.81270786 1.829003494,48.81126502 1.811187806,48.81496584 1.813816227,48.82155796 1.806116395,48.83005307 1.826069228,48.82969294 1.832720479,48.83381451 1.839218875,48.83016308 1.841537491,48.82881842 1.847901304,48.81270786" />
<polygon id="78655 VIEILLE-EGLISE-EN-YVELINES" points="1.902771575,48.65087219 1.888039299,48.654145 1.872168336,48.66291057 1.856740167,48.66173808 1.842307467,48.66531399 1.848264382,48.6784873 1.855465646,48.68150718 1.864808845,48.68102079 1.870337986,48.68603881 1.890227083,48.68349994 1.894192377,48.67714999 1.89224827,48.66376455 1.898528652,48.65829945 1.909021994,48.65778426 1.909677693,48.65238388 1.902771575,48.65087219" />
<polygon id="78668 LA VILLENEUVE-EN-CHEVRIE" points="1.545971291,48.99261402 1.53910802,49.00145228 1.517333063,49.0105475 1.50759295,49.01170387 1.496790459,49.01884482 1.49344822,49.0261146 1.502993665,49.02754704 1.508336869,49.03292862 1.523082481,49.03288606 1.535010082,49.02607135 1.559905139,49.03130085 1.555297918,49.01501256 1.559418632,49.00595174 1.545971291,48.99261402" />
<polygon id="78672 VILLENNES-SUR-SEINE" points="2.008618147,48.9206985 1.998111832,48.92840837 1.982363841,48.92896815 1.978490145,48.94551884 1.980861352,48.94853376 1.99601125,48.94885046 2.002521172,48.95399492 2.00356966,48.94132326 2.008405583,48.93471735 2.016906453,48.92405837 2.008618147,48.9206985" />
<polygon id="78674 VILLEPREUX" points="2.024795939,48.81185322 2.000393008,48.81393622 1.995914202,48.8272821 1.983641157,48.83353729 1.986776831,48.83973386 2.000680939,48.84368229 2.005748583,48.84947168 2.01545378,48.84864355 2.026442873,48.84253663 2.035476598,48.84550587 2.041544969,48.84304532 2.030921178,48.83179813 2.034785407,48.82617208 2.024795939,48.81185322" />
<polygon id="78677 VILLETTE" points="1.702290093,48.91216884 1.691617179,48.9198595 1.67644467,48.92294865 1.67383636,48.93318184 1.702820802,48.93631413 1.709403633,48.92794903 1.708153111,48.91784443 1.702290093,48.91216884" />
<polygon id="78681 VILLIERS-LE-MAHIEU" points="1.77804003,48.83230593 1.773433985,48.83177308 1.761115692,48.84103634 1.766417446,48.85020246 1.759018235,48.85873352 1.758615586,48.86876694 1.775130925,48.87261572 1.78665382,48.86201202 1.78694275,48.85545813 1.791696955,48.85439994 1.77804003,48.83230593" />
<polygon id="78683 VILLIERS-SAINT-FREDERIC" points="1.885072705,48.80543298 1.868949473,48.81300779 1.865896017,48.82253097 1.874862143,48.83437128 1.882091589,48.83460997 1.88135333,48.831554 1.89022651,48.83135784 1.901268932,48.82196179 1.888957982,48.80905796 1.893691576,48.80867012 1.894001107,48.80563285 1.885072705,48.80543298" />
<polygon id="78686 VIROFLAY" points="2.168168049,48.78787003 2.160154468,48.80032494 2.161274834,48.81278066 2.176739232,48.81401241 2.185935212,48.79982875 2.182939877,48.79722698 2.168168049,48.78787003" />
<polygon id="78688 VOISINS-LE-BRETONNEUX" points="2.068446544,48.7567148 2.061005617,48.75215919 2.045187351,48.75133217 2.025542613,48.75585971 2.04993104,48.76946719 2.05373553,48.76751859 2.068446544,48.7567148" />

</g>

</g>

</svg>
