<?xml version="1.0" standalone="no"?>
<!DOCTYPE svg PUBLIC "-//W3C//DTD SVG 1.1//EN" 
  "http://www.w3.org/Graphics/SVG/1.1/DTD/svg11.dtd">
<svg width="1000" height="857" viewBox="2.309814286 48.68902527 0.30500262 0.172384579999999"  preserveAspectRatio="none"
     xmlns="http://www.w3.org/2000/svg" version="1.1">

<style type="text/css" >
<![CDATA[

.communes { 
	fill           : #b9b9b9;
	fill-opacity   : 1;
	stroke         : white;
	stroke-opacity : 1;
	stroke-width   : 0.002;
}

]]>
</style>

<g transform="translate(0,48.86140985) scale(1,-1) translate(0,-48.68902527)">

<g class="communes">

<polygon id="94001 ABLON-SUR-SEINE" points="2.41426011,48.71781621 2.411013731,48.72604821 2.424944026,48.7289494 2.43365008,48.72726409 2.435125456,48.72409604 2.41426011,48.71781621" />
<polygon id="94002 ALFORTVILLE" points="2.42803141,48.77603126 2.414967459,48.77725416 2.422662558,48.79021602 2.4088847,48.80846928 2.408761633,48.81692285 2.415904474,48.81633739 2.424379692,48.80730374 2.432746023,48.78672967 2.42803141,48.77603126" />
<polygon id="94003 ARCUEIL" points="2.345097379,48.79707429 2.323937976,48.80155241 2.319062846,48.80997006 2.329063223,48.81378604 2.337761037,48.81304308 2.344893779,48.80569838 2.3478121,48.80098353 2.345097379,48.79707429" />
<polygon id="94004 BOISSY-SAINT-LEGER" points="2.536271911,48.72837252 2.52665996,48.72985483 2.51714668,48.73825343 2.511802693,48.74406 2.502635155,48.74705323 2.493418629,48.75919265 2.499965426,48.76309672 2.527062152,48.75601177 2.556647169,48.7545423 2.548605689,48.75010502 2.549481568,48.74317378 2.536271911,48.72837252" />
<polygon id="94011 BONNEUIL-SUR-MARNE" points="2.493418629,48.75919265 2.484597369,48.75705027 2.473296694,48.76209167 2.47465679,48.78781168 2.488317073,48.78419242 2.512764855,48.78523898 2.499333398,48.77509218 2.49562001,48.76507514 2.499965426,48.76309672 2.493418629,48.75919265" />
<polygon id="94015 BRY-SUR-MARNE" points="2.524957106,48.82739692 2.504679852,48.82972495 2.514789379,48.83098052 2.517022119,48.83406536 2.511714739,48.8436399 2.513670429,48.85016813 2.515648758,48.85138127 2.537155234,48.84196033 2.536654488,48.83851388 2.534632154,48.83307394 2.524957106,48.82739692" />
<polygon id="94016 CACHAN" points="2.325812023,48.78191098 2.318682795,48.78798654 2.323937976,48.80155241 2.345097379,48.79707429 2.342273116,48.7867696 2.34024304,48.78370042 2.325812023,48.78191098" />
<polygon id="94017 CHAMPIGNY-SUR-MARNE" points="2.522283141,48.8040656 2.515605844,48.80908424 2.480185391,48.8135223 2.482360782,48.81935967 2.475805616,48.83061816 2.497599519,48.83081062 2.504679852,48.82972495 2.524957106,48.82739692 2.532210085,48.81909741 2.557409057,48.81870768 2.563881182,48.81346117 2.558510959,48.80759554 2.550805983,48.80422116 2.531317565,48.80626887 2.522283141,48.8040656" />
<polygon id="94018 CHARENTON-LE-PONT" points="2.415904474,48.81633739 2.408761633,48.81692285 2.390069238,48.82569681 2.403295661,48.8292441 2.419985644,48.82408288 2.419588736,48.81691294 2.415904474,48.81633739" />
<polygon id="94019 CHENNEVIERES-SUR-MARNE" points="2.519746414,48.78086919 2.515416638,48.78108555 2.517189468,48.78657904 2.523185043,48.79476958 2.522283141,48.8040656 2.531317565,48.80626887 2.550805983,48.80422116 2.558510959,48.80759554 2.571680825,48.79894648 2.555456854,48.79209689 2.549970017,48.79696001 2.519746414,48.78086919" />
<polygon id="94021 CHEVILLY-LARUE" points="2.3437998,48.75628766 2.332580812,48.76451823 2.338958579,48.77335904 2.349243826,48.77243515 2.367271023,48.77937653 2.36788542,48.77134801 2.368955886,48.75708882 2.355376558,48.75955268 2.345735376,48.75923043 2.3437998,48.75628766" />
<polygon id="94022 CHOISY-LE-ROI" points="2.406365595,48.7510476 2.400902239,48.76369322 2.401551275,48.7735361 2.412047203,48.77434372 2.414967459,48.77725416 2.42803141,48.77603126 2.431362884,48.76752074 2.43591005,48.76726348 2.44358111,48.76240664 2.429216729,48.76097174 2.427431288,48.75134834 2.406365595,48.7510476" />
<polygon id="94028 CRETEIL" points="2.473296694,48.76209167 2.468464755,48.7623221 2.466719882,48.76532736 2.443912774,48.77086268 2.43591005,48.76726348 2.431362884,48.76752074 2.42803141,48.77603126 2.432746023,48.78672967 2.449582589,48.80351911 2.46389335,48.80738854 2.47465679,48.78781168 2.473296694,48.76209167" />
<polygon id="94033 FONTENAY-SOUS-BOIS" points="2.467259567,48.83908833 2.447852027,48.84481015 2.456228131,48.84649433 2.455489423,48.84937788 2.447103398,48.85115611 2.454295033,48.85542504 2.481534079,48.86140985 2.496392095,48.85990845 2.49971755,48.85567753 2.491523261,48.84763883 2.467259567,48.83908833" />
<polygon id="94034 FRESNES" points="2.330750484,48.74810233 2.323849274,48.75062685 2.320718018,48.74875624 2.309814286,48.75459402 2.31588478,48.76677127 2.332580812,48.76451823 2.3437998,48.75628766 2.335616556,48.74834537 2.330750484,48.74810233" />
<polygon id="94037 GENTILLY" points="2.344893779,48.80569838 2.337761037,48.81304308 2.329063223,48.81378604 2.331908932,48.81701279 2.343909438,48.81575715 2.352867224,48.81821631 2.356354375,48.8159597 2.344893779,48.80569838" />
<polygon id="94038 L'HAY-LES-ROSES" points="2.332580812,48.76451823 2.31588478,48.76677127 2.319928764,48.77071586 2.325812023,48.78191098 2.34024304,48.78370042 2.342273116,48.7867696 2.35766682,48.77906445 2.367271023,48.77937653 2.349243826,48.77243515 2.338958579,48.77335904 2.332580812,48.76451823" />
<polygon id="94041 IVRY-SUR-SEINE" points="2.4088847,48.80846928 2.393466689,48.80061233 2.375723272,48.80545864 2.37116607,48.80398673 2.367222959,48.80803117 2.364139036,48.81638808 2.390069238,48.82569681 2.408761633,48.81692285 2.4088847,48.80846928" />
<polygon id="94042 JOINVILLE-LE-PONT" points="2.460632172,48.8093705 2.454651974,48.81350749 2.462732665,48.81563962 2.461247497,48.81834904 2.465755861,48.82628372 2.475805616,48.83061816 2.482360782,48.81935967 2.480185391,48.8135223 2.476181341,48.81491684 2.460632172,48.8093705" />
<polygon id="94043 LE KREMLIN-BICETRE" points="2.3478121,48.80098353 2.344893779,48.80569838 2.356354375,48.8159597 2.364139036,48.81638808 2.367222959,48.80803117 2.3478121,48.80098353" />
<polygon id="94044 LIMEIL-BREVANNES" points="2.484547064,48.72907777 2.47629172,48.73747857 2.472907862,48.75074826 2.468322752,48.75222098 2.468464755,48.7623221 2.473296694,48.76209167 2.484597369,48.75705027 2.493418629,48.75919265 2.502635155,48.74705323 2.511802693,48.74406 2.51714668,48.73825343 2.510018093,48.73713607 2.510054892,48.73466278 2.484547064,48.72907777" />
<polygon id="94046 MAISONS-ALFORT" points="2.432746023,48.78672967 2.424379692,48.80730374 2.415904474,48.81633739 2.419588736,48.81691294 2.45078728,48.81582818 2.454651974,48.81350749 2.460632172,48.8093705 2.46389335,48.80738854 2.449582589,48.80351911 2.432746023,48.78672967" />
<polygon id="94047 MANDRES-LES-ROSES" points="2.544309615,48.69845182 2.531076672,48.69978571 2.526873889,48.70473412 2.529578737,48.70618395 2.554639662,48.71560743 2.568137258,48.70897415 2.568804056,48.70722263 2.554075732,48.69886651 2.544309615,48.69845182" />
<polygon id="94048 MAROLLES-EN-BRIE" points="2.553657332,48.72240356 2.536271911,48.72837252 2.549481568,48.74317378 2.548605689,48.75010502 2.556647169,48.7545423 2.570033081,48.75110151 2.572044054,48.74471385 2.559273877,48.73503453 2.553657332,48.72240356" />
<polygon id="94052 NOGENT-SUR-MARNE" points="2.465755861,48.82628372 2.467259567,48.83908833 2.491523261,48.84763883 2.497599519,48.83081062 2.475805616,48.83061816 2.465755861,48.82628372" />
<polygon id="94053 NOISEAU" points="2.571330948,48.7669718 2.562455661,48.76425039 2.542799085,48.76550789 2.5357303,48.77707395 2.561972313,48.78780388 2.565903375,48.77829365 2.572583586,48.77350595 2.571330948,48.7669718" />
<polygon id="94054 ORLY" points="2.370437363,48.72786484 2.36983722,48.74605743 2.392075855,48.75173123 2.406365595,48.7510476 2.427431288,48.75134834 2.436881474,48.74532213 2.412171338,48.74278355 2.389451031,48.73658031 2.384693454,48.73066451 2.370437363,48.72786484" />
<polygon id="94055 ORMESSON-SUR-MARNE" points="2.5357303,48.77707395 2.521894852,48.77809866 2.519746414,48.78086919 2.549970017,48.79696001 2.555456854,48.79209689 2.561972313,48.78780388 2.5357303,48.77707395" />
<polygon id="94056 PERIGNY" points="2.548997229,48.68902527 2.544309615,48.69845182 2.554075732,48.69886651 2.568804056,48.70722263 2.574345135,48.70100031 2.577676761,48.69901536 2.571660245,48.69202309 2.548997229,48.68902527" />
<polygon id="94058 LE PERREUX-SUR-MARNE" points="2.504679852,48.82972495 2.497599519,48.83081062 2.491523261,48.84763883 2.49971755,48.85567753 2.503941325,48.85723298 2.513670429,48.85016813 2.511714739,48.8436399 2.517022119,48.83406536 2.514789379,48.83098052 2.504679852,48.82972495" />
<polygon id="94059 LE PLESSIS-TREVISE" points="2.591542353,48.79737013 2.589494591,48.79463799 2.575914537,48.79395201 2.571680825,48.79894648 2.558510959,48.80759554 2.563881182,48.81346117 2.557409057,48.81870768 2.557603151,48.82151441 2.561836691,48.82178182 2.568498587,48.81828054 2.570077286,48.81511146 2.592280488,48.80743668 2.596498425,48.80607495 2.591542353,48.79737013" />
<polygon id="94060 LA QUEUE-EN-BRIE" points="2.577114344,48.75509322 2.573426346,48.7602967 2.578134218,48.76523319 2.575880013,48.76805833 2.571330948,48.7669718 2.572583586,48.77350595 2.565903375,48.77829365 2.561972313,48.78780388 2.555456854,48.79209689 2.571680825,48.79894648 2.575914537,48.79395201 2.589494591,48.79463799 2.591542353,48.79737013 2.598815563,48.79336554 2.587134647,48.77461842 2.591044366,48.7723294 2.606440141,48.7733075 2.614816906,48.76112091 2.597543958,48.76056928 2.588896825,48.76339095 2.581942897,48.7551372 2.577114344,48.75509322" />
<polygon id="94065 RUNGIS" points="2.353948215,48.73866005 2.340442439,48.7410057 2.330750484,48.74810233 2.335616556,48.74834537 2.3437998,48.75628766 2.345735376,48.75923043 2.355376558,48.75955268 2.368955886,48.75708882 2.36983722,48.74605743 2.353948215,48.73866005" />
<polygon id="94067 SAINT-MANDE" points="2.427516512,48.84157582 2.423034714,48.84272345 2.416543512,48.83468767 2.413654005,48.83722773 2.415973775,48.84662837 2.416339717,48.84923827 2.418968741,48.84933201 2.41945148,48.84636649 2.42793345,48.84455468 2.427516512,48.84157582" />
<polygon id="94068 SAINT-MAUR-DES-FOSSES" points="2.512764855,48.78523898 2.488317073,48.78419242 2.47465679,48.78781168 2.46389335,48.80738854 2.460632172,48.8093705 2.476181341,48.81491684 2.480185391,48.8135223 2.515605844,48.80908424 2.522283141,48.8040656 2.523185043,48.79476958 2.517189468,48.78657904 2.512764855,48.78523898" />
<polygon id="94069 SAINT-MAURICE" points="2.454651974,48.81350749 2.45078728,48.81582818 2.419588736,48.81691294 2.419985644,48.82408288 2.42988222,48.82335702 2.436690798,48.81846971 2.461247497,48.81834904 2.462732665,48.81563962 2.454651974,48.81350749" />
<polygon id="94070 SANTENY" points="2.568137258,48.70897415 2.554639662,48.71560743 2.553657332,48.72240356 2.559273877,48.73503453 2.572044054,48.74471385 2.570033081,48.75110151 2.577114344,48.75509322 2.581942897,48.7551372 2.588896825,48.76339095 2.597543958,48.76056928 2.599551076,48.75074544 2.587756905,48.74407658 2.594679183,48.73180512 2.58040574,48.7229863 2.568137258,48.70897415" />
<polygon id="94071 SUCY-EN-BRIE" points="2.570033081,48.75110151 2.556647169,48.7545423 2.527062152,48.75601177 2.499965426,48.76309672 2.49562001,48.76507514 2.499333398,48.77509218 2.512764855,48.78523898 2.517189468,48.78657904 2.515416638,48.78108555 2.519746414,48.78086919 2.521894852,48.77809866 2.5357303,48.77707395 2.542799085,48.76550789 2.562455661,48.76425039 2.571330948,48.7669718 2.575880013,48.76805833 2.578134218,48.76523319 2.573426346,48.7602967 2.577114344,48.75509322 2.570033081,48.75110151" />
<polygon id="94073 THIAIS" points="2.36983722,48.74605743 2.368955886,48.75708882 2.36788542,48.77134801 2.372247528,48.76956318 2.401551275,48.7735361 2.400902239,48.76369322 2.406365595,48.7510476 2.392075855,48.75173123 2.36983722,48.74605743" />
<polygon id="94074 VALENTON" points="2.472978587,48.72757016 2.471150604,48.73758182 2.462246169,48.7399975 2.451417939,48.75846746 2.44358111,48.76240664 2.43591005,48.76726348 2.443912774,48.77086268 2.466719882,48.76532736 2.468464755,48.7623221 2.468322752,48.75222098 2.472907862,48.75074826 2.47629172,48.73747857 2.484547064,48.72907777 2.475384701,48.72759874 2.472978587,48.72757016" />
<polygon id="94075 VILLECRESNES" points="2.529578737,48.70618395 2.52135526,48.71229451 2.510054892,48.73466278 2.510018093,48.73713607 2.51714668,48.73825343 2.52665996,48.72985483 2.536271911,48.72837252 2.553657332,48.72240356 2.554639662,48.71560743 2.529578737,48.70618395" />
<polygon id="94076 VILLEJUIF" points="2.367271023,48.77937653 2.35766682,48.77906445 2.342273116,48.7867696 2.345097379,48.79707429 2.3478121,48.80098353 2.367222959,48.80803117 2.37116607,48.80398673 2.375704202,48.78771343 2.367271023,48.77937653" />
<polygon id="94077 VILLENEUVE-LE-ROI" points="2.411013731,48.72604821 2.386585087,48.7200967 2.370706732,48.72017592 2.370437363,48.72786484 2.384693454,48.73066451 2.389451031,48.73658031 2.412171338,48.74278355 2.436881474,48.74532213 2.445176594,48.73389316 2.440127548,48.7254328 2.435125456,48.72409604 2.43365008,48.72726409 2.424944026,48.7289494 2.411013731,48.72604821" />
<polygon id="94078 VILLENEUVE-SAINT-GEORGES" points="2.45115518,48.7148795 2.442842773,48.72068742 2.440127548,48.7254328 2.445176594,48.73389316 2.436881474,48.74532213 2.427431288,48.75134834 2.429216729,48.76097174 2.44358111,48.76240664 2.451417939,48.75846746 2.462246169,48.7399975 2.471150604,48.73758182 2.472978587,48.72757016 2.462760976,48.72696695 2.449849977,48.72136753 2.45115518,48.7148795" />
<polygon id="94079 VILLIERS-SUR-MARNE" points="2.568498587,48.81828054 2.561836691,48.82178182 2.557603151,48.82151441 2.557409057,48.81870768 2.532210085,48.81909741 2.524957106,48.82739692 2.534632154,48.83307394 2.536654488,48.83851388 2.568665749,48.8244148 2.568498587,48.81828054" />
<polygon id="94080 VINCENNES" points="2.427516512,48.84157582 2.42793345,48.84455468 2.41945148,48.84636649 2.418968741,48.84933201 2.42916705,48.84886847 2.437246482,48.85279193 2.447103398,48.85115611 2.455489423,48.84937788 2.456228131,48.84649433 2.447852027,48.84481015 2.427516512,48.84157582" />
<polygon id="94081 VITRY-SUR-SEINE" points="2.401551275,48.7735361 2.372247528,48.76956318 2.36788542,48.77134801 2.367271023,48.77937653 2.375704202,48.78771343 2.37116607,48.80398673 2.375723272,48.80545864 2.393466689,48.80061233 2.4088847,48.80846928 2.422662558,48.79021602 2.414967459,48.77725416 2.412047203,48.77434372 2.401551275,48.7735361" />

</g>

</g>

</svg>
