<?xml version="1.0" standalone="no"?>
<!DOCTYPE svg PUBLIC "-//W3C//DTD SVG 1.1//EN" 
  "http://www.w3.org/Graphics/SVG/1.1/DTD/svg11.dtd">
<svg width="1000" height="509" viewBox="1.608796071 48.90867933 0.985678096 0.328698530000004"  preserveAspectRatio="none"
     xmlns="http://www.w3.org/2000/svg" version="1.1">

<style type="text/css" >
<![CDATA[

.communes { 
	fill           : #b9b9b9;
	fill-opacity   : 1;
	stroke         : white;
	stroke-opacity : 1;
	stroke-width   : 0.002;
}

]]>
</style>

<g transform="translate(0,49.23737786) scale(1,-1) translate(0,-48.90867933)">

<g class="communes">

<polygon id="95002 ABLEIGES" points="1.978613048,49.06925952 1.969834827,49.06678367 1.958744811,49.07180465 1.953222987,49.07821305 1.951176722,49.08599137 1.976488355,49.09787214 1.989016381,49.10918198 1.991147324,49.10806691 1.993599631,49.10238663 1.991688462,49.0858794 1.995076413,49.08342598 1.979823313,49.0752226 1.978613048,49.06925952" />
<polygon id="95008 AINCOURT" points="1.78938152,49.05786213 1.770733058,49.05778068 1.759422161,49.0632848 1.74826802,49.06729671 1.746512512,49.07311458 1.75502654,49.08108048 1.755772384,49.08765266 1.760776838,49.08735365 1.777519054,49.08976416 1.792819751,49.08181669 1.79654669,49.0722322 1.799408782,49.06625386 1.794299675,49.05819935 1.78938152,49.05786213" />
<polygon id="95011 AMBLEVILLE" points="1.692058956,49.12866471 1.67943761,49.13893971 1.674439567,49.13930738 1.67384311,49.15082858 1.678668539,49.15619589 1.694629978,49.16475942 1.704672386,49.16564117 1.709181687,49.17121952 1.718979319,49.17318543 1.721667103,49.17208104 1.718794685,49.16568437 1.708315692,49.15756071 1.702736417,49.1367383 1.692058956,49.12866471" />
<polygon id="95012 AMENUCOURT" points="1.623321874,49.08608288 1.619438282,49.08796277 1.620143032,49.09698144 1.627034582,49.10512661 1.648114415,49.12503167 1.655990791,49.13038936 1.671303289,49.12746613 1.669674675,49.11725094 1.676497274,49.10811808 1.658380383,49.09578654 1.652212971,49.10494383 1.647482006,49.10569104 1.642400811,49.09993257 1.633313502,49.09710489 1.623321874,49.08608288" />
<polygon id="95014 ANDILLY" points="2.292862068,48.99584204 2.290335704,48.99670838 2.295353864,49.00154888 2.291830954,49.00632107 2.299950031,49.01444377 2.301382961,49.02377703 2.312877572,49.0148242 2.310627838,49.00201527 2.292862068,48.99584204" />
<polygon id="95018 ARGENTEUIL" points="2.231143021,48.92773792 2.206092558,48.94065943 2.205858347,48.94974074 2.2067262,48.95998035 2.225735542,48.97103079 2.249072244,48.96397602 2.264544734,48.96215646 2.274623286,48.96414229 2.288460772,48.95898244 2.292278635,48.95138817 2.290973573,48.95096679 2.267584467,48.94608696 2.247595356,48.93673642 2.231143021,48.92773792" />
<polygon id="95019 ARNOUVILLE" points="2.424817483,48.97501934 2.414152324,48.98076785 2.400810232,48.9826623 2.408136525,48.99196981 2.416535297,48.99850339 2.432292432,48.97976699 2.424817483,48.97501934" />
<polygon id="95023 ARRONVILLE" points="2.127344089,49.1598707 2.115678445,49.15418406 2.087381672,49.16059941 2.075710739,49.16389107 2.073413893,49.16965475 2.076200031,49.17335353 2.084594184,49.18489021 2.095874523,49.19006429 2.115910082,49.18799223 2.130280267,49.19074916 2.139762356,49.18313001 2.143260989,49.18554653 2.153026059,49.1839253 2.16340106,49.17762323 2.157737988,49.17251283 2.145913573,49.16693602 2.131742471,49.17554701 2.127344089,49.1598707" />
<polygon id="95024 ARTHIES" points="1.79654669,49.0722322 1.792819751,49.08181669 1.777519054,49.08976416 1.784568405,49.10620151 1.79354344,49.11485237 1.815330093,49.10798318 1.816338635,49.10460309 1.80251567,49.08640085 1.81539413,49.07641208 1.79654669,49.0722322" />
<polygon id="95026 ASNIERES-SUR-OISE" points="2.354535962,49.12125675 2.34697336,49.11697205 2.336799076,49.12314735 2.341144019,49.13590277 2.338580219,49.14567103 2.351486897,49.14487812 2.359295697,49.14734752 2.373157956,49.15933354 2.394724109,49.14977864 2.410391643,49.15208616 2.440902618,49.14580321 2.438907184,49.14149623 2.428427926,49.14109627 2.421427949,49.13593792 2.41128154,49.13409049 2.390766363,49.13783656 2.374896026,49.13686506 2.365883926,49.13314053 2.354535962,49.12125675" />
<polygon id="95028 ATTAINVILLE" points="2.351985943,49.04472449 2.335293521,49.05147613 2.330033435,49.06365784 2.334604896,49.07530956 2.338639623,49.07660864 2.367251315,49.06829251 2.375177562,49.0635234 2.369840801,49.05452172 2.351985943,49.04472449" />
<polygon id="95039 AUVERS-SUR-OISE" points="2.126523774,49.0638255 2.120222348,49.06502942 2.130640183,49.07949234 2.130326497,49.08595521 2.146343007,49.09265199 2.1448455,49.0987737 2.149837408,49.10415914 2.159705364,49.10368001 2.173592146,49.08818466 2.180003427,49.07926376 2.193145931,49.07385869 2.188902436,49.07214865 2.166060899,49.0644391 2.145397919,49.06691958 2.135293668,49.06720697 2.126523774,49.0638255" />
<polygon id="95040 AVERNES" points="1.890590438,49.07156349 1.866962874,49.07677441 1.850858085,49.06846545 1.840642531,49.0693385 1.8236011,49.07667254 1.822561339,49.08207574 1.831060419,49.08277916 1.846564076,49.08370226 1.853366332,49.08873105 1.863361921,49.09056146 1.867603698,49.10008817 1.886419779,49.11601784 1.89896561,49.1141731 1.905776965,49.1114118 1.891179289,49.09395948 1.890590438,49.07156349" />
<polygon id="95042 BAILLET-EN-FRANCE" points="2.321950768,49.05075414 2.307968322,49.04776102 2.285008822,49.04912821 2.280446257,49.0506296 2.274186956,49.06876455 2.276896714,49.07170322 2.287288047,49.0714326 2.300351749,49.06580857 2.31548005,49.06734337 2.330033435,49.06365784 2.335293521,49.05147613 2.321950768,49.05075414" />
<polygon id="95046 BANTHELU" points="1.815330093,49.10798318 1.79354344,49.11485237 1.796001115,49.11755663 1.792450634,49.12295222 1.798500884,49.13145625 1.803485864,49.13157786 1.804441603,49.13766587 1.812707774,49.14114662 1.816689933,49.13961227 1.82341498,49.1434098 1.836024359,49.14035832 1.831575878,49.12005653 1.827638424,49.1166732 1.815330093,49.10798318" />
<polygon id="95051 BEAUCHAMP" points="2.21323685,49.00173105 2.197101133,49.00755021 2.174076167,49.01394945 2.183164435,49.02543189 2.20517976,49.01825993 2.202210247,49.00864538 2.21494624,49.00347779 2.21323685,49.00173105" />
<polygon id="95052 BEAUMONT-SUR-OISE" points="2.313583344,49.12278336 2.298787408,49.1370031 2.278243703,49.13522726 2.268058312,49.13940958 2.294154781,49.15115501 2.31191828,49.15016995 2.322738714,49.14657195 2.314990332,49.14174484 2.320079453,49.12467245 2.313583344,49.12278336" />
<polygon id="95054 LE BELLAY-EN-VEXIN" points="1.8822512,49.13781131 1.874490227,49.13990597 1.866687713,49.13823222 1.858215721,49.14022024 1.857520794,49.14314494 1.872974364,49.15981723 1.882443817,49.16128121 1.892026882,49.16194524 1.895355417,49.15952114 1.893561945,49.1440032 1.8822512,49.13781131" />
<polygon id="95055 BELLEFONTAINE" points="2.472446021,49.07103925 2.462109735,49.07271983 2.453733775,49.08963109 2.46311587,49.0971632 2.450001154,49.1007904 2.463549162,49.11086792 2.479054121,49.11212292 2.484187309,49.10691212 2.480151902,49.1050875 2.478398934,49.09556706 2.487913529,49.0943132 2.486594187,49.08928137 2.472446021,49.07103925" />
<polygon id="95056 BELLOY-EN-FRANCE" points="2.396421051,49.08648872 2.375936581,49.07550429 2.375567672,49.07204059 2.37040013,49.07269699 2.362689565,49.07981371 2.349401754,49.08065068 2.34573586,49.09021582 2.361450841,49.1070514 2.391650782,49.11036391 2.389054585,49.10752747 2.393561136,49.09809133 2.389896664,49.09183272 2.396421051,49.08648872" />
<polygon id="95058 BERNES-SUR-OISE" points="2.31191828,49.15016995 2.294154781,49.15115501 2.286412977,49.15992058 2.288759926,49.16970762 2.299505244,49.17715209 2.301197119,49.18388703 2.310592808,49.18487621 2.31191828,49.15016995" />
<polygon id="95059 BERVILLE" points="2.076200031,49.17335353 2.038235788,49.1921354 2.038367939,49.19240618 2.050487731,49.198778 2.069874244,49.20334373 2.080889546,49.21045007 2.080768838,49.20720347 2.090240486,49.20545022 2.095874523,49.19006429 2.084594184,49.18489021 2.076200031,49.17335353" />
<polygon id="95060 BESSANCOURT" points="2.183164435,49.02543189 2.168311247,49.03161553 2.173886484,49.03876685 2.185585719,49.04454777 2.18998875,49.04289602 2.214134436,49.04720177 2.223875293,49.04530484 2.228598877,49.04409436 2.228292724,49.04076532 2.220098428,49.03265543 2.195287263,49.03110693 2.183164435,49.02543189" />
<polygon id="95061 BETHEMONT-LA-FORET" points="2.253149647,49.04141702 2.234868071,49.04936782 2.255355109,49.07074443 2.262419556,49.05900867 2.259498253,49.04606925 2.253149647,49.04141702" />
<polygon id="95063 BEZONS" points="2.200591009,48.90867933 2.19919119,48.9189672 2.204617626,48.92373373 2.198926853,48.93525192 2.206092558,48.94065943 2.231143021,48.92773792 2.220399434,48.92061792 2.200591009,48.90867933" />
<polygon id="95074 BOISEMONT" points="2.007630934,49.00823746 2.004889103,49.01007624 1.991881552,49.02101063 1.991527537,49.02375039 2.009695424,49.02686015 2.011100674,49.02056797 2.013401252,49.01390542 2.007630934,49.00823746" />
<polygon id="95078 BOISSY-L'AILLERIE" points="2.034625894,49.06280759 2.032679784,49.06590322 2.024039997,49.06760481 2.024537073,49.0739213 2.015862422,49.07737547 2.026891611,49.09651921 2.03459237,49.1006456 2.039478375,49.1000553 2.046073459,49.09215901 2.045585136,49.08298338 2.034625894,49.06280759" />
<polygon id="95088 BONNEUIL-EN-FRANCE" points="2.456013952,48.95577699 2.447520177,48.9558011 2.418849758,48.95775186 2.418574854,48.9701243 2.424817483,48.97501934 2.432292432,48.97976699 2.45688087,48.95906322 2.456013952,48.95577699" />
<polygon id="95091 BOUFFEMONT" points="2.294403727,49.03024653 2.274775627,49.03644206 2.285008822,49.04912821 2.307968322,49.04776102 2.321950768,49.05075414 2.324541721,49.04508583 2.313647005,49.03832504 2.304411408,49.03757052 2.294403727,49.03024653" />
<polygon id="95094 BOUQUEVAL" points="2.443238244,49.01264908 2.429427643,49.0154797 2.425124189,49.01398446 2.421759342,49.01906683 2.410273733,49.02399257 2.428552351,49.02917944 2.434923161,49.03434401 2.43819783,49.0287214 2.443238244,49.01264908" />
<polygon id="95101 BRAY-ET-LU" points="1.671303289,49.12746613 1.655990791,49.13038936 1.653291838,49.14196803 1.662682502,49.1525035 1.664303912,49.15395123 1.670386152,49.15786711 1.678668539,49.15619589 1.67384311,49.15082858 1.674439567,49.13930738 1.671303289,49.12746613" />
<polygon id="95102 BREANCON" points="2.03008245,49.13090232 2.011336137,49.13172084 2.000269376,49.13573855 2.003887144,49.13787257 1.996338556,49.15897572 2.012397487,49.16589696 2.035873314,49.16136681 2.044813226,49.1642883 2.049242483,49.16275888 2.049501022,49.15614334 2.058546546,49.15324729 2.041260326,49.1458728 2.03008245,49.13090232" />
<polygon id="95110 BRIGNANCOURT" points="1.960922718,49.14482839 1.948520386,49.13125124 1.94422164,49.12972098 1.937400083,49.13430064 1.93389694,49.13206669 1.924573945,49.13958169 1.941559421,49.14601739 1.951484907,49.14523209 1.960146791,49.14797772 1.960922718,49.14482839" />
<polygon id="95116 BRUYERES-SUR-OISE" points="2.338580219,49.14567103 2.329938261,49.1420178 2.322738714,49.14657195 2.31191828,49.15016995 2.310592808,49.18487621 2.321776944,49.18443622 2.359295697,49.14734752 2.351486897,49.14487812 2.338580219,49.14567103" />
<polygon id="95119 BUHY" points="1.712606678,49.17797298 1.681200576,49.18274044 1.681360268,49.19262398 1.688897909,49.20105938 1.696667025,49.20530672 1.701751526,49.20556841 1.70660297,49.19978513 1.715582824,49.20284837 1.724875469,49.2005014 1.725913439,49.19401156 1.711538664,49.18120754 1.712606678,49.17797298" />
<polygon id="95120 BUTRY-SUR-OISE" points="2.193145931,49.07385869 2.180003427,49.07926376 2.173592146,49.08818466 2.184008249,49.08659234 2.197654436,49.09207922 2.208226072,49.09106131 2.206045371,49.08683881 2.193145931,49.07385869" />
<polygon id="95127 CERGY" points="2.083165987,49.01926952 2.073323926,49.01838463 2.062025962,49.02469953 2.052815695,49.0251218 2.038230127,49.03372852 2.038296568,49.03678646 2.015834727,49.03987771 2.001838752,49.05285506 2.010600887,49.05612878 2.024370972,49.05437101 2.027765174,49.05650271 2.054070647,49.05456357 2.072221766,49.04716965 2.085450418,49.03783822 2.084218391,49.03169606 2.090658278,49.0239666 2.083165987,49.01926952" />
<polygon id="95134 CHAMPAGNE-SUR-OISE" points="2.217447214,49.12416554 2.213416676,49.12615333 2.211687988,49.14252416 2.19846427,49.15660691 2.193067257,49.16513936 2.196877147,49.16701698 2.216360148,49.15437805 2.241582561,49.15157254 2.252897348,49.14637449 2.263612789,49.13593883 2.255738388,49.13179038 2.235042485,49.13034786 2.217447214,49.12416554" />
<polygon id="95139 LA CHAPELLE-EN-VEXIN" points="1.721667103,49.17208104 1.718979319,49.17318543 1.712606678,49.17797298 1.711538664,49.18120754 1.725913439,49.19401156 1.7389502,49.19218858 1.742694624,49.17980143 1.735358947,49.17521983 1.720981685,49.17540068 1.721667103,49.17208104" />
<polygon id="95141 CHARMONT" points="1.771943306,49.1286344 1.767240643,49.13221007 1.783691508,49.14474133 1.786835117,49.1421924 1.799547737,49.14600652 1.812707774,49.14114662 1.804441603,49.13766587 1.803485864,49.13157786 1.798500884,49.13145625 1.771943306,49.1286344" />
<polygon id="95142 CHARS" points="1.924573945,49.13958169 1.916187028,49.14349873 1.901855312,49.14005989 1.893561945,49.1440032 1.895355417,49.15952114 1.892026882,49.16194524 1.882443817,49.16128121 1.882568412,49.16249622 1.933924517,49.17334693 1.937433378,49.17076147 1.948017564,49.17086339 1.962697528,49.17460523 1.9779895,49.16412626 1.960146791,49.14797772 1.951484907,49.14523209 1.941559421,49.14601739 1.924573945,49.13958169" />
<polygon id="95144 CHATENAY-EN-FRANCE" points="2.481831731,49.05485012 2.452505408,49.06074452 2.441431423,49.06752724 2.441771339,49.06900345 2.451353394,49.07005464 2.45774155,49.07425574 2.462109735,49.07271983 2.472446021,49.07103925 2.481831731,49.05485012" />
<polygon id="95149 CHAUMONTEL" points="2.461309436,49.13660857 2.433198271,49.11717545 2.415546972,49.12401423 2.414659768,49.12736362 2.420116855,49.13309941 2.435398993,49.13394532 2.456394484,49.14011095 2.461071732,49.13970042 2.461309436,49.13660857" />
<polygon id="95150 CHAUSSY" points="1.707504074,49.09395066 1.703512462,49.09203726 1.699749352,49.09412783 1.68615611,49.10747763 1.676497274,49.10811808 1.669674675,49.11725094 1.671303289,49.12746613 1.674439567,49.13930738 1.67943761,49.13893971 1.692058956,49.12866471 1.722268922,49.12213735 1.733535811,49.11464015 1.738884277,49.11439061 1.744959698,49.10504831 1.740923253,49.09925106 1.736353667,49.10075879 1.707504074,49.09395066" />
<polygon id="95151 CHAUVRY" points="2.274775627,49.03644206 2.258271638,49.04001003 2.253149647,49.04141702 2.259498253,49.04606925 2.262419556,49.05900867 2.255355109,49.07074443 2.257284229,49.07365173 2.267781979,49.06781752 2.271919506,49.06943421 2.274186956,49.06876455 2.280446257,49.0506296 2.285008822,49.04912821 2.274775627,49.03644206" />
<polygon id="95154 CHENNEVIERES-LES-LOUVRES" points="2.526070542,49.03005351 2.528282399,49.0379571 2.535957596,49.04991012 2.550033684,49.05311977 2.567262487,49.04761718 2.567710994,49.04139649 2.554754,49.03552245 2.526070542,49.03005351" />
<polygon id="95157 CHERENCE" points="1.691586605,49.07519994 1.650792597,49.0890022 1.653182259,49.09557556 1.658380383,49.09578654 1.676497274,49.10811808 1.68615611,49.10747763 1.699749352,49.09412783 1.703512462,49.09203726 1.707504074,49.09395066 1.703854465,49.07890292 1.691586605,49.07519994" />
<polygon id="95166 CLERY-EN-VEXIN" points="1.831575878,49.12005653 1.836024359,49.14035832 1.840665403,49.14302871 1.857520794,49.14314494 1.858215721,49.14022024 1.866687713,49.13823222 1.865719336,49.13238744 1.856055045,49.12200926 1.831575878,49.12005653" />
<polygon id="95169 COMMENY" points="1.89896561,49.1141731 1.886419779,49.11601784 1.881117468,49.11860326 1.881160663,49.12167889 1.865719336,49.13238744 1.866687713,49.13823222 1.874490227,49.13990597 1.8822512,49.13781131 1.895634298,49.129087 1.914894445,49.1266906 1.90789698,49.12260796 1.908716602,49.11946825 1.89896561,49.1141731" />
<polygon id="95170 CONDECOURT" points="1.937802165,49.02177633 1.91247369,49.04161205 1.914081504,49.04583509 1.917817015,49.05169591 1.936473994,49.04857131 1.94453753,49.05098045 1.949614435,49.04145702 1.960950221,49.03481127 1.954947812,49.02453465 1.945607277,49.02526232 1.937802165,49.02177633" />
<polygon id="95176 CORMEILLES-EN-PARISIS" points="2.205858347,48.94974074 2.17314149,48.95329658 2.178105164,48.95976961 2.185514395,48.9636601 2.183437886,48.9793473 2.204245168,48.99002647 2.20514936,48.98362075 2.228754239,48.97287575 2.225735542,48.97103079 2.2067262,48.95998035 2.205858347,48.94974074" />
<polygon id="95177 CORMEILLES-EN-VEXIN" points="2.026891611,49.09651921 2.018747564,49.10068819 1.993599631,49.10238663 1.991147324,49.10806691 2.002205792,49.11559535 2.011336137,49.13172084 2.03008245,49.13090232 2.043942985,49.10820146 2.039478375,49.1000553 2.03459237,49.1006456 2.026891611,49.09651921" />
<polygon id="95181 COURCELLES-SUR-VIOSNE" points="1.994738541,49.06342469 1.978613048,49.06925952 1.979823313,49.0752226 1.995076413,49.08342598 2.005836685,49.0776976 2.015039567,49.07745865 2.011803445,49.06770264 1.997751571,49.06612953 1.994738541,49.06342469" />
<polygon id="95183 COURDIMANCHE" points="1.991527537,49.02375039 1.991573089,49.03055811 1.983644839,49.03456486 1.994339486,49.06071469 2.010600887,49.05612878 2.001838752,49.05285506 2.015834727,49.03987771 2.009695424,49.02686015 1.991527537,49.02375039" />
<polygon id="95197 DEUIL-LA-BARRE" points="2.328341787,48.9596621 2.320123478,48.95840177 2.313176738,48.96222004 2.315934056,48.96440304 2.310849159,48.97193672 2.315644385,48.97188325 2.32103099,48.98093339 2.335157008,48.98096755 2.343399585,48.98061728 2.344308028,48.9779155 2.331950129,48.96898964 2.328341787,48.9596621" />
<polygon id="95199 DOMONT" points="2.321859055,49.01065791 2.312877572,49.0148242 2.301382961,49.02377703 2.295572073,49.02678243 2.294403727,49.03024653 2.304411408,49.03757052 2.313647005,49.03832504 2.324541721,49.04508583 2.33772692,49.0441072 2.340493608,49.03843949 2.354645958,49.02661091 2.325510673,49.01999442 2.321859055,49.01065791" />
<polygon id="95203 EAUBONNE" points="2.291858276,48.97624147 2.273819883,48.97668217 2.272734975,48.97708926 2.263474557,48.99817415 2.273375859,49.00648952 2.283143165,49.00295131 2.282734995,48.99984651 2.290335704,48.99670838 2.292862068,48.99584204 2.285380128,48.98440426 2.291858276,48.97624147" />
<polygon id="95205 ECOUEN" points="2.36364708,49.00957385 2.363450476,49.02003971 2.363865819,49.02184933 2.374985604,49.03742801 2.382904574,49.04201889 2.399577208,49.03972053 2.409546642,49.02420481 2.389662347,49.01402521 2.379580096,49.01346996 2.36364708,49.00957385" />
<polygon id="95210 ENGHIEN-LES-BAINS" points="2.313176738,48.96222004 2.298617177,48.96635333 2.293576628,48.97042439 2.297857372,48.97508072 2.303379426,48.97891677 2.307017295,48.97759796 2.310849159,48.97193672 2.315934056,48.96440304 2.313176738,48.96222004" />
<polygon id="95211 ENNERY" points="2.120222348,49.06502942 2.107287033,49.06125626 2.099192485,49.06957643 2.090414717,49.07221691 2.084140071,49.08420048 2.1164656,49.0935781 2.130326497,49.08595521 2.130640183,49.07949234 2.120222348,49.06502942" />
<polygon id="95212 EPIAIS-LES-LOUVRES" points="2.569339893,49.03959499 2.56297165,49.02759482 2.544746971,49.02260851 2.535014939,49.0238121 2.525579269,49.02694936 2.526070542,49.03005351 2.554754,49.03552245 2.567710994,49.04139649 2.569339893,49.03959499" />
<polygon id="95213 EPIAIS-RHUS" points="2.07261761,49.10080999 2.067608034,49.10143664 2.059806688,49.10950444 2.050165869,49.10942868 2.048113421,49.11976188 2.061730458,49.13034403 2.068208171,49.14347693 2.085309259,49.14908385 2.089372953,49.14715455 2.086185252,49.14138491 2.093620982,49.12605677 2.091845442,49.11635947 2.07261761,49.10080999" />
<polygon id="95214 EPINAY-CHAMPLATREUX" points="2.422296325,49.08386444 2.413967282,49.08077599 2.404910929,49.08270964 2.396421051,49.08648872 2.389896664,49.09183272 2.393561136,49.09809133 2.402088726,49.0995367 2.411038173,49.09643386 2.411130821,49.09309849 2.425931245,49.09185731 2.42298729,49.08696984 2.422296325,49.08386444" />
<polygon id="95218 ERAGNY" points="2.12125682,49.01849327 2.107910568,49.00906964 2.084914921,49.01467871 2.081014183,49.01647439 2.083165987,49.01926952 2.090658278,49.0239666 2.095793873,49.03607312 2.116025149,49.02303199 2.12125682,49.01849327" />
<polygon id="95219 ERMONT" points="2.272734975,48.97708926 2.249219183,48.97933641 2.242380838,48.98360086 2.243522539,48.99433615 2.250359431,49.00068276 2.252337979,49.00185513 2.263474557,48.99817415 2.272734975,48.97708926" />
<polygon id="95229 EZANVILLE" points="2.363865819,49.02184933 2.354645958,49.02661091 2.340493608,49.03843949 2.35171917,49.04198949 2.351985943,49.04472449 2.369840801,49.05452172 2.382904574,49.04201889 2.374985604,49.03742801 2.363865819,49.02184933" />
<polygon id="95241 FONTENAY-EN-PARISIS" points="2.43819783,49.0287214 2.434923161,49.03434401 2.418526967,49.04644978 2.411988803,49.05365639 2.413628024,49.05629899 2.422901476,49.05777359 2.441431423,49.06752724 2.452505408,49.06074452 2.481831731,49.05485012 2.482032683,49.05390686 2.474330558,49.04172547 2.464444758,49.04406464 2.459728354,49.04249692 2.442602041,49.03499134 2.43819783,49.0287214" />
<polygon id="95250 FOSSES" points="2.487913529,49.0943132 2.478398934,49.09556706 2.480151902,49.1050875 2.484187309,49.10691212 2.489930909,49.10636118 2.531062712,49.09959631 2.530765745,49.09609752 2.524519437,49.09788924 2.487913529,49.0943132" />
<polygon id="95252 FRANCONVILLE" points="2.228754239,48.97287575 2.20514936,48.98362075 2.204245168,48.99002647 2.21323685,49.00173105 2.21494624,49.00347779 2.21712819,49.00289854 2.243522539,48.99433615 2.242380838,48.98360086 2.237344488,48.98324522 2.23653979,48.97663953 2.228754239,48.97287575" />
<polygon id="95253 FREMAINVILLE" points="1.896311621,49.06640963 1.873351222,49.05553155 1.865468735,49.05747168 1.841442172,49.06478706 1.840642531,49.0693385 1.850858085,49.06846545 1.866962874,49.07677441 1.890590438,49.07156349 1.896311621,49.06640963" />
<polygon id="95254 FREMECOURT" points="1.991147324,49.10806691 1.989016381,49.10918198 1.975343857,49.12460404 1.982071982,49.13082044 2.000269376,49.13573855 2.011336137,49.13172084 2.002205792,49.11559535 1.991147324,49.10806691" />
<polygon id="95256 FREPILLON" points="2.173886484,49.03876685 2.175299953,49.04535882 2.194173213,49.05001892 2.204058875,49.06106406 2.231302714,49.05179089 2.223875293,49.04530484 2.214134436,49.04720177 2.18998875,49.04289602 2.185585719,49.04454777 2.173886484,49.03876685" />
<polygon id="95257 LA FRETTE-SUR-SEINE" points="2.178105164,48.95976961 2.17815528,48.96351097 2.175023435,48.97324663 2.166353805,48.98147796 2.173923846,48.98656621 2.183437886,48.9793473 2.185514395,48.9636601 2.178105164,48.95976961" />
<polygon id="95258 FROUVILLE" points="2.159918274,49.13955746 2.141707687,49.14439217 2.12873563,49.15375777 2.131556974,49.15554044 2.127344089,49.1598707 2.131742471,49.17554701 2.145913573,49.16693602 2.157737988,49.17251283 2.163930017,49.16610041 2.161048403,49.15947191 2.165048994,49.14262323 2.159918274,49.13955746" />
<polygon id="95259 GADANCOURT" points="1.831060419,49.08277916 1.848894904,49.1014302 1.858283728,49.10231101 1.872648404,49.11622226 1.881117468,49.11860326 1.886419779,49.11601784 1.867603698,49.10008817 1.863361921,49.09056146 1.853366332,49.08873105 1.846564076,49.08370226 1.831060419,49.08277916" />
<polygon id="95268 GARGES-LES-GONESSE" points="2.407383752,48.95613102 2.382446558,48.9712926 2.400810232,48.9826623 2.414152324,48.98076785 2.424817483,48.97501934 2.418574854,48.9701243 2.418849758,48.95775186 2.407383752,48.95613102" />
<polygon id="95270 GENAINVILLE" points="1.75417779,49.09019897 1.745244534,49.09328037 1.740923253,49.09925106 1.744959698,49.10504831 1.738884277,49.11439061 1.731139724,49.12298658 1.741544379,49.13797768 1.767240643,49.13221007 1.771943306,49.1286344 1.768818362,49.12578796 1.779054437,49.11817711 1.778107842,49.11126157 1.761605661,49.10309872 1.75417779,49.09019897" />
<polygon id="95271 GENICOURT" points="2.084140071,49.08420048 2.07922981,49.08472946 2.071830903,49.08050031 2.059882068,49.08571269 2.045585136,49.08298338 2.046073459,49.09215901 2.039478375,49.1000553 2.043942985,49.10820146 2.050165869,49.10942868 2.059806688,49.10950444 2.067608034,49.10143664 2.07261761,49.10080999 2.084311159,49.09079283 2.084140071,49.08420048" />
<polygon id="95277 GONESSE" points="2.459489866,48.95505532 2.456013952,48.95577699 2.45688087,48.95906322 2.432292432,48.97976699 2.416535297,48.99850339 2.425124189,49.01398446 2.429427643,49.0154797 2.443238244,49.01264908 2.449192553,49.00417895 2.463375127,49.00066431 2.468525653,48.9955077 2.478258254,48.99387785 2.483792034,48.999441 2.485641488,48.99899034 2.491070565,48.99026403 2.502532212,48.98482679 2.501882022,48.97853844 2.50051984,48.97528652 2.496009496,48.9727228 2.491127946,48.97324173 2.466572519,48.96345912 2.459489866,48.95505532" />
<polygon id="95280 GOUSSAINVILLE" points="2.491136453,49.01004715 2.466871462,49.00888975 2.443238244,49.01264908 2.43819783,49.0287214 2.442602041,49.03499134 2.459728354,49.04249692 2.464444758,49.04406464 2.474330558,49.04172547 2.48556121,49.02780067 2.498573493,49.02411505 2.491136453,49.01004715" />
<polygon id="95282 GOUZANGREZ" points="1.913672858,49.10784165 1.905776965,49.1114118 1.89896561,49.1141731 1.908716602,49.11946825 1.914636205,49.11416267 1.913672858,49.10784165" />
<polygon id="95287 GRISY-LES-PLATRES" points="2.043942985,49.10820146 2.03008245,49.13090232 2.041260326,49.1458728 2.058546546,49.15324729 2.068208171,49.14347693 2.061730458,49.13034403 2.048113421,49.11976188 2.050165869,49.10942868 2.043942985,49.10820146" />
<polygon id="95288 GROSLAY" points="2.344308028,48.9779155 2.343399585,48.98061728 2.335157008,48.98096755 2.337479605,48.99275151 2.351150218,48.99230465 2.361984577,48.98689537 2.365690974,48.9888394 2.367829788,48.98375199 2.364257139,48.97871531 2.344308028,48.9779155" />
<polygon id="95295 GUIRY-EN-VEXIN" points="1.848894904,49.1014302 1.827638424,49.1166732 1.831575878,49.12005653 1.856055045,49.12200926 1.865719336,49.13238744 1.881160663,49.12167889 1.881117468,49.11860326 1.872648404,49.11622226 1.858283728,49.10231101 1.848894904,49.1014302" />
<polygon id="95298 HARAVILLIERS" points="2.049242483,49.16275888 2.044813226,49.1642883 2.035873314,49.16136681 2.012397487,49.16589696 2.007924114,49.1718034 1.999112721,49.17503926 1.999445259,49.17557251 2.021784419,49.18867625 2.038235788,49.1921354 2.076200031,49.17335353 2.073413893,49.16965475 2.068789287,49.17061709 2.058266512,49.16412454 2.049242483,49.16275888" />
<polygon id="95301 HAUTE-ISLE" points="1.687592364,49.0718471 1.670822349,49.07891085 1.64659798,49.08132033 1.645479014,49.09376245 1.653182259,49.09557556 1.650792597,49.0890022 1.691586605,49.07519994 1.687592364,49.0718471" />
<polygon id="95303 LE HEAULME" points="1.996338556,49.15897572 1.990528292,49.16306316 1.991888849,49.16853228 1.999112721,49.17503926 2.007924114,49.1718034 2.012397487,49.16589696 1.996338556,49.15897572" />
<polygon id="95304 HEDOUVILLE" points="2.192624104,49.15574969 2.187461994,49.16061512 2.183625875,49.14740814 2.170096266,49.14152524 2.165048994,49.14262323 2.161048403,49.15947191 2.163930017,49.16610041 2.168270618,49.16475484 2.179350865,49.17068403 2.176583756,49.17654525 2.187373725,49.17322894 2.196877147,49.16701698 2.193067257,49.16513936 2.19846427,49.15660691 2.192624104,49.15574969" />
<polygon id="95306 HERBLAY" points="2.166353805,48.98147796 2.15264335,48.98610305 2.127452768,48.98905194 2.121573868,48.99489922 2.126808839,49.00866906 2.12125682,49.01849327 2.116025149,49.02303199 2.122244662,49.02799644 2.128675694,49.02287268 2.153991786,49.00650771 2.15886395,49.01204533 2.179728675,49.00228905 2.193616161,49.00574634 2.173923846,48.98656621 2.166353805,48.98147796" />
<polygon id="95308 HEROUVILLE" points="2.130326497,49.08595521 2.1164656,49.0935781 2.110626561,49.09873229 2.109435172,49.11149166 2.105550736,49.11355788 2.109012373,49.12333942 2.114212416,49.12288328 2.135135584,49.11609406 2.147531696,49.11029308 2.149837408,49.10415914 2.1448455,49.0987737 2.146343007,49.09265199 2.130326497,49.08595521" />
<polygon id="95309 HODENT" points="1.767240643,49.13221007 1.741544379,49.13797768 1.742531215,49.14700689 1.752199947,49.14621732 1.773945522,49.15230346 1.783691508,49.14474133 1.767240643,49.13221007" />
<polygon id="95313 L'ISLE-ADAM" points="2.250877876,49.09078614 2.245894338,49.08607932 2.236017553,49.08744663 2.206045371,49.08683881 2.208226072,49.09106131 2.20896744,49.09361982 2.20905268,49.11136977 2.217447214,49.12416554 2.235042485,49.13034786 2.262355363,49.12416154 2.25659785,49.11199672 2.263086229,49.10359365 2.260456074,49.10077215 2.250877876,49.09078614" />
<polygon id="95316 JAGNY-SOUS-BOIS" points="2.441771339,49.06900345 2.43799491,49.07526201 2.422296325,49.08386444 2.42298729,49.08696984 2.437479336,49.08872892 2.449213334,49.0950323 2.453733775,49.08963109 2.462109735,49.07271983 2.45774155,49.07425574 2.451353394,49.07005464 2.441771339,49.06900345" />
<polygon id="95323 JOUY-LE-MOUTIER" points="2.02361373,48.99790106 2.007630934,49.00823746 2.013401252,49.01390542 2.011100674,49.02056797 2.02704711,49.02036554 2.040594243,49.02569021 2.064428879,49.00820803 2.046501654,49.00185304 2.026444957,49.00070281 2.02361373,48.99790106" />
<polygon id="95328 LABBEVILLE" points="2.135135584,49.11609406 2.114212416,49.12288328 2.128985957,49.13968822 2.126606822,49.14262014 2.112467548,49.1439733 2.12873563,49.15375777 2.141707687,49.14439217 2.159918274,49.13955746 2.143386044,49.11914728 2.135135584,49.11609406" />
<polygon id="95331 LASSY" points="2.42298729,49.08696984 2.425931245,49.09185731 2.437584949,49.10171303 2.441758724,49.10324302 2.450001154,49.1007904 2.449213334,49.0950323 2.437479336,49.08872892 2.42298729,49.08696984" />
<polygon id="95341 LIVILLIERS" points="2.084140071,49.08420048 2.084311159,49.09079283 2.07261761,49.10080999 2.091845442,49.11635947 2.100528727,49.11248639 2.105550736,49.11355788 2.109435172,49.11149166 2.110626561,49.09873229 2.1164656,49.0935781 2.084140071,49.08420048" />
<polygon id="95348 LONGUESSE" points="1.914081504,49.04583509 1.908522502,49.04802383 1.899332341,49.06529531 1.904458856,49.0746222 1.916637082,49.06824019 1.927036856,49.06830652 1.94179748,49.07129693 1.953222987,49.07821305 1.958744811,49.07180465 1.94147878,49.0560612 1.940368025,49.05283215 1.94453753,49.05098045 1.936473994,49.04857131 1.917817015,49.05169591 1.914081504,49.04583509" />
<polygon id="95351 LOUVRES" points="2.498573493,49.02411505 2.48556121,49.02780067 2.474330558,49.04172547 2.482032683,49.05390686 2.49192629,49.05227664 2.500812501,49.05575773 2.507185177,49.06470378 2.522707748,49.0626534 2.516209776,49.05368068 2.527578927,49.04762953 2.528282399,49.0379571 2.526070542,49.03005351 2.525579269,49.02694936 2.511211556,49.02803371 2.498573493,49.02411505" />
<polygon id="95352 LUZARCHES" points="2.425931245,49.09185731 2.411130821,49.09309849 2.411038173,49.09643386 2.402088726,49.0995367 2.393561136,49.09809133 2.389054585,49.10752747 2.391650782,49.11036391 2.39604022,49.11566392 2.407835243,49.12631423 2.41128154,49.13409049 2.421427949,49.13593792 2.428427926,49.14109627 2.438907184,49.14149623 2.435398993,49.13394532 2.420116855,49.13309941 2.414659768,49.12736362 2.415546972,49.12401423 2.433198271,49.11717545 2.461309436,49.13660857 2.47760311,49.13106999 2.477004093,49.12797445 2.49922664,49.12226972 2.500955248,49.11631577 2.489930909,49.10636118 2.484187309,49.10691212 2.479054121,49.11212292 2.463549162,49.11086792 2.450001154,49.1007904 2.441758724,49.10324302 2.437584949,49.10171303 2.425931245,49.09185731" />
<polygon id="95353 MAFFLIERS" points="2.334604896,49.07530956 2.310415955,49.07254763 2.293297007,49.07840071 2.283744906,49.07826324 2.291228275,49.08655296 2.30300781,49.09219662 2.303461298,49.09818762 2.312422907,49.09769971 2.331673405,49.08612822 2.33878616,49.07692416 2.338639623,49.07660864 2.334604896,49.07530956" />
<polygon id="95355 MAGNY-EN-VEXIN" points="1.836024359,49.14035832 1.82341498,49.1434098 1.816689933,49.13961227 1.812707774,49.14114662 1.799547737,49.14600652 1.786835117,49.1421924 1.783691508,49.14474133 1.773945522,49.15230346 1.777688132,49.15461643 1.771705138,49.16006747 1.775197643,49.1625398 1.784713793,49.16017251 1.794641007,49.1618998 1.797903856,49.17844994 1.793582141,49.18027696 1.797775735,49.1851473 1.81699944,49.17586965 1.831251076,49.17697988 1.836639606,49.17154725 1.834069125,49.16512043 1.840665403,49.14302871 1.836024359,49.14035832" />
<polygon id="95365 MAREIL-EN-FRANCE" points="2.413628024,49.05629899 2.405129963,49.05883786 2.394342909,49.06867487 2.404910929,49.08270964 2.413967282,49.08077599 2.422296325,49.08386444 2.43799491,49.07526201 2.441771339,49.06900345 2.441431423,49.06752724 2.422901476,49.05777359 2.413628024,49.05629899" />
<polygon id="95369 MARGENCY" points="2.290335704,48.99670838 2.282734995,48.99984651 2.283143165,49.00295131 2.291830954,49.00632107 2.295353864,49.00154888 2.290335704,48.99670838" />
<polygon id="95370 MARINES" points="1.982071982,49.13082044 1.960922718,49.14482839 1.960146791,49.14797772 1.9779895,49.16412626 1.991888849,49.16853228 1.990528292,49.16306316 1.996338556,49.15897572 2.003887144,49.13787257 2.000269376,49.13573855 1.982071982,49.13082044" />
<polygon id="95371 MARLY-LA-VILLE" points="2.522707748,49.0626534 2.507185177,49.06470378 2.487292179,49.07960952 2.486594187,49.08928137 2.487913529,49.0943132 2.524519437,49.09788924 2.524137347,49.08431971 2.529064478,49.07838676 2.522707748,49.0626534" />
<polygon id="95379 MAUDETOUR-EN-VEXIN" points="1.760776838,49.08735365 1.75417779,49.09019897 1.761605661,49.10309872 1.778107842,49.11126157 1.779054437,49.11817711 1.768818362,49.12578796 1.771943306,49.1286344 1.798500884,49.13145625 1.792450634,49.12295222 1.796001115,49.11755663 1.79354344,49.11485237 1.784568405,49.10620151 1.777519054,49.08976416 1.760776838,49.08735365" />
<polygon id="95387 MENOUVILLE" points="2.112467548,49.1439733 2.105727263,49.14937214 2.085495629,49.15250196 2.087381672,49.16059941 2.115678445,49.15418406 2.127344089,49.1598707 2.131556974,49.15554044 2.12873563,49.15375777 2.112467548,49.1439733" />
<polygon id="95388 MENUCOURT" points="1.991881552,49.02101063 1.981510298,49.01927745 1.967144289,49.02320138 1.957081174,49.02180147 1.954947812,49.02453465 1.960950221,49.03481127 1.983644839,49.03456486 1.991573089,49.03055811 1.991527537,49.02375039 1.991881552,49.02101063" />
<polygon id="95392 MERIEL" points="2.202684491,49.06502039 2.188902436,49.07214865 2.193145931,49.07385869 2.206045371,49.08683881 2.236017553,49.08744663 2.233877745,49.07753312 2.224450266,49.07548548 2.21749454,49.06659241 2.202684491,49.06502039" />
<polygon id="95394 MERY-SUR-OISE" points="2.168311247,49.03161553 2.155776446,49.03631193 2.1591427,49.03873647 2.150110849,49.04988611 2.154158293,49.05923945 2.145397919,49.06691958 2.166060899,49.0644391 2.188902436,49.07214865 2.202684491,49.06502039 2.204058875,49.06106406 2.194173213,49.05001892 2.175299953,49.04535882 2.173886484,49.03876685 2.168311247,49.03161553" />
<polygon id="95395 LE MESNIL-AUBRY" points="2.399577208,49.03972053 2.382904574,49.04201889 2.369840801,49.05452172 2.375177562,49.0635234 2.394342909,49.06867487 2.405129963,49.05883786 2.413628024,49.05629899 2.411988803,49.05365639 2.418526967,49.04644978 2.404686721,49.04499724 2.399577208,49.03972053" />
<polygon id="95409 MOISSELLES" points="2.340493608,49.03843949 2.33772692,49.0441072 2.324541721,49.04508583 2.321950768,49.05075414 2.335293521,49.05147613 2.351985943,49.04472449 2.35171917,49.04198949 2.340493608,49.03843949" />
<polygon id="95422 MONTGEROULT" points="2.015862422,49.07737547 2.015039567,49.07745865 2.005836685,49.0776976 1.995076413,49.08342598 1.991688462,49.0858794 1.993599631,49.10238663 2.018747564,49.10068819 2.026891611,49.09651921 2.015862422,49.07737547" />
<polygon id="95424 MONTIGNY-LES-CORMEILLES" points="2.183437886,48.9793473 2.173923846,48.98656621 2.193616161,49.00574634 2.197101133,49.00755021 2.21323685,49.00173105 2.204245168,48.99002647 2.183437886,48.9793473" />
<polygon id="95426 MONTLIGNON" points="2.283143165,49.00295131 2.273375859,49.00648952 2.284832256,49.02024457 2.295572073,49.02678243 2.301382961,49.02377703 2.299950031,49.01444377 2.291830954,49.00632107 2.283143165,49.00295131" />
<polygon id="95427 MONTMAGNY" points="2.33331295,48.95538234 2.328341787,48.9596621 2.331950129,48.96898964 2.344308028,48.9779155 2.364257139,48.97871531 2.366156126,48.9742291 2.353463561,48.96562741 2.343705489,48.96721106 2.33331295,48.95538234" />
<polygon id="95428 MONTMORENCY" points="2.335157008,48.98096755 2.32103099,48.98093339 2.315644385,48.97188325 2.310849159,48.97193672 2.307017295,48.97759796 2.315263228,49.00081885 2.310627838,49.00201527 2.312877572,49.0148242 2.321859055,49.01065791 2.322304198,49.01006693 2.321031503,49.00703834 2.331567229,49.00089278 2.337479605,48.99275151 2.335157008,48.98096755" />
<polygon id="95429 MONTREUIL-SUR-EPTE" points="1.664303912,49.15395123 1.66144719,49.15680591 1.669326162,49.1692391 1.666334184,49.17572504 1.671824653,49.18089302 1.681200576,49.18274044 1.712606678,49.17797298 1.718979319,49.17318543 1.709181687,49.17121952 1.704672386,49.16564117 1.694629978,49.16475942 1.678668539,49.15619589 1.670386152,49.15786711 1.664303912,49.15395123" />
<polygon id="95430 MONTSOULT" points="2.330033435,49.06365784 2.31548005,49.06734337 2.300351749,49.06580857 2.287288047,49.0714326 2.276896714,49.07170322 2.274186956,49.06876455 2.271919506,49.06943421 2.270171871,49.07498053 2.274023265,49.07655044 2.281821219,49.07583299 2.283744906,49.07826324 2.293297007,49.07840071 2.310415955,49.07254763 2.334604896,49.07530956 2.330033435,49.06365784" />
<polygon id="95436 MOURS" points="2.262355363,49.12416154 2.235042485,49.13034786 2.255738388,49.13179038 2.263612789,49.13593883 2.268058312,49.13940958 2.278243703,49.13522726 2.279458786,49.12569481 2.262355363,49.12416154" />
<polygon id="95438 MOUSSY" points="1.914894445,49.1266906 1.895634298,49.129087 1.8822512,49.13781131 1.893561945,49.1440032 1.901855312,49.14005989 1.916187028,49.14349873 1.924573945,49.13958169 1.93389694,49.13206669 1.931102599,49.12936237 1.914894445,49.1266906" />
<polygon id="95445 NERVILLE-LA-FORET" points="2.283744906,49.07826324 2.281821219,49.07583299 2.274023265,49.07655044 2.258209028,49.08459138 2.255901124,49.09088027 2.250877876,49.09078614 2.260456074,49.10077215 2.292780875,49.10019333 2.30300781,49.09219662 2.291228275,49.08655296 2.283744906,49.07826324" />
<polygon id="95446 NESLES-LA-VALLEE" points="2.159705364,49.10368001 2.149837408,49.10415914 2.147531696,49.11029308 2.135135584,49.11609406 2.143386044,49.11914728 2.159918274,49.13955746 2.165048994,49.14262323 2.170096266,49.14152524 2.183625875,49.14740814 2.187461994,49.16061512 2.192624104,49.15574969 2.196439089,49.14576805 2.190271335,49.13701418 2.197075213,49.1171079 2.181090105,49.10840424 2.16081528,49.10702364 2.159705364,49.10368001" />
<polygon id="95447 NEUILLY-EN-VEXIN" points="1.9779895,49.16412626 1.962697528,49.17460523 1.974085566,49.18331636 1.999445259,49.17557251 1.999112721,49.17503926 1.991888849,49.16853228 1.9779895,49.16412626" />
<polygon id="95450 NEUVILLE-SUR-OISE" points="2.071694219,49.00170884 2.064428879,49.00820803 2.040594243,49.02569021 2.038230127,49.03372852 2.052815695,49.0251218 2.062025962,49.02469953 2.073323926,49.01838463 2.083165987,49.01926952 2.081014183,49.01647439 2.084914921,49.01467871 2.071694219,49.00170884" />
<polygon id="95452 NOINTEL" points="2.313583344,49.12278336 2.303789071,49.12068605 2.279458786,49.12569481 2.278243703,49.13522726 2.298787408,49.1370031 2.313583344,49.12278336" />
<polygon id="95456 NOISY-SUR-OISE" points="2.336799076,49.12314735 2.320079453,49.12467245 2.314990332,49.14174484 2.322738714,49.14657195 2.329938261,49.1420178 2.338580219,49.14567103 2.341144019,49.13590277 2.336799076,49.12314735" />
<polygon id="95459 NUCOURT" points="1.857520794,49.14314494 1.840665403,49.14302871 1.834069125,49.16512043 1.8490736,49.17048885 1.874496946,49.17428976 1.876765047,49.17530898 1.882568412,49.16249622 1.882443817,49.16128121 1.872974364,49.15981723 1.857520794,49.14314494" />
<polygon id="95462 OMERVILLE" points="1.738884277,49.11439061 1.733535811,49.11464015 1.722268922,49.12213735 1.692058956,49.12866471 1.702736417,49.1367383 1.708315692,49.15756071 1.718794685,49.16568437 1.733616137,49.16573327 1.742130053,49.16239667 1.73901928,49.14937997 1.742531215,49.14700689 1.741544379,49.13797768 1.731139724,49.12298658 1.738884277,49.11439061" />
<polygon id="95476 OSNY" points="2.072221766,49.04716965 2.054070647,49.05456357 2.027765174,49.05650271 2.034625894,49.06280759 2.045585136,49.08298338 2.059882068,49.08571269 2.071830903,49.08050031 2.07922981,49.08472946 2.084140071,49.08420048 2.090414717,49.07221691 2.094814772,49.0702629 2.072221766,49.04716965" />
<polygon id="95480 PARMAIN" points="2.20896744,49.09361982 2.199478667,49.09452812 2.181090105,49.10840424 2.197075213,49.1171079 2.190271335,49.13701418 2.196439089,49.14576805 2.192624104,49.15574969 2.19846427,49.15660691 2.211687988,49.14252416 2.213416676,49.12615333 2.217447214,49.12416554 2.20905268,49.11136977 2.20896744,49.09361982" />
<polygon id="95483 LE PERCHAY" points="1.950436707,49.1191741 1.930634204,49.10160039 1.926119212,49.10272012 1.913672858,49.10784165 1.914636205,49.11416267 1.908716602,49.11946825 1.90789698,49.12260796 1.914894445,49.1266906 1.931102599,49.12936237 1.940960313,49.12168967 1.950436707,49.1191741" />
<polygon id="95487 PERSAN" points="2.263612789,49.13593883 2.252897348,49.14637449 2.241582561,49.15157254 2.255410224,49.15367286 2.262211823,49.15830018 2.266529184,49.15642945 2.286412977,49.15992058 2.294154781,49.15115501 2.268058312,49.13940958 2.263612789,49.13593883" />
<polygon id="95488 PIERRELAYE" points="2.193616161,49.00574634 2.179728675,49.00228905 2.15886395,49.01204533 2.153991786,49.00650771 2.128675694,49.02287268 2.155776446,49.03631193 2.168311247,49.03161553 2.183164435,49.02543189 2.174076167,49.01394945 2.197101133,49.00755021 2.193616161,49.00574634" />
<polygon id="95489 PISCOP" points="2.363450476,49.02003971 2.341871552,49.00634511 2.322304198,49.01006693 2.321859055,49.01065791 2.325510673,49.01999442 2.354645958,49.02661091 2.363865819,49.02184933 2.363450476,49.02003971" />
<polygon id="95491 LE PLESSIS-BOUCHARD" points="2.243522539,48.99433615 2.21712819,49.00289854 2.223938366,49.01180927 2.24169951,49.00782227 2.250359431,49.00068276 2.243522539,48.99433615" />
<polygon id="95492 LE PLESSIS-GASSOT" points="2.410273733,49.02399257 2.409546642,49.02420481 2.399577208,49.03972053 2.404686721,49.04499724 2.418526967,49.04644978 2.434923161,49.03434401 2.428552351,49.02917944 2.410273733,49.02399257" />
<polygon id="95493 LE PLESSIS-LUZARCHES" points="2.453733775,49.08963109 2.449213334,49.0950323 2.450001154,49.1007904 2.46311587,49.0971632 2.453733775,49.08963109" />
<polygon id="95500 PONTOISE" points="2.090658278,49.0239666 2.084218391,49.03169606 2.085450418,49.03783822 2.072221766,49.04716965 2.094814772,49.0702629 2.090414717,49.07221691 2.099192485,49.06957643 2.107287033,49.06125626 2.120222348,49.06502942 2.126523774,49.0638255 2.100517255,49.04605402 2.095793873,49.03607312 2.090658278,49.0239666" />
<polygon id="95504 PRESLES" points="2.30300781,49.09219662 2.292780875,49.10019333 2.260456074,49.10077215 2.263086229,49.10359365 2.25659785,49.11199672 2.262355363,49.12416154 2.279458786,49.12569481 2.303789071,49.12068605 2.313583344,49.12278336 2.320079453,49.12467245 2.31851045,49.11792909 2.311356974,49.11300604 2.308911424,49.10021518 2.312422907,49.09769971 2.303461298,49.09818762 2.30300781,49.09219662" />
<polygon id="95509 PUISEUX-EN-FRANCE" points="2.507185177,49.06470378 2.500812501,49.05575773 2.49192629,49.05227664 2.482032683,49.05390686 2.481831731,49.05485012 2.472446021,49.07103925 2.486594187,49.08928137 2.487292179,49.07960952 2.507185177,49.06470378" />
<polygon id="95510 PUISEUX-PONTOISE" points="2.027765174,49.05650271 2.024370972,49.05437101 2.010600887,49.05612878 1.994339486,49.06071469 1.994738541,49.06342469 1.997751571,49.06612953 2.011803445,49.06770264 2.015039567,49.07745865 2.015862422,49.07737547 2.024537073,49.0739213 2.024039997,49.06760481 2.032679784,49.06590322 2.034625894,49.06280759 2.027765174,49.05650271" />
<polygon id="95523 LA ROCHE-GUYON" points="1.614300584,49.0711772 1.608796071,49.07789415 1.623321874,49.08608288 1.633313502,49.09710489 1.642400811,49.09993257 1.647482006,49.10569104 1.652212971,49.10494383 1.658380383,49.09578654 1.653182259,49.09557556 1.645479014,49.09376245 1.64659798,49.08132033 1.620154117,49.0739244 1.614300584,49.0711772" />
<polygon id="95527 ROISSY-EN-FRANCE" points="2.501882022,48.97853844 2.502532212,48.98482679 2.491070565,48.99026403 2.485641488,48.99899034 2.488175263,48.99843466 2.489787076,49.00130105 2.488247125,49.00223867 2.491136453,49.01004715 2.498573493,49.02411505 2.511211556,49.02803371 2.525579269,49.02694936 2.535014939,49.0238121 2.538283698,49.01448202 2.550671669,49.01261372 2.553060645,49.00981712 2.547695159,49.0043568 2.532810255,49.00442567 2.511558291,48.98099717 2.501882022,48.97853844" />
<polygon id="95529 RONQUEROLLES" points="2.216360148,49.15437805 2.196877147,49.16701698 2.187373725,49.17322894 2.207177701,49.17485345 2.220276995,49.17920066 2.233419758,49.16594248 2.216360148,49.15437805" />
<polygon id="95535 SAGY" points="1.983644839,49.03456486 1.960950221,49.03481127 1.949614435,49.04145702 1.94453753,49.05098045 1.940368025,49.05283215 1.94147878,49.0560612 1.958744811,49.07180465 1.969834827,49.06678367 1.978613048,49.06925952 1.994738541,49.06342469 1.994339486,49.06071469 1.983644839,49.03456486" />
<polygon id="95539 SAINT-BRICE-SOUS-FORET" points="2.365690974,48.9888394 2.361984577,48.98689537 2.351150218,48.99230465 2.337479605,48.99275151 2.331567229,49.00089278 2.321031503,49.00703834 2.322304198,49.01006693 2.341871552,49.00634511 2.363450476,49.02003971 2.36364708,49.00957385 2.368364579,48.9993296 2.365690974,48.9888394" />
<polygon id="95541 SAINT-CLAIR-SUR-EPTE" points="1.671824653,49.18089302 1.670536994,49.18990645 1.675944112,49.19947909 1.673206916,49.20562614 1.676291302,49.21218785 1.699560828,49.22611696 1.704364207,49.23220178 1.710811661,49.23737786 1.740453152,49.2234402 1.735795009,49.22194385 1.733979661,49.21198945 1.715608439,49.2062384 1.715582824,49.20284837 1.70660297,49.19978513 1.701751526,49.20556841 1.696667025,49.20530672 1.688897909,49.20105938 1.681360268,49.19262398 1.681200576,49.18274044 1.671824653,49.18089302" />
<polygon id="95543 SAINT-CYR-EN-ARTHIES" points="1.751176843,49.0482266 1.735637867,49.04868454 1.732065796,49.05041846 1.724417647,49.05487882 1.741317395,49.07286244 1.746512512,49.07311458 1.74826802,49.06729671 1.759422161,49.0632848 1.751367853,49.05507203 1.751176843,49.0482266" />
<polygon id="95554 SAINT-GERVAIS" points="1.773945522,49.15230346 1.752199947,49.14621732 1.742531215,49.14700689 1.73901928,49.14937997 1.742130053,49.16239667 1.733616137,49.16573327 1.718794685,49.16568437 1.721667103,49.17208104 1.720981685,49.17540068 1.735358947,49.17521983 1.742694624,49.17980143 1.756130821,49.17487869 1.776378533,49.18509368 1.776924107,49.18522511 1.793582141,49.18027696 1.797903856,49.17844994 1.794641007,49.1618998 1.784713793,49.16017251 1.775197643,49.1625398 1.771705138,49.16006747 1.777688132,49.15461643 1.773945522,49.15230346" />
<polygon id="95555 SAINT-GRATIEN" points="2.288460772,48.95898244 2.274623286,48.96414229 2.273819883,48.97668217 2.291858276,48.97624147 2.297857372,48.97508072 2.293576628,48.97042439 2.298617177,48.96635333 2.288460772,48.95898244" />
<polygon id="95563 SAINT-LEU-LA-FORET" points="2.250359431,49.00068276 2.24169951,49.00782227 2.223938366,49.01180927 2.234979619,49.0185974 2.244078476,49.03408566 2.253149647,49.04141702 2.258271638,49.04001003 2.256018145,49.02641797 2.261676819,49.02081479 2.255946888,49.01516824 2.252337979,49.00185513 2.250359431,49.00068276" />
<polygon id="95566 SAINT-MARTIN-DU-TERTRE" points="2.33878616,49.07692416 2.331673405,49.08612822 2.312422907,49.09769971 2.308911424,49.10021518 2.311356974,49.11300604 2.31851045,49.11792909 2.320079453,49.12467245 2.336799076,49.12314735 2.34697336,49.11697205 2.354535962,49.12125675 2.355488155,49.11188392 2.361450841,49.1070514 2.34573586,49.09021582 2.349401754,49.08065068 2.33878616,49.07692416" />
<polygon id="95572 SAINT-OUEN-L'AUMONE" points="2.128675694,49.02287268 2.122244662,49.02799644 2.116025149,49.02303199 2.095793873,49.03607312 2.100517255,49.04605402 2.126523774,49.0638255 2.135293668,49.06720697 2.145397919,49.06691958 2.154158293,49.05923945 2.150110849,49.04988611 2.1591427,49.03873647 2.155776446,49.03631193 2.128675694,49.02287268" />
<polygon id="95574 SAINT-PRIX" points="2.263474557,48.99817415 2.252337979,49.00185513 2.255946888,49.01516824 2.261676819,49.02081479 2.256018145,49.02641797 2.258271638,49.04001003 2.274775627,49.03644206 2.294403727,49.03024653 2.295572073,49.02678243 2.284832256,49.02024457 2.273375859,49.00648952 2.263474557,48.99817415" />
<polygon id="95580 SAINT-WITZ" points="2.545737231,49.07039451 2.533555496,49.07973501 2.529064478,49.07838676 2.524137347,49.08431971 2.524519437,49.09788924 2.530765745,49.09609752 2.530630013,49.09294102 2.540031104,49.09193436 2.54961014,49.09246515 2.550555367,49.09556171 2.559478691,49.09761778 2.576622725,49.09244641 2.583015419,49.08065406 2.569950013,49.07656186 2.550572414,49.07937724 2.545737231,49.07039451" />
<polygon id="95582 SANNOIS" points="2.274623286,48.96414229 2.264544734,48.96215646 2.249072244,48.96397602 2.225735542,48.97103079 2.228754239,48.97287575 2.23653979,48.97663953 2.237344488,48.98324522 2.242380838,48.98360086 2.249219183,48.97933641 2.272734975,48.97708926 2.273819883,48.97668217 2.274623286,48.96414229" />
<polygon id="95584 SANTEUIL" points="1.975343857,49.12460404 1.959265326,49.11885517 1.950436707,49.1191741 1.940960313,49.12168967 1.931102599,49.12936237 1.93389694,49.13206669 1.937400083,49.13430064 1.94422164,49.12972098 1.948520386,49.13125124 1.960922718,49.14482839 1.982071982,49.13082044 1.975343857,49.12460404" />
<polygon id="95585 SARCELLES" points="2.382446558,48.9712926 2.375935939,48.97202326 2.366156126,48.9742291 2.364257139,48.97871531 2.367829788,48.98375199 2.365690974,48.9888394 2.368364579,48.9993296 2.36364708,49.00957385 2.379580096,49.01346996 2.381628584,49.00331032 2.408136525,48.99196981 2.400810232,48.9826623 2.382446558,48.9712926" />
<polygon id="95592 SERAINCOURT" points="1.859255155,49.01396935 1.86244097,49.02019562 1.859304193,49.02978809 1.851334193,49.03336315 1.865468735,49.05747168 1.873351222,49.05553155 1.896311621,49.06640963 1.899332341,49.06529531 1.908522502,49.04802383 1.883462901,49.03262304 1.8818983,49.01954209 1.868558417,49.0180592 1.861712766,49.01411858 1.859255155,49.01396935" />
<polygon id="95594 SEUGY" points="2.39604022,49.11566392 2.386400017,49.11774607 2.384502376,49.12759076 2.403905993,49.12846169 2.407835243,49.12631423 2.39604022,49.11566392" />
<polygon id="95598 SOISY-SOUS-MONTMORENCY" points="2.297857372,48.97508072 2.291858276,48.97624147 2.285380128,48.98440426 2.292862068,48.99584204 2.310627838,49.00201527 2.315263228,49.00081885 2.307017295,48.97759796 2.303379426,48.97891677 2.297857372,48.97508072" />
<polygon id="95604 SURVILLIERS" points="2.559478691,49.09761778 2.550555367,49.09556171 2.54961014,49.09246515 2.540031104,49.09193436 2.530630013,49.09294102 2.530765745,49.09609752 2.531062712,49.09959631 2.53388605,49.11910926 2.542654153,49.12206503 2.542120955,49.11884418 2.551652926,49.12064234 2.55453514,49.11840526 2.559478691,49.09761778" />
<polygon id="95607 TAVERNY" points="2.21712819,49.00289854 2.21494624,49.00347779 2.202210247,49.00864538 2.20517976,49.01825993 2.183164435,49.02543189 2.195287263,49.03110693 2.220098428,49.03265543 2.228292724,49.04076532 2.228598877,49.04409436 2.223875293,49.04530484 2.231302714,49.05179089 2.234868071,49.04936782 2.253149647,49.04141702 2.244078476,49.03408566 2.234979619,49.0185974 2.223938366,49.01180927 2.21712819,49.00289854" />
<polygon id="95610 THEMERICOURT" points="1.899332341,49.06529531 1.896311621,49.06640963 1.890590438,49.07156349 1.891179289,49.09395948 1.905776965,49.1114118 1.913672858,49.10784165 1.926119212,49.10272012 1.921531264,49.09482905 1.922491373,49.09145664 1.904458856,49.0746222 1.899332341,49.06529531" />
<polygon id="95611 THEUVILLE" points="2.068208171,49.14347693 2.058546546,49.15324729 2.049501022,49.15614334 2.049242483,49.16275888 2.058266512,49.16412454 2.068789287,49.17061709 2.073413893,49.16965475 2.075710739,49.16389107 2.087381672,49.16059941 2.085495629,49.15250196 2.085309259,49.14908385 2.068208171,49.14347693" />
<polygon id="95612 LE THILLAY" points="2.483792034,48.999441 2.478258254,48.99387785 2.468525653,48.9955077 2.463375127,49.00066431 2.449192553,49.00417895 2.443238244,49.01264908 2.466871462,49.00888975 2.491136453,49.01004715 2.488247125,49.00223867 2.483883139,49.0012758 2.483792034,48.999441" />
<polygon id="95625 US" points="1.951176722,49.08599137 1.939809669,49.09154766 1.921531264,49.09482905 1.926119212,49.10272012 1.930634204,49.10160039 1.950436707,49.1191741 1.959265326,49.11885517 1.975343857,49.12460404 1.989016381,49.10918198 1.976488355,49.09787214 1.951176722,49.08599137" />
<polygon id="95627 VALLANGOUJARD" points="2.105550736,49.11355788 2.100528727,49.11248639 2.091845442,49.11635947 2.093620982,49.12605677 2.086185252,49.14138491 2.089372953,49.14715455 2.085309259,49.14908385 2.085495629,49.15250196 2.105727263,49.14937214 2.112467548,49.1439733 2.126606822,49.14262014 2.128985957,49.13968822 2.114212416,49.12288328 2.109012373,49.12333942 2.105550736,49.11355788" />
<polygon id="95628 VALMONDOIS" points="2.208226072,49.09106131 2.197654436,49.09207922 2.184008249,49.08659234 2.173592146,49.08818466 2.159705364,49.10368001 2.16081528,49.10702364 2.181090105,49.10840424 2.199478667,49.09452812 2.20896744,49.09361982 2.208226072,49.09106131" />
<polygon id="95633 VAUDHERLAND" points="2.488247125,49.00223867 2.489787076,49.00130105 2.488175263,48.99843466 2.485641488,48.99899034 2.483792034,48.999441 2.483883139,49.0012758 2.488247125,49.00223867" />
<polygon id="95637 VAUREAL" points="2.040594243,49.02569021 2.02704711,49.02036554 2.011100674,49.02056797 2.009695424,49.02686015 2.015834727,49.03987771 2.038296568,49.03678646 2.038230127,49.03372852 2.040594243,49.02569021" />
<polygon id="95641 VEMARS" points="2.569339893,49.03959499 2.567710994,49.04139649 2.567262487,49.04761718 2.550033684,49.05311977 2.551966398,49.05902553 2.545737231,49.07039451 2.550572414,49.07937724 2.569950013,49.07656186 2.583015419,49.08065406 2.590524279,49.07965485 2.572433056,49.05926196 2.594474167,49.04713666 2.579623848,49.04650114 2.569339893,49.03959499" />
<polygon id="95651 VETHEUIL" points="1.723457162,49.04497658 1.693668225,49.05667967 1.697225284,49.06542325 1.687592364,49.0718471 1.691586605,49.07519994 1.703854465,49.07890292 1.706333529,49.0777516 1.711142684,49.07206601 1.712362262,49.05601819 1.720777917,49.05266388 1.724417647,49.05487882 1.732065796,49.05041846 1.723457162,49.04497658" />
<polygon id="95652 VIARMES" points="2.361450841,49.1070514 2.355488155,49.11188392 2.354535962,49.12125675 2.365883926,49.13314053 2.374896026,49.13686506 2.390766363,49.13783656 2.41128154,49.13409049 2.407835243,49.12631423 2.403905993,49.12846169 2.384502376,49.12759076 2.386400017,49.11774607 2.39604022,49.11566392 2.391650782,49.11036391 2.361450841,49.1070514" />
<polygon id="95656 VIENNE-EN-ARTHIES" points="1.724417647,49.05487882 1.720777917,49.05266388 1.712362262,49.05601819 1.711142684,49.07206601 1.706333529,49.0777516 1.741317395,49.07286244 1.724417647,49.05487882" />
<polygon id="95658 VIGNY" points="1.953222987,49.07821305 1.94179748,49.07129693 1.927036856,49.06830652 1.916637082,49.06824019 1.904458856,49.0746222 1.922491373,49.09145664 1.921531264,49.09482905 1.939809669,49.09154766 1.951176722,49.08599137 1.953222987,49.07821305" />
<polygon id="95660 VILLAINES-SOUS-BOIS" points="2.367251315,49.06829251 2.338639623,49.07660864 2.33878616,49.07692416 2.349401754,49.08065068 2.362689565,49.07981371 2.37040013,49.07269699 2.367251315,49.06829251" />
<polygon id="95675 VILLERON" points="2.528282399,49.0379571 2.527578927,49.04762953 2.516209776,49.05368068 2.522707748,49.0626534 2.529064478,49.07838676 2.533555496,49.07973501 2.545737231,49.07039451 2.551966398,49.05902553 2.550033684,49.05311977 2.535957596,49.04991012 2.528282399,49.0379571" />
<polygon id="95676 VILLERS-EN-ARTHIES" points="1.741317395,49.07286244 1.706333529,49.0777516 1.703854465,49.07890292 1.707504074,49.09395066 1.736353667,49.10075879 1.740923253,49.09925106 1.745244534,49.09328037 1.75417779,49.09019897 1.760776838,49.08735365 1.755772384,49.08765266 1.75502654,49.08108048 1.746512512,49.07311458 1.741317395,49.07286244" />
<polygon id="95678 VILLIERS-ADAM" points="2.234868071,49.04936782 2.231302714,49.05179089 2.204058875,49.06106406 2.202684491,49.06502039 2.21749454,49.06659241 2.224450266,49.07548548 2.233877745,49.07753312 2.236017553,49.08744663 2.245894338,49.08607932 2.250877876,49.09078614 2.255901124,49.09088027 2.258209028,49.08459138 2.274023265,49.07655044 2.270171871,49.07498053 2.271919506,49.06943421 2.267781979,49.06781752 2.257284229,49.07365173 2.255355109,49.07074443 2.234868071,49.04936782" />
<polygon id="95680 VILLIERS-LE-BEL" points="2.408136525,48.99196981 2.381628584,49.00331032 2.379580096,49.01346996 2.389662347,49.01402521 2.409546642,49.02420481 2.410273733,49.02399257 2.421759342,49.01906683 2.425124189,49.01398446 2.416535297,48.99850339 2.408136525,48.99196981" />
<polygon id="95682 VILLIERS-LE-SEC" points="2.375177562,49.0635234 2.367251315,49.06829251 2.37040013,49.07269699 2.375567672,49.07204059 2.375936581,49.07550429 2.396421051,49.08648872 2.404910929,49.08270964 2.394342909,49.06867487 2.375177562,49.0635234" />
<polygon id="95690 WY-DIT-JOLI-VILLAGE" points="1.81539413,49.07641208 1.80251567,49.08640085 1.816338635,49.10460309 1.815330093,49.10798318 1.827638424,49.1166732 1.848894904,49.1014302 1.831060419,49.08277916 1.822561339,49.08207574 1.8236011,49.07667254 1.81539413,49.07641208" />

</g>

</g>

</svg>
