<?xml version="1.0" standalone="no"?>
<!DOCTYPE svg PUBLIC "-//W3C//DTD SVG 1.1//EN" 
  "http://www.w3.org/Graphics/SVG/1.1/DTD/svg11.dtd">
<svg width="1000" height="992" viewBox="2.288460772 48.80743668 0.314137659 0.204962930000001"  preserveAspectRatio="none"
     xmlns="http://www.w3.org/2000/svg" version="1.1">

<style type="text/css" >
<![CDATA[

.communes { 
	fill           : #b9b9b9;
	fill-opacity   : 1;
	stroke         : white;
	stroke-opacity : 1;
	stroke-width   : 0.002;
}

]]>
</style>

<g transform="translate(0,49.01239961) scale(1,-1) translate(0,-48.80743668)">

<g class="communes">

<polygon id="93001 AUBERVILLIERS" points="2.389444303,48.90115742 2.370286444,48.90165178 2.365853595,48.9016104 2.366573808,48.92089531 2.374741656,48.92368107 2.383372949,48.91967897 2.398768398,48.92178062 2.407546081,48.91791242 2.408037415,48.9095064 2.398414882,48.90868506 2.389444303,48.90115742" />
<polygon id="93005 AULNAY-SOUS-BOIS" points="2.491733681,48.91687826 2.479396978,48.91977496 2.481409924,48.93687004 2.468902179,48.95198594 2.459489866,48.95505532 2.466572519,48.96345912 2.491127946,48.97324173 2.496009496,48.9727228 2.524146063,48.95057228 2.512247663,48.94393286 2.508171724,48.93752241 2.517563922,48.92566315 2.507299295,48.91866093 2.491733681,48.91687826" />
<polygon id="93006 BAGNOLET" points="2.415319163,48.85517799 2.413277246,48.87311881 2.420084186,48.87767561 2.42971723,48.87828846 2.436644157,48.87699026 2.435361339,48.87458301 2.423244628,48.85946136 2.415319163,48.85517799" />
<polygon id="93007 LE BLANC-MESNIL" points="2.474266132,48.9184306 2.464500196,48.92068054 2.462157708,48.930796 2.456106649,48.93647012 2.452110603,48.93873608 2.442243793,48.93721576 2.433040152,48.93877329 2.435032843,48.94508661 2.447520177,48.9558011 2.456013952,48.95577699 2.459489866,48.95505532 2.468902179,48.95198594 2.481409924,48.93687004 2.479396978,48.91977496 2.474266132,48.9184306" />
<polygon id="93008 BOBIGNY" points="2.42772404,48.89588763 2.414487867,48.90489769 2.410056996,48.91669277 2.413493844,48.91926364 2.456591347,48.91097752 2.475214378,48.91641135 2.469861405,48.90476887 2.441283287,48.89828087 2.42772404,48.89588763" />
<polygon id="93010 BONDY" points="2.486801956,48.88703635 2.476639574,48.88866509 2.471698987,48.8890391 2.473939232,48.89542508 2.469861405,48.90476887 2.475214378,48.91641135 2.474266132,48.9184306 2.479396978,48.91977496 2.491733681,48.91687826 2.491198654,48.91019424 2.499850857,48.89574294 2.495433363,48.88994185 2.486801956,48.88703635" />
<polygon id="93013 LE BOURGET" points="2.422030052,48.92962897 2.414822679,48.93336199 2.417550669,48.93962527 2.435032843,48.94508661 2.433040152,48.93877329 2.442243793,48.93721576 2.444335049,48.93440174 2.440409478,48.93262088 2.422030052,48.92962897" />
<polygon id="93014 CLICHY-SOUS-BOIS" points="2.532112501,48.89523482 2.530321811,48.90172078 2.521505557,48.90366434 2.538685946,48.91070128 2.543354516,48.9166275 2.553430841,48.91587411 2.559223854,48.92140817 2.565200648,48.90836337 2.546579079,48.89889668 2.538067272,48.89893609 2.532112501,48.89523482" />
<polygon id="93015 COUBRON" points="2.591417597,48.90715169 2.582965001,48.90985641 2.57448779,48.90711973 2.565200648,48.90836337 2.559223854,48.92140817 2.564583527,48.92831624 2.571205922,48.92461712 2.589686799,48.9276944 2.592341723,48.92502362 2.589048825,48.90997635 2.592368235,48.9077035 2.591417597,48.90715169" />
<polygon id="93027 LA COURNEUVE" points="2.410056996,48.91669277 2.407546081,48.91791242 2.398768398,48.92178062 2.383372949,48.91967897 2.374741656,48.92368107 2.38754139,48.94115734 2.398505187,48.94809231 2.404448297,48.95132339 2.417550669,48.93962527 2.414822679,48.93336199 2.422030052,48.92962897 2.413493844,48.91926364 2.410056996,48.91669277" />
<polygon id="93029 DRANCY" points="2.475214378,48.91641135 2.456591347,48.91097752 2.413493844,48.91926364 2.422030052,48.92962897 2.440409478,48.93262088 2.444335049,48.93440174 2.442243793,48.93721576 2.452110603,48.93873608 2.456106649,48.93647012 2.462157708,48.930796 2.464500196,48.92068054 2.474266132,48.9184306 2.475214378,48.91641135" />
<polygon id="93030 DUGNY" points="2.417550669,48.93962527 2.404448297,48.95132339 2.407383752,48.95613102 2.418849758,48.95775186 2.447520177,48.9558011 2.435032843,48.94508661 2.417550669,48.93962527" />
<polygon id="93031 EPINAY-SUR-SEINE" points="2.338363986,48.94261361 2.331035319,48.94667366 2.303172051,48.95158687 2.292278635,48.95138817 2.288460772,48.95898244 2.298617177,48.96635333 2.313176738,48.96222004 2.320123478,48.95840177 2.328341787,48.9596621 2.33331295,48.95538234 2.345795945,48.9465303 2.341901159,48.94682373 2.338363986,48.94261361" />
<polygon id="93032 GAGNY" points="2.566810632,48.86572394 2.549412082,48.87258451 2.529846583,48.87428992 2.518197131,48.89117773 2.530649958,48.89255816 2.532112501,48.89523482 2.538067272,48.89893609 2.546579079,48.89889668 2.549865832,48.88633677 2.559406443,48.88533805 2.570507223,48.87865152 2.56796748,48.86594396 2.566810632,48.86572394" />
<polygon id="93033 GOURNAY-SUR-MARNE" points="2.573836357,48.85338336 2.566918063,48.85772029 2.566810632,48.86572394 2.56796748,48.86594396 2.587331638,48.86500505 2.5825222,48.85620191 2.573836357,48.85338336" />
<polygon id="93039 L'ILE-SAINT-DENIS" points="2.319818646,48.91593565 2.322020747,48.91867303 2.328449603,48.92276508 2.33597931,48.93157517 2.334910109,48.94154234 2.311672197,48.94794893 2.290973573,48.95096679 2.292278635,48.95138817 2.303172051,48.95158687 2.331035319,48.94667366 2.338363986,48.94261361 2.341602733,48.93372852 2.332841788,48.92292451 2.319818646,48.91593565" />
<polygon id="93045 LES LILAS" points="2.413277246,48.87311881 2.410694437,48.87847513 2.41130874,48.88323558 2.424420599,48.89119537 2.42971723,48.87828846 2.420084186,48.87767561 2.413277246,48.87311881" />
<polygon id="93046 LIVRY-GARGAN" points="2.510923719,48.90179602 2.518786305,48.91006543 2.509447396,48.9122578 2.507299295,48.91866093 2.517563922,48.92566315 2.536505421,48.92728468 2.546897111,48.93444668 2.557242618,48.9345393 2.564583527,48.92831624 2.559223854,48.92140817 2.553430841,48.91587411 2.543354516,48.9166275 2.538685946,48.91070128 2.521505557,48.90366434 2.510923719,48.90179602" />
<polygon id="93047 MONTFERMEIL" points="2.559406443,48.88533805 2.549865832,48.88633677 2.546579079,48.89889668 2.565200648,48.90836337 2.57448779,48.90711973 2.582965001,48.90985641 2.591417597,48.90715169 2.585457702,48.90178941 2.586001469,48.89516345 2.566483871,48.89024714 2.559406443,48.88533805" />
<polygon id="93048 MONTREUIL" points="2.447103398,48.85115611 2.437246482,48.85279193 2.42916705,48.84886847 2.418968741,48.84933201 2.416339717,48.84923827 2.415319163,48.85517799 2.423244628,48.85946136 2.435361339,48.87458301 2.442643562,48.87187418 2.451667251,48.87848994 2.464761047,48.87807256 2.471635526,48.86975734 2.480615064,48.86745838 2.481534079,48.86140985 2.454295033,48.85542504 2.447103398,48.85115611" />
<polygon id="93049 NEUILLY-PLAISANCE" points="2.513670429,48.85016813 2.503941325,48.85723298 2.49971755,48.85567753 2.496392095,48.85990845 2.509129987,48.87792096 2.520436673,48.87457635 2.523458874,48.8720883 2.517958904,48.8668232 2.517337884,48.85440089 2.520833541,48.85218457 2.515648758,48.85138127 2.513670429,48.85016813" />
<polygon id="93050 NEUILLY-SUR-MARNE" points="2.520833541,48.85218457 2.517337884,48.85440089 2.517958904,48.8668232 2.523458874,48.8720883 2.520436673,48.87457635 2.529846583,48.87428992 2.549412082,48.87258451 2.566810632,48.86572394 2.566918063,48.85772029 2.559971948,48.85391774 2.520833541,48.85218457" />
<polygon id="93051 NOISY-LE-GRAND" points="2.592280488,48.80743668 2.570077286,48.81511146 2.568498587,48.81828054 2.568665749,48.8244148 2.536654488,48.83851388 2.537155234,48.84196033 2.515648758,48.85138127 2.520833541,48.85218457 2.559971948,48.85391774 2.566918063,48.85772029 2.573836357,48.85338336 2.586280887,48.83425303 2.595795003,48.81426583 2.592280488,48.80743668" />
<polygon id="93053 NOISY-LE-SEC" points="2.464761047,48.87807256 2.451667251,48.87848994 2.449772806,48.88486644 2.443131384,48.88872978 2.441283287,48.89828087 2.469861405,48.90476887 2.473939232,48.89542508 2.471698987,48.8890391 2.476639574,48.88866509 2.464761047,48.87807256" />
<polygon id="93055 PANTIN" points="2.41130874,48.88323558 2.40743075,48.88849548 2.398651171,48.88941398 2.396499648,48.896193 2.389444303,48.90115742 2.398414882,48.90868506 2.408037415,48.9095064 2.407546081,48.91791242 2.410056996,48.91669277 2.414487867,48.90489769 2.42772404,48.89588763 2.424420599,48.89119537 2.41130874,48.88323558" />
<polygon id="93057 LES PAVILLONS-SOUS-BOIS" points="2.499850857,48.89574294 2.491198654,48.91019424 2.491733681,48.91687826 2.507299295,48.91866093 2.509447396,48.9122578 2.518786305,48.91006543 2.510923719,48.90179602 2.507639971,48.8985181 2.499850857,48.89574294" />
<polygon id="93059 PIERREFITTE-SUR-SEINE" points="2.371480941,48.94733318 2.352027,48.95048498 2.353463561,48.96562741 2.366156126,48.9742291 2.375935939,48.97202326 2.373242159,48.96206342 2.366558073,48.95693846 2.371480941,48.94733318" />
<polygon id="93061 LE PRE-SAINT-GERVAIS" points="2.410694437,48.87847513 2.40033933,48.88374772 2.398651171,48.88941398 2.40743075,48.88849548 2.41130874,48.88323558 2.410694437,48.87847513" />
<polygon id="93062 LE RAINCY" points="2.518197131,48.89117773 2.51619278,48.88819293 2.511679796,48.88954156 2.507639971,48.8985181 2.510923719,48.90179602 2.521505557,48.90366434 2.530321811,48.90172078 2.532112501,48.89523482 2.530649958,48.89255816 2.518197131,48.89117773" />
<polygon id="93063 ROMAINVILLE" points="2.451667251,48.87848994 2.442643562,48.87187418 2.435361339,48.87458301 2.436644157,48.87699026 2.42971723,48.87828846 2.424420599,48.89119537 2.42772404,48.89588763 2.441283287,48.89828087 2.443131384,48.88872978 2.449772806,48.88486644 2.451667251,48.87848994" />
<polygon id="93064 ROSNY-SOUS-BOIS" points="2.496392095,48.85990845 2.481534079,48.86140985 2.480615064,48.86745838 2.471635526,48.86975734 2.464761047,48.87807256 2.476639574,48.88866509 2.486801956,48.88703635 2.495247868,48.88375378 2.499176186,48.87796967 2.509129987,48.87792096 2.496392095,48.85990845" />
<polygon id="93066 SAINT-DENIS" points="2.351872525,48.90152657 2.348967911,48.91126833 2.332841788,48.92292451 2.341602733,48.93372852 2.338363986,48.94261361 2.341901159,48.94682373 2.345795945,48.9465303 2.352027,48.95048498 2.371480941,48.94733318 2.38532759,48.94481506 2.398505187,48.94809231 2.38754139,48.94115734 2.374741656,48.92368107 2.366573808,48.92089531 2.365853595,48.9016104 2.351872525,48.90152657" />
<polygon id="93070 SAINT-OUEN" points="2.319884459,48.90045887 2.31375826,48.91402154 2.319818646,48.91593565 2.332841788,48.92292451 2.348967911,48.91126833 2.351872525,48.90152657 2.32998325,48.9011633 2.319884459,48.90045887" />
<polygon id="93071 SEVRAN" points="2.517563922,48.92566315 2.508171724,48.93752241 2.512247663,48.94393286 2.524146063,48.95057228 2.544321371,48.94957155 2.554613081,48.94194852 2.557045023,48.93530295 2.557242618,48.9345393 2.546897111,48.93444668 2.536505421,48.92728468 2.517563922,48.92566315" />
<polygon id="93072 STAINS" points="2.398505187,48.94809231 2.38532759,48.94481506 2.371480941,48.94733318 2.366558073,48.95693846 2.373242159,48.96206342 2.375935939,48.97202326 2.382446558,48.9712926 2.407383752,48.95613102 2.404448297,48.95132339 2.398505187,48.94809231" />
<polygon id="93073 TREMBLAY-EN-FRANCE" points="2.595934503,48.93861478 2.574758303,48.9374624 2.569018342,48.94323317 2.55418411,48.96810622 2.549715992,48.96989701 2.534869761,48.96674695 2.52629738,48.97521124 2.50051984,48.97528652 2.501882022,48.97853844 2.511558291,48.98099717 2.532810255,49.00442567 2.547695159,49.0043568 2.553060645,49.00981712 2.565792481,49.01239961 2.571527823,49.0015308 2.575843103,49.00028723 2.579969183,48.98692134 2.575839805,48.98060322 2.565841797,48.97869705 2.566334994,48.97525477 2.591905303,48.9493473 2.595934503,48.93861478" />
<polygon id="93074 VAUJOURS" points="2.592341723,48.92502362 2.589686799,48.9276944 2.571205922,48.92461712 2.564583527,48.92831624 2.557242618,48.9345393 2.557045023,48.93530295 2.566654947,48.93687583 2.569018342,48.94323317 2.574758303,48.9374624 2.595934503,48.93861478 2.602402745,48.93531811 2.602598431,48.9293566 2.592341723,48.92502362" />
<polygon id="93077 VILLEMOMBLE" points="2.529846583,48.87428992 2.520436673,48.87457635 2.509129987,48.87792096 2.499176186,48.87796967 2.495247868,48.88375378 2.486801956,48.88703635 2.495433363,48.88994185 2.499850857,48.89574294 2.507639971,48.8985181 2.511679796,48.88954156 2.51619278,48.88819293 2.518197131,48.89117773 2.529846583,48.87428992" />
<polygon id="93078 VILLEPINTE" points="2.557045023,48.93530295 2.554613081,48.94194852 2.544321371,48.94957155 2.524146063,48.95057228 2.496009496,48.9727228 2.50051984,48.97528652 2.52629738,48.97521124 2.534869761,48.96674695 2.549715992,48.96989701 2.55418411,48.96810622 2.569018342,48.94323317 2.566654947,48.93687583 2.557045023,48.93530295" />
<polygon id="93079 VILLETANEUSE" points="2.345795945,48.9465303 2.33331295,48.95538234 2.343705489,48.96721106 2.353463561,48.96562741 2.352027,48.95048498 2.345795945,48.9465303" />

</g>

</g>

</svg>
