<?xml version="1.0" standalone="no"?>
<!DOCTYPE svg PUBLIC "-//W3C//DTD SVG 1.1//EN" 
  "http://www.w3.org/Graphics/SVG/1.1/DTD/svg11.dtd">
<svg width="1000" height="547" viewBox="1.724010594 42.33348862 1.451319284 0.584852820000002"  preserveAspectRatio="none"
     xmlns="http://www.w3.org/2000/svg" version="1.1">

<style type="text/css" >
<![CDATA[

.communes { 
	fill           : #b9b9b9;
	fill-opacity   : 1;
	stroke         : white;
	stroke-opacity : 1;
	stroke-width   : 0.002;
}

]]>
</style>

<g transform="translate(0,42.91834144) scale(1,-1) translate(0,-42.33348862)">

<g class="communes">

<polygon id="66001 L'ALBERE" points="2.932850993,42.47436815 2.924613836,42.45896455 2.920537013,42.45746045 2.886505228,42.46038701 2.878379079,42.46845012 2.869317312,42.47034507 2.861563025,42.47875802 2.862168885,42.48961767 2.878041787,42.49627103 2.885216766,42.49214395 2.894229771,42.49192854 2.911762635,42.48815105 2.932850993,42.47436815" />
<polygon id="66002 ALENYA" points="2.966920631,42.62938494 2.961877306,42.63380655 2.961237,42.64457693 2.968593415,42.64305095 2.967325375,42.64581067 3.002898792,42.65254956 3.005650669,42.64472765 2.99721134,42.64181483 2.988469437,42.63381272 2.980848629,42.62986483 2.966920631,42.62938494" />
<polygon id="66003 AMELIE-LES-BAINS-PALALDA" points="2.673943963,42.40470428 2.672443624,42.42140039 2.650555486,42.42586114 2.66455125,42.4606569 2.663813279,42.47076724 2.659664494,42.47220132 2.664694473,42.48437057 2.660408884,42.49664533 2.695418752,42.48712352 2.688510775,42.47065345 2.672592949,42.46408872 2.674310737,42.46083997 2.7023308,42.44871492 2.720006453,42.43276278 2.723961014,42.42272378 2.69140079,42.4062124 2.673943963,42.40470428" />
<polygon id="66004 LES ANGLES" points="2.091035769,42.54569889 2.063800969,42.54798087 2.043039614,42.5550341 2.025900576,42.56627009 2.021256785,42.56612875 2.016123966,42.55675844 2.015701437,42.55657474 2.006173894,42.55690906 1.999904483,42.56155257 2.006920008,42.59168278 1.993124866,42.60135371 1.984255761,42.61376722 1.993672169,42.61407206 2.000975315,42.6013105 2.009816984,42.59879442 2.032524777,42.60322809 2.051577882,42.60283243 2.058521657,42.60769493 2.080568467,42.60122466 2.113830624,42.60110104 2.104096142,42.58912521 2.099711681,42.57205124 2.084521364,42.55872417 2.091035769,42.54569889" />
<polygon id="66005 ANGOUSTRINE-VILLENEUVE-DES-ESCALDES" points="1.960055826,42.47045211 1.944848864,42.4720198 1.949780639,42.48815136 1.938846372,42.51102177 1.949761393,42.52234052 1.949653721,42.53576201 1.944636788,42.54161024 1.925387651,42.55170339 1.917079722,42.54922798 1.90394055,42.55866892 1.890787217,42.56158996 1.880220117,42.56847449 1.874484829,42.58141497 1.873502171,42.58820176 1.886642373,42.59079401 1.892555314,42.59596233 1.893520027,42.60605128 1.900302888,42.6149056 1.910765665,42.60806259 1.924961204,42.60853898 1.933620757,42.60557776 1.942099308,42.60852115 1.950467865,42.61694735 1.969060314,42.61674165 1.976361328,42.62107357 1.984255761,42.61376722 1.993124866,42.60135371 2.006920008,42.59168278 1.999904483,42.56155257 2.006173894,42.55690906 2.015701437,42.55657474 2.011138138,42.54526759 1.975965229,42.53063242 1.969512708,42.5146756 1.967427956,42.49787097 1.980578078,42.49477901 1.975830414,42.48564472 1.962662599,42.47683328 1.960055826,42.47045211" />
<polygon id="66006 ANSIGNAN" points="2.505742981,42.75137191 2.501527636,42.77202433 2.510029743,42.77984147 2.539712102,42.76495676 2.544733898,42.75949329 2.543805389,42.75185544 2.505742981,42.75137191" />
<polygon id="66007 ARBOUSSOLS" points="2.501722351,42.64670491 2.496523316,42.6521919 2.47400823,42.65425933 2.460162693,42.67228007 2.485864897,42.68681927 2.49799627,42.68198572 2.526830691,42.66074564 2.530538891,42.65408181 2.516801613,42.65382284 2.501722351,42.64670491" />
<polygon id="66008 ARGELES-SUR-MER" points="3.040446786,42.47368946 3.031498179,42.47451048 3.011546247,42.46708959 3.000922822,42.47298699 3.022150357,42.47995121 3.027574234,42.49632818 3.018686388,42.50862744 3.010485902,42.51212542 3.001774059,42.51483172 2.978322641,42.51434411 2.970756529,42.5307211 2.984757919,42.53253092 2.998467814,42.55865597 2.996363232,42.57254523 2.984175451,42.57383867 2.976849029,42.58410387 3.009526141,42.58744125 3.016948759,42.59167465 3.045056326,42.59372523 3.05125577,42.54535687 3.058249853,42.53673223 3.07637003,42.53375424 3.059421861,42.52976467 3.05132519,42.51368673 3.056315315,42.49706298 3.069247886,42.48309519 3.054508895,42.47481582 3.040446786,42.47368946" />
<polygon id="66009 ARLES-SUR-TECH" points="2.650555486,42.42586114 2.639289979,42.4150822 2.628430135,42.42129197 2.609761617,42.42276231 2.593230997,42.42895664 2.590057338,42.43858943 2.616051889,42.45145042 2.616673154,42.45481451 2.614276131,42.46119704 2.601522943,42.46565366 2.580879275,42.48482931 2.581024104,42.48834468 2.588878718,42.49232154 2.597206696,42.48417307 2.624299904,42.47125562 2.64700205,42.46784541 2.659664494,42.47220132 2.663813279,42.47076724 2.66455125,42.4606569 2.650555486,42.42586114" />
<polygon id="66010 AYGUATEBIA-TALAU" points="2.172450871,42.53087093 2.161421111,42.52614601 2.150122144,42.53002126 2.142557546,42.53361973 2.135591178,42.54601492 2.143167214,42.55420315 2.166633286,42.56546488 2.161975716,42.5713531 2.14541132,42.57617561 2.161496118,42.58272226 2.171219788,42.57565071 2.184637157,42.57739021 2.189221896,42.58624475 2.198588124,42.57842179 2.207538361,42.56253069 2.238685297,42.55498969 2.248128807,42.54875451 2.257390314,42.54997904 2.234283894,42.54660639 2.200029053,42.5345423 2.185878785,42.53460615 2.172450871,42.53087093" />
<polygon id="66011 BAGES" points="2.89175604,42.5880701 2.868232696,42.59601789 2.864577297,42.60865352 2.86619781,42.61847295 2.86725059,42.62121631 2.880668648,42.61969478 2.890333072,42.62664569 2.909058331,42.61817636 2.913920945,42.60604354 2.91190655,42.60217611 2.905140794,42.59446577 2.897198193,42.59282223 2.89175604,42.5880701" />
<polygon id="66012 BAHO" points="2.812096303,42.68833872 2.802752733,42.71952093 2.814259846,42.72455862 2.823084552,42.72199307 2.828990455,42.71653602 2.842767076,42.69459193 2.826445789,42.69074555 2.812096303,42.68833872" />
<polygon id="66013 BAILLESTAVY" points="2.506374461,42.5403087 2.505789247,42.5505634 2.49591254,42.5664924 2.495310963,42.57698998 2.495767375,42.58751963 2.503846573,42.59602627 2.51058344,42.58348899 2.532431745,42.58059311 2.558293737,42.55980134 2.552519088,42.5468948 2.539921542,42.55022145 2.52861271,42.54435571 2.506374461,42.5403087" />
<polygon id="66014 BAIXAS" points="2.802752733,42.71952093 2.789081274,42.72011527 2.779804684,42.73543573 2.785379667,42.75835725 2.778197204,42.76677672 2.808993828,42.76849948 2.828698414,42.76606909 2.831803443,42.75578767 2.829120291,42.73877163 2.837836948,42.73612374 2.814259846,42.72455862 2.802752733,42.71952093" />
<polygon id="66015 BANYULS-DELS-ASPRES" points="2.872392884,42.5465335 2.855338751,42.55017956 2.839300441,42.57715314 2.85054221,42.58106212 2.85177549,42.58403054 2.866696277,42.57613901 2.877997238,42.58160943 2.883578628,42.57668915 2.890838658,42.55817768 2.883275932,42.55166109 2.872392884,42.5465335" />
<polygon id="66016 BANYULS-SUR-MER" points="3.120829508,42.43800581 3.108091582,42.43358806 3.099122894,42.42554297 3.085195843,42.42631006 3.055625166,42.44838784 3.040446786,42.47368946 3.054508895,42.47481582 3.069247886,42.48309519 3.075765556,42.48943709 3.090693143,42.4818566 3.116770099,42.48957089 3.123630059,42.49415664 3.132924241,42.49498146 3.129255186,42.48918794 3.131912619,42.48270351 3.153637434,42.47748773 3.161024426,42.46565627 3.15726974,42.45997188 3.152800018,42.45908847 3.149239183,42.45278333 3.13586402,42.45327762 3.124405247,42.44747584 3.120829508,42.43800581" />
<polygon id="66017 LE BARCARES" points="3.025922761,42.77142697 3.017589351,42.77934132 3.018428145,42.80699994 3.012576122,42.85236591 3.043510805,42.83815011 3.038608845,42.77957858 3.025922761,42.77142697" />
<polygon id="66018 LA BASTIDE" points="2.576041878,42.50877583 2.569438445,42.51288455 2.553014401,42.5139587 2.555762423,42.54087619 2.552519088,42.5468948 2.558293737,42.55980134 2.561547439,42.56537054 2.588907746,42.55553648 2.591965123,42.54956097 2.596353224,42.54972148 2.595538534,42.54622136 2.584159286,42.51714103 2.576041878,42.50877583" />
<polygon id="66019 BELESTA" points="2.636188946,42.70510327 2.62325513,42.70498661 2.6159134,42.70171471 2.599447055,42.70487321 2.580059195,42.713925 2.573591983,42.7229357 2.581794379,42.72527882 2.591894421,42.73537016 2.624444103,42.73234224 2.636127378,42.72666406 2.652304823,42.73377602 2.662261949,42.74562262 2.666793759,42.74673377 2.666115701,42.73733559 2.671208391,42.72542881 2.666999826,42.71711686 2.660815541,42.71331214 2.652566027,42.71453547 2.636188946,42.70510327" />
<polygon id="66020 BOLQUERE" points="2.066714623,42.48741347 2.069060194,42.50105356 2.056698989,42.51569755 2.052229771,42.52900827 2.011138138,42.54526759 2.015701437,42.55657474 2.016123966,42.55675844 2.020759158,42.55736744 2.038830715,42.54625765 2.0518079,42.5422651 2.090732929,42.52298716 2.09614258,42.51740535 2.109472656,42.51429 2.109443655,42.50822155 2.080853898,42.49352342 2.066714623,42.48741347" />
<polygon id="66021 BOMPAS" points="2.958051044,42.72264349 2.949063356,42.72306218 2.930196256,42.71466277 2.924554843,42.73051045 2.933217992,42.73773622 2.941708924,42.73635651 2.953208105,42.73997667 2.957380419,42.73920515 2.960116847,42.73323597 2.958051044,42.72264349" />
<polygon id="66022 BOULE-D'AMONT" points="2.596353224,42.54972148 2.591965123,42.54956097 2.588907746,42.55553648 2.561547439,42.56537054 2.57874836,42.59007258 2.574650704,42.61808815 2.572163543,42.62028088 2.575047366,42.62546191 2.594071701,42.62780143 2.591467068,42.62247813 2.615048008,42.60395557 2.617925744,42.5956589 2.615254926,42.59288033 2.617922586,42.58313559 2.596353224,42.54972148" />
<polygon id="66023 BOULETERNERE" points="2.575047366,42.62546191 2.567099214,42.64819424 2.568891764,42.66106725 2.600273269,42.66087443 2.605741445,42.65568007 2.60967752,42.64632619 2.605595593,42.63043383 2.594071701,42.62780143 2.575047366,42.62546191" />
<polygon id="66024 LE BOULOU" points="2.84230288,42.50590566 2.828949565,42.50634355 2.826002229,42.51283809 2.817866613,42.51501794 2.800787985,42.53466547 2.804304265,42.54090178 2.811834937,42.54288405 2.815257845,42.54841869 2.840815567,42.54345259 2.85250947,42.53429996 2.846492159,42.52986862 2.864041646,42.50951332 2.860681937,42.50706389 2.84230288,42.50590566" />
<polygon id="66025 BOURG-MADAME" points="1.962352445,42.42316248 1.958285809,42.42395881 1.941788317,42.43045742 1.942894896,42.44442909 1.959803161,42.45326136 1.980854097,42.44761245 1.976620158,42.44262766 1.97775753,42.43657967 1.976848559,42.42749166 1.962352445,42.42316248" />
<polygon id="66026 BROUILLA" points="2.903099651,42.55601398 2.890838658,42.55817768 2.883578628,42.57668915 2.877997238,42.58160943 2.868232696,42.59601789 2.89175604,42.5880701 2.910809625,42.57940335 2.917877044,42.57088656 2.913524444,42.56975938 2.913133197,42.56296273 2.903099651,42.55601398" />
<polygon id="66027 LA CABANASSE" points="2.089071867,42.49156221 2.081109,42.49043313 2.080853898,42.49352342 2.109443655,42.50822155 2.109472656,42.51429 2.116106991,42.51271797 2.119134234,42.50778056 2.123348949,42.5078782 2.123727645,42.51098282 2.131471414,42.50420483 2.104756209,42.49932731 2.089071867,42.49156221" />
<polygon id="66028 CABESTANY" points="2.929841209,42.66527535 2.93072652,42.66864746 2.920185236,42.67961788 2.918696581,42.68980343 2.922106002,42.69212563 2.930805689,42.69431641 2.961526004,42.68643782 2.983769337,42.67829778 2.978787533,42.67298334 2.965836104,42.67257541 2.963817035,42.66698249 2.929841209,42.66527535" />
<polygon id="66029 CAIXAS" points="2.678637757,42.57033588 2.665121457,42.57306328 2.654195807,42.59204249 2.64041764,42.59084628 2.632532273,42.58716047 2.617925744,42.5956589 2.615048008,42.60395557 2.624056868,42.6034572 2.633687464,42.61051207 2.625209818,42.63046841 2.627456685,42.63324534 2.639987972,42.6328747 2.647725667,42.63590331 2.655042614,42.63403016 2.659284237,42.62911696 2.673016107,42.61202412 2.685279077,42.59731689 2.71242829,42.59205324 2.711568746,42.57887146 2.699718468,42.57454159 2.678637757,42.57033588" />
<polygon id="66030 CALCE" points="2.780710304,42.71844408 2.753743397,42.72581223 2.734784248,42.72752925 2.723788919,42.73417302 2.720042513,42.73711247 2.736760422,42.74899657 2.728724635,42.761214 2.730728628,42.77116379 2.735816535,42.7768592 2.744614043,42.77474948 2.762972107,42.77448594 2.778197204,42.76677672 2.785379667,42.75835725 2.779804684,42.73543573 2.789081274,42.72011527 2.780710304,42.71844408" />
<polygon id="66032 CALMEILLES" points="2.650096731,42.52690647 2.646908527,42.53559793 2.65282307,42.54056166 2.65024828,42.56045667 2.661316941,42.56632679 2.678637757,42.57033588 2.699718468,42.57454159 2.697685855,42.558354 2.68677881,42.55369281 2.682673106,42.53727442 2.67897675,42.53524069 2.650096731,42.52690647" />
<polygon id="66033 CAMELAS" points="2.673016107,42.61202412 2.659284237,42.62911696 2.669693749,42.63558682 2.674059059,42.64537298 2.698712246,42.66107106 2.699298154,42.66792368 2.704555845,42.66899025 2.722601049,42.6583935 2.704324844,42.64728602 2.699651068,42.63018196 2.689877956,42.61806194 2.673016107,42.61202412" />
<polygon id="66034 CAMPOME" points="2.394616975,42.62835966 2.382454342,42.6329293 2.364878551,42.63457056 2.371723277,42.63894454 2.369945976,42.64903077 2.377528012,42.65755357 2.375932609,42.67799885 2.382007053,42.66479029 2.379730103,42.65437459 2.386539403,42.64508135 2.407344332,42.63751155 2.411688939,42.63897406 2.40801082,42.63423363 2.392094889,42.63087173 2.394616975,42.62835966" />
<polygon id="66035 CAMPOUSSY" points="2.460162693,42.67228007 2.442511444,42.68335644 2.415146049,42.68036921 2.418313253,42.69390916 2.429870898,42.70484175 2.459888836,42.72154146 2.471399157,42.71631196 2.468344686,42.70362809 2.488665415,42.69127429 2.485864897,42.68681927 2.460162693,42.67228007" />
<polygon id="66036 CANAVEILLES" points="2.206114851,42.51965541 2.197331193,42.52652995 2.171727937,42.52613658 2.172450871,42.53087093 2.185878785,42.53460615 2.200029053,42.5345423 2.234283894,42.54660639 2.257390314,42.54997904 2.263927366,42.54936802 2.261928396,42.54302522 2.253613217,42.53252104 2.246559111,42.5290643 2.206114851,42.51965541" />
<polygon id="66037 CANET-EN-ROUSSILLON" points="3.035728309,42.640766 3.021821016,42.63870193 3.005650669,42.64472765 3.002898792,42.65254956 3.015324402,42.66097273 3.011671198,42.66728467 2.997026955,42.67557475 2.983769337,42.67829778 2.961526004,42.68643782 2.974113637,42.68963338 2.976884917,42.70848815 2.982247595,42.71367704 2.993233144,42.71342655 3.001109456,42.7100461 3.013131705,42.71496344 3.030065082,42.7101228 3.032289411,42.71988654 3.04027875,42.72327351 3.03848707,42.70622697 3.030342191,42.70378402 3.037897858,42.70001437 3.035469362,42.65548365 3.035728309,42.640766" />
<polygon id="66038 CANOHES" points="2.855672785,42.64130393 2.833950977,42.64031941 2.821844635,42.64500198 2.812637665,42.64506717 2.808367937,42.65100239 2.79968796,42.65337799 2.798427146,42.65519174 2.810789097,42.65929608 2.819128946,42.65675715 2.844225512,42.66425891 2.852829251,42.66304836 2.860119931,42.65554193 2.855672785,42.64130393" />
<polygon id="66039 CARAMANY" points="2.547866287,42.72227272 2.530478607,42.71902395 2.522201854,42.72163979 2.541652667,42.73549964 2.543805389,42.75185544 2.544733898,42.75949329 2.553695746,42.75880266 2.568585678,42.75507817 2.576682708,42.74734174 2.585225093,42.74698852 2.591894421,42.73537016 2.581794379,42.72527882 2.573591983,42.7229357 2.547866287,42.72227272" />
<polygon id="66040 CASEFABRE" points="2.625209818,42.63046841 2.633687464,42.61051207 2.624056868,42.6034572 2.615048008,42.60395557 2.591467068,42.62247813 2.594071701,42.62780143 2.605595593,42.63043383 2.625209818,42.63046841" />
<polygon id="66041 CASES-DE-PENE" points="2.778197204,42.76677672 2.762972107,42.77448594 2.744614043,42.77474948 2.750391432,42.77945677 2.74508549,42.78414696 2.775824057,42.79990638 2.7958188,42.81911718 2.799420646,42.79477381 2.790489391,42.78288756 2.796601269,42.77352998 2.808993828,42.76849948 2.778197204,42.76677672" />
<polygon id="66042 CASSAGNES" points="2.666793759,42.74673377 2.662261949,42.74562262 2.652304823,42.73377602 2.636127378,42.72666406 2.624444103,42.73234224 2.591894421,42.73537016 2.585225093,42.74698852 2.592633036,42.75531616 2.610614347,42.75768486 2.621778536,42.75589955 2.627581745,42.75092057 2.643392753,42.75703467 2.647729311,42.75622179 2.666558571,42.74732648 2.666793759,42.74673377" />
<polygon id="66043 CASTEIL" points="2.417016687,42.46787898 2.405244544,42.48526221 2.404425351,42.49175698 2.396321376,42.49431838 2.389804474,42.5030371 2.379316115,42.51825898 2.381928891,42.53548057 2.394388739,42.53897711 2.419631439,42.52982184 2.437054977,42.51405733 2.46008223,42.51661248 2.468449639,42.49981708 2.464540402,42.49424206 2.456622685,42.4927008 2.452606337,42.48706191 2.44019292,42.48332085 2.417016687,42.46787898" />
<polygon id="66044 CASTELNOU" points="2.71242829,42.59205324 2.685279077,42.59731689 2.673016107,42.61202412 2.689877956,42.61806194 2.699651068,42.63018196 2.704324844,42.64728602 2.722601049,42.6583935 2.727528583,42.65703058 2.729711251,42.65390736 2.725650453,42.63681489 2.729074528,42.62318508 2.721189315,42.61229547 2.730990462,42.60634204 2.735662126,42.60134614 2.729704541,42.59757333 2.725470752,42.59740072 2.720895943,42.59221054 2.71242829,42.59205324" />
<polygon id="66045 CATLLAR" points="2.406730197,42.62367151 2.394616975,42.62835966 2.392094889,42.63087173 2.40801082,42.63423363 2.411688939,42.63897406 2.411779673,42.65170552 2.416046395,42.65741113 2.429486764,42.6569442 2.43921218,42.65009964 2.44502324,42.63460294 2.442944924,42.63165219 2.434217068,42.63268525 2.426508842,42.62905692 2.41780062,42.6293515 2.406730197,42.62367151" />
<polygon id="66046 CAUDIES-DE-FENOUILLEDES" points="2.418232,42.79479482 2.399374945,42.79408838 2.386269763,42.79794371 2.343922817,42.80122687 2.334922614,42.80233142 2.331679762,42.81885702 2.321924723,42.82577387 2.325040433,42.8351996 2.336096346,42.84070904 2.370849057,42.84634991 2.382167466,42.84846597 2.401353259,42.84387164 2.412706776,42.82201997 2.436343324,42.80697693 2.436074733,42.79437761 2.418232,42.79479482" />
<polygon id="66047 CAUDIES-DE-CONFLENT" points="2.135591178,42.54601492 2.122765741,42.55561982 2.129584992,42.56395572 2.129951286,42.57038684 2.138319053,42.57784482 2.14541132,42.57617561 2.161975716,42.5713531 2.166633286,42.56546488 2.143167214,42.55420315 2.135591178,42.54601492" />
<polygon id="66048 CERBERE" points="3.174070162,42.43519061 3.141836616,42.43348558 3.123711961,42.43530589 3.120829508,42.43800581 3.124405247,42.44747584 3.13586402,42.45327762 3.149239183,42.45278333 3.152800018,42.45908847 3.15726974,42.45997188 3.164907103,42.45619399 3.164961043,42.44949722 3.175329878,42.43847841 3.174070162,42.43519061" />
<polygon id="66049 CERET" points="2.727370576,42.42262469 2.727125485,42.45436335 2.732902943,42.46776253 2.728126712,42.49226382 2.734151823,42.49750177 2.72322342,42.50683188 2.727729028,42.50723001 2.732319496,42.51298585 2.734486704,42.52271787 2.738889664,42.5219017 2.749050839,42.51587615 2.766600514,42.51509793 2.769599362,42.51265034 2.782733692,42.49319803 2.787715841,42.46923407 2.776629101,42.45371449 2.759501152,42.44796032 2.760671475,42.43780563 2.751865569,42.42537213 2.727370576,42.42262469" />
<polygon id="66050 CLAIRA" points="2.960116847,42.73323597 2.957380419,42.73920515 2.953208105,42.73997667 2.941708924,42.73635651 2.942216442,42.75344943 2.930789167,42.75951192 2.912566363,42.7627895 2.910029968,42.7695131 2.910340481,42.78976264 2.931354518,42.78710761 2.935963411,42.7923077 2.940249025,42.79208538 2.943029881,42.7824837 2.96898912,42.76910579 2.973492319,42.76943968 2.981232206,42.76206823 2.973158063,42.75326384 2.974335538,42.73922854 2.960116847,42.73323597" />
<polygon id="66051 CLARA" points="2.463020204,42.55656896 2.438961141,42.57368824 2.432943475,42.58711481 2.442221337,42.60037941 2.445574076,42.59844595 2.450092476,42.60708209 2.460922514,42.60332532 2.463698302,42.60056126 2.464232572,42.58346442 2.460232844,42.570013 2.463020204,42.55656896" />
<polygon id="66052 CODALET" points="2.427462217,42.59148184 2.419895568,42.58888778 2.411745884,42.58988611 2.406629561,42.59886616 2.410996036,42.61474948 2.417770894,42.61038124 2.427462217,42.59148184" />
<polygon id="66053 COLLIOURE" points="3.069247886,42.48309519 3.056315315,42.49706298 3.05132519,42.51368673 3.059421861,42.52976467 3.07637003,42.53375424 3.090213682,42.52528429 3.09910704,42.52361335 3.09731636,42.51379854 3.08898038,42.50550864 3.071140534,42.50149482 3.068889515,42.49845793 3.075765556,42.48943709 3.069247886,42.48309519" />
<polygon id="66054 CONAT" points="2.33263907,42.59700926 2.305898245,42.60060595 2.308354358,42.60694221 2.302777688,42.61936698 2.307476565,42.62449524 2.320643671,42.6249753 2.327859655,42.62844636 2.328495392,42.64407635 2.34253596,42.64310266 2.353352234,42.6363356 2.380703242,42.60635196 2.33263907,42.59700926" />
<polygon id="66055 CORBERE" points="2.659284237,42.62911696 2.655042614,42.63403016 2.647725667,42.63590331 2.644307116,42.64339014 2.651613416,42.64754988 2.652290847,42.66465244 2.67170724,42.67373158 2.674057291,42.66964793 2.677831258,42.6635636 2.669037964,42.65673076 2.668465502,42.65030064 2.674059059,42.64537298 2.669693749,42.63558682 2.659284237,42.62911696" />
<polygon id="66056 CORBERE-LES-CABANES" points="2.674059059,42.64537298 2.668465502,42.65030064 2.669037964,42.65673076 2.677831258,42.6635636 2.674057291,42.66964793 2.685756754,42.67354899 2.69152726,42.66525826 2.699298154,42.66792368 2.698712246,42.66107106 2.674059059,42.64537298" />
<polygon id="66057 CORNEILLA-DE-CONFLENT" points="2.370494646,42.55650421 2.361555111,42.58224395 2.363272597,42.58539181 2.381181641,42.60140998 2.385371732,42.59527573 2.39700118,42.58971402 2.400047564,42.58334806 2.401985007,42.57711071 2.397505212,42.5715386 2.402473091,42.56627131 2.395821171,42.55797202 2.370494646,42.55650421" />
<polygon id="66058 CORNEILLA-LA-RIVIERE" points="2.745992588,42.68546002 2.729750899,42.69001462 2.712023629,42.6937626 2.707941422,42.71788371 2.700506125,42.72682747 2.723788919,42.73417302 2.747808072,42.70524455 2.74374911,42.68848462 2.745992588,42.68546002" />
<polygon id="66059 CORNEILLA-DEL-VERCOL" points="2.948089284,42.61198116 2.929429992,42.62257004 2.934579942,42.63293924 2.94596917,42.6276053 2.961877306,42.63380655 2.966920631,42.62938494 2.97178263,42.62072861 2.948089284,42.61198116" />
<polygon id="66060 CORSAVY" points="2.518407613,42.45210581 2.510714803,42.45611584 2.495719475,42.47341296 2.464540402,42.49424206 2.468449639,42.49981708 2.491208612,42.50338897 2.518021165,42.49899175 2.553014401,42.5139587 2.569438445,42.51288455 2.576041878,42.50877583 2.58709007,42.50307489 2.589883492,42.50145858 2.588878718,42.49232154 2.581024104,42.48834468 2.580879275,42.48482931 2.601522943,42.46565366 2.614276131,42.46119704 2.616673154,42.45481451 2.599590747,42.46059458 2.572481503,42.45404423 2.550021259,42.45926432 2.545238709,42.45919908 2.521432212,42.45777351 2.517638288,42.45560804 2.518407613,42.45210581" />
<polygon id="66061 COUSTOUGES" points="2.659111201,42.37968821 2.662354753,42.36591967 2.675295073,42.3557405 2.675438773,42.34511718 2.672644035,42.34222351 2.663310105,42.340999 2.616355525,42.34597222 2.5896808,42.35388104 2.587525643,42.35706347 2.597062906,42.36234903 2.596251888,42.36747818 2.622671475,42.36237096 2.654077278,42.3740094 2.659111201,42.37968821" />
<polygon id="66062 DORRES" points="1.944848864,42.4720198 1.921922192,42.47400202 1.918548203,42.47652099 1.918089582,42.48686376 1.908999654,42.49490716 1.912790808,42.51574909 1.89187755,42.53490825 1.911552882,42.54370554 1.917079722,42.54922798 1.925387651,42.55170339 1.944636788,42.54161024 1.949653721,42.53576201 1.949761393,42.52234052 1.938846372,42.51102177 1.949780639,42.48815136 1.944848864,42.4720198" />
<polygon id="66063 LES CLUSES" points="2.84140723,42.46437449 2.828328136,42.47388258 2.826042333,42.49120991 2.841180037,42.49884739 2.842473817,42.50559128 2.85744694,42.49842989 2.862168885,42.48961767 2.861563025,42.47875802 2.850437795,42.47467096 2.84140723,42.46437449" />
<polygon id="66064 EGAT" points="2.021662908,42.48675812 2.013743324,42.48821347 2.005086107,42.49444399 2.009057308,42.5131352 2.030905971,42.51167267 2.021662908,42.48675812" />
<polygon id="66065 ELNE" points="2.945414056,42.58333727 2.91190655,42.60217611 2.913920945,42.60604354 2.935989433,42.60230113 2.948089284,42.61198116 2.97178263,42.62072861 2.966920631,42.62938494 2.980848629,42.62986483 2.988469437,42.63381272 2.985271256,42.61767461 2.99012901,42.61223605 3.002518711,42.59452582 3.011693153,42.59456117 3.022768063,42.60047489 3.028083845,42.59623927 3.04311422,42.60008204 3.045056326,42.59372523 3.016948759,42.59167465 3.009526141,42.58744125 2.976849029,42.58410387 2.945414056,42.58333727" />
<polygon id="66066 ENVEITG" points="1.933844851,42.45416462 1.918299588,42.44664552 1.900272598,42.44997604 1.90013209,42.4638997 1.865481041,42.50136672 1.851594689,42.51431701 1.860837717,42.52141955 1.854728164,42.53052442 1.877602664,42.5350738 1.89187755,42.53490825 1.912790808,42.51574909 1.908999654,42.49490716 1.918089582,42.48686376 1.918548203,42.47652099 1.921922192,42.47400202 1.916938345,42.46836884 1.930661005,42.46031764 1.933844851,42.45416462" />
<polygon id="66067 ERR" points="2.089547574,42.37371733 2.038819087,42.40886767 2.035300958,42.41110113 2.027464402,42.43520195 2.018551239,42.44349838 2.033005518,42.45164007 2.056292477,42.43480485 2.073472019,42.42893277 2.079829443,42.41587266 2.093915469,42.40167386 2.114896807,42.39450631 2.113659838,42.38169598 2.089547574,42.37371733" />
<polygon id="66068 ESCARO" points="2.323150894,42.50862224 2.299120831,42.51747484 2.296186789,42.54011002 2.3004962,42.54063279 2.303365771,42.54670182 2.294759055,42.55766717 2.307352282,42.55399172 2.338581382,42.55587083 2.343416871,42.54651508 2.339401549,42.53927138 2.335962773,42.51882513 2.323150894,42.50862224" />
<polygon id="66069 ESPIRA-DE-L'AGLY" points="2.83962435,42.76471927 2.828698414,42.76606909 2.808993828,42.76849948 2.796601269,42.77352998 2.790489391,42.78288756 2.799420646,42.79477381 2.7958188,42.81911718 2.803059321,42.82716064 2.814073751,42.83247666 2.826515863,42.82273207 2.851432972,42.81414613 2.857521967,42.80149375 2.8430976,42.78456002 2.84635174,42.76806501 2.83962435,42.76471927" />
<polygon id="66070 ESPIRA-DE-CONFLENT" points="2.503846573,42.59602627 2.493382612,42.60715218 2.477758596,42.61361304 2.484593274,42.63356926 2.497198273,42.63748625 2.502789729,42.63436567 2.501866364,42.62842758 2.50639647,42.6024212 2.503846573,42.59602627" />
<polygon id="66071 ESTAGEL" points="2.720042513,42.73711247 2.707600119,42.74214139 2.696915189,42.75364777 2.676286524,42.76182372 2.677217618,42.77215793 2.666038557,42.782671 2.67379431,42.78627362 2.680218822,42.7879205 2.698165588,42.79014855 2.712940927,42.78215945 2.726646234,42.78543231 2.74508549,42.78414696 2.750391432,42.77945677 2.744614043,42.77474948 2.735816535,42.7768592 2.730728628,42.77116379 2.728724635,42.761214 2.736760422,42.74899657 2.720042513,42.73711247" />
<polygon id="66072 ESTAVAR" points="2.002788828,42.45822078 1.991899285,42.46383579 1.986609567,42.47271244 1.993972521,42.48446888 1.998384853,42.48497787 2.002158099,42.48593019 2.005086107,42.49444399 2.013743324,42.48821347 2.021662908,42.48675812 2.037593379,42.47527927 2.026327669,42.47068217 2.023079205,42.46452153 2.002788828,42.45822078" />
<polygon id="66073 ESTOHER" points="2.472147508,42.52483543 2.465294653,42.53394388 2.4699212,42.54382877 2.463020204,42.55656896 2.460232844,42.570013 2.464232572,42.58346442 2.463698302,42.60056126 2.460922514,42.60332532 2.469428966,42.60468947 2.47478416,42.61411092 2.477758596,42.61361304 2.493382612,42.60715218 2.503846573,42.59602627 2.495767375,42.58751963 2.495310963,42.57698998 2.49591254,42.5664924 2.505789247,42.5505634 2.506374461,42.5403087 2.496619586,42.52963726 2.472147508,42.52483543" />
<polygon id="66074 EUS" points="2.452438324,42.62556063 2.442944924,42.63165219 2.44502324,42.63460294 2.43921218,42.65009964 2.429486764,42.6569442 2.416046395,42.65741113 2.408357595,42.67325592 2.408815244,42.6833914 2.415146049,42.68036921 2.442511444,42.68335644 2.460162693,42.67228007 2.47400823,42.65425933 2.486652082,42.6458964 2.46726052,42.6315783 2.452438324,42.62556063" />
<polygon id="66075 EYNE" points="2.133169239,42.41434232 2.122491752,42.42986001 2.065971148,42.47693393 2.068579667,42.48242248 2.065084771,42.48375835 2.066714623,42.48741347 2.080853898,42.49352342 2.081109,42.49043313 2.089071867,42.49156221 2.101990223,42.48089306 2.112286528,42.46106735 2.131414434,42.45083312 2.146945542,42.43461604 2.156949104,42.42337832 2.133169239,42.41434232" />
<polygon id="66076 FELLUNS" points="2.503894102,42.74641798 2.500773678,42.74894811 2.477707579,42.74844252 2.468994494,42.75937852 2.476002927,42.76703802 2.478445463,42.77637444 2.501527636,42.77202433 2.505742981,42.75137191 2.503894102,42.74641798" />
<polygon id="66077 FENOUILLET" points="2.420730769,42.78296589 2.402391663,42.78093194 2.364029233,42.75708952 2.350519216,42.75729622 2.352367072,42.76339487 2.343325408,42.77411215 2.344229118,42.78056493 2.343922817,42.80122687 2.386269763,42.79794371 2.399374945,42.79408838 2.418232,42.79479482 2.420730769,42.78296589" />
<polygon id="66078 FILLOLS" points="2.451715072,42.53286815 2.42677009,42.54923353 2.395821171,42.55797202 2.402473091,42.56627131 2.397505212,42.5715386 2.401985007,42.57711071 2.400047564,42.58334806 2.406138392,42.58375968 2.419522046,42.57017713 2.420270373,42.56341165 2.447278411,42.55085196 2.4553201,42.53862209 2.451715072,42.53286815" />
<polygon id="66079 FINESTRET" points="2.532431745,42.58059311 2.51058344,42.58348899 2.503846573,42.59602627 2.50639647,42.6024212 2.501866364,42.62842758 2.508331627,42.63271904 2.512610161,42.63214524 2.521013822,42.61703417 2.52451979,42.60057943 2.527981145,42.59841912 2.535472513,42.60204807 2.538121741,42.59944337 2.5281697,42.59316064 2.532431745,42.58059311" />
<polygon id="66080 FONTPEDROUSE" points="2.257082568,42.43848784 2.244428655,42.42880757 2.226328643,42.42578326 2.201349568,42.41666394 2.156949104,42.42337832 2.146945542,42.43461604 2.159325046,42.45729545 2.161250276,42.48133951 2.154339157,42.49817656 2.147886651,42.50329435 2.161678681,42.50481499 2.16879696,42.50918579 2.171727937,42.52613658 2.197331193,42.52652995 2.206114851,42.51965541 2.198489028,42.51566984 2.202937088,42.49515255 2.21707561,42.47711627 2.238746162,42.47199632 2.244075807,42.46268528 2.242643579,42.45609495 2.250989714,42.44801865 2.257082568,42.43848784" />
<polygon id="66081 FONTRABIOUSE" points="2.099910463,42.62541285 2.09699564,42.62259209 2.087725364,42.62217173 2.07201323,42.63028126 2.031080905,42.64032992 2.018965613,42.64600082 1.99077146,42.64663763 1.997955762,42.66090251 2.002094847,42.66107607 2.018422598,42.65365641 2.027051835,42.65262033 2.043269609,42.65749603 2.075147838,42.64375909 2.107524641,42.64259558 2.096320741,42.6276483 2.099910463,42.62541285" />
<polygon id="66082 FORMIGUERES" points="2.113830624,42.60110104 2.080568467,42.60122466 2.058521657,42.60769493 2.051577882,42.60283243 2.032524777,42.60322809 2.009816984,42.59879442 2.000975315,42.6013105 1.993672169,42.61407206 1.984255761,42.61376722 1.976361328,42.62107357 1.976115681,42.62743693 1.99077146,42.64663763 2.018965613,42.64600082 2.031080905,42.64032992 2.07201323,42.63028126 2.087725364,42.62217173 2.09699564,42.62259209 2.099910463,42.62541285 2.110484316,42.63938345 2.125070307,42.64607625 2.128383271,42.62488452 2.150256534,42.62186884 2.147289506,42.60997734 2.129437181,42.61300719 2.113830624,42.60110104" />
<polygon id="66083 FOSSE" points="2.428955128,42.77337069 2.420730769,42.78296589 2.418232,42.79479482 2.436074733,42.79437761 2.448111561,42.79459311 2.444313121,42.78321661 2.437681153,42.77472064 2.428955128,42.77337069" />
<polygon id="66084 FOURQUES" points="2.791377311,42.5693929 2.787515742,42.57105741 2.785385742,42.5681584 2.767796115,42.57809147 2.750409361,42.5790142 2.75206196,42.58515824 2.747462676,42.59373302 2.769013714,42.59623608 2.776325093,42.59983871 2.783045253,42.59577103 2.786774523,42.59749565 2.803812231,42.58603893 2.791377311,42.5693929" />
<polygon id="66085 FUILLA" points="2.339401549,42.53927138 2.343416871,42.54651508 2.346546206,42.56673497 2.355643157,42.58219947 2.343407189,42.57764782 2.335733878,42.58063011 2.349076638,42.58957669 2.361797975,42.58784636 2.363272597,42.58539181 2.361555111,42.58224395 2.370494646,42.55650421 2.372205276,42.54556446 2.363493652,42.54728391 2.352791622,42.54095358 2.339401549,42.53927138" />
<polygon id="66086 GLORIANES" points="2.558293737,42.55980134 2.532431745,42.58059311 2.5281697,42.59316064 2.538121741,42.59944337 2.535472513,42.60204807 2.534252908,42.61762311 2.552176736,42.62006418 2.574650704,42.61808815 2.57874836,42.59007258 2.561547439,42.56537054 2.558293737,42.55980134" />
<polygon id="66088 ILLE-SUR-TET" points="2.644307116,42.64339014 2.640095497,42.65293313 2.626971913,42.66143837 2.605741445,42.65568007 2.600273269,42.66087443 2.568891764,42.66106725 2.561778608,42.6738953 2.565306735,42.67624734 2.586238239,42.69028434 2.599447055,42.70487321 2.6159134,42.70171471 2.62325513,42.70498661 2.636188946,42.70510327 2.650141611,42.68376904 2.661375913,42.67775428 2.670334353,42.6773417 2.67170724,42.67373158 2.652290847,42.66465244 2.651613416,42.64754988 2.644307116,42.64339014" />
<polygon id="66089 JOCH" points="2.535472513,42.60204807 2.527981145,42.59841912 2.52451979,42.60057943 2.521013822,42.61703417 2.512610161,42.63214524 2.522284874,42.63127186 2.534252908,42.61762311 2.535472513,42.60204807" />
<polygon id="66090 JUJOLS" points="2.291426011,42.5617626 2.276385552,42.5693574 2.273276304,42.57583627 2.275144349,42.58605302 2.262658783,42.59590205 2.258497156,42.60930516 2.29177339,42.59627876 2.306057971,42.57490347 2.300751622,42.56194093 2.291426011,42.5617626" />
<polygon id="66091 LAMANERE" points="2.561870335,42.35711378 2.555202434,42.35268197 2.551631858,42.34264538 2.542191445,42.33519914 2.537951258,42.33369782 2.53326491,42.33348862 2.498432477,42.34262369 2.484885366,42.34007831 2.476300202,42.34771218 2.491184879,42.35546019 2.499889504,42.38198975 2.511853784,42.3923909 2.529094124,42.38066677 2.533621825,42.37082656 2.543654152,42.36358959 2.561783583,42.36060979 2.561870335,42.35711378" />
<polygon id="66092 LANSAC" points="2.568585678,42.75507817 2.553695746,42.75880266 2.549873882,42.77175272 2.558662711,42.77963012 2.572780951,42.78194426 2.573597106,42.77551837 2.581028734,42.76727527 2.575737561,42.75817287 2.568585678,42.75507817" />
<polygon id="66093 LAROQUE-DES-ALBERES" points="2.932850993,42.47436815 2.911762635,42.48815105 2.914888481,42.50178124 2.909917008,42.51146765 2.910953305,42.52510548 2.930971272,42.53403792 2.936387019,42.56133398 2.947380134,42.54808907 2.952138266,42.51312201 2.947087628,42.48180112 2.932850993,42.47436815" />
<polygon id="66094 LATOUR-BAS-ELNE" points="3.022768063,42.60047489 3.011693153,42.59456117 3.002518711,42.59452582 2.99012901,42.61223605 3.008057781,42.61460064 3.014177386,42.60288574 3.022768063,42.60047489" />
<polygon id="66095 LATOUR-DE-CAROL" points="1.900272598,42.44997604 1.887126989,42.44993853 1.881030374,42.45897234 1.869450248,42.46451378 1.856231011,42.46372555 1.848685942,42.46768082 1.843362219,42.47715259 1.865481041,42.50136672 1.90013209,42.4638997 1.900272598,42.44997604" />
<polygon id="66096 LATOUR-DE-FRANCE" points="2.666558571,42.74732648 2.647729311,42.75622179 2.643392753,42.75703467 2.627581745,42.75092057 2.621778536,42.75589955 2.633341658,42.7700836 2.6359147,42.78017211 2.626905108,42.79175859 2.641160861,42.79248164 2.67379431,42.78627362 2.666038557,42.782671 2.677217618,42.77215793 2.676286524,42.76182372 2.666558571,42.74732648" />
<polygon id="66097 LESQUERDE" points="2.558662711,42.77963012 2.547748987,42.78604078 2.511215203,42.78838918 2.485280245,42.7916128 2.48312737,42.79756414 2.519530359,42.80154606 2.53128837,42.80626497 2.561798649,42.79922735 2.569381987,42.80245922 2.593822036,42.79998287 2.592660161,42.78630176 2.578568312,42.78683176 2.572780951,42.78194426 2.558662711,42.77963012" />
<polygon id="66098 LA LLAGONNE" points="2.116106991,42.51271797 2.109472656,42.51429 2.09614258,42.51740535 2.090732929,42.52298716 2.0518079,42.5422651 2.038830715,42.54625765 2.020759158,42.55736744 2.016123966,42.55675844 2.021256785,42.56612875 2.025900576,42.56627009 2.043039614,42.5550341 2.063800969,42.54798087 2.091035769,42.54569889 2.104440459,42.54449958 2.122765741,42.55561982 2.135591178,42.54601492 2.142557546,42.53361973 2.150122144,42.53002126 2.11922233,42.51322019 2.116106991,42.51271797" />
<polygon id="66099 LLAURO" points="2.741616945,42.52899209 2.729661198,42.53340334 2.725828951,42.53930875 2.723730688,42.55885606 2.732175985,42.56284209 2.736871669,42.55711824 2.753817109,42.55266375 2.766675413,42.55414896 2.775389371,42.55209999 2.772684795,42.54409341 2.755982544,42.54075734 2.741616945,42.52899209" />
<polygon id="66100 LLO" points="2.114896807,42.39450631 2.093915469,42.40167386 2.079829443,42.41587266 2.073472019,42.42893277 2.067187831,42.43798409 2.050892229,42.44452834 2.046522029,42.45425189 2.065971148,42.47693393 2.122491752,42.42986001 2.133169239,42.41434232 2.124414526,42.40760091 2.121740165,42.39829333 2.114896807,42.39450631" />
<polygon id="66101 LLUPIA" points="2.763911554,42.61219158 2.762481132,42.6257099 2.790406652,42.64325477 2.799868272,42.63278996 2.804073184,42.62064271 2.789053562,42.61670334 2.763911554,42.61219158" />
<polygon id="66102 MANTET" points="2.318743373,42.42501177 2.310598119,42.4284471 2.293943974,42.42298067 2.257082568,42.43848784 2.250989714,42.44801865 2.257837642,42.45262406 2.258450141,42.46271429 2.269164049,42.46905381 2.275661425,42.48168332 2.298059888,42.4823904 2.30955375,42.48814676 2.32742037,42.46810668 2.325048764,42.44741654 2.333441306,42.42776542 2.318743373,42.42501177" />
<polygon id="66103 MARQUIXANES" points="2.477758596,42.61361304 2.47478416,42.61411092 2.475421657,42.62037144 2.46726052,42.6315783 2.486652082,42.6458964 2.47400823,42.65425933 2.496523316,42.6521919 2.501722351,42.64670491 2.497198273,42.63748625 2.484593274,42.63356926 2.477758596,42.61361304" />
<polygon id="66104 LOS MASOS" points="2.460922514,42.60332532 2.450092476,42.60708209 2.445574076,42.59844595 2.442221337,42.60037941 2.452438324,42.62556063 2.46726052,42.6315783 2.475421657,42.62037144 2.47478416,42.61411092 2.469428966,42.60468947 2.460922514,42.60332532" />
<polygon id="66105 MATEMALE" points="2.122765741,42.55561982 2.104440459,42.54449958 2.091035769,42.54569889 2.084521364,42.55872417 2.099711681,42.57205124 2.104096142,42.58912521 2.113830624,42.60110104 2.129437181,42.61300719 2.147289506,42.60997734 2.136963422,42.5995911 2.138319053,42.57784482 2.129951286,42.57038684 2.129584992,42.56395572 2.122765741,42.55561982" />
<polygon id="66106 MAUREILLAS-LAS-ILLAS" points="2.844459305,42.45801483 2.839867984,42.45898783 2.830469203,42.44320688 2.814055716,42.43723796 2.79836423,42.41990631 2.794123957,42.41828027 2.772117229,42.41229407 2.760617269,42.41843498 2.756587335,42.4248437 2.751865569,42.42537213 2.760671475,42.43780563 2.759501152,42.44796032 2.776629101,42.45371449 2.787715841,42.46923407 2.782733692,42.49319803 2.798907318,42.49838057 2.817866613,42.51501794 2.826002229,42.51283809 2.828949565,42.50634355 2.84230288,42.50590566 2.842473817,42.50559128 2.841180037,42.49884739 2.826042333,42.49120991 2.828328136,42.47388258 2.84140723,42.46437449 2.846686753,42.46037315 2.844459305,42.45801483" />
<polygon id="66107 MAURY" points="2.67379431,42.78627362 2.641160861,42.79248164 2.626905108,42.79175859 2.616824141,42.79860185 2.593822036,42.79998287 2.569381987,42.80245922 2.558602259,42.84550596 2.572402646,42.84336771 2.600078607,42.83659532 2.638411485,42.83408764 2.63817269,42.82730671 2.65978563,42.81446477 2.665309158,42.80123693 2.680218822,42.7879205 2.67379431,42.78627362" />
<polygon id="66108 MILLAS" points="2.699298154,42.66792368 2.69152726,42.66525826 2.685756754,42.67354899 2.674057291,42.66964793 2.67170724,42.67373158 2.670334353,42.6773417 2.675566881,42.682986 2.676072249,42.69291358 2.670379848,42.7059153 2.660815541,42.71331214 2.666999826,42.71711686 2.671208391,42.72542881 2.683560629,42.72793863 2.700506125,42.72682747 2.707941422,42.71788371 2.712023629,42.6937626 2.704555845,42.66899025 2.699298154,42.66792368" />
<polygon id="66109 MOLITG-LES-BAINS" points="2.411688939,42.63897406 2.407344332,42.63751155 2.386539403,42.64508135 2.379730103,42.65437459 2.382007053,42.66479029 2.375932609,42.67799885 2.376425737,42.68771216 2.408815244,42.6833914 2.408357595,42.67325592 2.416046395,42.65741113 2.411779673,42.65170552 2.411688939,42.63897406" />
<polygon id="66111 MONTALBA-LE-CHATEAU" points="2.565306735,42.67624734 2.552105578,42.68005003 2.53188017,42.69333317 2.551404735,42.70618422 2.547866287,42.72227272 2.573591983,42.7229357 2.580059195,42.713925 2.599447055,42.70487321 2.586238239,42.69028434 2.565306735,42.67624734" />
<polygon id="66112 MONTAURIOL" points="2.697685855,42.558354 2.699718468,42.57454159 2.711568746,42.57887146 2.71242829,42.59205324 2.720895943,42.59221054 2.725470752,42.59740072 2.729704541,42.59757333 2.730994373,42.59229937 2.747462676,42.59373302 2.75206196,42.58515824 2.750409361,42.5790142 2.741765336,42.57789688 2.732175985,42.56284209 2.723730688,42.55885606 2.697685855,42.558354" />
<polygon id="66113 MONTBOLO" points="2.659664494,42.47220132 2.64700205,42.46784541 2.624299904,42.47125562 2.597206696,42.48417307 2.588878718,42.49232154 2.589883492,42.50145858 2.612118563,42.50094842 2.641226327,42.51671884 2.66261673,42.51188933 2.665148447,42.50900271 2.660972632,42.50835127 2.657568062,42.5025782 2.660408884,42.49664533 2.664694473,42.48437057 2.659664494,42.47220132" />
<polygon id="66114 MONTESCOT" points="2.948089284,42.61198116 2.935989433,42.60230113 2.913920945,42.60604354 2.909058331,42.61817636 2.890333072,42.62664569 2.892689541,42.62956097 2.929429992,42.62257004 2.948089284,42.61198116" />
<polygon id="66115 MONTESQUIEU-DES-ALBERES" points="2.862168885,42.48961767 2.85744694,42.49842989 2.842473817,42.50559128 2.84230288,42.50590566 2.860681937,42.50706389 2.864041646,42.50951332 2.846492159,42.52986862 2.85250947,42.53429996 2.872392884,42.5465335 2.883275932,42.55166109 2.880882313,42.54488921 2.887845596,42.54006032 2.894416064,42.52327453 2.894229771,42.49192854 2.885216766,42.49214395 2.878041787,42.49627103 2.862168885,42.48961767" />
<polygon id="66116 MONTFERRER" points="2.593230997,42.42895664 2.585922887,42.4226364 2.578266511,42.42277717 2.555944346,42.42744153 2.54853653,42.42358121 2.544459244,42.42524475 2.525375318,42.44010087 2.518407613,42.45210581 2.517638288,42.45560804 2.521432212,42.45777351 2.545238709,42.45919908 2.550021259,42.45926432 2.572481503,42.45404423 2.599590747,42.46059458 2.616673154,42.45481451 2.616051889,42.45145042 2.590057338,42.43858943 2.593230997,42.42895664" />
<polygon id="66117 MONT-LOUIS" points="2.123727645,42.51098282 2.123348949,42.5078782 2.119134234,42.50778056 2.116106991,42.51271797 2.11922233,42.51322019 2.123727645,42.51098282" />
<polygon id="66118 MONTNER" points="2.671208391,42.72542881 2.666115701,42.73733559 2.666793759,42.74673377 2.666558571,42.74732648 2.676286524,42.76182372 2.696915189,42.75364777 2.707600119,42.74214139 2.720042513,42.73711247 2.723788919,42.73417302 2.700506125,42.72682747 2.683560629,42.72793863 2.671208391,42.72542881" />
<polygon id="66119 MOSSET" points="2.364878551,42.63457056 2.353352234,42.6363356 2.34253596,42.64310266 2.328495392,42.64407635 2.312844713,42.65142141 2.308376478,42.65742556 2.295281656,42.660442 2.26847088,42.65933595 2.262458139,42.65412482 2.248399661,42.65427872 2.226478038,42.64849406 2.20953252,42.65416041 2.20137365,42.65133056 2.192366461,42.65176643 2.192167976,42.65905672 2.218666832,42.67242558 2.244450753,42.6798307 2.256681852,42.69826764 2.264471356,42.70211582 2.264713186,42.7090319 2.275384111,42.70292753 2.288589994,42.70066935 2.322490095,42.70810934 2.359162631,42.70151068 2.362474937,42.70405702 2.369445816,42.69639276 2.377091088,42.69387502 2.376425737,42.68771216 2.375932609,42.67799885 2.377528012,42.65755357 2.369945976,42.64903077 2.371723277,42.63894454 2.364878551,42.63457056" />
<polygon id="66120 NAHUJA" points="2.022882609,42.41453868 2.014429012,42.41154834 1.987832774,42.41750157 1.981366724,42.42654611 1.976848559,42.42749166 1.97775753,42.43657967 1.995898226,42.43318331 2.015445729,42.42321674 2.022882609,42.41453868" />
<polygon id="66121 NEFIACH" points="2.670334353,42.6773417 2.661375913,42.67775428 2.650141611,42.68376904 2.636188946,42.70510327 2.652566027,42.71453547 2.660815541,42.71331214 2.670379848,42.7059153 2.676072249,42.69291358 2.675566881,42.682986 2.670334353,42.6773417" />
<polygon id="66122 NOHEDES" points="2.29177339,42.59627876 2.258497156,42.60930516 2.247377169,42.62026801 2.226421732,42.62795841 2.215059475,42.63901531 2.20110536,42.63980209 2.20137365,42.65133056 2.20953252,42.65416041 2.226478038,42.64849406 2.248399661,42.65427872 2.262458139,42.65412482 2.27951433,42.64302036 2.28347927,42.63353467 2.307476565,42.62449524 2.302777688,42.61936698 2.308354358,42.60694221 2.305898245,42.60060595 2.29177339,42.59627876" />
<polygon id="66123 NYER" points="2.250989714,42.44801865 2.242643579,42.45609495 2.244075807,42.46268528 2.238746162,42.47199632 2.238538384,42.4926078 2.233358684,42.50225257 2.236925701,42.50448061 2.246160008,42.50348546 2.257260121,42.49713569 2.261906811,42.49760843 2.266582718,42.50350192 2.264427105,42.51356457 2.246559111,42.5290643 2.253613217,42.53252104 2.261928396,42.54302522 2.296186789,42.54011002 2.299120831,42.51747484 2.323150894,42.50862224 2.30955375,42.48814676 2.298059888,42.4823904 2.275661425,42.48168332 2.269164049,42.46905381 2.258450141,42.46271429 2.257837642,42.45262406 2.250989714,42.44801865" />
<polygon id="66124 FONT-ROMEU-ODEILLO-VIA" points="2.037593379,42.47527927 2.021662908,42.48675812 2.030905971,42.51167267 2.009057308,42.5131352 1.990707004,42.51320597 1.978011723,42.51718467 1.969512708,42.5146756 1.975965229,42.53063242 2.011138138,42.54526759 2.052229771,42.52900827 2.056698989,42.51569755 2.069060194,42.50105356 2.066714623,42.48741347 2.065084771,42.48375835 2.037593379,42.47527927" />
<polygon id="66125 OLETTE" points="2.263927366,42.54936802 2.257390314,42.54997904 2.260884722,42.55632334 2.258499861,42.55930953 2.231711917,42.57852127 2.217148479,42.60768871 2.208116328,42.60957316 2.208609624,42.61627489 2.194186649,42.62407006 2.20110536,42.63980209 2.215059475,42.63901531 2.226421732,42.62795841 2.247377169,42.62026801 2.258497156,42.60930516 2.262658783,42.59590205 2.275144349,42.58605302 2.273276304,42.57583627 2.276385552,42.5693574 2.291426011,42.5617626 2.294759055,42.55766717 2.276089081,42.55501603 2.263927366,42.54936802" />
<polygon id="66126 OMS" points="2.72322342,42.50683188 2.720257763,42.50454085 2.712529698,42.50727106 2.700711951,42.51838547 2.683965533,42.52532207 2.67897675,42.53524069 2.682673106,42.53727442 2.68677881,42.55369281 2.697685855,42.558354 2.723730688,42.55885606 2.725828951,42.53930875 2.729661198,42.53340334 2.741616945,42.52899209 2.738889664,42.5219017 2.734486704,42.52271787 2.732319496,42.51298585 2.727729028,42.50723001 2.72322342,42.50683188" />
<polygon id="66127 OPOUL-PERILLOS" points="2.917114991,42.88486022 2.901584964,42.86308535 2.887534034,42.85335083 2.850706351,42.84502403 2.826591117,42.84664235 2.816999657,42.86551932 2.815440084,42.87928412 2.804023736,42.88533386 2.810131967,42.89842011 2.837919655,42.91231444 2.86527388,42.91834144 2.884215932,42.89927192 2.906996888,42.89567902 2.917114991,42.88486022" />
<polygon id="66128 OREILLA" points="2.257390314,42.54997904 2.248128807,42.54875451 2.238685297,42.55498969 2.207538361,42.56253069 2.198588124,42.57842179 2.189221896,42.58624475 2.188121046,42.58754001 2.192505663,42.58633255 2.195780934,42.58880267 2.199427601,42.59880957 2.207053532,42.60269642 2.208116328,42.60957316 2.217148479,42.60768871 2.231711917,42.57852127 2.258499861,42.55930953 2.260884722,42.55632334 2.257390314,42.54997904" />
<polygon id="66129 ORTAFFA" points="2.940340512,42.57201621 2.931939514,42.56890068 2.917877044,42.57088656 2.910809625,42.57940335 2.89175604,42.5880701 2.897198193,42.59282223 2.905140794,42.59446577 2.91190655,42.60217611 2.945414056,42.58333727 2.940340512,42.57201621" />
<polygon id="66130 OSSEJA" points="2.02252185,42.35626037 2.004962225,42.36119426 1.986066853,42.37659357 1.97736293,42.40986864 1.962352445,42.42316248 1.976848559,42.42749166 1.981366724,42.42654611 1.987832774,42.41750157 2.014429012,42.41154834 2.022882609,42.41453868 2.035300958,42.41110113 2.038819087,42.40886767 2.01229795,42.40341144 2.006217765,42.39433888 2.006897825,42.3842776 2.018649858,42.36963587 2.02252185,42.35626037" />
<polygon id="66132 PALAU-DE-CERDAGNE" points="2.023496497,42.35522663 2.017505566,42.34969746 2.012784612,42.3494021 1.989063279,42.3610355 1.96977194,42.37665291 1.956037329,42.40989555 1.958285809,42.42395881 1.962352445,42.42316248 1.97736293,42.40986864 1.986066853,42.37659357 2.004962225,42.36119426 2.02252185,42.35626037 2.023496497,42.35522663" />
<polygon id="66133 PALAU-DEL-VIDRE" points="2.947380134,42.54808907 2.936387019,42.56133398 2.940340512,42.57201621 2.945414056,42.58333727 2.976849029,42.58410387 2.984175451,42.57383867 2.958186523,42.55099752 2.947380134,42.54808907" />
<polygon id="66134 PASSA" points="2.804304265,42.54090178 2.792935638,42.54153658 2.784124216,42.54752425 2.772684795,42.54409341 2.775389371,42.55209999 2.791377311,42.5693929 2.803812231,42.58603893 2.820127652,42.58969963 2.826526995,42.59390859 2.834727195,42.57699334 2.826402209,42.57450789 2.814951325,42.56457281 2.812671341,42.55121898 2.815257845,42.54841869 2.811834937,42.54288405 2.804304265,42.54090178" />
<polygon id="66136 PERPIGNAN" points="2.886050781,42.64998053 2.875639403,42.65479689 2.867713998,42.65305219 2.860119931,42.65554193 2.852829251,42.66304836 2.844225512,42.66425891 2.849059483,42.66988506 2.842090507,42.67439737 2.83873691,42.68424635 2.826973201,42.68962253 2.826445789,42.69074555 2.842767076,42.69459193 2.869900267,42.69944752 2.874275671,42.70540482 2.867219385,42.70977496 2.852535258,42.73109187 2.855813849,42.73690472 2.8664018,42.74198059 2.890615236,42.74881454 2.896041179,42.74368585 2.895187431,42.73681562 2.910702221,42.72909716 2.924554843,42.73051045 2.930196256,42.71466277 2.949063356,42.72306218 2.958051044,42.72264349 2.96081072,42.71710596 2.973261903,42.7131447 2.982247595,42.71367704 2.976884917,42.70848815 2.974113637,42.68963338 2.961526004,42.68643782 2.930805689,42.69431641 2.922106002,42.69212563 2.918696581,42.68980343 2.920185236,42.67961788 2.93072652,42.66864746 2.929841209,42.66527535 2.926174398,42.65557194 2.929916243,42.65353359 2.906655041,42.65189751 2.894527177,42.65692099 2.890009782,42.65604435 2.886050781,42.64998053" />
<polygon id="66137 LE PERTHUS" points="2.886505228,42.46038701 2.870757579,42.46694 2.866499496,42.46542461 2.861909156,42.45561186 2.85757899,42.45422188 2.844459305,42.45801483 2.846686753,42.46037315 2.84140723,42.46437449 2.850437795,42.47467096 2.861563025,42.47875802 2.869317312,42.47034507 2.878379079,42.46845012 2.886505228,42.46038701" />
<polygon id="66138 PEYRESTORTES" points="2.852535258,42.73109187 2.837836948,42.73612374 2.829120291,42.73877163 2.831803443,42.75578767 2.828698414,42.76606909 2.83962435,42.76471927 2.856336086,42.75758571 2.865116736,42.74906421 2.8664018,42.74198059 2.855813849,42.73690472 2.852535258,42.73109187" />
<polygon id="66139 PEZILLA-DE-CONFLENT" points="2.506218835,42.72548753 2.494905173,42.72085815 2.486096782,42.72131976 2.481134154,42.72673564 2.471404702,42.73316192 2.477707579,42.74844252 2.500773678,42.74894811 2.503894102,42.74641798 2.499494631,42.73737001 2.506218835,42.72548753" />
<polygon id="66140 PEZILLA-LA-RIVIERE" points="2.772713188,42.68359604 2.745992588,42.68546002 2.74374911,42.68848462 2.747808072,42.70524455 2.723788919,42.73417302 2.734784248,42.72752925 2.753743397,42.72581223 2.780710304,42.71844408 2.795171656,42.70466232 2.793086879,42.69098296 2.77400592,42.68648486 2.772713188,42.68359604" />
<polygon id="66141 PIA" points="2.924554843,42.73051045 2.910702221,42.72909716 2.895187431,42.73681562 2.896041179,42.74368585 2.890615236,42.74881454 2.896881467,42.77203689 2.910029968,42.7695131 2.912566363,42.7627895 2.930789167,42.75951192 2.942216442,42.75344943 2.941708924,42.73635651 2.933217992,42.73773622 2.924554843,42.73051045" />
<polygon id="66142 PLANES" points="2.146945542,42.43461604 2.131414434,42.45083312 2.138894987,42.46380259 2.127438325,42.48708238 2.136035345,42.50367552 2.147886651,42.50329435 2.154339157,42.49817656 2.161250276,42.48133951 2.159325046,42.45729545 2.146945542,42.43461604" />
<polygon id="66143 PLANEZES" points="2.621778536,42.75589955 2.610614347,42.75768486 2.613867208,42.76028622 2.608931136,42.77392669 2.61042269,42.78448849 2.626905108,42.79175859 2.6359147,42.78017211 2.633341658,42.7700836 2.621778536,42.75589955" />
<polygon id="66144 POLLESTRES" points="2.890333072,42.62664569 2.880668648,42.61969478 2.86725059,42.62121631 2.857328653,42.63146157 2.855672785,42.64130393 2.860119931,42.65554193 2.867713998,42.65305219 2.875639403,42.65479689 2.886050781,42.64998053 2.887140195,42.63458091 2.892689541,42.62956097 2.890333072,42.62664569" />
<polygon id="66145 PONTEILLA" points="2.864665598,42.61780573 2.856528292,42.62025847 2.843033869,42.6182077 2.835840419,42.62232346 2.827143726,42.61983741 2.804073184,42.62064271 2.799868272,42.63278996 2.790406652,42.64325477 2.79968796,42.65337799 2.808367937,42.65100239 2.812637665,42.64506717 2.821844635,42.64500198 2.833950977,42.64031941 2.855672785,42.64130393 2.857328653,42.63146157 2.86725059,42.62121631 2.86619781,42.61847295 2.864665598,42.61780573" />
<polygon id="66146 PORTA" points="1.843362219,42.47715259 1.831511829,42.48309172 1.813199021,42.48473252 1.805248119,42.48865338 1.767644436,42.48675122 1.746603207,42.49482211 1.732460182,42.49324353 1.729640536,42.49609591 1.724010594,42.52024915 1.733407027,42.53250744 1.738051489,42.55328622 1.750785789,42.56341584 1.769602822,42.56450638 1.760314105,42.54085197 1.763526352,42.52695369 1.772498855,42.52569967 1.781742555,42.5376462 1.799396493,42.54288994 1.827789534,42.54271993 1.841083801,42.53326313 1.854728164,42.53052442 1.860837717,42.52141955 1.851594689,42.51431701 1.865481041,42.50136672 1.843362219,42.47715259" />
<polygon id="66147 PORTE-PUYMORENS" points="1.854728164,42.53052442 1.841083801,42.53326313 1.827789534,42.54271993 1.799396493,42.54288994 1.781742555,42.5376462 1.772498855,42.52569967 1.763526352,42.52695369 1.760314105,42.54085197 1.769602822,42.56450638 1.786125011,42.57362343 1.799703345,42.57232032 1.82472844,42.58123887 1.838153443,42.58401107 1.865329032,42.57988858 1.874484829,42.58141497 1.880220117,42.56847449 1.890787217,42.56158996 1.90394055,42.55866892 1.917079722,42.54922798 1.911552882,42.54370554 1.89187755,42.53490825 1.877602664,42.5350738 1.854728164,42.53052442" />
<polygon id="66148 PORT-VENDRES" points="3.132924241,42.49498146 3.123630059,42.49415664 3.116770099,42.48957089 3.090693143,42.4818566 3.075765556,42.48943709 3.068889515,42.49845793 3.071140534,42.50149482 3.08898038,42.50550864 3.09731636,42.51379854 3.09910704,42.52361335 3.107786917,42.52507023 3.136557291,42.51624561 3.125852844,42.50539961 3.134377148,42.49820678 3.132924241,42.49498146" />
<polygon id="66149 PRADES" points="2.432943475,42.58711481 2.427462217,42.59148184 2.417770894,42.61038124 2.410996036,42.61474948 2.403706791,42.62170373 2.406730197,42.62367151 2.41780062,42.6293515 2.426508842,42.62905692 2.434217068,42.63268525 2.442944924,42.63165219 2.452438324,42.62556063 2.442221337,42.60037941 2.432943475,42.58711481" />
<polygon id="66150 PRATS-DE-MOLLO-LA-PRESTE" points="2.476300202,42.34771218 2.466899386,42.35950286 2.452935801,42.36883371 2.436366621,42.37509304 2.433342513,42.39195724 2.410337669,42.39215597 2.384097054,42.40022304 2.356267881,42.40428319 2.348137842,42.40790115 2.344862467,42.41444286 2.326866902,42.41705431 2.318743373,42.42501177 2.333441306,42.42776542 2.373247745,42.44052853 2.417016687,42.46787898 2.44019292,42.48332085 2.452606337,42.48706191 2.47061096,42.46641457 2.485440554,42.45756097 2.501175889,42.43590944 2.513260025,42.43034729 2.521121948,42.42154696 2.525903507,42.40787864 2.516715339,42.39984654 2.514285851,42.39302222 2.511853784,42.3923909 2.499889504,42.38198975 2.491184879,42.35546019 2.476300202,42.34771218" />
<polygon id="66151 PRATS-DE-SOURNIA" points="2.471531422,42.72054755 2.447273565,42.74017041 2.425494286,42.74438977 2.439333155,42.75275339 2.468994494,42.75937852 2.477707579,42.74844252 2.471404702,42.73316192 2.481134154,42.72673564 2.478702114,42.72185947 2.471531422,42.72054755" />
<polygon id="66152 PRUGNANES" points="2.436343324,42.80697693 2.412706776,42.82201997 2.401353259,42.84387164 2.45681955,42.83747641 2.462198074,42.83855561 2.46792653,42.83346752 2.461871728,42.82497556 2.462595086,42.81148188 2.458851703,42.80951176 2.440883009,42.81240499 2.436343324,42.80697693" />
<polygon id="66153 PRUNET-ET-BELPUIG" points="2.646908527,42.53559793 2.636076317,42.54561207 2.613834225,42.54648687 2.607361385,42.54178858 2.595538534,42.54622136 2.596353224,42.54972148 2.617922586,42.58313559 2.615254926,42.59288033 2.617925744,42.5956589 2.632532273,42.58716047 2.64041764,42.59084628 2.654195807,42.59204249 2.665121457,42.57306328 2.678637757,42.57033588 2.661316941,42.56632679 2.65024828,42.56045667 2.65282307,42.54056166 2.646908527,42.53559793" />
<polygon id="66154 PUYVALADOR" points="2.099910463,42.62541285 2.096320741,42.6276483 2.107524641,42.64259558 2.075147838,42.64375909 2.043269609,42.65749603 2.047019391,42.66358965 2.061033591,42.66184337 2.073887058,42.66562387 2.106550419,42.66484065 2.127884998,42.67203888 2.143126459,42.66385409 2.152301676,42.66207499 2.166053682,42.66391837 2.176088216,42.65300893 2.176142778,42.65259576 2.14010919,42.65366983 2.128205969,42.65791622 2.124433579,42.65603323 2.125070307,42.64607625 2.110484316,42.63938345 2.099910463,42.62541285" />
<polygon id="66155 PY" points="2.333441306,42.42776542 2.325048764,42.44741654 2.32742037,42.46810668 2.30955375,42.48814676 2.323150894,42.50862224 2.341127452,42.50590301 2.368084458,42.5084303 2.389804474,42.5030371 2.396321376,42.49431838 2.404425351,42.49175698 2.405244544,42.48526221 2.417016687,42.46787898 2.373247745,42.44052853 2.333441306,42.42776542" />
<polygon id="66156 RABOUILLET" points="2.362474937,42.70405702 2.359162631,42.70151068 2.322490095,42.70810934 2.342890839,42.72290156 2.355345847,42.72804848 2.357133917,42.73841754 2.353569127,42.74856568 2.376197821,42.74769276 2.393319287,42.75191827 2.406143687,42.7494095 2.407981753,42.74742352 2.405590021,42.72717022 2.393397732,42.72332543 2.392396221,42.71996594 2.362474937,42.70405702" />
<polygon id="66157 RAILLEU" points="2.189221896,42.58624475 2.184637157,42.57739021 2.171219788,42.57565071 2.161496118,42.58272226 2.14541132,42.57617561 2.138319053,42.57784482 2.136963422,42.5995911 2.147289506,42.60997734 2.188121046,42.58754001 2.189221896,42.58624475" />
<polygon id="66158 RASIGUERES" points="2.585225093,42.74698852 2.576682708,42.74734174 2.568585678,42.75507817 2.575737561,42.75817287 2.581028734,42.76727527 2.573597106,42.77551837 2.572780951,42.78194426 2.578568312,42.78683176 2.592660161,42.78630176 2.593822036,42.79998287 2.616824141,42.79860185 2.626905108,42.79175859 2.61042269,42.78448849 2.608931136,42.77392669 2.613867208,42.76028622 2.610614347,42.75768486 2.592633036,42.75531616 2.585225093,42.74698852" />
<polygon id="66159 REAL" points="2.150256534,42.62186884 2.128383271,42.62488452 2.125070307,42.64607625 2.124433579,42.65603323 2.128205969,42.65791622 2.14010919,42.65366983 2.176142778,42.65259576 2.17621936,42.64890102 2.150256534,42.62186884" />
<polygon id="66160 REYNES" points="2.727370576,42.42262469 2.723961014,42.42272378 2.720006453,42.43276278 2.7023308,42.44871492 2.674310737,42.46083997 2.672592949,42.46408872 2.688510775,42.47065345 2.695418752,42.48712352 2.660408884,42.49664533 2.657568062,42.5025782 2.660972632,42.50835127 2.665148447,42.50900271 2.665738619,42.5056605 2.674256104,42.50333162 2.691737619,42.50574775 2.705013618,42.50396943 2.712529698,42.50727106 2.720257763,42.50454085 2.72322342,42.50683188 2.734151823,42.49750177 2.728126712,42.49226382 2.732902943,42.46776253 2.727125485,42.45436335 2.727370576,42.42262469" />
<polygon id="66161 RIA-SIRACH" points="2.400047564,42.58334806 2.39700118,42.58971402 2.385371732,42.59527573 2.381181641,42.60140998 2.380703242,42.60635196 2.353352234,42.6363356 2.364878551,42.63457056 2.382454342,42.6329293 2.394616975,42.62835966 2.406730197,42.62367151 2.403706791,42.62170373 2.410996036,42.61474948 2.406629561,42.59886616 2.411745884,42.58988611 2.406138392,42.58375968 2.400047564,42.58334806" />
<polygon id="66162 RIGARDA" points="2.534252908,42.61762311 2.522284874,42.63127186 2.546697467,42.64059351 2.545565553,42.62801985 2.552176736,42.62006418 2.534252908,42.61762311" />
<polygon id="66164 RIVESALTES" points="2.8664018,42.74198059 2.865116736,42.74906421 2.856336086,42.75758571 2.83962435,42.76471927 2.84635174,42.76806501 2.8430976,42.78456002 2.857521967,42.80149375 2.877334777,42.80997064 2.911119922,42.79899788 2.913493101,42.79607748 2.910340481,42.78976264 2.910029968,42.7695131 2.896881467,42.77203689 2.890615236,42.74881454 2.8664018,42.74198059" />
<polygon id="66165 RODES" points="2.574650704,42.61808815 2.552176736,42.62006418 2.545565553,42.62801985 2.546697467,42.64059351 2.543562952,42.65677247 2.530538891,42.65408181 2.526830691,42.66074564 2.529486524,42.66675426 2.524234511,42.67584784 2.52526071,42.6889793 2.52156756,42.69495093 2.53188017,42.69333317 2.552105578,42.68005003 2.565306735,42.67624734 2.561778608,42.6738953 2.568891764,42.66106725 2.567099214,42.64819424 2.575047366,42.62546191 2.572163543,42.62028088 2.574650704,42.61808815" />
<polygon id="66166 SAHORRE" points="2.389804474,42.5030371 2.368084458,42.5084303 2.341127452,42.50590301 2.323150894,42.50862224 2.335962773,42.51882513 2.339401549,42.53927138 2.352791622,42.54095358 2.363493652,42.54728391 2.372205276,42.54556446 2.381928891,42.53548057 2.379316115,42.51825898 2.389804474,42.5030371" />
<polygon id="66167 SAILLAGOUSE" points="2.073472019,42.42893277 2.056292477,42.43480485 2.033005518,42.45164007 2.018551239,42.44349838 2.009406536,42.44811529 2.012837144,42.4526958 2.002788828,42.45822078 2.023079205,42.46452153 2.026327669,42.47068217 2.037593379,42.47527927 2.065084771,42.48375835 2.068579667,42.48242248 2.065971148,42.47693393 2.046522029,42.45425189 2.050892229,42.44452834 2.067187831,42.43798409 2.073472019,42.42893277" />
<polygon id="66168 SAINT-ANDRE" points="2.970756529,42.5307211 2.969841441,42.53751696 2.962047162,42.5412182 2.958186523,42.55099752 2.984175451,42.57383867 2.996363232,42.57254523 2.998467814,42.55865597 2.984757919,42.53253092 2.970756529,42.5307211" />
<polygon id="66169 SAINT-ARNAC" points="2.553695746,42.75880266 2.544733898,42.75949329 2.539712102,42.76495676 2.510029743,42.77984147 2.511215203,42.78838918 2.547748987,42.78604078 2.558662711,42.77963012 2.549873882,42.77175272 2.553695746,42.75880266" />
<polygon id="66170 SAINTE-COLOMBE-DE-LA-COMMANDERIE" points="2.730990462,42.60634204 2.721189315,42.61229547 2.729074528,42.62318508 2.737671961,42.62527432 2.746386057,42.62307471 2.763911554,42.61219158 2.730990462,42.60634204" />
<polygon id="66171 SAINT-CYPRIEN" points="3.04311422,42.60008204 3.028083845,42.59623927 3.022768063,42.60047489 3.014177386,42.60288574 3.008057781,42.61460064 2.99012901,42.61223605 2.985271256,42.61767461 2.988469437,42.63381272 2.99721134,42.64181483 3.005650669,42.64472765 3.021821016,42.63870193 3.035728309,42.640766 3.04311422,42.60008204" />
<polygon id="66172 SAINT-ESTEVE" points="2.842767076,42.69459193 2.828990455,42.71653602 2.823084552,42.72199307 2.814259846,42.72455862 2.837836948,42.73612374 2.852535258,42.73109187 2.867219385,42.70977496 2.874275671,42.70540482 2.869900267,42.69944752 2.842767076,42.69459193" />
<polygon id="66173 SAINT-FELIU-D'AMONT" points="2.727528583,42.65703058 2.722601049,42.6583935 2.704555845,42.66899025 2.712023629,42.6937626 2.729750899,42.69001462 2.725884386,42.68029457 2.727528583,42.65703058" />
<polygon id="66174 SAINT-FELIU-D'AVALL" points="2.727528583,42.65703058 2.725884386,42.68029457 2.729750899,42.69001462 2.745992588,42.68546002 2.772713188,42.68359604 2.772824705,42.66437388 2.741633201,42.65720044 2.727528583,42.65703058" />
<polygon id="66175 SAINT-GENIS-DES-FONTAINES" points="2.910953305,42.52510548 2.911076945,42.53170389 2.903284699,42.53973381 2.903099651,42.55601398 2.913133197,42.56296273 2.913524444,42.56975938 2.917877044,42.57088656 2.931939514,42.56890068 2.940340512,42.57201621 2.936387019,42.56133398 2.930971272,42.53403792 2.910953305,42.52510548" />
<polygon id="66176 SAINT-HIPPOLYTE" points="2.973492319,42.76943968 2.96898912,42.76910579 2.943029881,42.7824837 2.940249025,42.79208538 2.940495045,42.80221931 2.9595918,42.82193857 3.012576122,42.85236591 2.994126461,42.8019659 2.974916509,42.77804502 2.977433553,42.77136479 2.973492319,42.76943968" />
<polygon id="66177 SAINT-JEAN-LASSEILLE" points="2.877997238,42.58160943 2.866696277,42.57613901 2.85177549,42.58403054 2.857337773,42.59290231 2.864080629,42.59720838 2.868232696,42.59601789 2.877997238,42.58160943" />
<polygon id="66178 SAINT-JEAN-PLA-DE-CORTS" points="2.782733692,42.49319803 2.769599362,42.51265034 2.786466995,42.51861844 2.787073615,42.5322208 2.792935638,42.54153658 2.804304265,42.54090178 2.800787985,42.53466547 2.817866613,42.51501794 2.798907318,42.49838057 2.782733692,42.49319803" />
<polygon id="66179 SAINT-LAURENT-DE-CERDANS" points="2.659111201,42.37968821 2.654077278,42.3740094 2.622671475,42.36237096 2.596251888,42.36747818 2.587450895,42.36939488 2.574692023,42.3871145 2.575770936,42.40721696 2.570636116,42.41276032 2.578266511,42.42277717 2.585922887,42.4226364 2.593230997,42.42895664 2.609761617,42.42276231 2.628430135,42.42129197 2.639289979,42.4150822 2.650555486,42.42586114 2.672443624,42.42140039 2.673943963,42.40470428 2.670542909,42.38837989 2.667002021,42.38631955 2.653826744,42.38767972 2.652875966,42.38444083 2.659111201,42.37968821" />
<polygon id="66180 SAINT-LAURENT-DE-LA-SALANQUE" points="2.981232206,42.76206823 2.973492319,42.76943968 2.977433553,42.77136479 2.974916509,42.77804502 2.994126461,42.8019659 3.012576122,42.85236591 3.018428145,42.80699994 3.017589351,42.77934132 3.025922761,42.77142697 2.981232206,42.76206823" />
<polygon id="66181 SAINTE-LEOCADIE" points="2.035300958,42.41110113 2.022882609,42.41453868 2.015445729,42.42321674 1.995898226,42.43318331 1.97775753,42.43657967 1.976620158,42.44262766 1.980854097,42.44761245 2.009406536,42.44811529 2.018551239,42.44349838 2.027464402,42.43520195 2.035300958,42.41110113" />
<polygon id="66182 SAINTE-MARIE" points="3.04027875,42.72327351 3.032289411,42.71988654 3.030065082,42.7101228 3.013131705,42.71496344 3.001109456,42.7100461 2.993233144,42.71342655 2.995657854,42.73493367 3.038853187,42.7433516 3.04027875,42.72327351" />
<polygon id="66183 SAINT-MARSAL" points="2.58709007,42.50307489 2.576041878,42.50877583 2.584159286,42.51714103 2.595538534,42.54622136 2.607361385,42.54178858 2.613834225,42.54648687 2.636076317,42.54561207 2.646908527,42.53559793 2.650096731,42.52690647 2.651178439,42.52079711 2.66261673,42.51188933 2.641226327,42.51671884 2.635698626,42.526256 2.622215472,42.52887905 2.615917705,42.51992992 2.599655343,42.50789616 2.58709007,42.50307489" />
<polygon id="66184 SAINT-MARTIN" points="2.501527636,42.77202433 2.478445463,42.77637444 2.444313121,42.78321661 2.448111561,42.79459311 2.48312737,42.79756414 2.485280245,42.7916128 2.511215203,42.78838918 2.510029743,42.77984147 2.501527636,42.77202433" />
<polygon id="66185 SAINT-MICHEL-DE-LLOTES" points="2.625209818,42.63046841 2.605595593,42.63043383 2.60967752,42.64632619 2.605741445,42.65568007 2.626971913,42.66143837 2.640095497,42.65293313 2.644307116,42.64339014 2.647725667,42.63590331 2.639987972,42.6328747 2.627456685,42.63324534 2.625209818,42.63046841" />
<polygon id="66186 SAINT-NAZAIRE" points="2.967325375,42.64581067 2.963817035,42.66698249 2.965836104,42.67257541 2.978787533,42.67298334 2.983769337,42.67829778 2.997026955,42.67557475 3.011671198,42.66728467 3.015324402,42.66097273 3.002898792,42.65254956 2.967325375,42.64581067" />
<polygon id="66187 SAINT-PAUL-DE-FENOUILLET" points="2.436074733,42.79437761 2.436343324,42.80697693 2.440883009,42.81240499 2.458851703,42.80951176 2.462595086,42.81148188 2.461871728,42.82497556 2.46792653,42.83346752 2.462198074,42.83855561 2.500451596,42.85043065 2.508779681,42.84981264 2.51523228,42.84545369 2.518538762,42.84313955 2.558602259,42.84550596 2.569381987,42.80245922 2.561798649,42.79922735 2.53128837,42.80626497 2.519530359,42.80154606 2.48312737,42.79756414 2.448111561,42.79459311 2.436074733,42.79437761" />
<polygon id="66188 SAINT-PIERRE-DELS-FORCATS" points="2.131414434,42.45083312 2.112286528,42.46106735 2.101990223,42.48089306 2.089071867,42.49156221 2.104756209,42.49932731 2.131471414,42.50420483 2.136035345,42.50367552 2.127438325,42.48708238 2.138894987,42.46380259 2.131414434,42.45083312" />
<polygon id="66189 SALEILLES" points="2.967325375,42.64581067 2.968593415,42.64305095 2.961237,42.64457693 2.930159843,42.65353375 2.929916243,42.65353359 2.926174398,42.65557194 2.929841209,42.66527535 2.963817035,42.66698249 2.967325375,42.64581067" />
<polygon id="66190 SALSES-LE-CHATEAU" points="2.940249025,42.79208538 2.935963411,42.7923077 2.931354518,42.78710761 2.910340481,42.78976264 2.913493101,42.79607748 2.911119922,42.79899788 2.877334777,42.80997064 2.857521967,42.80149375 2.851432972,42.81414613 2.826515863,42.82273207 2.814073751,42.83247666 2.826591117,42.84664235 2.850706351,42.84502403 2.887534034,42.85335083 2.901584964,42.86308535 2.917114991,42.88486022 2.976600516,42.87015098 2.988900364,42.86460464 3.012576122,42.85236591 2.9595918,42.82193857 2.940495045,42.80221931 2.940249025,42.79208538" />
<polygon id="66191 SANSA" points="2.208116328,42.60957316 2.207053532,42.60269642 2.199427601,42.59880957 2.195780934,42.58880267 2.192505663,42.58633255 2.188121046,42.58754001 2.147289506,42.60997734 2.150256534,42.62186884 2.17621936,42.64890102 2.192366461,42.65176643 2.20137365,42.65133056 2.20110536,42.63980209 2.194186649,42.62407006 2.208609624,42.61627489 2.208116328,42.60957316" />
<polygon id="66192 SAUTO" points="2.147886651,42.50329435 2.136035345,42.50367552 2.131471414,42.50420483 2.123727645,42.51098282 2.11922233,42.51322019 2.150122144,42.53002126 2.161421111,42.52614601 2.172450871,42.53087093 2.171727937,42.52613658 2.16879696,42.50918579 2.161678681,42.50481499 2.147886651,42.50329435" />
<polygon id="66193 SERDINYA" points="2.343416871,42.54651508 2.338581382,42.55587083 2.307352282,42.55399172 2.294759055,42.55766717 2.291426011,42.5617626 2.300751622,42.56194093 2.306057971,42.57490347 2.29177339,42.59627876 2.305898245,42.60060595 2.33263907,42.59700926 2.349076638,42.58957669 2.335733878,42.58063011 2.343407189,42.57764782 2.355643157,42.58219947 2.346546206,42.56673497 2.343416871,42.54651508" />
<polygon id="66194 SERRALONGUE" points="2.587525643,42.35706347 2.561870335,42.35711378 2.561783583,42.36060979 2.543654152,42.36358959 2.533621825,42.37082656 2.529094124,42.38066677 2.511853784,42.3923909 2.514285851,42.39302222 2.570636116,42.41276032 2.575770936,42.40721696 2.574692023,42.3871145 2.587450895,42.36939488 2.596251888,42.36747818 2.597062906,42.36234903 2.587525643,42.35706347" />
<polygon id="66195 LE SOLER" points="2.795726933,42.66104854 2.772824705,42.66437388 2.772713188,42.68359604 2.77400592,42.68648486 2.793086879,42.69098296 2.812096303,42.68833872 2.826445789,42.69074555 2.826973201,42.68962253 2.827380641,42.6796253 2.813587976,42.67921556 2.809096499,42.67027076 2.795726933,42.66104854" />
<polygon id="66196 SOREDE" points="3.000922822,42.47298699 2.986752635,42.47306707 2.980270174,42.46837382 2.966575417,42.46701307 2.947087628,42.48180112 2.952138266,42.51312201 2.947380134,42.54808907 2.958186523,42.55099752 2.962047162,42.5412182 2.969841441,42.53751696 2.970756529,42.5307211 2.978322641,42.51434411 3.001774059,42.51483172 3.010485902,42.51212542 3.018686388,42.50862744 3.027574234,42.49632818 3.022150357,42.47995121 3.000922822,42.47298699" />
<polygon id="66197 SOUANYAS" points="2.296186789,42.54011002 2.261928396,42.54302522 2.263927366,42.54936802 2.276089081,42.55501603 2.294759055,42.55766717 2.303365771,42.54670182 2.3004962,42.54063279 2.296186789,42.54011002" />
<polygon id="66198 SOURNIA" points="2.415146049,42.68036921 2.408815244,42.6833914 2.376425737,42.68771216 2.377091088,42.69387502 2.369445816,42.69639276 2.362474937,42.70405702 2.392396221,42.71996594 2.393397732,42.72332543 2.405590021,42.72717022 2.407981753,42.74742352 2.425494286,42.74438977 2.447273565,42.74017041 2.471531422,42.72054755 2.471399157,42.71631196 2.459888836,42.72154146 2.429870898,42.70484175 2.418313253,42.69390916 2.415146049,42.68036921" />
<polygon id="66199 TAILLET" points="2.712529698,42.50727106 2.705013618,42.50396943 2.691737619,42.50574775 2.674256104,42.50333162 2.665738619,42.5056605 2.665148447,42.50900271 2.66261673,42.51188933 2.651178439,42.52079711 2.650096731,42.52690647 2.67897675,42.53524069 2.683965533,42.52532207 2.700711951,42.51838547 2.712529698,42.50727106" />
<polygon id="66201 TARERACH" points="2.526830691,42.66074564 2.49799627,42.68198572 2.485864897,42.68681927 2.488665415,42.69127429 2.509124472,42.70341823 2.513565763,42.70295298 2.52156756,42.69495093 2.52526071,42.6889793 2.524234511,42.67584784 2.529486524,42.66675426 2.526830691,42.66074564" />
<polygon id="66202 TARGASSONNE" points="1.998384853,42.48497787 1.98982325,42.49333865 1.980578078,42.49477901 1.967427956,42.49787097 1.969512708,42.5146756 1.978011723,42.51718467 1.990707004,42.51320597 2.009057308,42.5131352 2.005086107,42.49444399 2.002158099,42.48593019 1.998384853,42.48497787" />
<polygon id="66203 TAULIS" points="2.641226327,42.51671884 2.612118563,42.50094842 2.589883492,42.50145858 2.58709007,42.50307489 2.599655343,42.50789616 2.615917705,42.51992992 2.622215472,42.52887905 2.635698626,42.526256 2.641226327,42.51671884" />
<polygon id="66204 TAURINYA" points="2.46008223,42.51661248 2.451715072,42.53286815 2.4553201,42.53862209 2.447278411,42.55085196 2.420270373,42.56341165 2.419522046,42.57017713 2.406138392,42.58375968 2.411745884,42.58988611 2.419895568,42.58888778 2.427462217,42.59148184 2.432943475,42.58711481 2.438961141,42.57368824 2.463020204,42.55656896 2.4699212,42.54382877 2.465294653,42.53394388 2.472147508,42.52483543 2.46008223,42.51661248" />
<polygon id="66205 TAUTAVEL" points="2.74508549,42.78414696 2.726646234,42.78543231 2.712940927,42.78215945 2.698165588,42.79014855 2.680218822,42.7879205 2.665309158,42.80123693 2.65978563,42.81446477 2.63817269,42.82730671 2.638411485,42.83408764 2.664347058,42.83675268 2.665141817,42.83665625 2.682011391,42.83071877 2.727429971,42.83440468 2.744131228,42.84011989 2.754346352,42.85170782 2.768010558,42.8332322 2.7958188,42.81911718 2.775824057,42.79990638 2.74508549,42.78414696" />
<polygon id="66206 LE TECH" points="2.514285851,42.39302222 2.516715339,42.39984654 2.525903507,42.40787864 2.521121948,42.42154696 2.513260025,42.43034729 2.501175889,42.43590944 2.485440554,42.45756097 2.47061096,42.46641457 2.452606337,42.48706191 2.456622685,42.4927008 2.464540402,42.49424206 2.495719475,42.47341296 2.510714803,42.45611584 2.518407613,42.45210581 2.525375318,42.44010087 2.544459244,42.42524475 2.54853653,42.42358121 2.555944346,42.42744153 2.578266511,42.42277717 2.570636116,42.41276032 2.514285851,42.39302222" />
<polygon id="66207 TERRATS" points="2.747462676,42.59373302 2.730994373,42.59229937 2.729704541,42.59757333 2.735662126,42.60134614 2.730990462,42.60634204 2.763911554,42.61219158 2.789053562,42.61670334 2.783645209,42.61117248 2.786774523,42.59749565 2.783045253,42.59577103 2.776325093,42.59983871 2.769013714,42.59623608 2.747462676,42.59373302" />
<polygon id="66208 THEZA" points="2.961877306,42.63380655 2.94596917,42.6276053 2.934579942,42.63293924 2.930159843,42.65353375 2.961237,42.64457693 2.961877306,42.63380655" />
<polygon id="66209 THUES-ENTRE-VALLS" points="2.238746162,42.47199632 2.21707561,42.47711627 2.202937088,42.49515255 2.198489028,42.51566984 2.206114851,42.51965541 2.246559111,42.5290643 2.264427105,42.51356457 2.266582718,42.50350192 2.261906811,42.49760843 2.257260121,42.49713569 2.246160008,42.50348546 2.236925701,42.50448061 2.233358684,42.50225257 2.238538384,42.4926078 2.238746162,42.47199632" />
<polygon id="66210 THUIR" points="2.763911554,42.61219158 2.746386057,42.62307471 2.737671961,42.62527432 2.729074528,42.62318508 2.725650453,42.63681489 2.729711251,42.65390736 2.727528583,42.65703058 2.741633201,42.65720044 2.772824705,42.66437388 2.795726933,42.66104854 2.798427146,42.65519174 2.79968796,42.65337799 2.790406652,42.64325477 2.762481132,42.6257099 2.763911554,42.61219158" />
<polygon id="66211 TORDERES" points="2.775389371,42.55209999 2.766675413,42.55414896 2.753817109,42.55266375 2.736871669,42.55711824 2.732175985,42.56284209 2.741765336,42.57789688 2.750409361,42.5790142 2.767796115,42.57809147 2.785385742,42.5681584 2.787515742,42.57105741 2.791377311,42.5693929 2.775389371,42.55209999" />
<polygon id="66212 TORREILLES" points="2.995657854,42.73493367 2.974335538,42.73922854 2.973158063,42.75326384 2.981232206,42.76206823 3.025922761,42.77142697 3.038608845,42.77957858 3.038853187,42.7433516 2.995657854,42.73493367" />
<polygon id="66213 TOULOUGES" points="2.798427146,42.65519174 2.795726933,42.66104854 2.809096499,42.67027076 2.813587976,42.67921556 2.827380641,42.6796253 2.826973201,42.68962253 2.83873691,42.68424635 2.842090507,42.67439737 2.849059483,42.66988506 2.844225512,42.66425891 2.819128946,42.65675715 2.810789097,42.65929608 2.798427146,42.65519174" />
<polygon id="66214 TRESSERRE" points="2.85250947,42.53429996 2.840815567,42.54345259 2.815257845,42.54841869 2.812671341,42.55121898 2.814951325,42.56457281 2.826402209,42.57450789 2.834727195,42.57699334 2.839300441,42.57715314 2.855338751,42.55017956 2.872392884,42.5465335 2.85250947,42.53429996" />
<polygon id="66215 TREVILLACH" points="2.488665415,42.69127429 2.468344686,42.70362809 2.471399157,42.71631196 2.471531422,42.72054755 2.478702114,42.72185947 2.481134154,42.72673564 2.486096782,42.72131976 2.494905173,42.72085815 2.506218835,42.72548753 2.522201854,42.72163979 2.530478607,42.71902395 2.547866287,42.72227272 2.551404735,42.70618422 2.53188017,42.69333317 2.52156756,42.69495093 2.513565763,42.70295298 2.509124472,42.70341823 2.488665415,42.69127429" />
<polygon id="66216 TRILLA" points="2.522201854,42.72163979 2.506218835,42.72548753 2.499494631,42.73737001 2.503894102,42.74641798 2.505742981,42.75137191 2.543805389,42.75185544 2.541652667,42.73549964 2.522201854,42.72163979" />
<polygon id="66217 TROUILLAS" points="2.803812231,42.58603893 2.786774523,42.59749565 2.783645209,42.61117248 2.789053562,42.61670334 2.804073184,42.62064271 2.827143726,42.61983741 2.835840419,42.62232346 2.843033869,42.6182077 2.856528292,42.62025847 2.864665598,42.61780573 2.856746488,42.60576644 2.844164684,42.59589561 2.83479282,42.59678054 2.826526995,42.59390859 2.820127652,42.58969963 2.803812231,42.58603893" />
<polygon id="66218 UR" points="1.942894896,42.44442909 1.933844851,42.45416462 1.930661005,42.46031764 1.916938345,42.46836884 1.921922192,42.47400202 1.944848864,42.4720198 1.960055826,42.47045211 1.956525682,42.45869503 1.959803161,42.45326136 1.942894896,42.44442909" />
<polygon id="66219 URBANYA" points="2.307476565,42.62449524 2.28347927,42.63353467 2.27951433,42.64302036 2.262458139,42.65412482 2.26847088,42.65933595 2.295281656,42.660442 2.308376478,42.65742556 2.312844713,42.65142141 2.328495392,42.64407635 2.327859655,42.62844636 2.320643671,42.6249753 2.307476565,42.62449524" />
<polygon id="66220 VALCEBOLLERE" points="2.023496497,42.35522663 2.02252185,42.35626037 2.018649858,42.36963587 2.006897825,42.3842776 2.006217765,42.39433888 2.01229795,42.40341144 2.038819087,42.40886767 2.089547574,42.37371733 2.085933138,42.36374491 2.07672369,42.36437555 2.059883328,42.35862828 2.023496497,42.35522663" />
<polygon id="66221 VALMANYA" points="2.553014401,42.5139587 2.518021165,42.49899175 2.491208612,42.50338897 2.468449639,42.49981708 2.46008223,42.51661248 2.472147508,42.52483543 2.496619586,42.52963726 2.506374461,42.5403087 2.52861271,42.54435571 2.539921542,42.55022145 2.552519088,42.5468948 2.555762423,42.54087619 2.553014401,42.5139587" />
<polygon id="66222 VERNET-LES-BAINS" points="2.46008223,42.51661248 2.437054977,42.51405733 2.419631439,42.52982184 2.394388739,42.53897711 2.381928891,42.53548057 2.372205276,42.54556446 2.370494646,42.55650421 2.395821171,42.55797202 2.42677009,42.54923353 2.451715072,42.53286815 2.46008223,42.51661248" />
<polygon id="66223 VILLEFRANCHE-DE-CONFLENT" points="2.363272597,42.58539181 2.361797975,42.58784636 2.349076638,42.58957669 2.33263907,42.59700926 2.380703242,42.60635196 2.381181641,42.60140998 2.363272597,42.58539181" />
<polygon id="66224 VILLELONGUE-DE-LA-SALANQUE" points="2.982247595,42.71367704 2.973261903,42.7131447 2.96081072,42.71710596 2.958051044,42.72264349 2.960116847,42.73323597 2.974335538,42.73922854 2.995657854,42.73493367 2.993233144,42.71342655 2.982247595,42.71367704" />
<polygon id="66225 VILLELONGUE-DELS-MONTS" points="2.911762635,42.48815105 2.894229771,42.49192854 2.894416064,42.52327453 2.887845596,42.54006032 2.880882313,42.54488921 2.883275932,42.55166109 2.890838658,42.55817768 2.903099651,42.55601398 2.903284699,42.53973381 2.911076945,42.53170389 2.910953305,42.52510548 2.909917008,42.51146765 2.914888481,42.50178124 2.911762635,42.48815105" />
<polygon id="66226 VILLEMOLAQUE" points="2.834727195,42.57699334 2.826526995,42.59390859 2.83479282,42.59678054 2.844164684,42.59589561 2.856746488,42.60576644 2.864665598,42.61780573 2.86619781,42.61847295 2.864577297,42.60865352 2.868232696,42.59601789 2.864080629,42.59720838 2.857337773,42.59290231 2.85177549,42.58403054 2.85054221,42.58106212 2.839300441,42.57715314 2.834727195,42.57699334" />
<polygon id="66227 VILLENEUVE-DE-LA-RAHO" points="2.929429992,42.62257004 2.892689541,42.62956097 2.887140195,42.63458091 2.886050781,42.64998053 2.890009782,42.65604435 2.894527177,42.65692099 2.906655041,42.65189751 2.929916243,42.65353359 2.930159843,42.65353375 2.934579942,42.63293924 2.929429992,42.62257004" />
<polygon id="66228 VILLENEUVE-LA-RIVIERE" points="2.812096303,42.68833872 2.793086879,42.69098296 2.795171656,42.70466232 2.780710304,42.71844408 2.789081274,42.72011527 2.802752733,42.71952093 2.812096303,42.68833872" />
<polygon id="66230 VINCA" points="2.501866364,42.62842758 2.502789729,42.63436567 2.497198273,42.63748625 2.501722351,42.64670491 2.516801613,42.65382284 2.530538891,42.65408181 2.543562952,42.65677247 2.546697467,42.64059351 2.522284874,42.63127186 2.512610161,42.63214524 2.508331627,42.63271904 2.501866364,42.62842758" />
<polygon id="66231 VINGRAU" points="2.7958188,42.81911718 2.768010558,42.8332322 2.754346352,42.85170782 2.761908494,42.87332462 2.78716381,42.89441128 2.810131967,42.89842011 2.804023736,42.88533386 2.815440084,42.87928412 2.816999657,42.86551932 2.826591117,42.84664235 2.814073751,42.83247666 2.803059321,42.82716064 2.7958188,42.81911718" />
<polygon id="66232 VIRA" points="2.406143687,42.7494095 2.393319287,42.75191827 2.376197821,42.74769276 2.353569127,42.74856568 2.352470767,42.74969201 2.350519216,42.75729622 2.364029233,42.75708952 2.402391663,42.78093194 2.420730769,42.78296589 2.428955128,42.77337069 2.406143687,42.7494095" />
<polygon id="66233 VIVES" points="2.769599362,42.51265034 2.766600514,42.51509793 2.749050839,42.51587615 2.738889664,42.5219017 2.741616945,42.52899209 2.755982544,42.54075734 2.772684795,42.54409341 2.784124216,42.54752425 2.792935638,42.54153658 2.787073615,42.5322208 2.786466995,42.51861844 2.769599362,42.51265034" />
<polygon id="66234 LE VIVIER" points="2.425494286,42.74438977 2.407981753,42.74742352 2.406143687,42.7494095 2.428955128,42.77337069 2.437681153,42.77472064 2.444313121,42.78321661 2.478445463,42.77637444 2.476002927,42.76703802 2.468994494,42.75937852 2.439333155,42.75275339 2.425494286,42.74438977" />

</g>

</g>

</svg>
