<?xml version="1.0" standalone="no"?>
<!DOCTYPE svg PUBLIC "-//W3C//DTD SVG 1.1//EN" 
  "http://www.w3.org/Graphics/SVG/1.1/DTD/svg11.dtd">
<svg width="1000" height="968" viewBox="4.649223666 43.65868591 1.108109312 0.771160269999996"  preserveAspectRatio="none"
     xmlns="http://www.w3.org/2000/svg" version="1.1">

<style type="text/css" >
<![CDATA[

.communes { 
	fill           : #b9b9b9;
	fill-opacity   : 1;
	stroke         : white;
	stroke-opacity : 1;
	stroke-width   : 0.002;
}

]]>
</style>

<g transform="translate(0,44.42984618) scale(1,-1) translate(0,-43.65868591)">

<g class="communes">

<polygon id="84001 ALTHEN-DES-PALUDS" points="4.962595949,43.98556637 4.937393731,44.01775009 4.936047801,44.02439992 4.93648882,44.02452716 4.953043682,44.01864218 4.970533851,44.00743518 4.980973916,43.99630826 4.962595949,43.98556637" />
<polygon id="84002 ANSOUIS" points="5.465187536,43.71463936 5.453329981,43.72931167 5.444039833,43.72835029 5.43692311,43.7326511 5.427893534,43.73286186 5.422719318,43.73381438 5.430183693,43.74235365 5.450338131,43.75106684 5.472830919,43.75252103 5.489162469,43.74764744 5.511093048,43.74704487 5.508706477,43.72716722 5.481012955,43.72209416 5.465187536,43.71463936" />
<polygon id="84003 APT" points="5.357751992,43.84180659 5.34336554,43.86316586 5.334939555,43.86494906 5.31779914,43.8602188 5.310676266,43.86438524 5.318923499,43.86768546 5.351486597,43.88844329 5.370052341,43.88974337 5.375851466,43.90314947 5.374108311,43.90644664 5.379563456,43.91154092 5.392794345,43.91224218 5.39657047,43.90577583 5.409844524,43.90221535 5.43777588,43.92089023 5.455168807,43.90476195 5.454946358,43.90132752 5.452474498,43.89567472 5.448962093,43.89796848 5.444713804,43.89646105 5.438435368,43.88735475 5.423170894,43.87939345 5.413053347,43.86795818 5.40963279,43.8511885 5.404176121,43.84569086 5.385206644,43.84423468 5.372073669,43.84790628 5.359231624,43.84510574 5.357751992,43.84180659" />
<polygon id="84004 AUBIGNAN" points="5.074024236,44.1015958 5.071635523,44.09501442 5.067390149,44.09335696 5.049242414,44.0958948 5.049312642,44.07946232 5.041996004,44.0749983 5.03257589,44.07628996 5.021587142,44.08687414 4.994751246,44.09206586 4.99356545,44.09530161 4.992005335,44.10069594 4.996358253,44.10689201 5.015489842,44.10728002 5.022619839,44.11557583 5.027102206,44.11686153 5.031934939,44.11675402 5.041893175,44.10972626 5.070298269,44.1063301 5.074024236,44.1015958" />
<polygon id="84005 AUREL" points="5.446356781,44.10999583 5.346676707,44.135786 5.32659526,44.15958089 5.354776658,44.16018596 5.370461274,44.15476034 5.383240888,44.15528473 5.396950088,44.15233847 5.415834088,44.15465248 5.427556493,44.14915271 5.435755866,44.15224864 5.438368602,44.13880925 5.447570974,44.13675814 5.44951377,44.12409889 5.45471646,44.1192279 5.446356781,44.10999583" />
<polygon id="84006 AURIBEAU" points="5.464211641,43.8142437 5.455953092,43.81186415 5.445284186,43.81764098 5.42144604,43.83901552 5.433235433,43.8430477 5.464139355,43.84140849 5.462553913,43.82829033 5.467258751,43.81541723 5.464211641,43.8142437" />
<polygon id="84007 AVIGNON" points="4.922008362,43.88675857 4.902945313,43.88766868 4.881334788,43.90156413 4.854805286,43.91079487 4.810973564,43.91427609 4.773596497,43.91964241 4.739061131,43.92406847 4.749450587,43.93146403 4.777287757,43.93819816 4.791981237,43.95227124 4.814368945,43.96467577 4.810177762,43.97791537 4.812966969,43.98800562 4.840941374,43.98591781 4.845344158,43.99559311 4.851568358,43.98911425 4.85331372,43.96839745 4.840135202,43.95862768 4.840864898,43.9522779 4.855225005,43.9505227 4.883970868,43.95276756 4.898638351,43.93107946 4.897461378,43.91703862 4.927176726,43.90528366 4.918197949,43.8985642 4.922008362,43.88675857" />
<polygon id="84008 LE BARROUX" points="5.092079046,44.12980307 5.084891574,44.13254209 5.074584191,44.15840732 5.081761832,44.16724812 5.073878482,44.18773726 5.095542349,44.17968123 5.099239067,44.1696792 5.127674423,44.15634561 5.134746187,44.1471682 5.132528857,44.14039539 5.114914868,44.14047551 5.092079046,44.12980307" />
<polygon id="84009 LA BASTIDE-DES-JOURDANS" points="5.695000538,43.78420988 5.666858313,43.76597635 5.657411956,43.76535188 5.653866135,43.76765326 5.636030896,43.78314955 5.622080189,43.78164044 5.610351299,43.77679003 5.593728794,43.78234611 5.610605982,43.79462018 5.614419933,43.80843957 5.622361897,43.81732467 5.640282105,43.82139409 5.64691718,43.82610437 5.654445137,43.82511099 5.659803355,43.81571523 5.674483354,43.80736045 5.684297556,43.7894533 5.695000538,43.78420988" />
<polygon id="84010 LA BASTIDONNE" points="5.59912416,43.67794133 5.585436697,43.68057233 5.565516753,43.68976785 5.559043183,43.69899529 5.55444002,43.69984171 5.557188745,43.70609723 5.584752344,43.70142157 5.589293094,43.69563266 5.588809798,43.68878385 5.60132463,43.68460497 5.59912416,43.67794133" />
<polygon id="84011 LE BEAUCET" points="5.159728107,43.94997007 5.130967533,43.95599052 5.129474404,43.96573384 5.119229555,43.97281125 5.103784324,43.99748979 5.116047427,44.00161071 5.122214212,43.99672855 5.134852887,43.97754896 5.152951328,43.96587712 5.159625768,43.95286206 5.164026552,43.95126249 5.159728107,43.94997007" />
<polygon id="84012 BEAUMES-DE-VENISE" points="4.992005335,44.10069594 4.984916576,44.12526861 4.997064725,44.12737081 5.0002057,44.13315677 4.99537344,44.13830479 5.017598556,44.13502586 5.041388217,44.14370606 5.055567759,44.13784084 5.064773566,44.13692053 5.07100444,44.13224713 5.064665493,44.12774785 5.062843205,44.11817533 5.070298269,44.1063301 5.041893175,44.10972626 5.031934939,44.11675402 5.027102206,44.11686153 5.022619839,44.11557583 5.015489842,44.10728002 4.996358253,44.10689201 4.992005335,44.10069594" />
<polygon id="84013 BEAUMETTES" points="5.214590632,43.85609669 5.188330829,43.86009259 5.198825059,43.87122498 5.215491083,43.86616144 5.214590632,43.85609669" />
<polygon id="84014 BEAUMONT-DE-PERTUIS" points="5.753650891,43.72462223 5.737882398,43.71655648 5.712026333,43.69064336 5.682821364,43.69282612 5.690867494,43.69664292 5.694013416,43.70311059 5.680196822,43.71708311 5.648230857,43.72429413 5.640866237,43.74065231 5.644541357,43.74628035 5.641019053,43.75876379 5.653866135,43.76765326 5.657411956,43.76535188 5.666858313,43.76597635 5.695000538,43.78420988 5.70534868,43.7796495 5.713558249,43.78112007 5.716274264,43.75693073 5.748016801,43.74148485 5.757332978,43.72940911 5.753650891,43.72462223" />
<polygon id="84015 BEAUMONT-DU-VENTOUX" points="5.172662622,44.16259469 5.158714324,44.18066228 5.160044425,44.1945836 5.188616788,44.19652961 5.202216483,44.20027346 5.215843389,44.19728881 5.235301326,44.19748845 5.242695813,44.20154267 5.245099795,44.19491121 5.25970436,44.19330575 5.277401436,44.18706886 5.280148489,44.18411232 5.27811163,44.17357431 5.278116916,44.17339411 5.249248997,44.17326955 5.172662622,44.16259469" />
<polygon id="84016 BEDARRIDES" points="4.915274013,44.01884178 4.909212418,44.03117335 4.886501961,44.03456512 4.874020651,44.03070139 4.862352663,44.03601406 4.864831275,44.05797434 4.893084041,44.06064042 4.903883253,44.07146365 4.932027769,44.07251919 4.933114889,44.07584911 4.938547109,44.07071141 4.942396535,44.05397873 4.93648882,44.02452716 4.936047801,44.02439992 4.915274013,44.01884178" />
<polygon id="84017 BEDOIN" points="5.163824352,44.09243078 5.15983033,44.09910936 5.168196063,44.1153581 5.16695661,44.12218956 5.142590424,44.13897467 5.143414804,44.14558545 5.155897657,44.15622654 5.172662622,44.16259469 5.249248997,44.17326955 5.278116916,44.17339411 5.282860401,44.17406087 5.30752209,44.1633246 5.326098677,44.15967247 5.324891899,44.13904162 5.315197863,44.13158401 5.316602934,44.11758848 5.302596234,44.11770362 5.279397369,44.11238092 5.264914954,44.11306842 5.248926065,44.1053751 5.205768021,44.10061606 5.163824352,44.09243078" />
<polygon id="84018 BLAUVAC" points="5.190599569,44.00620209 5.187065375,44.00804649 5.195506659,44.01927575 5.179862248,44.03170727 5.171219958,44.03415698 5.18612508,44.03653427 5.210540224,44.04303961 5.244877616,44.04300693 5.270096656,44.05376857 5.294363203,44.05583775 5.301674919,44.06498542 5.306598787,44.06507988 5.31201283,44.04219446 5.307321124,44.04131205 5.304037997,44.03482636 5.295330066,44.03274939 5.289318376,44.04215834 5.281673409,44.04606362 5.264571158,44.03381348 5.222921995,44.02479953 5.21095072,44.01889268 5.204081211,44.00967667 5.190599569,44.00620209" />
<polygon id="84019 BOLLENE" points="4.803998565,44.26920618 4.789610629,44.2599698 4.780114033,44.25876457 4.775996204,44.25248381 4.771893176,44.25065936 4.767064648,44.25046705 4.724531425,44.25598684 4.718920992,44.26472694 4.699897602,44.26667052 4.696262065,44.28336481 4.711538173,44.29618291 4.713016931,44.32064938 4.713218678,44.32400456 4.721662854,44.32659178 4.762995009,44.32509965 4.771940242,44.31755486 4.780928907,44.31745467 4.795900389,44.30511019 4.804563292,44.30389689 4.80447911,44.27761663 4.803998565,44.26920618" />
<polygon id="84020 BONNIEUX" points="5.322397743,43.78297567 5.315980853,43.78714542 5.27042447,43.79309154 5.27380959,43.81758902 5.283662267,43.83733317 5.278471268,43.84720079 5.267566014,43.85389207 5.290752959,43.86094308 5.300272814,43.86158906 5.299549982,43.8717597 5.311140209,43.88261568 5.318923499,43.86768546 5.310676266,43.86438524 5.31779914,43.8602188 5.334939555,43.86494906 5.34336554,43.86316586 5.357751992,43.84180659 5.363968302,43.83752161 5.356750079,43.82867481 5.361859209,43.81959729 5.344250682,43.80803052 5.343471806,43.79448906 5.331628807,43.7850742 5.322397743,43.78297567" />
<polygon id="84021 BRANTES" points="5.32659526,44.15958089 5.326098677,44.15967247 5.30752209,44.1633246 5.282860401,44.17406087 5.278116916,44.17339411 5.27811163,44.17357431 5.29394484,44.1867512 5.30957317,44.19470762 5.311451762,44.20150265 5.303297977,44.20539306 5.303623925,44.20879902 5.317995587,44.20879357 5.335726093,44.20431143 5.355790067,44.21359887 5.376670294,44.20513425 5.3845291,44.20119067 5.383188228,44.19906761 5.373724361,44.19904762 5.365949767,44.19030068 5.354776658,44.16018596 5.32659526,44.15958089" />
<polygon id="84022 BUISSON" points="4.99352235,44.2587996 4.98983258,44.26469211 4.98984508,44.26790633 4.977146477,44.2706387 4.971687523,44.27942569 4.98959432,44.28576598 5.002478894,44.28609023 5.017150352,44.29224194 5.022817643,44.28664519 5.025426456,44.27300079 5.025789879,44.26984263 5.025312016,44.26663695 5.012207381,44.26740899 4.99352235,44.2587996" />
<polygon id="84023 BUOUX" points="5.389601663,43.80149991 5.376312303,43.80565272 5.352998937,43.79284332 5.343471806,43.79448906 5.344250682,43.80803052 5.361859209,43.81959729 5.356750079,43.82867481 5.363968302,43.83752161 5.357751992,43.84180659 5.359231624,43.84510574 5.372073669,43.84790628 5.385206644,43.84423468 5.404176121,43.84569086 5.407265775,43.83664648 5.392444641,43.82904087 5.399488638,43.80753978 5.389601663,43.80149991" />
<polygon id="84024 CABRIERES-D'AIGUES" points="5.504331774,43.75827437 5.495040812,43.75828055 5.484439126,43.76957869 5.475091398,43.77061078 5.470663634,43.78430598 5.473773297,43.79816336 5.464211641,43.8142437 5.467258751,43.81541723 5.48909767,43.81810797 5.512586056,43.81866757 5.507662846,43.80168342 5.513409755,43.77434302 5.504331774,43.75827437" />
<polygon id="84025 CABRIERES-D'AVIGNON" points="5.166557756,43.86437123 5.148313353,43.86792787 5.136578579,43.86858139 5.131733417,43.87946117 5.139675378,43.90241552 5.150563337,43.91776739 5.1551664,43.94170537 5.159298213,43.94223599 5.165536032,43.93325361 5.166912481,43.92291797 5.16400942,43.89891999 5.166557756,43.86437123" />
<polygon id="84026 CADENET" points="5.388125772,43.70218785 5.370534661,43.70918923 5.343699147,43.7187728 5.353929049,43.72969698 5.347406787,43.73836312 5.353748911,43.7539986 5.366974898,43.75156932 5.374825938,43.75490941 5.383880632,43.75462156 5.386099613,43.75749884 5.422719318,43.73381438 5.427893534,43.73286186 5.421742191,43.71746934 5.396057641,43.71025969 5.388125772,43.70218785" />
<polygon id="84027 CADEROUSSE" points="4.760034901,44.07834441 4.757721025,44.08793329 4.748338942,44.08705715 4.727818953,44.0784523 4.723213168,44.07935309 4.719729896,44.08558353 4.716785457,44.09479426 4.705082104,44.10817473 4.718133486,44.14067752 4.718724816,44.15238085 4.723333366,44.15178636 4.727583505,44.1459847 4.732056761,44.13973822 4.758372055,44.13082965 4.778502089,44.12101592 4.783475565,44.11502026 4.782799224,44.0906519 4.773465488,44.08253901 4.760034901,44.07834441" />
<polygon id="84028 CAIRANNE" points="4.935793538,44.19830061 4.933600768,44.21145753 4.915625189,44.20812626 4.903483682,44.21821441 4.897910586,44.23837997 4.898924379,44.24172982 4.921310087,44.25406278 4.925859407,44.2530107 4.932899597,44.24933053 4.942097566,44.24906923 4.951252825,44.24975333 4.966537795,44.2563327 4.970007927,44.2541636 4.970390603,44.25075325 4.961096883,44.24462587 4.96312696,44.22763538 4.949109772,44.20231461 4.935793538,44.19830061" />
<polygon id="84029 CAMARET-SUR-AIGUES" points="4.87870499,44.13375794 4.874048076,44.13431482 4.865236946,44.14618716 4.848857107,44.15232562 4.846866024,44.16224463 4.851205878,44.17529815 4.872503004,44.17432445 4.880528719,44.17151317 4.89420906,44.17475307 4.908018948,44.17137155 4.935455127,44.17331279 4.932735789,44.16397916 4.920629861,44.16068952 4.908820189,44.15612394 4.906116025,44.14969762 4.893097949,44.14628585 4.87870499,44.13375794" />
<polygon id="84030 CAROMB" points="5.101850808,44.07931288 5.092353914,44.08597725 5.089567242,44.09921162 5.076781279,44.10319122 5.092079046,44.12980307 5.114914868,44.14047551 5.132528857,44.14039539 5.138964214,44.13564201 5.127674424,44.12394067 5.119199587,44.10347735 5.11717989,44.08244795 5.101850808,44.07931288" />
<polygon id="84031 CARPENTRAS" points="5.035731529,44.02241051 5.027655206,44.03071722 5.024713562,44.04415023 5.015202828,44.05967605 5.026184286,44.06689199 5.03257589,44.07628996 5.041996004,44.0749983 5.049312642,44.07946232 5.049242414,44.0958948 5.067390149,44.09335696 5.071635523,44.09501442 5.074024236,44.1015958 5.076781279,44.10319122 5.089567242,44.09921162 5.092353914,44.08597725 5.101850808,44.07931288 5.081695117,44.07050538 5.086635899,44.06084975 5.098919138,44.05062119 5.094129617,44.02731342 5.061145424,44.02960532 5.042372516,44.02737346 5.035731529,44.02241051" />
<polygon id="84032 CASENEUVE" points="5.467012061,43.86069208 5.446339411,43.87919168 5.452474498,43.89567472 5.454946358,43.90132752 5.514029943,43.91001331 5.522209768,43.90910434 5.511043589,43.89365884 5.49170083,43.87496906 5.472215903,43.86621053 5.467012061,43.86069208" />
<polygon id="84033 CASTELLET" points="5.467258751,43.81541723 5.462553913,43.82829033 5.464139355,43.84140849 5.476633993,43.85186666 5.507880597,43.84547143 5.508941131,43.84214271 5.497003065,43.83768083 5.48909767,43.81810797 5.467258751,43.81541723" />
<polygon id="84034 CAUMONT-SUR-DURANCE" points="4.991499893,43.85071986 4.969653154,43.86974155 4.930503384,43.88436717 4.922008362,43.88675857 4.918197949,43.8985642 4.927176726,43.90528366 4.930830444,43.91060238 4.967681489,43.91147496 4.995148018,43.89071251 4.985858657,43.88918949 4.975076006,43.8829846 4.991499893,43.85071986" />
<polygon id="84035 CAVAILLON" points="5.042624474,43.80650196 5.035353802,43.8201408 5.027721176,43.82858279 4.997651289,43.84485512 4.991499893,43.85071986 4.975076006,43.8829846 4.985858657,43.88918949 4.995148018,43.89071251 5.002983174,43.88235002 5.021897823,43.87908455 5.069135338,43.87341898 5.085640854,43.85342571 5.086468473,43.84679323 5.077896242,43.84468831 5.07194945,43.82956082 5.09233392,43.82184387 5.076006478,43.81150656 5.067817899,43.81469586 5.042624474,43.80650196" />
<polygon id="84036 CHATEAUNEUF-DE-GADAGNE" points="4.930830444,43.91060238 4.919425738,43.91582661 4.923454127,43.95184568 4.927433463,43.95012814 4.927408751,43.94681572 4.934583554,43.943079 4.947970421,43.94397545 4.959585239,43.94840399 4.958676766,43.9379145 4.965750792,43.92881211 4.967681489,43.91147496 4.930830444,43.91060238" />
<polygon id="84037 CHATEAUNEUF-DU-PAPE" points="4.862352663,44.03601406 4.833952564,44.03376591 4.818415992,44.04156026 4.809744462,44.04987827 4.795864776,44.04791026 4.787410043,44.05491753 4.78680737,44.064353 4.803320022,44.08507642 4.822233196,44.08596976 4.839545731,44.07982857 4.864831275,44.05797434 4.862352663,44.03601406" />
<polygon id="84038 CHEVAL-BLANC" points="5.138787818,43.752797 5.123783723,43.75875277 5.09066408,43.77211305 5.048139022,43.78972708 5.042624474,43.80650196 5.067817899,43.81469586 5.076006478,43.81150656 5.09233392,43.82184387 5.111323708,43.8206046 5.123305323,43.81514166 5.135498733,43.80642344 5.143741291,43.8081161 5.145497103,43.80819859 5.153457289,43.80435972 5.176671329,43.80586112 5.197927373,43.79810669 5.197737988,43.7941495 5.191498829,43.76657544 5.172380007,43.765221 5.157304081,43.75675271 5.138787818,43.752797" />
<polygon id="84039 COURTHEZON" points="4.864831275,44.05797434 4.839545731,44.07982857 4.83988856,44.09700014 4.844420331,44.1030729 4.870712787,44.11767111 4.875411508,44.11690657 4.875797447,44.1134518 4.91513966,44.10354309 4.933114889,44.07584911 4.932027769,44.07251919 4.903883253,44.07146365 4.893084041,44.06064042 4.864831275,44.05797434" />
<polygon id="84040 CRESTET" points="5.06834378,44.19003869 5.062503881,44.19359713 5.060410902,44.19972311 5.066491395,44.20516423 5.07151152,44.21856665 5.080622992,44.22667811 5.08913754,44.22938875 5.096859631,44.22655829 5.112400757,44.23130274 5.105177383,44.21921377 5.108305562,44.20938421 5.091207727,44.19312586 5.06834378,44.19003869" />
<polygon id="84041 CRILLON-LE-BRAVE" points="5.15983033,44.09910936 5.143999004,44.10106803 5.139894016,44.11351044 5.135308095,44.1228468 5.138964214,44.13564201 5.142590424,44.13897467 5.16695661,44.12218956 5.168196063,44.1153581 5.15983033,44.09910936" />
<polygon id="84042 CUCURON" points="5.430183693,43.74235365 5.416746174,43.7461368 5.40552787,43.75636923 5.406722934,43.76676805 5.417089563,43.77396588 5.426623647,43.78988724 5.41950646,43.81348048 5.431870271,43.81009927 5.445284186,43.81764098 5.455953092,43.81186415 5.464211641,43.8142437 5.473773297,43.79816336 5.470663634,43.78430598 5.475091398,43.77061078 5.472830919,43.75252103 5.450338131,43.75106684 5.430183693,43.74235365" />
<polygon id="84043 ENTRAIGUES-SUR-LA-SORGUE" points="4.928948039,43.96764706 4.911173821,43.99331016 4.908170358,44.01012535 4.915274013,44.01884178 4.936047801,44.02439992 4.937393731,44.01775009 4.962595949,43.98556637 4.950950064,43.97462962 4.941521574,43.96901788 4.928948039,43.96764706" />
<polygon id="84044 ENTRECHAUX" points="5.167912694,44.22530426 5.155255293,44.21052526 5.14758491,44.20631756 5.138201762,44.20612259 5.130061638,44.20235506 5.108305562,44.20938421 5.105177383,44.21921377 5.112400757,44.23130274 5.114258261,44.24418814 5.118580975,44.24556353 5.138243121,44.23647523 5.151813942,44.23830815 5.150006744,44.23523704 5.167912694,44.22530426" />
<polygon id="84045 FAUCON" points="5.151813942,44.23830815 5.138243121,44.23647523 5.118580975,44.24556353 5.124090325,44.25320087 5.118952031,44.26153913 5.132390851,44.26238663 5.147458254,44.26917067 5.160531355,44.26561869 5.161547591,44.24559067 5.151813942,44.23830815" />
<polygon id="84046 FLASSAN" points="5.224729304,44.07937952 5.207483436,44.09426976 5.205768021,44.10061606 5.248926065,44.1053751 5.264914954,44.11306842 5.279397369,44.11238092 5.302596234,44.11770362 5.316602934,44.11758848 5.311506449,44.10228973 5.30322366,44.09492764 5.29912561,44.08905296 5.247252089,44.08419595 5.224729304,44.07937952" />
<polygon id="84047 GARGAS" points="5.318923499,43.86768546 5.311140209,43.88261568 5.320405029,43.89434834 5.329697049,43.89536587 5.335377555,43.91522292 5.347546613,43.9191756 5.36101408,43.91593212 5.374108311,43.90644664 5.375851466,43.90314947 5.370052341,43.88974337 5.351486597,43.88844329 5.318923499,43.86768546" />
<polygon id="84048 GIGNAC" points="5.522209768,43.90910434 5.514029943,43.91001331 5.506924958,43.91866744 5.512673821,43.94540358 5.529600086,43.94602145 5.544991958,43.93905484 5.530779165,43.92541055 5.535473022,43.9124528 5.522209768,43.90910434" />
<polygon id="84049 GIGONDAS" points="5.041388217,44.14370606 5.017598556,44.13502586 4.99537344,44.13830479 4.991205745,44.15781013 4.973688998,44.1629887 4.963423269,44.15619527 4.958751516,44.15708012 4.971698325,44.17482816 4.971942544,44.18150443 4.980894362,44.18921235 4.999439491,44.18673308 5.010205128,44.18014371 5.024351472,44.18037878 5.033084807,44.18807759 5.062503881,44.19359713 5.06834378,44.19003869 5.072104152,44.18746465 5.040613392,44.17332465 5.033382106,44.16457226 5.041186202,44.16141104 5.035324378,44.15628885 5.041388217,44.14370606" />
<polygon id="84050 GORDES" points="5.188330829,43.86009259 5.177363028,43.86221158 5.166557756,43.86437123 5.16400942,43.89891999 5.166912481,43.92291797 5.165536032,43.93325361 5.159298213,43.94223599 5.159728107,43.94997007 5.164026552,43.95126249 5.172768207,43.95403302 5.195953786,43.95028341 5.200274814,43.95116882 5.214844611,43.93901731 5.229962335,43.93307379 5.238504167,43.92502132 5.248799234,43.90273422 5.245676112,43.89614528 5.234425661,43.88544657 5.220205482,43.88468341 5.209967327,43.87648257 5.198825059,43.87122498 5.188330829,43.86009259" />
<polygon id="84051 GOULT" points="5.244909581,43.83961419 5.224040514,43.85435598 5.214590632,43.85609669 5.215491083,43.86616144 5.198825059,43.87122498 5.209967327,43.87648257 5.217079905,43.87279121 5.22011972,43.87511515 5.220205482,43.88468341 5.234425661,43.88544657 5.245676112,43.89614528 5.261873212,43.89047208 5.278075646,43.87409175 5.285997517,43.87052295 5.290752959,43.86094308 5.267566014,43.85389207 5.264702226,43.84473269 5.253449609,43.83980718 5.244909581,43.83961419" />
<polygon id="84052 GRAMBOIS" points="5.613708234,43.73251137 5.593499635,43.74194401 5.575006835,43.74548909 5.556435425,43.75649655 5.550667668,43.77395418 5.559765391,43.77401088 5.579317991,43.7813467 5.592796586,43.7828905 5.593728794,43.78234611 5.610351299,43.77679003 5.622080189,43.78164044 5.636030896,43.78314955 5.653866135,43.76765326 5.641019053,43.75876379 5.644541357,43.74628035 5.640866237,43.74065231 5.613708234,43.73251137" />
<polygon id="84053 GRILLON" points="4.930076991,44.37074601 4.917094095,44.36991941 4.915498758,44.37285557 4.907084867,44.37463145 4.911761757,44.38821888 4.910162399,44.39515298 4.918515009,44.40778504 4.945504576,44.41494742 4.951962043,44.42004683 4.959277838,44.41978188 4.962759727,44.41004895 4.956355096,44.40102329 4.955500106,44.39081836 4.930076991,44.37074601" />
<polygon id="84054 L'ISLE-SUR-LA-SORGUE" points="5.069135338,43.87341898 5.021897823,43.87908455 5.01394074,43.90577936 5.035481686,43.93580831 5.027953344,43.93955834 5.025236364,43.94619863 5.044033061,43.94499336 5.062447063,43.95562164 5.068773587,43.96443283 5.075577755,43.96336753 5.086735953,43.95526858 5.088650082,43.93777562 5.081229223,43.91740919 5.088833612,43.90842346 5.102660968,43.9075549 5.100393103,43.90209796 5.088585445,43.89857942 5.090190327,43.892427 5.082165164,43.88435213 5.083070252,43.87470229 5.069135338,43.87341898" />
<polygon id="84055 JONQUERETTES" points="4.959585239,43.94840399 4.947970421,43.94397545 4.934583554,43.943079 4.927408751,43.94681572 4.927433463,43.95012814 4.955970444,43.95672398 4.959585239,43.94840399" />
<polygon id="84056 JONQUIERES" points="4.91513966,44.10354309 4.875797447,44.1134518 4.875411508,44.11690657 4.87870499,44.13375794 4.893097949,44.14628585 4.906116025,44.14969762 4.908820189,44.15612394 4.920629861,44.16068952 4.934107485,44.15209751 4.952174773,44.1498416 4.952015677,44.1492142 4.950049867,44.12909069 4.933651522,44.12252074 4.91513966,44.10354309" />
<polygon id="84057 JOUCAS" points="5.248799234,43.90273422 5.238504167,43.92502132 5.229962335,43.93307379 5.231092592,43.93648992 5.249229043,43.94144792 5.26320112,43.93872849 5.274352181,43.93215858 5.274000311,43.92739417 5.248799234,43.90273422" />
<polygon id="84058 LACOSTE" points="5.27042447,43.79309154 5.256915939,43.79908871 5.256286071,43.82029377 5.244909581,43.83961419 5.253449609,43.83980718 5.264702226,43.84473269 5.267566014,43.85389207 5.278471268,43.84720079 5.283662267,43.83733317 5.27380959,43.81758902 5.27042447,43.79309154" />
<polygon id="84059 LAFARE" points="5.055567759,44.13784084 5.041388217,44.14370606 5.035324378,44.15628885 5.041186202,44.16141104 5.054363959,44.16888121 5.065625688,44.15934175 5.052838292,44.14673358 5.055567759,44.13784084" />
<polygon id="84060 LAGARDE-D'APT" points="5.512673821,43.94540358 5.482347968,43.95415549 5.474530512,43.96213938 5.467624395,43.97106556 5.461209017,43.99140659 5.440727302,44.01434927 5.459620109,44.01527672 5.470361972,44.02215713 5.474370903,44.02022062 5.493723142,43.99224562 5.504598213,43.98541484 5.513170428,43.97335938 5.507972449,43.95780233 5.512673821,43.94540358" />
<polygon id="84061 LAGARDE-PAREOL" points="4.867513314,44.21167447 4.840466077,44.2152645 4.825014195,44.22214897 4.825341849,44.2284459 4.857094248,44.24599255 4.861799699,44.24586787 4.860652394,44.24258299 4.86727404,44.23789679 4.871639522,44.22824267 4.867513314,44.21167447" />
<polygon id="84062 LAGNES" points="5.131733417,43.87946117 5.103437812,43.86747878 5.087780066,43.87519744 5.083070252,43.87470229 5.082165164,43.88435213 5.090190327,43.892427 5.088585445,43.89857942 5.100393103,43.90209796 5.102660968,43.9075549 5.106152783,43.91174585 5.113705098,43.90753072 5.127832737,43.90771547 5.14317848,43.91546381 5.154479924,43.9416739 5.1551664,43.94170537 5.150563337,43.91776739 5.139675378,43.90241552 5.131733417,43.87946117" />
<polygon id="84063 LAMOTTE-DU-RHONE" points="4.651478597,44.25915309 4.649223666,44.27035987 4.652363852,44.29127219 4.694070326,44.2855144 4.699386881,44.29855926 4.703704159,44.299969 4.711538173,44.29618291 4.696262065,44.28336481 4.699897602,44.26667052 4.678338707,44.26130292 4.651478597,44.25915309" />
<polygon id="84064 LAPALUD" points="4.711538173,44.29618291 4.703704159,44.299969 4.699386881,44.29855926 4.694070326,44.2855144 4.652363852,44.29127219 4.653181381,44.29480719 4.650615013,44.32980579 4.67988412,44.3206923 4.713016931,44.32064938 4.711538173,44.29618291" />
<polygon id="84065 LAURIS" points="5.325915736,43.72923685 5.315300024,43.73656597 5.286389831,43.74013868 5.27042447,43.79309154 5.315980853,43.78714542 5.322397743,43.78297567 5.333427971,43.74206652 5.325915736,43.72923685" />
<polygon id="84066 LIOUX" points="5.282276459,43.9349824 5.267625871,43.94817125 5.266171243,43.96174252 5.289177108,43.98772451 5.286311192,43.99741838 5.294382818,44.00892715 5.313762764,44.02228579 5.323777448,44.01481637 5.337891183,44.0121476 5.349753152,44.00603185 5.359340124,43.99564201 5.342159606,43.97486144 5.324918851,43.96299353 5.325238424,43.95952034 5.291382068,43.93555707 5.282276459,43.9349824" />
<polygon id="84067 LORIOL-DU-COMTAT" points="5.015202828,44.05967605 4.99925633,44.05709644 4.991485255,44.06870803 4.978923548,44.06511847 4.977375447,44.07195277 4.984267614,44.07658174 4.987018149,44.09026172 4.99356545,44.09530161 4.994751246,44.09206586 5.021587142,44.08687414 5.03257589,44.07628996 5.026184286,44.06689199 5.015202828,44.05967605" />
<polygon id="84068 LOURMARIN" points="5.386099613,43.75749884 5.383880632,43.75462156 5.374825938,43.75490941 5.366974898,43.75156932 5.353748911,43.7539986 5.349487012,43.75516193 5.331628807,43.7850742 5.343471806,43.79448906 5.352998937,43.79284332 5.376312303,43.80565272 5.389601663,43.80149991 5.393562946,43.78834073 5.386099613,43.75749884" />
<polygon id="84069 MALAUCENE" points="5.138964214,44.13564201 5.132528857,44.14039539 5.134746187,44.1471682 5.127674423,44.15634561 5.099239067,44.1696792 5.095542349,44.17968123 5.073878482,44.18773726 5.072104152,44.18746465 5.06834378,44.19003869 5.091207727,44.19312586 5.108305562,44.20938421 5.130061638,44.20235506 5.138201762,44.20612259 5.14758491,44.20631756 5.155255293,44.21052526 5.167912694,44.22530426 5.175606457,44.22086596 5.208774816,44.2144227 5.238149708,44.21323333 5.237867582,44.20671079 5.242695813,44.20154267 5.235301326,44.19748845 5.215843389,44.19728881 5.202216483,44.20027346 5.188616788,44.19652961 5.160044425,44.1945836 5.158714324,44.18066228 5.172662622,44.16259469 5.155897657,44.15622654 5.143414804,44.14558545 5.142590424,44.13897467 5.138964214,44.13564201" />
<polygon id="84070 MALEMORT-DU-COMTAT" points="5.182253238,44.00258752 5.174329434,43.99955816 5.161605716,44.00411397 5.141756863,44.02226796 5.132392586,44.02209975 5.139289708,44.03099545 5.161845422,44.03508987 5.171219958,44.03415698 5.179862248,44.03170727 5.195506659,44.01927575 5.187065375,44.00804649 5.190599569,44.00620209 5.182253238,44.00258752" />
<polygon id="84071 MAUBEC" points="5.143741291,43.8081161 5.131524864,43.81886121 5.120789966,43.84150414 5.126777039,43.85465704 5.13640617,43.86164385 5.136578579,43.86858139 5.148313353,43.86792787 5.150721276,43.84661656 5.143155429,43.82597906 5.145497103,43.80819859 5.143741291,43.8081161" />
<polygon id="84072 MAZAN" points="5.132392586,44.02209975 5.124222164,44.01847732 5.115724115,44.02179313 5.106741276,44.02484751 5.094129617,44.02731342 5.098919138,44.05062119 5.086635899,44.06084975 5.081695117,44.07050538 5.101850808,44.07931288 5.11717989,44.08244795 5.129678937,44.08534786 5.151313859,44.08502406 5.159150568,44.08745391 5.167330805,44.079207 5.159373798,44.06338274 5.167749122,44.05117042 5.179224055,44.04536034 5.18612508,44.03653427 5.171219958,44.03415698 5.161845422,44.03508987 5.139289708,44.03099545 5.132392586,44.02209975" />
<polygon id="84073 MENERBES" points="5.227538079,43.79218511 5.197737988,43.7941495 5.197927373,43.79810669 5.195935826,43.82974521 5.185295771,43.85328445 5.177363028,43.86221158 5.188330829,43.86009259 5.214590632,43.85609669 5.224040514,43.85435598 5.244909581,43.83961419 5.256286071,43.82029377 5.256915939,43.79908871 5.227538079,43.79218511" />
<polygon id="84074 MERINDOL" points="5.236377582,43.74746988 5.186262028,43.73550676 5.138787818,43.752797 5.157304081,43.75675271 5.172380007,43.765221 5.191498829,43.76657544 5.197737988,43.7941495 5.227538079,43.79218511 5.237568796,43.77221949 5.236377582,43.74746988" />
<polygon id="84075 METHAMIS" points="5.223468846,43.98286813 5.213629591,43.98990136 5.190078043,43.99393193 5.182253238,44.00258752 5.190599569,44.00620209 5.204081211,44.00967667 5.21095072,44.01889268 5.222921995,44.02479953 5.264571158,44.03381348 5.281673409,44.04606362 5.289318376,44.04215834 5.295330066,44.03274939 5.304037997,44.03482636 5.307321124,44.04131205 5.31201283,44.04219446 5.313762764,44.02228579 5.294382818,44.00892715 5.286311192,43.99741838 5.257563286,43.99555766 5.237368688,43.98564573 5.223468846,43.98286813" />
<polygon id="84076 MIRABEAU" points="5.623852159,43.66614776 5.619161255,43.66933988 5.627455085,43.67304713 5.626722988,43.676558 5.601635174,43.70646608 5.610031051,43.71504316 5.613708234,43.73251137 5.640866237,43.74065231 5.648230857,43.72429413 5.680196822,43.71708311 5.694013416,43.70311059 5.690867494,43.69664292 5.682821364,43.69282612 5.673112701,43.69350629 5.657153862,43.68544319 5.641422405,43.67198851 5.623852159,43.66614776" />
<polygon id="84077 MODENE" points="5.11717989,44.08244795 5.119199587,44.10347735 5.127674424,44.12394067 5.138964214,44.13564201 5.135308095,44.1228468 5.139894016,44.11351044 5.13258622,44.10492829 5.129678937,44.08534786 5.11717989,44.08244795" />
<polygon id="84078 MONDRAGON" points="4.708595324,44.21349789 4.699936147,44.21610816 4.681893253,44.21174054 4.673656891,44.21471137 4.672932845,44.21860269 4.677359891,44.23497469 4.651478597,44.25915309 4.678338707,44.26130292 4.699897602,44.26667052 4.718920992,44.26472694 4.724531425,44.25598684 4.767064648,44.25046705 4.771893176,44.25065936 4.775996204,44.25248381 4.780114033,44.25876457 4.789610629,44.2599698 4.803998565,44.26920618 4.812512574,44.25801871 4.812140738,44.24206166 4.771734322,44.24155953 4.775109237,44.23574289 4.760809498,44.23578405 4.752125272,44.22788305 4.718978423,44.22403147 4.708595324,44.21349789" />
<polygon id="84079 MONIEUX" points="5.349753152,44.00603185 5.337891183,44.0121476 5.323777448,44.01481637 5.313762764,44.02228579 5.31201283,44.04219446 5.306598787,44.06507988 5.29912561,44.08905296 5.30322366,44.09492764 5.322402386,44.0970799 5.360109095,44.09100637 5.388350455,44.07210616 5.390022616,44.06880108 5.381656057,44.05240646 5.349753152,44.00603185" />
<polygon id="84080 MONTEUX" points="4.980973916,43.99630826 4.970533851,44.00743518 4.953043682,44.01864218 4.93648882,44.02452716 4.942396535,44.05397873 4.978923548,44.06511847 4.991485255,44.06870803 4.99925633,44.05709644 5.015202828,44.05967605 5.024713562,44.04415023 5.027655206,44.03071722 5.035731529,44.02241051 5.018076114,44.01147492 4.980973916,43.99630826" />
<polygon id="84081 MORIERES-LES-AVIGNON" points="4.927176726,43.90528366 4.897461378,43.91703862 4.898638351,43.93107946 4.883970868,43.95276756 4.918015263,43.95389478 4.923454127,43.95184568 4.919425738,43.91582661 4.930830444,43.91060238 4.927176726,43.90528366" />
<polygon id="84082 MORMOIRON" points="5.18612508,44.03653427 5.179224055,44.04536034 5.167749122,44.05117042 5.159373798,44.06338274 5.167330805,44.079207 5.159150568,44.08745391 5.163824352,44.09243078 5.205768021,44.10061606 5.207483436,44.09426976 5.224729304,44.07937952 5.208644969,44.04631019 5.210540224,44.04303961 5.18612508,44.03653427" />
<polygon id="84083 MORNAS" points="4.778592614,44.21063041 4.769044016,44.2098934 4.765177935,44.19988111 4.751148883,44.19826022 4.748272555,44.19547912 4.743447713,44.18220439 4.747294138,44.17587711 4.742151457,44.16645179 4.72838837,44.1634105 4.717296167,44.16593448 4.716250667,44.17604307 4.720063561,44.17802701 4.721116643,44.18801277 4.708315784,44.19172397 4.703839155,44.1976635 4.710297359,44.20683614 4.708595324,44.21349789 4.718978423,44.22403147 4.752125272,44.22788305 4.760809498,44.23578405 4.775109237,44.23574289 4.7751089,44.23252871 4.782496756,44.22893375 4.777302834,44.22021274 4.778592614,44.21063041" />
<polygon id="84084 LA MOTTE-D'AIGUES" points="5.524644547,43.74653343 5.522480943,43.74393666 5.511093048,43.74704487 5.504331774,43.75827437 5.513409755,43.77434302 5.507662846,43.80168342 5.512586056,43.81866757 5.532505055,43.81891794 5.53138405,43.8059609 5.538492137,43.79749436 5.542593871,43.78463186 5.528265022,43.77619606 5.52976106,43.75917218 5.524644547,43.74653343" />
<polygon id="84085 MURS" points="5.229962335,43.93307379 5.214844611,43.93901731 5.200274814,43.95116882 5.195953786,43.95028341 5.196711406,43.95701154 5.207197839,43.96840541 5.210743301,43.97818336 5.223468846,43.98286813 5.237368688,43.98564573 5.257563286,43.99555766 5.286311192,43.99741838 5.289177108,43.98772451 5.266171243,43.96174252 5.267625871,43.94817125 5.282276459,43.9349824 5.274352181,43.93215858 5.26320112,43.93872849 5.249229043,43.94144792 5.231092592,43.93648992 5.229962335,43.93307379" />
<polygon id="84086 OPPEDE" points="5.197927373,43.79810669 5.176671329,43.80586112 5.153457289,43.80435972 5.145497103,43.80819859 5.143155429,43.82597906 5.150721276,43.84661656 5.148313353,43.86792787 5.166557756,43.86437123 5.177363028,43.86221158 5.185295771,43.85328445 5.195935826,43.82974521 5.197927373,43.79810669" />
<polygon id="84087 ORANGE" points="4.78680737,44.064353 4.762886925,44.07486857 4.760034901,44.07834441 4.773465488,44.08253901 4.782799224,44.0906519 4.783475565,44.11502026 4.778502089,44.12101592 4.758372055,44.13082965 4.732056761,44.13973822 4.727583505,44.1459847 4.740524825,44.15540406 4.778000614,44.15614429 4.801443586,44.17336268 4.801478406,44.1768283 4.81543628,44.18769012 4.820188854,44.18723325 4.823419185,44.16703049 4.837444515,44.17605171 4.851205878,44.17529815 4.846866024,44.16224463 4.848857107,44.15232562 4.865236946,44.14618716 4.874048076,44.13431482 4.87870499,44.13375794 4.875411508,44.11690657 4.870712787,44.11767111 4.844420331,44.1030729 4.83988856,44.09700014 4.839545731,44.07982857 4.822233196,44.08596976 4.803320022,44.08507642 4.78680737,44.064353" />
<polygon id="84088 PERNES-LES-FONTAINES" points="5.075577755,43.96336753 5.068773587,43.96443283 5.065157385,43.97092923 5.037670054,43.97684674 5.013871048,43.97332654 5.001591696,43.96763733 4.987983679,43.97095556 4.958883586,43.97223712 4.950950064,43.97462962 4.962595949,43.98556637 4.980973916,43.99630826 5.018076114,44.01147492 5.035731529,44.02241051 5.042372516,44.02737346 5.061145424,44.02960532 5.094129617,44.02731342 5.106741276,44.02484751 5.095680526,44.00706262 5.098648555,44.00094662 5.089432668,43.99349749 5.084359642,43.9802699 5.087359264,43.97400065 5.075577755,43.96336753" />
<polygon id="84089 PERTUIS" points="5.5498258,43.65975237 5.530507945,43.65923141 5.488080822,43.66764664 5.445293164,43.68009529 5.453863098,43.70960173 5.465187536,43.71463936 5.481012955,43.72209416 5.508706477,43.72716722 5.519565443,43.72030823 5.525811413,43.71107048 5.55444002,43.69984171 5.559043183,43.69899529 5.565516753,43.68976785 5.585436697,43.68057233 5.59912416,43.67794133 5.607814757,43.67892169 5.619161255,43.66933988 5.623852159,43.66614776 5.606943519,43.65868591 5.573623117,43.66198253 5.5498258,43.65975237" />
<polygon id="84090 PEYPIN-D'AIGUES" points="5.550667668,43.77395418 5.538387384,43.77581661 5.542593871,43.78463186 5.538492137,43.79749436 5.53138405,43.8059609 5.532505055,43.81891794 5.544782352,43.81761464 5.550928641,43.81741696 5.565298199,43.81675564 5.572514149,43.81214677 5.592610176,43.793033 5.592796586,43.7828905 5.579317991,43.7813467 5.559765391,43.77401088 5.550667668,43.77395418" />
<polygon id="84091 PIOLENC" points="4.727583505,44.1459847 4.723333366,44.15178636 4.718724816,44.15238085 4.717117294,44.16249819 4.717296167,44.16593448 4.72838837,44.1634105 4.742151457,44.16645179 4.747294138,44.17587711 4.743447713,44.18220439 4.748272555,44.19547912 4.751148883,44.19826022 4.765177935,44.19988111 4.769044016,44.2098934 4.778592614,44.21063041 4.786340594,44.20823577 4.790940614,44.19534024 4.799762765,44.19335925 4.801478406,44.1768283 4.801443586,44.17336268 4.778000614,44.15614429 4.740524825,44.15540406 4.727583505,44.1459847" />
<polygon id="84092 LE PONTET" points="4.883970868,43.95276756 4.855225005,43.9505227 4.840864898,43.9522779 4.840135202,43.95862768 4.85331372,43.96839745 4.851568358,43.98911425 4.864728629,43.98966482 4.884374158,43.98194607 4.883970868,43.95276756" />
<polygon id="84093 PUGET" points="5.286389831,43.74013868 5.264102861,43.74423229 5.245553742,43.747137 5.236377582,43.74746988 5.237568796,43.77221949 5.227538079,43.79218511 5.256915939,43.79908871 5.27042447,43.79309154 5.286389831,43.74013868" />
<polygon id="84094 PUYMERAS" points="5.118952031,44.26153913 5.115975475,44.26807068 5.097248386,44.27910898 5.07406035,44.27702788 5.076512049,44.28408602 5.086471494,44.28393339 5.109547311,44.28054839 5.149529581,44.3006823 5.153263251,44.31018123 5.166434198,44.31485711 5.168839313,44.31412533 5.172826614,44.30821149 5.170106353,44.2987382 5.165543695,44.28958036 5.150253534,44.28208257 5.147458254,44.26917067 5.132390851,44.26238663 5.118952031,44.26153913" />
<polygon id="84095 PUYVERT" points="5.343699147,43.7187728 5.325915736,43.72923685 5.333427971,43.74206652 5.322397743,43.78297567 5.331628807,43.7850742 5.349487012,43.75516193 5.353748911,43.7539986 5.347406787,43.73836312 5.353929049,43.72969698 5.343699147,43.7187728" />
<polygon id="84096 RASTEAU" points="4.949109772,44.20231461 4.96312696,44.22763538 4.961096883,44.24462587 4.970390603,44.25075325 4.970007927,44.2541636 4.9766617,44.26248079 4.98983258,44.26469211 4.99352235,44.2587996 5.005625304,44.24994442 5.004798052,44.24354868 5.010137151,44.23833681 4.991564516,44.21551726 4.988694666,44.20578217 4.959541528,44.20320928 4.949109772,44.20231461" />
<polygon id="84097 RICHERENCHES" points="4.937308096,44.36121844 4.923605066,44.35723583 4.920603037,44.35049908 4.9043606,44.3373022 4.895327996,44.33806148 4.879110314,44.34537189 4.869526882,44.34507596 4.892910086,44.36482742 4.893313141,44.36787291 4.907084867,44.37463145 4.915498758,44.37285557 4.917094095,44.36991941 4.930076991,44.37074601 4.923949892,44.3662791 4.935397677,44.36407941 4.937308096,44.36121844" />
<polygon id="84098 ROAIX" points="5.010137151,44.23833681 5.004798052,44.24354868 5.005625304,44.24994442 4.99352235,44.2587996 5.012207381,44.26740899 5.025312016,44.26663695 5.025789879,44.26984263 5.030051751,44.26847637 5.029331972,44.24835644 5.021936702,44.24435997 5.010137151,44.23833681" />
<polygon id="84099 ROBION" points="5.143741291,43.8081161 5.135498733,43.80642344 5.123305323,43.81514166 5.118406305,43.82518437 5.102860344,43.83895257 5.086468473,43.84679323 5.085640854,43.85342571 5.069135338,43.87341898 5.083070252,43.87470229 5.087780066,43.87519744 5.103437812,43.86747878 5.131733417,43.87946117 5.136578579,43.86858139 5.13640617,43.86164385 5.126777039,43.85465704 5.120789966,43.84150414 5.131524864,43.81886121 5.143741291,43.8081161" />
<polygon id="84100 LA ROQUE-ALRIC" points="5.07100444,44.13224713 5.064773566,44.13692053 5.055567759,44.13784084 5.052838292,44.14673358 5.065625688,44.15934175 5.074584191,44.15840732 5.084891574,44.13254209 5.07100444,44.13224713" />
<polygon id="84101 LA ROQUE-SUR-PERNES" points="5.086735953,43.95526858 5.075577755,43.96336753 5.087359264,43.97400065 5.084359642,43.9802699 5.089432668,43.99349749 5.098648555,44.00094662 5.103784324,43.99748979 5.119229555,43.97281125 5.129474404,43.96573384 5.130967533,43.95599052 5.121825409,43.95647451 5.115149728,43.96096133 5.096812303,43.96087355 5.086735953,43.95526858" />
<polygon id="84102 ROUSSILLON" points="5.290752959,43.86094308 5.285997517,43.87052295 5.278075646,43.87409175 5.261873212,43.89047208 5.245676112,43.89614528 5.248799234,43.90273422 5.274000311,43.92739417 5.302723289,43.93008762 5.335377555,43.91522292 5.329697049,43.89536587 5.320405029,43.89434834 5.311140209,43.88261568 5.299549982,43.8717597 5.300272814,43.86158906 5.290752959,43.86094308" />
<polygon id="84103 RUSTREL" points="5.454946358,43.90132752 5.455168807,43.90476195 5.43777588,43.92089023 5.453949666,43.95634564 5.474530512,43.96213938 5.482347968,43.95415549 5.512673821,43.94540358 5.506924958,43.91866744 5.514029943,43.91001331 5.454946358,43.90132752" />
<polygon id="84104 SABLET" points="5.033084807,44.18807759 5.024351472,44.18037878 5.010205128,44.18014371 4.999439491,44.18673308 4.980894362,44.18921235 4.969599119,44.19330527 4.959541528,44.20320928 4.988694666,44.20578217 5.026342606,44.20358086 5.033084807,44.18807759" />
<polygon id="84105 SAIGNON" points="5.407265775,43.83664648 5.404176121,43.84569086 5.40963279,43.8511885 5.413053347,43.86795818 5.423170894,43.87939345 5.438435368,43.88735475 5.444713804,43.89646105 5.448962093,43.89796848 5.452474498,43.89567472 5.446339411,43.87919168 5.467012061,43.86069208 5.473980237,43.85752709 5.476633993,43.85186666 5.464139355,43.84140849 5.433235433,43.8430477 5.42144604,43.83901552 5.407265775,43.83664648" />
<polygon id="84106 SAINTE-CECILE-LES-VIGNES" points="4.883607349,44.20438575 4.867513314,44.21167447 4.871639522,44.22824267 4.86727404,44.23789679 4.860652394,44.24258299 4.861799699,44.24586787 4.857094248,44.24599255 4.880250377,44.26176918 4.901282947,44.26427939 4.897039942,44.25841926 4.932910424,44.26215181 4.925859407,44.2530107 4.921310087,44.25406278 4.898924379,44.24172982 4.897910586,44.23837997 4.903483682,44.21821441 4.915625189,44.20812626 4.883607349,44.20438575" />
<polygon id="84107 SAINT-CHRISTOL" points="5.513170428,43.97335938 5.504598213,43.98541484 5.493723142,43.99224562 5.474370903,44.02022062 5.470361972,44.02215713 5.459620109,44.01527672 5.440727302,44.01434927 5.439404989,44.01406362 5.449841296,44.025509 5.463572385,44.02819013 5.459668332,44.03777766 5.470467215,44.05306722 5.47530825,44.0699316 5.502637181,44.0634482 5.517135065,44.06343097 5.544598165,44.06989192 5.542867446,44.0244488 5.519569337,43.99401224 5.513170428,43.97335938" />
<polygon id="84108 SAINT-DIDIER" points="5.122214212,43.99672855 5.116047427,44.00161071 5.103784324,43.99748979 5.098648555,44.00094662 5.095680526,44.00706262 5.106741276,44.02484751 5.115724115,44.02179313 5.113426873,44.01536421 5.123067144,44.00355439 5.122214212,43.99672855" />
<polygon id="84109 SAINT-HIPPOLYTE-LE-GRAVEYRON" points="5.074024236,44.1015958 5.070298269,44.1063301 5.062843205,44.11817533 5.064665493,44.12774785 5.07100444,44.13224713 5.084891574,44.13254209 5.092079046,44.12980307 5.076781279,44.10319122 5.074024236,44.1015958" />
<polygon id="84110 SAINT-LEGER-DU-VENTOUX" points="5.27811163,44.17357431 5.280148489,44.18411232 5.277401436,44.18706886 5.25970436,44.19330575 5.245099795,44.19491121 5.242695813,44.20154267 5.237867582,44.20671079 5.238149708,44.21323333 5.240446463,44.23082651 5.248535837,44.23112037 5.256508715,44.23005633 5.280667663,44.21979597 5.303297977,44.20539306 5.311451762,44.20150265 5.30957317,44.19470762 5.29394484,44.1867512 5.27811163,44.17357431" />
<polygon id="84111 SAINT-MARCELLIN-LES-VAISON" points="5.112400757,44.23130274 5.096859631,44.22655829 5.08913754,44.22938875 5.095908426,44.24827665 5.114258261,44.24418814 5.112400757,44.23130274" />
<polygon id="84112 SAINT-MARTIN-DE-CASTILLON" points="5.48909767,43.81810797 5.497003065,43.83768083 5.508941131,43.84214271 5.507880597,43.84547143 5.476633993,43.85186666 5.473980237,43.85752709 5.467012061,43.86069208 5.472215903,43.86621053 5.49170083,43.87496906 5.511043589,43.89365884 5.522451606,43.88837162 5.546044234,43.89032693 5.550943596,43.87319502 5.56132803,43.857465 5.548647532,43.84796585 5.544782352,43.81761464 5.532505055,43.81891794 5.512586056,43.81866757 5.48909767,43.81810797" />
<polygon id="84113 SAINT-MARTIN-DE-LA-BRASQUE" points="5.524644547,43.74653343 5.52976106,43.75917218 5.528265022,43.77619606 5.542593871,43.78463186 5.538387384,43.77581661 5.550667668,43.77395418 5.556435425,43.75649655 5.524644547,43.74653343" />
<polygon id="84114 SAINT-PANTALEON" points="5.220205482,43.88468341 5.22011972,43.87511515 5.217079905,43.87279121 5.209967327,43.87648257 5.220205482,43.88468341" />
<polygon id="84115 SAINT-PIERRE-DE-VASSOLS" points="5.129678937,44.08534786 5.13258622,44.10492829 5.139894016,44.11351044 5.143999004,44.10106803 5.15983033,44.09910936 5.163824352,44.09243078 5.159150568,44.08745391 5.151313859,44.08502406 5.129678937,44.08534786" />
<polygon id="84116 SAINT-ROMAIN-EN-VIENNOIS" points="5.114258261,44.24418814 5.095908426,44.24827665 5.091261507,44.24931068 5.081697617,44.27271444 5.07406035,44.27702788 5.097248386,44.27910898 5.115975475,44.26807068 5.118952031,44.26153913 5.124090325,44.25320087 5.118580975,44.24556353 5.114258261,44.24418814" />
<polygon id="84117 SAINT-ROMAN-DE-MALEGARDE" points="4.970007927,44.2541636 4.966537795,44.2563327 4.951252825,44.24975333 4.942097566,44.24906923 4.932899597,44.24933053 4.925859407,44.2530107 4.932910424,44.26215181 4.94283158,44.26904487 4.971687523,44.27942569 4.977146477,44.2706387 4.98984508,44.26790633 4.98983258,44.26469211 4.9766617,44.26248079 4.970007927,44.2541636" />
<polygon id="84118 SAINT-SATURNIN-LES-APT" points="5.374108311,43.90644664 5.36101408,43.91593212 5.347546613,43.9191756 5.335377555,43.91522292 5.302723289,43.93008762 5.274000311,43.92739417 5.274352181,43.93215858 5.282276459,43.9349824 5.291382068,43.93555707 5.325238424,43.95952034 5.324918851,43.96299353 5.342159606,43.97486144 5.359340124,43.99564201 5.368852343,43.99613866 5.420476518,44.01286336 5.439404989,44.01406362 5.435026507,43.97876578 5.422564625,43.95575838 5.399953385,43.93262241 5.392794345,43.91224218 5.379563456,43.91154092 5.374108311,43.90644664" />
<polygon id="84119 SAINT-SATURNIN-LES-AVIGNON" points="4.927433463,43.95012814 4.923454127,43.95184568 4.918015263,43.95389478 4.913894459,43.95995358 4.928948039,43.96764706 4.941521574,43.96901788 4.950950064,43.97462962 4.958883586,43.97223712 4.976221676,43.96787389 4.95478585,43.96288485 4.955970444,43.95672398 4.927433463,43.95012814" />
<polygon id="84120 SAINT-TRINIT" points="5.502637181,44.0634482 5.47530825,44.0699316 5.4732803,44.07988261 5.446356781,44.10999583 5.45471646,44.1192279 5.498787806,44.11571935 5.498165294,44.07309539 5.502637181,44.0634482" />
<polygon id="84121 SANNES" points="5.511093048,43.74704487 5.489162469,43.74764744 5.472830919,43.75252103 5.475091398,43.77061078 5.484439126,43.76957869 5.495040812,43.75828055 5.504331774,43.75827437 5.511093048,43.74704487" />
<polygon id="84122 SARRIANS" points="4.942396535,44.05397873 4.938547109,44.07071141 4.933114889,44.07584911 4.91513966,44.10354309 4.933651522,44.12252074 4.950049867,44.12909069 4.952015677,44.1492142 4.966946317,44.14199673 4.984916576,44.12526861 4.992005335,44.10069594 4.99356545,44.09530161 4.987018149,44.09026172 4.984267614,44.07658174 4.977375447,44.07195277 4.978923548,44.06511847 4.942396535,44.05397873" />
<polygon id="84123 SAULT" points="5.359340124,43.99564201 5.349753152,44.00603185 5.381656057,44.05240646 5.390022616,44.06880108 5.388350455,44.07210616 5.360109095,44.09100637 5.322402386,44.0970799 5.30322366,44.09492764 5.311506449,44.10228973 5.316602934,44.11758848 5.315197863,44.13158401 5.324891899,44.13904162 5.326098677,44.15967247 5.32659526,44.15958089 5.346676707,44.135786 5.446356781,44.10999583 5.4732803,44.07988261 5.47530825,44.0699316 5.470467215,44.05306722 5.459668332,44.03777766 5.463572385,44.02819013 5.449841296,44.025509 5.439404989,44.01406362 5.420476518,44.01286336 5.368852343,43.99613866 5.359340124,43.99564201" />
<polygon id="84124 SAUMANE-DE-VAUCLUSE" points="5.102660968,43.9075549 5.088833612,43.90842346 5.081229223,43.91740919 5.088650082,43.93777562 5.086735953,43.95526858 5.096812303,43.96087355 5.115149728,43.96096133 5.121825409,43.95647451 5.130967533,43.95599052 5.159728107,43.94997007 5.159298213,43.94223599 5.1551664,43.94170537 5.154479924,43.9416739 5.124635807,43.93155397 5.106152783,43.91174585 5.102660968,43.9075549" />
<polygon id="84125 SAVOILLAN" points="5.383240888,44.15528473 5.370461274,44.15476034 5.354776658,44.16018596 5.365949767,44.19030068 5.373724361,44.19904762 5.383188228,44.19906761 5.381280655,44.19238231 5.386649681,44.17927153 5.383240888,44.15528473" />
<polygon id="84126 SEGURET" points="5.033084807,44.18807759 5.026342606,44.20358086 4.988694666,44.20578217 4.991564516,44.21551726 5.010137151,44.23833681 5.021936702,44.24435997 5.025289006,44.23791434 5.032787373,44.23361592 5.037564792,44.23308618 5.044961767,44.23748671 5.05715491,44.2331891 5.054739367,44.20901349 5.060410902,44.19972311 5.062503881,44.19359713 5.033084807,44.18807759" />
<polygon id="84127 SERIGNAN-DU-COMTAT" points="4.851205878,44.17529815 4.837444515,44.17605171 4.823419185,44.16703049 4.820188854,44.18723325 4.81543628,44.18769012 4.82596023,44.20913238 4.825014195,44.22214897 4.840466077,44.2152645 4.867513314,44.21167447 4.883607349,44.20438575 4.877133047,44.18913685 4.877548789,44.1793791 4.872503004,44.17432445 4.851205878,44.17529815" />
<polygon id="84128 SIVERGUES" points="5.399488638,43.80753978 5.392444641,43.82904087 5.407265775,43.83664648 5.42144604,43.83901552 5.445284186,43.81764098 5.431870271,43.81009927 5.41950646,43.81348048 5.399488638,43.80753978" />
<polygon id="84129 SORGUES" points="4.884374158,43.98194607 4.864728629,43.98966482 4.851568358,43.98911425 4.845344158,43.99559311 4.843118425,44.00041989 4.842254032,44.01110229 4.834897883,44.01546606 4.820289742,44.01701545 4.8136462,44.03404132 4.807763561,44.03977419 4.795864776,44.04791026 4.809744462,44.04987827 4.818415992,44.04156026 4.833952564,44.03376591 4.862352663,44.03601406 4.874020651,44.03070139 4.886501961,44.03456512 4.909212418,44.03117335 4.915274013,44.01884178 4.908170358,44.01012535 4.911173821,43.99331016 4.884374158,43.98194607" />
<polygon id="84130 SUZETTE" points="5.074584191,44.15840732 5.065625688,44.15934175 5.054363959,44.16888121 5.041186202,44.16141104 5.033382106,44.16457226 5.040613392,44.17332465 5.072104152,44.18746465 5.073878482,44.18773726 5.081761832,44.16724812 5.074584191,44.15840732" />
<polygon id="84131 TAILLADES" points="5.123305323,43.81514166 5.111323708,43.8206046 5.09233392,43.82184387 5.07194945,43.82956082 5.077896242,43.84468831 5.086468473,43.84679323 5.102860344,43.83895257 5.118406305,43.82518437 5.123305323,43.81514166" />
<polygon id="84132 LE THOR" points="5.021897823,43.87908455 5.002983174,43.88235002 4.995148018,43.89071251 4.967681489,43.91147496 4.965750792,43.92881211 4.958676766,43.9379145 4.959585239,43.94840399 4.955970444,43.95672398 4.95478585,43.96288485 4.976221676,43.96787389 4.998069314,43.96209315 5.007402558,43.9471669 5.025236364,43.94619863 5.027953344,43.93955834 5.035481686,43.93580831 5.01394074,43.90577936 5.021897823,43.87908455" />
<polygon id="84133 LA TOUR-D'AIGUES" points="5.619161255,43.66933988 5.607814757,43.67892169 5.59912416,43.67794133 5.60132463,43.68460497 5.588809798,43.68878385 5.589293094,43.69563266 5.584752344,43.70142157 5.557188745,43.70609723 5.55444002,43.69984171 5.525811413,43.71107048 5.519565443,43.72030823 5.508706477,43.72716722 5.511093048,43.74704487 5.522480943,43.74393666 5.524644547,43.74653343 5.556435425,43.75649655 5.575006835,43.74548909 5.593499635,43.74194401 5.613708234,43.73251137 5.610031051,43.71504316 5.601635174,43.70646608 5.626722988,43.676558 5.627455085,43.67304713 5.619161255,43.66933988" />
<polygon id="84134 TRAVAILLAN" points="4.935455127,44.17331279 4.908018948,44.17137155 4.89420906,44.17475307 4.880528719,44.17151317 4.872503004,44.17432445 4.877548789,44.1793791 4.877133047,44.18913685 4.883607349,44.20438575 4.915625189,44.20812626 4.933600768,44.21145753 4.935793538,44.19830061 4.93876857,44.18536399 4.935455127,44.17331279" />
<polygon id="84135 UCHAUX" points="4.801478406,44.1768283 4.799762765,44.19335925 4.790940614,44.19534024 4.786340594,44.20823577 4.778592614,44.21063041 4.777302834,44.22021274 4.782496756,44.22893375 4.7751089,44.23252871 4.775109237,44.23574289 4.771734322,44.24155953 4.812140738,44.24206166 4.813448441,44.23242441 4.825341849,44.2284459 4.825014195,44.22214897 4.82596023,44.20913238 4.81543628,44.18769012 4.801478406,44.1768283" />
<polygon id="84136 VACQUEYRAS" points="4.984916576,44.12526861 4.966946317,44.14199673 4.952015677,44.1492142 4.952174773,44.1498416 4.958751516,44.15708012 4.963423269,44.15619527 4.973688998,44.1629887 4.991205745,44.15781013 4.99537344,44.13830479 5.0002057,44.13315677 4.997064725,44.12737081 4.984916576,44.12526861" />
<polygon id="84137 VAISON-LA-ROMAINE" points="5.060410902,44.19972311 5.054739367,44.20901349 5.05715491,44.2331891 5.044961767,44.23748671 5.037564792,44.23308618 5.032787373,44.23361592 5.025289006,44.23791434 5.021936702,44.24435997 5.029331972,44.24835644 5.030051751,44.26847637 5.025789879,44.26984263 5.025426456,44.27300079 5.039818338,44.27244641 5.045536697,44.27811182 5.054738648,44.2757611 5.07406035,44.27702788 5.081697617,44.27271444 5.091261507,44.24931068 5.095908426,44.24827665 5.08913754,44.22938875 5.080622992,44.22667811 5.07151152,44.21856665 5.066491395,44.20516423 5.060410902,44.19972311" />
<polygon id="84138 VALREAS" points="5.009006284,44.33376589 5.003299004,44.32846736 4.994017004,44.32706029 4.97190202,44.34038919 4.971803259,44.35052985 4.965290863,44.35560776 4.95141048,44.35779074 4.946402203,44.3636152 4.937308096,44.36121844 4.935397677,44.36407941 4.923949892,44.3662791 4.930076991,44.37074601 4.955500106,44.39081836 4.956355096,44.40102329 4.962759727,44.41004895 4.959277838,44.41978188 4.970546686,44.42984618 4.975094798,44.42945858 4.979492218,44.42368869 4.988609946,44.42320031 5.00619597,44.41171557 5.018759979,44.41597937 5.017716003,44.40713783 5.01349773,44.4054411 5.018616466,44.39258774 5.032759322,44.39089578 5.047599571,44.38212032 5.070881628,44.3832246 5.07031981,44.37644557 5.053265275,44.36488786 5.025059086,44.36099827 5.021452929,44.3443612 5.009006284,44.33376589" />
<polygon id="84139 FONTAINE-DE-VAUCLUSE" points="5.154479924,43.9416739 5.14317848,43.91546381 5.127832737,43.90771547 5.113705098,43.90753072 5.106152783,43.91174585 5.124635807,43.93155397 5.154479924,43.9416739" />
<polygon id="84140 VAUGINES" points="5.422719318,43.73381438 5.386099613,43.75749884 5.393562946,43.78834073 5.389601663,43.80149991 5.399488638,43.80753978 5.41950646,43.81348048 5.426623647,43.78988724 5.417089563,43.77396588 5.406722934,43.76676805 5.40552787,43.75636923 5.416746174,43.7461368 5.430183693,43.74235365 5.422719318,43.73381438" />
<polygon id="84141 VEDENE" points="4.883970868,43.95276756 4.884374158,43.98194607 4.911173821,43.99331016 4.928948039,43.96764706 4.913894459,43.95995358 4.918015263,43.95389478 4.883970868,43.95276756" />
<polygon id="84142 VELLERON" points="5.068773587,43.96443283 5.062447063,43.95562164 5.044033061,43.94499336 5.025236364,43.94619863 5.007402558,43.9471669 4.998069314,43.96209315 4.976221676,43.96787389 4.958883586,43.97223712 4.987983679,43.97095556 5.001591696,43.96763733 5.013871048,43.97332654 5.037670054,43.97684674 5.065157385,43.97092923 5.068773587,43.96443283" />
<polygon id="84143 VENASQUE" points="5.195953786,43.95028341 5.172768207,43.95403302 5.164026552,43.95126249 5.159625768,43.95286206 5.152951328,43.96587712 5.134852887,43.97754896 5.122214212,43.99672855 5.123067144,44.00355439 5.113426873,44.01536421 5.115724115,44.02179313 5.124222164,44.01847732 5.132392586,44.02209975 5.141756863,44.02226796 5.161605716,44.00411397 5.174329434,43.99955816 5.182253238,44.00258752 5.190078043,43.99393193 5.213629591,43.98990136 5.223468846,43.98286813 5.210743301,43.97818336 5.207197839,43.96840541 5.196711406,43.95701154 5.195953786,43.95028341" />
<polygon id="84144 VIENS" points="5.56132803,43.857465 5.550943596,43.87319502 5.546044234,43.89032693 5.522451606,43.88837162 5.511043589,43.89365884 5.522209768,43.90910434 5.535473022,43.9124528 5.530779165,43.92541055 5.544991958,43.93905484 5.567633132,43.94264 5.583383237,43.91591293 5.606559561,43.9160825 5.590289891,43.8872329 5.572737029,43.86350829 5.56132803,43.857465" />
<polygon id="84145 VILLARS" points="5.43777588,43.92089023 5.409844524,43.90221535 5.39657047,43.90577583 5.392794345,43.91224218 5.399953385,43.93262241 5.422564625,43.95575838 5.435026507,43.97876578 5.439404989,44.01406362 5.440727302,44.01434927 5.461209017,43.99140659 5.467624395,43.97106556 5.474530512,43.96213938 5.453949666,43.95634564 5.43777588,43.92089023" />
<polygon id="84146 VILLEDIEU" points="5.07406035,44.27702788 5.054738648,44.2757611 5.045536697,44.27811182 5.039818338,44.27244641 5.025426456,44.27300079 5.022817643,44.28664519 5.017150352,44.29224194 5.029500269,44.29789439 5.060564583,44.30813976 5.076512049,44.28408602 5.07406035,44.27702788" />
<polygon id="84147 VILLELAURE" points="5.445293164,43.68009529 5.412713917,43.69291304 5.388125772,43.70218785 5.396057641,43.71025969 5.421742191,43.71746934 5.427893534,43.73286186 5.43692311,43.7326511 5.444039833,43.72835029 5.453329981,43.72931167 5.465187536,43.71463936 5.453863098,43.70960173 5.445293164,43.68009529" />
<polygon id="84148 VILLES-SUR-AUZON" points="5.210540224,44.04303961 5.208644969,44.04631019 5.224729304,44.07937952 5.247252089,44.08419595 5.29912561,44.08905296 5.306598787,44.06507988 5.301674919,44.06498542 5.294363203,44.05583775 5.270096656,44.05376857 5.244877616,44.04300693 5.210540224,44.04303961" />
<polygon id="84149 VIOLES" points="4.952174773,44.1498416 4.934107485,44.15209751 4.920629861,44.16068952 4.932735789,44.16397916 4.935455127,44.17331279 4.93876857,44.18536399 4.935793538,44.19830061 4.949109772,44.20231461 4.959541528,44.20320928 4.969599119,44.19330527 4.980894362,44.18921235 4.971942544,44.18150443 4.971698325,44.17482816 4.958751516,44.15708012 4.952174773,44.1498416" />
<polygon id="84150 VISAN" points="4.987017636,44.29271878 4.979967524,44.29724903 4.921836026,44.30879742 4.889462981,44.30401919 4.890726935,44.31372174 4.882220016,44.32529374 4.895327996,44.33806148 4.9043606,44.3373022 4.920603037,44.35049908 4.923605066,44.35723583 4.937308096,44.36121844 4.946402203,44.3636152 4.95141048,44.35779074 4.965290863,44.35560776 4.971803259,44.35052985 4.97190202,44.34038919 4.994017004,44.32706029 5.003299004,44.32846736 5.009006284,44.33376589 5.013334777,44.32565483 4.997298412,44.31837461 4.992204915,44.31262324 4.987017636,44.29271878" />
<polygon id="84151 VITROLLES-EN-LUBERON" points="5.593728794,43.78234611 5.592796586,43.7828905 5.592610176,43.793033 5.572514149,43.81214677 5.565298199,43.81675564 5.550928641,43.81741696 5.563798025,43.82073454 5.57171885,43.82929061 5.599380669,43.82713101 5.627681889,43.83080153 5.631372653,43.82856957 5.64691718,43.82610437 5.640282105,43.82139409 5.622361897,43.81732467 5.614419933,43.80843957 5.610605982,43.79462018 5.593728794,43.78234611" />

</g>

</g>

</svg>
