<?xml version="1.0" standalone="no"?>
<!DOCTYPE svg PUBLIC "-//W3C//DTD SVG 1.1//EN" 
  "http://www.w3.org/Graphics/SVG/1.1/DTD/svg11.dtd">
<svg width="1000" height="1770" viewBox="2.145872523 48.72949175 0.190106787 0.221475040000001"  preserveAspectRatio="none"
     xmlns="http://www.w3.org/2000/svg" version="1.1">

<style type="text/css" >
<![CDATA[

.communes { 
	fill           : #b9b9b9;
	fill-opacity   : 1;
	stroke         : white;
	stroke-opacity : 1;
	stroke-width   : 0.002;
}

]]>
</style>

<g transform="translate(0,48.95096679) scale(1,-1) translate(0,-48.72949175)">

<g class="communes">

<polygon id="92002 ANTONY" points="2.303837318,48.72949175 2.30210055,48.73940257 2.283447335,48.73412921 2.278410605,48.7345396 2.274517408,48.74072223 2.283691113,48.74808113 2.276145973,48.75666127 2.288482676,48.76076488 2.290253488,48.76660373 2.312439452,48.77216603 2.319928764,48.77071586 2.31588478,48.76677127 2.309814286,48.75459402 2.320718018,48.74875624 2.313477126,48.730519 2.303837318,48.72949175" />
<polygon id="92004 ASNIERES-SUR-SEINE" points="2.284270342,48.9022838 2.276394608,48.90654422 2.266398166,48.90629455 2.265452919,48.90947235 2.279358373,48.91812725 2.273314402,48.92684997 2.273039372,48.93383585 2.282788114,48.93164635 2.287264047,48.92175377 2.298808127,48.91472636 2.317669705,48.92060881 2.322020747,48.91867303 2.319818646,48.91593565 2.31375826,48.91402154 2.287389259,48.90364238 2.284270342,48.9022838" />
<polygon id="92007 BAGNEUX" points="2.309699192,48.78490397 2.303309206,48.78539753 2.297004379,48.79471447 2.292222682,48.7959724 2.303518683,48.80539253 2.302679655,48.81111678 2.319062846,48.80997006 2.323937976,48.80155241 2.318682795,48.78798654 2.314815221,48.78916963 2.309699192,48.78490397" />
<polygon id="92009 BOIS-COLOMBES" points="2.266398166,48.90629455 2.264820249,48.90403658 2.258215715,48.90608228 2.257413277,48.91355963 2.273314402,48.92684997 2.279358373,48.91812725 2.265452919,48.90947235 2.266398166,48.90629455" />
<polygon id="92012 BOULOGNE-BILLANCOURT" points="2.236114072,48.8215477 2.232636965,48.82273961 2.224048328,48.83514969 2.22422457,48.85351605 2.248055951,48.84632036 2.253560441,48.83685745 2.262798259,48.83392881 2.249578894,48.82478082 2.236114072,48.8215477" />
<polygon id="92014 BOURG-LA-REINE" points="2.319928764,48.77071586 2.312439452,48.77216603 2.307705348,48.7792531 2.309699192,48.78490397 2.314815221,48.78916963 2.318682795,48.78798654 2.325812023,48.78191098 2.319928764,48.77071586" />
<polygon id="92019 CHATENAY-MALABRY" points="2.276145973,48.75666127 2.269288615,48.76064 2.250043759,48.76121327 2.232859032,48.76598807 2.228842439,48.77447084 2.237456852,48.77629801 2.23988017,48.77342629 2.259721815,48.77331704 2.279584933,48.78248665 2.278840302,48.77629415 2.290253488,48.76660373 2.288482676,48.76076488 2.276145973,48.75666127" />
<polygon id="92020 CHATILLON" points="2.272195654,48.79412525 2.279913901,48.81091887 2.300157236,48.81135387 2.302679655,48.81111678 2.303518683,48.80539253 2.292222682,48.7959724 2.272195654,48.79412525" />
<polygon id="92022 CHAVILLE" points="2.182939877,48.79722698 2.185935212,48.79982875 2.176739232,48.81401241 2.178523499,48.81486113 2.197667161,48.81778826 2.205506504,48.80920636 2.202635045,48.79840332 2.182939877,48.79722698" />
<polygon id="92023 CLAMART" points="2.228842439,48.77447084 2.226559327,48.77610203 2.226627708,48.78158897 2.234962126,48.7858789 2.237029281,48.7962354 2.253282112,48.80968521 2.251865121,48.81638584 2.272566371,48.81440001 2.27817917,48.81425415 2.279913901,48.81091887 2.272195654,48.79412525 2.271728618,48.79052477 2.237456852,48.77629801 2.228842439,48.77447084" />
<polygon id="92024 CLICHY" points="2.303777114,48.894152 2.287389259,48.90364238 2.31375826,48.91402154 2.319884459,48.90045887 2.303777114,48.894152" />
<polygon id="92025 COLOMBES" points="2.229103483,48.90603335 2.220399434,48.92061792 2.231143021,48.92773792 2.247595356,48.93673642 2.273039372,48.93383585 2.273314402,48.92684997 2.257413277,48.91355963 2.229103483,48.90603335" />
<polygon id="92026 COURBEVOIE" points="2.25375695,48.8868899 2.233785236,48.89567617 2.231624896,48.9006536 2.258215715,48.90608228 2.264820249,48.90403658 2.266398166,48.90629455 2.276394608,48.90654422 2.284270342,48.9022838 2.271065301,48.89840002 2.25375695,48.8868899" />
<polygon id="92032 FONTENAY-AUX-ROSES" points="2.281984557,48.78316666 2.271728618,48.79052477 2.272195654,48.79412525 2.292222682,48.7959724 2.297004379,48.79471447 2.303309206,48.78539753 2.281984557,48.78316666" />
<polygon id="92033 GARCHES" points="2.187209859,48.8377291 2.166622819,48.83774033 2.167349058,48.84089324 2.179811682,48.8455212 2.182619354,48.85156624 2.197861041,48.85476322 2.202369881,48.84957702 2.195576958,48.84115834 2.187209859,48.8377291" />
<polygon id="92035 LA GARENNE-COLOMBES" points="2.231624896,48.9006536 2.229103483,48.90603335 2.257413277,48.91355963 2.258215715,48.90608228 2.231624896,48.9006536" />
<polygon id="92036 GENNEVILLIERS" points="2.322020747,48.91867303 2.317669705,48.92060881 2.298808127,48.91472636 2.287264047,48.92175377 2.282788114,48.93164635 2.273039372,48.93383585 2.247595356,48.93673642 2.267584467,48.94608696 2.290973573,48.95096679 2.311672197,48.94794893 2.3100143,48.94118579 2.320867176,48.93387361 2.320315216,48.92701786 2.328449603,48.92276508 2.322020747,48.91867303" />
<polygon id="92040 ISSY-LES-MOULINEAUX" points="2.272566371,48.81440001 2.251865121,48.81638584 2.236114072,48.8215477 2.249578894,48.82478082 2.262798259,48.83392881 2.267617156,48.83420125 2.27192834,48.82888526 2.280857988,48.83133163 2.289399238,48.82835178 2.281272073,48.82501147 2.279395188,48.81889335 2.272566371,48.81440001" />
<polygon id="92044 LEVALLOIS-PERRET" points="2.284458221,48.88563837 2.271065301,48.89840002 2.284270342,48.9022838 2.287389259,48.90364238 2.303777114,48.894152 2.284458221,48.88563837" />
<polygon id="92046 MALAKOFF" points="2.279913901,48.81091887 2.27817917,48.81425415 2.291556286,48.81797669 2.301320806,48.82513029 2.314148424,48.82229055 2.300157236,48.81135387 2.279913901,48.81091887" />
<polygon id="92047 MARNES-LA-COQUETTE" points="2.150744479,48.81884927 2.151465536,48.82140869 2.156419229,48.83765981 2.166622819,48.83774033 2.187209859,48.8377291 2.180795305,48.83062515 2.171025535,48.82391131 2.150744479,48.81884927" />
<polygon id="92048 MEUDON" points="2.226627708,48.78158897 2.224203282,48.7844604 2.210036359,48.78703887 2.209148286,48.79354479 2.202635045,48.79840332 2.205506504,48.80920636 2.218520277,48.81494037 2.222690131,48.82116439 2.232636965,48.82273961 2.236114072,48.8215477 2.251865121,48.81638584 2.253282112,48.80968521 2.237029281,48.7962354 2.234962126,48.7858789 2.226627708,48.78158897" />
<polygon id="92049 MONTROUGE" points="2.319062846,48.80997006 2.302679655,48.81111678 2.300157236,48.81135387 2.314148424,48.82229055 2.331908932,48.81701279 2.329063223,48.81378604 2.319062846,48.80997006" />
<polygon id="92050 NANTERRE" points="2.207759618,48.87422836 2.169348729,48.89581313 2.174289314,48.89906693 2.200591009,48.90867933 2.220399434,48.92061792 2.229103483,48.90603335 2.231624896,48.9006536 2.233785236,48.89567617 2.223611532,48.8827681 2.207759618,48.87422836" />
<polygon id="92051 NEUILLY-SUR-SEINE" points="2.279946531,48.8785785 2.259988953,48.88019253 2.255286342,48.87435361 2.245698309,48.876461 2.25375695,48.8868899 2.271065301,48.89840002 2.284458221,48.88563837 2.279946531,48.8785785" />
<polygon id="92060 LE PLESSIS-ROBINSON" points="2.279584933,48.78248665 2.259721815,48.77331704 2.23988017,48.77342629 2.237456852,48.77629801 2.271728618,48.79052477 2.281984557,48.78316666 2.279584933,48.78248665" />
<polygon id="92062 PUTEAUX" points="2.231736346,48.86906948 2.234147783,48.87752083 2.223611532,48.8827681 2.233785236,48.89567617 2.25375695,48.8868899 2.245698309,48.876461 2.231736346,48.86906948" />
<polygon id="92063 RUEIL-MALMAISON" points="2.159867593,48.8477212 2.15041165,48.85850089 2.153764153,48.86440652 2.150387185,48.87086701 2.158314349,48.88060908 2.169348729,48.89581313 2.207759618,48.87422836 2.211281552,48.86854072 2.200677424,48.86307422 2.203563733,48.86062921 2.197861041,48.85476322 2.182619354,48.85156624 2.159867593,48.8477212" />
<polygon id="92064 SAINT-CLOUD" points="2.224048328,48.83514969 2.218230811,48.82698136 2.199430486,48.82978899 2.180795305,48.83062515 2.187209859,48.8377291 2.195576958,48.84115834 2.202369881,48.84957702 2.197861041,48.85476322 2.203563733,48.86062921 2.225677067,48.8594073 2.22422457,48.85351605 2.224048328,48.83514969" />
<polygon id="92071 SCEAUX" points="2.290253488,48.76660373 2.278840302,48.77629415 2.279584933,48.78248665 2.281984557,48.78316666 2.303309206,48.78539753 2.309699192,48.78490397 2.307705348,48.7792531 2.312439452,48.77216603 2.290253488,48.76660373" />
<polygon id="92072 SEVRES" points="2.205506504,48.80920636 2.197667161,48.81778826 2.178523499,48.81486113 2.19871205,48.82335353 2.199430486,48.82978899 2.218230811,48.82698136 2.224048328,48.83514969 2.232636965,48.82273961 2.222690131,48.82116439 2.218520277,48.81494037 2.205506504,48.80920636" />
<polygon id="92073 SURESNES" points="2.225677067,48.8594073 2.203563733,48.86062921 2.200677424,48.86307422 2.211281552,48.86854072 2.207759618,48.87422836 2.223611532,48.8827681 2.234147783,48.87752083 2.231736346,48.86906948 2.225677067,48.8594073" />
<polygon id="92075 VANVES" points="2.27817917,48.81425415 2.272566371,48.81440001 2.279395188,48.81889335 2.281272073,48.82501147 2.289399238,48.82835178 2.301320806,48.82513029 2.291556286,48.81797669 2.27817917,48.81425415" />
<polygon id="92076 VAUCRESSON" points="2.151465536,48.82140869 2.148475928,48.82849269 2.145872523,48.83690143 2.150032316,48.84666241 2.159867593,48.8477212 2.182619354,48.85156624 2.179811682,48.8455212 2.167349058,48.84089324 2.166622819,48.83774033 2.156419229,48.83765981 2.151465536,48.82140869" />
<polygon id="92077 VILLE-D'AVRAY" points="2.161274834,48.81278066 2.150744479,48.81884927 2.171025535,48.82391131 2.180795305,48.83062515 2.199430486,48.82978899 2.19871205,48.82335353 2.178523499,48.81486113 2.176739232,48.81401241 2.161274834,48.81278066" />
<polygon id="92078 VILLENEUVE-LA-GARENNE" points="2.328449603,48.92276508 2.320315216,48.92701786 2.320867176,48.93387361 2.3100143,48.94118579 2.311672197,48.94794893 2.334910109,48.94154234 2.33597931,48.93157517 2.328449603,48.92276508" />

</g>

</g>

</svg>
